<svg width="189" height="30" viewBox="0 0 189 30" fill="none" xmlns="http://www.w3.org/2000/svg">
<rect width="189" height="30" fill="black"/>
<path d="M31.6274 11.4922C27.994 11.4922 25.2715 14.0362 24.2701 15.1295C24.0799 15.3377 24.0799 15.6631 24.2701 15.8714C25.2715 16.9647 27.994 19.5086 31.6274 19.5086C35.262 19.5086 37.9833 16.9647 38.9848 15.8714C39.175 15.6631 39.175 15.3377 38.9848 15.1295C37.9833 14.035 35.2609 11.4922 31.6274 11.4922ZM28.2759 13.396C27.9195 14.0314 27.719 14.7745 27.719 15.5578C27.719 16.276 27.8863 16.9599 28.1911 17.561C26.9628 16.9398 25.9969 16.1092 25.385 15.4998C26.0106 14.8774 27.0075 14.022 28.2759 13.396ZM30.2857 18.2958C29.3461 17.7657 28.7652 16.7221 28.7652 15.559C28.7652 14.2302 29.5294 13.0612 30.6707 12.6411C30.9812 12.5973 31.3009 12.5725 31.6286 12.5725C31.8726 12.5725 32.1133 12.5867 32.3482 12.6115C33.5215 12.9973 34.3396 14.2054 34.3396 15.559C34.3396 16.7434 33.7174 17.8249 32.7481 18.336C32.386 18.3952 32.0124 18.4295 31.6274 18.4295C31.1634 18.4283 30.7154 18.3798 30.2857 18.2958ZM34.8529 17.6651C35.1944 17.038 35.3846 16.3139 35.3846 15.559C35.3846 14.7449 35.1715 13.9687 34.7659 13.2954C36.1351 13.9273 37.2088 14.8431 37.8688 15.501C37.2237 16.1435 36.181 17.0345 34.8529 17.6651Z" fill="white"/>
<path d="M32.878 15.5583C32.1458 15.5583 31.5523 14.9453 31.5523 14.1904C30.8201 14.1904 30.2266 14.8033 30.2266 15.5583C30.2266 16.3132 30.8201 16.9261 31.5523 16.9261C32.2845 16.9261 32.878 16.3132 32.878 15.5583Z" fill="white"/>
<path d="M59.0474 15.8311C58.2433 15.5999 57.6574 15.3167 57.2896 14.9814C56.925 14.6429 56.7427 14.2262 56.7427 13.7314C56.7427 13.1715 56.9657 12.7093 57.4116 12.3447C57.8608 11.9769 58.4435 11.793 59.1597 11.793C59.6479 11.793 60.0825 11.8874 60.4634 12.0762C60.8475 12.265 61.1437 12.5254 61.3521 12.8574C61.5636 13.1895 61.6694 13.5524 61.6694 13.9463H60.7271C60.7271 13.5166 60.5903 13.1797 60.3169 12.9355C60.0435 12.6882 59.6577 12.5645 59.1597 12.5645C58.6974 12.5645 58.3361 12.667 58.0757 12.8721C57.8185 13.0739 57.6899 13.3555 57.6899 13.7168C57.6899 14.0065 57.812 14.2523 58.0562 14.4541C58.3035 14.6527 58.7218 14.835 59.311 15.001C59.9035 15.167 60.3657 15.3509 60.6978 15.5527C61.033 15.7513 61.2804 15.984 61.4399 16.251C61.6027 16.5179 61.6841 16.832 61.6841 17.1934C61.6841 17.7695 61.4595 18.2318 61.0103 18.5801C60.561 18.9251 59.9604 19.0977 59.2085 19.0977C58.7202 19.0977 58.2645 19.0049 57.8413 18.8193C57.4181 18.6305 57.091 18.3734 56.8599 18.0479C56.632 17.7223 56.5181 17.3529 56.5181 16.9395H57.4604C57.4604 17.3691 57.6183 17.7093 57.9341 17.96C58.2531 18.2074 58.6779 18.3311 59.2085 18.3311C59.7033 18.3311 60.0825 18.2301 60.3462 18.0283C60.6099 17.8265 60.7417 17.5514 60.7417 17.2031C60.7417 16.8548 60.6196 16.5863 60.3755 16.3975C60.1313 16.2054 59.6886 16.0166 59.0474 15.8311ZM71.3892 15.7139L68.3081 15.7139V18.2334H71.8872V19H67.3706V11.8906H71.8384V12.6621H68.3081V14.9473L71.3892 14.9473V15.7139ZM82.9644 15.6748C82.9644 16.3617 82.8553 16.9541 82.6372 17.4521C82.4191 17.9469 82.1131 18.3343 81.7192 18.6143L82.9888 19.6104L82.3491 20.2012L80.8501 19.0098C80.6157 19.0684 80.3683 19.0977 80.1079 19.0977C79.548 19.0977 79.0516 18.9609 78.6187 18.6875C78.1857 18.4108 77.8488 18.0186 77.6079 17.5107C77.3703 16.9997 77.2482 16.4089 77.2417 15.7383V15.2256C77.2417 14.542 77.3605 13.9382 77.5981 13.4141C77.8358 12.89 78.1711 12.4896 78.604 12.2129C79.0402 11.9329 79.5382 11.793 80.0981 11.793C80.6711 11.793 81.174 11.9313 81.6069 12.208C82.0431 12.4847 82.3784 12.8835 82.6128 13.4043C82.8472 13.9219 82.9644 14.5273 82.9644 15.2207V15.6748ZM82.0269 15.2158C82.0269 14.3792 81.8592 13.7347 81.5239 13.2822C81.1919 12.8265 80.7166 12.5986 80.0981 12.5986C79.509 12.5986 79.0435 12.8249 78.7017 13.2773C78.3631 13.7266 78.189 14.3516 78.1792 15.1523V15.6748C78.1792 16.4886 78.3485 17.1299 78.687 17.5986C79.0288 18.0674 79.5024 18.3018 80.1079 18.3018C80.7134 18.3018 81.1821 18.082 81.5142 17.6426C81.8462 17.1999 82.0171 16.5667 82.0269 15.7432V15.2158ZM93.895 11.8906V16.7246C93.8918 17.3952 93.6802 17.9437 93.2603 18.3701C92.8436 18.7965 92.2772 19.0358 91.561 19.0879L91.312 19.0977C90.534 19.0977 89.9139 18.8877 89.4517 18.4678C88.9894 18.0479 88.755 17.4701 88.7485 16.7344V11.8906H89.6763V16.7051C89.6763 17.2194 89.8179 17.6198 90.1011 17.9062C90.3843 18.1895 90.7879 18.3311 91.312 18.3311C91.8426 18.3311 92.2479 18.1895 92.5278 17.9062C92.811 17.623 92.9526 17.2243 92.9526 16.71V11.8906H93.895ZM103.874 15.7139H100.792V18.2334L104.372 18.2334V19L99.855 19V11.8906H104.323V12.6621H100.792V14.9473H103.874V15.7139ZM115.483 19H114.541L110.961 13.5215V19H110.019V11.8906H110.961L114.55 17.3936V11.8906H115.483V19ZM126.858 16.7441C126.77 17.4961 126.492 18.0771 126.023 18.4873C125.557 18.8942 124.937 19.0977 124.163 19.0977C123.323 19.0977 122.649 18.7965 122.141 18.1943C121.637 17.5921 121.384 16.7865 121.384 15.7773V15.0937C121.384 14.4329 121.501 13.8519 121.736 13.3506C121.973 12.8493 122.309 12.4652 122.742 12.1982C123.175 11.9281 123.676 11.793 124.246 11.793C125.001 11.793 125.606 12.0046 126.062 12.4277C126.518 12.8477 126.783 13.4303 126.858 14.1758H125.916C125.834 13.6094 125.657 13.1992 125.383 12.9453C125.113 12.6914 124.734 12.5645 124.246 12.5645C123.647 12.5645 123.176 12.7858 122.834 13.2285C122.496 13.6712 122.327 14.3011 122.327 15.1182V15.8066C122.327 16.5781 122.488 17.1917 122.81 17.6475C123.132 18.1032 123.583 18.3311 124.163 18.3311C124.683 18.3311 125.082 18.2139 125.359 17.9795C125.639 17.7419 125.824 17.3301 125.916 16.7441H126.858ZM136.641 15.7139H133.56V18.2334H137.139V19H132.623V11.8906H137.09V12.6621H133.56V14.9473H136.641V15.7139ZM150.753 19H149.816V11.8906H150.753V19Z" fill="white"/>
</svg>
