<svg width="88" height="18" viewBox="0 0 88 18" fill="none" xmlns="http://www.w3.org/2000/svg">
<path d="M74.0488 2.22754L71.0117 9H70.4014L73.4189 2.38867L69.376 2.38867V1.89062L74.0488 1.89062V2.22754ZM79.5029 6.03613C79.5029 7.03874 79.319 7.80046 78.9512 8.32129C78.5833 8.83887 78.0413 9.09766 77.3252 9.09766C76.6221 9.09766 76.0833 8.84375 75.709 8.33594C75.3346 7.82487 75.1426 7.08268 75.1328 6.10937V4.83496C75.1328 3.83561 75.3184 3.07878 75.6895 2.56445C76.0605 2.05013 76.6025 1.79297 77.3154 1.79297C78.0186 1.79297 78.5557 2.04199 78.9268 2.54004C79.2979 3.03483 79.4899 3.76562 79.5029 4.73242V6.03613ZM78.917 4.76172C78.917 3.94792 78.7835 3.33268 78.5166 2.91602C78.2529 2.49935 77.8525 2.29102 77.3154 2.29102C76.7881 2.29102 76.391 2.49447 76.124 2.90137C75.8571 3.30827 75.7204 3.90885 75.7139 4.70312V6.09961C75.7139 6.91016 75.8506 7.53027 76.124 7.95996C76.4007 8.38965 76.8011 8.60449 77.3252 8.60449C77.846 8.60449 78.2399 8.39453 78.5068 7.97461C78.777 7.55469 78.9137 6.93945 78.917 6.12891V4.76172ZM80.626 3.25781C80.626 2.83464 80.7562 2.4847 81.0166 2.20801C81.2803 1.92806 81.6139 1.78809 82.0176 1.78809C82.4212 1.78809 82.7533 1.92806 83.0137 2.20801C83.2773 2.4847 83.4092 2.8444 83.4092 3.28711V3.63379C83.4092 4.05046 83.279 4.39876 83.0186 4.67871C82.7614 4.9554 82.431 5.09375 82.0273 5.09375C81.627 5.09375 81.2933 4.95703 81.0264 4.68359C80.7594 4.41016 80.626 4.04883 80.626 3.59961V3.25781ZM81.0996 3.63379C81.0996 3.93652 81.1826 4.18555 81.3486 4.38086C81.5179 4.57617 81.7441 4.67383 82.0273 4.67383C82.304 4.67383 82.5238 4.57617 82.6865 4.38086C82.8525 4.18229 82.9355 3.92676 82.9355 3.61426V3.25781C82.9355 2.95508 82.8509 2.70605 82.6816 2.51074C82.5124 2.31217 82.291 2.21289 82.0176 2.21289C81.7474 2.21289 81.526 2.31055 81.3535 2.50586C81.1842 2.70117 81.0996 2.96159 81.0996 3.28711V3.63379ZM84.2051 7.25684C84.2051 6.83366 84.3353 6.48372 84.5957 6.20703C84.8594 5.93034 85.1914 5.79199 85.5918 5.79199C85.9922 5.79199 86.3242 5.93034 86.5879 6.20703C86.8548 6.48047 86.9883 6.8418 86.9883 7.29102V7.6377C86.9883 8.06087 86.8564 8.41081 86.5928 8.6875C86.3324 8.96419 86.002 9.10254 85.6016 9.10254C85.2012 9.10254 84.8675 8.96582 84.6006 8.69238C84.3369 8.41569 84.2051 8.05599 84.2051 7.61328V7.25684ZM84.6738 7.6377C84.6738 7.94368 84.7568 8.19434 84.9229 8.38965C85.0921 8.58496 85.3184 8.68262 85.6016 8.68262C85.8815 8.68262 86.1029 8.58496 86.2656 8.38965C86.4316 8.19108 86.5146 7.93229 86.5146 7.61328V7.25684C86.5146 6.94434 86.43 6.69368 86.2607 6.50488C86.0947 6.31283 85.8717 6.2168 85.5918 6.2168C85.3184 6.2168 85.097 6.31283 84.9277 6.50488C84.7585 6.69694 84.6738 6.9541 84.6738 7.27637V7.6377ZM82.2129 8.40918L81.8467 8.1748L85.3184 2.61816L85.6846 2.85254L82.2129 8.40918Z" fill="#00FF00"/>
<path d="M74.0488 2.22754L74.1401 2.26846L74.1488 2.24894V2.22754H74.0488ZM71.0117 9V9.1H71.0765L71.103 9.04092L71.0117 9ZM70.4014 9L70.3104 8.95848L70.2458 9.1H70.4014V9ZM73.4189 2.38867L73.5099 2.43019L73.5745 2.28867H73.4189V2.38867ZM69.376 2.38867H69.276V2.48867H69.376V2.38867ZM69.376 1.89062V1.79062H69.276V1.89062H69.376ZM74.0488 1.89062H74.1488V1.79062H74.0488V1.89062ZM73.9576 2.18662L70.9205 8.95908L71.103 9.04092L74.1401 2.26846L73.9576 2.18662ZM71.0117 8.9H70.4014V9.1H71.0117V8.9ZM70.4923 9.04152L73.5099 2.43019L73.328 2.34715L70.3104 8.95848L70.4923 9.04152ZM73.4189 2.28867L69.376 2.28867V2.48867L73.4189 2.48867V2.28867ZM69.476 2.38867V1.89062H69.276V2.38867H69.476ZM69.376 1.99063L74.0488 1.99063V1.79062L69.376 1.79062V1.99063ZM73.9488 1.89062V2.22754H74.1488V1.89062H73.9488ZM78.9512 8.32129L79.0327 8.37922L79.0329 8.37898L78.9512 8.32129ZM75.709 8.33594L75.6283 8.39503L75.6285 8.39528L75.709 8.33594ZM75.1328 6.10937H75.0328L75.0328 6.11038L75.1328 6.10937ZM78.9268 2.54004L78.8466 2.59979L78.8468 2.60004L78.9268 2.54004ZM79.5029 4.73242L79.6029 4.73242L79.6029 4.73108L79.5029 4.73242ZM78.5166 2.91602L78.4321 2.96949L78.4324 2.96996L78.5166 2.91602ZM75.7139 4.70312L75.6139 4.70231V4.70312H75.7139ZM76.124 7.95996L76.0397 8.01365L76.0399 8.0141L76.124 7.95996ZM78.5068 7.97461L78.4227 7.9205L78.4224 7.92096L78.5068 7.97461ZM78.917 6.12891L79.017 6.12931V6.12891H78.917ZM79.4029 6.03613C79.4029 7.02903 79.2204 7.7668 78.8695 8.2636L79.0329 8.37898C79.4177 7.83411 79.6029 7.04844 79.6029 6.03613H79.4029ZM78.8697 8.26336C78.5232 8.75087 78.0138 8.99766 77.3252 8.99766V9.19766C78.0689 9.19766 78.6435 8.92687 79.0327 8.37922L78.8697 8.26336ZM77.3252 8.99766C76.6496 8.99766 76.1426 8.75564 75.7895 8.2766L75.6285 8.39528C76.024 8.93186 76.5945 9.19766 77.3252 9.19766V8.99766ZM75.7897 8.27685C75.4327 7.7895 75.2425 7.07128 75.2328 6.10837L75.0328 6.11038C75.0427 7.09409 75.2366 7.86024 75.6283 8.39503L75.7897 8.27685ZM75.2328 6.10937V4.83496H75.0328V6.10937H75.2328ZM75.2328 4.83496C75.2328 3.8454 75.417 3.11298 75.7705 2.62296L75.6084 2.50594C75.2197 3.04457 75.0328 3.82583 75.0328 4.83496H75.2328ZM75.7705 2.62296C76.1203 2.13822 76.6301 1.89297 77.3154 1.89297V1.69297C76.575 1.69297 76.0008 1.96204 75.6084 2.50594L75.7705 2.62296ZM77.3154 1.89297C77.9917 1.89297 78.497 2.13067 78.8466 2.59979L79.0069 2.48029C78.6143 1.95331 78.0454 1.69297 77.3154 1.69297V1.89297ZM78.8468 2.60004C79.1998 3.07076 79.3901 3.77703 79.4029 4.73377L79.6029 4.73108C79.5898 3.75422 79.3959 2.99891 79.0068 2.48004L78.8468 2.60004ZM79.4029 4.73242V6.03613H79.6029V4.73242H79.4029ZM79.017 4.76172C79.017 3.93989 78.8827 3.30216 78.6008 2.86207L78.4324 2.96996C78.6843 3.36321 78.817 3.95594 78.817 4.76172H79.017ZM78.6011 2.86254C78.3172 2.41395 77.8832 2.19102 77.3154 2.19102V2.39102C77.8219 2.39102 78.1886 2.58475 78.4321 2.96949L78.6011 2.86254ZM77.3154 2.19102C76.7577 2.19102 76.3276 2.40875 76.0404 2.84652L76.2076 2.95622C76.4543 2.58018 76.8184 2.39102 77.3154 2.39102V2.19102ZM76.0404 2.84652C75.7582 3.27669 75.6204 3.8998 75.6139 4.70231L75.8139 4.70394C75.8203 3.91791 75.956 3.33985 76.2076 2.95622L76.0404 2.84652ZM75.6139 4.70312V6.09961H75.8139V4.70312H75.6139ZM75.6139 6.09961C75.6139 6.91892 75.7516 7.56103 76.0397 8.01365L76.2084 7.90627C75.9495 7.49951 75.8139 6.9014 75.8139 6.09961H75.6139ZM76.0399 8.0141C76.3356 8.47324 76.7682 8.70449 77.3252 8.70449V8.50449C76.8341 8.50449 76.4658 8.30605 76.2081 7.90582L76.0399 8.0141ZM77.3252 8.70449C77.8783 8.70449 78.3049 8.47864 78.5912 8.02825L78.4224 7.92096C78.1749 8.31043 77.8138 8.50449 77.3252 8.50449V8.70449ZM78.5909 8.02872C78.876 7.58566 79.0137 6.94816 79.017 6.12931L78.817 6.1285C78.8138 6.93074 78.678 7.52372 78.4227 7.9205L78.5909 8.02872ZM79.017 6.12891V4.76172H78.817V6.12891H79.017ZM81.0166 2.20801L80.9438 2.13944L80.9438 2.13947L81.0166 2.20801ZM83.0137 2.20801L82.9404 2.27612L82.9413 2.27699L83.0137 2.20801ZM83.0186 4.67871L82.9453 4.6106L82.9453 4.61063L83.0186 4.67871ZM81.3486 4.38086L81.2724 4.44563L81.2731 4.44635L81.3486 4.38086ZM82.6865 4.38086L82.6098 4.31672L82.6097 4.31684L82.6865 4.38086ZM82.6816 2.51074L82.6055 2.57562L82.6061 2.57624L82.6816 2.51074ZM81.3535 2.50586L81.2786 2.43965L81.2779 2.44037L81.3535 2.50586ZM84.5957 6.20703L84.5233 6.13804L84.5229 6.13849L84.5957 6.20703ZM86.5879 6.20703L86.5155 6.27602L86.5163 6.27688L86.5879 6.20703ZM86.5928 8.6875L86.5204 8.61851L86.52 8.61896L86.5928 8.6875ZM84.6006 8.69238L84.5282 8.76137L84.529 8.76224L84.6006 8.69238ZM84.9229 8.38965L84.8467 8.45442L84.8473 8.45514L84.9229 8.38965ZM86.2656 8.38965L86.1889 8.32551L86.1888 8.32563L86.2656 8.38965ZM86.2607 6.50488L86.1851 6.57029L86.1863 6.57164L86.2607 6.50488ZM84.9277 6.50488L84.8527 6.43876L84.9277 6.50488ZM82.2129 8.40918L82.159 8.49341L82.2441 8.5479L82.2977 8.46217L82.2129 8.40918ZM81.8467 8.1748L81.7619 8.12182L81.7095 8.20571L81.7928 8.25903L81.8467 8.1748ZM85.3184 2.61816L85.3723 2.53394L85.2871 2.47944L85.2336 2.56518L85.3184 2.61816ZM85.6846 2.85254L85.7694 2.90553L85.8218 2.82163L85.7385 2.76831L85.6846 2.85254ZM80.726 3.25781C80.726 2.85697 80.8485 2.53252 81.0894 2.27654L80.9438 2.13947C80.6639 2.43688 80.526 2.8123 80.526 3.25781H80.726ZM81.0894 2.27657C81.3331 2.01778 81.64 1.88809 82.0176 1.88809V1.68809C81.5879 1.68809 81.2274 1.83834 80.9438 2.13944L81.0894 2.27657ZM82.0176 1.88809C82.3952 1.88809 82.7001 2.01775 82.9405 2.27612L83.0869 2.1399C82.8064 1.83837 82.4473 1.68809 82.0176 1.68809V1.88809ZM82.9413 2.27699C83.1844 2.53215 83.3092 2.86572 83.3092 3.28711H83.5092C83.5092 2.82308 83.3703 2.43725 83.0861 2.13902L82.9413 2.27699ZM83.3092 3.28711V3.63379H83.5092V3.28711H83.3092ZM83.3092 3.63379C83.3092 4.02766 83.1869 4.35089 82.9453 4.6106L83.0918 4.74682C83.371 4.44664 83.5092 4.07326 83.5092 3.63379H83.3092ZM82.9453 4.61063C82.7085 4.86546 82.4053 4.99375 82.0273 4.99375V5.19375C82.4566 5.19375 82.8143 5.04535 83.0918 4.74679L82.9453 4.61063ZM82.0273 4.99375C81.6525 4.99375 81.3451 4.86689 81.0979 4.61374L80.9548 4.75345C81.2415 5.04717 81.6015 5.19375 82.0273 5.19375V4.99375ZM81.0979 4.61374C80.8524 4.36223 80.726 4.02764 80.726 3.59961H80.526C80.526 4.07001 80.6665 4.45808 80.9548 4.75345L81.0979 4.61374ZM80.726 3.59961V3.25781H80.526V3.59961H80.726ZM80.9996 3.63379C80.9996 3.95574 81.0884 4.22907 81.2724 4.44562L81.4248 4.31609C81.2769 4.14203 81.1996 3.91731 81.1996 3.63379H80.9996ZM81.2731 4.44635C81.4633 4.66584 81.7183 4.77383 82.0273 4.77383V4.57383C81.77 4.57383 81.5725 4.48651 81.4242 4.31537L81.2731 4.44635ZM82.0273 4.77383C82.3307 4.77383 82.5798 4.66518 82.7633 4.44488L82.6097 4.31684C82.4678 4.48716 82.2773 4.57383 82.0273 4.57383V4.77383ZM82.7632 4.445C82.9473 4.22491 83.0355 3.94515 83.0355 3.61426H82.8355C82.8355 3.90837 82.7578 4.13967 82.6098 4.31672L82.7632 4.445ZM83.0355 3.61426V3.25781H82.8355V3.61426H83.0355ZM83.0355 3.25781C83.0355 2.93537 82.9449 2.66178 82.7572 2.44525L82.6061 2.57624C82.757 2.75033 82.8355 2.97479 82.8355 3.25781H83.0355ZM82.7577 2.44587C82.5685 2.22382 82.3187 2.11289 82.0176 2.11289V2.31289C82.2633 2.31289 82.4563 2.40053 82.6055 2.57562L82.7577 2.44587ZM82.0176 2.11289C81.7199 2.11289 81.4709 2.22197 81.2786 2.43966L81.4285 2.57206C81.5812 2.39912 81.7749 2.31289 82.0176 2.31289V2.11289ZM81.2779 2.44037C81.0892 2.6582 80.9996 2.94397 80.9996 3.28711H81.1996C81.1996 2.97921 81.2793 2.74415 81.4291 2.57135L81.2779 2.44037ZM80.9996 3.28711V3.63379H81.1996V3.28711H80.9996ZM84.3051 7.25684C84.3051 6.85599 84.4276 6.53154 84.6685 6.27557L84.5229 6.13849C84.243 6.43591 84.1051 6.81133 84.1051 7.25684H84.3051ZM84.6681 6.27602C84.9119 6.02016 85.2173 5.89199 85.5918 5.89199V5.69199C85.1655 5.69199 84.8068 5.84051 84.5233 6.13804L84.6681 6.27602ZM85.5918 5.89199C85.9663 5.89199 86.2717 6.02016 86.5155 6.27602L86.6603 6.13804C86.3768 5.84051 86.0181 5.69199 85.5918 5.69199V5.89199ZM86.5163 6.27688C86.7619 6.5284 86.8883 6.86298 86.8883 7.29102H87.0883C87.0883 6.82061 86.9478 6.43254 86.6594 6.13718L86.5163 6.27688ZM86.8883 7.29102V7.6377H87.0883V7.29102H86.8883ZM86.8883 7.6377C86.8883 8.03818 86.7644 8.36248 86.5204 8.61851L86.6652 8.75649C86.9485 8.45914 87.0883 8.08356 87.0883 7.6377H86.8883ZM86.52 8.61896C86.2795 8.8744 85.976 9.00254 85.6016 9.00254V9.20254C86.0279 9.20254 86.3852 9.05399 86.6656 8.75604L86.52 8.61896ZM85.6016 9.00254C85.2267 9.00254 84.9193 8.87568 84.6721 8.62253L84.529 8.76224C84.8158 9.05596 85.1757 9.20254 85.6016 9.20254V9.00254ZM84.673 8.6234C84.4298 8.36824 84.3051 8.03467 84.3051 7.61328H84.1051C84.1051 8.07731 84.244 8.46314 84.5282 8.76137L84.673 8.6234ZM84.3051 7.61328V7.25684H84.1051V7.61328H84.3051ZM84.5738 7.6377C84.5738 7.9626 84.6624 8.23766 84.8467 8.45441L84.999 8.32488C84.8513 8.15101 84.7738 7.92477 84.7738 7.6377H84.5738ZM84.8473 8.45514C85.0375 8.67463 85.2925 8.78262 85.6016 8.78262V8.58262C85.3442 8.58262 85.1467 8.49529 84.9984 8.32416L84.8473 8.45514ZM85.6016 8.78262C85.9078 8.78262 86.1586 8.67427 86.3424 8.45367L86.1888 8.32563C86.0471 8.49566 85.8552 8.58262 85.6016 8.58262V8.78262ZM86.3423 8.45379C86.5267 8.23334 86.6146 7.9501 86.6146 7.61328H86.4146C86.4146 7.91448 86.3366 8.14883 86.1889 8.32551L86.3423 8.45379ZM86.6146 7.61328V7.25684H86.4146V7.61328H86.6146ZM86.6146 7.25684C86.6146 6.92568 86.5245 6.64929 86.3352 6.43813L86.1863 6.57164C86.3355 6.73808 86.4146 6.963 86.4146 7.25684H86.6146ZM86.3364 6.43949C86.1493 6.22304 85.8974 6.1168 85.5918 6.1168V6.3168C85.8461 6.3168 86.0402 6.40261 86.1851 6.57028L86.3364 6.43949ZM85.5918 6.1168C85.2919 6.1168 85.0424 6.22356 84.8527 6.43876L85.0028 6.571C85.1516 6.40209 85.3449 6.3168 85.5918 6.3168V6.1168ZM84.8527 6.43876C84.6635 6.65344 84.5738 6.93627 84.5738 7.27637H84.7738C84.7738 6.97193 84.8534 6.74044 85.0028 6.571L84.8527 6.43876ZM84.5738 7.27637V7.6377H84.7738V7.27637H84.5738ZM82.2668 8.32495L81.9006 8.09058L81.7928 8.25903L82.159 8.49341L82.2668 8.32495ZM81.9315 8.22779L85.4032 2.67115L85.2336 2.56518L81.7619 8.12182L81.9315 8.22779ZM85.2645 2.70239L85.6307 2.93677L85.7385 2.76831L85.3723 2.53394L85.2645 2.70239ZM85.5998 2.79955L82.1281 8.35619L82.2977 8.46217L85.7694 2.90553L85.5998 2.79955Z" fill="#00FF00"/>
<rect y="9" width="87" height="9" fill="#00FF00"/>
</svg>
