<svg width="144" height="41" viewBox="0 0 144 41" fill="none" xmlns="http://www.w3.org/2000/svg">
<path d="M9.01284 20.8035L8.0712 18.158L6.21034 18.853L6.21034 16.8128L3.43026 16.8128L3.43026 18.853L1.5694 18.158L0.627758 20.8035L2.4662 21.4537L1.18826 22.9558L3.34058 24.7719L4.8203 23.0007L6.30002 24.7719L8.45234 22.9558L7.15198 21.4537L9.01284 20.8035ZM22.6994 17.306L16.0182 17.306L16.0182 33L20.3453 33L20.3453 28.6729L22.6994 28.6729C26.04 28.6729 28.5286 26.274 28.5286 22.9783C28.5286 19.7049 26.04 17.306 22.6994 17.306ZM22.1837 24.9064L20.3453 24.9064L20.3453 21.095L22.1837 21.095C23.3271 21.095 24.067 21.8797 24.067 23.0007C24.067 24.1217 23.3271 24.9064 22.1837 24.9064ZM43.2123 33L48.0326 33L44.9162 27.3053C46.4632 26.3861 47.4048 24.7943 47.4048 22.8662C47.4048 19.5928 44.9386 17.306 41.5756 17.306L34.7599 17.306L34.7599 33L39.087 33L39.087 28.2021L40.6564 28.2021L43.2123 33ZM39.087 21.1622L41.06 21.1622C42.2706 21.1622 42.9657 21.8797 42.9657 22.8662C42.9657 23.8302 42.2706 24.5701 41.06 24.5701L39.087 24.5701L39.087 21.1622ZM62.5961 33.4036C67.6406 33.4036 71.2278 29.9733 71.2278 25.1754C71.2278 20.3551 67.6406 16.9249 62.5961 16.9249C57.5516 16.9249 53.9644 20.3775 53.9644 25.1754C53.9644 29.9509 57.5516 33.4036 62.5961 33.4036ZM62.5961 29.3904C60.2196 29.3904 58.4484 27.5968 58.4484 25.1754C58.4484 22.7316 60.2196 20.938 62.5961 20.938C64.9951 20.9381 66.7214 22.7092 66.7214 25.1754C66.7214 27.6192 64.9951 29.3904 62.5961 29.3904ZM88.2856 21.2295L88.2856 17.306L78.2863 17.306L78.2863 33L82.6582 33L82.6582 27.5071L87.7027 27.5071L87.7027 23.7181L82.6582 23.7181L82.6582 21.2295L88.2856 21.2295ZM99.2307 29.2559L99.2307 26.9018L104.387 26.9018L104.387 23.3594L99.2307 23.3594L99.2307 21.0502L104.97 21.0502L104.97 17.306L94.9261 17.306L94.9261 33L105.172 33L105.172 29.2559L99.2307 29.2559ZM118.068 33.4036C121.722 33.4036 124.345 31.61 124.345 28.1797C124.345 24.6149 121.341 23.8302 119.009 23.2473C117.552 22.8662 116.364 22.5747 116.364 21.6779C116.364 20.9381 117.104 20.6018 117.866 20.6018C118.763 20.6018 119.502 21.0726 119.502 22.0815L123.852 22.0815C123.852 18.8754 121.677 16.9473 117.911 16.9473C114.211 16.9473 111.947 18.7185 111.947 21.8124C111.947 25.3772 114.839 26.0722 117.104 26.6327C118.606 26.9915 119.839 27.2829 119.839 28.2694C119.839 29.1214 118.964 29.6146 118.068 29.6146C117.081 29.6146 116.207 29.0541 116.207 27.9331L111.745 27.9331C111.745 31.3634 114.234 33.4036 118.068 33.4036ZM131.177 28.6954L142.656 28.6954L142.656 24.9064L131.177 24.9064L131.177 28.6954Z" fill="black"/>
<path d="M16.7247 7.1688L19.1403 7.1688L19.1403 4.84714L16.7247 4.84714L16.7247 7.1688ZM16.7247 12L19.1403 12L19.1403 9.69176L16.7247 9.69176L16.7247 12ZM35.5913 12L34.1822 2.606L31.6056 2.606L29.3779 7.71902L27.1636 2.606L24.5735 2.606L23.151 12L25.7813 12L26.506 6.60516L28.9887 12.0268H29.7536L32.2497 6.59174L32.9744 12L35.5913 12ZM47.9981 2.606L45.1396 2.606L43.4219 6.00126L41.7041 2.606L38.8322 2.606L42.0933 8.32292L42.0933 12L44.7236 12L44.7236 8.33634L47.9981 2.606Z" fill="#00FF00"/>
</svg>
