<svg width="117" height="18" viewBox="0 0 117 18" fill="none" xmlns="http://www.w3.org/2000/svg">
<path d="M102.316 5.70898C102.108 6.01497 101.849 6.2526 101.54 6.42187C101.231 6.58789 100.896 6.6709 100.534 6.6709C100.131 6.6709 99.7741 6.56673 99.4648 6.3584C99.1556 6.15007 98.9163 5.86198 98.7471 5.49414C98.5778 5.1263 98.4932 4.72428 98.4932 4.28809C98.4932 3.81934 98.5827 3.3929 98.7617 3.00879C98.944 2.62467 99.1963 2.32682 99.5186 2.11523C99.8441 1.90039 100.218 1.79297 100.642 1.79297C101.354 1.79297 101.91 2.04362 102.307 2.54492C102.704 3.04297 102.902 3.75098 102.902 4.66895V5.19629C102.902 6.47884 102.629 7.44238 102.082 8.08691C101.535 8.73145 100.7 9.05371 99.5771 9.05371H99.4697L99.4746 8.5459H99.6797C100.529 8.53288 101.175 8.29199 101.618 7.82324C102.061 7.35449 102.294 6.64974 102.316 5.70898ZM100.607 6.16797C100.998 6.16797 101.348 6.05241 101.657 5.82129C101.97 5.58691 102.191 5.28418 102.321 4.91309V4.57617C102.321 3.85352 102.17 3.29362 101.867 2.89648C101.568 2.49609 101.162 2.2959 100.651 2.2959C100.189 2.2959 99.8099 2.48307 99.5137 2.85742C99.2174 3.22852 99.0693 3.69727 99.0693 4.26367C99.0693 4.80729 99.2109 5.26139 99.4941 5.62598C99.7806 5.9873 100.152 6.16797 100.607 6.16797ZM108.503 6.03613C108.503 7.03874 108.319 7.80046 107.951 8.32129C107.583 8.83887 107.041 9.09766 106.325 9.09766C105.622 9.09766 105.083 8.84375 104.709 8.33594C104.335 7.82487 104.143 7.08268 104.133 6.10937V4.83496C104.133 3.83561 104.318 3.07878 104.689 2.56445C105.061 2.05013 105.603 1.79297 106.315 1.79297C107.019 1.79297 107.556 2.04199 107.927 2.54004C108.298 3.03483 108.49 3.76562 108.503 4.73242V6.03613ZM107.917 4.76172C107.917 3.94792 107.784 3.33268 107.517 2.91602C107.253 2.49935 106.853 2.29102 106.315 2.29102C105.788 2.29102 105.391 2.49447 105.124 2.90137C104.857 3.30827 104.72 3.90885 104.714 4.70312V6.09961C104.714 6.91016 104.851 7.53027 105.124 7.95996C105.401 8.38965 105.801 8.60449 106.325 8.60449C106.846 8.60449 107.24 8.39453 107.507 7.97461C107.777 7.55469 107.914 6.93945 107.917 6.12891V4.76172ZM109.626 3.25781C109.626 2.83464 109.756 2.4847 110.017 2.20801C110.28 1.92806 110.614 1.78809 111.018 1.78809C111.421 1.78809 111.753 1.92806 112.014 2.20801C112.277 2.4847 112.409 2.8444 112.409 3.28711V3.63379C112.409 4.05046 112.279 4.39876 112.019 4.67871C111.761 4.9554 111.431 5.09375 111.027 5.09375C110.627 5.09375 110.293 4.95703 110.026 4.68359C109.759 4.41016 109.626 4.04883 109.626 3.59961V3.25781ZM110.1 3.63379C110.1 3.93652 110.183 4.18555 110.349 4.38086C110.518 4.57617 110.744 4.67383 111.027 4.67383C111.304 4.67383 111.524 4.57617 111.687 4.38086C111.853 4.18229 111.936 3.92676 111.936 3.61426V3.25781C111.936 2.95508 111.851 2.70605 111.682 2.51074C111.512 2.31217 111.291 2.21289 111.018 2.21289C110.747 2.21289 110.526 2.31055 110.354 2.50586C110.184 2.70117 110.1 2.96159 110.1 3.28711V3.63379ZM113.205 7.25684C113.205 6.83366 113.335 6.48372 113.596 6.20703C113.859 5.93034 114.191 5.79199 114.592 5.79199C114.992 5.79199 115.324 5.93034 115.588 6.20703C115.855 6.48047 115.988 6.8418 115.988 7.29102V7.6377C115.988 8.06087 115.856 8.41081 115.593 8.6875C115.332 8.96419 115.002 9.10254 114.602 9.10254C114.201 9.10254 113.868 8.96582 113.601 8.69238C113.337 8.41569 113.205 8.05599 113.205 7.61328V7.25684ZM113.674 7.6377C113.674 7.94368 113.757 8.19434 113.923 8.38965C114.092 8.58496 114.318 8.68262 114.602 8.68262C114.882 8.68262 115.103 8.58496 115.266 8.38965C115.432 8.19108 115.515 7.93229 115.515 7.61328V7.25684C115.515 6.94434 115.43 6.69368 115.261 6.50488C115.095 6.31283 114.872 6.2168 114.592 6.2168C114.318 6.2168 114.097 6.31283 113.928 6.50488C113.758 6.69694 113.674 6.9541 113.674 7.27637V7.6377ZM111.213 8.40918L110.847 8.1748L114.318 2.61816L114.685 2.85254L111.213 8.40918Z" fill="#00FF00"/>
<path d="M102.316 5.70898L102.416 5.71141L102.425 5.37241L102.234 5.65271L102.316 5.70898ZM101.54 6.42187L101.587 6.50998L101.588 6.50959L101.54 6.42187ZM99.4648 6.3584L99.5207 6.27546L99.4648 6.3584ZM98.7617 3.00879L98.6714 2.96591L98.6711 2.96654L98.7617 3.00879ZM99.5186 2.11523L99.5734 2.19883L99.5736 2.1987L99.5186 2.11523ZM102.307 2.54492L102.228 2.60702L102.228 2.60727L102.307 2.54492ZM99.4697 9.05371L99.3697 9.05275L99.3688 9.15371H99.4697V9.05371ZM99.4746 8.5459V8.4459H99.3756L99.3746 8.54494L99.4746 8.5459ZM99.6797 8.5459V8.64591L99.6812 8.64589L99.6797 8.5459ZM101.657 5.82129L101.717 5.90139L101.717 5.90129L101.657 5.82129ZM102.321 4.91309L102.416 4.94619L102.421 4.93012V4.91309H102.321ZM101.867 2.89648L101.787 2.95638L101.788 2.95711L101.867 2.89648ZM99.5137 2.85742L99.5918 2.91981L99.5921 2.91947L99.5137 2.85742ZM99.4941 5.62598L99.4152 5.68732L99.4158 5.6881L99.4941 5.62598ZM102.234 5.65271C102.034 5.9463 101.787 6.17286 101.492 6.33416L101.588 6.50959C101.912 6.33235 102.182 6.08365 102.399 5.76526L102.234 5.65271ZM101.493 6.33377C101.198 6.49174 100.88 6.5709 100.534 6.5709V6.7709C100.912 6.7709 101.263 6.68404 101.587 6.50998L101.493 6.33377ZM100.534 6.5709C100.149 6.5709 99.8121 6.47175 99.5207 6.27546L99.409 6.44133C99.7361 6.66171 100.112 6.7709 100.534 6.7709V6.5709ZM99.5207 6.27546C99.228 6.07825 99.0002 5.805 98.8379 5.45234L98.6562 5.53594C98.8325 5.91896 99.0832 6.22188 99.409 6.44133L99.5207 6.27546ZM98.8379 5.45234C98.6751 5.0986 98.5932 4.71098 98.5932 4.28809H98.3932C98.3932 4.73758 98.4805 5.154 98.6562 5.53594L98.8379 5.45234ZM98.5932 4.28809C98.5932 3.83237 98.6801 3.42057 98.8524 3.05104L98.6711 2.96654C98.4852 3.36523 98.3932 3.8063 98.3932 4.28809H98.5932ZM98.8521 3.05166C99.0273 2.68236 99.2681 2.39933 99.5734 2.19883L99.4637 2.03164C99.1245 2.25431 98.8607 2.56699 98.6714 2.96591L98.8521 3.05166ZM99.5736 2.1987C99.8814 1.99556 100.236 1.89297 100.642 1.89297V1.69297C100.201 1.69297 99.8067 1.80522 99.4635 2.03177L99.5736 2.1987ZM100.642 1.89297C101.328 1.89297 101.852 2.13262 102.228 2.60702L102.385 2.48283C101.967 1.95462 101.381 1.69297 100.642 1.69297V1.89297ZM102.228 2.60727C102.606 3.08126 102.802 3.76391 102.802 4.66895H103.002C103.002 3.73804 102.801 3.00467 102.385 2.48258L102.228 2.60727ZM102.802 4.66895V5.19629H103.002V4.66895H102.802ZM102.802 5.19629C102.802 6.46692 102.531 7.40307 102.006 8.02222L102.158 8.15161C102.727 7.4817 103.002 6.49076 103.002 5.19629H102.802ZM102.006 8.02222C101.484 8.63757 100.681 8.95371 99.5771 8.95371V9.15371C100.719 9.15371 101.587 8.82533 102.158 8.15161L102.006 8.02222ZM99.5771 8.95371H99.4697V9.15371H99.5771V8.95371ZM99.5697 9.05467L99.5746 8.54686L99.3746 8.54494L99.3697 9.05275L99.5697 9.05467ZM99.4746 8.6459H99.6797V8.4459H99.4746V8.6459ZM99.6812 8.64589C100.549 8.63259 101.224 8.38593 101.691 7.8919L101.545 7.75458C101.127 8.19805 100.51 8.43317 99.6782 8.44591L99.6812 8.64589ZM101.691 7.8919C102.157 7.39847 102.393 6.66569 102.416 5.71141L102.216 5.70656C102.194 6.63379 101.965 7.31051 101.545 7.75458L101.691 7.8919ZM100.607 6.26797C101.019 6.26797 101.39 6.14559 101.717 5.90139L101.597 5.74119C101.306 5.95923 100.977 6.06797 100.607 6.06797V6.26797ZM101.717 5.90129C102.046 5.65495 102.279 5.33584 102.416 4.94619L102.227 4.87998C102.103 5.23252 101.894 5.51888 101.597 5.74129L101.717 5.90129ZM102.421 4.91309V4.57617H102.221V4.91309H102.421ZM102.421 4.57617C102.421 3.84107 102.268 3.25668 101.947 2.83586L101.788 2.95711C102.072 3.33056 102.221 3.86596 102.221 4.57617H102.421ZM101.947 2.83659C101.628 2.41031 101.193 2.1959 100.651 2.1959V2.3959C101.132 2.3959 101.507 2.58188 101.787 2.95638L101.947 2.83659ZM100.651 2.1959C100.157 2.1959 99.7497 2.39796 99.4353 2.79537L99.5921 2.91947C99.8701 2.56818 100.221 2.3959 100.651 2.3959V2.1959ZM99.4355 2.79504C99.1226 3.1871 98.9693 3.67914 98.9693 4.26367H99.1693C99.1693 3.7154 99.3123 3.26993 99.5918 2.91981L99.4355 2.79504ZM98.9693 4.26367C98.9693 4.82541 99.116 5.30221 99.4152 5.68732L99.5731 5.56463C99.3059 5.22058 99.1693 4.78917 99.1693 4.26367H98.9693ZM99.4158 5.6881C99.7209 6.07303 100.121 6.26797 100.607 6.26797V6.06797C100.183 6.06797 99.8403 5.90158 99.5725 5.56385L99.4158 5.6881ZM107.951 8.32129L108.033 8.37922L108.033 8.37898L107.951 8.32129ZM104.709 8.33594L104.628 8.39503L104.628 8.39528L104.709 8.33594ZM104.133 6.10937H104.033L104.033 6.11038L104.133 6.10937ZM107.927 2.54004L107.847 2.59979L107.847 2.60004L107.927 2.54004ZM108.503 4.73242L108.603 4.73242L108.603 4.73108L108.503 4.73242ZM107.517 2.91602L107.432 2.96949L107.432 2.96996L107.517 2.91602ZM104.714 4.70312L104.614 4.70231V4.70312H104.714ZM105.124 7.95996L105.04 8.01365L105.04 8.0141L105.124 7.95996ZM107.507 7.97461L107.423 7.9205L107.422 7.92096L107.507 7.97461ZM107.917 6.12891L108.017 6.12931V6.12891H107.917ZM108.403 6.03613C108.403 7.02903 108.22 7.7668 107.869 8.2636L108.033 8.37898C108.418 7.83411 108.603 7.04844 108.603 6.03613H108.403ZM107.87 8.26336C107.523 8.75087 107.014 8.99766 106.325 8.99766V9.19766C107.069 9.19766 107.643 8.92687 108.033 8.37922L107.87 8.26336ZM106.325 8.99766C105.65 8.99766 105.143 8.75564 104.789 8.2766L104.628 8.39528C105.024 8.93186 105.594 9.19766 106.325 9.19766V8.99766ZM104.79 8.27685C104.433 7.7895 104.242 7.07128 104.233 6.10837L104.033 6.11038C104.043 7.09409 104.237 7.86024 104.628 8.39503L104.79 8.27685ZM104.233 6.10937V4.83496H104.033V6.10937H104.233ZM104.233 4.83496C104.233 3.8454 104.417 3.11298 104.771 2.62296L104.608 2.50594C104.22 3.04457 104.033 3.82583 104.033 4.83496H104.233ZM104.771 2.62296C105.12 2.13822 105.63 1.89297 106.315 1.89297V1.69297C105.575 1.69297 105.001 1.96204 104.608 2.50594L104.771 2.62296ZM106.315 1.89297C106.992 1.89297 107.497 2.13067 107.847 2.59979L108.007 2.48029C107.614 1.95331 107.045 1.69297 106.315 1.69297V1.89297ZM107.847 2.60004C108.2 3.07076 108.39 3.77703 108.403 4.73377L108.603 4.73108C108.59 3.75422 108.396 2.99891 108.007 2.48004L107.847 2.60004ZM108.403 4.73242V6.03613H108.603V4.73242H108.403ZM108.017 4.76172C108.017 3.93989 107.883 3.30216 107.601 2.86207L107.432 2.96996C107.684 3.36321 107.817 3.95594 107.817 4.76172H108.017ZM107.601 2.86254C107.317 2.41395 106.883 2.19102 106.315 2.19102V2.39102C106.822 2.39102 107.189 2.58475 107.432 2.96949L107.601 2.86254ZM106.315 2.19102C105.758 2.19102 105.328 2.40875 105.04 2.84652L105.208 2.95622C105.454 2.58018 105.818 2.39102 106.315 2.39102V2.19102ZM105.04 2.84652C104.758 3.27669 104.62 3.8998 104.614 4.70231L104.814 4.70394C104.82 3.91791 104.956 3.33985 105.208 2.95622L105.04 2.84652ZM104.614 4.70312V6.09961H104.814V4.70312H104.614ZM104.614 6.09961C104.614 6.91892 104.752 7.56103 105.04 8.01365L105.208 7.90627C104.95 7.49951 104.814 6.9014 104.814 6.09961H104.614ZM105.04 8.0141C105.336 8.47324 105.768 8.70449 106.325 8.70449V8.50449C105.834 8.50449 105.466 8.30605 105.208 7.90582L105.04 8.0141ZM106.325 8.70449C106.878 8.70449 107.305 8.47864 107.591 8.02825L107.422 7.92096C107.175 8.31043 106.814 8.50449 106.325 8.50449V8.70449ZM107.591 8.02872C107.876 7.58566 108.014 6.94816 108.017 6.12931L107.817 6.1285C107.814 6.93074 107.678 7.52372 107.423 7.9205L107.591 8.02872ZM108.017 6.12891V4.76172H107.817V6.12891H108.017ZM110.017 2.20801L109.944 2.13944L109.944 2.13947L110.017 2.20801ZM112.014 2.20801L111.94 2.27612L111.941 2.27699L112.014 2.20801ZM112.019 4.67871L111.945 4.6106L111.945 4.61063L112.019 4.67871ZM110.349 4.38086L110.272 4.44563L110.273 4.44635L110.349 4.38086ZM111.687 4.38086L111.61 4.31672L111.61 4.31684L111.687 4.38086ZM111.682 2.51074L111.606 2.57562L111.606 2.57624L111.682 2.51074ZM110.354 2.50586L110.279 2.43965L110.278 2.44037L110.354 2.50586ZM113.596 6.20703L113.523 6.13804L113.523 6.13849L113.596 6.20703ZM115.588 6.20703L115.515 6.27602L115.516 6.27688L115.588 6.20703ZM115.593 8.6875L115.52 8.61851L115.52 8.61896L115.593 8.6875ZM113.601 8.69238L113.528 8.76137L113.529 8.76224L113.601 8.69238ZM113.923 8.38965L113.847 8.45442L113.847 8.45514L113.923 8.38965ZM115.266 8.38965L115.189 8.32551L115.189 8.32563L115.266 8.38965ZM115.261 6.50488L115.185 6.57029L115.186 6.57164L115.261 6.50488ZM113.928 6.50488L113.853 6.43876L113.928 6.50488ZM111.213 8.40918L111.159 8.49341L111.244 8.5479L111.298 8.46217L111.213 8.40918ZM110.847 8.1748L110.762 8.12182L110.709 8.20571L110.793 8.25903L110.847 8.1748ZM114.318 2.61816L114.372 2.53394L114.287 2.47944L114.234 2.56518L114.318 2.61816ZM114.685 2.85254L114.769 2.90553L114.822 2.82163L114.738 2.76831L114.685 2.85254ZM109.726 3.25781C109.726 2.85697 109.849 2.53252 110.089 2.27654L109.944 2.13947C109.664 2.43688 109.526 2.8123 109.526 3.25781H109.726ZM110.089 2.27657C110.333 2.01778 110.64 1.88809 111.018 1.88809V1.68809C110.588 1.68809 110.227 1.83834 109.944 2.13944L110.089 2.27657ZM111.018 1.88809C111.395 1.88809 111.7 2.01775 111.94 2.27612L112.087 2.1399C111.806 1.83837 111.447 1.68809 111.018 1.68809V1.88809ZM111.941 2.27699C112.184 2.53215 112.309 2.86572 112.309 3.28711H112.509C112.509 2.82308 112.37 2.43725 112.086 2.13902L111.941 2.27699ZM112.309 3.28711V3.63379H112.509V3.28711H112.309ZM112.309 3.63379C112.309 4.02766 112.187 4.35089 111.945 4.6106L112.092 4.74682C112.371 4.44664 112.509 4.07326 112.509 3.63379H112.309ZM111.945 4.61063C111.708 4.86546 111.405 4.99375 111.027 4.99375V5.19375C111.457 5.19375 111.814 5.04535 112.092 4.74679L111.945 4.61063ZM111.027 4.99375C110.652 4.99375 110.345 4.86689 110.098 4.61374L109.955 4.75345C110.242 5.04717 110.601 5.19375 111.027 5.19375V4.99375ZM110.098 4.61374C109.852 4.36223 109.726 4.02764 109.726 3.59961H109.526C109.526 4.07001 109.666 4.45808 109.955 4.75345L110.098 4.61374ZM109.726 3.59961V3.25781H109.526V3.59961H109.726ZM110 3.63379C110 3.95574 110.088 4.22907 110.272 4.44562L110.425 4.31609C110.277 4.14203 110.2 3.91731 110.2 3.63379H110ZM110.273 4.44635C110.463 4.66584 110.718 4.77383 111.027 4.77383V4.57383C110.77 4.57383 110.573 4.48651 110.424 4.31537L110.273 4.44635ZM111.027 4.77383C111.331 4.77383 111.58 4.66518 111.763 4.44488L111.61 4.31684C111.468 4.48716 111.277 4.57383 111.027 4.57383V4.77383ZM111.763 4.445C111.947 4.22491 112.036 3.94515 112.036 3.61426H111.836C111.836 3.90837 111.758 4.13967 111.61 4.31672L111.763 4.445ZM112.036 3.61426V3.25781H111.836V3.61426H112.036ZM112.036 3.25781C112.036 2.93537 111.945 2.66178 111.757 2.44525L111.606 2.57624C111.757 2.75033 111.836 2.97479 111.836 3.25781H112.036ZM111.758 2.44587C111.568 2.22382 111.319 2.11289 111.018 2.11289V2.31289C111.263 2.31289 111.456 2.40053 111.606 2.57562L111.758 2.44587ZM111.018 2.11289C110.72 2.11289 110.471 2.22197 110.279 2.43966L110.428 2.57206C110.581 2.39912 110.775 2.31289 111.018 2.31289V2.11289ZM110.278 2.44037C110.089 2.6582 110 2.94397 110 3.28711H110.2C110.2 2.97921 110.279 2.74415 110.429 2.57135L110.278 2.44037ZM110 3.28711V3.63379H110.2V3.28711H110ZM113.305 7.25684C113.305 6.85599 113.428 6.53154 113.669 6.27557L113.523 6.13849C113.243 6.43591 113.105 6.81133 113.105 7.25684H113.305ZM113.668 6.27602C113.912 6.02016 114.217 5.89199 114.592 5.89199V5.69199C114.166 5.69199 113.807 5.84051 113.523 6.13804L113.668 6.27602ZM114.592 5.89199C114.966 5.89199 115.272 6.02016 115.515 6.27602L115.66 6.13804C115.377 5.84051 115.018 5.69199 114.592 5.69199V5.89199ZM115.516 6.27688C115.762 6.5284 115.888 6.86298 115.888 7.29102H116.088C116.088 6.82061 115.948 6.43254 115.659 6.13718L115.516 6.27688ZM115.888 7.29102V7.6377H116.088V7.29102H115.888ZM115.888 7.6377C115.888 8.03818 115.764 8.36248 115.52 8.61851L115.665 8.75649C115.949 8.45914 116.088 8.08356 116.088 7.6377H115.888ZM115.52 8.61896C115.28 8.8744 114.976 9.00254 114.602 9.00254V9.20254C115.028 9.20254 115.385 9.05399 115.666 8.75604L115.52 8.61896ZM114.602 9.00254C114.227 9.00254 113.919 8.87568 113.672 8.62253L113.529 8.76224C113.816 9.05596 114.176 9.20254 114.602 9.20254V9.00254ZM113.673 8.6234C113.43 8.36824 113.305 8.03467 113.305 7.61328H113.105C113.105 8.07731 113.244 8.46314 113.528 8.76137L113.673 8.6234ZM113.305 7.61328V7.25684H113.105V7.61328H113.305ZM113.574 7.6377C113.574 7.9626 113.662 8.23766 113.847 8.45441L113.999 8.32488C113.851 8.15101 113.774 7.92477 113.774 7.6377H113.574ZM113.847 8.45514C114.038 8.67463 114.292 8.78262 114.602 8.78262V8.58262C114.344 8.58262 114.147 8.49529 113.998 8.32416L113.847 8.45514ZM114.602 8.78262C114.908 8.78262 115.159 8.67427 115.342 8.45367L115.189 8.32563C115.047 8.49566 114.855 8.58262 114.602 8.58262V8.78262ZM115.342 8.45379C115.527 8.23334 115.615 7.9501 115.615 7.61328H115.415C115.415 7.91448 115.337 8.14883 115.189 8.32551L115.342 8.45379ZM115.615 7.61328V7.25684H115.415V7.61328H115.615ZM115.615 7.25684C115.615 6.92568 115.525 6.64929 115.335 6.43813L115.186 6.57164C115.336 6.73808 115.415 6.963 115.415 7.25684H115.615ZM115.336 6.43949C115.149 6.22304 114.897 6.1168 114.592 6.1168V6.3168C114.846 6.3168 115.04 6.40261 115.185 6.57028L115.336 6.43949ZM114.592 6.1168C114.292 6.1168 114.042 6.22356 113.853 6.43876L114.003 6.571C114.152 6.40209 114.345 6.3168 114.592 6.3168V6.1168ZM113.853 6.43876C113.664 6.65344 113.574 6.93627 113.574 7.27637H113.774C113.774 6.97193 113.853 6.74044 114.003 6.571L113.853 6.43876ZM113.574 7.27637V7.6377H113.774V7.27637H113.574ZM111.267 8.32495L110.901 8.09058L110.793 8.25903L111.159 8.49341L111.267 8.32495ZM110.931 8.22779L114.403 2.67115L114.234 2.56518L110.762 8.12182L110.931 8.22779ZM114.264 2.70239L114.631 2.93677L114.738 2.76831L114.372 2.53394L114.264 2.70239ZM114.6 2.79955L111.128 8.35619L111.298 8.46217L114.769 2.90553L114.6 2.79955Z" fill="#00FF00"/>
<rect y="9" width="116" height="9" fill="#00FF00"/>
</svg>
