<svg width="219" height="18" viewBox="0 0 219 18" fill="none" xmlns="http://www.w3.org/2000/svg">
<path d="M7.0623 17.4036C10.7168 17.4036 13.3399 15.61 13.3399 12.1797C13.3399 8.61492 10.3356 7.83022 8.00394 7.2473C6.54664 6.86616 5.35838 6.5747 5.35838 5.6779C5.35838 4.93804 6.09824 4.60174 6.86052 4.60174C7.75732 4.60174 8.49718 5.07256 8.49718 6.08146L12.8467 6.08146C12.8467 2.8754 10.6719 0.947281 6.90536 0.947281C3.20606 0.94728 0.941639 2.71846 0.941638 5.81242C0.941638 9.3772 3.83382 10.0722 6.09824 10.6327C7.60038 10.9914 8.83348 11.2829 8.83348 12.2694C8.83348 13.1213 7.9591 13.6146 7.0623 13.6146C6.07582 13.6146 5.20144 13.0541 5.20144 11.9331L0.739857 11.9331C0.739857 15.3633 3.22848 17.4036 7.0623 17.4036ZM20.4628 17L24.8571 17L24.8571 1.306L20.4628 1.306L20.4628 17ZM40.5702 17.4036C45.6147 17.4036 49.2019 13.9733 49.2019 9.17543C49.2019 4.35513 45.6147 0.924868 40.5702 0.924867C35.5257 0.924866 31.9385 4.37755 31.9385 9.17543C31.9385 13.9509 35.5257 17.4036 40.5702 17.4036ZM40.5702 13.3904C38.1937 13.3904 36.4225 11.5968 36.4225 9.17543C36.4225 6.73165 38.1937 4.93805 40.5702 4.93805C42.9692 4.93805 44.6955 6.70923 44.6955 9.17543C44.6955 11.6192 42.9692 13.3904 40.5702 13.3904ZM66.0803 1.30601L66.0803 9.55657L60.0493 1.30601L56.2604 1.30601L56.2604 17L60.4529 17L60.4529 8.50283L66.6857 17L70.2729 17L70.2729 1.30601L66.0803 1.30601ZM88.0104 17L92.7859 17L86.4859 1.30601L82.2485 1.30601L76.083 17L80.7239 17L81.5983 14.4666L87.1584 14.4666L88.0104 17ZM86.1047 11.0811L82.652 11.0811L84.356 6.21599L86.1047 11.0811ZM102.977 13.0541L102.977 1.30602L98.5825 1.30602L98.5825 17L108.559 17L108.559 13.0541L102.977 13.0541ZM130.022 17.4036C133.676 17.4036 136.3 15.61 136.3 12.1797C136.3 8.61494 133.295 7.83024 130.964 7.24732C129.506 6.86618 128.318 6.57472 128.318 5.67792C128.318 4.93806 129.058 4.60176 129.82 4.60176C130.717 4.60176 131.457 5.07258 131.457 6.08148L135.806 6.08148C135.806 2.87542 133.632 0.947303 129.865 0.947302C126.166 0.947302 123.901 2.71848 123.901 5.81244C123.901 9.37722 126.794 10.0722 129.058 10.6327C130.56 10.9915 131.793 11.2829 131.793 12.2694C131.793 13.1214 130.919 13.6146 130.022 13.6146C129.036 13.6146 128.161 13.0541 128.161 11.9331L123.7 11.9331C123.7 15.3634 126.188 17.4036 130.022 17.4036ZM157.39 17L151.897 8.92883L156.919 1.30603L151.897 1.30603L147.75 7.94235L147.75 1.30602L143.422 1.30602L143.422 17L147.75 17L147.75 10.0722L152.256 17L157.39 17ZM163.04 17L167.434 17L167.434 1.30603L163.04 1.30603L163.04 17ZM179.717 13.0541L179.717 1.30603L175.323 1.30603L175.323 17L185.3 17L185.3 13.0541L179.717 13.0541ZM195.875 13.0541L195.875 1.30603L191.481 1.30603L191.481 17L201.458 17L201.458 13.0541L195.875 13.0541ZM207.348 12.6954L218.827 12.6954L218.827 8.90642L207.348 8.90642L207.348 12.6954Z" fill="#00FF00"/>
</svg>
