<svg width="62" height="122" viewBox="0 0 62 122" fill="none" xmlns="http://www.w3.org/2000/svg">
<path d="M30.5018 0C15.725 0 4.65297 10.0189 0.580165 14.3247C-0.193388 15.1449 -0.193388 16.4264 0.580165 17.2465C4.65297 21.5523 15.725 31.5712 30.5018 31.5712C45.2832 31.5712 56.3506 21.5523 60.4234 17.2465C61.1969 16.4264 61.1969 15.1449 60.4234 14.3247C56.3506 10.0142 45.2785 0 30.5018 0ZM16.8714 7.49786C15.4221 10.0003 14.6066 12.9267 14.6066 16.0116C14.6066 18.8402 15.287 21.5337 16.5265 23.9009C11.5311 21.4544 7.60272 18.1832 5.11431 15.7833C7.65864 13.3321 11.7128 9.96298 16.8714 7.49786ZM25.045 26.7948C21.2238 24.7071 18.8612 20.597 18.8612 16.0163C18.8612 10.7831 21.9694 6.17912 26.6107 4.52483C27.8735 4.35241 29.1737 4.25455 30.5064 4.25455C31.499 4.25455 32.4776 4.31047 33.4329 4.40833C38.2047 5.92748 41.5319 10.6853 41.5319 16.0163C41.5319 20.6809 39.0015 24.9401 35.0592 26.9532C33.5867 27.1862 32.0675 27.3213 30.5018 27.3213C28.6145 27.3167 26.7924 27.1256 25.045 26.7948ZM43.6196 24.311C45.0082 21.8412 45.7818 18.9893 45.7818 16.0163C45.7818 12.8102 44.915 9.75329 43.2654 7.10177C48.8341 9.59019 53.2004 13.197 55.8846 15.7879C53.261 18.3183 49.0204 21.8272 43.6196 24.311Z" fill="#0000FF"/>
<path d="M35.5859 16.0109C32.6082 16.0109 30.1943 13.5971 30.1943 10.624C27.2166 10.624 24.8027 13.0379 24.8027 16.0109C24.8027 18.984 27.2166 21.3978 30.1943 21.3978C33.172 21.3978 35.5859 18.984 35.5859 16.0109Z" fill="#0000FF"/>
<path d="M30.5018 45.2148C15.725 45.2148 4.65297 55.2338 0.580165 59.5396C-0.193388 60.3597 -0.193388 61.6412 0.580165 62.4614C4.65297 66.7672 15.725 76.7861 30.5018 76.7861C45.2832 76.7861 56.3506 66.7672 60.4234 62.4614C61.1969 61.6412 61.1969 60.3597 60.4234 59.5396C56.3506 55.2291 45.2785 45.2148 30.5018 45.2148ZM16.8714 52.7127C15.4221 55.2151 14.6066 58.1416 14.6066 61.2265C14.6066 64.0551 15.287 66.7485 16.5265 69.1158C11.5311 66.6693 7.60272 63.398 5.11431 60.9981C7.65864 58.547 11.7128 55.1778 16.8714 52.7127ZM25.045 72.0096C21.2238 69.922 18.8612 65.8119 18.8612 61.2311C18.8612 55.998 21.9694 51.394 26.6107 49.7397C27.8735 49.5673 29.1737 49.4694 30.5064 49.4694C31.499 49.4694 32.4776 49.5253 33.4329 49.6232C38.2047 51.1423 41.5319 55.9001 41.5319 61.2311C41.5319 65.8957 39.0015 70.1549 35.0592 72.168C33.5867 72.401 32.0675 72.5362 30.5018 72.5362C28.6145 72.5315 26.7924 72.3405 25.045 72.0096ZM43.6196 69.5258C45.0082 67.0561 45.7818 64.2042 45.7818 61.2311C45.7818 58.0251 44.915 54.9681 43.2654 52.3166C48.8341 54.805 53.2004 58.4119 55.8846 61.0028C53.261 63.5331 49.0204 67.0421 43.6196 69.5258Z" fill="black"/>
<path d="M35.5859 61.2258C32.6082 61.2258 30.1943 58.8119 30.1943 55.8389C27.2166 55.8389 24.8027 58.2527 24.8027 61.2258C24.8027 64.1988 27.2166 66.6127 30.1943 66.6127C33.172 66.6127 35.5859 64.1988 35.5859 61.2258Z" fill="black"/>
<path d="M30.5018 90.4287C15.725 90.4287 4.65297 100.448 0.580165 104.753C-0.193388 105.574 -0.193388 106.855 0.580165 107.675C4.65297 111.981 15.725 122 30.5018 122C45.2832 122 56.3506 111.981 60.4234 107.675C61.1969 106.855 61.1969 105.574 60.4234 104.753C56.3506 100.443 45.2785 90.4287 30.5018 90.4287ZM16.8714 97.9266C15.4221 100.429 14.6066 103.355 14.6066 106.44C14.6066 109.269 15.287 111.962 16.5265 114.33C11.5311 111.883 7.60272 108.612 5.11431 106.212C7.65864 103.761 11.7128 100.392 16.8714 97.9266ZM25.045 117.223C21.2238 115.136 18.8612 111.026 18.8612 106.445C18.8612 101.212 21.9694 96.6078 26.6107 94.9535C27.8735 94.7811 29.1737 94.6833 30.5064 94.6833C31.499 94.6833 32.4776 94.7392 33.4329 94.837C38.2047 96.3562 41.5319 101.114 41.5319 106.445C41.5319 111.11 39.0015 115.369 35.0592 117.382C33.5867 117.615 32.0675 117.75 30.5018 117.75C28.6145 117.745 26.7924 117.554 25.045 117.223ZM43.6196 114.74C45.0082 112.27 45.7818 109.418 45.7818 106.445C45.7818 103.239 44.915 100.182 43.2654 97.5305C48.8341 100.019 53.2004 103.626 55.8846 106.217C53.261 108.747 49.0204 112.256 43.6196 114.74Z" fill="#0000FF"/>
<path d="M35.5859 106.44C32.6082 106.44 30.1943 104.026 30.1943 101.053C27.2166 101.053 24.8027 103.467 24.8027 106.44C24.8027 109.413 27.2166 111.827 30.1943 111.827C33.172 111.827 35.5859 109.413 35.5859 106.44Z" fill="#0000FF"/>
</svg>
