<svg width="64" height="68" viewBox="0 0 64 68" fill="none" xmlns="http://www.w3.org/2000/svg">
<path d="M47.4029 36.3799H39.8779V38.8882H37.3696V41.3965H39.8779V43.9048H47.4029V41.3965H49.9112V38.8882H47.4029V36.3799Z" fill="black"/>
<path d="M52.4193 11.2891V8.78077H47.4027V6.27246H37.3695V8.78077H32.3457V11.2891H29.8374V21.3223H37.3695V11.2891H39.8778V8.78077H44.8944V11.2891H47.4027V21.3223H44.8944V23.8306H42.3861V26.3389H39.8778V33.871H47.4027V26.3389H49.911V23.8306H52.4193V21.3223H54.9276V11.2891H52.4193Z" fill="black"/>
<path d="M8.93055 22.539L6.40479 23.2158L7.08156 25.7416L9.60732 25.0648L8.93055 22.539Z" fill="black"/>
<path d="M12.1337 24.3877L9.60791 25.0645L10.2847 27.5902L12.8104 26.9134L12.1337 24.3877Z" fill="black"/>
<path d="M15.3358 26.2373L12.8101 26.9141L13.4868 29.4398L16.0126 28.763L15.3358 26.2373Z" fill="black"/>
<path d="M18.5385 28.0859L16.0127 28.7627L16.6895 31.2885L19.2152 30.6117L18.5385 28.0859Z" fill="black"/>
<path d="M21.7411 29.9346L19.2153 30.6113L19.8921 33.1371L22.4179 32.4603L21.7411 29.9346Z" fill="black"/>
<path d="M24.9432 31.7832L22.4175 32.46L23.0943 34.9857L25.62 34.3089L24.9432 31.7832Z" fill="black"/>
<path d="M28.1464 33.6328L25.6206 34.3096L26.2974 36.8353L28.8231 36.1586L28.1464 33.6328Z" fill="black"/>
<path d="M31.3505 35.4883L28.8247 36.165L29.5015 38.6908L32.0272 38.014L31.3505 35.4883Z" fill="black"/>
<path d="M34.5531 37.3379L32.0273 38.0146L32.7041 40.5404L35.2299 39.8636L34.5531 37.3379Z" fill="black"/>
<path d="M35.23 39.8632L35.9068 42.389L33.381 43.0657L30.8553 43.7425L28.3295 44.4193L25.8037 45.0961L26.4805 47.6218L27.1573 50.1476L29.683 49.4708L29.0063 46.9451L31.532 46.2683L34.0578 45.5915L36.5836 44.9147L39.1093 44.238L38.4325 41.7122L37.7558 39.1864L35.23 39.8632Z" fill="black"/>
<path d="M31.0362 54.5222L33.5619 53.8455L32.8852 51.3197L32.2084 48.7939L29.6826 49.4707L30.3594 51.9965L31.0362 54.5222Z" fill="black"/>
<path d="M34.9161 58.8972L37.4418 58.2205L36.765 55.6947L36.0883 53.1689L33.5625 53.8457L34.2393 56.3715L34.9161 58.8972Z" fill="black"/>
<path d="M29.8643 60.251L30.541 62.7767L33.0668 62.1L35.5926 61.4232L34.9158 58.8974L32.39 59.5742L29.8643 60.251Z" fill="black"/>
<path d="M28.5106 55.1992L25.9849 55.876L26.6616 58.4017L27.3384 60.9275L29.8642 60.2507L29.1874 57.725L28.5106 55.1992Z" fill="black"/>
<path d="M24.6312 50.8242L22.1055 51.501L22.7822 54.0267L23.459 56.5525L25.9848 55.8757L25.308 53.35L24.6312 50.8242Z" fill="black"/>
<path d="M12.6793 56.7335L12.0026 54.2077L11.3258 51.6819L10.649 49.1562L9.97223 46.6304L9.29545 44.1047L8.61868 41.5789L7.93997 39.0459L7.26319 36.5202L6.58642 33.9944L5.90964 31.4686L5.23287 28.9429L4.55609 26.4171L3.87931 23.8914L6.40508 23.2146L5.7283 20.6888L3.20254 21.3656L2.52576 18.8398L0 19.5166L0.676776 22.0424L1.35355 24.5681L2.03033 27.0939L2.7071 29.6197L3.38388 32.1454L4.06066 34.6712L4.73743 37.1969L5.41421 39.7227L6.09292 42.2557L6.76969 44.7814L7.44647 47.3072L8.12324 49.833L8.80002 52.3587L9.4768 54.8845L10.1536 57.4102L10.8303 59.936L11.5071 62.4618L14.0329 61.785L16.5586 61.1082L15.8819 58.5825L13.3561 59.2592L12.6793 56.7335Z" fill="black"/>
<path d="M17.7308 55.3808L15.2051 56.0576L15.8819 58.5834L18.4076 57.9066L17.7308 55.3808Z" fill="black"/>
<path d="M19.58 52.1777L17.0542 52.8545L17.731 55.3803L20.2567 54.7035L19.58 52.1777Z" fill="black"/>
<path d="M21.4286 48.9756L18.9028 49.6523L19.5796 52.1781L22.1054 51.5013L21.4286 48.9756Z" fill="black"/>
</svg>
