<svg width="33" height="53" viewBox="0 0 33 53" fill="none" xmlns="http://www.w3.org/2000/svg">
<path d="M30.4621 0H27.9242H25.3863H22.8484H20.3105H17.7726H15.2274H12.6895H10.1516H7.61371H5.07581H2.5379H0V2.5379V5.07581H2.5379V7.45419V7.53395V9.91234V9.99209V12.3705V12.4502V14.8286V14.9084V17.3665H5.07581V19.9044H7.61371V22.4351H10.1516V24.973H12.6895V22.4351H10.1516V19.9044H7.61371V17.3665H5.07581V14.9084V14.8286V12.4502V12.3705V9.99209V9.91234V7.53395V7.45419V5.07581H7.61371H10.1516H12.6895H15.2274H17.7726H20.3105H22.8484H25.3863H27.9242V7.45419V7.53395V9.91234V9.99209V12.3705V12.4502V14.8286V14.9084V17.3665H30.4621V14.9084V14.8286V12.4502V12.3705V9.99209V9.91234V7.53395V7.45419V5.07581H33V2.5379V0H30.4621Z" fill="black"/>
<path d="M17.7654 19.9033H15.2275V22.4412H17.7654V19.9033Z" fill="#0000FF"/>
<path d="M15.2274 17.3584H12.6895V19.8963H15.2274V17.3584Z" fill="#0000FF"/>
<path d="M20.3104 17.3584H17.7725V19.8963H20.3104V17.3584Z" fill="#0000FF"/>
<path d="M12.6893 24.9736H10.1514V27.5115H12.6893V24.9736Z" fill="black"/>
<path d="M27.9241 17.3672H25.3862V19.9051H27.9241V17.3672Z" fill="black"/>
<path d="M25.386 19.9033H22.8481V22.4412H25.386V19.9033Z" fill="black"/>
<path d="M20.3105 24.974V24.9813V27.5119V27.5192V30.0571H22.8485V27.5192V27.5119V24.9813V24.974V22.4434H20.3105V24.974Z" fill="black"/>
<path d="M17.7654 35.1328H15.2275V37.6707H17.7654V35.1328Z" fill="#0000FF"/>
<path d="M12.6895 40.2078H15.2274H17.7725H20.3104V37.6699H17.7725H15.2274H12.6895V40.2078Z" fill="#0000FF"/>
<path d="M12.6893 40.207H10.1514V42.7449H12.6893V40.207Z" fill="#0000FF"/>
<path d="M12.6895 42.7449H15.2274H17.7725H20.3104H22.8483V40.207H20.3104H17.7725H15.2274H12.6895V42.7449Z" fill="#0000FF"/>
<path d="M27.9242 37.6692V40.0403V40.1273V42.4985V42.5782V44.9566V45.0364V47.4147H25.3863H22.8484H20.3105H17.7726H15.2274H12.6895H10.1516H7.61371H5.07581V45.0364V44.9566V42.5782V42.4985V40.1273V40.0403V37.6692V37.5822V35.1313H7.61371V32.5934H10.1516V30.0555H12.6895V27.5176H10.1516V30.0555H7.61371V32.5934H5.07581V35.1313H2.5379V37.5822V37.6692V40.0403V40.1273V42.4985V42.5782V44.9566V45.0364V47.4147H0V49.9526V52.4906H2.5379H5.07581H7.61371H10.1516H12.6895H15.2274H17.7726H20.3105H22.8484H25.3863H27.9242H30.4621H33V49.9526V47.4147H30.4621V45.0364V44.9566V42.5782V42.4985V40.1273V40.0403V37.6692V37.5822V35.1313H27.9242V37.5822V37.6692Z" fill="black"/>
<path d="M27.9241 32.5947H25.3862V35.1326H27.9241V32.5947Z" fill="black"/>
<path d="M25.386 30.0557H22.8481V32.5936H25.386V30.0557Z" fill="black"/>
</svg>
