<svg width="189" height="30" viewBox="0 0 189 30" fill="none" xmlns="http://www.w3.org/2000/svg">
<rect width="189" height="30" fill="black"/>
<path d="M58.9199 15.8311C58.1159 15.5999 57.5299 15.3167 57.1621 14.9814C56.7975 14.6429 56.6152 14.2262 56.6152 13.7314C56.6152 13.1715 56.8382 12.7093 57.2842 12.3447C57.7334 11.9769 58.3161 11.793 59.0322 11.793C59.5205 11.793 59.9551 11.8874 60.3359 12.0762C60.7201 12.265 61.0163 12.5254 61.2246 12.8574C61.4362 13.1895 61.542 13.5524 61.542 13.9463H60.5996C60.5996 13.5166 60.4629 13.1797 60.1895 12.9355C59.916 12.6882 59.5303 12.5645 59.0322 12.5645C58.57 12.5645 58.2087 12.667 57.9482 12.8721C57.6911 13.0739 57.5625 13.3555 57.5625 13.7168C57.5625 14.0065 57.6846 14.2523 57.9287 14.4541C58.1761 14.6527 58.5944 14.835 59.1836 15.001C59.776 15.167 60.2383 15.3509 60.5703 15.5527C60.9056 15.7513 61.153 15.984 61.3125 16.251C61.4753 16.5179 61.5566 16.832 61.5566 17.1934C61.5566 17.7695 61.332 18.2318 60.8828 18.5801C60.4336 18.9251 59.833 19.0977 59.0811 19.0977C58.5928 19.0977 58.137 19.0049 57.7139 18.8193C57.2907 18.6305 56.9635 18.3734 56.7324 18.0479C56.5046 17.7223 56.3906 17.3529 56.3906 16.9395H57.333C57.333 17.3691 57.4909 17.7093 57.8066 17.96C58.1257 18.2074 58.5505 18.3311 59.0811 18.3311C59.5758 18.3311 59.9551 18.2301 60.2188 18.0283C60.4824 17.8265 60.6143 17.5514 60.6143 17.2031C60.6143 16.8548 60.4922 16.5863 60.248 16.3975C60.0039 16.2054 59.5612 16.0166 58.9199 15.8311ZM71.2617 15.7139L68.1807 15.7139V18.2334H71.7598V19H67.2432V11.8906H71.7109V12.6621H68.1807V14.9473L71.2617 14.9473V15.7139ZM82.8369 15.6748C82.8369 16.3617 82.7279 16.9541 82.5098 17.4521C82.2917 17.9469 81.9857 18.3343 81.5918 18.6143L82.8613 19.6104L82.2217 20.2012L80.7227 19.0098C80.4883 19.0684 80.2409 19.0977 79.9805 19.0977C79.4206 19.0977 78.9242 18.9609 78.4912 18.6875C78.0583 18.4108 77.7214 18.0186 77.4805 17.5107C77.2428 16.9997 77.1208 16.4089 77.1143 15.7383V15.2256C77.1143 14.542 77.2331 13.9382 77.4707 13.4141C77.7083 12.89 78.0436 12.4896 78.4766 12.2129C78.9128 11.9329 79.4108 11.793 79.9707 11.793C80.5436 11.793 81.0465 11.9313 81.4795 12.208C81.9157 12.4847 82.251 12.8835 82.4854 13.4043C82.7197 13.9219 82.8369 14.5273 82.8369 15.2207V15.6748ZM81.8994 15.2158C81.8994 14.3792 81.7318 13.7347 81.3965 13.2822C81.0645 12.8265 80.5892 12.5986 79.9707 12.5986C79.3815 12.5986 78.916 12.8249 78.5742 13.2773C78.2357 13.7266 78.0615 14.3516 78.0518 15.1523V15.6748C78.0518 16.4886 78.221 17.1299 78.5596 17.5986C78.9014 18.0674 79.375 18.3018 79.9805 18.3018C80.5859 18.3018 81.0547 18.082 81.3867 17.6426C81.7188 17.1999 81.8896 16.5667 81.8994 15.7432V15.2158ZM93.7676 11.8906V16.7246C93.7643 17.3952 93.5527 17.9437 93.1328 18.3701C92.7161 18.7965 92.1497 19.0358 91.4336 19.0879L91.1846 19.0977C90.4066 19.0977 89.7865 18.8877 89.3242 18.4678C88.862 18.0479 88.6276 17.4701 88.6211 16.7344V11.8906H89.5488V16.7051C89.5488 17.2194 89.6904 17.6198 89.9736 17.9062C90.2568 18.1895 90.6605 18.3311 91.1846 18.3311C91.7152 18.3311 92.1204 18.1895 92.4004 17.9062C92.6836 17.623 92.8252 17.2243 92.8252 16.71V11.8906H93.7676ZM103.746 15.7139H100.665V18.2334L104.244 18.2334V19L99.7275 19V11.8906H104.195V12.6621H100.665V14.9473H103.746V15.7139ZM115.355 19H114.413L110.834 13.5215V19H109.892V11.8906H110.834L114.423 17.3936V11.8906H115.355V19ZM126.73 16.7441C126.643 17.4961 126.364 18.0771 125.896 18.4873C125.43 18.8942 124.81 19.0977 124.035 19.0977C123.195 19.0977 122.521 18.7965 122.014 18.1943C121.509 17.5921 121.257 16.7865 121.257 15.7773V15.0937C121.257 14.4329 121.374 13.8519 121.608 13.3506C121.846 12.8493 122.181 12.4652 122.614 12.1982C123.047 11.9281 123.549 11.793 124.118 11.793C124.873 11.793 125.479 12.0046 125.935 12.4277C126.39 12.8477 126.656 13.4303 126.73 14.1758H125.788C125.707 13.6094 125.529 13.1992 125.256 12.9453C124.986 12.6914 124.606 12.5645 124.118 12.5645C123.519 12.5645 123.049 12.7858 122.707 13.2285C122.368 13.6712 122.199 14.3011 122.199 15.1182V15.8066C122.199 16.5781 122.36 17.1917 122.683 17.6475C123.005 18.1032 123.456 18.3311 124.035 18.3311C124.556 18.3311 124.955 18.2139 125.231 17.9795C125.511 17.7419 125.697 17.3301 125.788 16.7441H126.73ZM136.514 15.7139H133.433V18.2334H137.012V19H132.495V11.8906H136.963V12.6621H133.433V14.9473H136.514V15.7139ZM151.974 17.7549L154.005 11.8906H155.03L152.394 19H151.563L148.932 11.8906H149.952L151.974 17.7549Z" fill="white"/>
<path d="M24.6464 14.6464C24.4512 14.8417 24.4512 15.1583 24.6464 15.3536L27.8284 18.5355C28.0237 18.7308 28.3403 18.7308 28.5355 18.5355C28.7308 18.3403 28.7308 18.0237 28.5355 17.8284L25.7071 15L28.5355 12.1716C28.7308 11.9763 28.7308 11.6597 28.5355 11.4645C28.3403 11.2692 28.0237 11.2692 27.8284 11.4645L24.6464 14.6464ZM39 14.5L25 14.5L25 15.5L39 15.5L39 14.5Z" fill="#00FF00"/>
</svg>
