<svg width="198" height="18" viewBox="0 0 198 18" fill="none" xmlns="http://www.w3.org/2000/svg">
<path d="M4.80678 13.2559H4.55678V13.5059H4.80678V13.2559ZM4.80678 10.9018V10.6518H4.55678V10.9018H4.80678ZM9.96338 10.9018V11.1518H10.2134V10.9018H9.96338ZM9.96338 7.3594H10.2134V7.1094H9.96338V7.3594ZM4.80678 7.3594H4.55678V7.6094H4.80678V7.3594ZM4.80678 5.05014V4.80014H4.55678V5.05014H4.80678ZM10.5463 5.05014V5.30014H10.7963V5.05014H10.5463ZM10.5463 1.306H10.7963V1.056H10.5463V1.306ZM0.50214 1.306V1.056H0.25214V1.306H0.50214ZM0.50214 17H0.25214V17.25H0.50214V17ZM10.7481 17V17.25H10.9981V17H10.7481ZM10.7481 13.2559H10.9981V13.0059H10.7481V13.2559ZM5.05678 13.2559V10.9018H4.55678V13.2559H5.05678ZM4.80678 11.1518H9.96338V10.6518H4.80678V11.1518ZM10.2134 10.9018V7.3594H9.71338V10.9018H10.2134ZM9.96338 7.1094H4.80678V7.6094H9.96338V7.1094ZM5.05678 7.3594V5.05014H4.55678V7.3594H5.05678ZM4.80678 5.30014H10.5463V4.80014H4.80678V5.30014ZM10.7963 5.05014V1.306H10.2963V5.05014H10.7963ZM10.5463 1.056H0.50214V1.556H10.5463V1.056ZM0.25214 1.306V17H0.75214V1.306H0.25214ZM0.50214 17.25H10.7481V16.75H0.50214V17.25ZM10.9981 17V13.2559H10.4981V17H10.9981ZM10.7481 13.0059H4.80678V13.5059H10.7481V13.0059ZM31.513 17V17.25H31.9493L31.7287 16.8736L31.513 17ZM26.7824 8.9288L26.5661 8.80347L26.4931 8.92952L26.5667 9.05521L26.7824 8.9288ZM31.1992 1.306L31.4155 1.43133L31.6329 1.056H31.1992V1.306ZM26.3789 1.306V1.056H26.2281L26.1577 1.18933L26.3789 1.306ZM24.0248 5.76758L23.8036 5.88424L24.0248 6.3033L24.2459 5.88424L24.0248 5.76758ZM21.6707 1.306L21.8918 1.18933L21.8214 1.056H21.6707V1.306ZM16.7831 1.306V1.056H16.3445L16.568 1.4334L16.7831 1.306ZM21.2447 8.83912L21.461 8.9645L21.5344 8.83776L21.4598 8.71172L21.2447 8.83912ZM16.5141 17L16.2978 16.8746L16.0802 17.25H16.5141V17ZM21.424 17V17.25H21.5726L21.6436 17.1195L21.424 17ZM24.0472 12.1797L24.2676 12.0618L24.0491 11.6532L23.8276 12.0602L24.0472 12.1797ZM26.6255 17L26.405 17.1179L26.4757 17.25H26.6255V17ZM31.7287 16.8736L26.9981 8.80239L26.5667 9.05521L31.2973 17.1264L31.7287 16.8736ZM26.9987 9.05413L31.4155 1.43133L30.9828 1.18066L26.5661 8.80347L26.9987 9.05413ZM31.1992 1.056H26.3789V1.556H31.1992V1.056ZM26.1577 1.18933L23.8036 5.65091L24.2459 5.88424L26.6 1.42266L26.1577 1.18933ZM24.2459 5.65091L21.8918 1.18933L21.4495 1.42266L23.8036 5.88424L24.2459 5.65091ZM21.6707 1.056H16.7831V1.556H21.6707V1.056ZM16.568 1.4334L21.0296 8.96652L21.4598 8.71172L16.9982 1.1786L16.568 1.4334ZM21.0284 8.71374L16.2978 16.8746L16.7303 17.1254L21.461 8.9645L21.0284 8.71374ZM16.5141 17.25H21.424V16.75H16.5141V17.25ZM21.6436 17.1195L24.2668 12.2992L23.8276 12.0602L21.2044 16.8805L21.6436 17.1195ZM23.8267 12.2976L26.405 17.1179L26.8459 16.8821L24.2676 12.0618L23.8267 12.2976ZM26.6255 17.25H31.513V16.75H26.6255V17.25ZM37.8323 1.306V1.056H37.5823V1.306H37.8323ZM37.8323 17H37.5823V17.25H37.8323V17ZM42.1594 17V17.25H42.4094V17H42.1594ZM42.1594 12.6729V12.4229H41.9094V12.6729H42.1594ZM42.1594 8.90638H41.9094V9.15638H42.1594V8.90638ZM42.1594 5.09498V4.84498H41.9094V5.09498H42.1594ZM44.5135 1.056H37.8323V1.556H44.5135V1.056ZM37.5823 1.306V17H38.0823V1.306H37.5823ZM37.8323 17.25H42.1594V16.75H37.8323V17.25ZM42.4094 17V12.6729H41.9094V17H42.4094ZM42.1594 12.9229H44.5135V12.4229H42.1594V12.9229ZM44.5135 12.9229C47.9856 12.9229 50.5927 10.4185 50.5927 6.97826H50.0927C50.0927 10.1295 47.7225 12.4229 44.5135 12.4229V12.9229ZM50.5927 6.97826C50.5927 3.55983 47.985 1.056 44.5135 1.056V1.556C47.7231 1.556 50.0927 3.85005 50.0927 6.97826H50.5927ZM43.9978 8.65638H42.1594V9.15638H43.9978V8.65638ZM42.4094 8.90638V5.09498H41.9094V8.90638H42.4094ZM42.1594 5.34498H43.9978V4.84498H42.1594V5.34498ZM43.9978 5.34498C44.5104 5.34498 44.9139 5.51954 45.1892 5.80198C45.4654 6.0852 45.6311 6.49588 45.6311 7.00068H46.1311C46.1311 6.38448 45.9269 5.84231 45.5472 5.45293C45.1668 5.06277 44.6287 4.84498 43.9978 4.84498V5.34498ZM45.6311 7.00068C45.6311 7.50548 45.4654 7.91616 45.1892 8.19938C44.9139 8.48182 44.5104 8.65638 43.9978 8.65638V9.15638C44.6287 9.15638 45.1668 8.93859 45.5472 8.54843C45.9269 8.15905 46.1311 7.61688 46.1311 7.00068H45.6311ZM60.8787 13.2559H60.6287V13.5059H60.8787V13.2559ZM60.8787 10.9018V10.6518H60.6287V10.9018H60.8787ZM66.0353 10.9018V11.1518H66.2853V10.9018H66.0353ZM66.0353 7.3594H66.2853V7.1094H66.0353V7.3594ZM60.8787 7.3594H60.6287V7.6094H60.8787V7.3594ZM60.8787 5.05014V4.80014H60.6287V5.05014H60.8787ZM66.6182 5.05014V5.30014H66.8682V5.05014H66.6182ZM66.6182 1.306H66.8682V1.056H66.6182V1.306ZM56.574 1.306V1.056H56.324V1.306H56.574ZM56.574 17H56.324V17.25H56.574V17ZM66.82 17V17.25H67.07V17H66.82ZM66.82 13.2559H67.07V13.0059H66.82V13.2559ZM61.1287 13.2559V10.9018H60.6287V13.2559H61.1287ZM60.8787 11.1518H66.0353V10.6518H60.8787V11.1518ZM66.2853 10.9018V7.3594H65.7853V10.9018H66.2853ZM66.0353 7.1094H60.8787V7.6094H66.0353V7.1094ZM61.1287 7.3594V5.05014H60.6287V7.3594H61.1287ZM60.8787 5.30014H66.6182V4.80014H60.8787V5.30014ZM66.8682 5.05014V1.306H66.3682V5.05014H66.8682ZM66.6182 1.056H56.574V1.556H66.6182V1.056ZM56.324 1.306V17H56.824V1.306H56.324ZM56.574 17.25H66.82V16.75H56.574V17.25ZM67.07 17V13.2559H66.57V17H67.07ZM66.82 13.0059H60.8787V13.5059H66.82V13.0059ZM82.6077 17L82.387 17.1175L82.4576 17.25H82.6077V17ZM87.428 17V17.25H87.8498L87.6473 16.88L87.428 17ZM84.3116 11.3053L84.1839 11.0904L83.9765 11.2137L84.0923 11.4253L84.3116 11.3053ZM74.1553 1.306V1.056H73.9053V1.306H74.1553ZM74.1553 17H73.9053V17.25H74.1553V17ZM78.4824 17V17.25H78.7324V17H78.4824ZM78.4824 12.2021V11.9521H78.2324V12.2021H78.4824ZM80.0518 12.2021L80.2725 12.0846L80.2019 11.9521H80.0518V12.2021ZM78.4824 5.16224V4.91224H78.2324V5.16224H78.4824ZM78.4824 8.57008H78.2324V8.82008H78.4824V8.57008ZM82.6077 17.25H87.428V16.75H82.6077V17.25ZM87.6473 16.88L84.5309 11.1853L84.0923 11.4253L87.2087 17.12L87.6473 16.88ZM84.4393 11.5202C86.0622 10.5559 87.0502 8.88241 87.0502 6.86616H86.5502C86.5502 8.70615 85.655 10.2163 84.1839 11.0904L84.4393 11.5202ZM87.0502 6.86616C87.0502 3.44186 84.4588 1.056 80.971 1.056V1.556C84.2092 1.556 86.5502 3.74382 86.5502 6.86616H87.0502ZM80.971 1.056H74.1553V1.556H80.971V1.056ZM73.9053 1.306V17H74.4053V1.306H73.9053ZM74.1553 17.25H78.4824V16.75H74.1553V17.25ZM78.7324 17V12.2021H78.2324V17H78.7324ZM78.4824 12.4521H80.0518V11.9521H78.4824V12.4521ZM79.8312 12.3197L82.387 17.1175L82.8283 16.8825L80.2725 12.0846L79.8312 12.3197ZM78.4824 5.41224H80.4554V4.91224H78.4824V5.41224ZM80.4554 5.41224C81.0114 5.41224 81.4223 5.57628 81.6919 5.82724C81.9602 6.07707 82.1111 6.43373 82.1111 6.86616H82.6111C82.6111 6.31211 82.4144 5.81681 82.0326 5.4613C81.6519 5.10692 81.11 4.91224 80.4554 4.91224V5.41224ZM82.1111 6.86616C82.1111 7.28621 81.9609 7.64384 81.691 7.89745C81.4205 8.15165 81.0093 8.32008 80.4554 8.32008V8.82008C81.1121 8.82008 81.6538 8.61858 82.0334 8.26183C82.4137 7.9045 82.6111 7.41017 82.6111 6.86616H82.1111ZM80.4554 8.32008H78.4824V8.82008H80.4554V8.32008ZM78.7324 8.57008V5.16224H78.2324V8.57008H78.7324ZM94.167 17H93.917V17.25H94.167V17ZM98.5613 17V17.25H98.8113V17H98.5613ZM98.5613 1.306H98.8113V1.056H98.5613V1.306ZM94.167 1.306V1.056H93.917V1.306H94.167ZM94.167 17.25H98.5613V16.75H94.167V17.25ZM98.8113 17V1.306H98.3113V17H98.8113ZM98.5613 1.056H94.167V1.556H98.5613V1.056ZM93.917 1.306V17H94.417V1.306H93.917ZM110.754 13.2559H110.504V13.5059H110.754V13.2559ZM110.754 10.9018V10.6518H110.504V10.9018H110.754ZM115.911 10.9018V11.1518H116.161V10.9018H115.911ZM115.911 7.3594H116.161V7.1094H115.911V7.3594ZM110.754 7.3594H110.504V7.6094H110.754V7.3594ZM110.754 5.05014V4.80014H110.504V5.05014H110.754ZM116.494 5.05014V5.30014H116.744V5.05014H116.494ZM116.494 1.306H116.744V1.056H116.494V1.306ZM106.45 1.306V1.056H106.2V1.306H106.45ZM106.45 17H106.2V17.25H106.45V17ZM116.696 17V17.25H116.946V17H116.696ZM116.696 13.2559H116.946V13.0059H116.696V13.2559ZM111.004 13.2559V10.9018H110.504V13.2559H111.004ZM110.754 11.1518H115.911V10.6518H110.754V11.1518ZM116.161 10.9018V7.3594H115.661V10.9018H116.161ZM115.911 7.1094H110.754V7.6094H115.911V7.1094ZM111.004 7.3594V5.05014H110.504V7.3594H111.004ZM110.754 5.30014H116.494V4.80014H110.754V5.30014ZM116.744 5.05014V1.306H116.244V5.05014H116.744ZM116.494 1.056H106.45V1.556H116.494V1.056ZM106.2 1.306V17H106.7V1.306H106.2ZM106.45 17.25H116.696V16.75H106.45V17.25ZM116.946 17V13.2559H116.446V17H116.946ZM116.696 13.0059H110.754V13.5059H116.696V13.0059ZM133.851 1.306V1.056H133.601V1.306H133.851ZM133.851 9.55656L133.649 9.70409L134.101 10.3222V9.55656H133.851ZM127.82 1.306L128.022 1.15847L127.947 1.056H127.82V1.306ZM124.031 1.306V1.056H123.781V1.306H124.031ZM124.031 17H123.781V17.25H124.031V17ZM128.224 17V17.25H128.474V17H128.224ZM128.224 8.50282L128.425 8.35496L127.974 7.73931V8.50282H128.224ZM134.456 17L134.255 17.1479L134.33 17.25H134.456V17ZM138.044 17V17.25H138.294V17H138.044ZM138.044 1.306H138.294V1.056H138.044V1.306ZM133.601 1.306V9.55656H134.101V1.306H133.601ZM134.053 9.40903L128.022 1.15847L127.618 1.45353L133.649 9.70409L134.053 9.40903ZM127.82 1.056H124.031V1.556H127.82V1.056ZM123.781 1.306V17H124.281V1.306H123.781ZM124.031 17.25H128.224V16.75H124.031V17.25ZM128.474 17V8.50282H127.974V17H128.474ZM128.022 8.65068L134.255 17.1479L134.658 16.8521L128.425 8.35496L128.022 8.65068ZM134.456 17.25H138.044V16.75H134.456V17.25ZM138.294 17V1.306H137.794V17H138.294ZM138.044 1.056H133.851V1.556H138.044V1.056ZM161.44 10.4758L161.688 10.5121L161.73 10.2258H161.44V10.4758ZM157.024 10.4758V10.2258H156.83L156.781 10.4137L157.024 10.4758ZM157.001 7.60602L156.764 7.68608L156.822 7.85602H157.001V7.60602ZM161.395 7.60602V7.85602H161.69L161.642 7.5656L161.395 7.60602ZM153.459 17.6536C157.754 17.6536 161.064 14.7587 161.688 10.5121L161.193 10.4395C160.605 14.4435 157.503 17.1536 153.459 17.1536V17.6536ZM161.44 10.2258H157.024V10.7258H161.44V10.2258ZM156.781 10.4137C156.359 12.0626 155.083 13.118 153.459 13.118V13.618C155.332 13.618 156.792 12.3865 157.266 10.5379L156.781 10.4137ZM153.459 13.118C151.396 13.118 149.852 11.4785 149.852 9.17542H149.352C149.352 11.7151 151.082 13.618 153.459 13.618V13.118ZM149.852 9.17542C149.852 6.87054 151.398 5.21046 153.459 5.21046V4.71046C151.08 4.71046 149.352 6.63758 149.352 9.17542H149.852ZM153.459 5.21046C155 5.21046 156.257 6.18575 156.764 7.68608L157.238 7.52596C156.669 5.84265 155.235 4.71046 153.459 4.71046V5.21046ZM157.001 7.85602H161.395V7.35602H157.001V7.85602ZM161.642 7.5656C160.972 3.47521 157.683 0.67486 153.459 0.67486V1.17486C157.44 1.17486 160.519 3.80015 161.149 7.64644L161.642 7.5656ZM153.459 0.67486C148.547 0.67486 144.868 4.32692 144.868 9.17542H145.368C145.368 4.60752 148.819 1.17486 153.459 1.17486V0.67486ZM144.868 9.17542C144.868 14.0019 148.548 17.6536 153.459 17.6536V17.1536C148.819 17.1536 145.368 13.7205 145.368 9.17542H144.868ZM172.672 13.2559H172.422V13.5059H172.672V13.2559ZM172.672 10.9018V10.6518H172.422V10.9018H172.672ZM177.829 10.9018V11.1518H178.079V10.9018H177.829ZM177.829 7.3594H178.079V7.1094H177.829V7.3594ZM172.672 7.3594H172.422V7.6094H172.672V7.3594ZM172.672 5.05014V4.80014H172.422V5.05014H172.672ZM178.412 5.05014V5.30014H178.662V5.05014H178.412ZM178.412 1.306H178.662V1.056H178.412V1.306ZM168.368 1.306V1.056H168.118V1.306H168.368ZM168.368 17H168.118V17.25H168.368V17ZM178.613 17V17.25H178.863V17H178.613ZM178.613 13.2559H178.863V13.0059H178.613V13.2559ZM172.922 13.2559V10.9018H172.422V13.2559H172.922ZM172.672 11.1518H177.829V10.6518H172.672V11.1518ZM178.079 10.9018V7.3594H177.579V10.9018H178.079ZM177.829 7.1094H172.672V7.6094H177.829V7.1094ZM172.922 7.3594V5.05014H172.422V7.3594H172.922ZM172.672 5.30014H178.412V4.80014H172.672V5.30014ZM178.662 5.05014V1.306H178.162V5.05014H178.662ZM178.412 1.056H168.368V1.556H178.412V1.056ZM168.118 1.306V17H168.618V1.306H168.118ZM168.368 17.25H178.613V16.75H168.368V17.25ZM178.863 17V13.2559H178.363V17H178.863ZM178.613 13.0059H172.672V13.5059H178.613V13.0059ZM185.657 12.6954H185.407V12.9454H185.657V12.6954ZM197.136 12.6954V12.9454H197.386V12.6954H197.136ZM197.136 8.90638H197.386V8.65638H197.136V8.90638ZM185.657 8.90638V8.65638H185.407V8.90638H185.657ZM185.657 12.9454H197.136V12.4454H185.657V12.9454ZM197.386 12.6954V8.90638H196.886V12.6954H197.386ZM197.136 8.65638H185.657V9.15638H197.136V8.65638ZM185.407 8.90638V12.6954H185.907V8.90638H185.407Z" fill="black"/>
</svg>
