<svg width="378" height="40" viewBox="0 0 378 40" fill="none" xmlns="http://www.w3.org/2000/svg">
<path d="M183.032 2.91956V3.06956H183.182V2.91956H183.032ZM182.252 2.91956V2.76956H182.102V2.91956H182.252ZM182.252 11.6372H182.102V11.7872H182.252V11.6372ZM183.032 11.6372H183.182V11.4872H183.032V11.6372ZM183.032 12.8622V13.0122H183.182V12.8622H183.032ZM180.659 12.8622H180.509V13.0122H180.659V12.8622ZM180.659 1.69458V1.54458H180.509V1.69458H180.659ZM183.032 1.69458H183.182V1.54458H183.032V1.69458ZM183.032 2.76956H182.252V3.06956H183.032V2.76956ZM182.102 2.91956V11.6372H182.402V2.91956H182.102ZM182.252 11.7872H183.032V11.4872H182.252V11.7872ZM182.882 11.6372V12.8622H183.182V11.6372H182.882ZM183.032 12.7122H180.659V13.0122H183.032V12.7122ZM180.809 12.8622V1.69458H180.509V12.8622H180.809ZM180.659 1.84458H183.032V1.54458H180.659V1.84458ZM182.882 1.69458V2.91956H183.182V1.69458H182.882ZM187.124 3.00195L187.265 2.95188L187.23 2.85195H187.124V3.00195ZM189.178 8.80273L189.037 8.85281L189.178 9.25311L189.319 8.85257L189.178 8.80273ZM191.221 3.00195V2.85195H191.115L191.08 2.95211L191.221 3.00195ZM193.386 3.00195H193.536V2.85195H193.386V3.00195ZM193.386 11V11.15H193.536V11H193.386ZM191.732 11H191.582V11.15H191.732V11ZM191.732 8.81372L191.582 8.80717V8.81372H191.732ZM191.897 5.03992L192.047 5.04646L191.756 4.98883L191.897 5.03992ZM189.738 11V11.15H189.843L189.879 11.0511L189.738 11ZM188.607 11L188.466 11.051L188.501 11.15H188.607V11ZM186.453 5.04541L186.594 4.9944L186.304 5.05196L186.453 5.04541ZM186.618 8.81372H186.768L186.768 8.80717L186.618 8.81372ZM186.618 11V11.15H186.768V11H186.618ZM184.97 11H184.82V11.15H184.97V11ZM184.97 3.00195V2.85195H184.82V3.00195H184.97ZM186.982 3.05203L189.037 8.85281L189.319 8.75266L187.265 2.95188L186.982 3.05203ZM189.319 8.85257L191.363 3.05179L191.08 2.95211L189.037 8.7529L189.319 8.85257ZM191.221 3.15195H193.386V2.85195H191.221V3.15195ZM193.236 3.00195V11H193.536V3.00195H193.236ZM193.386 10.85H191.732V11.15H193.386V10.85ZM191.882 11V8.81372H191.582V11H191.882ZM191.882 8.82026L192.047 5.04646L191.747 5.03337L191.582 8.80718L191.882 8.82026ZM191.756 4.98883L189.597 10.9489L189.879 11.0511L192.038 5.091L191.756 4.98883ZM189.738 10.85H188.607V11.15H189.738V10.85ZM188.748 10.949L186.594 4.9944L186.312 5.09642L188.466 11.051L188.748 10.949ZM186.304 5.05196L186.468 8.82027L186.768 8.80717L186.603 5.03886L186.304 5.05196ZM186.468 8.81372V11H186.768V8.81372H186.468ZM186.618 10.85H184.97V11.15H186.618V10.85ZM185.12 11V3.00195H184.82V11H185.12ZM184.97 3.15195H187.124V2.85195H184.97V3.15195ZM199.29 11L199.156 11.0684L199.198 11.15H199.29V11ZM199.13 10.4672L199.279 10.4442L199.23 10.1315L199.019 10.367L199.13 10.4672ZM196.181 10.6045L196.081 10.7168L196.082 10.7173L196.181 10.6045ZM196.307 7.87988L196.219 7.75808L196.219 7.75841L196.307 7.87988ZM198.334 7.36902V7.21902L198.333 7.21902L198.334 7.36902ZM199.065 7.36902V7.51902H199.215V7.36902H199.065ZM198.85 6.36926L198.736 6.46605L198.737 6.4675L198.85 6.36926ZM197.554 6.31433L197.458 6.19909L197.457 6.20025L197.554 6.31433ZM197.329 6.84167V6.99167H197.479V6.84167H197.329ZM195.741 6.84167H195.591V6.99167H195.741V6.84167ZM196.961 5.19922L197.019 5.3373L197.02 5.33682L196.961 5.19922ZM200.009 5.50134L199.911 5.61489L199.912 5.61578L200.009 5.50134ZM200.658 9.62671L200.508 9.62671L200.508 9.62768L200.658 9.62671ZM200.894 10.9066H201.044V10.8692L201.026 10.8362L200.894 10.9066ZM200.894 11V11.15H201.044V11H200.894ZM198.625 9.74207L198.694 9.87524L198.696 9.87421L198.625 9.74207ZM199.065 9.31909L199.196 9.39053L199.215 9.35711V9.31909H199.065ZM199.065 8.29736H199.215V8.14736H199.065V8.29736ZM197.202 9.12134L197.053 9.10739L197.053 9.11253L197.202 9.12134ZM197.197 9.21472L197.047 9.2059V9.21472H197.197ZM199.423 10.9316C199.359 10.8069 199.31 10.6457 199.279 10.4442L198.982 10.4902C199.017 10.7134 199.074 10.9075 199.156 11.0684L199.423 10.9316ZM199.019 10.367C198.665 10.7614 198.207 10.9599 197.631 10.9599V11.2599C198.285 11.2599 198.827 11.0299 199.242 10.5673L199.019 10.367ZM197.631 10.9599C197.08 10.9599 196.633 10.8013 196.28 10.4917L196.082 10.7173C196.497 11.0815 197.018 11.2599 197.631 11.2599V10.9599ZM196.28 10.4921C195.932 10.184 195.759 9.80021 195.759 9.33008H195.459C195.459 9.88534 195.668 10.3512 196.081 10.7168L196.28 10.4921ZM195.759 9.33008C195.759 8.74287 195.973 8.30703 196.395 8.00136L196.219 7.75841C195.711 8.12656 195.459 8.65752 195.459 9.33008H195.759ZM196.395 8.00169C196.828 7.69031 197.468 7.52261 198.335 7.51902L198.333 7.21902C197.435 7.22275 196.724 7.39563 196.219 7.75808L196.395 8.00169ZM198.334 7.51902H199.065V7.21902H198.334V7.51902ZM199.215 7.36902V7.02844H198.915V7.36902H199.215ZM199.215 7.02844C199.215 6.72736 199.136 6.4696 198.964 6.27102L198.737 6.4675C198.851 6.59852 198.915 6.78021 198.915 7.02844H199.215ZM198.965 6.27249C198.787 6.06181 198.515 5.97207 198.186 5.97207V6.27207C198.464 6.27207 198.635 6.34712 198.736 6.46604L198.965 6.27249ZM198.186 5.97207C197.895 5.97207 197.647 6.0419 197.458 6.1991L197.65 6.42956C197.769 6.33042 197.942 6.27207 198.186 6.27207V5.97207ZM197.457 6.20025C197.268 6.36086 197.179 6.58085 197.179 6.84167H197.479C197.479 6.65572 197.539 6.52415 197.651 6.42842L197.457 6.20025ZM197.329 6.69167H195.741V6.99167H197.329V6.69167ZM195.891 6.84167C195.891 6.53074 195.986 6.24267 196.181 5.97391L195.938 5.79782C195.708 6.115 195.591 6.46413 195.591 6.84167H195.891ZM196.181 5.97391C196.375 5.70645 196.652 5.49322 197.019 5.33729L196.902 5.06115C196.493 5.23481 196.169 5.47934 195.938 5.79782L196.181 5.97391ZM197.02 5.33682C197.387 5.17763 197.802 5.09653 198.268 5.09653V4.79653C197.767 4.79653 197.311 4.8839 196.901 5.06162L197.02 5.33682ZM198.268 5.09653C198.975 5.09653 199.517 5.27474 199.911 5.61489L200.107 5.3878C199.645 4.9882 199.026 4.79653 198.268 4.79653V5.09653ZM199.912 5.61578C200.305 5.94835 200.508 6.41937 200.508 7.05042H200.808C200.808 6.34845 200.578 5.78676 200.106 5.38691L199.912 5.61578ZM200.508 7.05042V9.62671H200.808V7.05042H200.508ZM200.508 9.62768C200.511 10.2007 200.591 10.6561 200.761 10.977L201.026 10.8362C200.889 10.5785 200.811 10.1806 200.808 9.62573L200.508 9.62768ZM200.744 10.9066V11H201.044V10.9066H200.744ZM200.894 10.85H199.29V11.15H200.894V10.85ZM197.977 10.0459C198.234 10.0459 198.474 9.98941 198.694 9.87523L198.556 9.6089C198.381 9.6998 198.189 9.74587 197.977 9.74587V10.0459ZM198.696 9.87421C198.916 9.75592 199.086 9.59515 199.196 9.39053L198.933 9.24765C198.853 9.3946 198.729 9.51581 198.554 9.60992L198.696 9.87421ZM199.215 9.31909V8.29736H198.915V9.31909H199.215ZM199.065 8.14736H198.471V8.44736H199.065V8.14736ZM198.471 8.14736C198.06 8.14736 197.722 8.21777 197.476 8.37755C197.222 8.54243 197.082 8.79198 197.053 9.1074L197.352 9.13528C197.374 8.90138 197.471 8.73894 197.64 8.62916C197.817 8.51429 198.088 8.44736 198.471 8.44736V8.14736ZM197.053 9.11253L197.047 9.20591L197.347 9.22353L197.352 9.13015L197.053 9.11253ZM197.047 9.21472C197.047 9.45226 197.132 9.65595 197.304 9.81395L197.507 9.59328C197.4 9.49493 197.347 9.3727 197.347 9.21472H197.047ZM197.304 9.81395C197.478 9.97412 197.708 10.0459 197.977 10.0459V9.74587C197.762 9.74587 197.612 9.68946 197.507 9.59328L197.304 9.81395ZM205.133 8.7533L204.99 8.79622L205.134 9.27866L205.277 8.79603L205.133 8.7533ZM206.232 5.0564V4.9064H206.12L206.088 5.01367L206.232 5.0564ZM207.935 5.0564L208.077 5.1057L208.146 4.9064H207.935V5.0564ZM205.545 11.9229L205.684 11.9812L205.687 11.9722L205.545 11.9229ZM205.414 12.236L205.55 12.2984L205.552 12.2942L205.414 12.236ZM202.953 13.2961H202.803V13.4086L202.911 13.4401L202.953 13.2961ZM202.953 12.0931L202.956 11.9432L202.803 11.9397V12.0931H202.953ZM203.194 12.0986L203.191 12.2486H203.194V12.0986ZM203.865 11.9613L203.786 11.8332L203.785 11.8341L203.865 11.9613ZM204.216 11.5054L204.356 11.5607L204.356 11.5589L204.216 11.5054ZM204.403 11.0165L204.543 11.07L204.563 11.0188L204.544 10.967L204.403 11.0165ZM202.321 5.0564V4.9064H202.11L202.179 5.10586L202.321 5.0564ZM204.029 5.0564L204.173 5.01347L204.141 4.9064H204.029V5.0564ZM205.277 8.79603L206.376 5.09913L206.088 5.01367L204.99 8.71057L205.277 8.79603ZM206.232 5.2064H207.935V4.9064H206.232V5.2064ZM207.793 5.0071L205.404 11.8736L205.687 11.9722L208.077 5.1057L207.793 5.0071ZM205.407 11.8646L205.275 12.1778L205.552 12.2942L205.684 11.9811L205.407 11.8646ZM205.277 12.1736C205.109 12.5418 204.89 12.8087 204.625 12.9843C204.36 13.1596 204.04 13.2505 203.656 13.2505V13.5505C204.089 13.5505 204.469 13.4473 204.791 13.2344C205.111 13.0218 205.363 12.7065 205.55 12.2984L205.277 12.1736ZM203.656 13.2505C203.44 13.2505 203.22 13.218 202.995 13.1522L202.911 13.4401C203.161 13.5134 203.41 13.5505 203.656 13.5505V13.2505ZM203.103 13.2961V12.0931H202.803V13.2961H203.103ZM202.949 12.2431L203.191 12.2486L203.198 11.9487L202.956 11.9432L202.949 12.2431ZM203.194 12.2486C203.505 12.2486 203.762 12.2023 203.944 12.0885L203.785 11.8341C203.674 11.9034 203.485 11.9486 203.194 11.9486V12.2486ZM203.943 12.0894C204.128 11.9764 204.263 11.7943 204.356 11.5607L204.077 11.4501C204.001 11.6413 203.901 11.7631 203.786 11.8332L203.943 12.0894ZM204.356 11.5589L204.543 11.07L204.263 10.9629L204.076 11.4518L204.356 11.5589ZM204.544 10.967L202.463 5.00693L202.179 5.10586L204.261 11.0659L204.544 10.967ZM202.321 5.2064H204.029V4.9064H202.321V5.2064ZM203.886 5.09932L204.99 8.79622L205.277 8.71037L204.173 5.01347L203.886 5.09932ZM219.029 11V11.15H219.179V11H219.029ZM213.547 11H213.397V11.15H213.547V11ZM213.547 9.91235L213.437 9.80972L213.397 9.853V9.91235H213.547ZM216.134 7.15479L216.243 7.25743L216.245 7.25605L216.134 7.15479ZM216.92 6.13855L216.791 6.06185L216.79 6.06307L216.92 6.13855ZM216.909 4.47961L216.796 4.57839L216.797 4.5794L216.909 4.47961ZM215.288 4.54553L215.173 4.44917L215.173 4.44934L215.288 4.54553ZM214.98 5.51782V5.66782H215.13V5.51782H214.98ZM213.387 5.51782H213.237V5.66782H213.387V5.51782ZM213.734 4.18298L213.604 4.10755L213.603 4.10844L213.734 4.18298ZM214.722 3.23816L214.793 3.37045L214.794 3.36997L214.722 3.23816ZM218.084 3.48535L217.986 3.59846L217.986 3.59885L218.084 3.48535ZM217.408 7.80298L217.517 7.90622L217.519 7.9041L217.408 7.80298ZM215.59 9.72009L215.481 9.61687L215.241 9.87009H215.59V9.72009ZM219.029 9.72009H219.179V9.57009H219.029V9.72009ZM219.029 10.85H213.547V11.15H219.029V10.85ZM213.697 11V9.91235H213.397V11H213.697ZM213.656 10.015L216.243 7.25742L216.025 7.05215L213.437 9.80972L213.656 10.015ZM216.245 7.25605C216.604 6.8639 216.873 6.51627 217.049 6.21403L216.79 6.06307C216.629 6.33945 216.375 6.6693 216.023 7.05352L216.245 7.25605ZM217.048 6.21524C217.23 5.90943 217.328 5.60843 217.328 5.31458H217.028C217.028 5.54074 216.953 5.78906 216.791 6.06186L217.048 6.21524ZM217.328 5.31458C217.328 4.93445 217.231 4.61647 217.021 4.37983L216.797 4.5794C216.945 4.74559 217.028 4.98425 217.028 5.31458H217.328ZM217.021 4.38084C216.807 4.13607 216.506 4.022 216.14 4.022V4.322C216.44 4.322 216.651 4.413 216.796 4.57839L217.021 4.38084ZM216.14 4.022C215.742 4.022 215.414 4.16233 215.173 4.44917L215.403 4.64189C215.58 4.43069 215.82 4.322 216.14 4.322V4.022ZM215.173 4.44934C214.94 4.72809 214.83 5.0892 214.83 5.51782H215.13C215.13 5.14078 215.226 4.8537 215.403 4.64173L215.173 4.44934ZM214.98 5.36782H213.387V5.66782H214.98V5.36782ZM213.537 5.51782C213.537 5.05558 213.647 4.63654 213.864 4.25753L213.603 4.10844C213.359 4.5351 213.237 5.00595 213.237 5.51782H213.537ZM213.863 4.25842C214.083 3.88047 214.392 3.58484 214.793 3.37045L214.652 3.10587C214.203 3.34558 213.853 3.67983 213.604 4.10755L213.863 4.25842ZM214.794 3.36997C215.194 3.1525 215.651 3.04209 216.167 3.04209V2.74209C215.607 2.74209 215.1 2.86239 214.651 3.10634L214.794 3.36997ZM216.167 3.04209C216.968 3.04209 217.567 3.23426 217.986 3.59846L218.183 3.37224C217.693 2.94543 217.014 2.74209 216.167 2.74209V3.04209ZM217.986 3.59885C218.404 3.96035 218.621 4.4737 218.621 5.16077H218.921C218.921 4.40497 218.679 3.80137 218.182 3.37185L217.986 3.59885ZM218.621 5.16077C218.621 5.52954 218.525 5.90953 218.329 6.30218L218.597 6.43634C218.811 6.00868 218.921 5.58301 218.921 5.16077H218.621ZM218.329 6.30218C218.133 6.69478 217.791 7.161 217.298 7.70186L217.519 7.9041C218.022 7.35365 218.383 6.86406 218.597 6.43634L218.329 6.30218ZM217.3 7.69976L215.481 9.61687L215.699 9.82332L217.517 7.9062L217.3 7.69976ZM215.59 9.87009H219.029V9.57009H215.59V9.87009ZM218.879 9.72009V11H219.179V9.72009H218.879ZM221.11 7.77551L220.96 7.77551L220.96 7.77705L221.11 7.77551ZM221.802 3.76001L221.685 3.66603L221.685 3.66649L221.802 3.76001ZM225.806 3.75452L225.689 3.8484L225.69 3.84877L225.806 3.75452ZM226.515 6.22095L226.665 6.22095L226.665 6.21941L226.515 6.22095ZM224.653 4.63342L224.524 4.70969L224.525 4.71151L224.653 4.63342ZM222.977 4.61145L222.85 4.53239L222.85 4.53284L222.977 4.61145ZM222.697 5.95728L222.547 5.95458V5.95728H222.697ZM222.961 9.35754L222.83 9.43001L222.831 9.4318L222.961 9.35754ZM224.927 7.97876L225.077 7.98051V7.97876H224.927ZM226.365 7.69312C226.365 8.78124 226.139 9.58917 225.71 10.1386L225.947 10.3233C226.433 9.70087 226.665 8.81691 226.665 7.69312H226.365ZM225.71 10.1386C225.286 10.6812 224.664 10.9599 223.818 10.9599V11.2599C224.737 11.2599 225.455 10.9526 225.947 10.3233L225.71 10.1386ZM223.818 10.9599C222.983 10.9599 222.363 10.6864 221.935 10.1536L221.701 10.3413C222.197 10.9584 222.91 11.2599 223.818 11.2599V10.9599ZM221.935 10.1536C221.503 9.61441 221.271 8.82817 221.26 7.77398L220.96 7.77705C220.971 8.86885 221.211 9.73057 221.701 10.3413L221.935 10.1536ZM221.26 7.77551V6.30334H220.96V7.77551H221.26ZM221.26 6.30334C221.26 5.20385 221.487 4.39503 221.919 3.85353L221.685 3.66649C221.194 4.28221 220.96 5.16895 220.96 6.30334H221.26ZM221.919 3.85398C222.35 3.31715 222.972 3.04209 223.807 3.04209V2.74209C222.899 2.74209 222.184 3.04564 221.685 3.66604L221.919 3.85398ZM223.807 3.04209C224.642 3.04209 225.262 3.31556 225.689 3.8484L225.923 3.66063C225.428 3.04357 224.715 2.74209 223.807 2.74209V3.04209ZM225.69 3.84877C226.122 4.38408 226.354 5.1682 226.365 6.22248L226.665 6.21941C226.654 5.12769 226.414 4.26754 225.923 3.66027L225.69 3.84877ZM226.365 6.22095V7.69312H226.665V6.22095H226.365ZM225.077 6.07812C225.077 5.40829 224.986 4.89204 224.781 4.55533L224.525 4.71151C224.686 4.9754 224.777 5.42228 224.777 6.07812H225.077ZM224.782 4.55717C224.573 4.20277 224.239 4.02749 223.807 4.02749V4.32749C224.144 4.32749 224.374 4.45616 224.524 4.70968L224.782 4.55717ZM223.807 4.02749C223.387 4.02749 223.06 4.19407 222.85 4.53239L223.105 4.69051C223.254 4.45021 223.479 4.32749 223.807 4.32749V4.02749ZM222.85 4.53284C222.652 4.85333 222.558 5.33505 222.547 5.95458L222.847 5.95997C222.858 5.35636 222.951 4.94085 223.105 4.69006L222.85 4.53284ZM222.547 5.95728V7.90186H222.847V5.95728H222.547ZM222.547 7.90186C222.547 8.56188 222.635 9.07791 222.83 9.43001L223.092 9.28508C222.935 8.99997 222.847 8.54554 222.847 7.90186H222.547ZM222.831 9.4318C223.039 9.79803 223.377 9.97996 223.818 9.97996V9.67996C223.475 9.67996 223.241 9.54694 223.091 9.28329L222.831 9.4318ZM223.818 9.97996C224.253 9.97996 224.587 9.80494 224.789 9.44794L224.528 9.30011C224.386 9.55102 224.159 9.67996 223.818 9.67996V9.97996ZM224.789 9.44794C224.98 9.11072 225.07 8.61487 225.077 7.98051L224.778 7.97701C224.77 8.59509 224.681 9.02941 224.528 9.30011L224.789 9.44794ZM225.077 7.97876V6.07812H224.777V7.97876H225.077ZM232.573 11V11.15H232.723V11H232.573ZM230.985 11H230.835V11.15H230.985V11ZM230.985 4.88062H231.135V4.67704L230.941 4.73735L230.985 4.88062ZM229.09 5.46838H228.94V5.67195L229.135 5.61165L229.09 5.46838ZM229.09 4.17749L229.04 4.03628L228.94 4.07189V4.17749H229.09ZM232.403 2.99097V2.84097H232.377L232.352 2.84975L232.403 2.99097ZM232.573 2.99097H232.723V2.84097H232.573V2.99097ZM232.573 10.85H230.985V11.15H232.573V10.85ZM231.135 11V4.88062H230.835V11H231.135ZM230.941 4.73735L229.046 5.32512L229.135 5.61165L231.03 5.02388L230.941 4.73735ZM229.24 5.46838V4.17749H228.94V5.46838H229.24ZM229.141 4.3187L232.453 3.13218L232.352 2.84975L229.04 4.03628L229.141 4.3187ZM232.403 3.14097H232.573V2.84097H232.403V3.14097ZM232.423 2.99097V11H232.723V2.99097H232.423ZM236.538 7.06689L236.389 7.04998L236.374 7.18081L236.502 7.21249L236.538 7.06689ZM236.999 3.00195V2.85195H236.865L236.85 2.98503L236.999 3.00195ZM241.482 3.00195H241.632V2.85195H241.482V3.00195ZM241.482 4.32581V4.47581H241.632V4.32581H241.482ZM238.301 4.32581V4.17581H238.167L238.152 4.30867L238.301 4.32581ZM238.103 6.04517L237.954 6.02803L237.922 6.31224L238.174 6.17748L238.103 6.04517ZM241.416 9.82446L241.284 9.75363L241.283 9.75406L241.416 9.82446ZM240.482 10.7748L240.554 10.9062L240.555 10.9057L240.482 10.7748ZM237.697 10.8187L237.632 10.9541L237.633 10.9545L237.697 10.8187ZM236.714 9.98926L236.589 10.0728L236.59 10.0736L236.714 9.98926ZM236.335 8.77527V8.62527H236.18L236.185 8.7801L236.335 8.77527ZM237.906 8.77527L238.055 8.76051L238.042 8.62527H237.906V8.77527ZM238.252 9.5553L238.149 9.66437L238.151 9.66629L238.252 9.5553ZM239.867 9.44543L239.986 9.53598L239.987 9.53516L239.867 9.44543ZM237.955 7.23718L237.858 7.12241L237.853 7.12726L237.955 7.23718ZM237.801 7.38L237.765 7.5256L237.844 7.54511L237.903 7.48992L237.801 7.38ZM236.687 7.08381L237.148 3.01887L236.85 2.98503L236.389 7.04998L236.687 7.08381ZM236.999 3.15195H241.482V2.85195H236.999V3.15195ZM241.332 3.00195V4.32581H241.632V3.00195H241.332ZM241.482 4.17581H238.301V4.47581H241.482V4.17581ZM238.152 4.30867L237.954 6.02803L238.252 6.06231L238.45 4.34295L238.152 4.30867ZM238.174 6.17748C238.53 5.9876 238.906 5.89304 239.306 5.89304V5.59304C238.857 5.59304 238.432 5.6999 238.033 5.91285L238.174 6.17748ZM239.306 5.89304C240.035 5.89304 240.588 6.11744 240.986 6.5529L241.208 6.35042C240.742 5.84106 240.102 5.59304 239.306 5.59304V5.89304ZM240.986 6.5529C241.386 6.98964 241.595 7.61004 241.595 8.43469H241.895C241.895 7.56012 241.673 6.8585 241.208 6.35042L240.986 6.5529ZM241.595 8.43469C241.595 8.9291 241.49 9.36757 241.284 9.75363L241.548 9.8953C241.781 9.46104 241.895 8.973 241.895 8.43469H241.595ZM241.283 9.75406C241.081 10.1348 240.79 10.4307 240.409 10.6438L240.555 10.9057C240.986 10.6648 241.318 10.3271 241.548 9.89487L241.283 9.75406ZM240.41 10.6433C240.029 10.8524 239.575 10.9599 239.043 10.9599V11.2599C239.616 11.2599 240.122 11.1439 240.554 10.9062L240.41 10.6433ZM239.043 10.9599C238.58 10.9599 238.153 10.8671 237.761 10.6829L237.633 10.9545C238.068 11.1585 238.539 11.2599 239.043 11.2599V10.9599ZM237.762 10.6834C237.37 10.4963 237.063 10.2367 236.838 9.90488L236.59 10.0736C236.847 10.4523 237.196 10.7457 237.632 10.9541L237.762 10.6834ZM236.838 9.90576C236.617 9.57534 236.498 9.19829 236.485 8.77043L236.185 8.7801C236.2 9.26045 236.334 9.69272 236.589 10.0728L236.838 9.90576ZM236.335 8.92527H237.906V8.62527H236.335V8.92527ZM237.756 8.79003C237.792 9.15062 237.919 9.44738 238.149 9.66435L238.355 9.44625C238.189 9.28968 238.085 9.06642 238.055 8.76051L237.756 8.79003ZM238.151 9.66629C238.385 9.87899 238.685 9.97996 239.037 9.97996V9.67996C238.745 9.67996 238.521 9.59782 238.353 9.44431L238.151 9.66629ZM239.037 9.97996C239.437 9.97996 239.76 9.8345 239.986 9.53598L239.747 9.35489C239.585 9.56906 239.355 9.67996 239.037 9.67996V9.97996ZM239.987 9.53516C240.207 9.23981 240.308 8.83738 240.308 8.3468H240.008C240.008 8.80105 239.914 9.13104 239.746 9.35571L239.987 9.53516ZM240.308 8.3468C240.308 7.86941 240.19 7.47975 239.933 7.20129L239.713 7.40491C239.902 7.60985 240.008 7.91599 240.008 8.3468H240.308ZM239.933 7.20129C239.674 6.92161 239.313 6.79055 238.872 6.79055V7.09055C239.252 7.09055 239.524 7.20119 239.713 7.40491L239.933 7.20129ZM238.872 6.79055C238.468 6.79055 238.126 6.89705 237.858 7.12254L238.052 7.35183C238.253 7.18181 238.522 7.09055 238.872 7.09055V6.79055ZM237.853 7.12726L237.699 7.27009L237.903 7.48992L238.057 7.3471L237.853 7.12726ZM237.837 7.23441L236.574 6.9213L236.502 7.21249L237.765 7.5256L237.837 7.23441ZM250.966 8.21497V8.36497H251.116V8.21497H250.966ZM247.874 8.21497H247.724V8.36497H247.874V8.21497ZM247.874 6.93506V6.78506H247.724V6.93506H247.874ZM250.966 6.93506H251.116V6.78506H250.966V6.93506ZM250.966 8.06497H247.874V8.36497H250.966V8.06497ZM248.024 8.21497V6.93506H247.724V8.21497H248.024ZM247.874 7.08506H250.966V6.78506H247.874V7.08506ZM250.816 6.93506V8.21497H251.116V6.93506H250.816ZM261.912 9.35205L262.054 9.30419L262.02 9.20205H261.912V9.35205ZM259.022 9.35205V9.20205H258.914L258.88 9.30462L259.022 9.35205ZM258.473 11V11.15H258.581L258.615 11.0474L258.473 11ZM256.721 11L256.58 10.9477L256.505 11.15H256.721V11ZM259.698 3.00195V2.85195H259.594L259.558 2.94962L259.698 3.00195ZM261.225 3.00195L261.366 2.94937L261.329 2.85195H261.225V3.00195ZM264.219 11V11.15H264.435L264.359 10.9474L264.219 11ZM262.467 11L262.325 11.0479L262.359 11.15H262.467V11ZM259.467 8.01721L259.325 7.96993L259.26 8.16721H259.467V8.01721ZM261.467 8.01721V8.16721H261.676L261.609 7.96946L261.467 8.01721ZM260.462 5.02344L260.604 4.97569L260.461 4.54988L260.319 4.97616L260.462 5.02344ZM261.912 9.20205H259.022V9.50205H261.912V9.20205ZM258.88 9.30462L258.331 10.9526L258.615 11.0474L259.165 9.39948L258.88 9.30462ZM258.473 10.85H256.721V11.15H258.473V10.85ZM256.861 11.0523L259.839 3.05428L259.558 2.94962L256.58 10.9477L256.861 11.0523ZM259.698 3.15195H261.225V2.85195H259.698V3.15195ZM261.085 3.05454L264.079 11.0526L264.359 10.9474L261.366 2.94937L261.085 3.05454ZM264.219 10.85H262.467V11.15H264.219V10.85ZM262.609 10.9521L262.054 9.30419L261.77 9.39991L262.325 11.0479L262.609 10.9521ZM259.467 8.16721H261.467V7.86721H259.467V8.16721ZM261.609 7.96946L260.604 4.97569L260.319 5.07118L261.325 8.06496L261.609 7.96946ZM260.319 4.97616L259.325 7.96993L259.61 8.06449L260.604 5.07071L260.319 4.97616ZM270.447 10.2859L270.327 10.1955L270.327 10.1956L270.447 10.2859ZM267.311 10.4836L267.423 10.3842L267.161 10.0881V10.4836H267.311ZM267.311 13.2852V13.4352H267.461V13.2852H267.311ZM265.723 13.2852H265.573V13.4352H265.723V13.2852ZM265.723 5.0564V4.9064H265.573V5.0564H265.723ZM267.195 5.0564L267.345 5.04231L267.332 4.9064H267.195V5.0564ZM267.25 5.63867L267.101 5.65276L267.135 6.01156L267.365 5.7347L267.25 5.63867ZM269.189 6.68787L269.063 6.76929L269.064 6.77036L269.189 6.68787ZM267.311 6.80872L267.176 6.74267L267.161 6.77392V6.80872H267.311ZM267.311 9.24219H267.161V9.2773L267.176 9.30877L267.311 9.24219ZM270.923 8.08313C270.923 8.97649 270.72 9.67582 270.327 10.1955L270.567 10.3763C271.009 9.79 271.223 9.02083 271.223 8.08313H270.923ZM270.327 10.1956C269.943 10.7061 269.427 10.9599 268.766 10.9599V11.2599C269.519 11.2599 270.124 10.9643 270.567 10.3761L270.327 10.1956ZM268.766 10.9599C268.205 10.9599 267.762 10.7668 267.423 10.3842L267.198 10.5831C267.599 11.0354 268.126 11.2599 268.766 11.2599V10.9599ZM267.161 10.4836V13.2852H267.461V10.4836H267.161ZM267.311 13.1352H265.723V13.4352H267.311V13.1352ZM265.873 13.2852V5.0564H265.573V13.2852H265.873ZM265.723 5.2064H267.195V4.9064H265.723V5.2064ZM267.046 5.07048L267.101 5.65276L267.399 5.62458L267.345 5.04231L267.046 5.07048ZM267.365 5.7347C267.72 5.30865 268.179 5.09653 268.755 5.09653V4.79653C268.093 4.79653 267.549 5.04584 267.135 5.54264L267.365 5.7347ZM268.755 5.09653C269.445 5.09653 269.968 5.34872 270.344 5.84952L270.584 5.66952C270.146 5.08634 269.53 4.79653 268.755 4.79653V5.09653ZM270.344 5.84952C270.724 6.35689 270.923 7.06822 270.923 8.00073H271.223C271.223 7.02895 271.016 6.24614 270.584 5.66952L270.344 5.84952ZM270.923 8.00073V8.08313H271.223V8.00073H270.923ZM269.636 7.96777C269.636 7.40011 269.535 6.94004 269.314 6.60537L269.064 6.77036C269.239 7.03628 269.336 7.42948 269.336 7.96777H269.636ZM269.315 6.60644C269.092 6.26114 268.759 6.08743 268.338 6.08743V6.38743C268.663 6.38743 268.898 6.514 269.063 6.76929L269.315 6.60644ZM268.338 6.08743C268.07 6.08743 267.833 6.13862 267.635 6.24916C267.434 6.36049 267.282 6.52715 267.176 6.74267L267.445 6.87476C267.526 6.70942 267.638 6.59044 267.78 6.51134C267.924 6.43145 268.107 6.38743 268.338 6.38743V6.08743ZM267.161 6.80872V9.24219H267.461V6.80872H267.161ZM267.176 9.30877C267.285 9.52879 267.44 9.69934 267.642 9.81355C267.842 9.92711 268.08 9.97996 268.349 9.97996V9.67996C268.119 9.67996 267.935 9.63484 267.79 9.55248C267.645 9.47077 267.53 9.34743 267.445 9.17561L267.176 9.30877ZM268.349 9.97996C268.777 9.97996 269.111 9.79981 269.33 9.44258C269.54 9.09739 269.636 8.59888 269.636 7.96777H269.336C269.336 8.57812 269.242 9.01071 269.074 9.28624C268.913 9.54974 268.678 9.67996 268.349 9.67996V9.97996ZM276.527 6.54504L276.507 6.69368L276.675 6.71642L276.677 6.5472L276.527 6.54504ZM274.775 7.11084L274.638 7.04821L274.625 7.07803V7.11084H274.775ZM274.775 11V11.15H274.925V11H274.775ZM273.187 11H273.037V11.15H273.187V11ZM273.187 5.0564V4.9064H273.037V5.0564H273.187ZM274.687 5.0564L274.836 5.04711L274.828 4.9064H274.687V5.0564ZM274.731 5.76501L274.581 5.7743L274.612 6.26661L274.86 5.84065L274.731 5.76501ZM276.549 5.01794L276.699 5.0201L276.701 4.90785L276.593 4.87465L276.549 5.01794ZM276.547 6.3964C276.326 6.36647 276.129 6.3511 275.956 6.3511V6.6511C276.112 6.6511 276.295 6.66502 276.507 6.69368L276.547 6.3964ZM275.956 6.3511C275.32 6.3511 274.858 6.56979 274.638 7.04821L274.911 7.17346C275.065 6.8389 275.39 6.6511 275.956 6.6511V6.3511ZM274.625 7.11084V11H274.925V7.11084H274.625ZM274.775 10.85H273.187V11.15H274.775V10.85ZM273.337 11V5.0564H273.037V11H273.337ZM273.187 5.2064H274.687V4.9064H273.187V5.2064ZM274.537 5.06568L274.581 5.7743L274.88 5.75573L274.836 5.04711L274.537 5.06568ZM274.86 5.84065C275.156 5.33438 275.551 5.09653 276.055 5.09653V4.79653C275.43 4.79653 274.943 5.10435 274.601 5.68938L274.86 5.84065ZM276.055 5.09653C276.217 5.09653 276.366 5.11846 276.505 5.16124L276.593 4.87465C276.424 4.82221 276.244 4.79653 276.055 4.79653V5.09653ZM276.399 5.01579L276.377 6.54289L276.677 6.5472L276.699 5.0201L276.399 5.01579ZM287.764 11V11.15H287.914V11H287.764ZM282.282 11H282.132V11.15H282.282V11ZM282.282 9.91235L282.172 9.80972L282.132 9.853V9.91235H282.282ZM284.869 7.15479L284.978 7.25743L284.98 7.25605L284.869 7.15479ZM285.654 6.13855L285.526 6.06185L285.525 6.06307L285.654 6.13855ZM285.643 4.47961L285.531 4.57839L285.531 4.5794L285.643 4.47961ZM284.023 4.54553L283.908 4.44917L283.908 4.44934L284.023 4.54553ZM283.715 5.51782V5.66782H283.865V5.51782H283.715ZM282.122 5.51782H281.972V5.66782H282.122V5.51782ZM282.468 4.18298L282.339 4.10755L282.338 4.10844L282.468 4.18298ZM283.457 3.23816L283.528 3.37045L283.529 3.36997L283.457 3.23816ZM286.819 3.48535L286.72 3.59846L286.721 3.59885L286.819 3.48535ZM286.143 7.80298L286.252 7.90622L286.254 7.9041L286.143 7.80298ZM284.325 9.72009L284.216 9.61687L283.976 9.87009H284.325V9.72009ZM287.764 9.72009H287.914V9.57009H287.764V9.72009ZM287.764 10.85H282.282V11.15H287.764V10.85ZM282.432 11V9.91235H282.132V11H282.432ZM282.391 10.015L284.978 7.25742L284.76 7.05215L282.172 9.80972L282.391 10.015ZM284.98 7.25605C285.338 6.8639 285.608 6.51627 285.784 6.21403L285.525 6.06307C285.364 6.33945 285.11 6.6693 284.758 7.05352L284.98 7.25605ZM285.783 6.21524C285.965 5.90943 286.063 5.60843 286.063 5.31458H285.763C285.763 5.54074 285.688 5.78906 285.526 6.06186L285.783 6.21524ZM286.063 5.31458C286.063 4.93445 285.966 4.61647 285.755 4.37983L285.531 4.5794C285.68 4.74559 285.763 4.98425 285.763 5.31458H286.063ZM285.756 4.38084C285.542 4.13607 285.24 4.022 284.874 4.022V4.322C285.175 4.322 285.386 4.413 285.531 4.57839L285.756 4.38084ZM284.874 4.022C284.476 4.022 284.148 4.16233 283.908 4.44917L284.138 4.64189C284.315 4.43069 284.555 4.322 284.874 4.322V4.022ZM283.908 4.44934C283.675 4.72809 283.565 5.0892 283.565 5.51782H283.865C283.865 5.14078 283.961 4.8537 284.138 4.64173L283.908 4.44934ZM283.715 5.36782H282.122V5.66782H283.715V5.36782ZM282.272 5.51782C282.272 5.05558 282.381 4.63654 282.599 4.25753L282.338 4.10844C282.094 4.5351 281.972 5.00595 281.972 5.51782H282.272ZM282.598 4.25842C282.818 3.88047 283.127 3.58484 283.528 3.37045L283.386 3.10587C282.938 3.34558 282.588 3.67983 282.339 4.10755L282.598 4.25842ZM283.529 3.36997C283.929 3.1525 284.386 3.04209 284.902 3.04209V2.74209C284.341 2.74209 283.835 2.86239 283.386 3.10634L283.529 3.36997ZM284.902 3.04209C285.703 3.04209 286.302 3.23426 286.72 3.59846L286.917 3.37224C286.427 2.94543 285.749 2.74209 284.902 2.74209V3.04209ZM286.721 3.59885C287.139 3.96035 287.356 4.4737 287.356 5.16077H287.656C287.656 4.40497 287.414 3.80137 286.917 3.37185L286.721 3.59885ZM287.356 5.16077C287.356 5.52954 287.26 5.90953 287.064 6.30218L287.332 6.43634C287.546 6.00868 287.656 5.58301 287.656 5.16077H287.356ZM287.064 6.30218C286.868 6.69478 286.526 7.161 286.033 7.70186L286.254 7.9041C286.757 7.35365 287.118 6.86406 287.332 6.43634L287.064 6.30218ZM286.034 7.69976L284.216 9.61687L284.434 9.82332L286.252 7.9062L286.034 7.69976ZM284.325 9.87009H287.764V9.57009H284.325V9.87009ZM287.614 9.72009V11H287.914V9.72009H287.614ZM289.845 7.77551L289.695 7.77551L289.695 7.77705L289.845 7.77551ZM290.537 3.76001L290.42 3.66603L290.419 3.66649L290.537 3.76001ZM294.541 3.75452L294.424 3.8484L294.425 3.84877L294.541 3.75452ZM295.25 6.22095L295.4 6.22095L295.4 6.21941L295.25 6.22095ZM293.388 4.63342L293.259 4.70969L293.26 4.71151L293.388 4.63342ZM291.712 4.61145L291.585 4.53239L291.585 4.53284L291.712 4.61145ZM291.432 5.95728L291.282 5.95458V5.95728H291.432ZM291.696 9.35754L291.564 9.43001L291.565 9.4318L291.696 9.35754ZM293.662 7.97876L293.812 7.98051V7.97876H293.662ZM295.1 7.69312C295.1 8.78124 294.874 9.58917 294.445 10.1386L294.681 10.3233C295.168 9.70087 295.4 8.81691 295.4 7.69312H295.1ZM294.445 10.1386C294.021 10.6812 293.399 10.9599 292.553 10.9599V11.2599C293.472 11.2599 294.19 10.9526 294.681 10.3233L294.445 10.1386ZM292.553 10.9599C291.717 10.9599 291.098 10.6864 290.67 10.1536L290.436 10.3413C290.931 10.9584 291.645 11.2599 292.553 11.2599V10.9599ZM290.67 10.1536C290.238 9.61441 290.005 8.82817 289.995 7.77398L289.695 7.77705C289.706 8.86885 289.946 9.73057 290.436 10.3413L290.67 10.1536ZM289.995 7.77551V6.30334H289.695V7.77551H289.995ZM289.995 6.30334C289.995 5.20385 290.222 4.39503 290.654 3.85353L290.419 3.66649C289.928 4.28221 289.695 5.16895 289.695 6.30334H289.995ZM290.654 3.85398C291.085 3.31715 291.707 3.04209 292.542 3.04209V2.74209C291.634 2.74209 290.919 3.04564 290.42 3.66604L290.654 3.85398ZM292.542 3.04209C293.377 3.04209 293.997 3.31556 294.424 3.8484L294.658 3.66063C294.163 3.04357 293.45 2.74209 292.542 2.74209V3.04209ZM294.425 3.84877C294.857 4.38408 295.089 5.1682 295.1 6.22248L295.4 6.21941C295.389 5.12769 295.148 4.26754 294.658 3.66027L294.425 3.84877ZM295.1 6.22095V7.69312H295.4V6.22095H295.1ZM293.812 6.07812C293.812 5.40829 293.721 4.89204 293.516 4.55533L293.26 4.71151C293.421 4.9754 293.512 5.42228 293.512 6.07812H293.812ZM293.517 4.55717C293.308 4.20277 292.974 4.02749 292.542 4.02749V4.32749C292.879 4.32749 293.109 4.45616 293.259 4.70968L293.517 4.55717ZM292.542 4.02749C292.122 4.02749 291.795 4.19407 291.585 4.53239L291.84 4.69051C291.989 4.45021 292.214 4.32749 292.542 4.32749V4.02749ZM291.585 4.53284C291.387 4.85333 291.293 5.33505 291.282 5.95458L291.582 5.95997C291.593 5.35636 291.686 4.94085 291.84 4.69006L291.585 4.53284ZM291.282 5.95728V7.90186H291.582V5.95728H291.282ZM291.282 7.90186C291.282 8.56188 291.37 9.07791 291.564 9.43001L291.827 9.28508C291.67 8.99997 291.582 8.54554 291.582 7.90186H291.282ZM291.565 9.4318C291.774 9.79803 292.112 9.97996 292.553 9.97996V9.67996C292.209 9.67996 291.976 9.54694 291.826 9.28329L291.565 9.4318ZM292.553 9.97996C292.988 9.97996 293.322 9.80494 293.524 9.44794L293.263 9.30011C293.121 9.55102 292.894 9.67996 292.553 9.67996V9.97996ZM293.524 9.44794C293.715 9.11072 293.805 8.61487 293.812 7.98051L293.512 7.97701C293.505 8.59509 293.416 9.02941 293.263 9.30011L293.524 9.44794ZM293.812 7.97876V6.07812H293.512V7.97876H293.812ZM301.308 11V11.15H301.458V11H301.308ZM299.72 11H299.57V11.15H299.72V11ZM299.72 4.88062H299.87V4.67704L299.676 4.73735L299.72 4.88062ZM297.825 5.46838H297.675V5.67195L297.87 5.61165L297.825 5.46838ZM297.825 4.17749L297.774 4.03628L297.675 4.07189V4.17749H297.825ZM301.137 2.99097V2.84097H301.111L301.087 2.84975L301.137 2.99097ZM301.308 2.99097H301.458V2.84097H301.308V2.99097ZM301.308 10.85H299.72V11.15H301.308V10.85ZM299.87 11V4.88062H299.57V11H299.87ZM299.676 4.73735L297.781 5.32512L297.87 5.61165L299.765 5.02388L299.676 4.73735ZM297.975 5.46838V4.17749H297.675V5.46838H297.975ZM297.876 4.3187L301.188 3.13218L301.087 2.84975L297.774 4.03628L297.876 4.3187ZM301.137 3.14097H301.308V2.84097H301.137V3.14097ZM301.158 2.99097V11H301.458V2.99097H301.158ZM309.343 2.91956H309.493V2.76956H309.343V2.91956ZM309.343 4.22693V4.37693H309.493V4.22693H309.343ZM309.189 4.22693V4.07691L309.187 4.07695L309.189 4.22693ZM307.453 4.78723L307.358 4.67152L307.358 4.67192L307.453 4.78723ZM306.668 6.29785L306.519 6.27758L306.458 6.72508L306.775 6.40301L306.668 6.29785ZM310.211 9.77502L310.079 9.70384L310.079 9.70474L310.211 9.77502ZM309.255 10.7583L309.181 10.6278L309.181 10.6281L309.255 10.7583ZM305.817 10.231L305.704 10.3301L305.704 10.3305L305.817 10.231ZM305.531 5.01794L305.396 4.95145L305.396 4.95176L305.531 5.01794ZM306.943 3.47437L307.019 3.6034L307.019 3.60326L306.943 3.47437ZM309.079 2.91956V2.76955L309.079 2.76956L309.079 2.91956ZM307.096 7.12732L307.177 7.25415L307.178 7.25314L307.096 7.12732ZM306.635 7.65466L306.498 7.59311L306.485 7.62247V7.65466H306.635ZM306.948 9.38501L306.825 9.47063L306.825 9.47133L306.948 9.38501ZM308.651 9.42896L308.533 9.33642L308.533 9.33664L308.651 9.42896ZM309.193 2.91956V4.22693H309.493V2.91956H309.193ZM309.343 4.07693H309.189V4.37693H309.343V4.07693ZM309.187 4.07695C308.444 4.08832 307.83 4.28218 307.358 4.67153L307.549 4.90294C307.956 4.56718 308.499 4.38751 309.192 4.37691L309.187 4.07695ZM307.358 4.67192C306.889 5.06199 306.612 5.60177 306.519 6.27758L306.817 6.31812C306.9 5.70487 307.147 5.23757 307.549 4.90254L307.358 4.67192ZM306.775 6.40301C307.169 6.00171 307.666 5.79966 308.277 5.79966V5.49966C307.592 5.49966 307.016 5.72973 306.561 6.1927L306.775 6.40301ZM308.277 5.79966C308.932 5.79966 309.441 6.03162 309.821 6.49208L310.052 6.30137C309.611 5.76574 309.014 5.49966 308.277 5.49966V5.79966ZM309.821 6.49208C310.203 6.9569 310.402 7.57582 310.402 8.36328H310.702C310.702 7.52477 310.49 6.83265 310.052 6.30137L309.821 6.49208ZM310.402 8.36328C310.402 8.86066 310.293 9.30644 310.079 9.70384L310.343 9.84621C310.583 9.40132 310.702 8.90594 310.702 8.36328H310.402ZM310.079 9.70474C309.869 10.1007 309.57 10.4075 309.181 10.6278L309.329 10.8888C309.768 10.6403 310.107 10.2916 310.344 9.84531L310.079 9.70474ZM309.181 10.6281C308.796 10.8482 308.357 10.9599 307.86 10.9599V11.2599C308.403 11.2599 308.895 11.1371 309.33 10.8885L309.181 10.6281ZM307.86 10.9599C307.057 10.9599 306.418 10.6826 305.929 10.1314L305.704 10.3305C306.255 10.9512 306.978 11.2599 307.86 11.2599V10.9599ZM305.929 10.1318C305.442 9.57964 305.192 8.83618 305.192 7.88538H304.892C304.892 8.89014 305.158 9.7104 305.704 10.3301L305.929 10.1318ZM305.192 7.88538V7.31409H304.892V7.88538H305.192ZM305.192 7.31409C305.192 6.46512 305.351 5.72307 305.665 5.08413L305.396 4.95176C305.059 5.6385 304.892 6.42721 304.892 7.31409H305.192ZM305.665 5.08443C305.983 4.44269 306.434 3.95045 307.019 3.6034L306.866 3.34533C306.228 3.72338 305.738 4.26019 305.396 4.95145L305.665 5.08443ZM307.019 3.60326C307.609 3.25246 308.294 3.07311 309.08 3.06955L309.079 2.76956C308.246 2.77332 307.507 2.96385 306.866 3.34547L307.019 3.60326ZM309.079 3.06956H309.343V2.76956H309.079V3.06956ZM307.794 6.77407C307.51 6.77407 307.249 6.84973 307.015 7.0015L307.178 7.25314C307.362 7.13392 307.566 7.07407 307.794 7.07407V6.77407ZM307.016 7.0005C306.783 7.14764 306.609 7.34584 306.498 7.59311L306.772 7.71622C306.858 7.52403 306.992 7.37067 307.177 7.25414L307.016 7.0005ZM306.485 7.65466V8.13806H306.785V7.65466H306.485ZM306.485 8.13806C306.485 8.68647 306.592 9.13619 306.825 9.47063L307.071 9.29939C306.886 9.03325 306.785 8.65166 306.785 8.13806H306.485ZM306.825 9.47133C307.064 9.80974 307.403 9.97996 307.827 9.97996V9.67996C307.496 9.67996 307.25 9.55354 307.071 9.29869L306.825 9.47133ZM307.827 9.97996C308.214 9.97996 308.532 9.82519 308.769 9.52127L308.533 9.33664C308.353 9.56739 308.122 9.67996 307.827 9.67996V9.97996ZM308.769 9.52149C309.007 9.21817 309.12 8.8334 309.12 8.37976H308.82C308.82 8.78306 308.72 9.09775 308.533 9.33642L308.769 9.52149ZM309.12 8.37976C309.12 7.91959 309.007 7.53222 308.768 7.23176L308.534 7.41838C308.72 7.65259 308.82 7.96835 308.82 8.37976H309.12ZM308.768 7.23176C308.526 6.92655 308.196 6.77407 307.794 6.77407V7.07407C308.11 7.07407 308.351 7.18893 308.534 7.41838L308.768 7.23176ZM312.149 1.69458V1.54458H311.999V1.69458H312.149ZM314.522 1.69458H314.672V1.54458H314.522V1.69458ZM314.522 12.8622V13.0122H314.672V12.8622H314.522ZM312.149 12.8622H311.999V13.0122H312.149V12.8622ZM312.149 11.6372V11.4872H311.999V11.6372H312.149ZM312.935 11.6372V11.7872H313.085V11.6372H312.935ZM312.935 2.91956H313.085V2.76956H312.935V2.91956ZM312.149 2.91956H311.999V3.06956H312.149V2.91956ZM312.149 1.84458H314.522V1.54458H312.149V1.84458ZM314.372 1.69458V12.8622H314.672V1.69458H314.372ZM314.522 12.7122H312.149V13.0122H314.522V12.7122ZM312.299 12.8622V11.6372H311.999V12.8622H312.299ZM312.149 11.7872H312.935V11.4872H312.149V11.7872ZM313.085 11.6372V2.91956H312.785V11.6372H313.085ZM312.935 2.76956H312.149V3.06956H312.935V2.76956ZM312.299 2.91956V1.69458H311.999V2.91956H312.299Z" fill="black"/>
<path d="M2.23572 7.3031V9.78601C2.23572 10.0826 2.33643 10.2822 2.53784 10.3848C2.62207 10.4324 2.71362 10.469 2.8125 10.4946C2.91504 10.5203 3.01208 10.5605 3.10364 10.6155V11H0.664673V10.6155C0.741577 10.5605 0.827637 10.5203 0.922852 10.4946C1.02173 10.4653 1.11328 10.4287 1.19751 10.3848C1.39893 10.2822 1.49963 10.0826 1.49963 9.78601V5.34204L2.23572 7.3031ZM1.70837 4.51807C1.64612 4.36426 1.58936 4.22876 1.53809 4.11157C1.44287 4.0896 1.34399 4.06763 1.24146 4.04565C1.14258 4.02368 1.0437 4.00171 0.944824 3.97974C0.732422 3.9248 0.567627 3.87354 0.450439 3.82593V3.19421H3.09814L5.47668 9.42346L5.08118 11H4.13635L1.70837 4.51807ZM5.32288 7.66565L6.44348 3.19421H9.34387V3.6062C9.245 3.64648 9.14978 3.67761 9.05823 3.69958C8.96667 3.7179 8.88428 3.74536 8.81104 3.78198C8.6499 3.86255 8.56934 4.01819 8.56934 4.2489V9.9563C8.56934 10.1833 8.6499 10.3372 8.81104 10.4177C8.88428 10.4543 8.96667 10.4836 9.05823 10.5056C9.14978 10.5239 9.245 10.5532 9.34387 10.5935V11H5.99854V10.5935C6.09741 10.5532 6.19263 10.5239 6.28418 10.5056C6.37939 10.4836 6.46362 10.4543 6.53687 10.4177C6.70166 10.3372 6.78406 10.1833 6.78406 9.9563V4.37524H6.75659L5.69641 8.63245L5.32288 7.66565ZM16.3751 10.8901C16.1334 11.0183 15.7709 11.0824 15.2875 11.0824C14.8041 11.0824 14.4342 10.9451 14.1779 10.6704C13.9215 10.3958 13.7933 9.97827 13.7933 9.41797V6.43518C13.7933 6.24109 13.7054 6.10925 13.5297 6.03967C13.4564 6.01038 13.3777 5.98657 13.2935 5.96826C13.2129 5.94995 13.1415 5.91516 13.0792 5.86389V5.47937H15.4248V9.56628C15.4248 9.8446 15.4688 10.057 15.5566 10.2035C15.6482 10.35 15.7782 10.4232 15.9467 10.4232C16.1151 10.4232 16.2579 10.3848 16.3751 10.3079V10.8901ZM16.8695 6.43518C16.8695 6.24109 16.7816 6.10925 16.6058 6.03967C16.5326 6.01038 16.4539 5.98657 16.3696 5.96826C16.2891 5.94629 16.214 5.9115 16.1444 5.86389V5.47937H18.4955V10.0552C18.4955 10.2419 18.5834 10.3701 18.7592 10.4397C18.8324 10.469 18.9093 10.4946 18.9899 10.5166C19.0741 10.5349 19.1473 10.5679 19.2096 10.6155V11H16.8695V6.43518ZM25.1587 10.0771C25.1587 10.2676 25.2466 10.3976 25.4224 10.4672C25.4956 10.4965 25.5743 10.5221 25.6586 10.5441C25.7428 10.566 25.8215 10.6008 25.8948 10.6484V11H22.8021V10.6484C22.8717 10.6008 22.9486 10.566 23.0328 10.5441C23.1171 10.5221 23.1958 10.4965 23.269 10.4672C23.4412 10.3976 23.5272 10.2676 23.5272 10.0771V3.96326C23.5272 3.76917 23.4412 3.6355 23.269 3.56226C23.1958 3.53296 23.1171 3.50916 23.0328 3.49084C22.9486 3.46887 22.8717 3.43408 22.8021 3.38647V3.00745H25.1587V10.0771ZM31.8109 3.61169V11.0824H31.767C31.2286 11.0824 30.8276 10.9799 30.564 10.7748C30.304 10.5697 30.174 10.2365 30.174 9.77502V6.08362H29.4434V5.64417C29.4983 5.58557 29.5679 5.54163 29.6521 5.51233C29.74 5.48303 29.8279 5.4519 29.9158 5.41895C30.1318 5.33838 30.2692 5.20654 30.3278 5.02344C30.5219 4.48877 30.6738 4.14636 30.7837 3.99622C30.8936 3.84241 30.9906 3.7179 31.0748 3.62268L31.8109 3.61169ZM32.2998 10.4232C32.5964 10.4232 32.8052 10.328 32.926 10.1376C32.9773 10.0533 33.0176 9.95813 33.0469 9.85193C33.0762 9.74207 33.1091 9.6322 33.1458 9.52234L33.5907 9.69812C33.4991 10.1229 33.3856 10.4159 33.2501 10.577C33.1146 10.7345 32.9736 10.8499 32.8271 10.9231C32.6843 10.9963 32.5085 11.0494 32.2998 11.0824V10.4232ZM32.2998 5.47937H33.2886V6.08362H32.2998V5.47937ZM39.2322 10.0771C39.2322 10.2676 39.3201 10.3976 39.4958 10.4672C39.5691 10.4965 39.6478 10.5221 39.7321 10.5441C39.8163 10.566 39.895 10.6008 39.9683 10.6484V11H36.8756V10.6484C36.9452 10.6008 37.0221 10.566 37.1063 10.5441C37.1906 10.5221 37.2693 10.4965 37.3425 10.4672C37.5146 10.3976 37.6007 10.2676 37.6007 10.0771V6.43518C37.6007 6.23743 37.5146 6.10742 37.3425 6.04517C37.2693 6.01587 37.1906 5.99207 37.1063 5.97375C37.0221 5.95178 36.9452 5.91516 36.8756 5.86389V5.47937H39.2322V10.0771ZM38.3203 4.82568C38.1812 4.82568 38.0548 4.80005 37.9413 4.74878C37.8278 4.69751 37.7307 4.62793 37.6501 4.54004C37.4817 4.35693 37.3975 4.13354 37.3975 3.86987C37.3975 3.61353 37.4817 3.39014 37.6501 3.19971C37.8259 3.00562 38.0493 2.90857 38.3203 2.90857C38.595 2.90857 38.8202 3.00562 38.996 3.19971C39.1644 3.39014 39.2487 3.61353 39.2487 3.86987C39.2487 4.13354 39.1644 4.35693 38.996 4.54004C38.8202 4.73047 38.595 4.82568 38.3203 4.82568ZM46.3623 5.66614C46.6187 5.46838 46.9318 5.36951 47.3016 5.36951C47.8436 5.36951 48.2391 5.49219 48.4882 5.73755C48.7372 5.97925 48.8617 6.36011 48.8617 6.88013V10.0771C48.8617 10.2676 48.9276 10.3958 49.0594 10.4617C49.118 10.491 49.1803 10.5184 49.2462 10.5441C49.3158 10.566 49.3817 10.6008 49.444 10.6484V11H47.2247V7.07239C47.2247 6.70984 47.2009 6.46814 47.1533 6.34729C47.0618 6.13489 46.9116 6.02869 46.7029 6.02869C46.5784 6.02869 46.4648 6.06714 46.3623 6.14404V5.66614ZM49.3561 5.59473C49.6198 5.44458 49.9036 5.36951 50.2075 5.36951C50.5151 5.36951 50.766 5.4043 50.9601 5.47388C51.1542 5.54346 51.3153 5.65332 51.4435 5.80347C51.7035 6.10742 51.8335 6.578 51.8335 7.21521V9.82446C51.8335 10.0881 51.861 10.2566 51.9159 10.3298C51.9745 10.3994 52.0276 10.4434 52.0752 10.4617C52.1228 10.4763 52.1741 10.4891 52.229 10.5001C52.3608 10.5294 52.4652 10.5789 52.5421 10.6484V11H50.202V7.07239C50.202 6.69885 50.1782 6.45532 50.1306 6.3418C50.05 6.13306 49.9017 6.02869 49.6857 6.02869C49.5685 6.02869 49.4586 6.06348 49.3561 6.13306V5.59473ZM44.2365 6.68237C44.2365 6.40771 44.2072 6.2356 44.1486 6.16602C44.09 6.09644 44.0369 6.05615 43.9893 6.04517C43.9417 6.03052 43.8922 6.01953 43.8409 6.01221C43.7018 5.98657 43.6029 5.93713 43.5443 5.86389V5.47937H45.8734V10.0112C45.8734 10.209 45.9631 10.3518 46.1426 10.4397C46.2231 10.4763 46.3129 10.5093 46.4117 10.5386C46.5143 10.5679 46.6168 10.6045 46.7194 10.6484V11H43.4674V10.6484C43.548 10.6008 43.6322 10.566 43.7201 10.5441C43.8116 10.5184 43.8959 10.4891 43.9728 10.4562C44.1486 10.3793 44.2365 10.231 44.2365 10.0112V6.68237ZM59.3317 10.4232C60.0677 10.3866 60.5621 9.9801 60.8148 9.20374L61.3202 9.43445C61.0455 10.4415 60.3827 10.9908 59.3317 11.0824V10.4232ZM59.1669 5.36951C59.9213 5.42444 60.4871 5.72473 60.8643 6.27039C61.2012 6.75378 61.3696 7.40015 61.3696 8.20947H58.5406V7.64917H59.6777C59.6777 7.18042 59.6411 6.81055 59.5679 6.53955C59.4983 6.26489 59.3646 6.0946 59.1669 6.02869V5.36951ZM58.8428 11.0824C58.0481 11.0201 57.4072 10.7107 56.9202 10.1541C56.4661 9.6377 56.239 9.00232 56.239 8.24792C56.239 7.45691 56.4679 6.79224 56.9257 6.25391C57.3798 5.71558 57.9639 5.42078 58.678 5.36951V6.02869C58.4363 6.11292 58.266 6.33997 58.1671 6.70984C58.0719 7.07971 58.0243 7.49719 58.0243 7.96228C58.0243 8.42371 58.0353 8.76978 58.0573 9.00049C58.0829 9.22754 58.1268 9.43262 58.1891 9.61572C58.3173 10.0002 58.5352 10.2694 58.8428 10.4232V11.0824ZM68.8898 10.4836V3.96326C68.8898 3.76917 68.8037 3.6355 68.6316 3.56226C68.5583 3.53296 68.4796 3.50916 68.3954 3.49084C68.3112 3.46887 68.2343 3.43408 68.1647 3.38647V3.00745H70.5212V10.0771C70.5212 10.2676 70.6055 10.3976 70.7739 10.4672C70.8435 10.4965 70.9149 10.5221 70.9882 10.5441C71.0651 10.566 71.131 10.6008 71.1859 10.6484V11H68.9612L68.8898 10.4836ZM68.4009 10.9176C68.1812 11.0275 67.9156 11.0824 67.6044 11.0824C67.2931 11.0824 66.9965 11.011 66.7145 10.8682C66.4325 10.7217 66.1926 10.5239 65.9949 10.2749C65.5737 9.75854 65.3632 9.11401 65.3632 8.34131C65.3632 7.50635 65.6067 6.7959 66.0938 6.20996C66.5662 5.64966 67.1283 5.36951 67.7802 5.36951C68.0328 5.36951 68.2397 5.4043 68.4009 5.47388V6.1001C68.324 6.05249 68.2086 6.02869 68.0548 6.02869C67.9047 6.02869 67.771 6.08728 67.6538 6.20447C67.5403 6.32166 67.4487 6.47729 67.3792 6.67139C67.251 7.03394 67.1869 7.45508 67.1869 7.93481C67.1869 8.41455 67.196 8.79175 67.2144 9.06641C67.2327 9.34106 67.2729 9.5791 67.3352 9.78052C67.4634 10.209 67.7014 10.4232 68.0493 10.4232C68.2104 10.4232 68.3276 10.3903 68.4009 10.3243V10.9176ZM77.113 10.0771C77.113 10.2676 77.2009 10.3976 77.3767 10.4672C77.45 10.4965 77.5287 10.5221 77.6129 10.5441C77.6971 10.566 77.7759 10.6008 77.8491 10.6484V11H74.7565V10.6484C74.826 10.6008 74.903 10.566 74.9872 10.5441C75.0714 10.5221 75.1501 10.4965 75.2234 10.4672C75.3955 10.3976 75.4816 10.2676 75.4816 10.0771V6.43518C75.4816 6.23743 75.3955 6.10742 75.2234 6.04517C75.1501 6.01587 75.0714 5.99207 74.9872 5.97375C74.903 5.95178 74.826 5.91516 74.7565 5.86389V5.47937H77.113V10.0771ZM76.2012 4.82568C76.062 4.82568 75.9357 4.80005 75.8221 4.74878C75.7086 4.69751 75.6116 4.62793 75.531 4.54004C75.3625 4.35693 75.2783 4.13354 75.2783 3.86987C75.2783 3.61353 75.3625 3.39014 75.531 3.19971C75.7068 3.00562 75.9302 2.90857 76.2012 2.90857C76.4758 2.90857 76.701 3.00562 76.8768 3.19971C77.0453 3.39014 77.1295 3.61353 77.1295 3.86987C77.1295 4.13354 77.0453 4.35693 76.8768 4.54004C76.701 4.73047 76.4758 4.82568 76.2012 4.82568ZM86.1053 11.0824C85.5524 11.0824 85.1349 10.9561 84.8529 10.7034V7.44043C84.8529 6.97168 84.8328 6.66772 84.7925 6.52856C84.7192 6.25024 84.5691 6.08362 84.342 6.02869V5.36951C85.7739 5.42078 86.4899 6.06531 86.4899 7.3031V9.76404C86.4899 10.2035 86.5924 10.4232 86.7975 10.4232C86.9659 10.4232 87.0685 10.1998 87.1051 9.75305L87.5006 9.85193C87.4091 10.4708 87.1399 10.8535 86.6931 11C86.532 11.0549 86.3361 11.0824 86.1053 11.0824ZM84.364 10.8187C84.1553 10.9945 83.8806 11.0824 83.54 11.0824C83.2031 11.0824 82.923 11.0513 82.6996 10.989C82.4762 10.9231 82.2839 10.8279 82.1228 10.7034C81.7749 10.4324 81.601 10.0607 81.601 9.58826C81.601 9.04626 81.8536 8.6178 82.359 8.30286C82.7216 8.07581 83.3899 7.83044 84.364 7.56677V8.14905C83.7122 8.4054 83.3862 8.85583 83.3862 9.50037C83.3862 9.92151 83.4851 10.2053 83.6829 10.3518C83.7524 10.3994 83.8531 10.4232 83.985 10.4232C84.1168 10.4232 84.2432 10.3811 84.364 10.2969V10.8187ZM83.205 6.38025C83.454 6.49377 83.5785 6.66223 83.5785 6.88562C83.5785 7.1676 83.4155 7.35254 83.0896 7.44043C82.998 7.4624 82.9065 7.47339 82.8149 7.47339C82.5476 7.47339 82.3444 7.39832 82.2052 7.24817C82.066 7.09802 81.9965 6.92041 81.9965 6.71533C81.9965 6.50659 82.0367 6.32898 82.1173 6.1825C82.1979 6.03235 82.3169 5.89868 82.4744 5.78149C82.8149 5.53613 83.2745 5.3988 83.8531 5.36951V6.02869C83.5638 6.047 83.3478 6.16418 83.205 6.38025ZM100.025 11H97.4158V10.5935C97.5146 10.5532 97.6099 10.5239 97.7014 10.5056C97.7966 10.4836 97.8809 10.4543 97.9541 10.4177C98.1189 10.3372 98.2013 10.1833 98.2013 9.9563V4.2489C98.2013 4.01819 98.1189 3.86255 97.9541 3.78198C97.8809 3.74536 97.7966 3.7179 97.7014 3.69958C97.6099 3.67761 97.5146 3.64648 97.4158 3.6062V3.19421H100.025V11ZM102.453 4.53455C102.292 4.25989 102.085 4.05664 101.832 3.9248C101.58 3.78931 101.321 3.72156 101.058 3.72156C100.798 3.72156 100.616 3.72888 100.514 3.74353V3.19421H101.052C102.352 3.19421 103.348 3.59705 104.041 4.40271C104.656 5.12048 104.963 6.0177 104.963 7.09436C104.963 8.2113 104.645 9.125 104.008 9.83545C103.312 10.6118 102.347 11 101.113 11H100.514V10.4507C100.631 10.4653 100.814 10.4727 101.063 10.4727C101.312 10.4727 101.563 10.4177 101.816 10.3079C102.072 10.1943 102.283 10.0057 102.448 9.74207C102.766 9.23303 102.925 8.35046 102.925 7.09436C102.925 5.92615 102.768 5.07288 102.453 4.53455ZM111.989 10.4232C112.725 10.3866 113.22 9.9801 113.472 9.20374L113.978 9.43445C113.703 10.4415 113.04 10.9908 111.989 11.0824V10.4232ZM111.824 5.36951C112.579 5.42444 113.145 5.72473 113.522 6.27039C113.859 6.75378 114.027 7.40015 114.027 8.20947H111.198V7.64917H112.335C112.335 7.18042 112.299 6.81055 112.225 6.53955C112.156 6.26489 112.022 6.0946 111.824 6.02869V5.36951ZM111.5 11.0824C110.706 11.0201 110.065 10.7107 109.578 10.1541C109.124 9.6377 108.896 9.00232 108.896 8.24792C108.896 7.45691 109.125 6.79224 109.583 6.25391C110.037 5.71558 110.621 5.42078 111.335 5.36951V6.02869C111.094 6.11292 110.923 6.33997 110.825 6.70984C110.729 7.07971 110.682 7.49719 110.682 7.96228C110.682 8.42371 110.693 8.76978 110.715 9.00049C110.74 9.22754 110.784 9.43262 110.847 9.61572C110.975 10.0002 111.193 10.2694 111.5 10.4232V11.0824ZM120.119 6.02869C119.782 6.12024 119.614 6.27954 119.614 6.50659C119.614 6.8728 119.934 7.17859 120.575 7.42395C121.08 7.61804 121.437 7.77002 121.646 7.87988C121.859 7.98608 122.036 8.10327 122.179 8.23145C122.498 8.52441 122.657 8.88879 122.657 9.32458C122.657 9.84094 122.461 10.2548 122.069 10.566C121.688 10.8663 121.201 11.0385 120.608 11.0824V10.4232C120.992 10.3317 121.185 10.1193 121.185 9.78601C121.185 9.44177 120.87 9.14697 120.24 8.90161C119.745 8.71118 119.394 8.56287 119.185 8.45667C118.98 8.35046 118.808 8.23511 118.669 8.1106C118.358 7.83228 118.202 7.48987 118.202 7.08337C118.202 6.64392 118.389 6.25391 118.762 5.91333C119.139 5.57275 119.592 5.39148 120.119 5.36951V6.02869ZM121.624 6.14404C121.544 6.11108 121.205 6.07263 120.608 6.02869V5.36951C121.245 5.39514 121.743 5.54712 122.102 5.82544C122.402 6.05981 122.552 6.31982 122.552 6.60547C122.552 6.96069 122.417 7.19507 122.146 7.30859C122.051 7.34521 121.919 7.36353 121.75 7.36353C121.582 7.36353 121.443 7.31042 121.333 7.20422C121.227 7.09436 121.174 6.96069 121.174 6.80322C121.174 6.53589 121.324 6.31616 121.624 6.14404ZM119.174 10.2694C119.269 10.3536 119.584 10.4049 120.119 10.4232V11.0824C119.511 11.0348 119.033 10.8737 118.685 10.599C118.392 10.3646 118.246 10.0973 118.246 9.797C118.246 9.59924 118.301 9.43811 118.411 9.3136C118.521 9.18542 118.687 9.12134 118.911 9.12134C119.134 9.12134 119.299 9.17078 119.405 9.26965C119.515 9.36853 119.57 9.4967 119.57 9.65417C119.57 9.92883 119.438 10.1339 119.174 10.2694ZM128.716 10.0771C128.716 10.2676 128.804 10.3976 128.979 10.4672C129.053 10.4965 129.131 10.5221 129.216 10.5441C129.3 10.566 129.379 10.6008 129.452 10.6484V11H126.359V10.6484C126.429 10.6008 126.506 10.566 126.59 10.5441C126.674 10.5221 126.753 10.4965 126.826 10.4672C126.998 10.3976 127.084 10.2676 127.084 10.0771V6.43518C127.084 6.23743 126.998 6.10742 126.826 6.04517C126.753 6.01587 126.674 5.99207 126.59 5.97375C126.506 5.95178 126.429 5.91516 126.359 5.86389V5.47937H128.716V10.0771ZM127.804 4.82568C127.665 4.82568 127.538 4.80005 127.425 4.74878C127.311 4.69751 127.214 4.62793 127.134 4.54004C126.965 4.35693 126.881 4.13354 126.881 3.86987C126.881 3.61353 126.965 3.39014 127.134 3.19971C127.31 3.00562 127.533 2.90857 127.804 2.90857C128.079 2.90857 128.304 3.00562 128.48 3.19971C128.648 3.39014 128.732 3.61353 128.732 3.86987C128.732 4.13354 128.648 4.35693 128.48 4.54004C128.304 4.73047 128.079 4.82568 127.804 4.82568ZM133.808 10.8682C133.438 10.751 133.253 10.5496 133.253 10.2639C133.253 9.95996 133.469 9.65601 133.901 9.35205L134.528 9.5498C134.385 9.65967 134.313 9.86108 134.313 10.1541C135.855 10.1541 136.915 10.2749 137.494 10.5166C137.787 10.6375 137.99 10.7931 138.104 10.9835C138.217 11.1703 138.274 11.3937 138.274 11.6537C138.274 11.9137 138.208 12.1517 138.076 12.3678C137.948 12.5839 137.774 12.7706 137.554 12.9281C137.097 13.2577 136.534 13.4371 135.868 13.4664V12.9336C136.392 12.9116 136.729 12.7175 136.879 12.3513C136.923 12.2451 136.945 12.1316 136.945 12.0107C136.945 11.791 136.833 11.6097 136.609 11.4669C136.386 11.3241 136.11 11.2527 135.78 11.2527C135.267 11.2527 134.896 11.2692 134.665 11.3021C134.61 11.4376 134.583 11.5878 134.583 11.7526V12.0767C134.583 12.3147 134.639 12.507 134.753 12.6534C134.866 12.7999 135.075 12.8896 135.379 12.9226V13.4609C134.518 13.4133 133.945 13.0819 133.66 12.4667C133.561 12.2543 133.511 11.9961 133.511 11.6921C133.511 11.3882 133.61 11.1135 133.808 10.8682ZM137.549 5.03992C137.314 5.03992 137.197 5.1864 137.197 5.47937C137.197 5.62585 137.216 5.72107 137.252 5.76501C137.292 5.80896 137.333 5.84741 137.373 5.88037C137.417 5.91333 137.494 5.98291 137.604 6.08911C137.838 6.31982 137.955 6.70435 137.955 7.24268C137.955 7.83228 137.75 8.31201 137.34 8.68188C136.948 9.03711 136.458 9.23303 135.868 9.26965V8.7478C136.055 8.68555 136.183 8.5354 136.252 8.29736C136.326 8.05933 136.362 7.72424 136.362 7.29211C136.362 6.85999 136.326 6.53589 136.252 6.31982C136.179 6.10376 136.051 5.96826 135.868 5.91333V5.36951C136.19 5.38049 136.456 5.42261 136.664 5.49585C136.664 4.9978 136.897 4.66455 137.362 4.49609C137.509 4.44116 137.672 4.4137 137.851 4.4137C138.034 4.4137 138.19 4.4375 138.318 4.48511C138.45 4.52905 138.558 4.59131 138.642 4.67188C138.803 4.82202 138.884 5.01428 138.884 5.24866C138.884 5.48303 138.82 5.65881 138.691 5.776C138.567 5.89319 138.402 5.95178 138.197 5.95178C137.992 5.95178 137.825 5.89502 137.697 5.78149C137.573 5.66797 137.51 5.52332 137.51 5.34753C137.51 5.28162 137.52 5.22485 137.538 5.17725C137.56 5.12598 137.571 5.09119 137.571 5.07288C137.571 5.0509 137.563 5.03992 137.549 5.03992ZM135.379 9.28064C134.284 9.24768 133.608 8.88696 133.352 8.19849C133.26 7.96045 133.215 7.6803 133.215 7.35803C133.215 7.03577 133.266 6.75745 133.369 6.52307C133.475 6.28503 133.623 6.08545 133.813 5.92432C134.191 5.59839 134.713 5.41345 135.379 5.36951V5.91333C135.163 5.94995 135.013 6.07263 134.929 6.28137C134.848 6.48279 134.808 6.81421 134.808 7.27563C134.808 7.73706 134.85 8.08862 134.934 8.33032C135.018 8.57202 135.167 8.71667 135.379 8.76428V9.28064ZM145.102 5.72107C145.391 5.48669 145.69 5.36951 145.997 5.36951C146.305 5.36951 146.556 5.4043 146.75 5.47388C146.948 5.54346 147.114 5.646 147.25 5.78149C147.539 6.0708 147.684 6.47546 147.684 6.99548V9.84644C147.684 10.2126 147.766 10.4196 147.931 10.4672C147.982 10.4818 148.033 10.4946 148.085 10.5056C148.228 10.5349 148.332 10.5825 148.398 10.6484V11H145.789V10.6155C145.789 10.5349 145.818 10.469 145.876 10.4177C145.939 10.3665 145.983 10.3225 146.008 10.2859C146.038 10.2456 146.052 10.1833 146.052 10.0991V7.05042C146.052 6.67322 146.027 6.43152 145.975 6.32532C145.887 6.12756 145.75 6.02869 145.563 6.02869C145.377 6.02869 145.223 6.07446 145.102 6.16602V5.72107ZM144.613 9.84644C144.613 10.209 144.69 10.4159 144.844 10.4672C144.891 10.4818 144.941 10.4946 144.992 10.5056C145.128 10.5349 145.228 10.5825 145.294 10.6484V11H142.267V10.6484C142.33 10.6008 142.401 10.566 142.482 10.5441C142.566 10.5221 142.645 10.4965 142.718 10.4672C142.894 10.3976 142.982 10.2676 142.982 10.0771V6.68237C142.982 6.42236 142.921 6.23376 142.8 6.11658C142.705 6.02136 142.527 5.93713 142.267 5.86389V5.47937H144.613V9.84644ZM155.209 10.4232C155.945 10.3866 156.44 9.9801 156.693 9.20374L157.198 9.43445C156.923 10.4415 156.26 10.9908 155.209 11.0824V10.4232ZM155.045 5.36951C155.799 5.42444 156.365 5.72473 156.742 6.27039C157.079 6.75378 157.247 7.40015 157.247 8.20947H154.418V7.64917H155.555C155.555 7.18042 155.519 6.81055 155.446 6.53955C155.376 6.26489 155.242 6.0946 155.045 6.02869V5.36951ZM154.72 11.0824C153.926 11.0201 153.285 10.7107 152.798 10.1541C152.344 9.6377 152.117 9.00232 152.117 8.24792C152.117 7.45691 152.346 6.79224 152.803 6.25391C153.257 5.71558 153.842 5.42078 154.556 5.36951V6.02869C154.314 6.11292 154.144 6.33997 154.045 6.70984C153.95 7.07971 153.902 7.49719 153.902 7.96228C153.902 8.42371 153.913 8.76978 153.935 9.00049C153.961 9.22754 154.005 9.43262 154.067 9.61572C154.195 10.0002 154.413 10.2694 154.72 10.4232V11.0824ZM164.471 6.43518C164.302 6.43518 164.13 6.62378 163.954 7.00098L163.922 5.95178C164.222 5.5636 164.606 5.36951 165.075 5.36951C165.35 5.36951 165.584 5.47021 165.778 5.67163C165.961 5.86206 166.053 6.08362 166.053 6.3363C166.053 6.60364 165.976 6.82886 165.822 7.01196C165.661 7.20605 165.456 7.3031 165.207 7.3031C164.954 7.3031 164.762 7.20972 164.63 7.02295C164.524 6.86548 164.471 6.66956 164.471 6.43518ZM163.383 5.47937C163.46 6.34363 163.499 7.31592 163.499 8.39624V10.0222C163.499 10.2163 163.588 10.3536 163.768 10.4342C163.848 10.4708 163.936 10.5038 164.031 10.5331C164.13 10.5624 164.227 10.6008 164.323 10.6484V11H161.142V10.6484C161.212 10.6008 161.288 10.566 161.373 10.5441C161.457 10.5221 161.536 10.4965 161.609 10.4672C161.781 10.3976 161.867 10.2676 161.867 10.0771V6.43518C161.867 6.23376 161.781 6.1001 161.609 6.03418C161.536 6.00854 161.457 5.98657 161.373 5.96826C161.288 5.94995 161.212 5.91516 161.142 5.86389V5.47937H163.383ZM1.78875 20.5562C1.75125 20.5562 1.7175 20.545 1.6875 20.5225C1.665 20.4925 1.65375 20.4587 1.65375 20.4212V19.3525C1.65375 19.33 1.64625 19.315 1.63125 19.3075C1.61625 19.3 1.60125 19.3037 1.58625 19.3188L0.675 19.8587C0.645 19.8737 0.6225 19.8812 0.6075 19.8812C0.5625 19.8812 0.525 19.855 0.495 19.8025L0.25875 19.3637C0.24375 19.3337 0.23625 19.3112 0.23625 19.2962C0.23625 19.2512 0.25875 19.2137 0.30375 19.1837L1.26 18.6212C1.275 18.6062 1.2825 18.5912 1.2825 18.5762C1.2825 18.5612 1.275 18.55 1.26 18.5425L0.30375 17.9912C0.23625 17.9462 0.22125 17.8862 0.25875 17.8112L0.495 17.35C0.51 17.3125 0.53625 17.29 0.57375 17.2825C0.61125 17.2675 0.64875 17.2712 0.68625 17.2937L1.58625 17.845C1.60125 17.86 1.61625 17.8637 1.63125 17.8562C1.64625 17.8487 1.65375 17.8337 1.65375 17.8112V16.7425C1.65375 16.705 1.665 16.675 1.6875 16.6525C1.7175 16.6225 1.75125 16.6075 1.78875 16.6075H2.28375C2.32125 16.6075 2.35125 16.6225 2.37375 16.6525C2.40375 16.675 2.41875 16.705 2.41875 16.7425L2.4075 17.8112C2.4075 17.8337 2.415 17.8487 2.43 17.8562C2.445 17.8637 2.46 17.86 2.475 17.845L3.375 17.2937C3.405 17.2787 3.4275 17.2712 3.4425 17.2712C3.495 17.2712 3.53625 17.2975 3.56625 17.35L3.8025 17.8112C3.8175 17.8412 3.825 17.8637 3.825 17.8787C3.825 17.9162 3.8025 17.9537 3.7575 17.9912L2.8125 18.5425C2.7975 18.55 2.79 18.5612 2.79 18.5762C2.79 18.5912 2.7975 18.6062 2.8125 18.6212L3.7575 19.1837C3.8325 19.2287 3.85125 19.2887 3.81375 19.3637L3.56625 19.825C3.54375 19.8625 3.51375 19.885 3.47625 19.8925C3.44625 19.9 3.4125 19.8925 3.375 19.87L2.475 19.3188C2.46 19.3037 2.445 19.3 2.43 19.3075C2.415 19.315 2.4075 19.33 2.4075 19.3525L2.41875 20.4212C2.41875 20.4587 2.40375 20.4925 2.37375 20.5225C2.35125 20.545 2.32125 20.5562 2.28375 20.5562H1.78875ZM6.91119 17.1137C7.30869 17.1137 7.65744 17.2112 7.95744 17.4062C8.26494 17.6012 8.50119 17.875 8.66619 18.2275C8.83869 18.58 8.92494 18.9812 8.92494 19.4312C8.92494 20.1062 8.74494 20.65 8.38494 21.0625C8.03244 21.475 7.56369 21.6812 6.97869 21.6812H6.02244C5.98494 21.6812 5.96619 21.7 5.96619 21.7375V24.865C5.96619 24.9025 5.95119 24.9362 5.92119 24.9662C5.89869 24.9887 5.86869 25 5.83119 25H4.79619C4.75869 25 4.72494 24.9887 4.69494 24.9662C4.67244 24.9362 4.66119 24.9025 4.66119 24.865V17.2487C4.66119 17.2112 4.67244 17.1812 4.69494 17.1587C4.72494 17.1287 4.75869 17.1137 4.79619 17.1137H6.91119ZM6.69744 20.6575C6.97494 20.6575 7.19619 20.5525 7.36119 20.3425C7.53369 20.125 7.61994 19.8325 7.61994 19.465C7.61994 19.09 7.53369 18.7937 7.36119 18.5762C7.19619 18.3512 6.97494 18.2387 6.69744 18.2387H6.02244C5.98494 18.2387 5.96619 18.2575 5.96619 18.295V20.6012C5.96619 20.6387 5.98494 20.6575 6.02244 20.6575H6.69744ZM11.6815 19.1612C12.274 19.1612 12.754 19.3337 13.1215 19.6787C13.489 20.0237 13.6728 20.4775 13.6728 21.04V24.865C13.6728 24.9025 13.6578 24.9362 13.6278 24.9662C13.6053 24.9887 13.5753 25 13.5378 25H12.5028C12.4653 25 12.4315 24.9887 12.4015 24.9662C12.379 24.9362 12.3678 24.9025 12.3678 24.865V24.6512C12.3678 24.6287 12.3603 24.6137 12.3453 24.6062C12.3303 24.5987 12.3153 24.6062 12.3003 24.6288C12.0378 24.9363 11.6553 25.09 11.1528 25.09C10.7253 25.09 10.3465 24.97 10.0165 24.73C9.69404 24.4825 9.53279 24.0362 9.53279 23.3912C9.53279 22.7162 9.72779 22.2362 10.1178 21.9512C10.5153 21.6662 11.0515 21.5237 11.7265 21.5237H12.3115C12.349 21.5237 12.3678 21.505 12.3678 21.4675V21.175C12.3678 20.905 12.3003 20.6912 12.1653 20.5337C12.0303 20.3687 11.8615 20.2862 11.659 20.2862C11.5015 20.2862 11.3703 20.3387 11.2653 20.4437C11.1603 20.5412 11.0965 20.6762 11.074 20.8487C11.0665 20.9387 11.0178 20.9837 10.9278 20.9837H9.83654C9.74654 20.9837 9.70529 20.9387 9.71279 20.8487C9.75029 20.3387 9.94904 19.93 10.309 19.6225C10.6765 19.315 11.134 19.1612 11.6815 19.1612ZM11.5128 24.01C11.7378 24.01 11.9365 23.9387 12.109 23.7962C12.2815 23.6537 12.3678 23.455 12.3678 23.2V22.5587C12.3678 22.5212 12.349 22.5025 12.3115 22.5025H11.7265C11.4715 22.5025 11.2653 22.5737 11.1078 22.7162C10.9503 22.8512 10.8715 23.05 10.8715 23.3125C10.8715 23.545 10.9315 23.7212 11.0515 23.8412C11.1715 23.9537 11.3253 24.01 11.5128 24.01ZM16.9532 19.1837C17.1557 19.1837 17.3132 19.2212 17.4257 19.2962C17.4857 19.3337 17.5082 19.39 17.4932 19.465L17.3132 20.5112C17.3057 20.6012 17.2532 20.6275 17.1557 20.59C17.0507 20.56 16.9532 20.545 16.8632 20.545C16.7732 20.545 16.6907 20.5562 16.6157 20.5787C16.4057 20.6087 16.2332 20.7287 16.0982 20.9387C15.9707 21.1412 15.907 21.385 15.907 21.67V24.8537C15.907 24.8912 15.892 24.925 15.862 24.955C15.8395 24.9775 15.8095 24.9887 15.772 24.9887H14.737C14.6995 24.9887 14.6657 24.9775 14.6357 24.955C14.6132 24.925 14.602 24.8912 14.602 24.8537V19.3862C14.602 19.3487 14.6132 19.3187 14.6357 19.2962C14.6657 19.2662 14.6995 19.2512 14.737 19.2512H15.772C15.8095 19.2512 15.8395 19.2662 15.862 19.2962C15.892 19.3187 15.907 19.3487 15.907 19.3862V19.9037C15.907 19.9337 15.9145 19.9525 15.9295 19.96C15.9445 19.96 15.9557 19.945 15.9632 19.915C16.1657 19.4275 16.4957 19.1837 16.9532 19.1837ZM20.5361 20.0387C20.5361 20.0762 20.5211 20.11 20.4911 20.14C20.4686 20.1625 20.4386 20.1737 20.4011 20.1737H19.7036C19.6661 20.1737 19.6473 20.1925 19.6473 20.23V23.1775C19.6473 23.44 19.6961 23.6237 19.7936 23.7287C19.8911 23.8262 20.0373 23.8712 20.2323 23.8637H20.3111C20.3486 23.8637 20.3786 23.8787 20.4011 23.9087C20.4311 23.9312 20.4461 23.9612 20.4461 23.9987V24.865C20.4461 24.9025 20.4311 24.9362 20.4011 24.9662C20.3786 24.9887 20.3486 25 20.3111 25H19.9286C19.4186 25 19.0323 24.9062 18.7698 24.7187C18.5148 24.5312 18.3873 24.1787 18.3873 23.6612V20.23C18.3873 20.1925 18.3686 20.1737 18.3311 20.1737H17.9373C17.8998 20.1737 17.8661 20.1625 17.8361 20.14C17.8136 20.11 17.8023 20.0762 17.8023 20.0387V19.3862C17.8023 19.3487 17.8136 19.3187 17.8361 19.2962C17.8661 19.2662 17.8998 19.2512 17.9373 19.2512H18.3311C18.3686 19.2512 18.3873 19.2325 18.3873 19.195V17.9575C18.3873 17.92 18.3986 17.89 18.4211 17.8675C18.4511 17.8375 18.4848 17.8225 18.5223 17.8225H19.5123C19.5498 17.8225 19.5798 17.8375 19.6023 17.8675C19.6323 17.89 19.6473 17.92 19.6473 17.9575V19.195C19.6473 19.2325 19.6661 19.2512 19.7036 19.2512H20.4011C20.4386 19.2512 20.4686 19.2662 20.4911 19.2962C20.5211 19.3187 20.5361 19.3487 20.5361 19.3862V20.0387ZM27.6846 17.125C27.7221 17.125 27.7521 17.14 27.7746 17.17C27.8046 17.1925 27.8196 17.2225 27.8196 17.26V18.115C27.8196 18.1525 27.8046 18.1862 27.7746 18.2162C27.7521 18.2387 27.7221 18.25 27.6846 18.25H26.2558C26.2183 18.25 26.1996 18.2687 26.1996 18.3062V24.865C26.1996 24.9025 26.1846 24.9362 26.1546 24.9662C26.1321 24.9887 26.1021 25 26.0646 25H25.0296C24.9921 25 24.9583 24.9887 24.9283 24.9662C24.9058 24.9362 24.8946 24.9025 24.8946 24.865V18.3062C24.8946 18.2687 24.8758 18.25 24.8383 18.25H23.4883C23.4508 18.25 23.4171 18.2387 23.3871 18.2162C23.3646 18.1862 23.3533 18.1525 23.3533 18.115V17.26C23.3533 17.2225 23.3646 17.1925 23.3871 17.17C23.4171 17.14 23.4508 17.125 23.4883 17.125H27.6846ZM29.3288 18.4637C29.0963 18.4637 28.905 18.3887 28.755 18.2387C28.605 18.0887 28.53 17.8975 28.53 17.665C28.53 17.4325 28.605 17.2412 28.755 17.0912C28.905 16.9412 29.0963 16.8662 29.3288 16.8662C29.5613 16.8662 29.7488 16.9412 29.8913 17.0912C30.0413 17.2412 30.1163 17.4325 30.1163 17.665C30.1163 17.8975 30.0413 18.0887 29.8913 18.2387C29.7413 18.3887 29.5538 18.4637 29.3288 18.4637ZM28.8225 25C28.785 25 28.7513 24.9887 28.7213 24.9662C28.6988 24.9362 28.6875 24.9025 28.6875 24.865V19.3862C28.6875 19.3487 28.6988 19.3187 28.7213 19.2962C28.7513 19.2662 28.785 19.2512 28.8225 19.2512H29.8575C29.895 19.2512 29.925 19.2662 29.9475 19.2962C29.9775 19.3187 29.9925 19.3487 29.9925 19.3862V24.865C29.9925 24.9025 29.9775 24.9362 29.9475 24.9662C29.925 24.9887 29.895 25 29.8575 25H28.8225ZM36.0657 19.1612C36.5532 19.1612 36.9207 19.3337 37.1682 19.6787C37.4232 20.0162 37.5507 20.4887 37.5507 21.0962V24.865C37.5507 24.9025 37.5357 24.9362 37.5057 24.9662C37.4832 24.9887 37.4532 25 37.4157 25H36.392C36.3545 25 36.3207 24.9887 36.2907 24.9662C36.2682 24.9362 36.257 24.9025 36.257 24.865V21.1862C36.257 20.9012 36.2007 20.68 36.0882 20.5225C35.9757 20.365 35.822 20.2862 35.627 20.2862C35.417 20.2862 35.252 20.365 35.132 20.5225C35.012 20.68 34.952 20.8975 34.952 21.175V24.865C34.952 24.9025 34.937 24.9362 34.907 24.9662C34.8845 24.9887 34.8545 25 34.817 25H33.7932C33.7557 25 33.722 24.9887 33.692 24.9662C33.6695 24.9362 33.6582 24.9025 33.6582 24.865V21.1862C33.6582 20.9012 33.5982 20.68 33.4782 20.5225C33.3657 20.365 33.2157 20.2862 33.0282 20.2862C32.8182 20.2862 32.6532 20.365 32.5332 20.5225C32.4132 20.68 32.3532 20.8975 32.3532 21.175V24.865C32.3532 24.9025 32.3382 24.9362 32.3082 24.9662C32.2857 24.9887 32.2557 25 32.2182 25H31.1945C31.157 25 31.1232 24.9887 31.0932 24.9662C31.0707 24.9362 31.0595 24.9025 31.0595 24.865V19.3862C31.0595 19.3487 31.0707 19.3187 31.0932 19.2962C31.1232 19.2662 31.157 19.2512 31.1945 19.2512H32.2182C32.2557 19.2512 32.2857 19.2662 32.3082 19.2962C32.3382 19.3187 32.3532 19.3487 32.3532 19.3862V19.5662C32.3532 19.5887 32.3607 19.6037 32.3757 19.6112C32.3907 19.6187 32.4057 19.6112 32.4207 19.5887C32.5707 19.4387 32.7395 19.33 32.927 19.2625C33.1145 19.195 33.2982 19.1612 33.4782 19.1612C34.0332 19.1612 34.442 19.3975 34.7045 19.87C34.727 19.9 34.7607 19.8887 34.8057 19.8362C34.9557 19.5962 35.1432 19.4237 35.3682 19.3188C35.6007 19.2137 35.8332 19.1612 36.0657 19.1612ZM42.4337 22.4687C42.4337 22.5062 42.4187 22.54 42.3887 22.57C42.3662 22.5925 42.3362 22.6037 42.2987 22.6037H39.8124C39.7749 22.6037 39.7562 22.6225 39.7562 22.66V23.1662C39.7562 23.3987 39.8199 23.59 39.9474 23.74C40.0749 23.89 40.2399 23.965 40.4424 23.965C40.6149 23.965 40.7612 23.9125 40.8812 23.8075C41.0087 23.695 41.0912 23.5525 41.1287 23.38C41.1512 23.305 41.1999 23.2675 41.2749 23.2675L42.2762 23.3125C42.3137 23.3125 42.3437 23.3275 42.3662 23.3575C42.3962 23.38 42.4074 23.4137 42.3999 23.4587C42.3474 23.9837 42.1562 24.3887 41.8262 24.6737C41.4962 24.9512 41.0349 25.09 40.4424 25.09C39.8274 25.09 39.3399 24.9288 38.9799 24.6062C38.6274 24.2762 38.4512 23.83 38.4512 23.2675V20.9837C38.4512 20.4362 38.6274 19.9975 38.9799 19.6675C39.3399 19.33 39.8274 19.1612 40.4424 19.1612C41.0574 19.1612 41.5412 19.33 41.8937 19.6675C42.2537 19.9975 42.4337 20.4362 42.4337 20.9837V22.4687ZM40.4424 20.2862C40.2399 20.2862 40.0749 20.3612 39.9474 20.5112C39.8199 20.6612 39.7562 20.8525 39.7562 21.085V21.5912C39.7562 21.6287 39.7749 21.6475 39.8124 21.6475H41.0837C41.1212 21.6475 41.1399 21.6287 41.1399 21.5912V21.085C41.1399 20.845 41.0762 20.6537 40.9487 20.5112C40.8212 20.3612 40.6524 20.2862 40.4424 20.2862ZM45.5834 25.9C45.5084 25.9 45.4709 25.8625 45.4709 25.7875V16.5625C45.4709 16.4875 45.5084 16.45 45.5834 16.45H46.1572C46.2322 16.45 46.2697 16.4875 46.2697 16.5625V25.7875C46.2697 25.8625 46.2322 25.9 46.1572 25.9H45.5834ZM50.8681 25C50.8006 25 50.7594 24.9662 50.7444 24.8987L49.2594 17.2487V17.2262C49.2594 17.1587 49.2931 17.125 49.3606 17.125H49.9569C50.0319 17.125 50.0731 17.1587 50.0806 17.2262L51.1381 23.1437C51.1456 23.1587 51.1531 23.1662 51.1606 23.1662C51.1681 23.1662 51.1756 23.1587 51.1831 23.1437L52.0944 17.2262C52.1094 17.1587 52.1469 17.125 52.2069 17.125H52.7244C52.7919 17.125 52.8294 17.1587 52.8369 17.2262L53.7931 23.1437C53.8006 23.1587 53.8081 23.1662 53.8156 23.1662C53.8231 23.1662 53.8306 23.1587 53.8381 23.1437L54.8056 17.2262C54.8206 17.1587 54.8581 17.125 54.9181 17.125H55.5144C55.5519 17.125 55.5781 17.1362 55.5931 17.1587C55.6156 17.1812 55.6231 17.2112 55.6156 17.2487L54.2206 24.8987C54.2131 24.9662 54.1719 25 54.0969 25H53.5456C53.4856 25 53.4481 24.9662 53.4331 24.8987L52.4881 18.9587C52.4806 18.9437 52.4694 18.9362 52.4544 18.9362C52.4469 18.9362 52.4431 18.9437 52.4431 18.9587L51.5206 24.8987C51.5131 24.9662 51.4756 25 51.4081 25H50.8681ZM57.8774 25C57.8099 25 57.7686 24.9662 57.7536 24.8987L56.2686 17.2487V17.2262C56.2686 17.1587 56.3024 17.125 56.3699 17.125H56.9661C57.0411 17.125 57.0824 17.1587 57.0899 17.2262L58.1474 23.1437C58.1549 23.1587 58.1624 23.1662 58.1699 23.1662C58.1774 23.1662 58.1849 23.1587 58.1924 23.1437L59.1036 17.2262C59.1186 17.1587 59.1561 17.125 59.2161 17.125H59.7336C59.8011 17.125 59.8386 17.1587 59.8461 17.2262L60.8024 23.1437C60.8099 23.1587 60.8174 23.1662 60.8249 23.1662C60.8324 23.1662 60.8399 23.1587 60.8474 23.1437L61.8149 17.2262C61.8299 17.1587 61.8674 17.125 61.9274 17.125H62.5236C62.5611 17.125 62.5874 17.1362 62.6024 17.1587C62.6249 17.1812 62.6324 17.2112 62.6249 17.2487L61.2299 24.8987C61.2224 24.9662 61.1811 25 61.1061 25H60.5549C60.4949 25 60.4574 24.9662 60.4424 24.8987L59.4974 18.9587C59.4899 18.9437 59.4786 18.9362 59.4636 18.9362C59.4561 18.9362 59.4524 18.9437 59.4524 18.9587L58.5299 24.8987C58.5224 24.9662 58.4849 25 58.4174 25H57.8774ZM67.3054 17.71C67.3054 17.785 67.2679 17.8225 67.1929 17.8225H64.6054C64.5754 17.8225 64.5604 17.8375 64.5604 17.8675V20.6575C64.5604 20.6875 64.5754 20.7025 64.6054 20.7025H66.2367C66.3117 20.7025 66.3492 20.74 66.3492 20.815V21.2987C66.3492 21.3737 66.3117 21.4112 66.2367 21.4112H64.6054C64.5754 21.4112 64.5604 21.4262 64.5604 21.4562V24.8875C64.5604 24.9625 64.5229 25 64.4479 25H63.8742C63.7992 25 63.7617 24.9625 63.7617 24.8875V17.2375C63.7617 17.1625 63.7992 17.125 63.8742 17.125H67.1929C67.2679 17.125 67.3054 17.1625 67.3054 17.2375V17.71ZM67.6759 21.85C67.6009 21.85 67.5634 21.8125 67.5634 21.7375V21.265C67.5634 21.19 67.6009 21.1525 67.6759 21.1525H70.2521C70.3271 21.1525 70.3646 21.19 70.3646 21.265V21.7375C70.3646 21.8125 70.3271 21.85 70.2521 21.85H67.6759ZM74.9937 17.125C75.0687 17.125 75.1062 17.1625 75.1062 17.2375V17.71C75.1062 17.785 75.0687 17.8225 74.9937 17.8225H73.5087C73.4787 17.8225 73.4637 17.8375 73.4637 17.8675V24.8875C73.4637 24.9625 73.4262 25 73.3512 25H72.7775C72.7025 25 72.665 24.9625 72.665 24.8875V17.8675C72.665 17.8375 72.65 17.8225 72.62 17.8225H71.225C71.15 17.8225 71.1125 17.785 71.1125 17.71V17.2375C71.1125 17.1625 71.15 17.125 71.225 17.125H74.9937ZM78.1983 19.2287C78.6558 19.2287 79.0083 19.3862 79.2558 19.7012C79.5108 20.0162 79.6383 20.455 79.6383 21.0175V24.8875C79.6383 24.9625 79.6008 25 79.5258 25H78.9521C78.8771 25 78.8396 24.9625 78.8396 24.8875V21.085C78.8396 20.7175 78.7571 20.4325 78.5921 20.23C78.4346 20.0275 78.2133 19.9262 77.9283 19.9262C77.6283 19.9262 77.3921 20.035 77.2196 20.2525C77.0546 20.47 76.9721 20.7662 76.9721 21.1412V24.8875C76.9721 24.9625 76.9346 25 76.8596 25H76.2858C76.2108 25 76.1733 24.9625 76.1733 24.8875V17.2375C76.1733 17.1625 76.2108 17.125 76.2858 17.125H76.8596C76.9346 17.125 76.9721 17.1625 76.9721 17.2375V19.78C76.9721 19.795 76.9796 19.8062 76.9946 19.8137C77.0096 19.8212 77.0208 19.8137 77.0283 19.7912C77.1633 19.6037 77.3321 19.465 77.5346 19.375C77.7446 19.2775 77.9658 19.2287 78.1983 19.2287ZM82.6064 19.2175C83.1314 19.2175 83.5514 19.39 83.8664 19.735C84.1814 20.0725 84.3389 20.5262 84.3389 21.0962V24.8875C84.3389 24.9625 84.3014 25 84.2264 25H83.6526C83.5776 25 83.5401 24.9625 83.5401 24.8875V24.55C83.5401 24.535 83.5326 24.5275 83.5176 24.5275C83.5101 24.52 83.4989 24.5237 83.4839 24.5387C83.2064 24.9062 82.7901 25.09 82.2351 25.09C81.8226 25.09 81.4626 24.9737 81.1551 24.7412C80.8551 24.5012 80.7051 24.0812 80.7051 23.4812C80.7051 22.8437 80.8889 22.3787 81.2564 22.0862C81.6239 21.7862 82.1076 21.6362 82.7076 21.6362H83.4951C83.5251 21.6362 83.5401 21.6212 83.5401 21.5912V21.1525C83.5401 20.7775 83.4539 20.4775 83.2814 20.2525C83.1089 20.0275 82.8764 19.915 82.5839 19.915C82.3589 19.915 82.1639 19.99 81.9989 20.14C81.8414 20.29 81.7476 20.4812 81.7176 20.7137C81.7176 20.7887 81.6801 20.8262 81.6051 20.8262L80.9751 20.815C80.9376 20.815 80.9076 20.8037 80.8851 20.7812C80.8701 20.7587 80.8664 20.7325 80.8739 20.7025C80.9114 20.26 81.0914 19.9037 81.4139 19.6337C81.7364 19.3562 82.1339 19.2175 82.6064 19.2175ZM82.4039 24.3925C82.7114 24.3925 82.9776 24.295 83.2026 24.1C83.4276 23.8975 83.5401 23.62 83.5401 23.2675V22.3225C83.5401 22.2925 83.5251 22.2775 83.4951 22.2775H82.6964C82.3364 22.2775 82.0514 22.375 81.8414 22.57C81.6314 22.7575 81.5264 23.0387 81.5264 23.4137C81.5264 23.7437 81.6051 23.9912 81.7626 24.1562C81.9276 24.3137 82.1414 24.3925 82.4039 24.3925ZM86.0723 18.2725C85.8848 18.2725 85.7311 18.2125 85.6111 18.0925C85.4986 17.9725 85.4423 17.8225 85.4423 17.6425C85.4423 17.455 85.4986 17.305 85.6111 17.1925C85.7311 17.0725 85.8848 17.0125 86.0723 17.0125C86.2523 17.0125 86.3986 17.0725 86.5111 17.1925C86.6311 17.305 86.6911 17.455 86.6911 17.6425C86.6911 17.8225 86.6311 17.9725 86.5111 18.0925C86.3986 18.2125 86.2523 18.2725 86.0723 18.2725ZM85.7911 25C85.7161 25 85.6786 24.9625 85.6786 24.8875V19.42C85.6786 19.345 85.7161 19.3075 85.7911 19.3075H86.3648C86.4398 19.3075 86.4773 19.345 86.4773 19.42V24.8875C86.4773 24.9625 86.4398 25 86.3648 25H85.7911ZM87.9737 25C87.8987 25 87.8612 24.9625 87.8612 24.8875V17.2375C87.8612 17.1625 87.8987 17.125 87.9737 17.125H88.5474C88.6224 17.125 88.6599 17.1625 88.6599 17.2375V24.8875C88.6599 24.9625 88.6224 25 88.5474 25H87.9737ZM91.6262 19.2175C92.1512 19.2175 92.5712 19.39 92.8862 19.735C93.2012 20.0725 93.3587 20.5262 93.3587 21.0962V24.8875C93.3587 24.9625 93.3212 25 93.2462 25H92.6724C92.5974 25 92.5599 24.9625 92.5599 24.8875V24.55C92.5599 24.535 92.5524 24.5275 92.5374 24.5275C92.5299 24.52 92.5187 24.5237 92.5037 24.5387C92.2262 24.9062 91.8099 25.09 91.2549 25.09C90.8424 25.09 90.4824 24.9737 90.1749 24.7412C89.8749 24.5012 89.7249 24.0812 89.7249 23.4812C89.7249 22.8437 89.9087 22.3787 90.2762 22.0862C90.6437 21.7862 91.1274 21.6362 91.7274 21.6362H92.5149C92.5449 21.6362 92.5599 21.6212 92.5599 21.5912V21.1525C92.5599 20.7775 92.4737 20.4775 92.3012 20.2525C92.1287 20.0275 91.8962 19.915 91.6037 19.915C91.3787 19.915 91.1837 19.99 91.0187 20.14C90.8612 20.29 90.7674 20.4812 90.7374 20.7137C90.7374 20.7887 90.6999 20.8262 90.6249 20.8262L89.9949 20.815C89.9574 20.815 89.9274 20.8037 89.9049 20.7812C89.8899 20.7587 89.8862 20.7325 89.8937 20.7025C89.9312 20.26 90.1112 19.9037 90.4337 19.6337C90.7562 19.3562 91.1537 19.2175 91.6262 19.2175ZM91.4237 24.3925C91.7312 24.3925 91.9974 24.295 92.2224 24.1C92.4474 23.8975 92.5599 23.62 92.5599 23.2675V22.3225C92.5599 22.2925 92.5449 22.2775 92.5149 22.2775H91.7162C91.3562 22.2775 91.0712 22.375 90.8612 22.57C90.6512 22.7575 90.5462 23.0387 90.5462 23.4137C90.5462 23.7437 90.6249 23.9912 90.7824 24.1562C90.9474 24.3137 91.1612 24.3925 91.4237 24.3925ZM96.6334 19.2287C97.0909 19.2287 97.4434 19.3862 97.6909 19.7012C97.9459 20.0162 98.0734 20.455 98.0734 21.0175V24.8875C98.0734 24.9625 98.0359 25 97.9609 25H97.3871C97.3121 25 97.2746 24.9625 97.2746 24.8875V21.085C97.2746 20.7175 97.1921 20.4325 97.0271 20.23C96.8696 20.0275 96.6484 19.9262 96.3634 19.9262C96.0634 19.9262 95.8271 20.035 95.6546 20.2525C95.4896 20.47 95.4071 20.7662 95.4071 21.1412V24.8875C95.4071 24.9625 95.3696 25 95.2946 25H94.7209C94.6459 25 94.6084 24.9625 94.6084 24.8875V19.42C94.6084 19.345 94.6459 19.3075 94.7209 19.3075H95.2946C95.3696 19.3075 95.4071 19.345 95.4071 19.42V19.78C95.4071 19.795 95.4146 19.8062 95.4296 19.8137C95.4446 19.8212 95.4559 19.8137 95.4634 19.7912C95.5984 19.6037 95.7671 19.465 95.9696 19.375C96.1796 19.2775 96.4009 19.2287 96.6334 19.2287ZM101.964 17.2375C101.964 17.1625 102.001 17.125 102.076 17.125H102.65C102.725 17.125 102.763 17.1625 102.763 17.2375V24.8875C102.763 24.9625 102.725 25 102.65 25H102.076C102.001 25 101.964 24.9625 101.964 24.8875V24.64C101.964 24.625 101.956 24.6137 101.941 24.6062C101.934 24.5987 101.923 24.6025 101.908 24.6175C101.623 24.9325 101.263 25.09 100.828 25.09C100.348 25.09 99.9652 24.9325 99.6802 24.6175C99.3952 24.295 99.2527 23.8787 99.2527 23.3687V20.9387C99.2527 20.4137 99.3952 19.9975 99.6802 19.69C99.9652 19.375 100.348 19.2175 100.828 19.2175C101.27 19.2175 101.63 19.3787 101.908 19.7012C101.923 19.7162 101.934 19.72 101.941 19.7125C101.956 19.705 101.964 19.6937 101.964 19.6787V17.2375ZM101.019 24.3925C101.296 24.3925 101.521 24.295 101.694 24.1C101.874 23.8975 101.964 23.6387 101.964 23.3237V20.995C101.964 20.6725 101.874 20.4137 101.694 20.2187C101.521 20.0162 101.296 19.915 101.019 19.915C100.734 19.915 100.498 20.0162 100.31 20.2187C100.13 20.4137 100.04 20.6725 100.04 20.995V23.3237C100.04 23.6387 100.13 23.8975 100.31 24.1C100.498 24.295 100.734 24.3925 101.019 24.3925ZM106.082 25C106.044 25 106.014 24.9887 105.992 24.9662C105.977 24.9437 105.973 24.9137 105.981 24.8762L108.017 17.2262C108.032 17.1587 108.073 17.125 108.141 17.125H108.703C108.741 17.125 108.767 17.1362 108.782 17.1587C108.804 17.1812 108.812 17.2112 108.804 17.2487L106.768 24.8987C106.753 24.9662 106.712 25 106.644 25H106.082ZM115.973 17.125C116.048 17.125 116.085 17.1625 116.085 17.2375V17.71C116.085 17.785 116.048 17.8225 115.973 17.8225H114.488C114.458 17.8225 114.443 17.8375 114.443 17.8675V24.8875C114.443 24.9625 114.405 25 114.33 25H113.756C113.681 25 113.644 24.9625 113.644 24.8875V17.8675C113.644 17.8375 113.629 17.8225 113.599 17.8225H112.204C112.129 17.8225 112.091 17.785 112.091 17.71V17.2375C112.091 17.1625 112.129 17.125 112.204 17.125H115.973ZM119.968 22.345C119.968 22.42 119.93 22.4575 119.855 22.4575H117.29C117.26 22.4575 117.245 22.4725 117.245 22.5025V23.3237C117.245 23.6387 117.331 23.8975 117.504 24.1C117.684 24.295 117.916 24.3925 118.201 24.3925C118.441 24.3925 118.644 24.3212 118.809 24.1787C118.981 24.0287 119.094 23.8375 119.146 23.605C119.169 23.5375 119.21 23.5037 119.27 23.5037L119.833 23.5262C119.863 23.5262 119.889 23.5375 119.911 23.56C119.934 23.5825 119.941 23.6125 119.934 23.65C119.874 24.0925 119.69 24.445 119.383 24.7075C119.083 24.9625 118.689 25.09 118.201 25.09C117.669 25.09 117.241 24.9325 116.919 24.6175C116.604 24.3025 116.446 23.8862 116.446 23.3687V20.9387C116.446 20.4287 116.604 20.0162 116.919 19.7012C117.241 19.3787 117.669 19.2175 118.201 19.2175C118.741 19.2175 119.169 19.3787 119.484 19.7012C119.806 20.0162 119.968 20.4287 119.968 20.9387V22.345ZM118.201 19.915C117.916 19.915 117.684 20.0162 117.504 20.2187C117.331 20.4137 117.245 20.6725 117.245 20.995V21.7487C117.245 21.7787 117.26 21.7937 117.29 21.7937H119.135C119.165 21.7937 119.18 21.7787 119.18 21.7487V20.995C119.18 20.6725 119.09 20.4137 118.91 20.2187C118.73 20.0162 118.494 19.915 118.201 19.915ZM123.739 17.2375C123.739 17.1625 123.776 17.125 123.851 17.125H124.425C124.5 17.125 124.538 17.1625 124.538 17.2375V24.8875C124.538 24.9625 124.5 25 124.425 25H123.851C123.776 25 123.739 24.9625 123.739 24.8875V24.64C123.739 24.625 123.731 24.6137 123.716 24.6062C123.709 24.5987 123.698 24.6025 123.683 24.6175C123.398 24.9325 123.038 25.09 122.603 25.09C122.123 25.09 121.74 24.9325 121.455 24.6175C121.17 24.295 121.028 23.8787 121.028 23.3687V20.9387C121.028 20.4137 121.17 19.9975 121.455 19.69C121.74 19.375 122.123 19.2175 122.603 19.2175C123.045 19.2175 123.405 19.3787 123.683 19.7012C123.698 19.7162 123.709 19.72 123.716 19.7125C123.731 19.705 123.739 19.6937 123.739 19.6787V17.2375ZM122.794 24.3925C123.071 24.3925 123.296 24.295 123.469 24.1C123.649 23.8975 123.739 23.6387 123.739 23.3237V20.995C123.739 20.6725 123.649 20.4137 123.469 20.2187C123.296 20.0162 123.071 19.915 122.794 19.915C122.509 19.915 122.273 20.0162 122.085 20.2187C121.905 20.4137 121.815 20.6725 121.815 20.995V23.3237C121.815 23.6387 121.905 23.8975 122.085 24.1C122.273 24.295 122.509 24.3925 122.794 24.3925ZM128.496 17.2375C128.496 17.1625 128.533 17.125 128.608 17.125H129.182C129.257 17.125 129.295 17.1625 129.295 17.2375V24.8875C129.295 24.9625 129.257 25 129.182 25H128.608C128.533 25 128.496 24.9625 128.496 24.8875V24.64C128.496 24.625 128.488 24.6137 128.473 24.6062C128.466 24.5987 128.455 24.6025 128.44 24.6175C128.155 24.9325 127.795 25.09 127.36 25.09C126.88 25.09 126.497 24.9325 126.212 24.6175C125.927 24.295 125.785 23.8787 125.785 23.3687V20.9387C125.785 20.4137 125.927 19.9975 126.212 19.69C126.497 19.375 126.88 19.2175 127.36 19.2175C127.802 19.2175 128.162 19.3787 128.44 19.7012C128.455 19.7162 128.466 19.72 128.473 19.7125C128.488 19.705 128.496 19.6937 128.496 19.6787V17.2375ZM127.551 24.3925C127.828 24.3925 128.053 24.295 128.226 24.1C128.406 23.8975 128.496 23.6387 128.496 23.3237V20.995C128.496 20.6725 128.406 20.4137 128.226 20.2187C128.053 20.0162 127.828 19.915 127.551 19.915C127.266 19.915 127.03 20.0162 126.842 20.2187C126.662 20.4137 126.572 20.6725 126.572 20.995V23.3237C126.572 23.6387 126.662 23.8975 126.842 24.1C127.03 24.295 127.266 24.3925 127.551 24.3925ZM130.474 27.25C130.459 27.25 130.444 27.2388 130.429 27.2163C130.414 27.1938 130.407 27.1675 130.407 27.1375V26.6875C130.407 26.6125 130.444 26.575 130.519 26.575C130.752 26.5675 130.932 26.5225 131.059 26.44C131.194 26.3575 131.303 26.2113 131.385 26.0013C131.468 25.7913 131.55 25.4688 131.633 25.0338C131.64 25.0188 131.64 25.0075 131.633 25C131.633 24.985 131.633 24.9737 131.633 24.9662L130.204 19.4312L130.193 19.3975C130.193 19.3375 130.23 19.3075 130.305 19.3075H130.913C130.988 19.3075 131.029 19.3412 131.037 19.4087L132.027 23.83C132.034 23.8525 132.042 23.8637 132.049 23.8637C132.057 23.8637 132.064 23.8525 132.072 23.83L133.05 19.4087C133.065 19.3412 133.107 19.3075 133.174 19.3075L133.804 19.3188C133.842 19.3188 133.868 19.33 133.883 19.3525C133.905 19.375 133.909 19.405 133.894 19.4425L132.33 25.495C132.195 25.9975 132.06 26.3688 131.925 26.6088C131.798 26.8488 131.629 27.0138 131.419 27.1038C131.209 27.2013 130.913 27.25 130.53 27.25H130.474ZM135.754 17.125C135.837 17.125 135.867 17.1662 135.844 17.2487L135.181 19.3412C135.158 19.4012 135.113 19.4312 135.046 19.4312H134.629C134.547 19.4312 134.517 19.39 134.539 19.3075L135.046 17.2262C135.061 17.1587 135.102 17.125 135.169 17.125H135.754ZM137.292 25.0563C136.775 25.0563 136.358 24.925 136.043 24.6625C135.736 24.3925 135.582 24.0363 135.582 23.5938V23.515C135.582 23.44 135.62 23.4025 135.695 23.4025H136.235C136.31 23.4025 136.347 23.44 136.347 23.515V23.5825C136.347 23.8225 136.433 24.025 136.606 24.19C136.786 24.355 137.018 24.4375 137.303 24.4375C137.573 24.4375 137.791 24.355 137.956 24.19C138.121 24.025 138.203 23.815 138.203 23.56C138.203 23.365 138.151 23.2037 138.046 23.0762C137.941 22.9412 137.817 22.8362 137.675 22.7612C137.54 22.6862 137.333 22.5887 137.056 22.4687C136.763 22.3487 136.52 22.2325 136.325 22.12C136.137 22 135.972 21.835 135.83 21.625C135.695 21.4075 135.627 21.1337 135.627 20.8037C135.627 20.3237 135.773 19.945 136.066 19.6675C136.366 19.39 136.767 19.2512 137.27 19.2512C137.78 19.2512 138.185 19.3937 138.485 19.6787C138.785 19.9637 138.935 20.3425 138.935 20.815V20.8487C138.935 20.9237 138.897 20.9612 138.822 20.9612H138.305C138.23 20.9612 138.192 20.9237 138.192 20.8487V20.7812C138.192 20.5262 138.106 20.3162 137.933 20.1512C137.768 19.9862 137.551 19.9037 137.281 19.9037C137.011 19.9037 136.793 19.99 136.628 20.1625C136.471 20.3275 136.392 20.5337 136.392 20.7812C136.392 20.9612 136.441 21.115 136.538 21.2425C136.636 21.3625 136.756 21.4637 136.898 21.5462C137.041 21.6212 137.24 21.715 137.495 21.8275C137.802 21.9625 138.053 22.09 138.248 22.21C138.451 22.33 138.627 22.4987 138.777 22.7162C138.927 22.9337 139.002 23.2037 139.002 23.5262C139.002 23.9912 138.848 24.3625 138.541 24.64C138.233 24.9175 137.817 25.0563 137.292 25.0563ZM144.202 19.2175C144.675 19.2175 145.053 19.375 145.338 19.69C145.631 19.9975 145.777 20.4137 145.777 20.9387V23.3687C145.777 23.8787 145.635 24.295 145.35 24.6175C145.065 24.9325 144.682 25.09 144.202 25.09C144 25.09 143.805 25.0525 143.617 24.9775C143.43 24.895 143.265 24.775 143.122 24.6175C143.107 24.6025 143.092 24.5987 143.077 24.6062C143.07 24.6137 143.066 24.625 143.066 24.64V24.8875C143.066 24.9625 143.028 25 142.953 25H142.38C142.305 25 142.267 24.9625 142.267 24.8875V17.2375C142.267 17.1625 142.305 17.125 142.38 17.125H142.953C143.028 17.125 143.066 17.1625 143.066 17.2375V19.6675C143.066 19.6825 143.073 19.6937 143.088 19.7012C143.103 19.7087 143.118 19.7012 143.133 19.6787C143.268 19.5287 143.43 19.4162 143.617 19.3412C143.805 19.2587 144 19.2175 144.202 19.2175ZM144.978 20.995C144.978 20.6725 144.888 20.4137 144.708 20.2187C144.528 20.0162 144.292 19.915 144 19.915C143.722 19.915 143.497 20.0162 143.325 20.2187C143.152 20.4137 143.066 20.6725 143.066 20.995V23.3237C143.066 23.6387 143.152 23.8975 143.325 24.1C143.497 24.295 143.722 24.3925 144 24.3925C144.292 24.3925 144.528 24.295 144.708 24.1C144.888 23.8975 144.978 23.6387 144.978 23.3237V20.995ZM147.508 18.2725C147.32 18.2725 147.167 18.2125 147.047 18.0925C146.934 17.9725 146.878 17.8225 146.878 17.6425C146.878 17.455 146.934 17.305 147.047 17.1925C147.167 17.0725 147.32 17.0125 147.508 17.0125C147.688 17.0125 147.834 17.0725 147.947 17.1925C148.067 17.305 148.127 17.455 148.127 17.6425C148.127 17.8225 148.067 17.9725 147.947 18.0925C147.834 18.2125 147.688 18.2725 147.508 18.2725ZM147.227 25C147.152 25 147.114 24.9625 147.114 24.8875V19.42C147.114 19.345 147.152 19.3075 147.227 19.3075H147.8C147.875 19.3075 147.913 19.345 147.913 19.42V24.8875C147.913 24.9625 147.875 25 147.8 25H147.227ZM151.952 19.42C151.952 19.345 151.989 19.3075 152.064 19.3075H152.638C152.713 19.3075 152.75 19.345 152.75 19.42V24.8875C152.75 25.69 152.563 26.2975 152.188 26.71C151.82 27.13 151.202 27.3213 150.332 27.2838C150.257 27.2763 150.219 27.235 150.219 27.16V26.6763C150.219 26.6013 150.257 26.5638 150.332 26.5638C150.932 26.5788 151.352 26.44 151.592 26.1475C151.832 25.8625 151.952 25.42 151.952 24.82V24.4825C151.952 24.4675 151.944 24.4562 151.929 24.4487C151.922 24.4412 151.91 24.445 151.895 24.46C151.768 24.6475 151.603 24.79 151.4 24.8875C151.205 24.985 150.995 25.0338 150.77 25.0338C150.298 25.0338 149.923 24.8762 149.645 24.5612C149.375 24.2462 149.24 23.83 149.24 23.3125V20.9387C149.24 20.4137 149.375 19.9975 149.645 19.69C149.923 19.375 150.298 19.2175 150.77 19.2175C150.995 19.2175 151.205 19.2662 151.4 19.3637C151.603 19.4537 151.768 19.5925 151.895 19.78C151.91 19.8025 151.922 19.8137 151.929 19.8137C151.944 19.8062 151.952 19.7912 151.952 19.7687V19.42ZM151.007 24.3362C151.284 24.3362 151.509 24.2387 151.682 24.0437C151.862 23.8412 151.952 23.5825 151.952 23.2675V20.995C151.952 20.6725 151.862 20.4137 151.682 20.2187C151.509 20.0162 151.284 19.915 151.007 19.915C150.722 19.915 150.489 20.0162 150.309 20.2187C150.129 20.4137 150.039 20.6725 150.039 20.995V23.2675C150.039 23.5825 150.129 23.8412 150.309 24.0437C150.489 24.2387 150.722 24.3362 151.007 24.3362ZM156.599 19.42C156.599 19.345 156.636 19.3075 156.711 19.3075H157.285C157.36 19.3075 157.398 19.345 157.398 19.42V24.8875C157.398 25.69 157.21 26.2975 156.835 26.71C156.468 27.13 155.849 27.3213 154.979 27.2838C154.904 27.2763 154.866 27.235 154.866 27.16V26.6763C154.866 26.6013 154.904 26.5638 154.979 26.5638C155.579 26.5788 155.999 26.44 156.239 26.1475C156.479 25.8625 156.599 25.42 156.599 24.82V24.4825C156.599 24.4675 156.591 24.4562 156.576 24.4487C156.569 24.4412 156.558 24.445 156.543 24.46C156.415 24.6475 156.25 24.79 156.048 24.8875C155.853 24.985 155.643 25.0338 155.418 25.0338C154.945 25.0338 154.57 24.8762 154.293 24.5612C154.023 24.2462 153.888 23.83 153.888 23.3125V20.9387C153.888 20.4137 154.023 19.9975 154.293 19.69C154.57 19.375 154.945 19.2175 155.418 19.2175C155.643 19.2175 155.853 19.2662 156.048 19.3637C156.25 19.4537 156.415 19.5925 156.543 19.78C156.558 19.8025 156.569 19.8137 156.576 19.8137C156.591 19.8062 156.599 19.7912 156.599 19.7687V19.42ZM155.654 24.3362C155.931 24.3362 156.156 24.2387 156.329 24.0437C156.509 23.8412 156.599 23.5825 156.599 23.2675V20.995C156.599 20.6725 156.509 20.4137 156.329 20.2187C156.156 20.0162 155.931 19.915 155.654 19.915C155.369 19.915 155.136 20.0162 154.956 20.2187C154.776 20.4137 154.686 20.6725 154.686 20.995V23.2675C154.686 23.5825 154.776 23.8412 154.956 24.0437C155.136 24.2387 155.369 24.3362 155.654 24.3362ZM162.056 22.345C162.056 22.42 162.019 22.4575 161.944 22.4575H159.379C159.349 22.4575 159.334 22.4725 159.334 22.5025V23.3237C159.334 23.6387 159.42 23.8975 159.592 24.1C159.772 24.295 160.005 24.3925 160.29 24.3925C160.53 24.3925 160.732 24.3212 160.897 24.1787C161.07 24.0287 161.182 23.8375 161.235 23.605C161.257 23.5375 161.299 23.5037 161.359 23.5037L161.921 23.5262C161.951 23.5262 161.977 23.5375 162 23.56C162.022 23.5825 162.03 23.6125 162.022 23.65C161.962 24.0925 161.779 24.445 161.471 24.7075C161.171 24.9625 160.777 25.09 160.29 25.09C159.757 25.09 159.33 24.9325 159.007 24.6175C158.692 24.3025 158.535 23.8862 158.535 23.3687V20.9387C158.535 20.4287 158.692 20.0162 159.007 19.7012C159.33 19.3787 159.757 19.2175 160.29 19.2175C160.83 19.2175 161.257 19.3787 161.572 19.7012C161.895 20.0162 162.056 20.4287 162.056 20.9387V22.345ZM160.29 19.915C160.005 19.915 159.772 20.0162 159.592 20.2187C159.42 20.4137 159.334 20.6725 159.334 20.995V21.7487C159.334 21.7787 159.349 21.7937 159.379 21.7937H161.224C161.254 21.7937 161.269 21.7787 161.269 21.7487V20.995C161.269 20.6725 161.179 20.4137 160.999 20.2187C160.819 20.0162 160.582 19.915 160.29 19.915ZM165.164 19.2512C165.351 19.2512 165.512 19.2925 165.647 19.375C165.7 19.405 165.719 19.4537 165.704 19.5212L165.569 20.1062C165.561 20.1737 165.516 20.1962 165.434 20.1737C165.344 20.1287 165.231 20.1062 165.096 20.1062C165.036 20.1062 164.991 20.11 164.961 20.1175C164.691 20.1325 164.47 20.275 164.297 20.545C164.125 20.8075 164.039 21.13 164.039 21.5125V24.8875C164.039 24.9625 164.001 25 163.926 25H163.352C163.277 25 163.24 24.9625 163.24 24.8875V19.42C163.24 19.345 163.277 19.3075 163.352 19.3075H163.926C164.001 19.3075 164.039 19.345 164.039 19.42V20.095C164.039 20.1175 164.042 20.1287 164.05 20.1287C164.065 20.1287 164.08 20.1212 164.095 20.1062C164.312 19.5362 164.669 19.2512 165.164 19.2512ZM170.712 19.2175C171.185 19.2175 171.563 19.375 171.848 19.69C172.141 19.9975 172.287 20.4137 172.287 20.9387V23.3687C172.287 23.8787 172.145 24.295 171.86 24.6175C171.575 24.9325 171.192 25.09 170.712 25.09C170.51 25.09 170.315 25.0525 170.127 24.9775C169.94 24.895 169.775 24.775 169.632 24.6175C169.617 24.6025 169.602 24.5987 169.587 24.6062C169.58 24.6137 169.576 24.625 169.576 24.64V24.8875C169.576 24.9625 169.538 25 169.463 25H168.89C168.815 25 168.777 24.9625 168.777 24.8875V17.2375C168.777 17.1625 168.815 17.125 168.89 17.125H169.463C169.538 17.125 169.576 17.1625 169.576 17.2375V19.6675C169.576 19.6825 169.583 19.6937 169.598 19.7012C169.613 19.7087 169.628 19.7012 169.643 19.6787C169.778 19.5287 169.94 19.4162 170.127 19.3412C170.315 19.2587 170.51 19.2175 170.712 19.2175ZM171.488 20.995C171.488 20.6725 171.398 20.4137 171.218 20.2187C171.038 20.0162 170.802 19.915 170.51 19.915C170.232 19.915 170.007 20.0162 169.835 20.2187C169.662 20.4137 169.576 20.6725 169.576 20.995V23.3237C169.576 23.6387 169.662 23.8975 169.835 24.1C170.007 24.295 170.232 24.3925 170.51 24.3925C170.802 24.3925 171.038 24.295 171.218 24.1C171.398 23.8975 171.488 23.6387 171.488 23.3237V20.995ZM176.133 19.42C176.133 19.345 176.17 19.3075 176.245 19.3075H176.819C176.894 19.3075 176.932 19.345 176.932 19.42V24.8875C176.932 24.9625 176.894 25 176.819 25H176.245C176.17 25 176.133 24.9625 176.133 24.8875V24.505C176.133 24.4825 176.125 24.4712 176.11 24.4712C176.103 24.4712 176.092 24.4787 176.077 24.4937C175.844 24.8837 175.469 25.0788 174.952 25.0788C174.502 25.0788 174.142 24.9437 173.872 24.6737C173.609 24.3962 173.478 23.98 173.478 23.425V19.42C173.478 19.345 173.515 19.3075 173.59 19.3075H174.164C174.239 19.3075 174.277 19.345 174.277 19.42V23.245C174.277 23.62 174.352 23.905 174.502 24.1C174.659 24.2875 174.884 24.3812 175.177 24.3812C175.477 24.3812 175.709 24.2725 175.874 24.055C176.047 23.8375 176.133 23.5412 176.133 23.1662V19.42ZM180.226 19.2512C180.413 19.2512 180.575 19.2925 180.71 19.375C180.762 19.405 180.781 19.4537 180.766 19.5212L180.631 20.1062C180.623 20.1737 180.578 20.1962 180.496 20.1737C180.406 20.1287 180.293 20.1062 180.158 20.1062C180.098 20.1062 180.053 20.11 180.023 20.1175C179.753 20.1325 179.532 20.275 179.36 20.545C179.187 20.8075 179.101 21.13 179.101 21.5125V24.8875C179.101 24.9625 179.063 25 178.988 25H178.415C178.34 25 178.302 24.9625 178.302 24.8875V19.42C178.302 19.345 178.34 19.3075 178.415 19.3075H178.988C179.063 19.3075 179.101 19.345 179.101 19.42V20.095C179.101 20.1175 179.105 20.1287 179.112 20.1287C179.127 20.1287 179.142 20.1212 179.157 20.1062C179.375 19.5362 179.731 19.2512 180.226 19.2512ZM184.12 19.42C184.12 19.345 184.157 19.3075 184.232 19.3075H184.806C184.881 19.3075 184.918 19.345 184.918 19.42V24.8875C184.918 25.69 184.731 26.2975 184.356 26.71C183.988 27.13 183.37 27.3213 182.5 27.2838C182.425 27.2763 182.387 27.235 182.387 27.16V26.6763C182.387 26.6013 182.425 26.5638 182.5 26.5638C183.1 26.5788 183.52 26.44 183.76 26.1475C184 25.8625 184.12 25.42 184.12 24.82V24.4825C184.12 24.4675 184.112 24.4562 184.097 24.4487C184.09 24.4412 184.078 24.445 184.063 24.46C183.936 24.6475 183.771 24.79 183.568 24.8875C183.373 24.985 183.163 25.0338 182.938 25.0338C182.466 25.0338 182.091 24.8762 181.813 24.5612C181.543 24.2462 181.408 23.83 181.408 23.3125V20.9387C181.408 20.4137 181.543 19.9975 181.813 19.69C182.091 19.375 182.466 19.2175 182.938 19.2175C183.163 19.2175 183.373 19.2662 183.568 19.3637C183.771 19.4537 183.936 19.5925 184.063 19.78C184.078 19.8025 184.09 19.8137 184.097 19.8137C184.112 19.8062 184.12 19.7912 184.12 19.7687V19.42ZM183.175 24.3362C183.452 24.3362 183.677 24.2387 183.85 24.0437C184.03 23.8412 184.12 23.5825 184.12 23.2675V20.995C184.12 20.6725 184.03 20.4137 183.85 20.2187C183.677 20.0162 183.452 19.915 183.175 19.915C182.89 19.915 182.657 20.0162 182.477 20.2187C182.297 20.4137 182.207 20.6725 182.207 20.995V23.2675C182.207 23.5825 182.297 23.8412 182.477 24.0437C182.657 24.2387 182.89 24.3362 183.175 24.3362ZM189.577 22.345C189.577 22.42 189.539 22.4575 189.464 22.4575H186.899C186.869 22.4575 186.854 22.4725 186.854 22.5025V23.3237C186.854 23.6387 186.941 23.8975 187.113 24.1C187.293 24.295 187.526 24.3925 187.811 24.3925C188.051 24.3925 188.253 24.3212 188.418 24.1787C188.591 24.0287 188.703 23.8375 188.756 23.605C188.778 23.5375 188.819 23.5037 188.879 23.5037L189.442 23.5262C189.472 23.5262 189.498 23.5375 189.521 23.56C189.543 23.5825 189.551 23.6125 189.543 23.65C189.483 24.0925 189.299 24.445 188.992 24.7075C188.692 24.9625 188.298 25.09 187.811 25.09C187.278 25.09 186.851 24.9325 186.528 24.6175C186.213 24.3025 186.056 23.8862 186.056 23.3687V20.9387C186.056 20.4287 186.213 20.0162 186.528 19.7012C186.851 19.3787 187.278 19.2175 187.811 19.2175C188.351 19.2175 188.778 19.3787 189.093 19.7012C189.416 20.0162 189.577 20.4287 189.577 20.9387V22.345ZM187.811 19.915C187.526 19.915 187.293 20.0162 187.113 20.2187C186.941 20.4137 186.854 20.6725 186.854 20.995V21.7487C186.854 21.7787 186.869 21.7937 186.899 21.7937H188.744C188.774 21.7937 188.789 21.7787 188.789 21.7487V20.995C188.789 20.6725 188.699 20.4137 188.519 20.2187C188.339 20.0162 188.103 19.915 187.811 19.915ZM192.684 19.2512C192.872 19.2512 193.033 19.2925 193.168 19.375C193.221 19.405 193.239 19.4537 193.224 19.5212L193.089 20.1062C193.082 20.1737 193.037 20.1962 192.954 20.1737C192.864 20.1287 192.752 20.1062 192.617 20.1062C192.557 20.1062 192.512 20.11 192.482 20.1175C192.212 20.1325 191.991 20.275 191.818 20.545C191.646 20.8075 191.559 21.13 191.559 21.5125V24.8875C191.559 24.9625 191.522 25 191.447 25H190.873C190.798 25 190.761 24.9625 190.761 24.8875V19.42C190.761 19.345 190.798 19.3075 190.873 19.3075H191.447C191.522 19.3075 191.559 19.345 191.559 19.42V20.095C191.559 20.1175 191.563 20.1287 191.571 20.1287C191.586 20.1287 191.601 20.1212 191.616 20.1062C191.833 19.5362 192.189 19.2512 192.684 19.2512ZM193.719 25C193.644 25 193.607 24.9625 193.607 24.8875V24.4712C193.607 24.3962 193.644 24.3587 193.719 24.3587H197.229C197.304 24.3587 197.342 24.3962 197.342 24.4712V24.8875C197.342 24.9625 197.304 25 197.229 25H193.719Z" fill="black"/>
<path d="M0 8.1875H166.086V8.7478H0V8.1875Z" fill="black"/>
</svg>
