<svg width="363" height="40" viewBox="0 0 363 40" fill="none" xmlns="http://www.w3.org/2000/svg">
<path d="M2.23572 7.3031V9.78601C2.23572 10.0826 2.33643 10.2822 2.53784 10.3848C2.62207 10.4324 2.71362 10.469 2.8125 10.4946C2.91504 10.5203 3.01208 10.5605 3.10364 10.6155V11H0.664673V10.6155C0.741577 10.5605 0.827637 10.5203 0.922852 10.4946C1.02173 10.4653 1.11328 10.4287 1.19751 10.3848C1.39893 10.2822 1.49963 10.0826 1.49963 9.78601V5.34204L2.23572 7.3031ZM1.70837 4.51807C1.64612 4.36426 1.58936 4.22876 1.53809 4.11157C1.44287 4.0896 1.34399 4.06763 1.24146 4.04565C1.14258 4.02368 1.0437 4.00171 0.944824 3.97974C0.732422 3.9248 0.567627 3.87354 0.450439 3.82593V3.19421H3.09814L5.47668 9.42346L5.08118 11H4.13635L1.70837 4.51807ZM5.32288 7.66565L6.44348 3.19421H9.34387V3.6062C9.245 3.64648 9.14978 3.67761 9.05823 3.69958C8.96667 3.7179 8.88428 3.74536 8.81104 3.78198C8.6499 3.86255 8.56934 4.01819 8.56934 4.2489V9.9563C8.56934 10.1833 8.6499 10.3372 8.81104 10.4177C8.88428 10.4543 8.96667 10.4836 9.05823 10.5056C9.14978 10.5239 9.245 10.5532 9.34387 10.5935V11H5.99854V10.5935C6.09741 10.5532 6.19263 10.5239 6.28418 10.5056C6.37939 10.4836 6.46362 10.4543 6.53687 10.4177C6.70166 10.3372 6.78406 10.1833 6.78406 9.9563V4.37524H6.75659L5.69641 8.63245L5.32288 7.66565ZM16.3751 10.8901C16.1334 11.0183 15.7709 11.0824 15.2875 11.0824C14.8041 11.0824 14.4342 10.9451 14.1779 10.6704C13.9215 10.3958 13.7933 9.97827 13.7933 9.41797V6.43518C13.7933 6.24109 13.7054 6.10925 13.5297 6.03967C13.4564 6.01038 13.3777 5.98657 13.2935 5.96826C13.2129 5.94995 13.1415 5.91516 13.0792 5.86389V5.47937H15.4248V9.56628C15.4248 9.8446 15.4688 10.057 15.5566 10.2035C15.6482 10.35 15.7782 10.4232 15.9467 10.4232C16.1151 10.4232 16.2579 10.3848 16.3751 10.3079V10.8901ZM16.8695 6.43518C16.8695 6.24109 16.7816 6.10925 16.6058 6.03967C16.5326 6.01038 16.4539 5.98657 16.3696 5.96826C16.2891 5.94629 16.214 5.9115 16.1444 5.86389V5.47937H18.4955V10.0552C18.4955 10.2419 18.5834 10.3701 18.7592 10.4397C18.8324 10.469 18.9093 10.4946 18.9899 10.5166C19.0741 10.5349 19.1473 10.5679 19.2096 10.6155V11H16.8695V6.43518ZM25.1587 10.0771C25.1587 10.2676 25.2466 10.3976 25.4224 10.4672C25.4956 10.4965 25.5743 10.5221 25.6586 10.5441C25.7428 10.566 25.8215 10.6008 25.8948 10.6484V11H22.8021V10.6484C22.8717 10.6008 22.9486 10.566 23.0328 10.5441C23.1171 10.5221 23.1958 10.4965 23.269 10.4672C23.4412 10.3976 23.5272 10.2676 23.5272 10.0771V3.96326C23.5272 3.76917 23.4412 3.6355 23.269 3.56226C23.1958 3.53296 23.1171 3.50916 23.0328 3.49084C22.9486 3.46887 22.8717 3.43408 22.8021 3.38647V3.00745H25.1587V10.0771ZM31.8109 3.61169V11.0824H31.767C31.2286 11.0824 30.8276 10.9799 30.564 10.7748C30.304 10.5697 30.174 10.2365 30.174 9.77502V6.08362H29.4434V5.64417C29.4983 5.58557 29.5679 5.54163 29.6521 5.51233C29.74 5.48303 29.8279 5.4519 29.9158 5.41895C30.1318 5.33838 30.2692 5.20654 30.3278 5.02344C30.5219 4.48877 30.6738 4.14636 30.7837 3.99622C30.8936 3.84241 30.9906 3.7179 31.0748 3.62268L31.8109 3.61169ZM32.2998 10.4232C32.5964 10.4232 32.8052 10.328 32.926 10.1376C32.9773 10.0533 33.0176 9.95813 33.0469 9.85193C33.0762 9.74207 33.1091 9.6322 33.1458 9.52234L33.5907 9.69812C33.4991 10.1229 33.3856 10.4159 33.2501 10.577C33.1146 10.7345 32.9736 10.8499 32.8271 10.9231C32.6843 10.9963 32.5085 11.0494 32.2998 11.0824V10.4232ZM32.2998 5.47937H33.2886V6.08362H32.2998V5.47937ZM39.2322 10.0771C39.2322 10.2676 39.3201 10.3976 39.4958 10.4672C39.5691 10.4965 39.6478 10.5221 39.7321 10.5441C39.8163 10.566 39.895 10.6008 39.9683 10.6484V11H36.8756V10.6484C36.9452 10.6008 37.0221 10.566 37.1063 10.5441C37.1906 10.5221 37.2693 10.4965 37.3425 10.4672C37.5146 10.3976 37.6007 10.2676 37.6007 10.0771V6.43518C37.6007 6.23743 37.5146 6.10742 37.3425 6.04517C37.2693 6.01587 37.1906 5.99207 37.1063 5.97375C37.0221 5.95178 36.9452 5.91516 36.8756 5.86389V5.47937H39.2322V10.0771ZM38.3203 4.82568C38.1812 4.82568 38.0548 4.80005 37.9413 4.74878C37.8278 4.69751 37.7307 4.62793 37.6501 4.54004C37.4817 4.35693 37.3975 4.13354 37.3975 3.86987C37.3975 3.61353 37.4817 3.39014 37.6501 3.19971C37.8259 3.00562 38.0493 2.90857 38.3203 2.90857C38.595 2.90857 38.8202 3.00562 38.996 3.19971C39.1644 3.39014 39.2487 3.61353 39.2487 3.86987C39.2487 4.13354 39.1644 4.35693 38.996 4.54004C38.8202 4.73047 38.595 4.82568 38.3203 4.82568ZM46.3623 5.66614C46.6187 5.46838 46.9318 5.36951 47.3016 5.36951C47.8436 5.36951 48.2391 5.49219 48.4882 5.73755C48.7372 5.97925 48.8617 6.36011 48.8617 6.88013V10.0771C48.8617 10.2676 48.9276 10.3958 49.0594 10.4617C49.118 10.491 49.1803 10.5184 49.2462 10.5441C49.3158 10.566 49.3817 10.6008 49.444 10.6484V11H47.2247V7.07239C47.2247 6.70984 47.2009 6.46814 47.1533 6.34729C47.0618 6.13489 46.9116 6.02869 46.7029 6.02869C46.5784 6.02869 46.4648 6.06714 46.3623 6.14404V5.66614ZM49.3561 5.59473C49.6198 5.44458 49.9036 5.36951 50.2075 5.36951C50.5151 5.36951 50.766 5.4043 50.9601 5.47388C51.1542 5.54346 51.3153 5.65332 51.4435 5.80347C51.7035 6.10742 51.8335 6.578 51.8335 7.21521V9.82446C51.8335 10.0881 51.861 10.2566 51.9159 10.3298C51.9745 10.3994 52.0276 10.4434 52.0752 10.4617C52.1228 10.4763 52.1741 10.4891 52.229 10.5001C52.3608 10.5294 52.4652 10.5789 52.5421 10.6484V11H50.202V7.07239C50.202 6.69885 50.1782 6.45532 50.1306 6.3418C50.05 6.13306 49.9017 6.02869 49.6857 6.02869C49.5685 6.02869 49.4586 6.06348 49.3561 6.13306V5.59473ZM44.2365 6.68237C44.2365 6.40771 44.2072 6.2356 44.1486 6.16602C44.09 6.09644 44.0369 6.05615 43.9893 6.04517C43.9417 6.03052 43.8922 6.01953 43.8409 6.01221C43.7018 5.98657 43.6029 5.93713 43.5443 5.86389V5.47937H45.8734V10.0112C45.8734 10.209 45.9631 10.3518 46.1426 10.4397C46.2231 10.4763 46.3129 10.5093 46.4117 10.5386C46.5143 10.5679 46.6168 10.6045 46.7194 10.6484V11H43.4674V10.6484C43.548 10.6008 43.6322 10.566 43.7201 10.5441C43.8116 10.5184 43.8959 10.4891 43.9728 10.4562C44.1486 10.3793 44.2365 10.231 44.2365 10.0112V6.68237ZM59.3317 10.4232C60.0677 10.3866 60.5621 9.9801 60.8148 9.20374L61.3202 9.43445C61.0455 10.4415 60.3827 10.9908 59.3317 11.0824V10.4232ZM59.1669 5.36951C59.9213 5.42444 60.4871 5.72473 60.8643 6.27039C61.2012 6.75378 61.3696 7.40015 61.3696 8.20947H58.5406V7.64917H59.6777C59.6777 7.18042 59.6411 6.81055 59.5679 6.53955C59.4983 6.26489 59.3646 6.0946 59.1669 6.02869V5.36951ZM58.8428 11.0824C58.0481 11.0201 57.4072 10.7107 56.9202 10.1541C56.4661 9.6377 56.239 9.00232 56.239 8.24792C56.239 7.45691 56.4679 6.79224 56.9257 6.25391C57.3798 5.71558 57.9639 5.42078 58.678 5.36951V6.02869C58.4363 6.11292 58.266 6.33997 58.1671 6.70984C58.0719 7.07971 58.0243 7.49719 58.0243 7.96228C58.0243 8.42371 58.0353 8.76978 58.0573 9.00049C58.0829 9.22754 58.1268 9.43262 58.1891 9.61572C58.3173 10.0002 58.5352 10.2694 58.8428 10.4232V11.0824ZM68.8898 10.4836V3.96326C68.8898 3.76917 68.8037 3.6355 68.6316 3.56226C68.5583 3.53296 68.4796 3.50916 68.3954 3.49084C68.3112 3.46887 68.2343 3.43408 68.1647 3.38647V3.00745H70.5212V10.0771C70.5212 10.2676 70.6055 10.3976 70.7739 10.4672C70.8435 10.4965 70.9149 10.5221 70.9882 10.5441C71.0651 10.566 71.131 10.6008 71.1859 10.6484V11H68.9612L68.8898 10.4836ZM68.4009 10.9176C68.1812 11.0275 67.9156 11.0824 67.6044 11.0824C67.2931 11.0824 66.9965 11.011 66.7145 10.8682C66.4325 10.7217 66.1926 10.5239 65.9949 10.2749C65.5737 9.75854 65.3632 9.11401 65.3632 8.34131C65.3632 7.50635 65.6067 6.7959 66.0938 6.20996C66.5662 5.64966 67.1283 5.36951 67.7802 5.36951C68.0328 5.36951 68.2397 5.4043 68.4009 5.47388V6.1001C68.324 6.05249 68.2086 6.02869 68.0548 6.02869C67.9047 6.02869 67.771 6.08728 67.6538 6.20447C67.5403 6.32166 67.4487 6.47729 67.3792 6.67139C67.251 7.03394 67.1869 7.45508 67.1869 7.93481C67.1869 8.41455 67.196 8.79175 67.2144 9.06641C67.2327 9.34106 67.2729 9.5791 67.3352 9.78052C67.4634 10.209 67.7014 10.4232 68.0493 10.4232C68.2104 10.4232 68.3276 10.3903 68.4009 10.3243V10.9176ZM77.113 10.0771C77.113 10.2676 77.2009 10.3976 77.3767 10.4672C77.45 10.4965 77.5287 10.5221 77.6129 10.5441C77.6971 10.566 77.7759 10.6008 77.8491 10.6484V11H74.7565V10.6484C74.826 10.6008 74.903 10.566 74.9872 10.5441C75.0714 10.5221 75.1501 10.4965 75.2234 10.4672C75.3955 10.3976 75.4816 10.2676 75.4816 10.0771V6.43518C75.4816 6.23743 75.3955 6.10742 75.2234 6.04517C75.1501 6.01587 75.0714 5.99207 74.9872 5.97375C74.903 5.95178 74.826 5.91516 74.7565 5.86389V5.47937H77.113V10.0771ZM76.2012 4.82568C76.062 4.82568 75.9357 4.80005 75.8221 4.74878C75.7086 4.69751 75.6116 4.62793 75.531 4.54004C75.3625 4.35693 75.2783 4.13354 75.2783 3.86987C75.2783 3.61353 75.3625 3.39014 75.531 3.19971C75.7068 3.00562 75.9302 2.90857 76.2012 2.90857C76.4758 2.90857 76.701 3.00562 76.8768 3.19971C77.0453 3.39014 77.1295 3.61353 77.1295 3.86987C77.1295 4.13354 77.0453 4.35693 76.8768 4.54004C76.701 4.73047 76.4758 4.82568 76.2012 4.82568ZM86.1053 11.0824C85.5524 11.0824 85.1349 10.9561 84.8529 10.7034V7.44043C84.8529 6.97168 84.8328 6.66772 84.7925 6.52856C84.7192 6.25024 84.5691 6.08362 84.342 6.02869V5.36951C85.7739 5.42078 86.4899 6.06531 86.4899 7.3031V9.76404C86.4899 10.2035 86.5924 10.4232 86.7975 10.4232C86.9659 10.4232 87.0685 10.1998 87.1051 9.75305L87.5006 9.85193C87.4091 10.4708 87.1399 10.8535 86.6931 11C86.532 11.0549 86.3361 11.0824 86.1053 11.0824ZM84.364 10.8187C84.1553 10.9945 83.8806 11.0824 83.54 11.0824C83.2031 11.0824 82.923 11.0513 82.6996 10.989C82.4762 10.9231 82.2839 10.8279 82.1228 10.7034C81.7749 10.4324 81.601 10.0607 81.601 9.58826C81.601 9.04626 81.8536 8.6178 82.359 8.30286C82.7216 8.07581 83.3899 7.83044 84.364 7.56677V8.14905C83.7122 8.4054 83.3862 8.85583 83.3862 9.50037C83.3862 9.92151 83.4851 10.2053 83.6829 10.3518C83.7524 10.3994 83.8531 10.4232 83.985 10.4232C84.1168 10.4232 84.2432 10.3811 84.364 10.2969V10.8187ZM83.205 6.38025C83.454 6.49377 83.5785 6.66223 83.5785 6.88562C83.5785 7.1676 83.4155 7.35254 83.0896 7.44043C82.998 7.4624 82.9065 7.47339 82.8149 7.47339C82.5476 7.47339 82.3444 7.39832 82.2052 7.24817C82.066 7.09802 81.9965 6.92041 81.9965 6.71533C81.9965 6.50659 82.0367 6.32898 82.1173 6.1825C82.1979 6.03235 82.3169 5.89868 82.4744 5.78149C82.8149 5.53613 83.2745 5.3988 83.8531 5.36951V6.02869C83.5638 6.047 83.3478 6.16418 83.205 6.38025ZM100.025 11H97.4158V10.5935C97.5146 10.5532 97.6099 10.5239 97.7014 10.5056C97.7966 10.4836 97.8809 10.4543 97.9541 10.4177C98.1189 10.3372 98.2013 10.1833 98.2013 9.9563V4.2489C98.2013 4.01819 98.1189 3.86255 97.9541 3.78198C97.8809 3.74536 97.7966 3.7179 97.7014 3.69958C97.6099 3.67761 97.5146 3.64648 97.4158 3.6062V3.19421H100.025V11ZM102.453 4.53455C102.292 4.25989 102.085 4.05664 101.832 3.9248C101.58 3.78931 101.321 3.72156 101.058 3.72156C100.798 3.72156 100.616 3.72888 100.514 3.74353V3.19421H101.052C102.352 3.19421 103.348 3.59705 104.041 4.40271C104.656 5.12048 104.963 6.0177 104.963 7.09436C104.963 8.2113 104.645 9.125 104.008 9.83545C103.312 10.6118 102.347 11 101.113 11H100.514V10.4507C100.631 10.4653 100.814 10.4727 101.063 10.4727C101.312 10.4727 101.563 10.4177 101.816 10.3079C102.072 10.1943 102.283 10.0057 102.448 9.74207C102.766 9.23303 102.925 8.35046 102.925 7.09436C102.925 5.92615 102.768 5.07288 102.453 4.53455ZM111.989 10.4232C112.725 10.3866 113.22 9.9801 113.472 9.20374L113.978 9.43445C113.703 10.4415 113.04 10.9908 111.989 11.0824V10.4232ZM111.824 5.36951C112.579 5.42444 113.145 5.72473 113.522 6.27039C113.859 6.75378 114.027 7.40015 114.027 8.20947H111.198V7.64917H112.335C112.335 7.18042 112.299 6.81055 112.225 6.53955C112.156 6.26489 112.022 6.0946 111.824 6.02869V5.36951ZM111.5 11.0824C110.706 11.0201 110.065 10.7107 109.578 10.1541C109.124 9.6377 108.896 9.00232 108.896 8.24792C108.896 7.45691 109.125 6.79224 109.583 6.25391C110.037 5.71558 110.621 5.42078 111.335 5.36951V6.02869C111.094 6.11292 110.923 6.33997 110.825 6.70984C110.729 7.07971 110.682 7.49719 110.682 7.96228C110.682 8.42371 110.693 8.76978 110.715 9.00049C110.74 9.22754 110.784 9.43262 110.847 9.61572C110.975 10.0002 111.193 10.2694 111.5 10.4232V11.0824ZM120.119 6.02869C119.782 6.12024 119.614 6.27954 119.614 6.50659C119.614 6.8728 119.934 7.17859 120.575 7.42395C121.08 7.61804 121.437 7.77002 121.646 7.87988C121.859 7.98608 122.036 8.10327 122.179 8.23145C122.498 8.52441 122.657 8.88879 122.657 9.32458C122.657 9.84094 122.461 10.2548 122.069 10.566C121.688 10.8663 121.201 11.0385 120.608 11.0824V10.4232C120.992 10.3317 121.185 10.1193 121.185 9.78601C121.185 9.44177 120.87 9.14697 120.24 8.90161C119.745 8.71118 119.394 8.56287 119.185 8.45667C118.98 8.35046 118.808 8.23511 118.669 8.1106C118.358 7.83228 118.202 7.48987 118.202 7.08337C118.202 6.64392 118.389 6.25391 118.762 5.91333C119.139 5.57275 119.592 5.39148 120.119 5.36951V6.02869ZM121.624 6.14404C121.544 6.11108 121.205 6.07263 120.608 6.02869V5.36951C121.245 5.39514 121.743 5.54712 122.102 5.82544C122.402 6.05981 122.552 6.31982 122.552 6.60547C122.552 6.96069 122.417 7.19507 122.146 7.30859C122.051 7.34521 121.919 7.36353 121.75 7.36353C121.582 7.36353 121.443 7.31042 121.333 7.20422C121.227 7.09436 121.174 6.96069 121.174 6.80322C121.174 6.53589 121.324 6.31616 121.624 6.14404ZM119.174 10.2694C119.269 10.3536 119.584 10.4049 120.119 10.4232V11.0824C119.511 11.0348 119.033 10.8737 118.685 10.599C118.392 10.3646 118.246 10.0973 118.246 9.797C118.246 9.59924 118.301 9.43811 118.411 9.3136C118.521 9.18542 118.687 9.12134 118.911 9.12134C119.134 9.12134 119.299 9.17078 119.405 9.26965C119.515 9.36853 119.57 9.4967 119.57 9.65417C119.57 9.92883 119.438 10.1339 119.174 10.2694ZM128.716 10.0771C128.716 10.2676 128.804 10.3976 128.979 10.4672C129.053 10.4965 129.131 10.5221 129.216 10.5441C129.3 10.566 129.379 10.6008 129.452 10.6484V11H126.359V10.6484C126.429 10.6008 126.506 10.566 126.59 10.5441C126.674 10.5221 126.753 10.4965 126.826 10.4672C126.998 10.3976 127.084 10.2676 127.084 10.0771V6.43518C127.084 6.23743 126.998 6.10742 126.826 6.04517C126.753 6.01587 126.674 5.99207 126.59 5.97375C126.506 5.95178 126.429 5.91516 126.359 5.86389V5.47937H128.716V10.0771ZM127.804 4.82568C127.665 4.82568 127.538 4.80005 127.425 4.74878C127.311 4.69751 127.214 4.62793 127.134 4.54004C126.965 4.35693 126.881 4.13354 126.881 3.86987C126.881 3.61353 126.965 3.39014 127.134 3.19971C127.31 3.00562 127.533 2.90857 127.804 2.90857C128.079 2.90857 128.304 3.00562 128.48 3.19971C128.648 3.39014 128.732 3.61353 128.732 3.86987C128.732 4.13354 128.648 4.35693 128.48 4.54004C128.304 4.73047 128.079 4.82568 127.804 4.82568ZM133.808 10.8682C133.438 10.751 133.253 10.5496 133.253 10.2639C133.253 9.95996 133.469 9.65601 133.901 9.35205L134.528 9.5498C134.385 9.65967 134.313 9.86108 134.313 10.1541C135.855 10.1541 136.915 10.2749 137.494 10.5166C137.787 10.6375 137.99 10.7931 138.104 10.9835C138.217 11.1703 138.274 11.3937 138.274 11.6537C138.274 11.9137 138.208 12.1517 138.076 12.3678C137.948 12.5839 137.774 12.7706 137.554 12.9281C137.097 13.2577 136.534 13.4371 135.868 13.4664V12.9336C136.392 12.9116 136.729 12.7175 136.879 12.3513C136.923 12.2451 136.945 12.1316 136.945 12.0107C136.945 11.791 136.833 11.6097 136.609 11.4669C136.386 11.3241 136.11 11.2527 135.78 11.2527C135.267 11.2527 134.896 11.2692 134.665 11.3021C134.61 11.4376 134.583 11.5878 134.583 11.7526V12.0767C134.583 12.3147 134.639 12.507 134.753 12.6534C134.866 12.7999 135.075 12.8896 135.379 12.9226V13.4609C134.518 13.4133 133.945 13.0819 133.66 12.4667C133.561 12.2543 133.511 11.9961 133.511 11.6921C133.511 11.3882 133.61 11.1135 133.808 10.8682ZM137.549 5.03992C137.314 5.03992 137.197 5.1864 137.197 5.47937C137.197 5.62585 137.216 5.72107 137.252 5.76501C137.292 5.80896 137.333 5.84741 137.373 5.88037C137.417 5.91333 137.494 5.98291 137.604 6.08911C137.838 6.31982 137.955 6.70435 137.955 7.24268C137.955 7.83228 137.75 8.31201 137.34 8.68188C136.948 9.03711 136.458 9.23303 135.868 9.26965V8.7478C136.055 8.68555 136.183 8.5354 136.252 8.29736C136.326 8.05933 136.362 7.72424 136.362 7.29211C136.362 6.85999 136.326 6.53589 136.252 6.31982C136.179 6.10376 136.051 5.96826 135.868 5.91333V5.36951C136.19 5.38049 136.456 5.42261 136.664 5.49585C136.664 4.9978 136.897 4.66455 137.362 4.49609C137.509 4.44116 137.672 4.4137 137.851 4.4137C138.034 4.4137 138.19 4.4375 138.318 4.48511C138.45 4.52905 138.558 4.59131 138.642 4.67188C138.803 4.82202 138.884 5.01428 138.884 5.24866C138.884 5.48303 138.82 5.65881 138.691 5.776C138.567 5.89319 138.402 5.95178 138.197 5.95178C137.992 5.95178 137.825 5.89502 137.697 5.78149C137.573 5.66797 137.51 5.52332 137.51 5.34753C137.51 5.28162 137.52 5.22485 137.538 5.17725C137.56 5.12598 137.571 5.09119 137.571 5.07288C137.571 5.0509 137.563 5.03992 137.549 5.03992ZM135.379 9.28064C134.284 9.24768 133.608 8.88696 133.352 8.19849C133.26 7.96045 133.215 7.6803 133.215 7.35803C133.215 7.03577 133.266 6.75745 133.369 6.52307C133.475 6.28503 133.623 6.08545 133.813 5.92432C134.191 5.59839 134.713 5.41345 135.379 5.36951V5.91333C135.163 5.94995 135.013 6.07263 134.929 6.28137C134.848 6.48279 134.808 6.81421 134.808 7.27563C134.808 7.73706 134.85 8.08862 134.934 8.33032C135.018 8.57202 135.167 8.71667 135.379 8.76428V9.28064ZM145.102 5.72107C145.391 5.48669 145.69 5.36951 145.997 5.36951C146.305 5.36951 146.556 5.4043 146.75 5.47388C146.948 5.54346 147.114 5.646 147.25 5.78149C147.539 6.0708 147.684 6.47546 147.684 6.99548V9.84644C147.684 10.2126 147.766 10.4196 147.931 10.4672C147.982 10.4818 148.033 10.4946 148.085 10.5056C148.228 10.5349 148.332 10.5825 148.398 10.6484V11H145.789V10.6155C145.789 10.5349 145.818 10.469 145.876 10.4177C145.939 10.3665 145.983 10.3225 146.008 10.2859C146.038 10.2456 146.052 10.1833 146.052 10.0991V7.05042C146.052 6.67322 146.027 6.43152 145.975 6.32532C145.887 6.12756 145.75 6.02869 145.563 6.02869C145.377 6.02869 145.223 6.07446 145.102 6.16602V5.72107ZM144.613 9.84644C144.613 10.209 144.69 10.4159 144.844 10.4672C144.891 10.4818 144.941 10.4946 144.992 10.5056C145.128 10.5349 145.228 10.5825 145.294 10.6484V11H142.267V10.6484C142.33 10.6008 142.401 10.566 142.482 10.5441C142.566 10.5221 142.645 10.4965 142.718 10.4672C142.894 10.3976 142.982 10.2676 142.982 10.0771V6.68237C142.982 6.42236 142.921 6.23376 142.8 6.11658C142.705 6.02136 142.527 5.93713 142.267 5.86389V5.47937H144.613V9.84644ZM155.209 10.4232C155.945 10.3866 156.44 9.9801 156.693 9.20374L157.198 9.43445C156.923 10.4415 156.26 10.9908 155.209 11.0824V10.4232ZM155.045 5.36951C155.799 5.42444 156.365 5.72473 156.742 6.27039C157.079 6.75378 157.247 7.40015 157.247 8.20947H154.418V7.64917H155.555C155.555 7.18042 155.519 6.81055 155.446 6.53955C155.376 6.26489 155.242 6.0946 155.045 6.02869V5.36951ZM154.72 11.0824C153.926 11.0201 153.285 10.7107 152.798 10.1541C152.344 9.6377 152.117 9.00232 152.117 8.24792C152.117 7.45691 152.346 6.79224 152.803 6.25391C153.257 5.71558 153.842 5.42078 154.556 5.36951V6.02869C154.314 6.11292 154.144 6.33997 154.045 6.70984C153.95 7.07971 153.902 7.49719 153.902 7.96228C153.902 8.42371 153.913 8.76978 153.935 9.00049C153.961 9.22754 154.005 9.43262 154.067 9.61572C154.195 10.0002 154.413 10.2694 154.72 10.4232V11.0824ZM164.471 6.43518C164.302 6.43518 164.13 6.62378 163.954 7.00098L163.922 5.95178C164.222 5.5636 164.606 5.36951 165.075 5.36951C165.35 5.36951 165.584 5.47021 165.778 5.67163C165.961 5.86206 166.053 6.08362 166.053 6.3363C166.053 6.60364 165.976 6.82886 165.822 7.01196C165.661 7.20605 165.456 7.3031 165.207 7.3031C164.954 7.3031 164.762 7.20972 164.63 7.02295C164.524 6.86548 164.471 6.66956 164.471 6.43518ZM163.383 5.47937C163.46 6.34363 163.499 7.31592 163.499 8.39624V10.0222C163.499 10.2163 163.588 10.3536 163.768 10.4342C163.848 10.4708 163.936 10.5038 164.031 10.5331C164.13 10.5624 164.227 10.6008 164.323 10.6484V11H161.142V10.6484C161.212 10.6008 161.288 10.566 161.373 10.5441C161.457 10.5221 161.536 10.4965 161.609 10.4672C161.781 10.3976 161.867 10.2676 161.867 10.0771V6.43518C161.867 6.23376 161.781 6.1001 161.609 6.03418C161.536 6.00854 161.457 5.98657 161.373 5.96826C161.288 5.94995 161.212 5.91516 161.142 5.86389V5.47937H163.383ZM1.87875 20.5675C1.80375 20.5675 1.76625 20.53 1.76625 20.455L1.7775 19.105C1.7775 19.06 1.75875 19.0487 1.72125 19.0712L0.59625 19.7575L0.54 19.78C0.5025 19.78 0.46875 19.7575 0.43875 19.7125L0.30375 19.465C0.28875 19.435 0.28125 19.4125 0.28125 19.3975C0.28125 19.3525 0.3 19.3225 0.3375 19.3075L1.485 18.6212C1.5 18.6137 1.5075 18.6025 1.5075 18.5875C1.5075 18.5725 1.5 18.5612 1.485 18.5537L0.3375 17.8675C0.3075 17.8525 0.28875 17.83 0.28125 17.8C0.28125 17.77 0.28875 17.74 0.30375 17.71L0.43875 17.44C0.47625 17.365 0.52875 17.35 0.59625 17.395L1.72125 18.0925C1.75875 18.1075 1.7775 18.0962 1.7775 18.0587L1.76625 16.72C1.76625 16.645 1.80375 16.6075 1.87875 16.6075H2.17125C2.24625 16.6075 2.28375 16.645 2.28375 16.72V18.0587C2.28375 18.0737 2.29125 18.085 2.30625 18.0925C2.32125 18.1 2.3325 18.1 2.34 18.0925L3.45375 17.395C3.48375 17.38 3.50625 17.3725 3.52125 17.3725C3.55875 17.3725 3.58875 17.395 3.61125 17.44L3.7575 17.71C3.765 17.725 3.76875 17.7437 3.76875 17.7662C3.76875 17.8112 3.75 17.845 3.7125 17.8675L2.57625 18.5537C2.56875 18.5612 2.565 18.5725 2.565 18.5875C2.565 18.6025 2.56875 18.6137 2.57625 18.6212L3.7125 19.3075C3.78 19.3525 3.795 19.405 3.7575 19.465L3.61125 19.735C3.59625 19.765 3.57375 19.7837 3.54375 19.7912C3.51375 19.7987 3.48375 19.795 3.45375 19.78L2.34 19.0712C2.3325 19.0637 2.32125 19.0637 2.30625 19.0712C2.29125 19.0787 2.28375 19.09 2.28375 19.105V20.455C2.28375 20.53 2.24625 20.5675 2.17125 20.5675H1.87875ZM8.41869 17.71C8.41869 17.785 8.38119 17.8225 8.30619 17.8225H5.71869C5.68869 17.8225 5.67369 17.8375 5.67369 17.8675V20.6575C5.67369 20.6875 5.68869 20.7025 5.71869 20.7025H7.34994C7.42494 20.7025 7.46244 20.74 7.46244 20.815V21.2987C7.46244 21.3737 7.42494 21.4112 7.34994 21.4112H5.71869C5.68869 21.4112 5.67369 21.4262 5.67369 21.4562V24.8875C5.67369 24.9625 5.63619 25 5.56119 25H4.98744C4.91244 25 4.87494 24.9625 4.87494 24.8875V17.2375C4.87494 17.1625 4.91244 17.125 4.98744 17.125H8.30619C8.38119 17.125 8.41869 17.1625 8.41869 17.2375V17.71ZM10.9267 19.2512C11.1142 19.2512 11.2754 19.2925 11.4104 19.375C11.4629 19.405 11.4817 19.4537 11.4667 19.5212L11.3317 20.1062C11.3242 20.1737 11.2792 20.1962 11.1967 20.1737C11.1067 20.1287 10.9942 20.1062 10.8592 20.1062C10.7992 20.1062 10.7542 20.11 10.7242 20.1175C10.4542 20.1325 10.2329 20.275 10.0604 20.545C9.8879 20.8075 9.80165 21.13 9.80165 21.5125V24.8875C9.80165 24.9625 9.76415 25 9.68915 25H9.1154C9.0404 25 9.0029 24.9625 9.0029 24.8875V19.42C9.0029 19.345 9.0404 19.3075 9.1154 19.3075H9.68915C9.76415 19.3075 9.80165 19.345 9.80165 19.42V20.095C9.80165 20.1175 9.8054 20.1287 9.8129 20.1287C9.8279 20.1287 9.8429 20.1212 9.8579 20.1062C10.0754 19.5362 10.4317 19.2512 10.9267 19.2512ZM15.6414 22.345C15.6414 22.42 15.6039 22.4575 15.5289 22.4575H12.9639C12.9339 22.4575 12.9189 22.4725 12.9189 22.5025V23.3237C12.9189 23.6387 13.0051 23.8975 13.1776 24.1C13.3576 24.295 13.5901 24.3925 13.8751 24.3925C14.1151 24.3925 14.3176 24.3212 14.4826 24.1787C14.6551 24.0287 14.7676 23.8375 14.8201 23.605C14.8426 23.5375 14.8839 23.5037 14.9439 23.5037L15.5064 23.5262C15.5364 23.5262 15.5626 23.5375 15.5851 23.56C15.6076 23.5825 15.6151 23.6125 15.6076 23.65C15.5476 24.0925 15.3639 24.445 15.0564 24.7075C14.7564 24.9625 14.3626 25.09 13.8751 25.09C13.3426 25.09 12.9151 24.9325 12.5926 24.6175C12.2776 24.3025 12.1201 23.8862 12.1201 23.3687V20.9387C12.1201 20.4287 12.2776 20.0162 12.5926 19.7012C12.9151 19.3787 13.3426 19.2175 13.8751 19.2175C14.4151 19.2175 14.8426 19.3787 15.1576 19.7012C15.4801 20.0162 15.6414 20.4287 15.6414 20.9387V22.345ZM13.8751 19.915C13.5901 19.915 13.3576 20.0162 13.1776 20.2187C13.0051 20.4137 12.9189 20.6725 12.9189 20.995V21.7487C12.9189 21.7787 12.9339 21.7937 12.9639 21.7937H14.8089C14.8389 21.7937 14.8539 21.7787 14.8539 21.7487V20.995C14.8539 20.6725 14.7639 20.4137 14.5839 20.2187C14.4039 20.0162 14.1676 19.915 13.8751 19.915ZM20.2227 22.345C20.2227 22.42 20.1852 22.4575 20.1102 22.4575H17.5452C17.5152 22.4575 17.5002 22.4725 17.5002 22.5025V23.3237C17.5002 23.6387 17.5864 23.8975 17.7589 24.1C17.9389 24.295 18.1714 24.3925 18.4564 24.3925C18.6964 24.3925 18.8989 24.3212 19.0639 24.1787C19.2364 24.0287 19.3489 23.8375 19.4014 23.605C19.4239 23.5375 19.4652 23.5037 19.5252 23.5037L20.0877 23.5262C20.1177 23.5262 20.1439 23.5375 20.1664 23.56C20.1889 23.5825 20.1964 23.6125 20.1889 23.65C20.1289 24.0925 19.9452 24.445 19.6377 24.7075C19.3377 24.9625 18.9439 25.09 18.4564 25.09C17.9239 25.09 17.4964 24.9325 17.1739 24.6175C16.8589 24.3025 16.7014 23.8862 16.7014 23.3687V20.9387C16.7014 20.4287 16.8589 20.0162 17.1739 19.7012C17.4964 19.3787 17.9239 19.2175 18.4564 19.2175C18.9964 19.2175 19.4239 19.3787 19.7389 19.7012C20.0614 20.0162 20.2227 20.4287 20.2227 20.9387V22.345ZM18.4564 19.915C18.1714 19.915 17.9389 20.0162 17.7589 20.2187C17.5864 20.4137 17.5002 20.6725 17.5002 20.995V21.7487C17.5002 21.7787 17.5152 21.7937 17.5452 21.7937H19.3902C19.4202 21.7937 19.4352 21.7787 19.4352 21.7487V20.995C19.4352 20.6725 19.3452 20.4137 19.1652 20.2187C18.9852 20.0162 18.7489 19.915 18.4564 19.915ZM21.4515 25C21.3765 25 21.339 24.9625 21.339 24.8875V17.2375C21.339 17.1625 21.3765 17.125 21.4515 17.125H22.0252C22.1002 17.125 22.1377 17.1625 22.1377 17.2375V24.8875C22.1377 24.9625 22.1002 25 22.0252 25H21.4515ZM25.1039 19.2175C25.6289 19.2175 26.0489 19.39 26.3639 19.735C26.6789 20.0725 26.8364 20.5262 26.8364 21.0962V24.8875C26.8364 24.9625 26.7989 25 26.7239 25H26.1502C26.0752 25 26.0377 24.9625 26.0377 24.8875V24.55C26.0377 24.535 26.0302 24.5275 26.0152 24.5275C26.0077 24.52 25.9964 24.5237 25.9814 24.5387C25.7039 24.9062 25.2877 25.09 24.7327 25.09C24.3202 25.09 23.9602 24.9737 23.6527 24.7412C23.3527 24.5012 23.2027 24.0812 23.2027 23.4812C23.2027 22.8437 23.3864 22.3787 23.7539 22.0862C24.1214 21.7862 24.6052 21.6362 25.2052 21.6362H25.9927C26.0227 21.6362 26.0377 21.6212 26.0377 21.5912V21.1525C26.0377 20.7775 25.9514 20.4775 25.7789 20.2525C25.6064 20.0275 25.3739 19.915 25.0814 19.915C24.8564 19.915 24.6614 19.99 24.4964 20.14C24.3389 20.29 24.2452 20.4812 24.2152 20.7137C24.2152 20.7887 24.1777 20.8262 24.1027 20.8262L23.4727 20.815C23.4352 20.815 23.4052 20.8037 23.3827 20.7812C23.3677 20.7587 23.3639 20.7325 23.3714 20.7025C23.4089 20.26 23.5889 19.9037 23.9114 19.6337C24.2339 19.3562 24.6314 19.2175 25.1039 19.2175ZM24.9014 24.3925C25.2089 24.3925 25.4752 24.295 25.7002 24.1C25.9252 23.8975 26.0377 23.62 26.0377 23.2675V22.3225C26.0377 22.2925 26.0227 22.2775 25.9927 22.2775H25.1939C24.8339 22.2775 24.5489 22.375 24.3389 22.57C24.1289 22.7575 24.0239 23.0387 24.0239 23.4137C24.0239 23.7437 24.1027 23.9912 24.2602 24.1562C24.4252 24.3137 24.6389 24.3925 24.9014 24.3925ZM30.1112 19.2287C30.5687 19.2287 30.9212 19.3862 31.1687 19.7012C31.4237 20.0162 31.5512 20.455 31.5512 21.0175V24.8875C31.5512 24.9625 31.5137 25 31.4387 25H30.8649C30.7899 25 30.7524 24.9625 30.7524 24.8875V21.085C30.7524 20.7175 30.6699 20.4325 30.5049 20.23C30.3474 20.0275 30.1262 19.9262 29.8412 19.9262C29.5412 19.9262 29.3049 20.035 29.1324 20.2525C28.9674 20.47 28.8849 20.7662 28.8849 21.1412V24.8875C28.8849 24.9625 28.8474 25 28.7724 25H28.1987C28.1237 25 28.0862 24.9625 28.0862 24.8875V19.42C28.0862 19.345 28.1237 19.3075 28.1987 19.3075H28.7724C28.8474 19.3075 28.8849 19.345 28.8849 19.42V19.78C28.8849 19.795 28.8924 19.8062 28.9074 19.8137C28.9224 19.8212 28.9337 19.8137 28.9412 19.7912C29.0762 19.6037 29.2449 19.465 29.4474 19.375C29.6574 19.2775 29.8787 19.2287 30.1112 19.2287ZM34.4855 25.09C33.953 25.09 33.5255 24.9325 33.203 24.6175C32.888 24.3025 32.7305 23.8862 32.7305 23.3687V20.9387C32.7305 20.4287 32.8917 20.0162 33.2142 19.7012C33.5367 19.3787 33.9605 19.2175 34.4855 19.2175C34.838 19.2175 35.1492 19.2887 35.4192 19.4312C35.6892 19.5737 35.8955 19.765 36.038 20.005C36.188 20.2375 36.263 20.4962 36.263 20.7812V20.8937C36.263 20.9687 36.2255 21.0062 36.1505 21.0062L35.5767 21.0287C35.5017 21.0287 35.4642 20.9912 35.4642 20.9162V20.8375C35.4642 20.59 35.3705 20.3762 35.183 20.1962C35.003 20.0087 34.7705 19.915 34.4855 19.915C34.2005 19.915 33.968 20.0162 33.788 20.2187C33.6155 20.4137 33.5292 20.6725 33.5292 20.995V23.3125C33.5292 23.635 33.6155 23.8975 33.788 24.1C33.968 24.295 34.2005 24.3925 34.4855 24.3925C34.7705 24.3925 35.003 24.3025 35.183 24.1225C35.3705 23.935 35.4642 23.7175 35.4642 23.47V23.3912C35.4642 23.3162 35.5017 23.2787 35.5767 23.2787L36.1505 23.29C36.2255 23.29 36.263 23.3275 36.263 23.4025V23.5262C36.263 23.9762 36.098 24.3512 35.768 24.6512C35.4455 24.9437 35.018 25.09 34.4855 25.09ZM40.7781 22.345C40.7781 22.42 40.7406 22.4575 40.6656 22.4575H38.1006C38.0706 22.4575 38.0556 22.4725 38.0556 22.5025V23.3237C38.0556 23.6387 38.1418 23.8975 38.3143 24.1C38.4943 24.295 38.7268 24.3925 39.0118 24.3925C39.2518 24.3925 39.4543 24.3212 39.6193 24.1787C39.7918 24.0287 39.9043 23.8375 39.9568 23.605C39.9793 23.5375 40.0206 23.5037 40.0806 23.5037L40.6431 23.5262C40.6731 23.5262 40.6993 23.5375 40.7218 23.56C40.7443 23.5825 40.7518 23.6125 40.7443 23.65C40.6843 24.0925 40.5006 24.445 40.1931 24.7075C39.8931 24.9625 39.4993 25.09 39.0118 25.09C38.4793 25.09 38.0518 24.9325 37.7293 24.6175C37.4143 24.3025 37.2568 23.8862 37.2568 23.3687V20.9387C37.2568 20.4287 37.4143 20.0162 37.7293 19.7012C38.0518 19.3787 38.4793 19.2175 39.0118 19.2175C39.5518 19.2175 39.9793 19.3787 40.2943 19.7012C40.6168 20.0162 40.7781 20.4287 40.7781 20.9387V22.345ZM39.0118 19.915C38.7268 19.915 38.4943 20.0162 38.3143 20.2187C38.1418 20.4137 38.0556 20.6725 38.0556 20.995V21.7487C38.0556 21.7787 38.0706 21.7937 38.1006 21.7937H39.9456C39.9756 21.7937 39.9906 21.7787 39.9906 21.7487V20.995C39.9906 20.6725 39.9006 20.4137 39.7206 20.2187C39.5406 20.0162 39.3043 19.915 39.0118 19.915ZM49.0628 24.865C49.0778 24.88 49.0853 24.9025 49.0853 24.9325C49.0853 24.9475 49.0778 24.9625 49.0628 24.9775C49.0478 24.9925 49.0253 25 48.9953 25H48.3878C48.3278 25 48.2828 24.9775 48.2528 24.9325L47.7916 24.2575C47.7841 24.2425 47.7728 24.235 47.7578 24.235C47.7428 24.235 47.7316 24.2387 47.7241 24.2462C47.4466 24.5462 47.1578 24.7637 46.8578 24.8987C46.5653 25.0338 46.2353 25.1013 45.8678 25.1013C45.2903 25.1013 44.8328 24.94 44.4953 24.6175C44.1578 24.295 43.9891 23.8375 43.9891 23.245C43.9891 22.7425 44.1091 22.3075 44.3491 21.94C44.5891 21.565 44.9191 21.2012 45.3391 20.8487C45.3616 20.8412 45.3653 20.8225 45.3503 20.7925C45.0803 20.3875 44.8816 20.0762 44.7541 19.8587C44.6266 19.6337 44.5403 19.4462 44.4953 19.2962C44.4578 19.1387 44.4391 18.9625 44.4391 18.7675C44.4391 18.2425 44.5891 17.8225 44.8891 17.5075C45.1891 17.1925 45.5828 17.035 46.0703 17.035C46.5578 17.035 46.9553 17.1962 47.2628 17.5187C47.5778 17.8337 47.7353 18.2462 47.7353 18.7562C47.7353 19.2137 47.6191 19.6075 47.3866 19.9375C47.1541 20.26 46.8203 20.605 46.3853 20.9725C46.3628 20.98 46.3591 20.9987 46.3741 21.0287C46.6741 21.4487 46.8953 21.7675 47.0378 21.985L47.7353 22.975C47.7428 22.9825 47.7541 22.9862 47.7691 22.9862C47.7841 22.9862 47.7953 22.9825 47.8028 22.975C47.9078 22.8175 48.0878 22.5137 48.3428 22.0637C48.3578 22.0337 48.3803 22.015 48.4103 22.0075C48.4403 22 48.4703 22.0037 48.5003 22.0187L48.9278 22.2662C48.9878 22.3037 48.9991 22.3562 48.9616 22.4237C48.7216 22.8662 48.4778 23.26 48.2303 23.605C48.2228 23.6275 48.2228 23.65 48.2303 23.6725L49.0628 24.865ZM46.0928 17.7662C45.8378 17.7662 45.6316 17.86 45.4741 18.0475C45.3166 18.2275 45.2378 18.475 45.2378 18.79C45.2378 19 45.2753 19.1987 45.3503 19.3862C45.4328 19.5737 45.6166 19.885 45.9016 20.32C45.9166 20.35 45.9353 20.3537 45.9578 20.3312C46.2728 20.0612 46.5128 19.8062 46.6778 19.5662C46.8503 19.3262 46.9366 19.0562 46.9366 18.7562C46.9366 18.4562 46.8578 18.2162 46.7003 18.0362C46.5428 17.8562 46.3403 17.7662 46.0928 17.7662ZM45.9466 24.4037C46.1941 24.4037 46.4266 24.3437 46.6441 24.2237C46.8616 24.0962 47.0828 23.905 47.3078 23.65C47.3228 23.6275 47.3228 23.605 47.3078 23.5825L46.7678 22.8062L45.8341 21.49C45.8191 21.4675 45.8003 21.4675 45.7778 21.49C45.4553 21.7675 45.2078 22.0412 45.0353 22.3112C44.8703 22.5812 44.7878 22.885 44.7878 23.2225C44.7878 23.575 44.8891 23.86 45.0916 24.0775C45.2941 24.295 45.5791 24.4037 45.9466 24.4037ZM52.7999 25C52.7249 25 52.6874 24.9625 52.6874 24.8875V17.2375C52.6874 17.1625 52.7249 17.125 52.7999 17.125H53.3737C53.4487 17.125 53.4862 17.1625 53.4862 17.2375V24.2575C53.4862 24.2875 53.5012 24.3025 53.5312 24.3025H56.1074C56.1824 24.3025 56.2199 24.34 56.2199 24.415V24.8875C56.2199 24.9625 56.1824 25 56.1074 25H52.7999ZM60.4216 22.345C60.4216 22.42 60.3841 22.4575 60.3091 22.4575H57.7441C57.7141 22.4575 57.6991 22.4725 57.6991 22.5025V23.3237C57.6991 23.6387 57.7854 23.8975 57.9579 24.1C58.1379 24.295 58.3704 24.3925 58.6554 24.3925C58.8954 24.3925 59.0979 24.3212 59.2629 24.1787C59.4354 24.0287 59.5479 23.8375 59.6004 23.605C59.6229 23.5375 59.6641 23.5037 59.7241 23.5037L60.2866 23.5262C60.3166 23.5262 60.3429 23.5375 60.3654 23.56C60.3879 23.5825 60.3954 23.6125 60.3879 23.65C60.3279 24.0925 60.1441 24.445 59.8366 24.7075C59.5366 24.9625 59.1429 25.09 58.6554 25.09C58.1229 25.09 57.6954 24.9325 57.3729 24.6175C57.0579 24.3025 56.9004 23.8862 56.9004 23.3687V20.9387C56.9004 20.4287 57.0579 20.0162 57.3729 19.7012C57.6954 19.3787 58.1229 19.2175 58.6554 19.2175C59.1954 19.2175 59.6229 19.3787 59.9379 19.7012C60.2604 20.0162 60.4216 20.4287 60.4216 20.9387V22.345ZM58.6554 19.915C58.3704 19.915 58.1379 20.0162 57.9579 20.2187C57.7854 20.4137 57.6991 20.6725 57.6991 20.995V21.7487C57.6991 21.7787 57.7141 21.7937 57.7441 21.7937H59.5891C59.6191 21.7937 59.6341 21.7787 59.6341 21.7487V20.995C59.6341 20.6725 59.5441 20.4137 59.3641 20.2187C59.1841 20.0162 58.9479 19.915 58.6554 19.915ZM62.6533 25C62.5858 25 62.5445 24.9662 62.5295 24.8987L61.1345 19.4312L61.1233 19.3862C61.1233 19.3337 61.157 19.3075 61.2245 19.3075H61.877C61.9445 19.3075 61.9858 19.3412 62.0008 19.4087L62.9683 23.6725C62.9758 23.695 62.9833 23.7062 62.9908 23.7062C62.9983 23.7062 63.0058 23.695 63.0133 23.6725L63.9695 19.4087C63.9845 19.3412 64.0258 19.3075 64.0933 19.3075L64.7458 19.3188C64.7833 19.3188 64.8095 19.33 64.8245 19.3525C64.847 19.375 64.8508 19.405 64.8358 19.4425L63.452 24.8987C63.4445 24.9662 63.4033 25 63.3283 25H62.6533ZM69.1228 22.345C69.1228 22.42 69.0853 22.4575 69.0103 22.4575H66.4453C66.4153 22.4575 66.4003 22.4725 66.4003 22.5025V23.3237C66.4003 23.6387 66.4866 23.8975 66.6591 24.1C66.8391 24.295 67.0716 24.3925 67.3566 24.3925C67.5966 24.3925 67.7991 24.3212 67.9641 24.1787C68.1366 24.0287 68.2491 23.8375 68.3016 23.605C68.3241 23.5375 68.3653 23.5037 68.4253 23.5037L68.9878 23.5262C69.0178 23.5262 69.0441 23.5375 69.0666 23.56C69.0891 23.5825 69.0966 23.6125 69.0891 23.65C69.0291 24.0925 68.8453 24.445 68.5378 24.7075C68.2378 24.9625 67.8441 25.09 67.3566 25.09C66.8241 25.09 66.3966 24.9325 66.0741 24.6175C65.7591 24.3025 65.6016 23.8862 65.6016 23.3687V20.9387C65.6016 20.4287 65.7591 20.0162 66.0741 19.7012C66.3966 19.3787 66.8241 19.2175 67.3566 19.2175C67.8966 19.2175 68.3241 19.3787 68.6391 19.7012C68.9616 20.0162 69.1228 20.4287 69.1228 20.9387V22.345ZM67.3566 19.915C67.0716 19.915 66.8391 20.0162 66.6591 20.2187C66.4866 20.4137 66.4003 20.6725 66.4003 20.995V21.7487C66.4003 21.7787 66.4153 21.7937 66.4453 21.7937H68.2903C68.3203 21.7937 68.3353 21.7787 68.3353 21.7487V20.995C68.3353 20.6725 68.2453 20.4137 68.0653 20.2187C67.8853 20.0162 67.6491 19.915 67.3566 19.915ZM70.3516 25C70.2766 25 70.2391 24.9625 70.2391 24.8875V17.2375C70.2391 17.1625 70.2766 17.125 70.3516 17.125H70.9254C71.0004 17.125 71.0379 17.1625 71.0379 17.2375V24.8875C71.0379 24.9625 71.0004 25 70.9254 25H70.3516ZM77.19 19.42C77.19 19.345 77.2275 19.3075 77.3025 19.3075H77.8763C77.9513 19.3075 77.9888 19.345 77.9888 19.42V24.8875C77.9888 24.9625 77.9513 25 77.8763 25H77.3025C77.2275 25 77.19 24.9625 77.19 24.8875V24.505C77.19 24.4825 77.1825 24.4712 77.1675 24.4712C77.16 24.4712 77.1488 24.4787 77.1338 24.4937C76.9013 24.8837 76.5263 25.0788 76.0088 25.0788C75.5588 25.0788 75.1988 24.9437 74.9288 24.6737C74.6663 24.3962 74.535 23.98 74.535 23.425V19.42C74.535 19.345 74.5725 19.3075 74.6475 19.3075H75.2213C75.2963 19.3075 75.3338 19.345 75.3338 19.42V23.245C75.3338 23.62 75.4088 23.905 75.5588 24.1C75.7163 24.2875 75.9413 24.3812 76.2338 24.3812C76.5338 24.3812 76.7663 24.2725 76.9313 24.055C77.1038 23.8375 77.19 23.5412 77.19 23.1662V19.42ZM81.3618 19.2175C81.8343 19.2175 82.2131 19.3787 82.4981 19.7012C82.7831 20.0162 82.9256 20.4287 82.9256 20.9387V23.3687C82.9256 23.8937 82.7831 24.3137 82.4981 24.6288C82.2131 24.9363 81.8343 25.09 81.3618 25.09C81.1518 25.09 80.9531 25.0525 80.7656 24.9775C80.5781 24.895 80.4131 24.7712 80.2706 24.6062C80.2556 24.5912 80.2406 24.5875 80.2256 24.595C80.2181 24.6025 80.2143 24.6137 80.2143 24.6288V27.07C80.2143 27.145 80.1768 27.1825 80.1018 27.1825H79.5281C79.4531 27.1825 79.4156 27.145 79.4156 27.07V19.42C79.4156 19.345 79.4531 19.3075 79.5281 19.3075H80.1018C80.1768 19.3075 80.2143 19.345 80.2143 19.42V19.6787C80.2143 19.6937 80.2218 19.705 80.2368 19.7125C80.2518 19.7125 80.2668 19.705 80.2818 19.69C80.4168 19.5325 80.5781 19.4162 80.7656 19.3412C80.9606 19.2587 81.1593 19.2175 81.3618 19.2175ZM82.1381 20.995C82.1381 20.6725 82.0443 20.4137 81.8568 20.2187C81.6768 20.0162 81.4443 19.915 81.1593 19.915C80.8818 19.915 80.6531 20.0162 80.4731 20.2187C80.3006 20.4137 80.2143 20.6725 80.2143 20.995V23.3125C80.2143 23.635 80.3006 23.8975 80.4731 24.1C80.6531 24.295 80.8818 24.3925 81.1593 24.3925C81.4443 24.3925 81.6768 24.295 81.8568 24.1C82.0443 23.8975 82.1381 23.635 82.1381 23.3125V20.995ZM86.6598 25C86.5848 25 86.5473 24.9625 86.5473 24.8875V17.2375C86.5473 17.1625 86.5848 17.125 86.6598 17.125H88.3923C88.9698 17.125 89.4311 17.3162 89.7761 17.6987C90.1211 18.0737 90.2936 18.58 90.2936 19.2175V22.9075C90.2936 23.545 90.1211 24.055 89.7761 24.4375C89.4311 24.8125 88.9698 25 88.3923 25H86.6598ZM87.3461 24.2575C87.3461 24.2875 87.3611 24.3025 87.3911 24.3025L88.3811 24.2912C88.7111 24.2912 88.9736 24.1637 89.1686 23.9087C89.3711 23.6537 89.4761 23.3087 89.4836 22.8737V19.2512C89.4836 18.8087 89.3861 18.46 89.1911 18.205C88.9961 17.95 88.7261 17.8225 88.3811 17.8225H87.3911C87.3611 17.8225 87.3461 17.8375 87.3461 17.8675V24.2575ZM95.0505 22.345C95.0505 22.42 95.013 22.4575 94.938 22.4575H92.373C92.343 22.4575 92.328 22.4725 92.328 22.5025V23.3237C92.328 23.6387 92.4143 23.8975 92.5868 24.1C92.7668 24.295 92.9993 24.3925 93.2843 24.3925C93.5243 24.3925 93.7268 24.3212 93.8918 24.1787C94.0643 24.0287 94.1768 23.8375 94.2293 23.605C94.2518 23.5375 94.293 23.5037 94.353 23.5037L94.9155 23.5262C94.9455 23.5262 94.9718 23.5375 94.9943 23.56C95.0168 23.5825 95.0243 23.6125 95.0168 23.65C94.9568 24.0925 94.773 24.445 94.4655 24.7075C94.1655 24.9625 93.7718 25.09 93.2843 25.09C92.7518 25.09 92.3243 24.9325 92.0018 24.6175C91.6868 24.3025 91.5293 23.8862 91.5293 23.3687V20.9387C91.5293 20.4287 91.6868 20.0162 92.0018 19.7012C92.3243 19.3787 92.7518 19.2175 93.2843 19.2175C93.8243 19.2175 94.2518 19.3787 94.5668 19.7012C94.8893 20.0162 95.0505 20.4287 95.0505 20.9387V22.345ZM93.2843 19.915C92.9993 19.915 92.7668 20.0162 92.5868 20.2187C92.4143 20.4137 92.328 20.6725 92.328 20.995V21.7487C92.328 21.7787 92.343 21.7937 92.373 21.7937H94.218C94.248 21.7937 94.263 21.7787 94.263 21.7487V20.995C94.263 20.6725 94.173 20.4137 93.993 20.2187C93.813 20.0162 93.5768 19.915 93.2843 19.915ZM97.6974 25.0563C97.1799 25.0563 96.7636 24.925 96.4486 24.6625C96.1411 24.3925 95.9874 24.0363 95.9874 23.5938V23.515C95.9874 23.44 96.0249 23.4025 96.0999 23.4025H96.6399C96.7149 23.4025 96.7524 23.44 96.7524 23.515V23.5825C96.7524 23.8225 96.8386 24.025 97.0111 24.19C97.1911 24.355 97.4236 24.4375 97.7086 24.4375C97.9786 24.4375 98.1961 24.355 98.3611 24.19C98.5261 24.025 98.6086 23.815 98.6086 23.56C98.6086 23.365 98.5561 23.2037 98.4511 23.0762C98.3461 22.9412 98.2224 22.8362 98.0799 22.7612C97.9449 22.6862 97.7386 22.5887 97.4611 22.4687C97.1686 22.3487 96.9249 22.2325 96.7299 22.12C96.5424 22 96.3774 21.835 96.2349 21.625C96.0999 21.4075 96.0324 21.1337 96.0324 20.8037C96.0324 20.3237 96.1786 19.945 96.4711 19.6675C96.7711 19.39 97.1724 19.2512 97.6749 19.2512C98.1849 19.2512 98.5899 19.3937 98.8899 19.6787C99.1899 19.9637 99.3399 20.3425 99.3399 20.815V20.8487C99.3399 20.9237 99.3024 20.9612 99.2274 20.9612H98.7099C98.6349 20.9612 98.5974 20.9237 98.5974 20.8487V20.7812C98.5974 20.5262 98.5111 20.3162 98.3386 20.1512C98.1736 19.9862 97.9561 19.9037 97.6861 19.9037C97.4161 19.9037 97.1986 19.99 97.0336 20.1625C96.8761 20.3275 96.7974 20.5337 96.7974 20.7812C96.7974 20.9612 96.8461 21.115 96.9436 21.2425C97.0411 21.3625 97.1611 21.4637 97.3036 21.5462C97.4461 21.6212 97.6449 21.715 97.8999 21.8275C98.2074 21.9625 98.4586 22.09 98.6536 22.21C98.8561 22.33 99.0324 22.4987 99.1824 22.7162C99.3324 22.9337 99.4074 23.2037 99.4074 23.5262C99.4074 23.9912 99.2536 24.3625 98.9461 24.64C98.6386 24.9175 98.2224 25.0563 97.6974 25.0563ZM100.904 18.2725C100.716 18.2725 100.563 18.2125 100.443 18.0925C100.33 17.9725 100.274 17.8225 100.274 17.6425C100.274 17.455 100.33 17.305 100.443 17.1925C100.563 17.0725 100.716 17.0125 100.904 17.0125C101.084 17.0125 101.23 17.0725 101.343 17.1925C101.463 17.305 101.523 17.455 101.523 17.6425C101.523 17.8225 101.463 17.9725 101.343 18.0925C101.23 18.2125 101.084 18.2725 100.904 18.2725ZM100.623 25C100.548 25 100.51 24.9625 100.51 24.8875V19.42C100.51 19.345 100.548 19.3075 100.623 19.3075H101.196C101.271 19.3075 101.309 19.345 101.309 19.42V24.8875C101.309 24.9625 101.271 25 101.196 25H100.623ZM105.348 19.42C105.348 19.345 105.385 19.3075 105.46 19.3075H106.034C106.109 19.3075 106.146 19.345 106.146 19.42V24.8875C106.146 25.69 105.959 26.2975 105.584 26.71C105.216 27.13 104.598 27.3213 103.728 27.2838C103.653 27.2763 103.615 27.235 103.615 27.16V26.6763C103.615 26.6013 103.653 26.5638 103.728 26.5638C104.328 26.5788 104.748 26.44 104.988 26.1475C105.228 25.8625 105.348 25.42 105.348 24.82V24.4825C105.348 24.4675 105.34 24.4562 105.325 24.4487C105.318 24.4412 105.306 24.445 105.291 24.46C105.164 24.6475 104.999 24.79 104.796 24.8875C104.601 24.985 104.391 25.0338 104.166 25.0338C103.694 25.0338 103.319 24.8762 103.041 24.5612C102.771 24.2462 102.636 23.83 102.636 23.3125V20.9387C102.636 20.4137 102.771 19.9975 103.041 19.69C103.319 19.375 103.694 19.2175 104.166 19.2175C104.391 19.2175 104.601 19.2662 104.796 19.3637C104.999 19.4537 105.164 19.5925 105.291 19.78C105.306 19.8025 105.318 19.8137 105.325 19.8137C105.34 19.8062 105.348 19.7912 105.348 19.7687V19.42ZM104.403 24.3362C104.68 24.3362 104.905 24.2387 105.078 24.0437C105.258 23.8412 105.348 23.5825 105.348 23.2675V20.995C105.348 20.6725 105.258 20.4137 105.078 20.2187C104.905 20.0162 104.68 19.915 104.403 19.915C104.118 19.915 103.885 20.0162 103.705 20.2187C103.525 20.4137 103.435 20.6725 103.435 20.995V23.2675C103.435 23.5825 103.525 23.8412 103.705 24.0437C103.885 24.2387 104.118 24.3362 104.403 24.3362ZM109.432 19.2287C109.89 19.2287 110.242 19.3862 110.49 19.7012C110.745 20.0162 110.872 20.455 110.872 21.0175V24.8875C110.872 24.9625 110.835 25 110.76 25H110.186C110.111 25 110.074 24.9625 110.074 24.8875V21.085C110.074 20.7175 109.991 20.4325 109.826 20.23C109.669 20.0275 109.447 19.9262 109.162 19.9262C108.862 19.9262 108.626 20.035 108.454 20.2525C108.289 20.47 108.206 20.7662 108.206 21.1412V24.8875C108.206 24.9625 108.169 25 108.094 25H107.52C107.445 25 107.407 24.9625 107.407 24.8875V19.42C107.407 19.345 107.445 19.3075 107.52 19.3075H108.094C108.169 19.3075 108.206 19.345 108.206 19.42V19.78C108.206 19.795 108.214 19.8062 108.229 19.8137C108.244 19.8212 108.255 19.8137 108.262 19.7912C108.397 19.6037 108.566 19.465 108.769 19.375C108.979 19.2775 109.2 19.2287 109.432 19.2287ZM116.081 25.09C115.526 25.09 115.076 24.9062 114.731 24.5387C114.386 24.1712 114.214 23.6912 114.214 23.0987V22.84C114.214 22.765 114.251 22.7275 114.326 22.7275H114.878C114.953 22.7275 114.99 22.765 114.99 22.84V23.065C114.99 23.4625 115.091 23.785 115.294 24.0325C115.496 24.2725 115.759 24.3925 116.081 24.3925C116.396 24.3925 116.659 24.2762 116.869 24.0437C117.079 23.8112 117.184 23.5037 117.184 23.1212C117.184 22.8662 117.131 22.6487 117.026 22.4687C116.929 22.2812 116.798 22.12 116.633 21.985C116.475 21.8425 116.209 21.6287 115.834 21.3437C115.459 21.0662 115.163 20.83 114.945 20.635C114.728 20.4325 114.548 20.1925 114.405 19.915C114.27 19.6375 114.203 19.3112 114.203 18.9362C114.203 18.3512 114.371 17.89 114.709 17.5525C115.046 17.2075 115.485 17.035 116.025 17.035C116.595 17.035 117.049 17.2225 117.386 17.5975C117.731 17.965 117.904 18.4562 117.904 19.0712V19.3525C117.904 19.4275 117.866 19.465 117.791 19.465H117.229C117.154 19.465 117.116 19.4275 117.116 19.3525V19.06C117.116 18.6625 117.015 18.3437 116.813 18.1037C116.618 17.8562 116.355 17.7325 116.025 17.7325C115.725 17.7325 115.478 17.8412 115.283 18.0587C115.088 18.2687 114.99 18.5687 114.99 18.9587C114.99 19.1912 115.031 19.3975 115.114 19.5775C115.204 19.75 115.335 19.915 115.508 20.0725C115.68 20.23 115.935 20.4362 116.273 20.6912C116.723 21.0212 117.056 21.2912 117.274 21.5012C117.499 21.7037 117.671 21.9287 117.791 22.1762C117.911 22.4162 117.971 22.7087 117.971 23.0537C117.971 23.6687 117.795 24.1637 117.443 24.5387C117.09 24.9062 116.636 25.09 116.081 25.09ZM119.22 25C119.145 25 119.108 24.9625 119.108 24.8875V17.2375C119.108 17.1625 119.145 17.125 119.22 17.125H119.794C119.869 17.125 119.907 17.1625 119.907 17.2375V21.76C119.907 21.775 119.914 21.7862 119.929 21.7937C119.944 21.8012 119.955 21.7975 119.963 21.7825L121.65 19.375C121.68 19.33 121.725 19.3075 121.785 19.3075H122.37C122.415 19.3075 122.445 19.3225 122.46 19.3525C122.475 19.375 122.468 19.405 122.438 19.4425L121.324 21.04C121.302 21.0625 121.298 21.085 121.313 21.1075L122.64 24.8762L122.652 24.9212C122.652 24.9737 122.618 25 122.55 25H121.954C121.887 25 121.842 24.97 121.819 24.91L120.818 21.7825C120.81 21.7375 120.788 21.7337 120.75 21.7712L119.929 22.9412C119.914 22.9562 119.907 22.975 119.907 22.9975V24.8875C119.907 24.9625 119.869 25 119.794 25H119.22ZM124.151 18.2725C123.963 18.2725 123.81 18.2125 123.69 18.0925C123.577 17.9725 123.521 17.8225 123.521 17.6425C123.521 17.455 123.577 17.305 123.69 17.1925C123.81 17.0725 123.963 17.0125 124.151 17.0125C124.331 17.0125 124.477 17.0725 124.59 17.1925C124.71 17.305 124.77 17.455 124.77 17.6425C124.77 17.8225 124.71 17.9725 124.59 18.0925C124.477 18.2125 124.331 18.2725 124.151 18.2725ZM123.87 25C123.795 25 123.757 24.9625 123.757 24.8875V19.42C123.757 19.345 123.795 19.3075 123.87 19.3075H124.443C124.518 19.3075 124.556 19.345 124.556 19.42V24.8875C124.556 24.9625 124.518 25 124.443 25H123.87ZM126.052 25C125.977 25 125.94 24.9625 125.94 24.8875V17.2375C125.94 17.1625 125.977 17.125 126.052 17.125H126.626C126.701 17.125 126.739 17.1625 126.739 17.2375V24.8875C126.739 24.9625 126.701 25 126.626 25H126.052ZM128.085 25C128.01 25 127.972 24.9625 127.972 24.8875V17.2375C127.972 17.1625 128.01 17.125 128.085 17.125H128.659C128.734 17.125 128.771 17.1625 128.771 17.2375V24.8875C128.771 24.9625 128.734 25 128.659 25H128.085ZM129.746 25C129.671 25 129.633 24.9625 129.633 24.8875V24.4712C129.633 24.3962 129.671 24.3587 129.746 24.3587H133.256C133.331 24.3587 133.368 24.3962 133.368 24.4712V24.8875C133.368 24.9625 133.331 25 133.256 25H129.746Z" fill="black"/>
<path d="M0 8.1875H166.086V8.7478H0V8.1875Z" fill="black"/>
<path d="M183.032 2.91956V3.06956H183.182V2.91956H183.032ZM182.252 2.91956V2.76956H182.102V2.91956H182.252ZM182.252 11.6372H182.102V11.7872H182.252V11.6372ZM183.032 11.6372H183.182V11.4872H183.032V11.6372ZM183.032 12.8622V13.0122H183.182V12.8622H183.032ZM180.659 12.8622H180.509V13.0122H180.659V12.8622ZM180.659 1.69458V1.54458H180.509V1.69458H180.659ZM183.032 1.69458H183.182V1.54458H183.032V1.69458ZM183.032 2.76956H182.252V3.06956H183.032V2.76956ZM182.102 2.91956V11.6372H182.402V2.91956H182.102ZM182.252 11.7872H183.032V11.4872H182.252V11.7872ZM182.882 11.6372V12.8622H183.182V11.6372H182.882ZM183.032 12.7122H180.659V13.0122H183.032V12.7122ZM180.809 12.8622V1.69458H180.509V12.8622H180.809ZM180.659 1.84458H183.032V1.54458H180.659V1.84458ZM182.882 1.69458V2.91956H183.182V1.69458H182.882ZM188.788 8.1875L188.697 8.30655L188.698 8.3075L188.788 8.1875ZM187.601 7.66016L187.555 7.80273L187.556 7.803L187.601 7.66016ZM186.245 7.11084L186.173 7.24281L186.174 7.24291L186.245 7.11084ZM185.245 3.97424L185.123 3.88656L185.123 3.88681L185.245 3.97424ZM186.294 3.17773L186.236 3.03924L186.236 3.03941L186.294 3.17773ZM189.359 3.2052L189.296 3.3411L189.297 3.34152L189.359 3.2052ZM190.397 4.07861L190.272 4.16041L190.272 4.16126L190.397 4.07861ZM190.771 5.36401V5.51401H190.921V5.36401H190.771ZM189.123 5.36401H188.973V5.51401H189.123V5.36401ZM188.777 4.51257L188.677 4.62469L188.678 4.62557L188.777 4.51257ZM186.865 4.46313L186.956 4.58291L186.957 4.58196L186.865 4.46313ZM186.92 5.78699L186.836 5.91126L186.837 5.91179L186.92 5.78699ZM188.079 6.28137L188.036 6.42496L188.036 6.42502L188.079 6.28137ZM189.985 10.5221L190.075 10.6422L190.076 10.6418L189.985 10.5221ZM186.19 10.7748L186.128 10.9116L186.129 10.912L186.19 10.7748ZM185.031 9.84644L184.906 9.93018L184.907 9.93097L185.031 9.84644ZM184.635 8.48413V8.33413H184.485V8.48413H184.635ZM186.289 8.48413H186.439V8.33413H186.289V8.48413ZM188.788 9.57178L188.875 9.69371L188.877 9.69274L188.788 9.57178ZM189.268 8.90161C189.268 8.55032 189.141 8.26468 188.878 8.0675L188.698 8.3075C188.875 8.43991 188.968 8.63034 188.968 8.90161H189.268ZM188.879 8.06846C188.637 7.88308 188.22 7.701 187.647 7.51731L187.556 7.803C188.125 7.98553 188.499 8.15501 188.697 8.30654L188.879 8.06846ZM187.648 7.51758C187.081 7.33217 186.638 7.15228 186.316 6.97877L186.174 7.24291C186.518 7.42829 186.979 7.6146 187.555 7.80273L187.648 7.51758ZM186.316 6.97887C185.442 6.50686 185.032 5.88986 185.032 5.12781H184.732C184.732 6.02835 185.23 6.73338 186.173 7.24281L186.316 6.97887ZM185.032 5.12781C185.032 4.72564 185.144 4.37198 185.367 4.06168L185.123 3.88681C184.862 4.25033 184.732 4.66572 184.732 5.12781H185.032ZM185.367 4.06192C185.593 3.74741 185.919 3.49768 186.352 3.31606L186.236 3.03941C185.761 3.23865 185.387 3.51992 185.123 3.88656L185.367 4.06192ZM186.352 3.31623C186.789 3.13442 187.281 3.04209 187.832 3.04209V2.74209C187.248 2.74209 186.715 2.84019 186.236 3.03924L186.352 3.31623ZM187.832 3.04209C188.385 3.04209 188.872 3.14301 189.296 3.3411L189.423 3.0693C188.953 2.84991 188.422 2.74209 187.832 2.74209V3.04209ZM189.297 3.34152C189.72 3.5359 190.043 3.80918 190.272 4.1604L190.523 3.99682C190.261 3.59365 189.892 3.28466 189.422 3.06888L189.297 3.34152ZM190.272 4.16126C190.504 4.5124 190.621 4.91177 190.621 5.36401H190.921C190.921 4.85679 190.789 4.39922 190.523 3.99597L190.272 4.16126ZM190.771 5.21401H189.123V5.51401H190.771V5.21401ZM189.273 5.36401C189.273 4.96378 189.145 4.63506 188.876 4.39958L188.678 4.62557C188.87 4.79291 188.973 5.03183 188.973 5.36401H189.273ZM188.877 4.40046C188.61 4.1635 188.246 4.05496 187.805 4.05496V4.35496C188.199 4.35496 188.482 4.45149 188.677 4.62468L188.877 4.40046ZM187.805 4.05496C187.383 4.05496 187.033 4.14493 186.774 4.34431L186.957 4.58196C187.145 4.43711 187.421 4.35496 187.805 4.35496V4.05496ZM186.775 4.34337C186.514 4.54 186.38 4.80761 186.38 5.1333H186.68C186.68 4.90235 186.77 4.72319 186.956 4.5829L186.775 4.34337ZM186.38 5.1333C186.38 5.45386 186.545 5.71418 186.836 5.91125L187.004 5.66272C186.776 5.50823 186.68 5.33276 186.68 5.1333H186.38ZM186.837 5.91179C187.119 6.09944 187.521 6.26936 188.036 6.42496L188.123 6.13778C187.62 5.98577 187.249 5.8261 187.003 5.66218L186.837 5.91179ZM188.036 6.42502C188.964 6.70397 189.62 7.04481 190.024 7.438L190.233 7.22313C189.78 6.78136 189.07 6.42274 188.123 6.13773L188.036 6.42502ZM190.024 7.438C190.422 7.82599 190.621 8.30668 190.621 8.89062H190.921C190.921 8.22945 190.692 7.67011 190.233 7.22313L190.024 7.438ZM190.621 8.89062C190.621 9.53873 190.379 10.037 189.895 10.4024L190.076 10.6418C190.639 10.2162 190.921 9.6268 190.921 8.89062H190.621ZM189.896 10.402C189.406 10.7686 188.736 10.9599 187.871 10.9599V11.2599C188.778 11.2599 189.518 11.0593 190.075 10.6422L189.896 10.402ZM187.871 10.9599C187.274 10.9599 186.735 10.8516 186.25 10.6376L186.129 10.912C186.656 11.1447 187.237 11.2599 187.871 11.2599V10.9599ZM186.251 10.638C185.767 10.4203 185.404 10.1273 185.155 9.7619L184.907 9.93097C185.192 10.3493 185.602 10.6751 186.128 10.9116L186.251 10.638ZM185.155 9.76269C184.91 9.39791 184.785 8.97356 184.785 8.48413H184.485C184.485 9.02742 184.624 9.51127 184.906 9.93018L185.155 9.76269ZM184.635 8.63413H186.289V8.33413H184.635V8.63413ZM186.139 8.48413C186.139 8.95625 186.281 9.33522 186.588 9.59206C186.89 9.84461 187.326 9.95798 187.871 9.95798V9.65798C187.361 9.65798 187.006 9.55072 186.78 9.36198C186.56 9.17754 186.439 8.89458 186.439 8.48413H186.139ZM187.871 9.95798C188.28 9.95798 188.621 9.87597 188.875 9.6937L188.701 9.44985C188.515 9.58252 188.245 9.65798 187.871 9.65798V9.95798ZM188.877 9.69274C189.137 9.50178 189.268 9.23233 189.268 8.90161H188.968C188.968 9.14219 188.878 9.31951 188.699 9.45082L188.877 9.69274ZM193.516 10.3079L193.411 10.415L193.412 10.4154L193.516 10.3079ZM193.044 6.4187L193.179 6.48494L193.179 6.48453L193.044 6.4187ZM194.022 5.33105L194.099 5.45968L194.099 5.45948L194.022 5.33105ZM197.389 5.71558L197.278 5.81636L197.278 5.81679L197.389 5.71558ZM198.092 8.54456V8.69456H198.242V8.54456H198.092ZM194.307 8.54456V8.39456H194.136L194.159 8.5642L194.307 8.54456ZM194.769 9.47839L194.668 9.5891L194.668 9.58981L194.769 9.47839ZM197.186 9.16528L197.298 9.06537L197.178 8.93111L197.067 9.07326L197.186 9.16528ZM197.966 10.0387L198.088 10.1253L198.157 10.0278L198.078 9.93878L197.966 10.0387ZM196.999 10.8297L197.062 10.966L197.063 10.9655L196.999 10.8297ZM194.698 6.55054L194.588 6.44832L194.587 6.44935L194.698 6.55054ZM194.324 7.4624L194.175 7.44177L194.152 7.6124H194.324V7.4624ZM196.532 7.4624V7.6124H196.682V7.4624H196.532ZM196.532 7.33606L196.682 7.33606L196.682 7.33294L196.532 7.33606ZM196.247 6.52307L196.137 6.62601L196.138 6.62704L196.247 6.52307ZM195.648 10.9599C194.81 10.9599 194.139 10.704 193.621 10.2004L193.412 10.4154C193.993 10.9811 194.743 11.2599 195.648 11.2599V10.9599ZM193.621 10.2007C193.109 9.69894 192.848 9.0278 192.848 8.17102H192.548C192.548 9.09402 192.832 9.84745 193.411 10.415L193.621 10.2007ZM192.848 8.17102V8.01721H192.548V8.17102H192.848ZM192.848 8.01721C192.848 7.43997 192.959 6.93032 193.179 6.48494L192.909 6.35246C192.667 6.84458 192.548 7.4006 192.548 8.01721H192.848ZM193.179 6.48453C193.398 6.03625 193.705 5.69638 194.099 5.45968L193.945 5.20243C193.497 5.4711 193.152 5.85632 192.909 6.35288L193.179 6.48453ZM194.099 5.45948C194.499 5.21854 194.955 5.09653 195.472 5.09653V4.79653C194.905 4.79653 194.395 4.93088 193.944 5.20263L194.099 5.45948ZM195.472 5.09653C196.251 5.09653 196.846 5.34053 197.278 5.81636L197.5 5.61479C197.002 5.06523 196.319 4.79653 195.472 4.79653V5.09653ZM197.278 5.81679C197.714 6.29329 197.942 6.97919 197.942 7.89636H198.242C198.242 6.93121 198.002 6.16325 197.5 5.61436L197.278 5.81679ZM197.942 7.89636V8.54456H198.242V7.89636H197.942ZM198.092 8.39456H194.307V8.69456H198.092V8.39456ZM194.159 8.5642C194.214 8.98264 194.382 9.32787 194.668 9.5891L194.87 9.36769C194.643 9.16017 194.503 8.88284 194.456 8.52491L194.159 8.5642ZM194.668 9.58981C194.96 9.85228 195.325 9.97996 195.752 9.97996V9.67996C195.389 9.67996 195.098 9.57326 194.869 9.36698L194.668 9.58981ZM195.752 9.97996C196.405 9.97996 196.929 9.74062 197.304 9.25731L197.067 9.07326C196.754 9.47617 196.322 9.67996 195.752 9.67996V9.97996ZM197.074 9.2652L197.854 10.1386L198.078 9.93878L197.298 9.06537L197.074 9.2652ZM197.843 9.95214C197.622 10.266 197.321 10.5135 196.936 10.6939L197.063 10.9655C197.491 10.7651 197.834 10.4853 198.088 10.1253L197.843 9.95214ZM196.937 10.6934C196.552 10.8702 196.123 10.9599 195.648 10.9599V11.2599C196.162 11.2599 196.634 11.1627 197.062 10.966L196.937 10.6934ZM195.467 6.08193C195.114 6.08193 194.816 6.20266 194.588 6.44832L194.807 6.65275C194.974 6.47361 195.189 6.38193 195.467 6.38193V6.08193ZM194.587 6.44935C194.366 6.69132 194.233 7.0275 194.175 7.44177L194.473 7.48304C194.525 7.10629 194.641 6.83456 194.808 6.65172L194.587 6.44935ZM194.324 7.6124H196.532V7.3124H194.324V7.6124ZM196.682 7.4624V7.33606H196.382V7.4624H196.682ZM196.682 7.33294C196.674 6.95643 196.572 6.64467 196.355 6.4191L196.138 6.62704C196.288 6.78234 196.375 7.01256 196.382 7.33918L196.682 7.33294ZM196.356 6.42014C196.137 6.18854 195.833 6.08193 195.467 6.08193V6.38193C195.774 6.38193 195.99 6.46942 196.137 6.626L196.356 6.42014ZM204.848 10.2859L204.728 10.1955L204.728 10.1956L204.848 10.2859ZM201.711 10.4836L201.823 10.3842L201.561 10.0881V10.4836H201.711ZM201.711 13.2852V13.4352H201.861V13.2852H201.711ZM200.124 13.2852H199.974V13.4352H200.124V13.2852ZM200.124 5.0564V4.9064H199.974V5.0564H200.124ZM201.596 5.0564L201.745 5.04231L201.732 4.9064H201.596V5.0564ZM201.651 5.63867L201.501 5.65276L201.535 6.01156L201.766 5.7347L201.651 5.63867ZM203.59 6.68787L203.464 6.76929L203.465 6.77036L203.59 6.68787ZM201.711 6.80872L201.577 6.74267L201.561 6.77392V6.80872H201.711ZM201.711 9.24219H201.561V9.2773L201.577 9.30877L201.711 9.24219ZM205.324 8.08313C205.324 8.97649 205.12 9.67582 204.728 10.1955L204.967 10.3763C205.41 9.79 205.624 9.02083 205.624 8.08313H205.324ZM204.728 10.1956C204.343 10.7061 203.828 10.9599 203.167 10.9599V11.2599C203.919 11.2599 204.525 10.9643 204.968 10.3761L204.728 10.1956ZM203.167 10.9599C202.605 10.9599 202.162 10.7668 201.823 10.3842L201.599 10.5831C202 11.0354 202.527 11.2599 203.167 11.2599V10.9599ZM201.561 10.4836V13.2852H201.861V10.4836H201.561ZM201.711 13.1352H200.124V13.4352H201.711V13.1352ZM200.274 13.2852V5.0564H199.974V13.2852H200.274ZM200.124 5.2064H201.596V4.9064H200.124V5.2064ZM201.446 5.07048L201.501 5.65276L201.8 5.62458L201.745 5.04231L201.446 5.07048ZM201.766 5.7347C202.121 5.30865 202.58 5.09653 203.156 5.09653V4.79653C202.494 4.79653 201.95 5.04584 201.536 5.54264L201.766 5.7347ZM203.156 5.09653C203.846 5.09653 204.369 5.34872 204.744 5.84952L204.984 5.66952C204.547 5.08634 203.931 4.79653 203.156 4.79653V5.09653ZM204.744 5.84952C205.125 6.35689 205.324 7.06822 205.324 8.00073H205.624C205.624 7.02895 205.417 6.24614 204.984 5.66952L204.744 5.84952ZM205.324 8.00073V8.08313H205.624V8.00073H205.324ZM204.036 7.96777C204.036 7.40011 203.936 6.94004 203.715 6.60537L203.465 6.77036C203.64 7.03628 203.736 7.42948 203.736 7.96777H204.036ZM203.716 6.60644C203.493 6.26114 203.16 6.08743 202.738 6.08743V6.38743C203.064 6.38743 203.299 6.514 203.464 6.76929L203.716 6.60644ZM202.738 6.08743C202.471 6.08743 202.234 6.13862 202.035 6.24916C201.835 6.36049 201.682 6.52715 201.577 6.74267L201.846 6.87476C201.927 6.70942 202.039 6.59044 202.181 6.51134C202.325 6.43145 202.508 6.38743 202.738 6.38743V6.08743ZM201.561 6.80872V9.24219H201.861V6.80872H201.561ZM201.577 9.30877C201.686 9.52879 201.841 9.69934 202.042 9.81355C202.243 9.92711 202.481 9.97996 202.749 9.97996V9.67996C202.52 9.67996 202.336 9.63484 202.19 9.55248C202.046 9.47077 201.931 9.34743 201.846 9.17561L201.577 9.30877ZM202.749 9.97996C203.178 9.97996 203.512 9.79981 203.73 9.44258C203.941 9.09739 204.036 8.59888 204.036 7.96777H203.736C203.736 8.57812 203.642 9.01071 203.474 9.28624C203.313 9.54974 203.079 9.67996 202.749 9.67996V9.97996ZM216.931 11V11.15H217.081V11H216.931ZM211.448 11H211.298V11.15H211.448V11ZM211.448 9.91235L211.339 9.80972L211.298 9.853V9.91235H211.448ZM214.036 7.15479L214.145 7.25743L214.146 7.25605L214.036 7.15479ZM214.821 6.13855L214.692 6.06185L214.692 6.06307L214.821 6.13855ZM214.81 4.47961L214.697 4.57839L214.698 4.5794L214.81 4.47961ZM213.19 4.54553L213.075 4.44917L213.075 4.44934L213.19 4.54553ZM212.882 5.51782V5.66782H213.032V5.51782H212.882ZM211.289 5.51782H211.139V5.66782H211.289V5.51782ZM211.635 4.18298L211.505 4.10755L211.505 4.10844L211.635 4.18298ZM212.624 3.23816L212.695 3.37045L212.695 3.36997L212.624 3.23816ZM215.986 3.48535L215.887 3.59846L215.888 3.59885L215.986 3.48535ZM215.31 7.80298L215.419 7.90622L215.421 7.9041L215.31 7.80298ZM213.492 9.72009L213.383 9.61687L213.143 9.87009H213.492V9.72009ZM216.931 9.72009H217.081V9.57009H216.931V9.72009ZM216.931 10.85H211.448V11.15H216.931V10.85ZM211.598 11V9.91235H211.298V11H211.598ZM211.558 10.015L214.145 7.25742L213.926 7.05215L211.339 9.80972L211.558 10.015ZM214.146 7.25605C214.505 6.8639 214.775 6.51627 214.951 6.21403L214.692 6.06307C214.531 6.33945 214.277 6.6693 213.925 7.05352L214.146 7.25605ZM214.95 6.21524C215.132 5.90943 215.229 5.60843 215.229 5.31458H214.929C214.929 5.54074 214.855 5.78906 214.692 6.06186L214.95 6.21524ZM215.229 5.31458C215.229 4.93445 215.133 4.61647 214.922 4.37983L214.698 4.5794C214.846 4.74559 214.929 4.98425 214.929 5.31458H215.229ZM214.923 4.38084C214.709 4.13607 214.407 4.022 214.041 4.022V4.322C214.342 4.322 214.553 4.413 214.697 4.57839L214.923 4.38084ZM214.041 4.022C213.643 4.022 213.315 4.16233 213.075 4.44917L213.305 4.64189C213.482 4.43069 213.721 4.322 214.041 4.322V4.022ZM213.075 4.44934C212.842 4.72809 212.732 5.0892 212.732 5.51782H213.032C213.032 5.14078 213.128 4.8537 213.305 4.64173L213.075 4.44934ZM212.882 5.36782H211.289V5.66782H212.882V5.36782ZM211.439 5.51782C211.439 5.05558 211.548 4.63654 211.765 4.25753L211.505 4.10844C211.261 4.5351 211.139 5.00595 211.139 5.51782H211.439ZM211.765 4.25842C211.985 3.88047 212.293 3.58484 212.695 3.37045L212.553 3.10587C212.105 3.34558 211.754 3.67983 211.505 4.10755L211.765 4.25842ZM212.695 3.36997C213.096 3.1525 213.552 3.04209 214.069 3.04209V2.74209C213.508 2.74209 213.002 2.86239 212.552 3.10634L212.695 3.36997ZM214.069 3.04209C214.87 3.04209 215.469 3.23426 215.887 3.59846L216.084 3.37224C215.594 2.94543 214.915 2.74209 214.069 2.74209V3.04209ZM215.888 3.59885C216.306 3.96035 216.522 4.4737 216.522 5.16077H216.822C216.822 4.40497 216.581 3.80137 216.084 3.37185L215.888 3.59885ZM216.522 5.16077C216.522 5.52954 216.427 5.90953 216.231 6.30218L216.499 6.43634C216.713 6.00868 216.822 5.58301 216.822 5.16077H216.522ZM216.231 6.30218C216.034 6.69478 215.693 7.161 215.199 7.70186L215.421 7.9041C215.923 7.35365 216.285 6.86406 216.499 6.43634L216.231 6.30218ZM215.201 7.69976L213.383 9.61687L213.601 9.82332L215.419 7.9062L215.201 7.69976ZM213.492 9.87009H216.931V9.57009H213.492V9.87009ZM216.781 9.72009V11H217.081V9.72009H216.781ZM219.011 7.77551L218.861 7.77551L218.861 7.77705L219.011 7.77551ZM219.703 3.76001L219.587 3.66603L219.586 3.66649L219.703 3.76001ZM223.708 3.75452L223.591 3.8484L223.591 3.84877L223.708 3.75452ZM224.417 6.22095L224.567 6.22095L224.567 6.21941L224.417 6.22095ZM222.554 4.63342L222.425 4.70969L222.426 4.71151L222.554 4.63342ZM220.879 4.61145L220.752 4.53239L220.751 4.53284L220.879 4.61145ZM220.599 5.95728L220.449 5.95458V5.95728H220.599ZM220.863 9.35754L220.731 9.43001L220.732 9.4318L220.863 9.35754ZM222.829 7.97876L222.979 7.98051V7.97876H222.829ZM224.267 7.69312C224.267 8.78124 224.041 9.58917 223.612 10.1386L223.848 10.3233C224.334 9.70087 224.567 8.81691 224.567 7.69312H224.267ZM223.612 10.1386C223.188 10.6812 222.566 10.9599 221.719 10.9599V11.2599C222.639 11.2599 223.357 10.9526 223.848 10.3233L223.612 10.1386ZM221.719 10.9599C220.884 10.9599 220.265 10.6864 219.837 10.1536L219.603 10.3413C220.098 10.9584 220.812 11.2599 221.719 11.2599V10.9599ZM219.837 10.1536C219.404 9.61441 219.172 8.82817 219.161 7.77398L218.861 7.77705C218.873 8.86885 219.113 9.73057 219.603 10.3413L219.837 10.1536ZM219.161 7.77551V6.30334H218.861V7.77551H219.161ZM219.161 6.30334C219.161 5.20385 219.389 4.39503 219.821 3.85353L219.586 3.66649C219.095 4.28221 218.861 5.16895 218.861 6.30334H219.161ZM219.82 3.85398C220.252 3.31715 220.874 3.04209 221.708 3.04209V2.74209C220.8 2.74209 220.085 3.04564 219.587 3.66604L219.82 3.85398ZM221.708 3.04209C222.544 3.04209 223.163 3.31556 223.591 3.8484L223.825 3.66063C223.33 3.04357 222.616 2.74209 221.708 2.74209V3.04209ZM223.591 3.84877C224.024 4.38408 224.256 5.1682 224.267 6.22248L224.567 6.21941C224.555 5.12769 224.315 4.26754 223.825 3.66027L223.591 3.84877ZM224.267 6.22095V7.69312H224.567V6.22095H224.267ZM222.979 6.07812C222.979 5.40829 222.888 4.89204 222.683 4.55533L222.426 4.71151C222.587 4.9754 222.679 5.42228 222.679 6.07812H222.979ZM222.684 4.55717C222.474 4.20277 222.14 4.02749 221.708 4.02749V4.32749C222.046 4.32749 222.276 4.45616 222.425 4.70968L222.684 4.55717ZM221.708 4.02749C221.289 4.02749 220.961 4.19407 220.752 4.53239L221.006 4.69051C221.156 4.45021 221.381 4.32749 221.708 4.32749V4.02749ZM220.751 4.53284C220.554 4.85333 220.46 5.33505 220.449 5.95458L220.749 5.95997C220.76 5.35636 220.852 4.94085 221.007 4.69006L220.751 4.53284ZM220.449 5.95728V7.90186H220.749V5.95728H220.449ZM220.449 7.90186C220.449 8.56188 220.537 9.07791 220.731 9.43001L220.994 9.28508C220.837 8.99997 220.749 8.54554 220.749 7.90186H220.449ZM220.732 9.4318C220.941 9.79803 221.279 9.97996 221.719 9.97996V9.67996C221.376 9.67996 221.143 9.54694 220.993 9.28329L220.732 9.4318ZM221.719 9.97996C222.154 9.97996 222.488 9.80494 222.69 9.44794L222.429 9.30011C222.287 9.55102 222.061 9.67996 221.719 9.67996V9.97996ZM222.69 9.44794C222.881 9.11072 222.972 8.61487 222.979 7.98051L222.679 7.97701C222.672 8.59509 222.583 9.02941 222.429 9.30011L222.69 9.44794ZM222.979 7.97876V6.07812H222.679V7.97876H222.979ZM230.474 11V11.15H230.624V11H230.474ZM228.887 11H228.737V11.15H228.887V11ZM228.887 4.88062H229.037V4.67704L228.843 4.73735L228.887 4.88062ZM226.992 5.46838H226.842V5.67195L227.036 5.61165L226.992 5.46838ZM226.992 4.17749L226.941 4.03628L226.842 4.07189V4.17749H226.992ZM230.304 2.99097V2.84097H230.278L230.254 2.84975L230.304 2.99097ZM230.474 2.99097H230.624V2.84097H230.474V2.99097ZM230.474 10.85H228.887V11.15H230.474V10.85ZM229.037 11V4.88062H228.737V11H229.037ZM228.843 4.73735L226.947 5.32512L227.036 5.61165L228.931 5.02388L228.843 4.73735ZM227.142 5.46838V4.17749H226.842V5.46838H227.142ZM227.042 4.3187L230.355 3.13218L230.254 2.84975L226.941 4.03628L227.042 4.3187ZM230.304 3.14097H230.474V2.84097H230.304V3.14097ZM230.324 2.99097V11H230.624V2.99097H230.324ZM238.323 6.88013L238.253 6.74742L237.99 6.88621L238.258 7.0153L238.323 6.88013ZM239.246 7.65466L239.122 7.73976L239.123 7.7404L239.246 7.65466ZM238.861 10.4946L238.958 10.609L238.959 10.6086L238.861 10.4946ZM235.439 6.88013L235.504 7.01556L235.774 6.8869L235.509 6.74742L235.439 6.88013ZM234.637 6.16052L234.511 6.24086L234.511 6.24195L234.637 6.16052ZM235.033 3.50183L235.132 3.61404L235.133 3.61359L235.033 3.50183ZM238.73 3.49634L238.63 3.60855L238.631 3.60939L238.73 3.49634ZM236.071 7.85791L236.178 7.96302L236.179 7.96207L236.071 7.85791ZM237.697 9.52783L237.59 9.42274L237.589 9.42375L237.697 9.52783ZM237.582 4.45764L237.468 4.5558L237.469 4.55688L237.582 4.45764ZM237.582 5.97375L237.467 5.87666L237.466 5.87794L237.582 5.97375ZM239.266 5.12781C239.266 5.48968 239.176 5.80515 238.999 6.0791L239.251 6.24195C239.462 5.91531 239.566 5.5423 239.566 5.12781H239.266ZM238.999 6.0791C238.82 6.35612 238.573 6.57903 238.253 6.74742L238.393 7.01283C238.755 6.82234 239.042 6.56551 239.251 6.24195L238.999 6.0791ZM238.258 7.0153C238.625 7.19164 238.911 7.4333 239.122 7.73976L239.369 7.56957C239.127 7.21685 238.798 6.94215 238.388 6.74496L238.258 7.0153ZM239.123 7.7404C239.33 8.03831 239.437 8.39208 239.437 8.80823H239.737C239.737 8.33815 239.616 7.92288 239.369 7.56892L239.123 7.7404ZM239.437 8.80823C239.437 9.48058 239.21 9.99889 238.764 10.3807L238.959 10.6086C239.48 10.1627 239.737 9.55677 239.737 8.80823H239.437ZM238.764 10.3803C238.316 10.7611 237.696 10.9599 236.889 10.9599V11.2599C237.745 11.2599 238.441 11.0485 238.958 10.609L238.764 10.3803ZM236.889 10.9599C236.083 10.9599 235.462 10.7594 235.009 10.3748L234.815 10.6034C235.336 11.0465 236.033 11.2599 236.889 11.2599V10.9599ZM235.009 10.3748C234.559 9.99274 234.331 9.47625 234.331 8.80823H234.031C234.031 9.55378 234.29 10.1579 234.815 10.6034L235.009 10.3748ZM234.331 8.80823C234.331 8.39211 234.437 8.03617 234.645 7.73427L234.398 7.56407C234.152 7.92135 234.031 8.33812 234.031 8.80823H234.331ZM234.645 7.73427C234.857 7.42774 235.141 7.1881 235.504 7.01556L235.375 6.7447C234.968 6.93836 234.641 7.21142 234.398 7.56407L234.645 7.73427ZM235.509 6.74742C235.19 6.57903 234.942 6.35612 234.763 6.0791L234.511 6.24195C234.72 6.56551 235.008 6.82234 235.369 7.01283L235.509 6.74742ZM234.764 6.08019C234.59 5.80611 234.502 5.49025 234.502 5.12781H234.202C234.202 5.54173 234.303 5.91435 234.511 6.24085L234.764 6.08019ZM234.502 5.12781C234.502 4.48372 234.714 3.98475 235.132 3.61404L234.933 3.38962C234.443 3.82458 234.202 4.40959 234.202 5.12781H234.502ZM235.133 3.61359C235.552 3.238 236.13 3.04209 236.884 3.04209V2.74209C236.078 2.74209 235.421 2.95267 234.933 3.39007L235.133 3.61359ZM236.884 3.04209C237.634 3.04209 238.21 3.23625 238.63 3.60855L238.829 3.38413C238.341 2.95076 237.686 2.74209 236.884 2.74209V3.04209ZM238.631 3.60939C239.052 3.9761 239.266 4.47623 239.266 5.12781H239.566C239.566 4.40244 239.323 3.81492 238.828 3.38328L238.631 3.60939ZM238.144 8.69287C238.144 8.31436 238.033 7.99588 237.799 7.75375L237.583 7.96207C237.753 8.13742 237.844 8.37558 237.844 8.69287H238.144ZM237.799 7.75375C237.565 7.51062 237.252 7.3948 236.878 7.3948V7.6948C237.186 7.6948 237.415 7.78772 237.583 7.96207L237.799 7.75375ZM236.878 7.3948C236.508 7.3948 236.197 7.51094 235.963 7.75375L236.179 7.96207C236.347 7.7874 236.575 7.6948 236.878 7.6948V7.3948ZM235.964 7.7528C235.729 7.99193 235.619 8.3113 235.619 8.69287H235.919C235.919 8.37132 236.01 8.13404 236.178 7.96302L235.964 7.7528ZM235.619 8.69287C235.619 9.06428 235.728 9.37837 235.957 9.62001L236.174 9.41368C236.008 9.23784 235.919 9.00261 235.919 8.69287H235.619ZM235.957 9.62001C236.189 9.86511 236.506 9.97996 236.889 9.97996V9.67996C236.569 9.67996 236.338 9.58606 236.174 9.41368L235.957 9.62001ZM236.889 9.97996C237.264 9.97996 237.576 9.86919 237.805 9.63192L237.589 9.42375C237.429 9.58931 237.203 9.67996 236.889 9.67996V9.97996ZM237.804 9.63292C238.036 9.39666 238.144 9.07673 238.144 8.69287H237.844C237.844 9.01947 237.753 9.25617 237.59 9.42274L237.804 9.63292ZM237.979 5.20471C237.979 4.86635 237.889 4.57892 237.694 4.3584L237.469 4.55688C237.604 4.7099 237.679 4.92052 237.679 5.20471H237.979ZM237.695 4.35949C237.496 4.12976 237.219 4.022 236.884 4.022V4.322C237.15 4.322 237.337 4.40467 237.468 4.5558L237.695 4.35949ZM236.884 4.022C236.554 4.022 236.279 4.1252 236.08 4.34631L236.303 4.547C236.434 4.4019 236.62 4.322 236.884 4.322V4.022ZM236.08 4.34631C235.884 4.56456 235.795 4.85708 235.795 5.20471H236.095C236.095 4.90781 236.17 4.69496 236.303 4.547L236.08 4.34631ZM235.795 5.20471C235.795 5.54967 235.884 5.84335 236.077 6.07084L236.306 5.87667C236.17 5.71597 236.095 5.49696 236.095 5.20471H235.795ZM236.077 6.07084C236.276 6.30463 236.554 6.41489 236.889 6.41489V6.11489C236.624 6.11489 236.437 6.03106 236.306 5.87667L236.077 6.07084ZM236.889 6.41489C237.225 6.41489 237.502 6.30462 237.697 6.06957L237.466 5.87794C237.339 6.03108 237.154 6.11489 236.889 6.11489V6.41489ZM237.696 6.07084C237.889 5.84335 237.979 5.54967 237.979 5.20471H237.679C237.679 5.49696 237.604 5.71597 237.467 5.87667L237.696 6.07084ZM248.868 8.21497V8.36497H249.018V8.21497H248.868ZM245.775 8.21497H245.625V8.36497H245.775V8.21497ZM245.775 6.93506V6.78506H245.625V6.93506H245.775ZM248.868 6.93506H249.018V6.78506H248.868V6.93506ZM248.868 8.06497H245.775V8.36497H248.868V8.06497ZM245.925 8.21497V6.93506H245.625V8.21497H245.925ZM245.775 7.08506H248.868V6.78506H245.775V7.08506ZM248.718 6.93506V8.21497H249.018V6.93506H248.718ZM256.946 8.18201V8.03201H256.796V8.18201H256.946ZM256.946 11V11.15H257.096V11H256.946ZM255.298 11H255.148V11.15H255.298V11ZM255.298 3.00195V2.85195H255.148V3.00195H255.298ZM260 3.33154L259.935 3.46657L259.935 3.46677L260 3.33154ZM261.055 4.27087L260.927 4.34839L260.927 4.3489L261.055 4.27087ZM260.615 7.50635L260.712 7.62106L260.712 7.621L260.615 7.50635ZM256.946 6.84717H256.796V6.99717H256.946V6.84717ZM259.412 6.53955L259.313 6.42744L259.312 6.42824L259.412 6.53955ZM258.457 4.33679L258.459 4.18679H258.457V4.33679ZM256.946 4.33679V4.18679H256.796V4.33679H256.946ZM256.796 8.18201V11H257.096V8.18201H256.796ZM256.946 10.85H255.298V11.15H256.946V10.85ZM255.448 11V3.00195H255.148V11H255.448ZM255.298 3.15195H258.418V2.85195H255.298V3.15195ZM258.418 3.15195C259 3.15195 259.505 3.2584 259.935 3.46657L260.066 3.19652C259.588 2.96523 259.037 2.85195 258.418 2.85195V3.15195ZM259.935 3.46677C260.369 3.67478 260.697 3.96867 260.927 4.34839L261.183 4.19336C260.922 3.76009 260.547 3.42776 260.065 3.19631L259.935 3.46677ZM260.927 4.3489C261.157 4.72603 261.273 5.15813 261.273 5.64966H261.573C261.573 5.10847 261.444 4.62139 261.183 4.19285L260.927 4.3489ZM261.273 5.64966C261.273 6.39476 261.019 6.96952 260.519 7.39169L260.712 7.621C261.288 7.13497 261.573 6.47194 261.573 5.64966H261.273ZM260.519 7.39163C260.02 7.81229 259.317 8.03201 258.391 8.03201V8.33201C259.362 8.33201 260.142 8.10129 260.712 7.62106L260.519 7.39163ZM258.391 8.03201H256.946V8.33201H258.391V8.03201ZM256.946 6.99717H258.418V6.69717H256.946V6.99717ZM258.418 6.99717C258.875 6.99717 259.249 6.88965 259.513 6.65087L259.312 6.42824C259.122 6.59961 258.833 6.69717 258.418 6.69717V6.99717ZM259.512 6.65166C259.782 6.41164 259.909 6.07352 259.909 5.66064H259.609C259.609 6.00949 259.504 6.25731 259.313 6.42744L259.512 6.65166ZM259.909 5.66064C259.909 5.23735 259.783 4.88112 259.521 4.60676L259.304 4.8139C259.504 5.02293 259.609 5.30024 259.609 5.66064H259.909ZM259.521 4.60676C259.257 4.33 258.897 4.1947 258.459 4.18682L258.454 4.48677C258.83 4.49354 259.107 4.60725 259.304 4.8139L259.521 4.60676ZM258.457 4.18679H256.946V4.48679H258.457V4.18679ZM256.796 4.33679V6.84717H257.096V4.33679H256.796ZM266.921 6.54504L266.9 6.69368L267.068 6.71642L267.071 6.5472L266.921 6.54504ZM265.168 7.11084L265.032 7.04821L265.018 7.07803V7.11084H265.168ZM265.168 11V11.15H265.318V11H265.168ZM263.581 11H263.431V11.15H263.581V11ZM263.581 5.0564V4.9064H263.431V5.0564H263.581ZM265.08 5.0564L265.23 5.04711L265.221 4.9064H265.08V5.0564ZM265.124 5.76501L264.975 5.7743L265.005 6.26661L265.254 5.84065L265.124 5.76501ZM266.943 5.01794L267.092 5.0201L267.094 4.90785L266.987 4.87465L266.943 5.01794ZM266.941 6.3964C266.72 6.36647 266.523 6.3511 266.349 6.3511V6.6511C266.506 6.6511 266.689 6.66502 266.9 6.69368L266.941 6.3964ZM266.349 6.3511C265.714 6.3511 265.252 6.56979 265.032 7.04821L265.305 7.17346C265.458 6.8389 265.783 6.6511 266.349 6.6511V6.3511ZM265.018 7.11084V11H265.318V7.11084H265.018ZM265.168 10.85H263.581V11.15H265.168V10.85ZM263.731 11V5.0564H263.431V11H263.731ZM263.581 5.2064H265.08V4.9064H263.581V5.2064ZM264.931 5.06568L264.975 5.7743L265.274 5.75573L265.23 5.04711L264.931 5.06568ZM265.254 5.84065C265.549 5.33438 265.945 5.09653 266.448 5.09653V4.79653C265.824 4.79653 265.336 5.10435 264.995 5.68938L265.254 5.84065ZM266.448 5.09653C266.61 5.09653 266.76 5.11846 266.898 5.16124L266.987 4.87465C266.817 4.82221 266.638 4.79653 266.448 4.79653V5.09653ZM266.793 5.01579L266.771 6.54289L267.071 6.5472L267.092 5.0201L266.793 5.01579ZM269.309 10.3079L269.204 10.415L269.204 10.4154L269.309 10.3079ZM268.837 6.4187L268.971 6.48494L268.971 6.48453L268.837 6.4187ZM269.814 5.33105L269.892 5.45968L269.892 5.45948L269.814 5.33105ZM273.182 5.71558L273.071 5.81636L273.071 5.81679L273.182 5.71558ZM273.885 8.54456V8.69456H274.035V8.54456H273.885ZM270.1 8.54456V8.39456H269.929L269.951 8.5642L270.1 8.54456ZM270.561 9.47839L270.46 9.5891L270.461 9.58981L270.561 9.47839ZM272.978 9.16528L273.09 9.06537L272.97 8.93111L272.86 9.07326L272.978 9.16528ZM273.758 10.0387L273.881 10.1253L273.95 10.0278L273.87 9.93878L273.758 10.0387ZM272.792 10.8297L272.854 10.966L272.855 10.9655L272.792 10.8297ZM270.49 6.55054L270.38 6.44832L270.379 6.44935L270.49 6.55054ZM270.116 7.4624L269.968 7.44177L269.944 7.6124H270.116V7.4624ZM272.325 7.4624V7.6124H272.475V7.4624H272.325ZM272.325 7.33606L272.475 7.33606L272.475 7.33294L272.325 7.33606ZM272.039 6.52307L271.93 6.62601L271.931 6.62704L272.039 6.52307ZM271.44 10.9599C270.602 10.9599 269.931 10.704 269.414 10.2004L269.204 10.4154C269.786 10.9811 270.535 11.2599 271.44 11.2599V10.9599ZM269.414 10.2007C268.902 9.69894 268.64 9.0278 268.64 8.17102H268.34C268.34 9.09402 268.625 9.84745 269.204 10.415L269.414 10.2007ZM268.64 8.17102V8.01721H268.34V8.17102H268.64ZM268.64 8.01721C268.64 7.43997 268.752 6.93032 268.971 6.48494L268.702 6.35246C268.46 6.84458 268.34 7.4006 268.34 8.01721H268.64ZM268.971 6.48453C269.19 6.03625 269.497 5.69638 269.892 5.45968L269.737 5.20243C269.289 5.4711 268.944 5.85632 268.702 6.35288L268.971 6.48453ZM269.892 5.45948C270.291 5.21854 270.747 5.09653 271.265 5.09653V4.79653C270.698 4.79653 270.187 4.93088 269.737 5.20263L269.892 5.45948ZM271.265 5.09653C272.043 5.09653 272.639 5.34053 273.071 5.81636L273.293 5.61479C272.794 5.06523 272.112 4.79653 271.265 4.79653V5.09653ZM273.071 5.81679C273.507 6.29329 273.735 6.97919 273.735 7.89636H274.035C274.035 6.93121 273.794 6.16325 273.292 5.61436L273.071 5.81679ZM273.735 7.89636V8.54456H274.035V7.89636H273.735ZM273.885 8.39456H270.1V8.69456H273.885V8.39456ZM269.951 8.5642C270.007 8.98264 270.174 9.32787 270.46 9.5891L270.663 9.36769C270.436 9.16017 270.296 8.88284 270.249 8.52491L269.951 8.5642ZM270.461 9.58981C270.752 9.85228 271.117 9.97996 271.545 9.97996V9.67996C271.181 9.67996 270.891 9.57326 270.662 9.36698L270.461 9.58981ZM271.545 9.97996C272.198 9.97996 272.721 9.74062 273.097 9.25731L272.86 9.07326C272.547 9.47617 272.115 9.67996 271.545 9.67996V9.97996ZM272.867 9.2652L273.647 10.1386L273.87 9.93878L273.09 9.06537L272.867 9.2652ZM273.636 9.95214C273.414 10.266 273.113 10.5135 272.728 10.6939L272.855 10.9655C273.283 10.7651 273.627 10.4853 273.881 10.1253L273.636 9.95214ZM272.729 10.6934C272.344 10.8702 271.915 10.9599 271.44 10.9599V11.2599C271.954 11.2599 272.426 11.1627 272.854 10.966L272.729 10.6934ZM271.259 6.08193C270.906 6.08193 270.609 6.20266 270.38 6.44832L270.6 6.65275C270.767 6.47361 270.982 6.38193 271.259 6.38193V6.08193ZM270.379 6.44935C270.158 6.69132 270.025 7.0275 269.968 7.44177L270.265 7.48304C270.317 7.10629 270.434 6.83456 270.601 6.65172L270.379 6.44935ZM270.116 7.6124H272.325V7.3124H270.116V7.6124ZM272.475 7.4624V7.33606H272.175V7.4624H272.475ZM272.475 7.33294C272.467 6.95643 272.364 6.64467 272.147 6.4191L271.931 6.62704C272.08 6.78234 272.168 7.01256 272.175 7.33918L272.475 7.33294ZM272.148 6.42014C271.93 6.18854 271.626 6.08193 271.259 6.08193V6.38193C271.566 6.38193 271.782 6.46942 271.93 6.626L272.148 6.42014ZM278.844 8.90161L278.767 9.03049L278.77 9.03215L278.844 8.90161ZM277.921 8.59949L277.89 8.74629L277.891 8.74638L277.921 8.59949ZM276.454 5.47937L276.549 5.59612L276.549 5.59602L276.454 5.47937ZM279.981 5.47937L279.888 5.59715L279.889 5.59752L279.981 5.47937ZM280.662 6.86365V7.01365H280.812V6.86365H280.662ZM279.075 6.86365H278.925V7.01365H279.075V6.86365ZM278.855 6.30334L278.748 6.4081L278.749 6.40941L278.855 6.30334ZM277.575 7.14929L277.492 7.27414L277.495 7.27618L277.575 7.14929ZM278.421 7.42944L278.391 7.57643L278.392 7.57669L278.421 7.42944ZM279.421 7.69312L279.472 7.55229L279.472 7.5522L279.421 7.69312ZM279.981 10.61L280.068 10.7319L280.069 10.7315L279.981 10.61ZM276.85 10.8462L276.787 10.9821L276.788 10.9828L276.85 10.8462ZM275.944 10.1156L275.821 10.2021L275.822 10.2028L275.944 10.1156ZM275.614 9.11035V8.96035H275.464V9.11035H275.614ZM277.119 9.11035L277.269 9.10257L277.262 8.96035H277.119V9.11035ZM278.899 9.81348L278.988 9.93416L278.988 9.93381L278.899 9.81348ZM279.285 9.35754C279.285 9.10037 279.151 8.90279 278.918 8.77107L278.77 9.03215C278.926 9.12016 278.985 9.22653 278.985 9.35754H279.285ZM278.921 8.77277C278.708 8.64595 278.38 8.54128 277.952 8.4526L277.891 8.74638C278.312 8.83348 278.599 8.93022 278.767 9.03045L278.921 8.77277ZM277.952 8.45268C277.257 8.30691 276.755 8.08979 276.428 7.81227C276.107 7.53964 275.951 7.20472 275.951 6.79773H275.651C275.651 7.29528 275.848 7.71292 276.234 8.04088C276.614 8.36395 277.171 8.59544 277.89 8.74629L277.952 8.45268ZM275.951 6.79773C275.951 6.31887 276.146 5.92123 276.549 5.59612L276.36 5.36262C275.892 5.74064 275.651 6.22191 275.651 6.79773H275.951ZM276.549 5.59602C276.955 5.26733 277.493 5.09653 278.174 5.09653V4.79653C277.442 4.79653 276.832 4.98096 276.36 5.36272L276.549 5.59602ZM278.174 5.09653C278.905 5.09653 279.472 5.26856 279.888 5.59715L280.074 5.36159C279.59 4.97973 278.951 4.79653 278.174 4.79653V5.09653ZM279.889 5.59752C280.307 5.92483 280.512 6.343 280.512 6.86365H280.812C280.812 6.24904 280.563 5.74436 280.073 5.36122L279.889 5.59752ZM280.662 6.71365H279.075V7.01365H280.662V6.71365ZM279.225 6.86365C279.225 6.60102 279.138 6.37473 278.961 6.19728L278.749 6.40941C278.864 6.52493 278.925 6.67218 278.925 6.86365H279.225ZM278.962 6.1986C278.776 6.00804 278.501 5.92812 278.168 5.92812V6.22813C278.459 6.22813 278.641 6.29836 278.748 6.40809L278.962 6.1986ZM278.168 5.92812C277.88 5.92812 277.635 5.99316 277.452 6.14369L277.643 6.37511C277.754 6.28394 277.922 6.22813 278.168 6.22813V5.92812ZM277.452 6.14369C277.272 6.29248 277.178 6.48842 277.178 6.72083H277.478C277.478 6.5797 277.53 6.46801 277.643 6.37511L277.452 6.14369ZM277.178 6.72083C277.178 6.95377 277.292 7.14055 277.492 7.2741L277.658 7.02448C277.529 6.93831 277.478 6.83944 277.478 6.72083H277.178ZM277.495 7.27618C277.688 7.39762 277.992 7.49518 278.391 7.57642L278.451 7.28246C278.059 7.20258 277.799 7.11336 277.655 7.0224L277.495 7.27618ZM278.392 7.57669C278.783 7.65263 279.108 7.73868 279.369 7.83403L279.472 7.5522C279.192 7.44979 278.85 7.36007 278.45 7.2822L278.392 7.57669ZM279.369 7.83394C279.77 7.98114 280.059 8.17755 280.246 8.41622C280.433 8.65307 280.529 8.94205 280.529 9.29163H280.829C280.829 8.88315 280.715 8.52667 280.482 8.23069C280.251 7.93652 279.91 7.71271 279.472 7.55229L279.369 7.83394ZM280.529 9.29163C280.529 9.78226 280.322 10.1778 279.893 10.4885L280.069 10.7315C280.57 10.3683 280.829 9.88498 280.829 9.29163H280.529ZM279.894 10.4881C279.461 10.7984 278.893 10.9599 278.179 10.9599V11.2599C278.938 11.2599 279.571 11.088 280.068 10.7319L279.894 10.4881ZM278.179 10.9599C277.699 10.9599 277.278 10.8752 276.912 10.7095L276.788 10.9828C277.199 11.1688 277.664 11.2599 278.179 11.2599V10.9599ZM276.913 10.7103C276.549 10.5404 276.269 10.3125 276.066 10.0284L275.822 10.2028C276.058 10.5339 276.382 10.7931 276.787 10.9821L276.913 10.7103ZM276.066 10.0291C275.863 9.74147 275.764 9.4363 275.764 9.11035H275.464C275.464 9.50218 275.585 9.86717 275.821 10.2021L276.066 10.0291ZM275.614 9.26035H277.119V8.96035H275.614V9.26035ZM276.969 9.11813C276.986 9.43645 277.106 9.69613 277.34 9.87719L277.524 9.6399C277.37 9.52067 277.282 9.34822 277.269 9.10257L276.969 9.11813ZM277.34 9.87719C277.568 10.0534 277.864 10.1338 278.212 10.1338V9.83376C277.909 9.83376 277.684 9.76394 277.524 9.6399L277.34 9.87719ZM278.212 10.1338C278.531 10.1338 278.797 10.075 278.988 9.93416L278.81 9.69279C278.693 9.77899 278.502 9.83376 278.212 9.83376V10.1338ZM278.988 9.93381C279.182 9.79001 279.285 9.59448 279.285 9.35754H278.985C278.985 9.49414 278.931 9.60257 278.809 9.69314L278.988 9.93381ZM283.435 10.3079L283.33 10.415L283.331 10.4154L283.435 10.3079ZM282.963 6.4187L283.097 6.48494L283.098 6.48453L282.963 6.4187ZM283.941 5.33105L284.018 5.45968L284.018 5.45948L283.941 5.33105ZM287.308 5.71558L287.197 5.81636L287.197 5.81679L287.308 5.71558ZM288.011 8.54456V8.69456H288.161V8.54456H288.011ZM284.226 8.54456V8.39456H284.055L284.077 8.5642L284.226 8.54456ZM284.688 9.47839L284.586 9.5891L284.587 9.58981L284.688 9.47839ZM287.105 9.16528L287.216 9.06537L287.097 8.93111L286.986 9.07326L287.105 9.16528ZM287.885 10.0387L288.007 10.1253L288.076 10.0278L287.997 9.93878L287.885 10.0387ZM286.918 10.8297L286.98 10.966L286.981 10.9655L286.918 10.8297ZM284.616 6.55054L284.506 6.44832L284.505 6.44935L284.616 6.55054ZM284.243 7.4624L284.094 7.44177L284.07 7.6124H284.243V7.4624ZM286.451 7.4624V7.6124H286.601V7.4624H286.451ZM286.451 7.33606L286.601 7.33606L286.601 7.33294L286.451 7.33606ZM286.165 6.52307L286.056 6.62601L286.057 6.62704L286.165 6.52307ZM285.567 10.9599C284.728 10.9599 284.057 10.704 283.54 10.2004L283.331 10.4154C283.912 10.9811 284.662 11.2599 285.567 11.2599V10.9599ZM283.54 10.2007C283.028 9.69894 282.767 9.0278 282.767 8.17102H282.467C282.467 9.09402 282.751 9.84745 283.33 10.415L283.54 10.2007ZM282.767 8.17102V8.01721H282.467V8.17102H282.767ZM282.767 8.01721C282.767 7.43997 282.878 6.93032 283.097 6.48494L282.828 6.35246C282.586 6.84458 282.467 7.4006 282.467 8.01721H282.767ZM283.098 6.48453C283.316 6.03625 283.623 5.69638 284.018 5.45968L283.863 5.20243C283.416 5.4711 283.07 5.85632 282.828 6.35288L283.098 6.48453ZM284.018 5.45948C284.417 5.21854 284.873 5.09653 285.391 5.09653V4.79653C284.824 4.79653 284.313 4.93088 283.863 5.20263L284.018 5.45948ZM285.391 5.09653C286.17 5.09653 286.765 5.34053 287.197 5.81636L287.419 5.61479C286.92 5.06523 286.238 4.79653 285.391 4.79653V5.09653ZM287.197 5.81679C287.633 6.29329 287.861 6.97919 287.861 7.89636H288.161C288.161 6.93121 287.92 6.16325 287.419 5.61436L287.197 5.81679ZM287.861 7.89636V8.54456H288.161V7.89636H287.861ZM288.011 8.39456H284.226V8.69456H288.011V8.39456ZM284.077 8.5642C284.133 8.98264 284.301 9.32787 284.586 9.5891L284.789 9.36769C284.562 9.16017 284.422 8.88284 284.375 8.52491L284.077 8.5642ZM284.587 9.58981C284.878 9.85228 285.243 9.97996 285.671 9.97996V9.67996C285.307 9.67996 285.017 9.57326 284.788 9.36698L284.587 9.58981ZM285.671 9.97996C286.324 9.97996 286.848 9.74062 287.223 9.25731L286.986 9.07326C286.673 9.47617 286.241 9.67996 285.671 9.67996V9.97996ZM286.993 9.2652L287.773 10.1386L287.997 9.93878L287.216 9.06537L286.993 9.2652ZM287.762 9.95214C287.54 10.266 287.239 10.5135 286.854 10.6939L286.981 10.9655C287.409 10.7651 287.753 10.4853 288.007 10.1253L287.762 9.95214ZM286.855 10.6934C286.47 10.8702 286.042 10.9599 285.567 10.9599V11.2599C286.08 11.2599 286.552 11.1627 286.98 10.966L286.855 10.6934ZM285.385 6.08193C285.033 6.08193 284.735 6.20266 284.506 6.44832L284.726 6.65275C284.893 6.47361 285.108 6.38193 285.385 6.38193V6.08193ZM284.505 6.44935C284.284 6.69132 284.152 7.0275 284.094 7.44177L284.391 7.48304C284.444 7.10629 284.56 6.83456 284.727 6.65172L284.505 6.44935ZM284.243 7.6124H286.451V7.3124H284.243V7.6124ZM286.601 7.4624V7.33606H286.301V7.4624H286.601ZM286.601 7.33294C286.593 6.95643 286.49 6.64467 286.273 6.4191L286.057 6.62704C286.206 6.78234 286.294 7.01256 286.301 7.33918L286.601 7.33294ZM286.274 6.42014C286.056 6.18854 285.752 6.08193 285.385 6.08193V6.38193C285.692 6.38193 285.908 6.46942 286.056 6.626L286.274 6.42014ZM291.504 5.0564L291.653 5.04562L291.643 4.9064H291.504V5.0564ZM291.553 5.74304L291.403 5.75381L291.431 6.1358L291.67 5.83675L291.553 5.74304ZM295.14 7.16028L295.29 7.16028L295.29 7.15879L295.14 7.16028ZM295.14 11V11.15H295.29V11H295.14ZM293.552 11H293.402V11.15H293.552V11ZM293.333 6.46814L293.224 6.5716L293.225 6.57289L293.333 6.46814ZM291.597 6.80872L291.468 6.73283L291.447 6.76797V6.80872H291.597ZM291.597 11V11.15H291.747V11H291.597ZM290.009 11H289.859V11.15H290.009V11ZM290.009 5.0564V4.9064H289.859V5.0564H290.009ZM291.354 5.06717L291.403 5.75381L291.703 5.73227L291.653 5.04562L291.354 5.06717ZM291.67 5.83675C292.065 5.34333 292.59 5.09653 293.261 5.09653V4.79653C292.504 4.79653 291.891 5.08074 291.436 5.64934L291.67 5.83675ZM293.261 5.09653C293.861 5.09653 294.281 5.27159 294.552 5.59726L294.783 5.40543C294.439 4.99135 293.921 4.79653 293.261 4.79653V5.09653ZM294.552 5.59726C294.829 5.92972 294.983 6.44278 294.99 7.16177L295.29 7.15879C295.283 6.40561 295.122 5.81271 294.783 5.40543L294.552 5.59726ZM294.99 7.16028V11H295.29V7.16028H294.99ZM295.14 10.85H293.552V11.15H295.14V10.85ZM293.702 11V7.19873H293.402V11H293.702ZM293.702 7.19873C293.702 6.84539 293.627 6.55443 293.44 6.36339L293.225 6.57289C293.332 6.68214 293.402 6.87825 293.402 7.19873H293.702ZM293.441 6.36469C293.253 6.16738 292.96 6.08743 292.602 6.08743V6.38743C292.926 6.38743 293.119 6.46128 293.224 6.57159L293.441 6.36469ZM292.602 6.08743C292.103 6.08743 291.718 6.30539 291.468 6.73283L291.726 6.88461C291.922 6.55032 292.208 6.38743 292.602 6.38743V6.08743ZM291.447 6.80872V11H291.747V6.80872H291.447ZM291.597 10.85H290.009V11.15H291.597V10.85ZM290.159 11V5.0564H289.859V11H290.159ZM290.009 5.2064H291.504V4.9064H290.009V5.2064ZM299.374 3.59521H299.524V3.44521H299.374V3.59521ZM299.374 5.0564H299.224V5.2064H299.374V5.0564ZM300.39 5.0564H300.54V4.9064H300.39V5.0564ZM300.39 6.22095V6.37095H300.54V6.22095H300.39ZM299.374 6.22095V6.07095H299.224V6.22095H299.374ZM300.451 9.76404H300.601V9.583L300.423 9.61665L300.451 9.76404ZM300.451 10.967L300.495 11.1105L300.601 11.078V10.967H300.451ZM297.787 9.42346H297.637L297.637 9.42639L297.787 9.42346ZM297.787 6.22095H297.937V6.07095H297.787V6.22095ZM296.919 6.22095H296.769V6.37095H296.919V6.22095ZM296.919 5.0564V4.9064H296.769V5.0564H296.919ZM297.787 5.0564V5.2064H297.937V5.0564H297.787ZM297.787 3.59521V3.44521H297.637V3.59521H297.787ZM299.224 3.59521V5.0564H299.524V3.59521H299.224ZM299.374 5.2064H300.39V4.9064H299.374V5.2064ZM300.24 5.0564V6.22095H300.54V5.0564H300.24ZM300.39 6.07095H299.374V6.37095H300.39V6.07095ZM299.224 6.22095V9.18726H299.524V6.22095H299.224ZM299.224 9.18726C299.224 9.41921 299.267 9.62244 299.388 9.75905L299.613 9.56028C299.565 9.50646 299.524 9.39476 299.524 9.18726H299.224ZM299.388 9.75905C299.518 9.90536 299.737 9.95249 299.984 9.95249V9.65249C299.755 9.65249 299.652 9.6044 299.613 9.56028L299.388 9.75905ZM299.984 9.95249C300.167 9.95249 300.332 9.93919 300.479 9.91142L300.423 9.61665C300.299 9.64015 300.153 9.65249 299.984 9.65249V9.95249ZM300.301 9.76404V10.967H300.601V9.76404H300.301ZM300.407 10.8236C300.11 10.9144 299.804 10.9599 299.49 10.9599V11.2599C299.834 11.2599 300.169 11.2101 300.495 11.1105L300.407 10.8236ZM299.49 10.9599C298.957 10.9599 298.581 10.8255 298.334 10.5817C298.088 10.3376 297.947 9.95969 297.937 9.42053L297.637 9.42639C297.648 10.0115 297.802 10.4768 298.123 10.7948C298.445 11.1132 298.909 11.2599 299.49 11.2599V10.9599ZM297.937 9.42346V6.22095H297.637V9.42346H297.937ZM297.787 6.07095H296.919V6.37095H297.787V6.07095ZM297.069 6.22095V5.0564H296.769V6.22095H297.069ZM296.919 5.2064H297.787V4.9064H296.919V5.2064ZM297.937 5.0564V3.59521H297.637V5.0564H297.937ZM297.787 3.74521H299.374V3.44521H297.787V3.74521ZM301.861 1.69458V1.54458H301.711V1.69458H301.861ZM304.234 1.69458H304.384V1.54458H304.234V1.69458ZM304.234 12.8622V13.0122H304.384V12.8622H304.234ZM301.861 12.8622H301.711V13.0122H301.861V12.8622ZM301.861 11.6372V11.4872H301.711V11.6372H301.861ZM302.647 11.6372V11.7872H302.797V11.6372H302.647ZM302.647 2.91956H302.797V2.76956H302.647V2.91956ZM301.861 2.91956H301.711V3.06956H301.861V2.91956ZM301.861 1.84458H304.234V1.54458H301.861V1.84458ZM304.084 1.69458V12.8622H304.384V1.69458H304.084ZM304.234 12.7122H301.861V13.0122H304.234V12.7122ZM302.011 12.8622V11.6372H301.711V12.8622H302.011ZM301.861 11.7872H302.647V11.4872H301.861V11.7872ZM302.797 11.6372V2.91956H302.497V11.6372H302.797ZM302.647 2.76956H301.861V3.06956H302.647V2.76956ZM302.011 2.91956V1.69458H301.711V2.91956H302.011Z" fill="black"/>
</svg>
