<svg width="378" height="28" viewBox="0 0 378 28" fill="none" xmlns="http://www.w3.org/2000/svg">
<path d="M2.23572 7.3031V9.78601C2.23572 10.0826 2.33643 10.2822 2.53784 10.3848C2.62207 10.4324 2.71362 10.469 2.8125 10.4946C2.91504 10.5203 3.01208 10.5605 3.10364 10.6155V11H0.664673V10.6155C0.741577 10.5605 0.827637 10.5203 0.922852 10.4946C1.02173 10.4653 1.11328 10.4287 1.19751 10.3848C1.39893 10.2822 1.49963 10.0826 1.49963 9.78601V5.34204L2.23572 7.3031ZM1.70837 4.51807C1.64612 4.36426 1.58936 4.22876 1.53809 4.11157C1.44287 4.0896 1.34399 4.06763 1.24146 4.04565C1.14258 4.02368 1.0437 4.00171 0.944824 3.97974C0.732422 3.9248 0.567627 3.87354 0.450439 3.82593V3.19421H3.09814L5.47668 9.42346L5.08118 11H4.13635L1.70837 4.51807ZM5.32288 7.66565L6.44348 3.19421H9.34387V3.6062C9.245 3.64648 9.14978 3.67761 9.05823 3.69958C8.96667 3.7179 8.88428 3.74536 8.81104 3.78198C8.6499 3.86255 8.56934 4.01819 8.56934 4.2489V9.9563C8.56934 10.1833 8.6499 10.3372 8.81104 10.4177C8.88428 10.4543 8.96667 10.4836 9.05823 10.5056C9.14978 10.5239 9.245 10.5532 9.34387 10.5935V11H5.99854V10.5935C6.09741 10.5532 6.19263 10.5239 6.28418 10.5056C6.37939 10.4836 6.46362 10.4543 6.53687 10.4177C6.70166 10.3372 6.78406 10.1833 6.78406 9.9563V4.37524H6.75659L5.69641 8.63245L5.32288 7.66565ZM16.3751 10.8901C16.1334 11.0183 15.7709 11.0824 15.2875 11.0824C14.8041 11.0824 14.4342 10.9451 14.1779 10.6704C13.9215 10.3958 13.7933 9.97827 13.7933 9.41797V6.43518C13.7933 6.24109 13.7054 6.10925 13.5297 6.03967C13.4564 6.01038 13.3777 5.98657 13.2935 5.96826C13.2129 5.94995 13.1415 5.91516 13.0792 5.86389V5.47937H15.4248V9.56628C15.4248 9.8446 15.4688 10.057 15.5566 10.2035C15.6482 10.35 15.7782 10.4232 15.9467 10.4232C16.1151 10.4232 16.2579 10.3848 16.3751 10.3079V10.8901ZM16.8695 6.43518C16.8695 6.24109 16.7816 6.10925 16.6058 6.03967C16.5326 6.01038 16.4539 5.98657 16.3696 5.96826C16.2891 5.94629 16.214 5.9115 16.1444 5.86389V5.47937H18.4955V10.0552C18.4955 10.2419 18.5834 10.3701 18.7592 10.4397C18.8324 10.469 18.9093 10.4946 18.9899 10.5166C19.0741 10.5349 19.1473 10.5679 19.2096 10.6155V11H16.8695V6.43518ZM25.1587 10.0771C25.1587 10.2676 25.2466 10.3976 25.4224 10.4672C25.4956 10.4965 25.5743 10.5221 25.6586 10.5441C25.7428 10.566 25.8215 10.6008 25.8948 10.6484V11H22.8021V10.6484C22.8717 10.6008 22.9486 10.566 23.0328 10.5441C23.1171 10.5221 23.1958 10.4965 23.269 10.4672C23.4412 10.3976 23.5272 10.2676 23.5272 10.0771V3.96326C23.5272 3.76917 23.4412 3.6355 23.269 3.56226C23.1958 3.53296 23.1171 3.50916 23.0328 3.49084C22.9486 3.46887 22.8717 3.43408 22.8021 3.38647V3.00745H25.1587V10.0771ZM31.8109 3.61169V11.0824H31.767C31.2286 11.0824 30.8276 10.9799 30.564 10.7748C30.304 10.5697 30.174 10.2365 30.174 9.77502V6.08362H29.4434V5.64417C29.4983 5.58557 29.5679 5.54163 29.6521 5.51233C29.74 5.48303 29.8279 5.4519 29.9158 5.41895C30.1318 5.33838 30.2692 5.20654 30.3278 5.02344C30.5219 4.48877 30.6738 4.14636 30.7837 3.99622C30.8936 3.84241 30.9906 3.7179 31.0748 3.62268L31.8109 3.61169ZM32.2998 10.4232C32.5964 10.4232 32.8052 10.328 32.926 10.1376C32.9773 10.0533 33.0176 9.95813 33.0469 9.85193C33.0762 9.74207 33.1091 9.6322 33.1458 9.52234L33.5907 9.69812C33.4991 10.1229 33.3856 10.4159 33.2501 10.577C33.1146 10.7345 32.9736 10.8499 32.8271 10.9231C32.6843 10.9963 32.5085 11.0494 32.2998 11.0824V10.4232ZM32.2998 5.47937H33.2886V6.08362H32.2998V5.47937ZM39.2322 10.0771C39.2322 10.2676 39.3201 10.3976 39.4958 10.4672C39.5691 10.4965 39.6478 10.5221 39.7321 10.5441C39.8163 10.566 39.895 10.6008 39.9683 10.6484V11H36.8756V10.6484C36.9452 10.6008 37.0221 10.566 37.1063 10.5441C37.1906 10.5221 37.2693 10.4965 37.3425 10.4672C37.5146 10.3976 37.6007 10.2676 37.6007 10.0771V6.43518C37.6007 6.23743 37.5146 6.10742 37.3425 6.04517C37.2693 6.01587 37.1906 5.99207 37.1063 5.97375C37.0221 5.95178 36.9452 5.91516 36.8756 5.86389V5.47937H39.2322V10.0771ZM38.3203 4.82568C38.1812 4.82568 38.0548 4.80005 37.9413 4.74878C37.8278 4.69751 37.7307 4.62793 37.6501 4.54004C37.4817 4.35693 37.3975 4.13354 37.3975 3.86987C37.3975 3.61353 37.4817 3.39014 37.6501 3.19971C37.8259 3.00562 38.0493 2.90857 38.3203 2.90857C38.595 2.90857 38.8202 3.00562 38.996 3.19971C39.1644 3.39014 39.2487 3.61353 39.2487 3.86987C39.2487 4.13354 39.1644 4.35693 38.996 4.54004C38.8202 4.73047 38.595 4.82568 38.3203 4.82568ZM46.3623 5.66614C46.6187 5.46838 46.9318 5.36951 47.3016 5.36951C47.8436 5.36951 48.2391 5.49219 48.4882 5.73755C48.7372 5.97925 48.8617 6.36011 48.8617 6.88013V10.0771C48.8617 10.2676 48.9276 10.3958 49.0594 10.4617C49.118 10.491 49.1803 10.5184 49.2462 10.5441C49.3158 10.566 49.3817 10.6008 49.444 10.6484V11H47.2247V7.07239C47.2247 6.70984 47.2009 6.46814 47.1533 6.34729C47.0618 6.13489 46.9116 6.02869 46.7029 6.02869C46.5784 6.02869 46.4648 6.06714 46.3623 6.14404V5.66614ZM49.3561 5.59473C49.6198 5.44458 49.9036 5.36951 50.2075 5.36951C50.5151 5.36951 50.766 5.4043 50.9601 5.47388C51.1542 5.54346 51.3153 5.65332 51.4435 5.80347C51.7035 6.10742 51.8335 6.578 51.8335 7.21521V9.82446C51.8335 10.0881 51.861 10.2566 51.9159 10.3298C51.9745 10.3994 52.0276 10.4434 52.0752 10.4617C52.1228 10.4763 52.1741 10.4891 52.229 10.5001C52.3608 10.5294 52.4652 10.5789 52.5421 10.6484V11H50.202V7.07239C50.202 6.69885 50.1782 6.45532 50.1306 6.3418C50.05 6.13306 49.9017 6.02869 49.6857 6.02869C49.5685 6.02869 49.4586 6.06348 49.3561 6.13306V5.59473ZM44.2365 6.68237C44.2365 6.40771 44.2072 6.2356 44.1486 6.16602C44.09 6.09644 44.0369 6.05615 43.9893 6.04517C43.9417 6.03052 43.8922 6.01953 43.8409 6.01221C43.7018 5.98657 43.6029 5.93713 43.5443 5.86389V5.47937H45.8734V10.0112C45.8734 10.209 45.9631 10.3518 46.1426 10.4397C46.2231 10.4763 46.3129 10.5093 46.4117 10.5386C46.5143 10.5679 46.6168 10.6045 46.7194 10.6484V11H43.4674V10.6484C43.548 10.6008 43.6322 10.566 43.7201 10.5441C43.8116 10.5184 43.8959 10.4891 43.9728 10.4562C44.1486 10.3793 44.2365 10.231 44.2365 10.0112V6.68237ZM59.3317 10.4232C60.0677 10.3866 60.5621 9.9801 60.8148 9.20374L61.3202 9.43445C61.0455 10.4415 60.3827 10.9908 59.3317 11.0824V10.4232ZM59.1669 5.36951C59.9213 5.42444 60.4871 5.72473 60.8643 6.27039C61.2012 6.75378 61.3696 7.40015 61.3696 8.20947H58.5406V7.64917H59.6777C59.6777 7.18042 59.6411 6.81055 59.5679 6.53955C59.4983 6.26489 59.3646 6.0946 59.1669 6.02869V5.36951ZM58.8428 11.0824C58.0481 11.0201 57.4072 10.7107 56.9202 10.1541C56.4661 9.6377 56.239 9.00232 56.239 8.24792C56.239 7.45691 56.4679 6.79224 56.9257 6.25391C57.3798 5.71558 57.9639 5.42078 58.678 5.36951V6.02869C58.4363 6.11292 58.266 6.33997 58.1671 6.70984C58.0719 7.07971 58.0243 7.49719 58.0243 7.96228C58.0243 8.42371 58.0353 8.76978 58.0573 9.00049C58.0829 9.22754 58.1268 9.43262 58.1891 9.61572C58.3173 10.0002 58.5352 10.2694 58.8428 10.4232V11.0824ZM68.8898 10.4836V3.96326C68.8898 3.76917 68.8037 3.6355 68.6316 3.56226C68.5583 3.53296 68.4796 3.50916 68.3954 3.49084C68.3112 3.46887 68.2343 3.43408 68.1647 3.38647V3.00745H70.5212V10.0771C70.5212 10.2676 70.6055 10.3976 70.7739 10.4672C70.8435 10.4965 70.9149 10.5221 70.9882 10.5441C71.0651 10.566 71.131 10.6008 71.1859 10.6484V11H68.9612L68.8898 10.4836ZM68.4009 10.9176C68.1812 11.0275 67.9156 11.0824 67.6044 11.0824C67.2931 11.0824 66.9965 11.011 66.7145 10.8682C66.4325 10.7217 66.1926 10.5239 65.9949 10.2749C65.5737 9.75854 65.3632 9.11401 65.3632 8.34131C65.3632 7.50635 65.6067 6.7959 66.0938 6.20996C66.5662 5.64966 67.1283 5.36951 67.7802 5.36951C68.0328 5.36951 68.2397 5.4043 68.4009 5.47388V6.1001C68.324 6.05249 68.2086 6.02869 68.0548 6.02869C67.9047 6.02869 67.771 6.08728 67.6538 6.20447C67.5403 6.32166 67.4487 6.47729 67.3792 6.67139C67.251 7.03394 67.1869 7.45508 67.1869 7.93481C67.1869 8.41455 67.196 8.79175 67.2144 9.06641C67.2327 9.34106 67.2729 9.5791 67.3352 9.78052C67.4634 10.209 67.7014 10.4232 68.0493 10.4232C68.2104 10.4232 68.3276 10.3903 68.4009 10.3243V10.9176ZM77.113 10.0771C77.113 10.2676 77.2009 10.3976 77.3767 10.4672C77.45 10.4965 77.5287 10.5221 77.6129 10.5441C77.6971 10.566 77.7759 10.6008 77.8491 10.6484V11H74.7565V10.6484C74.826 10.6008 74.903 10.566 74.9872 10.5441C75.0714 10.5221 75.1501 10.4965 75.2234 10.4672C75.3955 10.3976 75.4816 10.2676 75.4816 10.0771V6.43518C75.4816 6.23743 75.3955 6.10742 75.2234 6.04517C75.1501 6.01587 75.0714 5.99207 74.9872 5.97375C74.903 5.95178 74.826 5.91516 74.7565 5.86389V5.47937H77.113V10.0771ZM76.2012 4.82568C76.062 4.82568 75.9357 4.80005 75.8221 4.74878C75.7086 4.69751 75.6116 4.62793 75.531 4.54004C75.3625 4.35693 75.2783 4.13354 75.2783 3.86987C75.2783 3.61353 75.3625 3.39014 75.531 3.19971C75.7068 3.00562 75.9302 2.90857 76.2012 2.90857C76.4758 2.90857 76.701 3.00562 76.8768 3.19971C77.0453 3.39014 77.1295 3.61353 77.1295 3.86987C77.1295 4.13354 77.0453 4.35693 76.8768 4.54004C76.701 4.73047 76.4758 4.82568 76.2012 4.82568ZM86.1053 11.0824C85.5524 11.0824 85.1349 10.9561 84.8529 10.7034V7.44043C84.8529 6.97168 84.8328 6.66772 84.7925 6.52856C84.7192 6.25024 84.5691 6.08362 84.342 6.02869V5.36951C85.7739 5.42078 86.4899 6.06531 86.4899 7.3031V9.76404C86.4899 10.2035 86.5924 10.4232 86.7975 10.4232C86.9659 10.4232 87.0685 10.1998 87.1051 9.75305L87.5006 9.85193C87.4091 10.4708 87.1399 10.8535 86.6931 11C86.532 11.0549 86.3361 11.0824 86.1053 11.0824ZM84.364 10.8187C84.1553 10.9945 83.8806 11.0824 83.54 11.0824C83.2031 11.0824 82.923 11.0513 82.6996 10.989C82.4762 10.9231 82.2839 10.8279 82.1228 10.7034C81.7749 10.4324 81.601 10.0607 81.601 9.58826C81.601 9.04626 81.8536 8.6178 82.359 8.30286C82.7216 8.07581 83.3899 7.83044 84.364 7.56677V8.14905C83.7122 8.4054 83.3862 8.85583 83.3862 9.50037C83.3862 9.92151 83.4851 10.2053 83.6829 10.3518C83.7524 10.3994 83.8531 10.4232 83.985 10.4232C84.1168 10.4232 84.2432 10.3811 84.364 10.2969V10.8187ZM83.205 6.38025C83.454 6.49377 83.5785 6.66223 83.5785 6.88562C83.5785 7.1676 83.4155 7.35254 83.0896 7.44043C82.998 7.4624 82.9065 7.47339 82.8149 7.47339C82.5476 7.47339 82.3444 7.39832 82.2052 7.24817C82.066 7.09802 81.9965 6.92041 81.9965 6.71533C81.9965 6.50659 82.0367 6.32898 82.1173 6.1825C82.1979 6.03235 82.3169 5.89868 82.4744 5.78149C82.8149 5.53613 83.2745 5.3988 83.8531 5.36951V6.02869C83.5638 6.047 83.3478 6.16418 83.205 6.38025ZM100.025 11H97.4158V10.5935C97.5146 10.5532 97.6099 10.5239 97.7014 10.5056C97.7966 10.4836 97.8809 10.4543 97.9541 10.4177C98.1189 10.3372 98.2013 10.1833 98.2013 9.9563V4.2489C98.2013 4.01819 98.1189 3.86255 97.9541 3.78198C97.8809 3.74536 97.7966 3.7179 97.7014 3.69958C97.6099 3.67761 97.5146 3.64648 97.4158 3.6062V3.19421H100.025V11ZM102.453 4.53455C102.292 4.25989 102.085 4.05664 101.832 3.9248C101.58 3.78931 101.321 3.72156 101.058 3.72156C100.798 3.72156 100.616 3.72888 100.514 3.74353V3.19421H101.052C102.352 3.19421 103.348 3.59705 104.041 4.40271C104.656 5.12048 104.963 6.0177 104.963 7.09436C104.963 8.2113 104.645 9.125 104.008 9.83545C103.312 10.6118 102.347 11 101.113 11H100.514V10.4507C100.631 10.4653 100.814 10.4727 101.063 10.4727C101.312 10.4727 101.563 10.4177 101.816 10.3079C102.072 10.1943 102.283 10.0057 102.448 9.74207C102.766 9.23303 102.925 8.35046 102.925 7.09436C102.925 5.92615 102.768 5.07288 102.453 4.53455ZM111.989 10.4232C112.725 10.3866 113.22 9.9801 113.472 9.20374L113.978 9.43445C113.703 10.4415 113.04 10.9908 111.989 11.0824V10.4232ZM111.824 5.36951C112.579 5.42444 113.145 5.72473 113.522 6.27039C113.859 6.75378 114.027 7.40015 114.027 8.20947H111.198V7.64917H112.335C112.335 7.18042 112.299 6.81055 112.225 6.53955C112.156 6.26489 112.022 6.0946 111.824 6.02869V5.36951ZM111.5 11.0824C110.706 11.0201 110.065 10.7107 109.578 10.1541C109.124 9.6377 108.896 9.00232 108.896 8.24792C108.896 7.45691 109.125 6.79224 109.583 6.25391C110.037 5.71558 110.621 5.42078 111.335 5.36951V6.02869C111.094 6.11292 110.923 6.33997 110.825 6.70984C110.729 7.07971 110.682 7.49719 110.682 7.96228C110.682 8.42371 110.693 8.76978 110.715 9.00049C110.74 9.22754 110.784 9.43262 110.847 9.61572C110.975 10.0002 111.193 10.2694 111.5 10.4232V11.0824ZM120.119 6.02869C119.782 6.12024 119.614 6.27954 119.614 6.50659C119.614 6.8728 119.934 7.17859 120.575 7.42395C121.08 7.61804 121.437 7.77002 121.646 7.87988C121.859 7.98608 122.036 8.10327 122.179 8.23145C122.498 8.52441 122.657 8.88879 122.657 9.32458C122.657 9.84094 122.461 10.2548 122.069 10.566C121.688 10.8663 121.201 11.0385 120.608 11.0824V10.4232C120.992 10.3317 121.185 10.1193 121.185 9.78601C121.185 9.44177 120.87 9.14697 120.24 8.90161C119.745 8.71118 119.394 8.56287 119.185 8.45667C118.98 8.35046 118.808 8.23511 118.669 8.1106C118.358 7.83228 118.202 7.48987 118.202 7.08337C118.202 6.64392 118.389 6.25391 118.762 5.91333C119.139 5.57275 119.592 5.39148 120.119 5.36951V6.02869ZM121.624 6.14404C121.544 6.11108 121.205 6.07263 120.608 6.02869V5.36951C121.245 5.39514 121.743 5.54712 122.102 5.82544C122.402 6.05981 122.552 6.31982 122.552 6.60547C122.552 6.96069 122.417 7.19507 122.146 7.30859C122.051 7.34521 121.919 7.36353 121.75 7.36353C121.582 7.36353 121.443 7.31042 121.333 7.20422C121.227 7.09436 121.174 6.96069 121.174 6.80322C121.174 6.53589 121.324 6.31616 121.624 6.14404ZM119.174 10.2694C119.269 10.3536 119.584 10.4049 120.119 10.4232V11.0824C119.511 11.0348 119.033 10.8737 118.685 10.599C118.392 10.3646 118.246 10.0973 118.246 9.797C118.246 9.59924 118.301 9.43811 118.411 9.3136C118.521 9.18542 118.687 9.12134 118.911 9.12134C119.134 9.12134 119.299 9.17078 119.405 9.26965C119.515 9.36853 119.57 9.4967 119.57 9.65417C119.57 9.92883 119.438 10.1339 119.174 10.2694ZM128.716 10.0771C128.716 10.2676 128.804 10.3976 128.979 10.4672C129.053 10.4965 129.131 10.5221 129.216 10.5441C129.3 10.566 129.379 10.6008 129.452 10.6484V11H126.359V10.6484C126.429 10.6008 126.506 10.566 126.59 10.5441C126.674 10.5221 126.753 10.4965 126.826 10.4672C126.998 10.3976 127.084 10.2676 127.084 10.0771V6.43518C127.084 6.23743 126.998 6.10742 126.826 6.04517C126.753 6.01587 126.674 5.99207 126.59 5.97375C126.506 5.95178 126.429 5.91516 126.359 5.86389V5.47937H128.716V10.0771ZM127.804 4.82568C127.665 4.82568 127.538 4.80005 127.425 4.74878C127.311 4.69751 127.214 4.62793 127.134 4.54004C126.965 4.35693 126.881 4.13354 126.881 3.86987C126.881 3.61353 126.965 3.39014 127.134 3.19971C127.31 3.00562 127.533 2.90857 127.804 2.90857C128.079 2.90857 128.304 3.00562 128.48 3.19971C128.648 3.39014 128.732 3.61353 128.732 3.86987C128.732 4.13354 128.648 4.35693 128.48 4.54004C128.304 4.73047 128.079 4.82568 127.804 4.82568ZM133.808 10.8682C133.438 10.751 133.253 10.5496 133.253 10.2639C133.253 9.95996 133.469 9.65601 133.901 9.35205L134.528 9.5498C134.385 9.65967 134.313 9.86108 134.313 10.1541C135.855 10.1541 136.915 10.2749 137.494 10.5166C137.787 10.6375 137.99 10.7931 138.104 10.9835C138.217 11.1703 138.274 11.3937 138.274 11.6537C138.274 11.9137 138.208 12.1517 138.076 12.3678C137.948 12.5839 137.774 12.7706 137.554 12.9281C137.097 13.2577 136.534 13.4371 135.868 13.4664V12.9336C136.392 12.9116 136.729 12.7175 136.879 12.3513C136.923 12.2451 136.945 12.1316 136.945 12.0107C136.945 11.791 136.833 11.6097 136.609 11.4669C136.386 11.3241 136.11 11.2527 135.78 11.2527C135.267 11.2527 134.896 11.2692 134.665 11.3021C134.61 11.4376 134.583 11.5878 134.583 11.7526V12.0767C134.583 12.3147 134.639 12.507 134.753 12.6534C134.866 12.7999 135.075 12.8896 135.379 12.9226V13.4609C134.518 13.4133 133.945 13.0819 133.66 12.4667C133.561 12.2543 133.511 11.9961 133.511 11.6921C133.511 11.3882 133.61 11.1135 133.808 10.8682ZM137.549 5.03992C137.314 5.03992 137.197 5.1864 137.197 5.47937C137.197 5.62585 137.216 5.72107 137.252 5.76501C137.292 5.80896 137.333 5.84741 137.373 5.88037C137.417 5.91333 137.494 5.98291 137.604 6.08911C137.838 6.31982 137.955 6.70435 137.955 7.24268C137.955 7.83228 137.75 8.31201 137.34 8.68188C136.948 9.03711 136.458 9.23303 135.868 9.26965V8.7478C136.055 8.68555 136.183 8.5354 136.252 8.29736C136.326 8.05933 136.362 7.72424 136.362 7.29211C136.362 6.85999 136.326 6.53589 136.252 6.31982C136.179 6.10376 136.051 5.96826 135.868 5.91333V5.36951C136.19 5.38049 136.456 5.42261 136.664 5.49585C136.664 4.9978 136.897 4.66455 137.362 4.49609C137.509 4.44116 137.672 4.4137 137.851 4.4137C138.034 4.4137 138.19 4.4375 138.318 4.48511C138.45 4.52905 138.558 4.59131 138.642 4.67188C138.803 4.82202 138.884 5.01428 138.884 5.24866C138.884 5.48303 138.82 5.65881 138.691 5.776C138.567 5.89319 138.402 5.95178 138.197 5.95178C137.992 5.95178 137.825 5.89502 137.697 5.78149C137.573 5.66797 137.51 5.52332 137.51 5.34753C137.51 5.28162 137.52 5.22485 137.538 5.17725C137.56 5.12598 137.571 5.09119 137.571 5.07288C137.571 5.0509 137.563 5.03992 137.549 5.03992ZM135.379 9.28064C134.284 9.24768 133.608 8.88696 133.352 8.19849C133.26 7.96045 133.215 7.6803 133.215 7.35803C133.215 7.03577 133.266 6.75745 133.369 6.52307C133.475 6.28503 133.623 6.08545 133.813 5.92432C134.191 5.59839 134.713 5.41345 135.379 5.36951V5.91333C135.163 5.94995 135.013 6.07263 134.929 6.28137C134.848 6.48279 134.808 6.81421 134.808 7.27563C134.808 7.73706 134.85 8.08862 134.934 8.33032C135.018 8.57202 135.167 8.71667 135.379 8.76428V9.28064ZM145.102 5.72107C145.391 5.48669 145.69 5.36951 145.997 5.36951C146.305 5.36951 146.556 5.4043 146.75 5.47388C146.948 5.54346 147.114 5.646 147.25 5.78149C147.539 6.0708 147.684 6.47546 147.684 6.99548V9.84644C147.684 10.2126 147.766 10.4196 147.931 10.4672C147.982 10.4818 148.033 10.4946 148.085 10.5056C148.228 10.5349 148.332 10.5825 148.398 10.6484V11H145.789V10.6155C145.789 10.5349 145.818 10.469 145.876 10.4177C145.939 10.3665 145.983 10.3225 146.008 10.2859C146.038 10.2456 146.052 10.1833 146.052 10.0991V7.05042C146.052 6.67322 146.027 6.43152 145.975 6.32532C145.887 6.12756 145.75 6.02869 145.563 6.02869C145.377 6.02869 145.223 6.07446 145.102 6.16602V5.72107ZM144.613 9.84644C144.613 10.209 144.69 10.4159 144.844 10.4672C144.891 10.4818 144.941 10.4946 144.992 10.5056C145.128 10.5349 145.228 10.5825 145.294 10.6484V11H142.267V10.6484C142.33 10.6008 142.401 10.566 142.482 10.5441C142.566 10.5221 142.645 10.4965 142.718 10.4672C142.894 10.3976 142.982 10.2676 142.982 10.0771V6.68237C142.982 6.42236 142.921 6.23376 142.8 6.11658C142.705 6.02136 142.527 5.93713 142.267 5.86389V5.47937H144.613V9.84644ZM155.209 10.4232C155.945 10.3866 156.44 9.9801 156.693 9.20374L157.198 9.43445C156.923 10.4415 156.26 10.9908 155.209 11.0824V10.4232ZM155.045 5.36951C155.799 5.42444 156.365 5.72473 156.742 6.27039C157.079 6.75378 157.247 7.40015 157.247 8.20947H154.418V7.64917H155.555C155.555 7.18042 155.519 6.81055 155.446 6.53955C155.376 6.26489 155.242 6.0946 155.045 6.02869V5.36951ZM154.72 11.0824C153.926 11.0201 153.285 10.7107 152.798 10.1541C152.344 9.6377 152.117 9.00232 152.117 8.24792C152.117 7.45691 152.346 6.79224 152.803 6.25391C153.257 5.71558 153.842 5.42078 154.556 5.36951V6.02869C154.314 6.11292 154.144 6.33997 154.045 6.70984C153.95 7.07971 153.902 7.49719 153.902 7.96228C153.902 8.42371 153.913 8.76978 153.935 9.00049C153.961 9.22754 154.005 9.43262 154.067 9.61572C154.195 10.0002 154.413 10.2694 154.72 10.4232V11.0824ZM164.471 6.43518C164.302 6.43518 164.13 6.62378 163.954 7.00098L163.922 5.95178C164.222 5.5636 164.606 5.36951 165.075 5.36951C165.35 5.36951 165.584 5.47021 165.778 5.67163C165.961 5.86206 166.053 6.08362 166.053 6.3363C166.053 6.60364 165.976 6.82886 165.822 7.01196C165.661 7.20605 165.456 7.3031 165.207 7.3031C164.954 7.3031 164.762 7.20972 164.63 7.02295C164.524 6.86548 164.471 6.66956 164.471 6.43518ZM163.383 5.47937C163.46 6.34363 163.499 7.31592 163.499 8.39624V10.0222C163.499 10.2163 163.588 10.3536 163.768 10.4342C163.848 10.4708 163.936 10.5038 164.031 10.5331C164.13 10.5624 164.227 10.6008 164.323 10.6484V11H161.142V10.6484C161.212 10.6008 161.288 10.566 161.373 10.5441C161.457 10.5221 161.536 10.4965 161.609 10.4672C161.781 10.3976 161.867 10.2676 161.867 10.0771V6.43518C161.867 6.23376 161.781 6.1001 161.609 6.03418C161.536 6.00854 161.457 5.98657 161.373 5.96826C161.288 5.94995 161.212 5.91516 161.142 5.86389V5.47937H163.383ZM1.78875 20.5562C1.75125 20.5562 1.7175 20.545 1.6875 20.5225C1.665 20.4925 1.65375 20.4587 1.65375 20.4212V19.3525C1.65375 19.33 1.64625 19.315 1.63125 19.3075C1.61625 19.3 1.60125 19.3037 1.58625 19.3188L0.675 19.8587C0.645 19.8737 0.6225 19.8812 0.6075 19.8812C0.5625 19.8812 0.525 19.855 0.495 19.8025L0.25875 19.3637C0.24375 19.3337 0.23625 19.3112 0.23625 19.2962C0.23625 19.2512 0.25875 19.2137 0.30375 19.1837L1.26 18.6212C1.275 18.6062 1.2825 18.5912 1.2825 18.5762C1.2825 18.5612 1.275 18.55 1.26 18.5425L0.30375 17.9912C0.23625 17.9462 0.22125 17.8862 0.25875 17.8112L0.495 17.35C0.51 17.3125 0.53625 17.29 0.57375 17.2825C0.61125 17.2675 0.64875 17.2712 0.68625 17.2937L1.58625 17.845C1.60125 17.86 1.61625 17.8637 1.63125 17.8562C1.64625 17.8487 1.65375 17.8337 1.65375 17.8112V16.7425C1.65375 16.705 1.665 16.675 1.6875 16.6525C1.7175 16.6225 1.75125 16.6075 1.78875 16.6075H2.28375C2.32125 16.6075 2.35125 16.6225 2.37375 16.6525C2.40375 16.675 2.41875 16.705 2.41875 16.7425L2.4075 17.8112C2.4075 17.8337 2.415 17.8487 2.43 17.8562C2.445 17.8637 2.46 17.86 2.475 17.845L3.375 17.2937C3.405 17.2787 3.4275 17.2712 3.4425 17.2712C3.495 17.2712 3.53625 17.2975 3.56625 17.35L3.8025 17.8112C3.8175 17.8412 3.825 17.8637 3.825 17.8787C3.825 17.9162 3.8025 17.9537 3.7575 17.9912L2.8125 18.5425C2.7975 18.55 2.79 18.5612 2.79 18.5762C2.79 18.5912 2.7975 18.6062 2.8125 18.6212L3.7575 19.1837C3.8325 19.2287 3.85125 19.2887 3.81375 19.3637L3.56625 19.825C3.54375 19.8625 3.51375 19.885 3.47625 19.8925C3.44625 19.9 3.4125 19.8925 3.375 19.87L2.475 19.3188C2.46 19.3037 2.445 19.3 2.43 19.3075C2.415 19.315 2.4075 19.33 2.4075 19.3525L2.41875 20.4212C2.41875 20.4587 2.40375 20.4925 2.37375 20.5225C2.35125 20.545 2.32125 20.5562 2.28375 20.5562H1.78875ZM4.80744 25C4.76994 25 4.73619 24.9887 4.70619 24.9662C4.68369 24.9362 4.67244 24.9025 4.67244 24.865V17.26C4.67244 17.2225 4.68369 17.1925 4.70619 17.17C4.73619 17.14 4.76994 17.125 4.80744 17.125H5.84244C5.87994 17.125 5.90994 17.14 5.93244 17.17C5.96244 17.1925 5.97744 17.2225 5.97744 17.26V24.865C5.97744 24.9025 5.96244 24.9362 5.93244 24.9662C5.90994 24.9887 5.87994 25 5.84244 25H4.80744ZM9.56206 19.1612C10.0496 19.1612 10.4171 19.3262 10.6646 19.6562C10.9196 19.9787 11.0471 20.44 11.0471 21.04V24.865C11.0471 24.9025 11.0321 24.9362 11.0021 24.9662C10.9796 24.9887 10.9496 25 10.9121 25H9.87706C9.83956 25 9.80581 24.9887 9.77581 24.9662C9.75331 24.9362 9.74206 24.9025 9.74206 24.865V21.1412C9.74206 20.8712 9.68581 20.6612 9.57331 20.5112C9.46081 20.3612 9.29956 20.2862 9.08956 20.2862C8.87206 20.2862 8.70331 20.365 8.58331 20.5225C8.46331 20.68 8.40331 20.8975 8.40331 21.175V24.865C8.40331 24.9025 8.38831 24.9362 8.35831 24.9662C8.33581 24.9887 8.30581 25 8.26831 25H7.23331C7.19581 25 7.16206 24.9887 7.13206 24.9662C7.10956 24.9362 7.09831 24.9025 7.09831 24.865V19.3862C7.09831 19.3487 7.10956 19.3187 7.13206 19.2962C7.16206 19.2662 7.19581 19.2512 7.23331 19.2512H8.26831C8.30581 19.2512 8.33581 19.2662 8.35831 19.2962C8.38831 19.3187 8.40331 19.3487 8.40331 19.3862V19.6112C8.40331 19.6337 8.41081 19.6487 8.42581 19.6562C8.44831 19.6562 8.47081 19.6412 8.49331 19.6112C8.74831 19.3112 9.10456 19.1612 9.56206 19.1612ZM14.4497 20.0387C14.4497 20.0762 14.4347 20.11 14.4047 20.14C14.3822 20.1625 14.3522 20.1737 14.3147 20.1737H13.6172C13.5797 20.1737 13.5609 20.1925 13.5609 20.23V23.1775C13.5609 23.44 13.6097 23.6237 13.7072 23.7287C13.8047 23.8262 13.9509 23.8712 14.1459 23.8637H14.2247C14.2622 23.8637 14.2922 23.8787 14.3147 23.9087C14.3447 23.9312 14.3597 23.9612 14.3597 23.9987V24.865C14.3597 24.9025 14.3447 24.9362 14.3147 24.9662C14.2922 24.9887 14.2622 25 14.2247 25H13.8422C13.3322 25 12.9459 24.9062 12.6834 24.7187C12.4284 24.5312 12.3009 24.1787 12.3009 23.6612V20.23C12.3009 20.1925 12.2822 20.1737 12.2447 20.1737H11.8509C11.8134 20.1737 11.7797 20.1625 11.7497 20.14C11.7272 20.11 11.7159 20.0762 11.7159 20.0387V19.3862C11.7159 19.3487 11.7272 19.3187 11.7497 19.2962C11.7797 19.2662 11.8134 19.2512 11.8509 19.2512H12.2447C12.2822 19.2512 12.3009 19.2325 12.3009 19.195V17.9575C12.3009 17.92 12.3122 17.89 12.3347 17.8675C12.3647 17.8375 12.3984 17.8225 12.4359 17.8225H13.4259C13.4634 17.8225 13.4934 17.8375 13.5159 17.8675C13.5459 17.89 13.5609 17.92 13.5609 17.9575V19.195C13.5609 19.2325 13.5797 19.2512 13.6172 19.2512H14.3147C14.3522 19.2512 14.3822 19.2662 14.4047 19.2962C14.4347 19.3187 14.4497 19.3487 14.4497 19.3862V20.0387ZM19.1097 22.4687C19.1097 22.5062 19.0947 22.54 19.0647 22.57C19.0422 22.5925 19.0122 22.6037 18.9747 22.6037H16.4885C16.451 22.6037 16.4322 22.6225 16.4322 22.66V23.1662C16.4322 23.3987 16.496 23.59 16.6235 23.74C16.751 23.89 16.916 23.965 17.1185 23.965C17.291 23.965 17.4372 23.9125 17.5572 23.8075C17.6847 23.695 17.7672 23.5525 17.8047 23.38C17.8272 23.305 17.876 23.2675 17.951 23.2675L18.9522 23.3125C18.9897 23.3125 19.0197 23.3275 19.0422 23.3575C19.0722 23.38 19.0835 23.4137 19.076 23.4587C19.0235 23.9837 18.8322 24.3887 18.5022 24.6737C18.1722 24.9512 17.711 25.09 17.1185 25.09C16.5035 25.09 16.016 24.9288 15.656 24.6062C15.3035 24.2762 15.1272 23.83 15.1272 23.2675V20.9837C15.1272 20.4362 15.3035 19.9975 15.656 19.6675C16.016 19.33 16.5035 19.1612 17.1185 19.1612C17.7335 19.1612 18.2172 19.33 18.5697 19.6675C18.9297 19.9975 19.1097 20.4362 19.1097 20.9837V22.4687ZM17.1185 20.2862C16.916 20.2862 16.751 20.3612 16.6235 20.5112C16.496 20.6612 16.4322 20.8525 16.4322 21.085V21.5912C16.4322 21.6287 16.451 21.6475 16.4885 21.6475H17.7597C17.7972 21.6475 17.816 21.6287 17.816 21.5912V21.085C17.816 20.845 17.7522 20.6537 17.6247 20.5112C17.4972 20.3612 17.3285 20.2862 17.1185 20.2862ZM22.3585 19.1837C22.561 19.1837 22.7185 19.2212 22.831 19.2962C22.891 19.3337 22.9135 19.39 22.8985 19.465L22.7185 20.5112C22.711 20.6012 22.6585 20.6275 22.561 20.59C22.456 20.56 22.3585 20.545 22.2685 20.545C22.1785 20.545 22.096 20.5562 22.021 20.5787C21.811 20.6087 21.6385 20.7287 21.5035 20.9387C21.376 21.1412 21.3122 21.385 21.3122 21.67V24.8537C21.3122 24.8912 21.2972 24.925 21.2672 24.955C21.2447 24.9775 21.2147 24.9887 21.1772 24.9887H20.1422C20.1047 24.9887 20.071 24.9775 20.041 24.955C20.0185 24.925 20.0072 24.8912 20.0072 24.8537V19.3862C20.0072 19.3487 20.0185 19.3187 20.041 19.2962C20.071 19.2662 20.1047 19.2512 20.1422 19.2512H21.1772C21.2147 19.2512 21.2447 19.2662 21.2672 19.2962C21.2972 19.3187 21.3122 19.3487 21.3122 19.3862V19.9037C21.3122 19.9337 21.3197 19.9525 21.3347 19.96C21.3497 19.96 21.361 19.945 21.3685 19.915C21.571 19.4275 21.901 19.1837 22.3585 19.1837ZM25.9976 19.1612C26.4851 19.1612 26.8526 19.3262 27.1001 19.6562C27.3551 19.9787 27.4826 20.44 27.4826 21.04V24.865C27.4826 24.9025 27.4676 24.9362 27.4376 24.9662C27.4151 24.9887 27.3851 25 27.3476 25H26.3126C26.2751 25 26.2414 24.9887 26.2114 24.9662C26.1889 24.9362 26.1776 24.9025 26.1776 24.865V21.1412C26.1776 20.8712 26.1214 20.6612 26.0089 20.5112C25.8964 20.3612 25.7351 20.2862 25.5251 20.2862C25.3076 20.2862 25.1389 20.365 25.0189 20.5225C24.8989 20.68 24.8389 20.8975 24.8389 21.175V24.865C24.8389 24.9025 24.8239 24.9362 24.7939 24.9662C24.7714 24.9887 24.7414 25 24.7039 25H23.6689C23.6314 25 23.5976 24.9887 23.5676 24.9662C23.5451 24.9362 23.5339 24.9025 23.5339 24.865V19.3862C23.5339 19.3487 23.5451 19.3187 23.5676 19.2962C23.5976 19.2662 23.6314 19.2512 23.6689 19.2512H24.7039C24.7414 19.2512 24.7714 19.2662 24.7939 19.2962C24.8239 19.3187 24.8389 19.3487 24.8389 19.3862V19.6112C24.8389 19.6337 24.8464 19.6487 24.8614 19.6562C24.8839 19.6562 24.9064 19.6412 24.9289 19.6112C25.1839 19.3112 25.5401 19.1612 25.9976 19.1612ZM30.244 25.0675C29.6515 25.0675 29.179 24.925 28.8265 24.64C28.474 24.355 28.2977 23.9687 28.2977 23.4812V23.4025C28.2977 23.365 28.309 23.335 28.3315 23.3125C28.3615 23.2825 28.3952 23.2675 28.4327 23.2675H29.4002C29.4377 23.2675 29.4677 23.2825 29.4902 23.3125C29.5202 23.335 29.5352 23.365 29.5352 23.4025V23.4587C29.5352 23.6387 29.6027 23.7887 29.7377 23.9087C29.8802 24.0287 30.0527 24.0887 30.2552 24.0887C30.4502 24.0887 30.604 24.0325 30.7165 23.92C30.829 23.8075 30.8852 23.665 30.8852 23.4925C30.8852 23.3425 30.8365 23.2187 30.739 23.1212C30.6415 23.0162 30.5365 22.9375 30.424 22.885C30.3115 22.8325 30.109 22.7462 29.8165 22.6262C29.389 22.4612 29.0365 22.2512 28.759 21.9962C28.489 21.7412 28.354 21.3625 28.354 20.86C28.354 20.335 28.519 19.9262 28.849 19.6337C29.1865 19.3337 29.6402 19.1837 30.2102 19.1837C30.7952 19.1837 31.2565 19.3412 31.594 19.6562C31.939 19.9637 32.1115 20.38 32.1115 20.905C32.1115 20.9425 32.0965 20.9762 32.0665 21.0062C32.044 21.0287 32.014 21.04 31.9765 21.04H31.0315C30.994 21.04 30.9602 21.0287 30.9302 21.0062C30.9077 20.9762 30.8965 20.9425 30.8965 20.905V20.8375C30.8965 20.6575 30.8327 20.5075 30.7052 20.3875C30.5852 20.2675 30.4315 20.2075 30.244 20.2075C30.049 20.2075 29.8915 20.2712 29.7715 20.3987C29.659 20.5187 29.6027 20.665 29.6027 20.8375C29.6027 20.98 29.6477 21.1 29.7377 21.1975C29.8277 21.295 29.929 21.3737 30.0415 21.4337C30.154 21.4862 30.3415 21.5687 30.604 21.6812C30.919 21.8087 31.1815 21.9362 31.3915 22.0637C31.609 22.1837 31.7965 22.36 31.954 22.5925C32.119 22.8175 32.2015 23.0987 32.2015 23.4362C32.2015 23.9387 32.0252 24.3362 31.6727 24.6288C31.3202 24.9213 30.844 25.0675 30.244 25.0675ZM35.4239 19.1612C35.9114 19.1612 36.2789 19.3262 36.5264 19.6562C36.7814 19.9787 36.9089 20.44 36.9089 21.04V24.865C36.9089 24.9025 36.8939 24.9362 36.8639 24.9662C36.8414 24.9887 36.8114 25 36.7739 25H35.7389C35.7014 25 35.6676 24.9887 35.6376 24.9662C35.6151 24.9362 35.6039 24.9025 35.6039 24.865V21.1412C35.6039 20.8712 35.5476 20.6612 35.4351 20.5112C35.3226 20.3612 35.1614 20.2862 34.9514 20.2862C34.7339 20.2862 34.5651 20.365 34.4451 20.5225C34.3251 20.68 34.2651 20.8975 34.2651 21.175V24.865C34.2651 24.9025 34.2501 24.9362 34.2201 24.9662C34.1976 24.9887 34.1676 25 34.1301 25H33.0951C33.0576 25 33.0239 24.9887 32.9939 24.9662C32.9714 24.9362 32.9601 24.9025 32.9601 24.865V17.26C32.9601 17.2225 32.9714 17.1925 32.9939 17.17C33.0239 17.14 33.0576 17.125 33.0951 17.125H34.1301C34.1676 17.125 34.1976 17.14 34.2201 17.17C34.2501 17.1925 34.2651 17.2225 34.2651 17.26V19.6112C34.2651 19.6337 34.2726 19.6487 34.2876 19.6562C34.3101 19.6562 34.3326 19.6412 34.3551 19.6112C34.6101 19.3112 34.9664 19.1612 35.4239 19.1612ZM38.5902 18.4637C38.3577 18.4637 38.1665 18.3887 38.0165 18.2387C37.8665 18.0887 37.7915 17.8975 37.7915 17.665C37.7915 17.4325 37.8665 17.2412 38.0165 17.0912C38.1665 16.9412 38.3577 16.8662 38.5902 16.8662C38.8227 16.8662 39.0102 16.9412 39.1527 17.0912C39.3027 17.2412 39.3777 17.4325 39.3777 17.665C39.3777 17.8975 39.3027 18.0887 39.1527 18.2387C39.0027 18.3887 38.8152 18.4637 38.5902 18.4637ZM38.084 25C38.0465 25 38.0127 24.9887 37.9827 24.9662C37.9602 24.9362 37.949 24.9025 37.949 24.865V19.3862C37.949 19.3487 37.9602 19.3187 37.9827 19.2962C38.0127 19.2662 38.0465 19.2512 38.084 19.2512H39.119C39.1565 19.2512 39.1865 19.2662 39.209 19.2962C39.239 19.3187 39.254 19.3487 39.254 19.3862V24.865C39.254 24.9025 39.239 24.9362 39.209 24.9662C39.1865 24.9887 39.1565 25 39.119 25H38.084ZM42.751 19.1612C43.2535 19.1612 43.6435 19.3262 43.921 19.6562C44.1985 19.9787 44.3372 20.4212 44.3372 20.9837V23.2562C44.3372 23.8337 44.1985 24.2837 43.921 24.6062C43.6435 24.9288 43.2535 25.09 42.751 25.09C42.5785 25.09 42.4022 25.06 42.2222 25C42.0422 24.9325 41.881 24.8275 41.7385 24.685C41.7235 24.67 41.7085 24.6662 41.6935 24.6737C41.6785 24.6812 41.671 24.6962 41.671 24.7187V26.9913C41.671 27.0288 41.656 27.0588 41.626 27.0813C41.6035 27.1113 41.5735 27.1263 41.536 27.1263H40.501C40.4635 27.1263 40.4297 27.1113 40.3997 27.0813C40.3772 27.0588 40.366 27.0288 40.366 26.9913V19.3862C40.366 19.3487 40.3772 19.3187 40.3997 19.2962C40.4297 19.2662 40.4635 19.2512 40.501 19.2512H41.536C41.5735 19.2512 41.6035 19.2662 41.626 19.2962C41.656 19.3187 41.671 19.3487 41.671 19.3862V19.5212C41.671 19.5437 41.6785 19.5587 41.6935 19.5662C41.716 19.5662 41.7385 19.5512 41.761 19.5212C42.0235 19.2812 42.3535 19.1612 42.751 19.1612ZM43.0435 21.085C43.0435 20.845 42.9797 20.65 42.8522 20.5C42.7247 20.35 42.556 20.275 42.346 20.275C42.1435 20.275 41.9785 20.35 41.851 20.5C41.731 20.65 41.671 20.845 41.671 21.085V23.1662C41.671 23.4062 41.731 23.6012 41.851 23.7512C41.9785 23.8937 42.1435 23.965 42.346 23.965C42.556 23.965 42.7247 23.8937 42.8522 23.7512C42.9797 23.6012 43.0435 23.4062 43.0435 23.1662V21.085ZM47.539 25.9C47.464 25.9 47.4265 25.8625 47.4265 25.7875V16.5625C47.4265 16.4875 47.464 16.45 47.539 16.45H48.1127C48.1877 16.45 48.2252 16.4875 48.2252 16.5625V25.7875C48.2252 25.8625 48.1877 25.9 48.1127 25.9H47.539ZM52.8237 25C52.7562 25 52.7149 24.9662 52.6999 24.8987L51.2149 17.2487V17.2262C51.2149 17.1587 51.2487 17.125 51.3162 17.125H51.9124C51.9874 17.125 52.0287 17.1587 52.0362 17.2262L53.0937 23.1437C53.1012 23.1587 53.1087 23.1662 53.1162 23.1662C53.1237 23.1662 53.1312 23.1587 53.1387 23.1437L54.0499 17.2262C54.0649 17.1587 54.1024 17.125 54.1624 17.125H54.6799C54.7474 17.125 54.7849 17.1587 54.7924 17.2262L55.7487 23.1437C55.7562 23.1587 55.7637 23.1662 55.7712 23.1662C55.7787 23.1662 55.7862 23.1587 55.7937 23.1437L56.7612 17.2262C56.7762 17.1587 56.8137 17.125 56.8737 17.125H57.4699C57.5074 17.125 57.5337 17.1362 57.5487 17.1587C57.5712 17.1812 57.5787 17.2112 57.5712 17.2487L56.1762 24.8987C56.1687 24.9662 56.1274 25 56.0524 25H55.5012C55.4412 25 55.4037 24.9662 55.3887 24.8987L54.4437 18.9587C54.4362 18.9437 54.4249 18.9362 54.4099 18.9362C54.4024 18.9362 54.3987 18.9437 54.3987 18.9587L53.4762 24.8987C53.4687 24.9662 53.4312 25 53.3637 25H52.8237ZM59.8329 25C59.7654 25 59.7242 24.9662 59.7092 24.8987L58.2242 17.2487V17.2262C58.2242 17.1587 58.2579 17.125 58.3254 17.125H58.9217C58.9967 17.125 59.0379 17.1587 59.0454 17.2262L60.1029 23.1437C60.1104 23.1587 60.1179 23.1662 60.1254 23.1662C60.1329 23.1662 60.1404 23.1587 60.1479 23.1437L61.0592 17.2262C61.0742 17.1587 61.1117 17.125 61.1717 17.125H61.6892C61.7567 17.125 61.7942 17.1587 61.8017 17.2262L62.7579 23.1437C62.7654 23.1587 62.7729 23.1662 62.7804 23.1662C62.7879 23.1662 62.7954 23.1587 62.8029 23.1437L63.7704 17.2262C63.7854 17.1587 63.8229 17.125 63.8829 17.125H64.4792C64.5167 17.125 64.5429 17.1362 64.5579 17.1587C64.5804 17.1812 64.5879 17.2112 64.5804 17.2487L63.1854 24.8987C63.1779 24.9662 63.1367 25 63.0617 25H62.5104C62.4504 25 62.4129 24.9662 62.3979 24.8987L61.4529 18.9587C61.4454 18.9437 61.4342 18.9362 61.4192 18.9362C61.4117 18.9362 61.4079 18.9437 61.4079 18.9587L60.4854 24.8987C60.4779 24.9662 60.4404 25 60.3729 25H59.8329ZM69.261 17.71C69.261 17.785 69.2235 17.8225 69.1485 17.8225H66.561C66.531 17.8225 66.516 17.8375 66.516 17.8675V20.6575C66.516 20.6875 66.531 20.7025 66.561 20.7025H68.1922C68.2672 20.7025 68.3047 20.74 68.3047 20.815V21.2987C68.3047 21.3737 68.2672 21.4112 68.1922 21.4112H66.561C66.531 21.4112 66.516 21.4262 66.516 21.4562V24.8875C66.516 24.9625 66.4785 25 66.4035 25H65.8297C65.7547 25 65.7172 24.9625 65.7172 24.8875V17.2375C65.7172 17.1625 65.7547 17.125 65.8297 17.125H69.1485C69.2235 17.125 69.261 17.1625 69.261 17.2375V17.71ZM69.6314 21.85C69.5564 21.85 69.5189 21.8125 69.5189 21.7375V21.265C69.5189 21.19 69.5564 21.1525 69.6314 21.1525H72.2077C72.2827 21.1525 72.3202 21.19 72.3202 21.265V21.7375C72.3202 21.8125 72.2827 21.85 72.2077 21.85H69.6314ZM76.9493 17.125C77.0243 17.125 77.0618 17.1625 77.0618 17.2375V17.71C77.0618 17.785 77.0243 17.8225 76.9493 17.8225H75.4643C75.4343 17.8225 75.4193 17.8375 75.4193 17.8675V24.8875C75.4193 24.9625 75.3818 25 75.3068 25H74.733C74.658 25 74.6205 24.9625 74.6205 24.8875V17.8675C74.6205 17.8375 74.6055 17.8225 74.5755 17.8225H73.1805C73.1055 17.8225 73.068 17.785 73.068 17.71V17.2375C73.068 17.1625 73.1055 17.125 73.1805 17.125H76.9493ZM80.1539 19.2287C80.6114 19.2287 80.9639 19.3862 81.2114 19.7012C81.4664 20.0162 81.5939 20.455 81.5939 21.0175V24.8875C81.5939 24.9625 81.5564 25 81.4814 25H80.9076C80.8326 25 80.7951 24.9625 80.7951 24.8875V21.085C80.7951 20.7175 80.7126 20.4325 80.5476 20.23C80.3901 20.0275 80.1689 19.9262 79.8839 19.9262C79.5839 19.9262 79.3476 20.035 79.1751 20.2525C79.0101 20.47 78.9276 20.7662 78.9276 21.1412V24.8875C78.9276 24.9625 78.8901 25 78.8151 25H78.2414C78.1664 25 78.1289 24.9625 78.1289 24.8875V17.2375C78.1289 17.1625 78.1664 17.125 78.2414 17.125H78.8151C78.8901 17.125 78.9276 17.1625 78.9276 17.2375V19.78C78.9276 19.795 78.9351 19.8062 78.9501 19.8137C78.9651 19.8212 78.9764 19.8137 78.9839 19.7912C79.1189 19.6037 79.2876 19.465 79.4901 19.375C79.7001 19.2775 79.9214 19.2287 80.1539 19.2287ZM84.5619 19.2175C85.0869 19.2175 85.5069 19.39 85.8219 19.735C86.1369 20.0725 86.2944 20.5262 86.2944 21.0962V24.8875C86.2944 24.9625 86.2569 25 86.1819 25H85.6082C85.5332 25 85.4957 24.9625 85.4957 24.8875V24.55C85.4957 24.535 85.4882 24.5275 85.4732 24.5275C85.4657 24.52 85.4544 24.5237 85.4394 24.5387C85.1619 24.9062 84.7457 25.09 84.1907 25.09C83.7782 25.09 83.4182 24.9737 83.1107 24.7412C82.8107 24.5012 82.6607 24.0812 82.6607 23.4812C82.6607 22.8437 82.8444 22.3787 83.2119 22.0862C83.5794 21.7862 84.0632 21.6362 84.6632 21.6362H85.4507C85.4807 21.6362 85.4957 21.6212 85.4957 21.5912V21.1525C85.4957 20.7775 85.4094 20.4775 85.2369 20.2525C85.0644 20.0275 84.8319 19.915 84.5394 19.915C84.3144 19.915 84.1194 19.99 83.9544 20.14C83.7969 20.29 83.7032 20.4812 83.6732 20.7137C83.6732 20.7887 83.6357 20.8262 83.5607 20.8262L82.9307 20.815C82.8932 20.815 82.8632 20.8037 82.8407 20.7812C82.8257 20.7587 82.8219 20.7325 82.8294 20.7025C82.8669 20.26 83.0469 19.9037 83.3694 19.6337C83.6919 19.3562 84.0894 19.2175 84.5619 19.2175ZM84.3594 24.3925C84.6669 24.3925 84.9332 24.295 85.1582 24.1C85.3832 23.8975 85.4957 23.62 85.4957 23.2675V22.3225C85.4957 22.2925 85.4807 22.2775 85.4507 22.2775H84.6519C84.2919 22.2775 84.0069 22.375 83.7969 22.57C83.5869 22.7575 83.4819 23.0387 83.4819 23.4137C83.4819 23.7437 83.5607 23.9912 83.7182 24.1562C83.8832 24.3137 84.0969 24.3925 84.3594 24.3925ZM88.0279 18.2725C87.8404 18.2725 87.6867 18.2125 87.5667 18.0925C87.4542 17.9725 87.3979 17.8225 87.3979 17.6425C87.3979 17.455 87.4542 17.305 87.5667 17.1925C87.6867 17.0725 87.8404 17.0125 88.0279 17.0125C88.2079 17.0125 88.3542 17.0725 88.4667 17.1925C88.5867 17.305 88.6467 17.455 88.6467 17.6425C88.6467 17.8225 88.5867 17.9725 88.4667 18.0925C88.3542 18.2125 88.2079 18.2725 88.0279 18.2725ZM87.7467 25C87.6717 25 87.6342 24.9625 87.6342 24.8875V19.42C87.6342 19.345 87.6717 19.3075 87.7467 19.3075H88.3204C88.3954 19.3075 88.4329 19.345 88.4329 19.42V24.8875C88.4329 24.9625 88.3954 25 88.3204 25H87.7467ZM89.9292 25C89.8542 25 89.8167 24.9625 89.8167 24.8875V17.2375C89.8167 17.1625 89.8542 17.125 89.9292 17.125H90.503C90.578 17.125 90.6155 17.1625 90.6155 17.2375V24.8875C90.6155 24.9625 90.578 25 90.503 25H89.9292ZM93.5817 19.2175C94.1067 19.2175 94.5267 19.39 94.8417 19.735C95.1567 20.0725 95.3142 20.5262 95.3142 21.0962V24.8875C95.3142 24.9625 95.2767 25 95.2017 25H94.628C94.553 25 94.5155 24.9625 94.5155 24.8875V24.55C94.5155 24.535 94.508 24.5275 94.493 24.5275C94.4855 24.52 94.4742 24.5237 94.4592 24.5387C94.1817 24.9062 93.7655 25.09 93.2105 25.09C92.798 25.09 92.438 24.9737 92.1305 24.7412C91.8305 24.5012 91.6805 24.0812 91.6805 23.4812C91.6805 22.8437 91.8642 22.3787 92.2317 22.0862C92.5992 21.7862 93.083 21.6362 93.683 21.6362H94.4705C94.5005 21.6362 94.5155 21.6212 94.5155 21.5912V21.1525C94.5155 20.7775 94.4292 20.4775 94.2567 20.2525C94.0842 20.0275 93.8517 19.915 93.5592 19.915C93.3342 19.915 93.1392 19.99 92.9742 20.14C92.8167 20.29 92.723 20.4812 92.693 20.7137C92.693 20.7887 92.6555 20.8262 92.5805 20.8262L91.9505 20.815C91.913 20.815 91.883 20.8037 91.8605 20.7812C91.8455 20.7587 91.8417 20.7325 91.8492 20.7025C91.8867 20.26 92.0667 19.9037 92.3892 19.6337C92.7117 19.3562 93.1092 19.2175 93.5817 19.2175ZM93.3792 24.3925C93.6867 24.3925 93.953 24.295 94.178 24.1C94.403 23.8975 94.5155 23.62 94.5155 23.2675V22.3225C94.5155 22.2925 94.5005 22.2775 94.4705 22.2775H93.6717C93.3117 22.2775 93.0267 22.375 92.8167 22.57C92.6067 22.7575 92.5017 23.0387 92.5017 23.4137C92.5017 23.7437 92.5805 23.9912 92.738 24.1562C92.903 24.3137 93.1167 24.3925 93.3792 24.3925ZM98.5889 19.2287C99.0464 19.2287 99.3989 19.3862 99.6464 19.7012C99.9014 20.0162 100.029 20.455 100.029 21.0175V24.8875C100.029 24.9625 99.9914 25 99.9164 25H99.3427C99.2677 25 99.2302 24.9625 99.2302 24.8875V21.085C99.2302 20.7175 99.1477 20.4325 98.9827 20.23C98.8252 20.0275 98.6039 19.9262 98.3189 19.9262C98.0189 19.9262 97.7827 20.035 97.6102 20.2525C97.4452 20.47 97.3627 20.7662 97.3627 21.1412V24.8875C97.3627 24.9625 97.3252 25 97.2502 25H96.6764C96.6014 25 96.5639 24.9625 96.5639 24.8875V19.42C96.5639 19.345 96.6014 19.3075 96.6764 19.3075H97.2502C97.3252 19.3075 97.3627 19.345 97.3627 19.42V19.78C97.3627 19.795 97.3702 19.8062 97.3852 19.8137C97.4002 19.8212 97.4114 19.8137 97.4189 19.7912C97.5539 19.6037 97.7227 19.465 97.9252 19.375C98.1352 19.2775 98.3564 19.2287 98.5889 19.2287ZM103.92 17.2375C103.92 17.1625 103.957 17.125 104.032 17.125H104.606C104.681 17.125 104.718 17.1625 104.718 17.2375V24.8875C104.718 24.9625 104.681 25 104.606 25H104.032C103.957 25 103.92 24.9625 103.92 24.8875V24.64C103.92 24.625 103.912 24.6137 103.897 24.6062C103.89 24.5987 103.878 24.6025 103.863 24.6175C103.578 24.9325 103.218 25.09 102.783 25.09C102.303 25.09 101.921 24.9325 101.636 24.6175C101.351 24.295 101.208 23.8787 101.208 23.3687V20.9387C101.208 20.4137 101.351 19.9975 101.636 19.69C101.921 19.375 102.303 19.2175 102.783 19.2175C103.226 19.2175 103.586 19.3787 103.863 19.7012C103.878 19.7162 103.89 19.72 103.897 19.7125C103.912 19.705 103.92 19.6937 103.92 19.6787V17.2375ZM102.975 24.3925C103.252 24.3925 103.477 24.295 103.65 24.1C103.83 23.8975 103.92 23.6387 103.92 23.3237V20.995C103.92 20.6725 103.83 20.4137 103.65 20.2187C103.477 20.0162 103.252 19.915 102.975 19.915C102.69 19.915 102.453 20.0162 102.266 20.2187C102.086 20.4137 101.996 20.6725 101.996 20.995V23.3237C101.996 23.6387 102.086 23.8975 102.266 24.1C102.453 24.295 102.69 24.3925 102.975 24.3925ZM105.763 25C105.688 25 105.65 24.9625 105.65 24.8875V24.4712C105.65 24.3962 105.688 24.3587 105.763 24.3587H109.273C109.348 24.3587 109.385 24.3962 109.385 24.4712V24.8875C109.385 24.9625 109.348 25 109.273 25H105.763Z" fill="black"/>
<path d="M0 8.1875H166.086V8.7478H0V8.1875Z" fill="black"/>
<path d="M183.032 2.91956V3.06956H183.182V2.91956H183.032ZM182.252 2.91956V2.76956H182.102V2.91956H182.252ZM182.252 11.6372H182.102V11.7872H182.252V11.6372ZM183.032 11.6372H183.182V11.4872H183.032V11.6372ZM183.032 12.8622V13.0122H183.182V12.8622H183.032ZM180.659 12.8622H180.509V13.0122H180.659V12.8622ZM180.659 1.69458V1.54458H180.509V1.69458H180.659ZM183.032 1.69458H183.182V1.54458H183.032V1.69458ZM183.032 2.76956H182.252V3.06956H183.032V2.76956ZM182.102 2.91956V11.6372H182.402V2.91956H182.102ZM182.252 11.7872H183.032V11.4872H182.252V11.7872ZM182.882 11.6372V12.8622H183.182V11.6372H182.882ZM183.032 12.7122H180.659V13.0122H183.032V12.7122ZM180.809 12.8622V1.69458H180.509V12.8622H180.809ZM180.659 1.84458H183.032V1.54458H180.659V1.84458ZM182.882 1.69458V2.91956H183.182V1.69458H182.882ZM189.782 7.73157V7.88157H189.932V7.73157H189.782ZM186.618 7.73157V7.58157H186.468V7.73157H186.618ZM186.618 11V11.15H186.768V11H186.618ZM184.97 11H184.82V11.15H184.97V11ZM184.97 3.00195V2.85195H184.82V3.00195H184.97ZM190.178 3.00195H190.328V2.85195H190.178V3.00195ZM190.178 4.33679V4.48679H190.328V4.33679H190.178ZM186.618 4.33679V4.18679H186.468V4.33679H186.618ZM186.618 6.40222H186.468V6.55222H186.618V6.40222ZM189.782 6.40222H189.932V6.25222H189.782V6.40222ZM189.782 7.58157H186.618V7.88157H189.782V7.58157ZM186.468 7.73157V11H186.768V7.73157H186.468ZM186.618 10.85H184.97V11.15H186.618V10.85ZM185.12 11V3.00195H184.82V11H185.12ZM184.97 3.15195H190.178V2.85195H184.97V3.15195ZM190.028 3.00195V4.33679H190.328V3.00195H190.028ZM190.178 4.18679H186.618V4.48679H190.178V4.18679ZM186.468 4.33679V6.40222H186.768V4.33679H186.468ZM186.618 6.55222H189.782V6.25222H186.618V6.55222ZM189.632 6.40222V7.73157H189.932V6.40222H189.632ZM192.638 10.3079L192.533 10.415L192.533 10.4154L192.638 10.3079ZM192.165 6.4187L192.3 6.48494L192.3 6.48453L192.165 6.4187ZM193.143 5.33105L193.22 5.45968L193.22 5.45948L193.143 5.33105ZM196.51 5.71558L196.399 5.81636L196.4 5.81679L196.51 5.71558ZM197.213 8.54456V8.69456H197.363V8.54456H197.213ZM193.429 8.54456V8.39456H193.257L193.28 8.5642L193.429 8.54456ZM193.89 9.47839L193.789 9.5891L193.79 9.58981L193.89 9.47839ZM196.307 9.16528L196.419 9.06537L196.299 8.93111L196.189 9.07326L196.307 9.16528ZM197.087 10.0387L197.21 10.1253L197.278 10.0278L197.199 9.93878L197.087 10.0387ZM196.12 10.8297L196.183 10.966L196.184 10.9655L196.12 10.8297ZM193.819 6.55054L193.709 6.44832L193.708 6.44935L193.819 6.55054ZM193.445 7.4624L193.296 7.44177L193.273 7.6124H193.445V7.4624ZM195.653 7.4624V7.6124H195.803V7.4624H195.653ZM195.653 7.33606L195.803 7.33606L195.803 7.33294L195.653 7.33606ZM195.368 6.52307L195.259 6.62601L195.26 6.62704L195.368 6.52307ZM194.769 10.9599C193.931 10.9599 193.26 10.704 192.742 10.2004L192.533 10.4154C193.114 10.9811 193.864 11.2599 194.769 11.2599V10.9599ZM192.743 10.2007C192.23 9.69894 191.969 9.0278 191.969 8.17102H191.669C191.669 9.09402 191.953 9.84745 192.533 10.415L192.743 10.2007ZM191.969 8.17102V8.01721H191.669V8.17102H191.969ZM191.969 8.01721C191.969 7.43997 192.081 6.93032 192.3 6.48494L192.031 6.35246C191.788 6.84458 191.669 7.4006 191.669 8.01721H191.969ZM192.3 6.48453C192.519 6.03625 192.826 5.69638 193.22 5.45968L193.066 5.20243C192.618 5.4711 192.273 5.85632 192.03 6.35288L192.3 6.48453ZM193.22 5.45948C193.62 5.21854 194.076 5.09653 194.593 5.09653V4.79653C194.026 4.79653 193.516 4.93088 193.065 5.20263L193.22 5.45948ZM194.593 5.09653C195.372 5.09653 195.968 5.34053 196.399 5.81636L196.621 5.61479C196.123 5.06523 195.44 4.79653 194.593 4.79653V5.09653ZM196.4 5.81679C196.835 6.29329 197.063 6.97919 197.063 7.89636H197.363C197.363 6.93121 197.123 6.16325 196.621 5.61436L196.4 5.81679ZM197.063 7.89636V8.54456H197.363V7.89636H197.063ZM197.213 8.39456H193.429V8.69456H197.213V8.39456ZM193.28 8.5642C193.335 8.98264 193.503 9.32787 193.789 9.5891L193.991 9.36769C193.764 9.16017 193.625 8.88284 193.577 8.52491L193.28 8.5642ZM193.79 9.58981C194.081 9.85228 194.446 9.97996 194.873 9.97996V9.67996C194.51 9.67996 194.219 9.57326 193.99 9.36698L193.79 9.58981ZM194.873 9.97996C195.526 9.97996 196.05 9.74062 196.425 9.25731L196.189 9.07326C195.876 9.47617 195.443 9.67996 194.873 9.67996V9.97996ZM196.195 9.2652L196.975 10.1386L197.199 9.93878L196.419 9.06537L196.195 9.2652ZM196.965 9.95214C196.743 10.266 196.442 10.5135 196.057 10.6939L196.184 10.9655C196.612 10.7651 196.955 10.4853 197.21 10.1253L196.965 9.95214ZM196.058 10.6934C195.673 10.8702 195.244 10.9599 194.769 10.9599V11.2599C195.283 11.2599 195.755 11.1627 196.183 10.966L196.058 10.6934ZM194.588 6.08193C194.235 6.08193 193.938 6.20266 193.709 6.44832L193.928 6.65275C194.095 6.47361 194.31 6.38193 194.588 6.38193V6.08193ZM193.708 6.44935C193.487 6.69132 193.354 7.0275 193.296 7.44177L193.594 7.48304C193.646 7.10629 193.762 6.83456 193.929 6.65172L193.708 6.44935ZM193.445 7.6124H195.653V7.3124H193.445V7.6124ZM195.803 7.4624V7.33606H195.503V7.4624H195.803ZM195.803 7.33294C195.795 6.95643 195.693 6.64467 195.476 6.4191L195.26 6.62704C195.409 6.78234 195.497 7.01256 195.503 7.33918L195.803 7.33294ZM195.477 6.42014C195.258 6.18854 194.954 6.08193 194.588 6.08193V6.38193C194.895 6.38193 195.111 6.46942 195.259 6.626L195.477 6.42014ZM203.991 10.3134L204.11 10.4045L204.11 10.4041L203.991 10.3134ZM200.744 10.3683L200.863 10.2762L200.637 9.98551L200.595 10.3514L200.744 10.3683ZM200.673 11V11.15H200.807L200.822 11.0168L200.673 11ZM199.245 11H199.095V11.15H199.245V11ZM199.245 2.5625V2.4125H199.095V2.5625H199.245ZM200.832 2.5625H200.982V2.4125H200.832V2.5625ZM200.832 5.58923H200.682V5.9956L200.946 5.68669L200.832 5.58923ZM203.98 5.74854L203.861 5.83984L203.862 5.84074L203.98 5.74854ZM202.727 6.65491L202.604 6.73961L202.604 6.74037L202.727 6.65491ZM200.832 6.85815L200.696 6.79545L200.682 6.8253V6.85815H200.832ZM200.832 9.20374H200.682V9.2369L200.696 9.26697L200.832 9.20374ZM202.898 9.0719L203.041 9.11747L203.041 9.11738L202.898 9.0719ZM204.451 8.08313C204.451 9.01581 204.251 9.72293 203.871 10.2226L204.11 10.4041C204.543 9.83445 204.751 9.05475 204.751 8.08313H204.451ZM203.872 10.2222C203.496 10.7124 202.975 10.9599 202.288 10.9599V11.2599C203.059 11.2599 203.672 10.9763 204.11 10.4045L203.872 10.2222ZM202.288 10.9599C201.688 10.9599 201.218 10.7328 200.863 10.2762L200.626 10.4604C201.04 10.9925 201.599 11.2599 202.288 11.2599V10.9599ZM200.595 10.3514L200.524 10.9832L200.822 11.0168L200.893 10.3851L200.595 10.3514ZM200.673 10.85H199.245V11.15H200.673V10.85ZM199.395 11V2.5625H199.095V11H199.395ZM199.245 2.7125H200.832V2.4125H199.245V2.7125ZM200.682 2.5625V5.58923H200.982V2.5625H200.682ZM200.946 5.68669C201.282 5.29375 201.721 5.09653 202.277 5.09653V4.79653C201.639 4.79653 201.115 5.02779 200.718 5.49178L200.946 5.68669ZM202.277 5.09653C202.96 5.09653 203.481 5.34531 203.861 5.83983L204.099 5.65724C203.658 5.08243 203.045 4.79653 202.277 4.79653V5.09653ZM203.862 5.84074C204.248 6.33607 204.451 7.0477 204.451 7.99524H204.751C204.751 7.00918 204.54 6.22301 204.098 5.65633L203.862 5.84074ZM204.451 7.99524V8.08313H204.751V7.99524H204.451ZM203.163 7.96777C203.163 7.35789 203.068 6.88231 202.851 6.56944L202.604 6.74037C202.768 6.97682 202.863 7.37649 202.863 7.96777H203.163ZM202.851 6.5702C202.629 6.24567 202.296 6.08743 201.876 6.08743V6.38743C202.211 6.38743 202.445 6.5075 202.604 6.73961L202.851 6.5702ZM201.876 6.08743C201.603 6.08743 201.362 6.14339 201.159 6.26369C200.956 6.38458 200.802 6.56453 200.696 6.79545L200.969 6.92086C201.053 6.73796 201.168 6.60755 201.313 6.52153C201.458 6.43491 201.644 6.38743 201.876 6.38743V6.08743ZM200.682 6.85815V9.20374H200.982V6.85815H200.682ZM200.696 9.26697C200.804 9.49953 200.96 9.68068 201.165 9.80238C201.369 9.92351 201.612 9.97996 201.887 9.97996V9.67996C201.653 9.67996 201.466 9.63204 201.318 9.54442C201.171 9.45738 201.054 9.32542 200.968 9.1405L200.696 9.26697ZM201.887 9.97996C202.169 9.97996 202.415 9.91019 202.614 9.76044C202.813 9.61103 202.953 9.3921 203.041 9.11747L202.755 9.02633C202.681 9.25707 202.572 9.41716 202.434 9.52044C202.297 9.62338 202.118 9.67996 201.887 9.67996V9.97996ZM203.041 9.11738C203.125 8.8529 203.163 8.46587 203.163 7.96777H202.863C202.863 8.45845 202.824 8.8075 202.755 9.02642L203.041 9.11738ZM216.052 11V11.15H216.202V11H216.052ZM210.569 11H210.419V11.15H210.569V11ZM210.569 9.91235L210.46 9.80972L210.419 9.853V9.91235H210.569ZM213.157 7.15479L213.266 7.25743L213.267 7.25605L213.157 7.15479ZM213.942 6.13855L213.813 6.06185L213.813 6.06307L213.942 6.13855ZM213.931 4.47961L213.818 4.57839L213.819 4.5794L213.931 4.47961ZM212.311 4.54553L212.196 4.44917L212.196 4.44934L212.311 4.54553ZM212.003 5.51782V5.66782H212.153V5.51782H212.003ZM210.41 5.51782H210.26V5.66782H210.41V5.51782ZM210.756 4.18298L210.627 4.10755L210.626 4.10844L210.756 4.18298ZM211.745 3.23816L211.816 3.37045L211.817 3.36997L211.745 3.23816ZM215.107 3.48535L215.008 3.59846L215.009 3.59885L215.107 3.48535ZM214.431 7.80298L214.54 7.90622L214.542 7.9041L214.431 7.80298ZM212.613 9.72009L212.504 9.61687L212.264 9.87009H212.613V9.72009ZM216.052 9.72009H216.202V9.57009H216.052V9.72009ZM216.052 10.85H210.569V11.15H216.052V10.85ZM210.719 11V9.91235H210.419V11H210.719ZM210.679 10.015L213.266 7.25742L213.047 7.05215L210.46 9.80972L210.679 10.015ZM213.267 7.25605C213.626 6.8639 213.896 6.51627 214.072 6.21403L213.813 6.06307C213.652 6.33945 213.398 6.6693 213.046 7.05352L213.267 7.25605ZM214.071 6.21524C214.253 5.90943 214.35 5.60843 214.35 5.31458H214.05C214.05 5.54074 213.976 5.78906 213.813 6.06186L214.071 6.21524ZM214.35 5.31458C214.35 4.93445 214.254 4.61647 214.043 4.37983L213.819 4.5794C213.967 4.74559 214.05 4.98425 214.05 5.31458H214.35ZM214.044 4.38084C213.83 4.13607 213.528 4.022 213.162 4.022V4.322C213.463 4.322 213.674 4.413 213.818 4.57839L214.044 4.38084ZM213.162 4.022C212.764 4.022 212.436 4.16233 212.196 4.44917L212.426 4.64189C212.603 4.43069 212.842 4.322 213.162 4.322V4.022ZM212.196 4.44934C211.963 4.72809 211.853 5.0892 211.853 5.51782H212.153C212.153 5.14078 212.249 4.8537 212.426 4.64173L212.196 4.44934ZM212.003 5.36782H210.41V5.66782H212.003V5.36782ZM210.56 5.51782C210.56 5.05558 210.669 4.63654 210.886 4.25753L210.626 4.10844C210.382 4.5351 210.26 5.00595 210.26 5.51782H210.56ZM210.886 4.25842C211.106 3.88047 211.415 3.58484 211.816 3.37045L211.674 3.10587C211.226 3.34558 210.875 3.67983 210.627 4.10755L210.886 4.25842ZM211.817 3.36997C212.217 3.1525 212.673 3.04209 213.19 3.04209V2.74209C212.629 2.74209 212.123 2.86239 211.673 3.10634L211.817 3.36997ZM213.19 3.04209C213.991 3.04209 214.59 3.23426 215.008 3.59846L215.205 3.37224C214.715 2.94543 214.037 2.74209 213.19 2.74209V3.04209ZM215.009 3.59885C215.427 3.96035 215.643 4.4737 215.643 5.16077H215.943C215.943 4.40497 215.702 3.80137 215.205 3.37185L215.009 3.59885ZM215.643 5.16077C215.643 5.52954 215.548 5.90953 215.352 6.30218L215.62 6.43634C215.834 6.00868 215.943 5.58301 215.943 5.16077H215.643ZM215.352 6.30218C215.155 6.69478 214.814 7.161 214.32 7.70186L214.542 7.9041C215.044 7.35365 215.406 6.86406 215.62 6.43634L215.352 6.30218ZM214.322 7.69976L212.504 9.61687L212.722 9.82332L214.54 7.9062L214.322 7.69976ZM212.613 9.87009H216.052V9.57009H212.613V9.87009ZM215.902 9.72009V11H216.202V9.72009H215.902ZM218.132 7.77551L217.982 7.77551L217.982 7.77705L218.132 7.77551ZM218.825 3.76001L218.708 3.66603L218.707 3.66649L218.825 3.76001ZM222.829 3.75452L222.712 3.8484L222.712 3.84877L222.829 3.75452ZM223.538 6.22095L223.688 6.22095L223.688 6.21941L223.538 6.22095ZM221.676 4.63342L221.546 4.70969L221.547 4.71151L221.676 4.63342ZM220 4.61145L219.873 4.53239L219.872 4.53284L220 4.61145ZM219.72 5.95728L219.57 5.95458V5.95728H219.72ZM219.984 9.35754L219.852 9.43001L219.853 9.4318L219.984 9.35754ZM221.95 7.97876L222.1 7.98051V7.97876H221.95ZM223.388 7.69312C223.388 8.78124 223.162 9.58917 222.733 10.1386L222.969 10.3233C223.456 9.70087 223.688 8.81691 223.688 7.69312H223.388ZM222.733 10.1386C222.309 10.6812 221.687 10.9599 220.841 10.9599V11.2599C221.76 11.2599 222.478 10.9526 222.969 10.3233L222.733 10.1386ZM220.841 10.9599C220.005 10.9599 219.386 10.6864 218.958 10.1536L218.724 10.3413C219.219 10.9584 219.933 11.2599 220.841 11.2599V10.9599ZM218.958 10.1536C218.525 9.61441 218.293 8.82817 218.282 7.77398L217.982 7.77705C217.994 8.86885 218.234 9.73057 218.724 10.3413L218.958 10.1536ZM218.282 7.77551V6.30334H217.982V7.77551H218.282ZM218.282 6.30334C218.282 5.20385 218.51 4.39503 218.942 3.85353L218.707 3.66649C218.216 4.28221 217.982 5.16895 217.982 6.30334H218.282ZM218.941 3.85398C219.373 3.31715 219.995 3.04209 220.83 3.04209V2.74209C219.921 2.74209 219.206 3.04564 218.708 3.66604L218.941 3.85398ZM220.83 3.04209C221.665 3.04209 222.284 3.31556 222.712 3.8484L222.946 3.66063C222.451 3.04357 221.737 2.74209 220.83 2.74209V3.04209ZM222.712 3.84877C223.145 4.38408 223.377 5.1682 223.388 6.22248L223.688 6.21941C223.677 5.12769 223.436 4.26754 222.946 3.66027L222.712 3.84877ZM223.388 6.22095V7.69312H223.688V6.22095H223.388ZM222.1 6.07812C222.1 5.40829 222.009 4.89204 221.804 4.55533L221.547 4.71151C221.708 4.9754 221.8 5.42228 221.8 6.07812H222.1ZM221.805 4.55717C221.595 4.20277 221.261 4.02749 220.83 4.02749V4.32749C221.167 4.32749 221.397 4.45616 221.546 4.70968L221.805 4.55717ZM220.83 4.02749C220.41 4.02749 220.082 4.19407 219.873 4.53239L220.128 4.69051C220.277 4.45021 220.502 4.32749 220.83 4.32749V4.02749ZM219.872 4.53284C219.675 4.85333 219.581 5.33505 219.57 5.95458L219.87 5.95997C219.881 5.35636 219.974 4.94085 220.128 4.69006L219.872 4.53284ZM219.57 5.95728V7.90186H219.87V5.95728H219.57ZM219.57 7.90186C219.57 8.56188 219.658 9.07791 219.852 9.43001L220.115 9.28508C219.958 8.99997 219.87 8.54554 219.87 7.90186H219.57ZM219.853 9.4318C220.062 9.79803 220.4 9.97996 220.841 9.97996V9.67996C220.497 9.67996 220.264 9.54694 220.114 9.28329L219.853 9.4318ZM220.841 9.97996C221.275 9.97996 221.609 9.80494 221.812 9.44794L221.551 9.30011C221.408 9.55102 221.182 9.67996 220.841 9.67996V9.97996ZM221.812 9.44794C222.003 9.11072 222.093 8.61487 222.1 7.98051L221.8 7.97701C221.793 8.59509 221.704 9.02941 221.551 9.30011L221.812 9.44794ZM222.1 7.97876V6.07812H221.8V7.97876H222.1ZM229.596 11V11.15H229.746V11H229.596ZM228.008 11H227.858V11.15H228.008V11ZM228.008 4.88062H228.158V4.67704L227.964 4.73735L228.008 4.88062ZM226.113 5.46838H225.963V5.67195L226.157 5.61165L226.113 5.46838ZM226.113 4.17749L226.062 4.03628L225.963 4.07189V4.17749H226.113ZM229.425 2.99097V2.84097H229.399L229.375 2.84975L229.425 2.99097ZM229.596 2.99097H229.746V2.84097H229.596V2.99097ZM229.596 10.85H228.008V11.15H229.596V10.85ZM228.158 11V4.88062H227.858V11H228.158ZM227.964 4.73735L226.068 5.32512L226.157 5.61165L228.052 5.02388L227.964 4.73735ZM226.263 5.46838V4.17749H225.963V5.46838H226.263ZM226.163 4.3187L229.476 3.13218L229.375 2.84975L226.062 4.03628L226.163 4.3187ZM229.425 3.14097H229.596V2.84097H229.425V3.14097ZM229.446 2.99097V11H229.746V2.99097H229.446ZM233.561 7.06689L233.412 7.04998L233.397 7.18081L233.524 7.21249L233.561 7.06689ZM234.022 3.00195V2.85195H233.888L233.873 2.98503L234.022 3.00195ZM238.504 3.00195H238.654V2.85195H238.504V3.00195ZM238.504 4.32581V4.47581H238.654V4.32581H238.504ZM235.324 4.32581V4.17581H235.19L235.175 4.30867L235.324 4.32581ZM235.126 6.04517L234.977 6.02803L234.944 6.31224L235.197 6.17748L235.126 6.04517ZM238.438 9.82446L238.306 9.75363L238.306 9.75406L238.438 9.82446ZM237.505 10.7748L237.577 10.9062L237.578 10.9057L237.505 10.7748ZM234.72 10.8187L234.655 10.9541L234.656 10.9545L234.72 10.8187ZM233.736 9.98926L233.612 10.0728L233.612 10.0736L233.736 9.98926ZM233.357 8.77527V8.62527H233.202L233.207 8.7801L233.357 8.77527ZM234.928 8.77527L235.078 8.76051L235.064 8.62527H234.928V8.77527ZM235.274 9.5553L235.171 9.66437L235.174 9.66629L235.274 9.5553ZM236.889 9.44543L237.009 9.53598L237.01 9.53516L236.889 9.44543ZM234.978 7.23718L234.881 7.12241L234.876 7.12726L234.978 7.23718ZM234.824 7.38L234.788 7.5256L234.867 7.54511L234.926 7.48992L234.824 7.38ZM233.71 7.08381L234.171 3.01887L233.873 2.98503L233.412 7.04998L233.71 7.08381ZM234.022 3.15195H238.504V2.85195H234.022V3.15195ZM238.354 3.00195V4.32581H238.654V3.00195H238.354ZM238.504 4.17581H235.324V4.47581H238.504V4.17581ZM235.175 4.30867L234.977 6.02803L235.275 6.06231L235.473 4.34295L235.175 4.30867ZM235.197 6.17748C235.552 5.9876 235.929 5.89304 236.329 5.89304V5.59304C235.879 5.59304 235.454 5.6999 235.055 5.91285L235.197 6.17748ZM236.329 5.89304C237.057 5.89304 237.611 6.11744 238.009 6.5529L238.231 6.35042C237.765 5.84106 237.124 5.59304 236.329 5.59304V5.89304ZM238.009 6.5529C238.409 6.98964 238.618 7.61004 238.618 8.43469H238.918C238.918 7.56012 238.695 6.8585 238.231 6.35042L238.009 6.5529ZM238.618 8.43469C238.618 8.9291 238.513 9.36757 238.306 9.75363L238.571 9.8953C238.803 9.46104 238.918 8.973 238.918 8.43469H238.618ZM238.306 9.75406C238.104 10.1348 237.813 10.4307 237.431 10.6438L237.578 10.9057C238.009 10.6648 238.341 10.3271 238.571 9.89487L238.306 9.75406ZM237.432 10.6433C237.052 10.8524 236.598 10.9599 236.065 10.9599V11.2599C236.639 11.2599 237.144 11.1439 237.577 10.9062L237.432 10.6433ZM236.065 10.9599C235.603 10.9599 235.176 10.8671 234.783 10.6829L234.656 10.9545C235.091 11.1585 235.561 11.2599 236.065 11.2599V10.9599ZM234.784 10.6834C234.393 10.4963 234.086 10.2367 233.86 9.90488L233.612 10.0736C233.87 10.4523 234.219 10.7457 234.655 10.9541L234.784 10.6834ZM233.861 9.90576C233.64 9.57534 233.521 9.19829 233.507 8.77043L233.207 8.7801C233.223 9.26045 233.357 9.69272 233.612 10.0728L233.861 9.90576ZM233.357 8.92527H234.928V8.62527H233.357V8.92527ZM234.779 8.79003C234.815 9.15062 234.942 9.44738 235.171 9.66435L235.377 9.44625C235.212 9.28968 235.108 9.06642 235.078 8.76051L234.779 8.79003ZM235.174 9.66629C235.407 9.87899 235.708 9.97996 236.06 9.97996V9.67996C235.768 9.67996 235.544 9.59782 235.375 9.44431L235.174 9.66629ZM236.06 9.97996C236.46 9.97996 236.783 9.8345 237.009 9.53598L236.77 9.35489C236.608 9.56906 236.378 9.67996 236.06 9.67996V9.97996ZM237.01 9.53516C237.23 9.23981 237.331 8.83738 237.331 8.3468H237.031C237.031 8.80105 236.937 9.13104 236.769 9.35571L237.01 9.53516ZM237.331 8.3468C237.331 7.86941 237.213 7.47975 236.956 7.20129L236.735 7.40491C236.925 7.60985 237.031 7.91599 237.031 8.3468H237.331ZM236.956 7.20129C236.697 6.92161 236.336 6.79055 235.895 6.79055V7.09055C236.274 7.09055 236.547 7.20119 236.735 7.40491L236.956 7.20129ZM235.895 6.79055C235.491 6.79055 235.148 6.89705 234.881 7.12254L235.075 7.35183C235.276 7.18181 235.545 7.09055 235.895 7.09055V6.79055ZM234.876 7.12726L234.722 7.27009L234.926 7.48992L235.08 7.3471L234.876 7.12726ZM234.86 7.23441L233.597 6.9213L233.524 7.21249L234.788 7.5256L234.86 7.23441ZM247.989 8.21497V8.36497H248.139V8.21497H247.989ZM244.896 8.21497H244.746V8.36497H244.896V8.21497ZM244.896 6.93506V6.78506H244.746V6.93506H244.896ZM247.989 6.93506H248.139V6.78506H247.989V6.93506ZM247.989 8.06497H244.896V8.36497H247.989V8.06497ZM245.046 8.21497V6.93506H244.746V8.21497H245.046ZM244.896 7.08506H247.989V6.78506H244.896V7.08506ZM247.839 6.93506V8.21497H248.139V6.93506H247.839ZM256.573 3.00195L256.714 2.95188L256.679 2.85195H256.573V3.00195ZM258.627 8.80273L258.486 8.85281L258.627 9.25311L258.768 8.85257L258.627 8.80273ZM260.67 3.00195V2.85195H260.564L260.529 2.95211L260.67 3.00195ZM262.835 3.00195H262.985V2.85195H262.835V3.00195ZM262.835 11V11.15H262.985V11H262.835ZM261.181 11H261.031V11.15H261.181V11ZM261.181 8.81372L261.031 8.80717V8.81372H261.181ZM261.346 5.03992L261.496 5.04646L261.205 4.98883L261.346 5.03992ZM259.187 11V11.15H259.292L259.328 11.0511L259.187 11ZM258.056 11L257.915 11.051L257.95 11.15H258.056V11ZM255.902 5.04541L256.043 4.9944L255.752 5.05196L255.902 5.04541ZM256.067 8.81372H256.217L256.217 8.80717L256.067 8.81372ZM256.067 11V11.15H256.217V11H256.067ZM254.419 11H254.269V11.15H254.419V11ZM254.419 3.00195V2.85195H254.269V3.00195H254.419ZM256.431 3.05203L258.486 8.85281L258.768 8.75266L256.714 2.95188L256.431 3.05203ZM258.768 8.85257L260.812 3.05179L260.529 2.95211L258.485 8.7529L258.768 8.85257ZM260.67 3.15195H262.835V2.85195H260.67V3.15195ZM262.685 3.00195V11H262.985V3.00195H262.685ZM262.835 10.85H261.181V11.15H262.835V10.85ZM261.331 11V8.81372H261.031V11H261.331ZM261.331 8.82026L261.496 5.04646L261.196 5.03337L261.031 8.80718L261.331 8.82026ZM261.205 4.98883L259.046 10.9489L259.328 11.0511L261.487 5.091L261.205 4.98883ZM259.187 10.85H258.056V11.15H259.187V10.85ZM258.197 10.949L256.043 4.9944L255.761 5.09642L257.915 11.051L258.197 10.949ZM255.752 5.05196L255.917 8.82027L256.217 8.80717L256.052 5.03886L255.752 5.05196ZM255.917 8.81372V11H256.217V8.81372H255.917ZM256.067 10.85H254.419V11.15H256.067V10.85ZM254.569 11V3.00195H254.269V11H254.569ZM254.419 3.15195H256.573V2.85195H254.419V3.15195ZM268.739 11L268.605 11.0684L268.647 11.15H268.739V11ZM268.579 10.4672L268.728 10.4442L268.679 10.1315L268.468 10.367L268.579 10.4672ZM265.63 10.6045L265.53 10.7168L265.531 10.7173L265.63 10.6045ZM265.756 7.87988L265.668 7.75808L265.668 7.75841L265.756 7.87988ZM267.783 7.36902V7.21902L267.782 7.21902L267.783 7.36902ZM268.514 7.36902V7.51902H268.664V7.36902H268.514ZM268.299 6.36926L268.185 6.46605L268.186 6.4675L268.299 6.36926ZM267.003 6.31433L266.907 6.19909L266.906 6.20025L267.003 6.31433ZM266.778 6.84167V6.99167H266.928V6.84167H266.778ZM265.19 6.84167H265.04V6.99167H265.19V6.84167ZM266.41 5.19922L266.468 5.3373L266.469 5.33682L266.41 5.19922ZM269.458 5.50134L269.36 5.61489L269.361 5.61578L269.458 5.50134ZM270.107 9.62671L269.957 9.62671L269.957 9.62768L270.107 9.62671ZM270.343 10.9066H270.493V10.8692L270.475 10.8362L270.343 10.9066ZM270.343 11V11.15H270.493V11H270.343ZM268.074 9.74207L268.143 9.87524L268.145 9.87421L268.074 9.74207ZM268.514 9.31909L268.645 9.39053L268.664 9.35711V9.31909H268.514ZM268.514 8.29736H268.664V8.14736H268.514V8.29736ZM266.651 9.12134L266.502 9.10739L266.502 9.11253L266.651 9.12134ZM266.646 9.21472L266.496 9.2059V9.21472H266.646ZM268.872 10.9316C268.808 10.8069 268.759 10.6457 268.728 10.4442L268.431 10.4902C268.466 10.7134 268.523 10.9075 268.605 11.0684L268.872 10.9316ZM268.468 10.367C268.114 10.7614 267.656 10.9599 267.08 10.9599V11.2599C267.734 11.2599 268.276 11.0299 268.691 10.5673L268.468 10.367ZM267.08 10.9599C266.529 10.9599 266.082 10.8013 265.728 10.4917L265.531 10.7173C265.946 11.0815 266.467 11.2599 267.08 11.2599V10.9599ZM265.729 10.4921C265.381 10.184 265.208 9.80021 265.208 9.33008H264.908C264.908 9.88534 265.117 10.3512 265.53 10.7168L265.729 10.4921ZM265.208 9.33008C265.208 8.74287 265.422 8.30703 265.844 8.00136L265.668 7.75841C265.16 8.12656 264.908 8.65752 264.908 9.33008H265.208ZM265.844 8.00169C266.277 7.69031 266.917 7.52261 267.784 7.51902L267.782 7.21902C266.884 7.22275 266.173 7.39563 265.668 7.75808L265.844 8.00169ZM267.783 7.51902H268.514V7.21902H267.783V7.51902ZM268.664 7.36902V7.02844H268.364V7.36902H268.664ZM268.664 7.02844C268.664 6.72736 268.585 6.4696 268.413 6.27102L268.186 6.4675C268.3 6.59852 268.364 6.78021 268.364 7.02844H268.664ZM268.414 6.27249C268.236 6.06181 267.964 5.97207 267.635 5.97207V6.27207C267.913 6.27207 268.084 6.34712 268.185 6.46604L268.414 6.27249ZM267.635 5.97207C267.344 5.97207 267.096 6.0419 266.907 6.1991L267.099 6.42956C267.218 6.33042 267.391 6.27207 267.635 6.27207V5.97207ZM266.906 6.20025C266.717 6.36086 266.628 6.58085 266.628 6.84167H266.928C266.928 6.65572 266.988 6.52415 267.1 6.42842L266.906 6.20025ZM266.778 6.69167H265.19V6.99167H266.778V6.69167ZM265.34 6.84167C265.34 6.53074 265.435 6.24267 265.63 5.97391L265.387 5.79782C265.157 6.115 265.04 6.46413 265.04 6.84167H265.34ZM265.63 5.97391C265.824 5.70645 266.101 5.49322 266.468 5.33729L266.351 5.06115C265.942 5.23481 265.618 5.47934 265.387 5.79782L265.63 5.97391ZM266.469 5.33682C266.836 5.17763 267.251 5.09653 267.717 5.09653V4.79653C267.216 4.79653 266.759 4.8839 266.35 5.06162L266.469 5.33682ZM267.717 5.09653C268.424 5.09653 268.966 5.27474 269.36 5.61489L269.556 5.3878C269.093 4.9882 268.475 4.79653 267.717 4.79653V5.09653ZM269.361 5.61578C269.754 5.94835 269.957 6.41937 269.957 7.05042H270.257C270.257 6.34845 270.027 5.78676 269.555 5.38691L269.361 5.61578ZM269.957 7.05042V9.62671H270.257V7.05042H269.957ZM269.957 9.62768C269.96 10.2007 270.04 10.6561 270.21 10.977L270.475 10.8362C270.338 10.5785 270.26 10.1806 270.257 9.62573L269.957 9.62768ZM270.193 10.9066V11H270.493V10.9066H270.193ZM270.343 10.85H268.739V11.15H270.343V10.85ZM267.426 10.0459C267.683 10.0459 267.923 9.98941 268.143 9.87523L268.005 9.6089C267.83 9.6998 267.638 9.74587 267.426 9.74587V10.0459ZM268.145 9.87421C268.365 9.75592 268.535 9.59515 268.645 9.39053L268.382 9.24765C268.302 9.3946 268.178 9.51581 268.003 9.60992L268.145 9.87421ZM268.664 9.31909V8.29736H268.364V9.31909H268.664ZM268.514 8.14736H267.92V8.44736H268.514V8.14736ZM267.92 8.14736C267.509 8.14736 267.171 8.21777 266.925 8.37755C266.671 8.54243 266.531 8.79198 266.502 9.1074L266.801 9.13528C266.823 8.90138 266.92 8.73894 267.089 8.62916C267.266 8.51429 267.537 8.44736 267.92 8.44736V8.14736ZM266.502 9.11253L266.496 9.20591L266.796 9.22353L266.801 9.13015L266.502 9.11253ZM266.496 9.21472C266.496 9.45226 266.581 9.65595 266.753 9.81395L266.956 9.59328C266.849 9.49493 266.796 9.3727 266.796 9.21472H266.496ZM266.753 9.81395C266.927 9.97412 267.157 10.0459 267.426 10.0459V9.74587C267.211 9.74587 267.061 9.68946 266.956 9.59328L266.753 9.81395ZM274.582 8.7533L274.439 8.79622L274.583 9.27866L274.726 8.79603L274.582 8.7533ZM275.681 5.0564V4.9064H275.569L275.537 5.01367L275.681 5.0564ZM277.384 5.0564L277.526 5.1057L277.595 4.9064H277.384V5.0564ZM274.994 11.9229L275.133 11.9812L275.136 11.9722L274.994 11.9229ZM274.863 12.236L274.999 12.2984L275.001 12.2942L274.863 12.236ZM272.402 13.2961H272.252V13.4086L272.36 13.4401L272.402 13.2961ZM272.402 12.0931L272.405 11.9432L272.252 11.9397V12.0931H272.402ZM272.643 12.0986L272.64 12.2486H272.643V12.0986ZM273.313 11.9613L273.235 11.8332L273.234 11.8341L273.313 11.9613ZM273.665 11.5054L273.804 11.5607L273.805 11.5589L273.665 11.5054ZM273.852 11.0165L273.992 11.07L274.011 11.0188L273.993 10.967L273.852 11.0165ZM271.77 5.0564V4.9064H271.559L271.628 5.10586L271.77 5.0564ZM273.478 5.0564L273.622 5.01347L273.59 4.9064H273.478V5.0564ZM274.726 8.79603L275.825 5.09913L275.537 5.01367L274.439 8.71057L274.726 8.79603ZM275.681 5.2064H277.384V4.9064H275.681V5.2064ZM277.242 5.0071L274.853 11.8736L275.136 11.9722L277.526 5.1057L277.242 5.0071ZM274.856 11.8646L274.724 12.1778L275.001 12.2942L275.133 11.9811L274.856 11.8646ZM274.726 12.1736C274.558 12.5418 274.339 12.8087 274.074 12.9843C273.809 13.1596 273.488 13.2505 273.105 13.2505V13.5505C273.538 13.5505 273.918 13.4473 274.24 13.2344C274.56 13.0218 274.812 12.7065 274.999 12.2984L274.726 12.1736ZM273.105 13.2505C272.889 13.2505 272.669 13.218 272.444 13.1522L272.36 13.4401C272.61 13.5134 272.859 13.5505 273.105 13.5505V13.2505ZM272.552 13.2961V12.0931H272.252V13.2961H272.552ZM272.398 12.2431L272.64 12.2486L272.647 11.9487L272.405 11.9432L272.398 12.2431ZM272.643 12.2486C272.954 12.2486 273.211 12.2023 273.393 12.0885L273.234 11.8341C273.123 11.9034 272.934 11.9486 272.643 11.9486V12.2486ZM273.392 12.0894C273.577 11.9764 273.712 11.7943 273.804 11.5607L273.526 11.4501C273.45 11.6413 273.35 11.7631 273.235 11.8332L273.392 12.0894ZM273.805 11.5589L273.992 11.07L273.712 10.9629L273.525 11.4518L273.805 11.5589ZM273.993 10.967L271.912 5.00693L271.628 5.10586L273.71 11.0659L273.993 10.967ZM271.77 5.2064H273.478V4.9064H271.77V5.2064ZM273.335 5.09932L274.439 8.79622L274.726 8.71037L273.622 5.01347L273.335 5.09932ZM288.478 11V11.15H288.628V11H288.478ZM282.996 11H282.846V11.15H282.996V11ZM282.996 9.91235L282.886 9.80972L282.846 9.853V9.91235H282.996ZM285.583 7.15479L285.692 7.25743L285.694 7.25605L285.583 7.15479ZM286.369 6.13855L286.24 6.06185L286.239 6.06307L286.369 6.13855ZM286.358 4.47961L286.245 4.57839L286.246 4.5794L286.358 4.47961ZM284.737 4.54553L284.622 4.44917L284.622 4.44934L284.737 4.54553ZM284.429 5.51782V5.66782H284.579V5.51782H284.429ZM282.836 5.51782H282.686V5.66782H282.836V5.51782ZM283.182 4.18298L283.053 4.10755L283.052 4.10844L283.182 4.18298ZM284.171 3.23816L284.242 3.37045L284.243 3.36997L284.171 3.23816ZM287.533 3.48535L287.435 3.59846L287.435 3.59885L287.533 3.48535ZM286.857 7.80298L286.966 7.90622L286.968 7.9041L286.857 7.80298ZM285.039 9.72009L284.93 9.61687L284.69 9.87009H285.039V9.72009ZM288.478 9.72009H288.628V9.57009H288.478V9.72009ZM288.478 10.85H282.996V11.15H288.478V10.85ZM283.146 11V9.91235H282.846V11H283.146ZM283.105 10.015L285.692 7.25742L285.474 7.05215L282.886 9.80972L283.105 10.015ZM285.694 7.25605C286.053 6.8639 286.322 6.51627 286.498 6.21403L286.239 6.06307C286.078 6.33945 285.824 6.6693 285.472 7.05352L285.694 7.25605ZM286.497 6.21524C286.679 5.90943 286.777 5.60843 286.777 5.31458H286.477C286.477 5.54074 286.402 5.78906 286.24 6.06186L286.497 6.21524ZM286.777 5.31458C286.777 4.93445 286.68 4.61647 286.47 4.37983L286.246 4.5794C286.394 4.74559 286.477 4.98425 286.477 5.31458H286.777ZM286.47 4.38084C286.256 4.13607 285.955 4.022 285.589 4.022V4.322C285.889 4.322 286.1 4.413 286.245 4.57839L286.47 4.38084ZM285.589 4.022C285.19 4.022 284.863 4.16233 284.622 4.44917L284.852 4.64189C285.029 4.43069 285.269 4.322 285.589 4.322V4.022ZM284.622 4.44934C284.389 4.72809 284.279 5.0892 284.279 5.51782H284.579C284.579 5.14078 284.675 4.8537 284.852 4.64173L284.622 4.44934ZM284.429 5.36782H282.836V5.66782H284.429V5.36782ZM282.986 5.51782C282.986 5.05558 283.096 4.63654 283.313 4.25753L283.052 4.10844C282.808 4.5351 282.686 5.00595 282.686 5.51782H282.986ZM283.312 4.25842C283.532 3.88047 283.841 3.58484 284.242 3.37045L284.101 3.10587C283.652 3.34558 283.302 3.67983 283.053 4.10755L283.312 4.25842ZM284.243 3.36997C284.643 3.1525 285.1 3.04209 285.616 3.04209V2.74209C285.056 2.74209 284.549 2.86239 284.1 3.10634L284.243 3.36997ZM285.616 3.04209C286.417 3.04209 287.016 3.23426 287.435 3.59846L287.632 3.37224C287.142 2.94543 286.463 2.74209 285.616 2.74209V3.04209ZM287.435 3.59885C287.853 3.96035 288.07 4.4737 288.07 5.16077H288.37C288.37 4.40497 288.128 3.80137 287.631 3.37185L287.435 3.59885ZM288.07 5.16077C288.07 5.52954 287.974 5.90953 287.778 6.30218L288.046 6.43634C288.26 6.00868 288.37 5.58301 288.37 5.16077H288.07ZM287.778 6.30218C287.582 6.69478 287.24 7.161 286.747 7.70186L286.968 7.9041C287.471 7.35365 287.832 6.86406 288.046 6.43634L287.778 6.30218ZM286.749 7.69976L284.93 9.61687L285.148 9.82332L286.966 7.9062L286.749 7.69976ZM285.039 9.87009H288.478V9.57009H285.039V9.87009ZM288.328 9.72009V11H288.628V9.72009H288.328ZM290.559 7.77551L290.409 7.77551L290.409 7.77705L290.559 7.77551ZM291.251 3.76001L291.134 3.66603L291.134 3.66649L291.251 3.76001ZM295.255 3.75452L295.138 3.8484L295.139 3.84877L295.255 3.75452ZM295.964 6.22095L296.114 6.22095L296.114 6.21941L295.964 6.22095ZM294.102 4.63342L293.973 4.70969L293.974 4.71151L294.102 4.63342ZM292.426 4.61145L292.299 4.53239L292.299 4.53284L292.426 4.61145ZM292.146 5.95728L291.996 5.95458V5.95728H292.146ZM292.41 9.35754L292.279 9.43001L292.28 9.4318L292.41 9.35754ZM294.376 7.97876L294.526 7.98051V7.97876H294.376ZM295.814 7.69312C295.814 8.78124 295.588 9.58917 295.159 10.1386L295.396 10.3233C295.882 9.70087 296.114 8.81691 296.114 7.69312H295.814ZM295.159 10.1386C294.735 10.6812 294.113 10.9599 293.267 10.9599V11.2599C294.186 11.2599 294.904 10.9526 295.396 10.3233L295.159 10.1386ZM293.267 10.9599C292.431 10.9599 291.812 10.6864 291.384 10.1536L291.15 10.3413C291.646 10.9584 292.359 11.2599 293.267 11.2599V10.9599ZM291.384 10.1536C290.952 9.61441 290.72 8.82817 290.709 7.77398L290.409 7.77705C290.42 8.86885 290.66 9.73057 291.15 10.3413L291.384 10.1536ZM290.709 7.77551V6.30334H290.409V7.77551H290.709ZM290.709 6.30334C290.709 5.20385 290.936 4.39503 291.368 3.85353L291.134 3.66649C290.643 4.28221 290.409 5.16895 290.409 6.30334H290.709ZM291.368 3.85398C291.799 3.31715 292.421 3.04209 293.256 3.04209V2.74209C292.348 2.74209 291.633 3.04564 291.134 3.66604L291.368 3.85398ZM293.256 3.04209C294.091 3.04209 294.711 3.31556 295.138 3.8484L295.372 3.66063C294.877 3.04357 294.164 2.74209 293.256 2.74209V3.04209ZM295.139 3.84877C295.571 4.38408 295.803 5.1682 295.814 6.22248L296.114 6.21941C296.103 5.12769 295.863 4.26754 295.372 3.66027L295.139 3.84877ZM295.814 6.22095V7.69312H296.114V6.22095H295.814ZM294.526 6.07812C294.526 5.40829 294.435 4.89204 294.23 4.55533L293.974 4.71151C294.135 4.9754 294.226 5.42228 294.226 6.07812H294.526ZM294.231 4.55717C294.022 4.20277 293.688 4.02749 293.256 4.02749V4.32749C293.593 4.32749 293.823 4.45616 293.973 4.70968L294.231 4.55717ZM293.256 4.02749C292.836 4.02749 292.509 4.19407 292.299 4.53239L292.554 4.69051C292.703 4.45021 292.928 4.32749 293.256 4.32749V4.02749ZM292.299 4.53284C292.101 4.85333 292.007 5.33505 291.996 5.95458L292.296 5.95997C292.307 5.35636 292.4 4.94085 292.554 4.69006L292.299 4.53284ZM291.996 5.95728V7.90186H292.296V5.95728H291.996ZM291.996 7.90186C291.996 8.56188 292.084 9.07791 292.279 9.43001L292.541 9.28508C292.384 8.99997 292.296 8.54554 292.296 7.90186H291.996ZM292.28 9.4318C292.488 9.79803 292.826 9.97996 293.267 9.97996V9.67996C292.924 9.67996 292.69 9.54694 292.54 9.28329L292.28 9.4318ZM293.267 9.97996C293.702 9.97996 294.036 9.80494 294.238 9.44794L293.977 9.30011C293.835 9.55102 293.608 9.67996 293.267 9.67996V9.97996ZM294.238 9.44794C294.429 9.11072 294.519 8.61487 294.526 7.98051L294.226 7.97701C294.219 8.59509 294.13 9.02941 293.977 9.30011L294.238 9.44794ZM294.526 7.97876V6.07812H294.226V7.97876H294.526ZM302.022 11V11.15H302.172V11H302.022ZM300.434 11H300.284V11.15H300.434V11ZM300.434 4.88062H300.584V4.67704L300.39 4.73735L300.434 4.88062ZM298.539 5.46838H298.389V5.67195L298.584 5.61165L298.539 5.46838ZM298.539 4.17749L298.489 4.03628L298.389 4.07189V4.17749H298.539ZM301.852 2.99097V2.84097H301.826L301.801 2.84975L301.852 2.99097ZM302.022 2.99097H302.172V2.84097H302.022V2.99097ZM302.022 10.85H300.434V11.15H302.022V10.85ZM300.584 11V4.88062H300.284V11H300.584ZM300.39 4.73735L298.495 5.32512L298.584 5.61165L300.479 5.02388L300.39 4.73735ZM298.689 5.46838V4.17749H298.389V5.46838H298.689ZM298.59 4.3187L301.902 3.13218L301.801 2.84975L298.489 4.03628L298.59 4.3187ZM301.852 3.14097H302.022V2.84097H301.852V3.14097ZM301.872 2.99097V11H302.172V2.99097H301.872ZM305.987 7.06689L305.838 7.04998L305.823 7.18081L305.951 7.21249L305.987 7.06689ZM306.448 3.00195V2.85195H306.314L306.299 2.98503L306.448 3.00195ZM310.931 3.00195H311.081V2.85195H310.931V3.00195ZM310.931 4.32581V4.47581H311.081V4.32581H310.931ZM307.75 4.32581V4.17581H307.616L307.601 4.30867L307.75 4.32581ZM307.552 6.04517L307.403 6.02803L307.371 6.31224L307.623 6.17748L307.552 6.04517ZM310.865 9.82446L310.733 9.75363L310.732 9.75406L310.865 9.82446ZM309.931 10.7748L310.003 10.9062L310.004 10.9057L309.931 10.7748ZM307.146 10.8187L307.081 10.9541L307.082 10.9545L307.146 10.8187ZM306.163 9.98926L306.038 10.0728L306.039 10.0736L306.163 9.98926ZM305.784 8.77527V8.62527H305.629L305.634 8.7801L305.784 8.77527ZM307.355 8.77527L307.504 8.76051L307.491 8.62527H307.355V8.77527ZM307.701 9.5553L307.598 9.66437L307.6 9.66629L307.701 9.5553ZM309.316 9.44543L309.435 9.53598L309.436 9.53516L309.316 9.44543ZM307.404 7.23718L307.307 7.12241L307.302 7.12726L307.404 7.23718ZM307.25 7.38L307.214 7.5256L307.293 7.54511L307.352 7.48992L307.25 7.38ZM306.136 7.08381L306.597 3.01887L306.299 2.98503L305.838 7.04998L306.136 7.08381ZM306.448 3.15195H310.931V2.85195H306.448V3.15195ZM310.781 3.00195V4.32581H311.081V3.00195H310.781ZM310.931 4.17581H307.75V4.47581H310.931V4.17581ZM307.601 4.30867L307.403 6.02803L307.701 6.06231L307.899 4.34295L307.601 4.30867ZM307.623 6.17748C307.979 5.9876 308.355 5.89304 308.755 5.89304V5.59304C308.306 5.59304 307.881 5.6999 307.482 5.91285L307.623 6.17748ZM308.755 5.89304C309.484 5.89304 310.037 6.11744 310.435 6.5529L310.657 6.35042C310.191 5.84106 309.55 5.59304 308.755 5.59304V5.89304ZM310.435 6.5529C310.835 6.98964 311.044 7.61004 311.044 8.43469H311.344C311.344 7.56012 311.122 6.8585 310.657 6.35042L310.435 6.5529ZM311.044 8.43469C311.044 8.9291 310.939 9.36757 310.733 9.75363L310.997 9.8953C311.23 9.46104 311.344 8.973 311.344 8.43469H311.044ZM310.732 9.75406C310.53 10.1348 310.239 10.4307 309.858 10.6438L310.004 10.9057C310.435 10.6648 310.767 10.3271 310.997 9.89487L310.732 9.75406ZM309.859 10.6433C309.478 10.8524 309.024 10.9599 308.492 10.9599V11.2599C309.065 11.2599 309.571 11.1439 310.003 10.9062L309.859 10.6433ZM308.492 10.9599C308.029 10.9599 307.602 10.8671 307.21 10.6829L307.082 10.9545C307.517 11.1585 307.988 11.2599 308.492 11.2599V10.9599ZM307.211 10.6834C306.819 10.4963 306.512 10.2367 306.287 9.90488L306.039 10.0736C306.296 10.4523 306.645 10.7457 307.081 10.9541L307.211 10.6834ZM306.287 9.90576C306.066 9.57534 305.947 9.19829 305.933 8.77043L305.634 8.7801C305.649 9.26045 305.783 9.69272 306.038 10.0728L306.287 9.90576ZM305.784 8.92527H307.355V8.62527H305.784V8.92527ZM307.205 8.79003C307.241 9.15062 307.368 9.44738 307.598 9.66435L307.804 9.44625C307.638 9.28968 307.534 9.06642 307.504 8.76051L307.205 8.79003ZM307.6 9.66629C307.834 9.87899 308.134 9.97996 308.486 9.97996V9.67996C308.194 9.67996 307.97 9.59782 307.802 9.44431L307.6 9.66629ZM308.486 9.97996C308.886 9.97996 309.209 9.8345 309.435 9.53598L309.196 9.35489C309.034 9.56906 308.804 9.67996 308.486 9.67996V9.97996ZM309.436 9.53516C309.656 9.23981 309.757 8.83738 309.757 8.3468H309.457C309.457 8.80105 309.363 9.13104 309.195 9.35571L309.436 9.53516ZM309.757 8.3468C309.757 7.86941 309.639 7.47975 309.382 7.20129L309.162 7.40491C309.351 7.60985 309.457 7.91599 309.457 8.3468H309.757ZM309.382 7.20129C309.123 6.92161 308.762 6.79055 308.321 6.79055V7.09055C308.701 7.09055 308.973 7.20119 309.162 7.40491L309.382 7.20129ZM308.321 6.79055C307.917 6.79055 307.575 6.89705 307.307 7.12254L307.501 7.35183C307.702 7.18181 307.971 7.09055 308.321 7.09055V6.79055ZM307.302 7.12726L307.148 7.27009L307.352 7.48992L307.506 7.3471L307.302 7.12726ZM307.286 7.23441L306.023 6.9213L305.951 7.21249L307.214 7.5256L307.286 7.23441ZM312.863 1.69458V1.54458H312.713V1.69458H312.863ZM315.236 1.69458H315.386V1.54458H315.236V1.69458ZM315.236 12.8622V13.0122H315.386V12.8622H315.236ZM312.863 12.8622H312.713V13.0122H312.863V12.8622ZM312.863 11.6372V11.4872H312.713V11.6372H312.863ZM313.649 11.6372V11.7872H313.799V11.6372H313.649ZM313.649 2.91956H313.799V2.76956H313.649V2.91956ZM312.863 2.91956H312.713V3.06956H312.863V2.91956ZM312.863 1.84458H315.236V1.54458H312.863V1.84458ZM315.086 1.69458V12.8622H315.386V1.69458H315.086ZM315.236 12.7122H312.863V13.0122H315.236V12.7122ZM313.013 12.8622V11.6372H312.713V12.8622H313.013ZM312.863 11.7872H313.649V11.4872H312.863V11.7872ZM313.799 11.6372V2.91956H313.499V11.6372H313.799ZM313.649 2.76956H312.863V3.06956H313.649V2.76956ZM313.013 2.91956V1.69458H312.713V2.91956H313.013Z" fill="black"/>
</svg>
