<svg width="377" height="40" viewBox="0 0 377 40" fill="none" xmlns="http://www.w3.org/2000/svg">
<path d="M2.23572 7.3031V9.78601C2.23572 10.0826 2.33643 10.2822 2.53784 10.3848C2.62207 10.4324 2.71362 10.469 2.8125 10.4946C2.91504 10.5203 3.01208 10.5605 3.10364 10.6155V11H0.664673V10.6155C0.741577 10.5605 0.827637 10.5203 0.922852 10.4946C1.02173 10.4653 1.11328 10.4287 1.19751 10.3848C1.39893 10.2822 1.49963 10.0826 1.49963 9.78601V5.34204L2.23572 7.3031ZM1.70837 4.51807C1.64612 4.36426 1.58936 4.22876 1.53809 4.11157C1.44287 4.0896 1.34399 4.06763 1.24146 4.04565C1.14258 4.02368 1.0437 4.00171 0.944824 3.97974C0.732422 3.9248 0.567627 3.87354 0.450439 3.82593V3.19421H3.09814L5.47668 9.42346L5.08118 11H4.13635L1.70837 4.51807ZM5.32288 7.66565L6.44348 3.19421H9.34387V3.6062C9.245 3.64648 9.14978 3.67761 9.05823 3.69958C8.96667 3.7179 8.88428 3.74536 8.81104 3.78198C8.6499 3.86255 8.56934 4.01819 8.56934 4.2489V9.9563C8.56934 10.1833 8.6499 10.3372 8.81104 10.4177C8.88428 10.4543 8.96667 10.4836 9.05823 10.5056C9.14978 10.5239 9.245 10.5532 9.34387 10.5935V11H5.99854V10.5935C6.09741 10.5532 6.19263 10.5239 6.28418 10.5056C6.37939 10.4836 6.46362 10.4543 6.53687 10.4177C6.70166 10.3372 6.78406 10.1833 6.78406 9.9563V4.37524H6.75659L5.69641 8.63245L5.32288 7.66565ZM16.3751 10.8901C16.1334 11.0183 15.7709 11.0824 15.2875 11.0824C14.8041 11.0824 14.4342 10.9451 14.1779 10.6704C13.9215 10.3958 13.7933 9.97827 13.7933 9.41797V6.43518C13.7933 6.24109 13.7054 6.10925 13.5297 6.03967C13.4564 6.01038 13.3777 5.98657 13.2935 5.96826C13.2129 5.94995 13.1415 5.91516 13.0792 5.86389V5.47937H15.4248V9.56628C15.4248 9.8446 15.4688 10.057 15.5566 10.2035C15.6482 10.35 15.7782 10.4232 15.9467 10.4232C16.1151 10.4232 16.2579 10.3848 16.3751 10.3079V10.8901ZM16.8695 6.43518C16.8695 6.24109 16.7816 6.10925 16.6058 6.03967C16.5326 6.01038 16.4539 5.98657 16.3696 5.96826C16.2891 5.94629 16.214 5.9115 16.1444 5.86389V5.47937H18.4955V10.0552C18.4955 10.2419 18.5834 10.3701 18.7592 10.4397C18.8324 10.469 18.9093 10.4946 18.9899 10.5166C19.0741 10.5349 19.1473 10.5679 19.2096 10.6155V11H16.8695V6.43518ZM25.1587 10.0771C25.1587 10.2676 25.2466 10.3976 25.4224 10.4672C25.4956 10.4965 25.5743 10.5221 25.6586 10.5441C25.7428 10.566 25.8215 10.6008 25.8948 10.6484V11H22.8021V10.6484C22.8717 10.6008 22.9486 10.566 23.0328 10.5441C23.1171 10.5221 23.1958 10.4965 23.269 10.4672C23.4412 10.3976 23.5272 10.2676 23.5272 10.0771V3.96326C23.5272 3.76917 23.4412 3.6355 23.269 3.56226C23.1958 3.53296 23.1171 3.50916 23.0328 3.49084C22.9486 3.46887 22.8717 3.43408 22.8021 3.38647V3.00745H25.1587V10.0771ZM31.8109 3.61169V11.0824H31.767C31.2286 11.0824 30.8276 10.9799 30.564 10.7748C30.304 10.5697 30.174 10.2365 30.174 9.77502V6.08362H29.4434V5.64417C29.4983 5.58557 29.5679 5.54163 29.6521 5.51233C29.74 5.48303 29.8279 5.4519 29.9158 5.41895C30.1318 5.33838 30.2692 5.20654 30.3278 5.02344C30.5219 4.48877 30.6738 4.14636 30.7837 3.99622C30.8936 3.84241 30.9906 3.7179 31.0748 3.62268L31.8109 3.61169ZM32.2998 10.4232C32.5964 10.4232 32.8052 10.328 32.926 10.1376C32.9773 10.0533 33.0176 9.95813 33.0469 9.85193C33.0762 9.74207 33.1091 9.6322 33.1458 9.52234L33.5907 9.69812C33.4991 10.1229 33.3856 10.4159 33.2501 10.577C33.1146 10.7345 32.9736 10.8499 32.8271 10.9231C32.6843 10.9963 32.5085 11.0494 32.2998 11.0824V10.4232ZM32.2998 5.47937H33.2886V6.08362H32.2998V5.47937ZM39.2322 10.0771C39.2322 10.2676 39.3201 10.3976 39.4958 10.4672C39.5691 10.4965 39.6478 10.5221 39.7321 10.5441C39.8163 10.566 39.895 10.6008 39.9683 10.6484V11H36.8756V10.6484C36.9452 10.6008 37.0221 10.566 37.1063 10.5441C37.1906 10.5221 37.2693 10.4965 37.3425 10.4672C37.5146 10.3976 37.6007 10.2676 37.6007 10.0771V6.43518C37.6007 6.23743 37.5146 6.10742 37.3425 6.04517C37.2693 6.01587 37.1906 5.99207 37.1063 5.97375C37.0221 5.95178 36.9452 5.91516 36.8756 5.86389V5.47937H39.2322V10.0771ZM38.3203 4.82568C38.1812 4.82568 38.0548 4.80005 37.9413 4.74878C37.8278 4.69751 37.7307 4.62793 37.6501 4.54004C37.4817 4.35693 37.3975 4.13354 37.3975 3.86987C37.3975 3.61353 37.4817 3.39014 37.6501 3.19971C37.8259 3.00562 38.0493 2.90857 38.3203 2.90857C38.595 2.90857 38.8202 3.00562 38.996 3.19971C39.1644 3.39014 39.2487 3.61353 39.2487 3.86987C39.2487 4.13354 39.1644 4.35693 38.996 4.54004C38.8202 4.73047 38.595 4.82568 38.3203 4.82568ZM46.3623 5.66614C46.6187 5.46838 46.9318 5.36951 47.3016 5.36951C47.8436 5.36951 48.2391 5.49219 48.4882 5.73755C48.7372 5.97925 48.8617 6.36011 48.8617 6.88013V10.0771C48.8617 10.2676 48.9276 10.3958 49.0594 10.4617C49.118 10.491 49.1803 10.5184 49.2462 10.5441C49.3158 10.566 49.3817 10.6008 49.444 10.6484V11H47.2247V7.07239C47.2247 6.70984 47.2009 6.46814 47.1533 6.34729C47.0618 6.13489 46.9116 6.02869 46.7029 6.02869C46.5784 6.02869 46.4648 6.06714 46.3623 6.14404V5.66614ZM49.3561 5.59473C49.6198 5.44458 49.9036 5.36951 50.2075 5.36951C50.5151 5.36951 50.766 5.4043 50.9601 5.47388C51.1542 5.54346 51.3153 5.65332 51.4435 5.80347C51.7035 6.10742 51.8335 6.578 51.8335 7.21521V9.82446C51.8335 10.0881 51.861 10.2566 51.9159 10.3298C51.9745 10.3994 52.0276 10.4434 52.0752 10.4617C52.1228 10.4763 52.1741 10.4891 52.229 10.5001C52.3608 10.5294 52.4652 10.5789 52.5421 10.6484V11H50.202V7.07239C50.202 6.69885 50.1782 6.45532 50.1306 6.3418C50.05 6.13306 49.9017 6.02869 49.6857 6.02869C49.5685 6.02869 49.4586 6.06348 49.3561 6.13306V5.59473ZM44.2365 6.68237C44.2365 6.40771 44.2072 6.2356 44.1486 6.16602C44.09 6.09644 44.0369 6.05615 43.9893 6.04517C43.9417 6.03052 43.8922 6.01953 43.8409 6.01221C43.7018 5.98657 43.6029 5.93713 43.5443 5.86389V5.47937H45.8734V10.0112C45.8734 10.209 45.9631 10.3518 46.1426 10.4397C46.2231 10.4763 46.3129 10.5093 46.4117 10.5386C46.5143 10.5679 46.6168 10.6045 46.7194 10.6484V11H43.4674V10.6484C43.548 10.6008 43.6322 10.566 43.7201 10.5441C43.8116 10.5184 43.8959 10.4891 43.9728 10.4562C44.1486 10.3793 44.2365 10.231 44.2365 10.0112V6.68237ZM59.3317 10.4232C60.0677 10.3866 60.5621 9.9801 60.8148 9.20374L61.3202 9.43445C61.0455 10.4415 60.3827 10.9908 59.3317 11.0824V10.4232ZM59.1669 5.36951C59.9213 5.42444 60.4871 5.72473 60.8643 6.27039C61.2012 6.75378 61.3696 7.40015 61.3696 8.20947H58.5406V7.64917H59.6777C59.6777 7.18042 59.6411 6.81055 59.5679 6.53955C59.4983 6.26489 59.3646 6.0946 59.1669 6.02869V5.36951ZM58.8428 11.0824C58.0481 11.0201 57.4072 10.7107 56.9202 10.1541C56.4661 9.6377 56.239 9.00232 56.239 8.24792C56.239 7.45691 56.4679 6.79224 56.9257 6.25391C57.3798 5.71558 57.9639 5.42078 58.678 5.36951V6.02869C58.4363 6.11292 58.266 6.33997 58.1671 6.70984C58.0719 7.07971 58.0243 7.49719 58.0243 7.96228C58.0243 8.42371 58.0353 8.76978 58.0573 9.00049C58.0829 9.22754 58.1268 9.43262 58.1891 9.61572C58.3173 10.0002 58.5352 10.2694 58.8428 10.4232V11.0824ZM68.8898 10.4836V3.96326C68.8898 3.76917 68.8037 3.6355 68.6316 3.56226C68.5583 3.53296 68.4796 3.50916 68.3954 3.49084C68.3112 3.46887 68.2343 3.43408 68.1647 3.38647V3.00745H70.5212V10.0771C70.5212 10.2676 70.6055 10.3976 70.7739 10.4672C70.8435 10.4965 70.9149 10.5221 70.9882 10.5441C71.0651 10.566 71.131 10.6008 71.1859 10.6484V11H68.9612L68.8898 10.4836ZM68.4009 10.9176C68.1812 11.0275 67.9156 11.0824 67.6044 11.0824C67.2931 11.0824 66.9965 11.011 66.7145 10.8682C66.4325 10.7217 66.1926 10.5239 65.9949 10.2749C65.5737 9.75854 65.3632 9.11401 65.3632 8.34131C65.3632 7.50635 65.6067 6.7959 66.0938 6.20996C66.5662 5.64966 67.1283 5.36951 67.7802 5.36951C68.0328 5.36951 68.2397 5.4043 68.4009 5.47388V6.1001C68.324 6.05249 68.2086 6.02869 68.0548 6.02869C67.9047 6.02869 67.771 6.08728 67.6538 6.20447C67.5403 6.32166 67.4487 6.47729 67.3792 6.67139C67.251 7.03394 67.1869 7.45508 67.1869 7.93481C67.1869 8.41455 67.196 8.79175 67.2144 9.06641C67.2327 9.34106 67.2729 9.5791 67.3352 9.78052C67.4634 10.209 67.7014 10.4232 68.0493 10.4232C68.2104 10.4232 68.3276 10.3903 68.4009 10.3243V10.9176ZM77.113 10.0771C77.113 10.2676 77.2009 10.3976 77.3767 10.4672C77.45 10.4965 77.5287 10.5221 77.6129 10.5441C77.6971 10.566 77.7759 10.6008 77.8491 10.6484V11H74.7565V10.6484C74.826 10.6008 74.903 10.566 74.9872 10.5441C75.0714 10.5221 75.1501 10.4965 75.2234 10.4672C75.3955 10.3976 75.4816 10.2676 75.4816 10.0771V6.43518C75.4816 6.23743 75.3955 6.10742 75.2234 6.04517C75.1501 6.01587 75.0714 5.99207 74.9872 5.97375C74.903 5.95178 74.826 5.91516 74.7565 5.86389V5.47937H77.113V10.0771ZM76.2012 4.82568C76.062 4.82568 75.9357 4.80005 75.8221 4.74878C75.7086 4.69751 75.6116 4.62793 75.531 4.54004C75.3625 4.35693 75.2783 4.13354 75.2783 3.86987C75.2783 3.61353 75.3625 3.39014 75.531 3.19971C75.7068 3.00562 75.9302 2.90857 76.2012 2.90857C76.4758 2.90857 76.701 3.00562 76.8768 3.19971C77.0453 3.39014 77.1295 3.61353 77.1295 3.86987C77.1295 4.13354 77.0453 4.35693 76.8768 4.54004C76.701 4.73047 76.4758 4.82568 76.2012 4.82568ZM86.1053 11.0824C85.5524 11.0824 85.1349 10.9561 84.8529 10.7034V7.44043C84.8529 6.97168 84.8328 6.66772 84.7925 6.52856C84.7192 6.25024 84.5691 6.08362 84.342 6.02869V5.36951C85.7739 5.42078 86.4899 6.06531 86.4899 7.3031V9.76404C86.4899 10.2035 86.5924 10.4232 86.7975 10.4232C86.9659 10.4232 87.0685 10.1998 87.1051 9.75305L87.5006 9.85193C87.4091 10.4708 87.1399 10.8535 86.6931 11C86.532 11.0549 86.3361 11.0824 86.1053 11.0824ZM84.364 10.8187C84.1553 10.9945 83.8806 11.0824 83.54 11.0824C83.2031 11.0824 82.923 11.0513 82.6996 10.989C82.4762 10.9231 82.2839 10.8279 82.1228 10.7034C81.7749 10.4324 81.601 10.0607 81.601 9.58826C81.601 9.04626 81.8536 8.6178 82.359 8.30286C82.7216 8.07581 83.3899 7.83044 84.364 7.56677V8.14905C83.7122 8.4054 83.3862 8.85583 83.3862 9.50037C83.3862 9.92151 83.4851 10.2053 83.6829 10.3518C83.7524 10.3994 83.8531 10.4232 83.985 10.4232C84.1168 10.4232 84.2432 10.3811 84.364 10.2969V10.8187ZM83.205 6.38025C83.454 6.49377 83.5785 6.66223 83.5785 6.88562C83.5785 7.1676 83.4155 7.35254 83.0896 7.44043C82.998 7.4624 82.9065 7.47339 82.8149 7.47339C82.5476 7.47339 82.3444 7.39832 82.2052 7.24817C82.066 7.09802 81.9965 6.92041 81.9965 6.71533C81.9965 6.50659 82.0367 6.32898 82.1173 6.1825C82.1979 6.03235 82.3169 5.89868 82.4744 5.78149C82.8149 5.53613 83.2745 5.3988 83.8531 5.36951V6.02869C83.5638 6.047 83.3478 6.16418 83.205 6.38025ZM100.025 11H97.4158V10.5935C97.5146 10.5532 97.6099 10.5239 97.7014 10.5056C97.7966 10.4836 97.8809 10.4543 97.9541 10.4177C98.1189 10.3372 98.2013 10.1833 98.2013 9.9563V4.2489C98.2013 4.01819 98.1189 3.86255 97.9541 3.78198C97.8809 3.74536 97.7966 3.7179 97.7014 3.69958C97.6099 3.67761 97.5146 3.64648 97.4158 3.6062V3.19421H100.025V11ZM102.453 4.53455C102.292 4.25989 102.085 4.05664 101.832 3.9248C101.58 3.78931 101.321 3.72156 101.058 3.72156C100.798 3.72156 100.616 3.72888 100.514 3.74353V3.19421H101.052C102.352 3.19421 103.348 3.59705 104.041 4.40271C104.656 5.12048 104.963 6.0177 104.963 7.09436C104.963 8.2113 104.645 9.125 104.008 9.83545C103.312 10.6118 102.347 11 101.113 11H100.514V10.4507C100.631 10.4653 100.814 10.4727 101.063 10.4727C101.312 10.4727 101.563 10.4177 101.816 10.3079C102.072 10.1943 102.283 10.0057 102.448 9.74207C102.766 9.23303 102.925 8.35046 102.925 7.09436C102.925 5.92615 102.768 5.07288 102.453 4.53455ZM111.989 10.4232C112.725 10.3866 113.22 9.9801 113.472 9.20374L113.978 9.43445C113.703 10.4415 113.04 10.9908 111.989 11.0824V10.4232ZM111.824 5.36951C112.579 5.42444 113.145 5.72473 113.522 6.27039C113.859 6.75378 114.027 7.40015 114.027 8.20947H111.198V7.64917H112.335C112.335 7.18042 112.299 6.81055 112.225 6.53955C112.156 6.26489 112.022 6.0946 111.824 6.02869V5.36951ZM111.5 11.0824C110.706 11.0201 110.065 10.7107 109.578 10.1541C109.124 9.6377 108.896 9.00232 108.896 8.24792C108.896 7.45691 109.125 6.79224 109.583 6.25391C110.037 5.71558 110.621 5.42078 111.335 5.36951V6.02869C111.094 6.11292 110.923 6.33997 110.825 6.70984C110.729 7.07971 110.682 7.49719 110.682 7.96228C110.682 8.42371 110.693 8.76978 110.715 9.00049C110.74 9.22754 110.784 9.43262 110.847 9.61572C110.975 10.0002 111.193 10.2694 111.5 10.4232V11.0824ZM120.119 6.02869C119.782 6.12024 119.614 6.27954 119.614 6.50659C119.614 6.8728 119.934 7.17859 120.575 7.42395C121.08 7.61804 121.437 7.77002 121.646 7.87988C121.859 7.98608 122.036 8.10327 122.179 8.23145C122.498 8.52441 122.657 8.88879 122.657 9.32458C122.657 9.84094 122.461 10.2548 122.069 10.566C121.688 10.8663 121.201 11.0385 120.608 11.0824V10.4232C120.992 10.3317 121.185 10.1193 121.185 9.78601C121.185 9.44177 120.87 9.14697 120.24 8.90161C119.745 8.71118 119.394 8.56287 119.185 8.45667C118.98 8.35046 118.808 8.23511 118.669 8.1106C118.358 7.83228 118.202 7.48987 118.202 7.08337C118.202 6.64392 118.389 6.25391 118.762 5.91333C119.139 5.57275 119.592 5.39148 120.119 5.36951V6.02869ZM121.624 6.14404C121.544 6.11108 121.205 6.07263 120.608 6.02869V5.36951C121.245 5.39514 121.743 5.54712 122.102 5.82544C122.402 6.05981 122.552 6.31982 122.552 6.60547C122.552 6.96069 122.417 7.19507 122.146 7.30859C122.051 7.34521 121.919 7.36353 121.75 7.36353C121.582 7.36353 121.443 7.31042 121.333 7.20422C121.227 7.09436 121.174 6.96069 121.174 6.80322C121.174 6.53589 121.324 6.31616 121.624 6.14404ZM119.174 10.2694C119.269 10.3536 119.584 10.4049 120.119 10.4232V11.0824C119.511 11.0348 119.033 10.8737 118.685 10.599C118.392 10.3646 118.246 10.0973 118.246 9.797C118.246 9.59924 118.301 9.43811 118.411 9.3136C118.521 9.18542 118.687 9.12134 118.911 9.12134C119.134 9.12134 119.299 9.17078 119.405 9.26965C119.515 9.36853 119.57 9.4967 119.57 9.65417C119.57 9.92883 119.438 10.1339 119.174 10.2694ZM128.716 10.0771C128.716 10.2676 128.804 10.3976 128.979 10.4672C129.053 10.4965 129.131 10.5221 129.216 10.5441C129.3 10.566 129.379 10.6008 129.452 10.6484V11H126.359V10.6484C126.429 10.6008 126.506 10.566 126.59 10.5441C126.674 10.5221 126.753 10.4965 126.826 10.4672C126.998 10.3976 127.084 10.2676 127.084 10.0771V6.43518C127.084 6.23743 126.998 6.10742 126.826 6.04517C126.753 6.01587 126.674 5.99207 126.59 5.97375C126.506 5.95178 126.429 5.91516 126.359 5.86389V5.47937H128.716V10.0771ZM127.804 4.82568C127.665 4.82568 127.538 4.80005 127.425 4.74878C127.311 4.69751 127.214 4.62793 127.134 4.54004C126.965 4.35693 126.881 4.13354 126.881 3.86987C126.881 3.61353 126.965 3.39014 127.134 3.19971C127.31 3.00562 127.533 2.90857 127.804 2.90857C128.079 2.90857 128.304 3.00562 128.48 3.19971C128.648 3.39014 128.732 3.61353 128.732 3.86987C128.732 4.13354 128.648 4.35693 128.48 4.54004C128.304 4.73047 128.079 4.82568 127.804 4.82568ZM133.808 10.8682C133.438 10.751 133.253 10.5496 133.253 10.2639C133.253 9.95996 133.469 9.65601 133.901 9.35205L134.528 9.5498C134.385 9.65967 134.313 9.86108 134.313 10.1541C135.855 10.1541 136.915 10.2749 137.494 10.5166C137.787 10.6375 137.99 10.7931 138.104 10.9835C138.217 11.1703 138.274 11.3937 138.274 11.6537C138.274 11.9137 138.208 12.1517 138.076 12.3678C137.948 12.5839 137.774 12.7706 137.554 12.9281C137.097 13.2577 136.534 13.4371 135.868 13.4664V12.9336C136.392 12.9116 136.729 12.7175 136.879 12.3513C136.923 12.2451 136.945 12.1316 136.945 12.0107C136.945 11.791 136.833 11.6097 136.609 11.4669C136.386 11.3241 136.11 11.2527 135.78 11.2527C135.267 11.2527 134.896 11.2692 134.665 11.3021C134.61 11.4376 134.583 11.5878 134.583 11.7526V12.0767C134.583 12.3147 134.639 12.507 134.753 12.6534C134.866 12.7999 135.075 12.8896 135.379 12.9226V13.4609C134.518 13.4133 133.945 13.0819 133.66 12.4667C133.561 12.2543 133.511 11.9961 133.511 11.6921C133.511 11.3882 133.61 11.1135 133.808 10.8682ZM137.549 5.03992C137.314 5.03992 137.197 5.1864 137.197 5.47937C137.197 5.62585 137.216 5.72107 137.252 5.76501C137.292 5.80896 137.333 5.84741 137.373 5.88037C137.417 5.91333 137.494 5.98291 137.604 6.08911C137.838 6.31982 137.955 6.70435 137.955 7.24268C137.955 7.83228 137.75 8.31201 137.34 8.68188C136.948 9.03711 136.458 9.23303 135.868 9.26965V8.7478C136.055 8.68555 136.183 8.5354 136.252 8.29736C136.326 8.05933 136.362 7.72424 136.362 7.29211C136.362 6.85999 136.326 6.53589 136.252 6.31982C136.179 6.10376 136.051 5.96826 135.868 5.91333V5.36951C136.19 5.38049 136.456 5.42261 136.664 5.49585C136.664 4.9978 136.897 4.66455 137.362 4.49609C137.509 4.44116 137.672 4.4137 137.851 4.4137C138.034 4.4137 138.19 4.4375 138.318 4.48511C138.45 4.52905 138.558 4.59131 138.642 4.67188C138.803 4.82202 138.884 5.01428 138.884 5.24866C138.884 5.48303 138.82 5.65881 138.691 5.776C138.567 5.89319 138.402 5.95178 138.197 5.95178C137.992 5.95178 137.825 5.89502 137.697 5.78149C137.573 5.66797 137.51 5.52332 137.51 5.34753C137.51 5.28162 137.52 5.22485 137.538 5.17725C137.56 5.12598 137.571 5.09119 137.571 5.07288C137.571 5.0509 137.563 5.03992 137.549 5.03992ZM135.379 9.28064C134.284 9.24768 133.608 8.88696 133.352 8.19849C133.26 7.96045 133.215 7.6803 133.215 7.35803C133.215 7.03577 133.266 6.75745 133.369 6.52307C133.475 6.28503 133.623 6.08545 133.813 5.92432C134.191 5.59839 134.713 5.41345 135.379 5.36951V5.91333C135.163 5.94995 135.013 6.07263 134.929 6.28137C134.848 6.48279 134.808 6.81421 134.808 7.27563C134.808 7.73706 134.85 8.08862 134.934 8.33032C135.018 8.57202 135.167 8.71667 135.379 8.76428V9.28064ZM145.102 5.72107C145.391 5.48669 145.69 5.36951 145.997 5.36951C146.305 5.36951 146.556 5.4043 146.75 5.47388C146.948 5.54346 147.114 5.646 147.25 5.78149C147.539 6.0708 147.684 6.47546 147.684 6.99548V9.84644C147.684 10.2126 147.766 10.4196 147.931 10.4672C147.982 10.4818 148.033 10.4946 148.085 10.5056C148.228 10.5349 148.332 10.5825 148.398 10.6484V11H145.789V10.6155C145.789 10.5349 145.818 10.469 145.876 10.4177C145.939 10.3665 145.983 10.3225 146.008 10.2859C146.038 10.2456 146.052 10.1833 146.052 10.0991V7.05042C146.052 6.67322 146.027 6.43152 145.975 6.32532C145.887 6.12756 145.75 6.02869 145.563 6.02869C145.377 6.02869 145.223 6.07446 145.102 6.16602V5.72107ZM144.613 9.84644C144.613 10.209 144.69 10.4159 144.844 10.4672C144.891 10.4818 144.941 10.4946 144.992 10.5056C145.128 10.5349 145.228 10.5825 145.294 10.6484V11H142.267V10.6484C142.33 10.6008 142.401 10.566 142.482 10.5441C142.566 10.5221 142.645 10.4965 142.718 10.4672C142.894 10.3976 142.982 10.2676 142.982 10.0771V6.68237C142.982 6.42236 142.921 6.23376 142.8 6.11658C142.705 6.02136 142.527 5.93713 142.267 5.86389V5.47937H144.613V9.84644ZM155.209 10.4232C155.945 10.3866 156.44 9.9801 156.693 9.20374L157.198 9.43445C156.923 10.4415 156.26 10.9908 155.209 11.0824V10.4232ZM155.045 5.36951C155.799 5.42444 156.365 5.72473 156.742 6.27039C157.079 6.75378 157.247 7.40015 157.247 8.20947H154.418V7.64917H155.555C155.555 7.18042 155.519 6.81055 155.446 6.53955C155.376 6.26489 155.242 6.0946 155.045 6.02869V5.36951ZM154.72 11.0824C153.926 11.0201 153.285 10.7107 152.798 10.1541C152.344 9.6377 152.117 9.00232 152.117 8.24792C152.117 7.45691 152.346 6.79224 152.803 6.25391C153.257 5.71558 153.842 5.42078 154.556 5.36951V6.02869C154.314 6.11292 154.144 6.33997 154.045 6.70984C153.95 7.07971 153.902 7.49719 153.902 7.96228C153.902 8.42371 153.913 8.76978 153.935 9.00049C153.961 9.22754 154.005 9.43262 154.067 9.61572C154.195 10.0002 154.413 10.2694 154.72 10.4232V11.0824ZM164.471 6.43518C164.302 6.43518 164.13 6.62378 163.954 7.00098L163.922 5.95178C164.222 5.5636 164.606 5.36951 165.075 5.36951C165.35 5.36951 165.584 5.47021 165.778 5.67163C165.961 5.86206 166.053 6.08362 166.053 6.3363C166.053 6.60364 165.976 6.82886 165.822 7.01196C165.661 7.20605 165.456 7.3031 165.207 7.3031C164.954 7.3031 164.762 7.20972 164.63 7.02295C164.524 6.86548 164.471 6.66956 164.471 6.43518ZM163.383 5.47937C163.46 6.34363 163.499 7.31592 163.499 8.39624V10.0222C163.499 10.2163 163.588 10.3536 163.768 10.4342C163.848 10.4708 163.936 10.5038 164.031 10.5331C164.13 10.5624 164.227 10.6008 164.323 10.6484V11H161.142V10.6484C161.212 10.6008 161.288 10.566 161.373 10.5441C161.457 10.5221 161.536 10.4965 161.609 10.4672C161.781 10.3976 161.867 10.2676 161.867 10.0771V6.43518C161.867 6.23376 161.781 6.1001 161.609 6.03418C161.536 6.00854 161.457 5.98657 161.373 5.96826C161.288 5.94995 161.212 5.91516 161.142 5.86389V5.47937H163.383ZM1.78875 20.5562C1.75125 20.5562 1.7175 20.545 1.6875 20.5225C1.665 20.4925 1.65375 20.4587 1.65375 20.4212V19.3525C1.65375 19.33 1.64625 19.315 1.63125 19.3075C1.61625 19.3 1.60125 19.3037 1.58625 19.3188L0.675 19.8587C0.645 19.8737 0.6225 19.8812 0.6075 19.8812C0.5625 19.8812 0.525 19.855 0.495 19.8025L0.25875 19.3637C0.24375 19.3337 0.23625 19.3112 0.23625 19.2962C0.23625 19.2512 0.25875 19.2137 0.30375 19.1837L1.26 18.6212C1.275 18.6062 1.2825 18.5912 1.2825 18.5762C1.2825 18.5612 1.275 18.55 1.26 18.5425L0.30375 17.9912C0.23625 17.9462 0.22125 17.8862 0.25875 17.8112L0.495 17.35C0.51 17.3125 0.53625 17.29 0.57375 17.2825C0.61125 17.2675 0.64875 17.2712 0.68625 17.2937L1.58625 17.845C1.60125 17.86 1.61625 17.8637 1.63125 17.8562C1.64625 17.8487 1.65375 17.8337 1.65375 17.8112V16.7425C1.65375 16.705 1.665 16.675 1.6875 16.6525C1.7175 16.6225 1.75125 16.6075 1.78875 16.6075H2.28375C2.32125 16.6075 2.35125 16.6225 2.37375 16.6525C2.40375 16.675 2.41875 16.705 2.41875 16.7425L2.4075 17.8112C2.4075 17.8337 2.415 17.8487 2.43 17.8562C2.445 17.8637 2.46 17.86 2.475 17.845L3.375 17.2937C3.405 17.2787 3.4275 17.2712 3.4425 17.2712C3.495 17.2712 3.53625 17.2975 3.56625 17.35L3.8025 17.8112C3.8175 17.8412 3.825 17.8637 3.825 17.8787C3.825 17.9162 3.8025 17.9537 3.7575 17.9912L2.8125 18.5425C2.7975 18.55 2.79 18.5612 2.79 18.5762C2.79 18.5912 2.7975 18.6062 2.8125 18.6212L3.7575 19.1837C3.8325 19.2287 3.85125 19.2887 3.81375 19.3637L3.56625 19.825C3.54375 19.8625 3.51375 19.885 3.47625 19.8925C3.44625 19.9 3.4125 19.8925 3.375 19.87L2.475 19.3188C2.46 19.3037 2.445 19.3 2.43 19.3075C2.415 19.315 2.4075 19.33 2.4075 19.3525L2.41875 20.4212C2.41875 20.4587 2.40375 20.4925 2.37375 20.5225C2.35125 20.545 2.32125 20.5562 2.28375 20.5562H1.78875ZM6.91119 17.1137C7.30869 17.1137 7.65744 17.2112 7.95744 17.4062C8.26494 17.6012 8.50119 17.875 8.66619 18.2275C8.83869 18.58 8.92494 18.9812 8.92494 19.4312C8.92494 20.1062 8.74494 20.65 8.38494 21.0625C8.03244 21.475 7.56369 21.6812 6.97869 21.6812H6.02244C5.98494 21.6812 5.96619 21.7 5.96619 21.7375V24.865C5.96619 24.9025 5.95119 24.9362 5.92119 24.9662C5.89869 24.9887 5.86869 25 5.83119 25H4.79619C4.75869 25 4.72494 24.9887 4.69494 24.9662C4.67244 24.9362 4.66119 24.9025 4.66119 24.865V17.2487C4.66119 17.2112 4.67244 17.1812 4.69494 17.1587C4.72494 17.1287 4.75869 17.1137 4.79619 17.1137H6.91119ZM6.69744 20.6575C6.97494 20.6575 7.19619 20.5525 7.36119 20.3425C7.53369 20.125 7.61994 19.8325 7.61994 19.465C7.61994 19.09 7.53369 18.7937 7.36119 18.5762C7.19619 18.3512 6.97494 18.2387 6.69744 18.2387H6.02244C5.98494 18.2387 5.96619 18.2575 5.96619 18.295V20.6012C5.96619 20.6387 5.98494 20.6575 6.02244 20.6575H6.69744ZM11.6815 19.1612C12.274 19.1612 12.754 19.3337 13.1215 19.6787C13.489 20.0237 13.6728 20.4775 13.6728 21.04V24.865C13.6728 24.9025 13.6578 24.9362 13.6278 24.9662C13.6053 24.9887 13.5753 25 13.5378 25H12.5028C12.4653 25 12.4315 24.9887 12.4015 24.9662C12.379 24.9362 12.3678 24.9025 12.3678 24.865V24.6512C12.3678 24.6287 12.3603 24.6137 12.3453 24.6062C12.3303 24.5987 12.3153 24.6062 12.3003 24.6288C12.0378 24.9363 11.6553 25.09 11.1528 25.09C10.7253 25.09 10.3465 24.97 10.0165 24.73C9.69404 24.4825 9.53279 24.0362 9.53279 23.3912C9.53279 22.7162 9.72779 22.2362 10.1178 21.9512C10.5153 21.6662 11.0515 21.5237 11.7265 21.5237H12.3115C12.349 21.5237 12.3678 21.505 12.3678 21.4675V21.175C12.3678 20.905 12.3003 20.6912 12.1653 20.5337C12.0303 20.3687 11.8615 20.2862 11.659 20.2862C11.5015 20.2862 11.3703 20.3387 11.2653 20.4437C11.1603 20.5412 11.0965 20.6762 11.074 20.8487C11.0665 20.9387 11.0178 20.9837 10.9278 20.9837H9.83654C9.74654 20.9837 9.70529 20.9387 9.71279 20.8487C9.75029 20.3387 9.94904 19.93 10.309 19.6225C10.6765 19.315 11.134 19.1612 11.6815 19.1612ZM11.5128 24.01C11.7378 24.01 11.9365 23.9387 12.109 23.7962C12.2815 23.6537 12.3678 23.455 12.3678 23.2V22.5587C12.3678 22.5212 12.349 22.5025 12.3115 22.5025H11.7265C11.4715 22.5025 11.2653 22.5737 11.1078 22.7162C10.9503 22.8512 10.8715 23.05 10.8715 23.3125C10.8715 23.545 10.9315 23.7212 11.0515 23.8412C11.1715 23.9537 11.3253 24.01 11.5128 24.01ZM16.9532 19.1837C17.1557 19.1837 17.3132 19.2212 17.4257 19.2962C17.4857 19.3337 17.5082 19.39 17.4932 19.465L17.3132 20.5112C17.3057 20.6012 17.2532 20.6275 17.1557 20.59C17.0507 20.56 16.9532 20.545 16.8632 20.545C16.7732 20.545 16.6907 20.5562 16.6157 20.5787C16.4057 20.6087 16.2332 20.7287 16.0982 20.9387C15.9707 21.1412 15.907 21.385 15.907 21.67V24.8537C15.907 24.8912 15.892 24.925 15.862 24.955C15.8395 24.9775 15.8095 24.9887 15.772 24.9887H14.737C14.6995 24.9887 14.6657 24.9775 14.6357 24.955C14.6132 24.925 14.602 24.8912 14.602 24.8537V19.3862C14.602 19.3487 14.6132 19.3187 14.6357 19.2962C14.6657 19.2662 14.6995 19.2512 14.737 19.2512H15.772C15.8095 19.2512 15.8395 19.2662 15.862 19.2962C15.892 19.3187 15.907 19.3487 15.907 19.3862V19.9037C15.907 19.9337 15.9145 19.9525 15.9295 19.96C15.9445 19.96 15.9557 19.945 15.9632 19.915C16.1657 19.4275 16.4957 19.1837 16.9532 19.1837ZM20.5361 20.0387C20.5361 20.0762 20.5211 20.11 20.4911 20.14C20.4686 20.1625 20.4386 20.1737 20.4011 20.1737H19.7036C19.6661 20.1737 19.6473 20.1925 19.6473 20.23V23.1775C19.6473 23.44 19.6961 23.6237 19.7936 23.7287C19.8911 23.8262 20.0373 23.8712 20.2323 23.8637H20.3111C20.3486 23.8637 20.3786 23.8787 20.4011 23.9087C20.4311 23.9312 20.4461 23.9612 20.4461 23.9987V24.865C20.4461 24.9025 20.4311 24.9362 20.4011 24.9662C20.3786 24.9887 20.3486 25 20.3111 25H19.9286C19.4186 25 19.0323 24.9062 18.7698 24.7187C18.5148 24.5312 18.3873 24.1787 18.3873 23.6612V20.23C18.3873 20.1925 18.3686 20.1737 18.3311 20.1737H17.9373C17.8998 20.1737 17.8661 20.1625 17.8361 20.14C17.8136 20.11 17.8023 20.0762 17.8023 20.0387V19.3862C17.8023 19.3487 17.8136 19.3187 17.8361 19.2962C17.8661 19.2662 17.8998 19.2512 17.9373 19.2512H18.3311C18.3686 19.2512 18.3873 19.2325 18.3873 19.195V17.9575C18.3873 17.92 18.3986 17.89 18.4211 17.8675C18.4511 17.8375 18.4848 17.8225 18.5223 17.8225H19.5123C19.5498 17.8225 19.5798 17.8375 19.6023 17.8675C19.6323 17.89 19.6473 17.92 19.6473 17.9575V19.195C19.6473 19.2325 19.6661 19.2512 19.7036 19.2512H20.4011C20.4386 19.2512 20.4686 19.2662 20.4911 19.2962C20.5211 19.3187 20.5361 19.3487 20.5361 19.3862V20.0387ZM27.6846 17.125C27.7221 17.125 27.7521 17.14 27.7746 17.17C27.8046 17.1925 27.8196 17.2225 27.8196 17.26V18.115C27.8196 18.1525 27.8046 18.1862 27.7746 18.2162C27.7521 18.2387 27.7221 18.25 27.6846 18.25H26.2558C26.2183 18.25 26.1996 18.2687 26.1996 18.3062V24.865C26.1996 24.9025 26.1846 24.9362 26.1546 24.9662C26.1321 24.9887 26.1021 25 26.0646 25H25.0296C24.9921 25 24.9583 24.9887 24.9283 24.9662C24.9058 24.9362 24.8946 24.9025 24.8946 24.865V18.3062C24.8946 18.2687 24.8758 18.25 24.8383 18.25H23.4883C23.4508 18.25 23.4171 18.2387 23.3871 18.2162C23.3646 18.1862 23.3533 18.1525 23.3533 18.115V17.26C23.3533 17.2225 23.3646 17.1925 23.3871 17.17C23.4171 17.14 23.4508 17.125 23.4883 17.125H27.6846ZM29.3288 18.4637C29.0963 18.4637 28.905 18.3887 28.755 18.2387C28.605 18.0887 28.53 17.8975 28.53 17.665C28.53 17.4325 28.605 17.2412 28.755 17.0912C28.905 16.9412 29.0963 16.8662 29.3288 16.8662C29.5613 16.8662 29.7488 16.9412 29.8913 17.0912C30.0413 17.2412 30.1163 17.4325 30.1163 17.665C30.1163 17.8975 30.0413 18.0887 29.8913 18.2387C29.7413 18.3887 29.5538 18.4637 29.3288 18.4637ZM28.8225 25C28.785 25 28.7513 24.9887 28.7213 24.9662C28.6988 24.9362 28.6875 24.9025 28.6875 24.865V19.3862C28.6875 19.3487 28.6988 19.3187 28.7213 19.2962C28.7513 19.2662 28.785 19.2512 28.8225 19.2512H29.8575C29.895 19.2512 29.925 19.2662 29.9475 19.2962C29.9775 19.3187 29.9925 19.3487 29.9925 19.3862V24.865C29.9925 24.9025 29.9775 24.9362 29.9475 24.9662C29.925 24.9887 29.895 25 29.8575 25H28.8225ZM36.0657 19.1612C36.5532 19.1612 36.9207 19.3337 37.1682 19.6787C37.4232 20.0162 37.5507 20.4887 37.5507 21.0962V24.865C37.5507 24.9025 37.5357 24.9362 37.5057 24.9662C37.4832 24.9887 37.4532 25 37.4157 25H36.392C36.3545 25 36.3207 24.9887 36.2907 24.9662C36.2682 24.9362 36.257 24.9025 36.257 24.865V21.1862C36.257 20.9012 36.2007 20.68 36.0882 20.5225C35.9757 20.365 35.822 20.2862 35.627 20.2862C35.417 20.2862 35.252 20.365 35.132 20.5225C35.012 20.68 34.952 20.8975 34.952 21.175V24.865C34.952 24.9025 34.937 24.9362 34.907 24.9662C34.8845 24.9887 34.8545 25 34.817 25H33.7932C33.7557 25 33.722 24.9887 33.692 24.9662C33.6695 24.9362 33.6582 24.9025 33.6582 24.865V21.1862C33.6582 20.9012 33.5982 20.68 33.4782 20.5225C33.3657 20.365 33.2157 20.2862 33.0282 20.2862C32.8182 20.2862 32.6532 20.365 32.5332 20.5225C32.4132 20.68 32.3532 20.8975 32.3532 21.175V24.865C32.3532 24.9025 32.3382 24.9362 32.3082 24.9662C32.2857 24.9887 32.2557 25 32.2182 25H31.1945C31.157 25 31.1232 24.9887 31.0932 24.9662C31.0707 24.9362 31.0595 24.9025 31.0595 24.865V19.3862C31.0595 19.3487 31.0707 19.3187 31.0932 19.2962C31.1232 19.2662 31.157 19.2512 31.1945 19.2512H32.2182C32.2557 19.2512 32.2857 19.2662 32.3082 19.2962C32.3382 19.3187 32.3532 19.3487 32.3532 19.3862V19.5662C32.3532 19.5887 32.3607 19.6037 32.3757 19.6112C32.3907 19.6187 32.4057 19.6112 32.4207 19.5887C32.5707 19.4387 32.7395 19.33 32.927 19.2625C33.1145 19.195 33.2982 19.1612 33.4782 19.1612C34.0332 19.1612 34.442 19.3975 34.7045 19.87C34.727 19.9 34.7607 19.8887 34.8057 19.8362C34.9557 19.5962 35.1432 19.4237 35.3682 19.3188C35.6007 19.2137 35.8332 19.1612 36.0657 19.1612ZM42.4337 22.4687C42.4337 22.5062 42.4187 22.54 42.3887 22.57C42.3662 22.5925 42.3362 22.6037 42.2987 22.6037H39.8124C39.7749 22.6037 39.7562 22.6225 39.7562 22.66V23.1662C39.7562 23.3987 39.8199 23.59 39.9474 23.74C40.0749 23.89 40.2399 23.965 40.4424 23.965C40.6149 23.965 40.7612 23.9125 40.8812 23.8075C41.0087 23.695 41.0912 23.5525 41.1287 23.38C41.1512 23.305 41.1999 23.2675 41.2749 23.2675L42.2762 23.3125C42.3137 23.3125 42.3437 23.3275 42.3662 23.3575C42.3962 23.38 42.4074 23.4137 42.3999 23.4587C42.3474 23.9837 42.1562 24.3887 41.8262 24.6737C41.4962 24.9512 41.0349 25.09 40.4424 25.09C39.8274 25.09 39.3399 24.9288 38.9799 24.6062C38.6274 24.2762 38.4512 23.83 38.4512 23.2675V20.9837C38.4512 20.4362 38.6274 19.9975 38.9799 19.6675C39.3399 19.33 39.8274 19.1612 40.4424 19.1612C41.0574 19.1612 41.5412 19.33 41.8937 19.6675C42.2537 19.9975 42.4337 20.4362 42.4337 20.9837V22.4687ZM40.4424 20.2862C40.2399 20.2862 40.0749 20.3612 39.9474 20.5112C39.8199 20.6612 39.7562 20.8525 39.7562 21.085V21.5912C39.7562 21.6287 39.7749 21.6475 39.8124 21.6475H41.0837C41.1212 21.6475 41.1399 21.6287 41.1399 21.5912V21.085C41.1399 20.845 41.0762 20.6537 40.9487 20.5112C40.8212 20.3612 40.6524 20.2862 40.4424 20.2862ZM45.5834 25.9C45.5084 25.9 45.4709 25.8625 45.4709 25.7875V16.5625C45.4709 16.4875 45.5084 16.45 45.5834 16.45H46.1572C46.2322 16.45 46.2697 16.4875 46.2697 16.5625V25.7875C46.2697 25.8625 46.2322 25.9 46.1572 25.9H45.5834ZM51.4644 25.09C50.8869 25.09 50.4256 24.9213 50.0806 24.5837C49.7356 24.2387 49.5631 23.7812 49.5631 23.2112V18.9137C49.5631 18.3437 49.7356 17.89 50.0806 17.5525C50.4256 17.2075 50.8869 17.035 51.4644 17.035C52.0419 17.035 52.5031 17.2075 52.8481 17.5525C53.2006 17.8975 53.3769 18.355 53.3769 18.925V19.4087C53.3769 19.4837 53.3394 19.5212 53.2644 19.5212H52.6906C52.6156 19.5212 52.5781 19.4837 52.5781 19.4087V18.9025C52.5781 18.55 52.4769 18.2687 52.2744 18.0587C52.0719 17.8412 51.8019 17.7325 51.4644 17.7325C51.1344 17.7325 50.8644 17.8412 50.6544 18.0587C50.4519 18.2762 50.3506 18.5575 50.3506 18.9025V23.2225C50.3506 23.5675 50.4519 23.8487 50.6544 24.0662C50.8644 24.2837 51.1344 24.3925 51.4644 24.3925C51.8019 24.3925 52.0719 24.2875 52.2744 24.0775C52.4769 23.86 52.5781 23.575 52.5781 23.2225V21.7825C52.5781 21.7525 52.5631 21.7375 52.5331 21.7375H51.5656C51.4906 21.7375 51.4531 21.7 51.4531 21.625V21.1525C51.4531 21.0775 51.4906 21.04 51.5656 21.04H53.2644C53.3394 21.04 53.3769 21.0775 53.3769 21.1525V23.2112C53.3769 23.7812 53.2006 24.2387 52.8481 24.5837C52.5031 24.9213 52.0419 25.09 51.4644 25.09ZM56.2057 25.09C55.6657 25.09 55.2345 24.9325 54.912 24.6175C54.597 24.3025 54.4395 23.8862 54.4395 23.3687V20.95C54.4395 20.44 54.6007 20.0237 54.9232 19.7012C55.2457 19.3787 55.6732 19.2175 56.2057 19.2175C56.7457 19.2175 57.177 19.3787 57.4995 19.7012C57.822 20.0237 57.9832 20.44 57.9832 20.95V23.3687C57.9832 23.8862 57.822 24.3025 57.4995 24.6175C57.177 24.9325 56.7457 25.09 56.2057 25.09ZM56.2057 24.3812C56.4907 24.3812 56.7232 24.2837 56.9032 24.0887C57.0907 23.8937 57.1845 23.635 57.1845 23.3125V20.995C57.1845 20.6725 57.0907 20.4137 56.9032 20.2187C56.7232 20.0162 56.4907 19.915 56.2057 19.915C55.9207 19.915 55.6882 20.0162 55.5082 20.2187C55.3282 20.4137 55.2382 20.6725 55.2382 20.995V23.3125C55.2382 23.635 55.3282 23.8937 55.5082 24.0887C55.6882 24.2837 55.9207 24.3812 56.2057 24.3812ZM59.2774 25C59.2024 25 59.1649 24.9625 59.1649 24.8875V17.2375C59.1649 17.1625 59.2024 17.125 59.2774 17.125H59.8511C59.9261 17.125 59.9636 17.1625 59.9636 17.2375V24.8875C59.9636 24.9625 59.9261 25 59.8511 25H59.2774ZM63.8524 17.2375C63.8524 17.1625 63.8899 17.125 63.9649 17.125H64.5386C64.6136 17.125 64.6511 17.1625 64.6511 17.2375V24.8875C64.6511 24.9625 64.6136 25 64.5386 25H63.9649C63.8899 25 63.8524 24.9625 63.8524 24.8875V24.64C63.8524 24.625 63.8449 24.6137 63.8299 24.6062C63.8224 24.5987 63.8111 24.6025 63.7961 24.6175C63.5111 24.9325 63.1511 25.09 62.7161 25.09C62.2361 25.09 61.8536 24.9325 61.5686 24.6175C61.2836 24.295 61.1411 23.8787 61.1411 23.3687V20.9387C61.1411 20.4137 61.2836 19.9975 61.5686 19.69C61.8536 19.375 62.2361 19.2175 62.7161 19.2175C63.1586 19.2175 63.5186 19.3787 63.7961 19.7012C63.8111 19.7162 63.8224 19.72 63.8299 19.7125C63.8449 19.705 63.8524 19.6937 63.8524 19.6787V17.2375ZM62.9074 24.3925C63.1849 24.3925 63.4099 24.295 63.5824 24.1C63.7624 23.8975 63.8524 23.6387 63.8524 23.3237V20.995C63.8524 20.6725 63.7624 20.4137 63.5824 20.2187C63.4099 20.0162 63.1849 19.915 62.9074 19.915C62.6224 19.915 62.3861 20.0162 62.1986 20.2187C62.0186 20.4137 61.9286 20.6725 61.9286 20.995V23.3237C61.9286 23.6387 62.0186 23.8975 62.1986 24.1C62.3861 24.295 62.6224 24.3925 62.9074 24.3925ZM71.9641 17.71C71.9641 17.785 71.9266 17.8225 71.8516 17.8225H69.2416C69.2116 17.8225 69.1966 17.8375 69.1966 17.8675V20.6575C69.1966 20.6875 69.2116 20.7025 69.2416 20.7025H70.8841C70.9591 20.7025 70.9966 20.74 70.9966 20.815V21.2987C70.9966 21.3737 70.9591 21.4112 70.8841 21.4112H69.2416C69.2116 21.4112 69.1966 21.4262 69.1966 21.4562V24.2575C69.1966 24.2875 69.2116 24.3025 69.2416 24.3025H71.8516C71.9266 24.3025 71.9641 24.34 71.9641 24.415V24.8875C71.9641 24.9625 71.9266 25 71.8516 25H68.5104C68.4354 25 68.3979 24.9625 68.3979 24.8875V17.2375C68.3979 17.1625 68.4354 17.125 68.5104 17.125H71.8516C71.9266 17.125 71.9641 17.1625 71.9641 17.2375V17.71ZM73.1421 25C73.0671 25 73.0296 24.9625 73.0296 24.8875V17.2375C73.0296 17.1625 73.0671 17.125 73.1421 17.125H73.7159C73.7909 17.125 73.8284 17.1625 73.8284 17.2375V24.8875C73.8284 24.9625 73.7909 25 73.7159 25H73.1421ZM75.6134 18.2725C75.4259 18.2725 75.2721 18.2125 75.1521 18.0925C75.0396 17.9725 74.9834 17.8225 74.9834 17.6425C74.9834 17.455 75.0396 17.305 75.1521 17.1925C75.2721 17.0725 75.4259 17.0125 75.6134 17.0125C75.7934 17.0125 75.9396 17.0725 76.0521 17.1925C76.1721 17.305 76.2321 17.455 76.2321 17.6425C76.2321 17.8225 76.1721 17.9725 76.0521 18.0925C75.9396 18.2125 75.7934 18.2725 75.6134 18.2725ZM75.3321 25C75.2571 25 75.2196 24.9625 75.2196 24.8875V19.42C75.2196 19.345 75.2571 19.3075 75.3321 19.3075H75.9059C75.9809 19.3075 76.0184 19.345 76.0184 19.42V24.8875C76.0184 24.9625 75.9809 25 75.9059 25H75.3321ZM79.4722 19.7912C79.4722 19.8662 79.4347 19.9037 79.3597 19.9037H78.5047C78.4747 19.9037 78.4597 19.9187 78.4597 19.9487V23.3912C78.4597 23.7362 78.5197 23.9762 78.6397 24.1112C78.7597 24.2387 78.9434 24.2987 79.1909 24.2912H79.3034C79.3784 24.2912 79.4159 24.3287 79.4159 24.4037V24.8875C79.4159 24.9625 79.3784 25 79.3034 25H79.0222C78.5797 25 78.2422 24.9062 78.0097 24.7187C77.7847 24.5237 77.6722 24.16 77.6722 23.6275V19.9487C77.6722 19.9187 77.6572 19.9037 77.6272 19.9037H77.1884C77.1134 19.9037 77.0759 19.8662 77.0759 19.7912V19.42C77.0759 19.345 77.1134 19.3075 77.1884 19.3075H77.6272C77.6572 19.3075 77.6722 19.2925 77.6722 19.2625V18.0025C77.6722 17.9275 77.7097 17.89 77.7847 17.89H78.3472C78.4222 17.89 78.4597 17.9275 78.4597 18.0025V19.2625C78.4597 19.2925 78.4747 19.3075 78.5047 19.3075H79.3597C79.4347 19.3075 79.4722 19.345 79.4722 19.42V19.7912ZM83.8665 22.345C83.8665 22.42 83.829 22.4575 83.754 22.4575H81.189C81.159 22.4575 81.144 22.4725 81.144 22.5025V23.3237C81.144 23.6387 81.2302 23.8975 81.4027 24.1C81.5827 24.295 81.8152 24.3925 82.1002 24.3925C82.3402 24.3925 82.5427 24.3212 82.7077 24.1787C82.8802 24.0287 82.9927 23.8375 83.0452 23.605C83.0677 23.5375 83.109 23.5037 83.169 23.5037L83.7315 23.5262C83.7615 23.5262 83.7877 23.5375 83.8102 23.56C83.8327 23.5825 83.8402 23.6125 83.8327 23.65C83.7727 24.0925 83.589 24.445 83.2815 24.7075C82.9815 24.9625 82.5877 25.09 82.1002 25.09C81.5677 25.09 81.1402 24.9325 80.8177 24.6175C80.5027 24.3025 80.3452 23.8862 80.3452 23.3687V20.9387C80.3452 20.4287 80.5027 20.0162 80.8177 19.7012C81.1402 19.3787 81.5677 19.2175 82.1002 19.2175C82.6402 19.2175 83.0677 19.3787 83.3827 19.7012C83.7052 20.0162 83.8665 20.4287 83.8665 20.9387V22.345ZM82.1002 19.915C81.8152 19.915 81.5827 20.0162 81.4027 20.2187C81.2302 20.4137 81.144 20.6725 81.144 20.995V21.7487C81.144 21.7787 81.159 21.7937 81.189 21.7937H83.034C83.064 21.7937 83.079 21.7787 83.079 21.7487V20.995C83.079 20.6725 82.989 20.4137 82.809 20.2187C82.629 20.0162 82.3927 19.915 82.1002 19.915ZM89.3837 17.1137C89.9312 17.1137 90.3737 17.3162 90.7112 17.7212C91.0487 18.1187 91.2175 18.6437 91.2175 19.2962C91.2175 19.9412 91.0525 20.4625 90.7225 20.86C90.3925 21.25 89.9575 21.445 89.4175 21.445H88.2587C88.2287 21.445 88.2137 21.46 88.2137 21.49V24.8875C88.2137 24.9625 88.1762 25 88.1012 25H87.5275C87.4525 25 87.415 24.9625 87.415 24.8875V17.2262C87.415 17.1512 87.4525 17.1137 87.5275 17.1137H89.3837ZM89.2825 20.7925C89.62 20.7925 89.8937 20.6575 90.1037 20.3875C90.3137 20.1175 90.4187 19.7575 90.4187 19.3075C90.4187 18.8575 90.3137 18.4975 90.1037 18.2275C89.8937 17.95 89.62 17.8112 89.2825 17.8112H88.2587C88.2287 17.8112 88.2137 17.8262 88.2137 17.8562V20.7475C88.2137 20.7775 88.2287 20.7925 88.2587 20.7925H89.2825ZM93.9443 19.2175C94.4693 19.2175 94.8893 19.39 95.2043 19.735C95.5193 20.0725 95.6768 20.5262 95.6768 21.0962V24.8875C95.6768 24.9625 95.6393 25 95.5643 25H94.9905C94.9155 25 94.878 24.9625 94.878 24.8875V24.55C94.878 24.535 94.8705 24.5275 94.8555 24.5275C94.848 24.52 94.8368 24.5237 94.8218 24.5387C94.5443 24.9062 94.128 25.09 93.573 25.09C93.1605 25.09 92.8005 24.9737 92.493 24.7412C92.193 24.5012 92.043 24.0812 92.043 23.4812C92.043 22.8437 92.2268 22.3787 92.5943 22.0862C92.9618 21.7862 93.4455 21.6362 94.0455 21.6362H94.833C94.863 21.6362 94.878 21.6212 94.878 21.5912V21.1525C94.878 20.7775 94.7918 20.4775 94.6193 20.2525C94.4468 20.0275 94.2143 19.915 93.9218 19.915C93.6968 19.915 93.5018 19.99 93.3368 20.14C93.1793 20.29 93.0855 20.4812 93.0555 20.7137C93.0555 20.7887 93.018 20.8262 92.943 20.8262L92.313 20.815C92.2755 20.815 92.2455 20.8037 92.223 20.7812C92.208 20.7587 92.2043 20.7325 92.2118 20.7025C92.2493 20.26 92.4293 19.9037 92.7518 19.6337C93.0743 19.3562 93.4718 19.2175 93.9443 19.2175ZM93.7418 24.3925C94.0493 24.3925 94.3155 24.295 94.5405 24.1C94.7655 23.8975 94.878 23.62 94.878 23.2675V22.3225C94.878 22.2925 94.863 22.2775 94.833 22.2775H94.0343C93.6743 22.2775 93.3893 22.375 93.1793 22.57C92.9693 22.7575 92.8643 23.0387 92.8643 23.4137C92.8643 23.7437 92.943 23.9912 93.1005 24.1562C93.2655 24.3137 93.4793 24.3925 93.7418 24.3925ZM98.8502 19.2512C99.0377 19.2512 99.199 19.2925 99.334 19.375C99.3865 19.405 99.4052 19.4537 99.3902 19.5212L99.2552 20.1062C99.2477 20.1737 99.2027 20.1962 99.1202 20.1737C99.0302 20.1287 98.9177 20.1062 98.7827 20.1062C98.7227 20.1062 98.6777 20.11 98.6477 20.1175C98.3777 20.1325 98.1565 20.275 97.984 20.545C97.8115 20.8075 97.7252 21.13 97.7252 21.5125V24.8875C97.7252 24.9625 97.6877 25 97.6127 25H97.039C96.964 25 96.9265 24.9625 96.9265 24.8875V19.42C96.9265 19.345 96.964 19.3075 97.039 19.3075H97.6127C97.6877 19.3075 97.7252 19.345 97.7252 19.42V20.095C97.7252 20.1175 97.729 20.1287 97.7365 20.1287C97.7515 20.1287 97.7665 20.1212 97.7815 20.1062C97.999 19.5362 98.3552 19.2512 98.8502 19.2512ZM100.695 18.2725C100.508 18.2725 100.354 18.2125 100.234 18.0925C100.121 17.9725 100.065 17.8225 100.065 17.6425C100.065 17.455 100.121 17.305 100.234 17.1925C100.354 17.0725 100.508 17.0125 100.695 17.0125C100.875 17.0125 101.021 17.0725 101.134 17.1925C101.254 17.305 101.314 17.455 101.314 17.6425C101.314 17.8225 101.254 17.9725 101.134 18.0925C101.021 18.2125 100.875 18.2725 100.695 18.2725ZM100.414 25C100.339 25 100.301 24.9625 100.301 24.8875V19.42C100.301 19.345 100.339 19.3075 100.414 19.3075H100.988C101.063 19.3075 101.1 19.345 101.1 19.42V24.8875C101.1 24.9625 101.063 25 100.988 25H100.414ZM104.036 25.0563C103.519 25.0563 103.103 24.925 102.788 24.6625C102.48 24.3925 102.326 24.0363 102.326 23.5938V23.515C102.326 23.44 102.364 23.4025 102.439 23.4025H102.979C103.054 23.4025 103.091 23.44 103.091 23.515V23.5825C103.091 23.8225 103.178 24.025 103.35 24.19C103.53 24.355 103.763 24.4375 104.048 24.4375C104.318 24.4375 104.535 24.355 104.7 24.19C104.865 24.025 104.948 23.815 104.948 23.56C104.948 23.365 104.895 23.2037 104.79 23.0762C104.685 22.9412 104.561 22.8362 104.419 22.7612C104.284 22.6862 104.078 22.5887 103.8 22.4687C103.508 22.3487 103.264 22.2325 103.069 22.12C102.881 22 102.716 21.835 102.574 21.625C102.439 21.4075 102.371 21.1337 102.371 20.8037C102.371 20.3237 102.518 19.945 102.81 19.6675C103.11 19.39 103.511 19.2512 104.014 19.2512C104.524 19.2512 104.929 19.3937 105.229 19.6787C105.529 19.9637 105.679 20.3425 105.679 20.815V20.8487C105.679 20.9237 105.641 20.9612 105.566 20.9612H105.049C104.974 20.9612 104.936 20.9237 104.936 20.8487V20.7812C104.936 20.5262 104.85 20.3162 104.678 20.1512C104.513 19.9862 104.295 19.9037 104.025 19.9037C103.755 19.9037 103.538 19.99 103.373 20.1625C103.215 20.3275 103.136 20.5337 103.136 20.7812C103.136 20.9612 103.185 21.115 103.283 21.2425C103.38 21.3625 103.5 21.4637 103.643 21.5462C103.785 21.6212 103.984 21.715 104.239 21.8275C104.546 21.9625 104.798 22.09 104.993 22.21C105.195 22.33 105.371 22.4987 105.521 22.7162C105.671 22.9337 105.746 23.2037 105.746 23.5262C105.746 23.9912 105.593 24.3625 105.285 24.64C104.978 24.9175 104.561 25.0563 104.036 25.0563ZM112.589 17.125C112.664 17.125 112.701 17.1625 112.701 17.2375V17.71C112.701 17.785 112.664 17.8225 112.589 17.8225H111.104C111.074 17.8225 111.059 17.8375 111.059 17.8675V24.8875C111.059 24.9625 111.021 25 110.946 25H110.373C110.298 25 110.26 24.9625 110.26 24.8875V17.8675C110.26 17.8375 110.245 17.8225 110.215 17.8225H108.82C108.745 17.8225 108.708 17.785 108.708 17.71V17.2375C108.708 17.1625 108.745 17.125 108.82 17.125H112.589ZM115.794 19.2287C116.251 19.2287 116.604 19.3862 116.851 19.7012C117.106 20.0162 117.234 20.455 117.234 21.0175V24.8875C117.234 24.9625 117.196 25 117.121 25H116.547C116.472 25 116.435 24.9625 116.435 24.8875V21.085C116.435 20.7175 116.352 20.4325 116.187 20.23C116.03 20.0275 115.809 19.9262 115.524 19.9262C115.224 19.9262 114.987 20.035 114.815 20.2525C114.65 20.47 114.567 20.7662 114.567 21.1412V24.8875C114.567 24.9625 114.53 25 114.455 25H113.881C113.806 25 113.769 24.9625 113.769 24.8875V17.2375C113.769 17.1625 113.806 17.125 113.881 17.125H114.455C114.53 17.125 114.567 17.1625 114.567 17.2375V19.78C114.567 19.795 114.575 19.8062 114.59 19.8137C114.605 19.8212 114.616 19.8137 114.624 19.7912C114.759 19.6037 114.927 19.465 115.13 19.375C115.34 19.2775 115.561 19.2287 115.794 19.2287ZM120.202 19.2175C120.727 19.2175 121.147 19.39 121.462 19.735C121.777 20.0725 121.934 20.5262 121.934 21.0962V24.8875C121.934 24.9625 121.897 25 121.822 25H121.248C121.173 25 121.135 24.9625 121.135 24.8875V24.55C121.135 24.535 121.128 24.5275 121.113 24.5275C121.105 24.52 121.094 24.5237 121.079 24.5387C120.802 24.9062 120.385 25.09 119.83 25.09C119.418 25.09 119.058 24.9737 118.75 24.7412C118.45 24.5012 118.3 24.0812 118.3 23.4812C118.3 22.8437 118.484 22.3787 118.852 22.0862C119.219 21.7862 119.703 21.6362 120.303 21.6362H121.09C121.12 21.6362 121.135 21.6212 121.135 21.5912V21.1525C121.135 20.7775 121.049 20.4775 120.877 20.2525C120.704 20.0275 120.472 19.915 120.179 19.915C119.954 19.915 119.759 19.99 119.594 20.14C119.437 20.29 119.343 20.4812 119.313 20.7137C119.313 20.7887 119.275 20.8262 119.2 20.8262L118.57 20.815C118.533 20.815 118.503 20.8037 118.48 20.7812C118.465 20.7587 118.462 20.7325 118.469 20.7025C118.507 20.26 118.687 19.9037 119.009 19.6337C119.332 19.3562 119.729 19.2175 120.202 19.2175ZM119.999 24.3925C120.307 24.3925 120.573 24.295 120.798 24.1C121.023 23.8975 121.135 23.62 121.135 23.2675V22.3225C121.135 22.2925 121.12 22.2775 121.09 22.2775H120.292C119.932 22.2775 119.647 22.375 119.437 22.57C119.227 22.7575 119.122 23.0387 119.122 23.4137C119.122 23.7437 119.2 23.9912 119.358 24.1562C119.523 24.3137 119.737 24.3925 119.999 24.3925ZM123.668 18.2725C123.48 18.2725 123.326 18.2125 123.206 18.0925C123.094 17.9725 123.038 17.8225 123.038 17.6425C123.038 17.455 123.094 17.305 123.206 17.1925C123.326 17.0725 123.48 17.0125 123.668 17.0125C123.848 17.0125 123.994 17.0725 124.106 17.1925C124.226 17.305 124.286 17.455 124.286 17.6425C124.286 17.8225 124.226 17.9725 124.106 18.0925C123.994 18.2125 123.848 18.2725 123.668 18.2725ZM123.386 25C123.311 25 123.274 24.9625 123.274 24.8875V19.42C123.274 19.345 123.311 19.3075 123.386 19.3075H123.96C124.035 19.3075 124.073 19.345 124.073 19.42V24.8875C124.073 24.9625 124.035 25 123.96 25H123.386ZM125.569 25C125.494 25 125.456 24.9625 125.456 24.8875V17.2375C125.456 17.1625 125.494 17.125 125.569 17.125H126.143C126.218 17.125 126.255 17.1625 126.255 17.2375V24.8875C126.255 24.9625 126.218 25 126.143 25H125.569ZM129.221 19.2175C129.746 19.2175 130.166 19.39 130.481 19.735C130.796 20.0725 130.954 20.5262 130.954 21.0962V24.8875C130.954 24.9625 130.916 25 130.841 25H130.268C130.193 25 130.155 24.9625 130.155 24.8875V24.55C130.155 24.535 130.148 24.5275 130.133 24.5275C130.125 24.52 130.114 24.5237 130.099 24.5387C129.821 24.9062 129.405 25.09 128.85 25.09C128.438 25.09 128.078 24.9737 127.77 24.7412C127.47 24.5012 127.32 24.0812 127.32 23.4812C127.32 22.8437 127.504 22.3787 127.871 22.0862C128.239 21.7862 128.723 21.6362 129.323 21.6362H130.11C130.14 21.6362 130.155 21.6212 130.155 21.5912V21.1525C130.155 20.7775 130.069 20.4775 129.896 20.2525C129.724 20.0275 129.491 19.915 129.199 19.915C128.974 19.915 128.779 19.99 128.614 20.14C128.456 20.29 128.363 20.4812 128.333 20.7137C128.333 20.7887 128.295 20.8262 128.22 20.8262L127.59 20.815C127.553 20.815 127.523 20.8037 127.5 20.7812C127.485 20.7587 127.481 20.7325 127.489 20.7025C127.526 20.26 127.706 19.9037 128.029 19.6337C128.351 19.3562 128.749 19.2175 129.221 19.2175ZM129.019 24.3925C129.326 24.3925 129.593 24.295 129.818 24.1C130.043 23.8975 130.155 23.62 130.155 23.2675V22.3225C130.155 22.2925 130.14 22.2775 130.11 22.2775H129.311C128.951 22.2775 128.666 22.375 128.456 22.57C128.246 22.7575 128.141 23.0387 128.141 23.4137C128.141 23.7437 128.22 23.9912 128.378 24.1562C128.543 24.3137 128.756 24.3925 129.019 24.3925ZM134.229 19.2287C134.686 19.2287 135.039 19.3862 135.286 19.7012C135.541 20.0162 135.669 20.455 135.669 21.0175V24.8875C135.669 24.9625 135.631 25 135.556 25H134.982C134.907 25 134.87 24.9625 134.87 24.8875V21.085C134.87 20.7175 134.787 20.4325 134.622 20.23C134.465 20.0275 134.244 19.9262 133.959 19.9262C133.659 19.9262 133.422 20.035 133.25 20.2525C133.085 20.47 133.002 20.7662 133.002 21.1412V24.8875C133.002 24.9625 132.965 25 132.89 25H132.316C132.241 25 132.204 24.9625 132.204 24.8875V19.42C132.204 19.345 132.241 19.3075 132.316 19.3075H132.89C132.965 19.3075 133.002 19.345 133.002 19.42V19.78C133.002 19.795 133.01 19.8062 133.025 19.8137C133.04 19.8212 133.051 19.8137 133.059 19.7912C133.194 19.6037 133.362 19.465 133.565 19.375C133.775 19.2775 133.996 19.2287 134.229 19.2287ZM139.559 17.2375C139.559 17.1625 139.597 17.125 139.672 17.125H140.245C140.32 17.125 140.358 17.1625 140.358 17.2375V24.8875C140.358 24.9625 140.32 25 140.245 25H139.672C139.597 25 139.559 24.9625 139.559 24.8875V24.64C139.559 24.625 139.552 24.6137 139.537 24.6062C139.529 24.5987 139.518 24.6025 139.503 24.6175C139.218 24.9325 138.858 25.09 138.423 25.09C137.943 25.09 137.56 24.9325 137.275 24.6175C136.99 24.295 136.848 23.8787 136.848 23.3687V20.9387C136.848 20.4137 136.99 19.9975 137.275 19.69C137.56 19.375 137.943 19.2175 138.423 19.2175C138.865 19.2175 139.225 19.3787 139.503 19.7012C139.518 19.7162 139.529 19.72 139.537 19.7125C139.552 19.705 139.559 19.6937 139.559 19.6787V17.2375ZM138.614 24.3925C138.892 24.3925 139.117 24.295 139.289 24.1C139.469 23.8975 139.559 23.6387 139.559 23.3237V20.995C139.559 20.6725 139.469 20.4137 139.289 20.2187C139.117 20.0162 138.892 19.915 138.614 19.915C138.329 19.915 138.093 20.0162 137.905 20.2187C137.725 20.4137 137.635 20.6725 137.635 20.995V23.3237C137.635 23.6387 137.725 23.8975 137.905 24.1C138.093 24.295 138.329 24.3925 138.614 24.3925ZM141.402 25C141.327 25 141.29 24.9625 141.29 24.8875V24.4712C141.29 24.3962 141.327 24.3587 141.402 24.3587H144.912C144.987 24.3587 145.025 24.3962 145.025 24.4712V24.8875C145.025 24.9625 144.987 25 144.912 25H141.402Z" fill="black"/>
<path d="M0 8.1875H166.086V8.7478H0V8.1875Z" fill="black"/>
<path d="M183.032 2.91956V3.06956H183.182V2.91956H183.032ZM182.252 2.91956V2.76956H182.102V2.91956H182.252ZM182.252 11.6372H182.102V11.7872H182.252V11.6372ZM183.032 11.6372H183.182V11.4872H183.032V11.6372ZM183.032 12.8622V13.0122H183.182V12.8622H183.032ZM180.659 12.8622H180.509V13.0122H180.659V12.8622ZM180.659 1.69458V1.54458H180.509V1.69458H180.659ZM183.032 1.69458H183.182V1.54458H183.032V1.69458ZM183.032 2.76956H182.252V3.06956H183.032V2.76956ZM182.102 2.91956V11.6372H182.402V2.91956H182.102ZM182.252 11.7872H183.032V11.4872H182.252V11.7872ZM182.882 11.6372V12.8622H183.182V11.6372H182.882ZM183.032 12.7122H180.659V13.0122H183.032V12.7122ZM180.809 12.8622V1.69458H180.509V12.8622H180.809ZM180.659 1.84458H183.032V1.54458H180.659V1.84458ZM182.882 1.69458V2.91956H183.182V1.69458H182.882ZM188.096 3.00195V2.85195H187.946V3.00195H188.096ZM189.744 3.00195H189.894V2.85195H189.744V3.00195ZM189.403 9.89038L189.273 9.81518L189.273 9.81556L189.403 9.89038ZM185.086 10.4672L184.984 10.5778L184.985 10.5783L185.086 10.4672ZM184.377 8.63794V8.48794H184.227V8.63794H184.377ZM186.036 8.63794H186.186V8.48794H186.036V8.63794ZM188.096 3.15195H189.744V2.85195H188.096V3.15195ZM189.594 3.00195V8.53906H189.894V3.00195H189.594ZM189.594 8.53906C189.594 9.02503 189.486 9.44891 189.273 9.81518L189.533 9.96558C189.775 9.54816 189.894 9.07116 189.894 8.53906H189.594ZM189.273 9.81556C189.065 10.178 188.769 10.4584 188.384 10.6581L188.522 10.9245C188.957 10.6993 189.295 10.3791 189.533 9.9652L189.273 9.81556ZM188.384 10.6581C187.997 10.8582 187.558 10.9599 187.063 10.9599V11.2599C187.601 11.2599 188.088 11.1491 188.522 10.9245L188.384 10.6581ZM187.063 10.9599C186.242 10.9599 185.623 10.7523 185.186 10.3561L184.985 10.5783C185.493 11.039 186.192 11.2599 187.063 11.2599V10.9599ZM185.187 10.3565C184.752 9.95912 184.527 9.39361 184.527 8.63794H184.227C184.227 9.45697 184.474 10.111 184.984 10.5778L185.187 10.3565ZM184.377 8.78794H186.036V8.48794H184.377V8.78794ZM185.886 8.63794C185.886 9.04639 185.971 9.37897 186.171 9.6051L186.396 9.40662C186.265 9.25921 186.186 9.01318 186.186 8.63794H185.886ZM186.171 9.6051C186.374 9.836 186.684 9.93601 187.063 9.93601V9.63601C186.732 9.63601 186.521 9.54925 186.396 9.40662L186.171 9.6051ZM187.063 9.93601C187.417 9.93601 187.711 9.81266 187.929 9.56001L187.702 9.36382C187.547 9.5433 187.34 9.63601 187.063 9.63601V9.93601ZM187.929 9.56001C188.147 9.30756 188.246 8.96001 188.246 8.53906H187.946C187.946 8.91645 187.858 9.18413 187.702 9.36382L187.929 9.56001ZM188.246 8.53906V3.00195H187.946V8.53906H188.246ZM195.62 11L195.487 11.0684L195.529 11.15H195.62V11ZM195.461 10.4672L195.609 10.4442L195.561 10.1315L195.349 10.367L195.461 10.4672ZM192.511 10.6045L192.412 10.7168L192.412 10.7173L192.511 10.6045ZM192.638 7.87988L192.55 7.75808L192.55 7.75841L192.638 7.87988ZM194.665 7.36902V7.21902L194.664 7.21902L194.665 7.36902ZM195.395 7.36902V7.51902H195.545V7.36902H195.395ZM195.181 6.36926L195.066 6.46605L195.068 6.4675L195.181 6.36926ZM193.885 6.31433L193.788 6.19909L193.787 6.20025L193.885 6.31433ZM193.659 6.84167V6.99167H193.809V6.84167H193.659ZM192.072 6.84167H191.922V6.99167H192.072V6.84167ZM193.291 5.19922L193.35 5.3373L193.351 5.33682L193.291 5.19922ZM196.34 5.50134L196.242 5.61489L196.243 5.61578L196.34 5.50134ZM196.988 9.62671L196.838 9.62671L196.838 9.62768L196.988 9.62671ZM197.224 10.9066H197.374V10.8692L197.357 10.8362L197.224 10.9066ZM197.224 11V11.15H197.374V11H197.224ZM194.956 9.74207L195.025 9.87524L195.027 9.87421L194.956 9.74207ZM195.395 9.31909L195.527 9.39053L195.545 9.35711V9.31909H195.395ZM195.395 8.29736H195.545V8.14736H195.395V8.29736ZM193.533 9.12134L193.384 9.10739L193.383 9.11253L193.533 9.12134ZM193.527 9.21472L193.377 9.2059V9.21472H193.527ZM195.754 10.9316C195.69 10.8069 195.641 10.6457 195.609 10.4442L195.313 10.4902C195.347 10.7134 195.404 10.9075 195.487 11.0684L195.754 10.9316ZM195.349 10.367C194.995 10.7614 194.537 10.9599 193.961 10.9599V11.2599C194.616 11.2599 195.158 11.0299 195.573 10.5673L195.349 10.367ZM193.961 10.9599C193.41 10.9599 192.963 10.8013 192.61 10.4917L192.412 10.7173C192.828 11.0815 193.348 11.2599 193.961 11.2599V10.9599ZM192.611 10.4921C192.262 10.184 192.09 9.80021 192.09 9.33008H191.79C191.79 9.88534 191.998 10.3512 192.412 10.7168L192.611 10.4921ZM192.09 9.33008C192.09 8.74287 192.304 8.30703 192.726 8.00136L192.55 7.75841C192.041 8.12656 191.79 8.65752 191.79 9.33008H192.09ZM192.725 8.00169C193.158 7.69031 193.798 7.52261 194.665 7.51902L194.664 7.21902C193.766 7.22275 193.054 7.39563 192.55 7.75808L192.725 8.00169ZM194.665 7.51902H195.395V7.21902H194.665V7.51902ZM195.545 7.36902V7.02844H195.245V7.36902H195.545ZM195.545 7.02844C195.545 6.72736 195.466 6.4696 195.294 6.27102L195.068 6.4675C195.181 6.59852 195.245 6.78021 195.245 7.02844H195.545ZM195.296 6.27249C195.118 6.06181 194.846 5.97207 194.516 5.97207V6.27207C194.795 6.27207 194.966 6.34712 195.066 6.46604L195.296 6.27249ZM194.516 5.97207C194.226 5.97207 193.977 6.0419 193.788 6.1991L193.981 6.42956C194.1 6.33042 194.272 6.27207 194.516 6.27207V5.97207ZM193.787 6.20025C193.599 6.36086 193.509 6.58085 193.509 6.84167H193.809C193.809 6.65572 193.87 6.52415 193.982 6.42842L193.787 6.20025ZM193.659 6.69167H192.072V6.99167H193.659V6.69167ZM192.222 6.84167C192.222 6.53074 192.317 6.24267 192.512 5.97391L192.269 5.79782C192.039 6.115 191.922 6.46413 191.922 6.84167H192.222ZM192.512 5.97391C192.706 5.70645 192.983 5.49322 193.35 5.33729L193.233 5.06115C192.824 5.23481 192.5 5.47934 192.269 5.79782L192.512 5.97391ZM193.351 5.33682C193.718 5.17763 194.133 5.09653 194.599 5.09653V4.79653C194.098 4.79653 193.641 4.8839 193.232 5.06162L193.351 5.33682ZM194.599 5.09653C195.306 5.09653 195.848 5.27474 196.242 5.61489L196.438 5.3878C195.975 4.9882 195.356 4.79653 194.599 4.79653V5.09653ZM196.243 5.61578C196.635 5.94835 196.838 6.41937 196.838 7.05042H197.138C197.138 6.34845 196.909 5.78676 196.437 5.38691L196.243 5.61578ZM196.838 7.05042V9.62671H197.138V7.05042H196.838ZM196.838 9.62768C196.842 10.2007 196.921 10.6561 197.092 10.977L197.357 10.8362C197.22 10.5785 197.142 10.1806 197.138 9.62573L196.838 9.62768ZM197.074 10.9066V11H197.374V10.9066H197.074ZM197.224 10.85H195.62V11.15H197.224V10.85ZM194.307 10.0459C194.565 10.0459 194.805 9.98941 195.025 9.87523L194.887 9.6089C194.711 9.6998 194.519 9.74587 194.307 9.74587V10.0459ZM195.027 9.87421C195.247 9.75592 195.416 9.59515 195.527 9.39053L195.263 9.24765C195.184 9.3946 195.06 9.51581 194.885 9.60992L195.027 9.87421ZM195.545 9.31909V8.29736H195.245V9.31909H195.545ZM195.395 8.14736H194.802V8.44736H195.395V8.14736ZM194.802 8.14736C194.391 8.14736 194.053 8.21777 193.807 8.37755C193.553 8.54243 193.413 8.79198 193.384 9.1074L193.682 9.13528C193.704 8.90138 193.801 8.73894 193.97 8.62916C194.147 8.51429 194.418 8.44736 194.802 8.44736V8.14736ZM193.383 9.11253L193.378 9.20591L193.677 9.22353L193.683 9.13015L193.383 9.11253ZM193.377 9.21472C193.377 9.45226 193.463 9.65595 193.635 9.81395L193.838 9.59328C193.731 9.49493 193.677 9.3727 193.677 9.21472H193.377ZM193.635 9.81395C193.808 9.97412 194.039 10.0459 194.307 10.0459V9.74587C194.093 9.74587 193.942 9.68946 193.838 9.59328L193.635 9.81395ZM200.794 5.0564L200.943 5.04562L200.933 4.9064H200.794V5.0564ZM200.843 5.74304L200.694 5.75381L200.721 6.1358L200.96 5.83675L200.843 5.74304ZM204.43 7.16028L204.58 7.16028L204.58 7.15879L204.43 7.16028ZM204.43 11V11.15H204.58V11H204.43ZM202.843 11H202.693V11.15H202.843V11ZM202.623 6.46814L202.514 6.5716L202.516 6.57289L202.623 6.46814ZM200.887 6.80872L200.758 6.73283L200.737 6.76797V6.80872H200.887ZM200.887 11V11.15H201.037V11H200.887ZM199.3 11H199.15V11.15H199.3V11ZM199.3 5.0564V4.9064H199.15V5.0564H199.3ZM200.644 5.06717L200.694 5.75381L200.993 5.73227L200.943 5.04562L200.644 5.06717ZM200.96 5.83675C201.355 5.34333 201.88 5.09653 202.552 5.09653V4.79653C201.795 4.79653 201.181 5.08074 200.726 5.64934L200.96 5.83675ZM202.552 5.09653C203.152 5.09653 203.572 5.27159 203.843 5.59726L204.073 5.40543C203.729 4.99135 203.211 4.79653 202.552 4.79653V5.09653ZM203.843 5.59726C204.119 5.92972 204.273 6.44278 204.28 7.16177L204.58 7.15879C204.573 6.40561 204.412 5.81271 204.073 5.40543L203.843 5.59726ZM204.28 7.16028V11H204.58V7.16028H204.28ZM204.43 10.85H202.843V11.15H204.43V10.85ZM202.993 11V7.19873H202.693V11H202.993ZM202.993 7.19873C202.993 6.84539 202.917 6.55443 202.73 6.36339L202.516 6.57289C202.622 6.68214 202.693 6.87825 202.693 7.19873H202.993ZM202.732 6.36469C202.544 6.16738 202.25 6.08743 201.892 6.08743V6.38743C202.216 6.38743 202.409 6.46128 202.514 6.57159L202.732 6.36469ZM201.892 6.08743C201.393 6.08743 201.009 6.30539 200.758 6.73283L201.017 6.88461C201.213 6.55032 201.498 6.38743 201.892 6.38743V6.08743ZM200.737 6.80872V11H201.037V6.80872H200.737ZM200.887 10.85H199.3V11.15H200.887V10.85ZM199.45 11V5.0564H199.15V11H199.45ZM199.3 5.2064H200.794V4.9064H199.3V5.2064ZM216.107 11V11.15H216.257V11H216.107ZM210.624 11H210.474V11.15H210.624V11ZM210.624 9.91235L210.515 9.80972L210.474 9.853V9.91235H210.624ZM213.212 7.15479L213.321 7.25743L213.322 7.25605L213.212 7.15479ZM213.997 6.13855L213.868 6.06185L213.868 6.06307L213.997 6.13855ZM213.986 4.47961L213.873 4.57839L213.874 4.5794L213.986 4.47961ZM212.366 4.54553L212.251 4.44917L212.251 4.44934L212.366 4.54553ZM212.058 5.51782V5.66782H212.208V5.51782H212.058ZM210.465 5.51782H210.315V5.66782H210.465V5.51782ZM210.811 4.18298L210.682 4.10755L210.681 4.10844L210.811 4.18298ZM211.8 3.23816L211.871 3.37045L211.872 3.36997L211.8 3.23816ZM215.162 3.48535L215.063 3.59846L215.064 3.59885L215.162 3.48535ZM214.486 7.80298L214.595 7.90622L214.597 7.9041L214.486 7.80298ZM212.668 9.72009L212.559 9.61687L212.319 9.87009H212.668V9.72009ZM216.107 9.72009H216.257V9.57009H216.107V9.72009ZM216.107 10.85H210.624V11.15H216.107V10.85ZM210.774 11V9.91235H210.474V11H210.774ZM210.734 10.015L213.321 7.25742L213.102 7.05215L210.515 9.80972L210.734 10.015ZM213.322 7.25605C213.681 6.8639 213.951 6.51627 214.127 6.21403L213.868 6.06307C213.707 6.33945 213.453 6.6693 213.101 7.05352L213.322 7.25605ZM214.126 6.21524C214.308 5.90943 214.405 5.60843 214.405 5.31458H214.105C214.105 5.54074 214.031 5.78906 213.868 6.06186L214.126 6.21524ZM214.405 5.31458C214.405 4.93445 214.309 4.61647 214.098 4.37983L213.874 4.5794C214.022 4.74559 214.105 4.98425 214.105 5.31458H214.405ZM214.099 4.38084C213.885 4.13607 213.583 4.022 213.217 4.022V4.322C213.518 4.322 213.729 4.413 213.873 4.57839L214.099 4.38084ZM213.217 4.022C212.819 4.022 212.491 4.16233 212.251 4.44917L212.481 4.64189C212.658 4.43069 212.897 4.322 213.217 4.322V4.022ZM212.251 4.44934C212.018 4.72809 211.908 5.0892 211.908 5.51782H212.208C212.208 5.14078 212.304 4.8537 212.481 4.64173L212.251 4.44934ZM212.058 5.36782H210.465V5.66782H212.058V5.36782ZM210.615 5.51782C210.615 5.05558 210.724 4.63654 210.941 4.25753L210.681 4.10844C210.437 4.5351 210.315 5.00595 210.315 5.51782H210.615ZM210.941 4.25842C211.161 3.88047 211.47 3.58484 211.871 3.37045L211.729 3.10587C211.281 3.34558 210.93 3.67983 210.682 4.10755L210.941 4.25842ZM211.872 3.36997C212.272 3.1525 212.728 3.04209 213.245 3.04209V2.74209C212.684 2.74209 212.178 2.86239 211.728 3.10634L211.872 3.36997ZM213.245 3.04209C214.046 3.04209 214.645 3.23426 215.063 3.59846L215.26 3.37224C214.77 2.94543 214.091 2.74209 213.245 2.74209V3.04209ZM215.064 3.59885C215.482 3.96035 215.698 4.4737 215.698 5.16077H215.998C215.998 4.40497 215.757 3.80137 215.26 3.37185L215.064 3.59885ZM215.698 5.16077C215.698 5.52954 215.603 5.90953 215.407 6.30218L215.675 6.43634C215.889 6.00868 215.998 5.58301 215.998 5.16077H215.698ZM215.407 6.30218C215.21 6.69478 214.869 7.161 214.375 7.70186L214.597 7.9041C215.099 7.35365 215.461 6.86406 215.675 6.43634L215.407 6.30218ZM214.377 7.69976L212.559 9.61687L212.777 9.82332L214.595 7.9062L214.377 7.69976ZM212.668 9.87009H216.107V9.57009H212.668V9.87009ZM215.957 9.72009V11H216.257V9.72009H215.957ZM218.187 7.77551L218.037 7.77551L218.037 7.77705L218.187 7.77551ZM218.88 3.76001L218.763 3.66603L218.762 3.66649L218.88 3.76001ZM222.884 3.75452L222.767 3.8484L222.767 3.84877L222.884 3.75452ZM223.593 6.22095L223.743 6.22095L223.743 6.21941L223.593 6.22095ZM221.73 4.63342L221.601 4.70969L221.602 4.71151L221.73 4.63342ZM220.055 4.61145L219.928 4.53239L219.927 4.53284L220.055 4.61145ZM219.775 5.95728L219.625 5.95458V5.95728H219.775ZM220.039 9.35754L219.907 9.43001L219.908 9.4318L220.039 9.35754ZM222.005 7.97876L222.155 7.98051V7.97876H222.005ZM223.443 7.69312C223.443 8.78124 223.217 9.58917 222.788 10.1386L223.024 10.3233C223.51 9.70087 223.743 8.81691 223.743 7.69312H223.443ZM222.788 10.1386C222.364 10.6812 221.742 10.9599 220.896 10.9599V11.2599C221.815 11.2599 222.533 10.9526 223.024 10.3233L222.788 10.1386ZM220.896 10.9599C220.06 10.9599 219.441 10.6864 219.013 10.1536L218.779 10.3413C219.274 10.9584 219.988 11.2599 220.896 11.2599V10.9599ZM219.013 10.1536C218.58 9.61441 218.348 8.82817 218.337 7.77398L218.037 7.77705C218.049 8.86885 218.289 9.73057 218.779 10.3413L219.013 10.1536ZM218.337 7.77551V6.30334H218.037V7.77551H218.337ZM218.337 6.30334C218.337 5.20385 218.565 4.39503 218.997 3.85353L218.762 3.66649C218.271 4.28221 218.037 5.16895 218.037 6.30334H218.337ZM218.996 3.85398C219.428 3.31715 220.05 3.04209 220.885 3.04209V2.74209C219.976 2.74209 219.261 3.04564 218.763 3.66604L218.996 3.85398ZM220.885 3.04209C221.72 3.04209 222.339 3.31556 222.767 3.8484L223.001 3.66063C222.506 3.04357 221.792 2.74209 220.885 2.74209V3.04209ZM222.767 3.84877C223.2 4.38408 223.432 5.1682 223.443 6.22248L223.743 6.21941C223.731 5.12769 223.491 4.26754 223.001 3.66027L222.767 3.84877ZM223.443 6.22095V7.69312H223.743V6.22095H223.443ZM222.155 6.07812C222.155 5.40829 222.064 4.89204 221.859 4.55533L221.602 4.71151C221.763 4.9754 221.855 5.42228 221.855 6.07812H222.155ZM221.86 4.55717C221.65 4.20277 221.316 4.02749 220.885 4.02749V4.32749C221.222 4.32749 221.452 4.45616 221.601 4.70968L221.86 4.55717ZM220.885 4.02749C220.465 4.02749 220.137 4.19407 219.928 4.53239L220.183 4.69051C220.332 4.45021 220.557 4.32749 220.885 4.32749V4.02749ZM219.927 4.53284C219.73 4.85333 219.636 5.33505 219.625 5.95458L219.925 5.95997C219.936 5.35636 220.028 4.94085 220.183 4.69006L219.927 4.53284ZM219.625 5.95728V7.90186H219.925V5.95728H219.625ZM219.625 7.90186C219.625 8.56188 219.713 9.07791 219.907 9.43001L220.17 9.28508C220.013 8.99997 219.925 8.54554 219.925 7.90186H219.625ZM219.908 9.4318C220.117 9.79803 220.455 9.97996 220.896 9.97996V9.67996C220.552 9.67996 220.319 9.54694 220.169 9.28329L219.908 9.4318ZM220.896 9.97996C221.33 9.97996 221.664 9.80494 221.866 9.44794L221.605 9.30011C221.463 9.55102 221.237 9.67996 220.896 9.67996V9.97996ZM221.866 9.44794C222.057 9.11072 222.148 8.61487 222.155 7.98051L221.855 7.97701C221.848 8.59509 221.759 9.02941 221.605 9.30011L221.866 9.44794ZM222.155 7.97876V6.07812H221.855V7.97876H222.155ZM229.651 11V11.15H229.801V11H229.651ZM228.063 11H227.913V11.15H228.063V11ZM228.063 4.88062H228.213V4.67704L228.019 4.73735L228.063 4.88062ZM226.168 5.46838H226.018V5.67195L226.212 5.61165L226.168 5.46838ZM226.168 4.17749L226.117 4.03628L226.018 4.07189V4.17749H226.168ZM229.48 2.99097V2.84097H229.454L229.43 2.84975L229.48 2.99097ZM229.651 2.99097H229.801V2.84097H229.651V2.99097ZM229.651 10.85H228.063V11.15H229.651V10.85ZM228.213 11V4.88062H227.913V11H228.213ZM228.019 4.73735L226.123 5.32512L226.212 5.61165L228.107 5.02388L228.019 4.73735ZM226.318 5.46838V4.17749H226.018V5.46838H226.318ZM226.218 4.3187L229.531 3.13218L229.43 2.84975L226.117 4.03628L226.218 4.3187ZM229.48 3.14097H229.651V2.84097H229.48V3.14097ZM229.501 2.99097V11H229.801V2.99097H229.501ZM237.686 2.91956H237.836V2.76956H237.686V2.91956ZM237.686 4.22693V4.37693H237.836V4.22693H237.686ZM237.532 4.22693V4.07691L237.53 4.07695L237.532 4.22693ZM235.796 4.78723L235.701 4.67152L235.7 4.67192L235.796 4.78723ZM235.011 6.29785L234.862 6.27758L234.801 6.72508L235.118 6.40301L235.011 6.29785ZM238.554 9.77502L238.422 9.70384L238.421 9.70474L238.554 9.77502ZM237.598 10.7583L237.524 10.6278L237.524 10.6281L237.598 10.7583ZM234.159 10.231L234.047 10.3301L234.047 10.3305L234.159 10.231ZM233.874 5.01794L233.739 4.95145L233.739 4.95176L233.874 5.01794ZM235.285 3.47437L235.362 3.6034L235.362 3.60326L235.285 3.47437ZM237.422 2.91956V2.76955L237.422 2.76956L237.422 2.91956ZM235.439 7.12732L235.519 7.25415L235.521 7.25314L235.439 7.12732ZM234.978 7.65466L234.841 7.59311L234.828 7.62247V7.65466H234.978ZM235.291 9.38501L235.168 9.47063L235.168 9.47133L235.291 9.38501ZM236.994 9.42896L236.876 9.33642L236.876 9.33664L236.994 9.42896ZM237.536 2.91956V4.22693H237.836V2.91956H237.536ZM237.686 4.07693H237.532V4.37693H237.686V4.07693ZM237.53 4.07695C236.787 4.08832 236.173 4.28218 235.701 4.67153L235.892 4.90294C236.299 4.56718 236.842 4.38751 237.534 4.37691L237.53 4.07695ZM235.7 4.67192C235.231 5.06199 234.954 5.60177 234.862 6.27758L235.159 6.31812C235.243 5.70487 235.489 5.23757 235.892 4.90254L235.7 4.67192ZM235.118 6.40301C235.512 6.00171 236.009 5.79966 236.62 5.79966V5.49966C235.935 5.49966 235.359 5.72973 234.904 6.1927L235.118 6.40301ZM236.62 5.79966C237.275 5.79966 237.784 6.03162 238.163 6.49208L238.395 6.30137C237.954 5.76574 237.357 5.49966 236.62 5.49966V5.79966ZM238.163 6.49208C238.546 6.9569 238.744 7.57582 238.744 8.36328H239.044C239.044 7.52477 238.832 6.83265 238.395 6.30137L238.163 6.49208ZM238.744 8.36328C238.744 8.86066 238.636 9.30644 238.422 9.70384L238.686 9.84621C238.926 9.40132 239.044 8.90594 239.044 8.36328H238.744ZM238.421 9.70474C238.211 10.1007 237.913 10.4075 237.524 10.6278L237.672 10.8888C238.111 10.6403 238.45 10.2916 238.686 9.84531L238.421 9.70474ZM237.524 10.6281C237.138 10.8482 236.699 10.9599 236.203 10.9599V11.2599C236.746 11.2599 237.237 11.1371 237.672 10.8885L237.524 10.6281ZM236.203 10.9599C235.4 10.9599 234.761 10.6826 234.271 10.1314L234.047 10.3305C234.598 10.9512 235.321 11.2599 236.203 11.2599V10.9599ZM234.272 10.1318C233.785 9.57964 233.535 8.83618 233.535 7.88538H233.235C233.235 8.89014 233.501 9.7104 234.047 10.3301L234.272 10.1318ZM233.535 7.88538V7.31409H233.235V7.88538H233.535ZM233.535 7.31409C233.535 6.46512 233.694 5.72307 234.008 5.08413L233.739 4.95176C233.401 5.6385 233.235 6.42721 233.235 7.31409H233.535ZM234.008 5.08443C234.325 4.44269 234.776 3.95045 235.362 3.6034L235.209 3.34533C234.571 3.72338 234.081 4.26019 233.739 4.95145L234.008 5.08443ZM235.362 3.60326C235.951 3.25246 236.637 3.07311 237.423 3.06955L237.422 2.76956C236.589 2.77332 235.85 2.96385 235.209 3.34547L235.362 3.60326ZM237.422 3.06956H237.686V2.76956H237.422V3.06956ZM236.137 6.77407C235.852 6.77407 235.591 6.84973 235.358 7.0015L235.521 7.25314C235.705 7.13392 235.909 7.07407 236.137 7.07407V6.77407ZM235.359 7.0005C235.126 7.14764 234.952 7.34584 234.841 7.59311L235.115 7.71622C235.201 7.52403 235.335 7.37067 235.519 7.25414L235.359 7.0005ZM234.828 7.65466V8.13806H235.128V7.65466H234.828ZM234.828 8.13806C234.828 8.68647 234.935 9.13619 235.168 9.47063L235.414 9.29939C235.229 9.03325 235.128 8.65166 235.128 8.13806H234.828ZM235.168 9.47133C235.406 9.80974 235.746 9.97996 236.17 9.97996V9.67996C235.839 9.67996 235.593 9.55354 235.414 9.29869L235.168 9.47133ZM236.17 9.97996C236.556 9.97996 236.875 9.82519 237.112 9.52127L236.876 9.33664C236.695 9.56739 236.464 9.67996 236.17 9.67996V9.97996ZM237.112 9.52149C237.35 9.21817 237.462 8.8334 237.462 8.37976H237.162C237.162 8.78306 237.063 9.09775 236.876 9.33642L237.112 9.52149ZM237.462 8.37976C237.462 7.91959 237.35 7.53222 237.111 7.23176L236.876 7.41838C237.062 7.65259 237.162 7.96835 237.162 8.37976H237.462ZM237.111 7.23176C236.869 6.92655 236.539 6.77407 236.137 6.77407V7.07407C236.453 7.07407 236.694 7.18893 236.876 7.41838L237.111 7.23176ZM248.044 8.21497V8.36497H248.194V8.21497H248.044ZM244.951 8.21497H244.801V8.36497H244.951V8.21497ZM244.951 6.93506V6.78506H244.801V6.93506H244.951ZM248.044 6.93506H248.194V6.78506H248.044V6.93506ZM248.044 8.06497H244.951V8.36497H248.044V8.06497ZM245.101 8.21497V6.93506H244.801V8.21497H245.101ZM244.951 7.08506H248.044V6.78506H244.951V7.08506ZM247.894 6.93506V8.21497H248.194V6.93506H247.894ZM256.627 3.00195L256.769 2.95188L256.733 2.85195H256.627V3.00195ZM258.682 8.80273L258.54 8.85281L258.682 9.25311L258.823 8.85257L258.682 8.80273ZM260.725 3.00195V2.85195H260.619L260.584 2.95211L260.725 3.00195ZM262.89 3.00195H263.04V2.85195H262.89V3.00195ZM262.89 11V11.15H263.04V11H262.89ZM261.236 11H261.086V11.15H261.236V11ZM261.236 8.81372L261.086 8.80717V8.81372H261.236ZM261.401 5.03992L261.551 5.04646L261.26 4.98883L261.401 5.03992ZM259.242 11V11.15H259.347L259.383 11.0511L259.242 11ZM258.111 11L257.97 11.051L258.005 11.15H258.111V11ZM255.957 5.04541L256.098 4.9944L255.807 5.05196L255.957 5.04541ZM256.122 8.81372H256.272L256.272 8.80717L256.122 8.81372ZM256.122 11V11.15H256.272V11H256.122ZM254.474 11H254.324V11.15H254.474V11ZM254.474 3.00195V2.85195H254.324V3.00195H254.474ZM256.486 3.05203L258.54 8.85281L258.823 8.75266L256.769 2.95188L256.486 3.05203ZM258.823 8.85257L260.867 3.05179L260.584 2.95211L258.54 8.7529L258.823 8.85257ZM260.725 3.15195H262.89V2.85195H260.725V3.15195ZM262.74 3.00195V11H263.04V3.00195H262.74ZM262.89 10.85H261.236V11.15H262.89V10.85ZM261.386 11V8.81372H261.086V11H261.386ZM261.386 8.82026L261.551 5.04646L261.251 5.03337L261.086 8.80718L261.386 8.82026ZM261.26 4.98883L259.101 10.9489L259.383 11.0511L261.542 5.091L261.26 4.98883ZM259.242 10.85H258.111V11.15H259.242V10.85ZM258.252 10.949L256.098 4.9944L255.816 5.09642L257.97 11.051L258.252 10.949ZM255.807 5.05196L255.972 8.82027L256.272 8.80717L256.107 5.03886L255.807 5.05196ZM255.972 8.81372V11H256.272V8.81372H255.972ZM256.122 10.85H254.474V11.15H256.122V10.85ZM254.624 11V3.00195H254.324V11H254.624ZM254.474 3.15195H256.627V2.85195H254.474V3.15195ZM268.794 11L268.66 11.0684L268.702 11.15H268.794V11ZM268.634 10.4672L268.783 10.4442L268.734 10.1315L268.523 10.367L268.634 10.4672ZM265.685 10.6045L265.585 10.7168L265.586 10.7173L265.685 10.6045ZM265.811 7.87988L265.723 7.75808L265.723 7.75841L265.811 7.87988ZM267.838 7.36902V7.21902L267.837 7.21902L267.838 7.36902ZM268.568 7.36902V7.51902H268.718V7.36902H268.568ZM268.354 6.36926L268.24 6.46605L268.241 6.4675L268.354 6.36926ZM267.058 6.31433L266.962 6.19909L266.96 6.20025L267.058 6.31433ZM266.833 6.84167V6.99167H266.983V6.84167H266.833ZM265.245 6.84167H265.095V6.99167H265.245V6.84167ZM266.465 5.19922L266.523 5.3373L266.524 5.33682L266.465 5.19922ZM269.513 5.50134L269.415 5.61489L269.416 5.61578L269.513 5.50134ZM270.161 9.62671L270.011 9.62671L270.012 9.62768L270.161 9.62671ZM270.398 10.9066H270.548V10.8692L270.53 10.8362L270.398 10.9066ZM270.398 11V11.15H270.548V11H270.398ZM268.129 9.74207L268.198 9.87524L268.2 9.87421L268.129 9.74207ZM268.568 9.31909L268.7 9.39053L268.718 9.35711V9.31909H268.568ZM268.568 8.29736H268.718V8.14736H268.568V8.29736ZM266.706 9.12134L266.557 9.10739L266.557 9.11253L266.706 9.12134ZM266.701 9.21472L266.551 9.2059V9.21472H266.701ZM268.927 10.9316C268.863 10.8069 268.814 10.6457 268.783 10.4442L268.486 10.4902C268.521 10.7134 268.578 10.9075 268.66 11.0684L268.927 10.9316ZM268.523 10.367C268.169 10.7614 267.711 10.9599 267.135 10.9599V11.2599C267.789 11.2599 268.331 11.0299 268.746 10.5673L268.523 10.367ZM267.135 10.9599C266.583 10.9599 266.137 10.8013 265.783 10.4917L265.586 10.7173C266.001 11.0815 266.522 11.2599 267.135 11.2599V10.9599ZM265.784 10.4921C265.436 10.184 265.263 9.80021 265.263 9.33008H264.963C264.963 9.88534 265.172 10.3512 265.585 10.7168L265.784 10.4921ZM265.263 9.33008C265.263 8.74287 265.477 8.30703 265.899 8.00136L265.723 7.75841C265.215 8.12656 264.963 8.65752 264.963 9.33008H265.263ZM265.898 8.00169C266.332 7.69031 266.972 7.52261 267.839 7.51902L267.837 7.21902C266.939 7.22275 266.228 7.39563 265.723 7.75808L265.898 8.00169ZM267.838 7.51902H268.568V7.21902H267.838V7.51902ZM268.718 7.36902V7.02844H268.418V7.36902H268.718ZM268.718 7.02844C268.718 6.72736 268.64 6.4696 268.468 6.27102L268.241 6.4675C268.354 6.59852 268.418 6.78021 268.418 7.02844H268.718ZM268.469 6.27249C268.291 6.06181 268.019 5.97207 267.69 5.97207V6.27207C267.968 6.27207 268.139 6.34712 268.24 6.46604L268.469 6.27249ZM267.69 5.97207C267.399 5.97207 267.15 6.0419 266.962 6.1991L267.154 6.42956C267.273 6.33042 267.445 6.27207 267.69 6.27207V5.97207ZM266.96 6.20025C266.772 6.36086 266.683 6.58085 266.683 6.84167H266.983C266.983 6.65572 267.043 6.52415 267.155 6.42842L266.96 6.20025ZM266.833 6.69167H265.245V6.99167H266.833V6.69167ZM265.395 6.84167C265.395 6.53074 265.49 6.24267 265.685 5.97391L265.442 5.79782C265.212 6.115 265.095 6.46413 265.095 6.84167H265.395ZM265.685 5.97391C265.879 5.70645 266.156 5.49322 266.523 5.33729L266.406 5.06115C265.997 5.23481 265.673 5.47934 265.442 5.79782L265.685 5.97391ZM266.524 5.33682C266.891 5.17763 267.306 5.09653 267.772 5.09653V4.79653C267.271 4.79653 266.814 4.8839 266.405 5.06162L266.524 5.33682ZM267.772 5.09653C268.479 5.09653 269.021 5.27474 269.415 5.61489L269.611 5.3878C269.148 4.9882 268.53 4.79653 267.772 4.79653V5.09653ZM269.416 5.61578C269.809 5.94835 270.011 6.41937 270.011 7.05042H270.311C270.311 6.34845 270.082 5.78676 269.61 5.38691L269.416 5.61578ZM270.011 7.05042V9.62671H270.311V7.05042H270.011ZM270.012 9.62768C270.015 10.2007 270.095 10.6561 270.265 10.977L270.53 10.8362C270.393 10.5785 270.315 10.1806 270.311 9.62573L270.012 9.62768ZM270.248 10.9066V11H270.548V10.9066H270.248ZM270.398 10.85H268.794V11.15H270.398V10.85ZM267.481 10.0459C267.738 10.0459 267.978 9.98941 268.198 9.87523L268.06 9.6089C267.885 9.6998 267.692 9.74587 267.481 9.74587V10.0459ZM268.2 9.87421C268.42 9.75592 268.59 9.59515 268.7 9.39053L268.437 9.24765C268.357 9.3946 268.233 9.51581 268.058 9.60992L268.2 9.87421ZM268.718 9.31909V8.29736H268.418V9.31909H268.718ZM268.568 8.14736H267.975V8.44736H268.568V8.14736ZM267.975 8.14736C267.564 8.14736 267.226 8.21777 266.98 8.37755C266.726 8.54243 266.586 8.79198 266.557 9.1074L266.856 9.13528C266.877 8.90138 266.975 8.73894 267.144 8.62916C267.321 8.51429 267.592 8.44736 267.975 8.44736V8.14736ZM266.557 9.11253L266.551 9.20591L266.851 9.22353L266.856 9.13015L266.557 9.11253ZM266.551 9.21472C266.551 9.45226 266.636 9.65595 266.808 9.81395L267.011 9.59328C266.904 9.49493 266.851 9.3727 266.851 9.21472H266.551ZM266.808 9.81395C266.982 9.97412 267.212 10.0459 267.481 10.0459V9.74587C267.266 9.74587 267.116 9.68946 267.011 9.59328L266.808 9.81395ZM275.846 6.54504L275.826 6.69368L275.993 6.71642L275.996 6.5472L275.846 6.54504ZM274.094 7.11084L273.957 7.04821L273.944 7.07803V7.11084H274.094ZM274.094 11V11.15H274.244V11H274.094ZM272.506 11H272.356V11.15H272.506V11ZM272.506 5.0564V4.9064H272.356V5.0564H272.506ZM274.006 5.0564L274.155 5.04711L274.147 4.9064H274.006V5.0564ZM274.05 5.76501L273.9 5.7743L273.93 6.26661L274.179 5.84065L274.05 5.76501ZM275.868 5.01794L276.018 5.0201L276.019 4.90785L275.912 4.87465L275.868 5.01794ZM275.866 6.3964C275.645 6.36647 275.448 6.3511 275.275 6.3511V6.6511C275.431 6.6511 275.614 6.66502 275.826 6.69368L275.866 6.3964ZM275.275 6.3511C274.639 6.3511 274.177 6.56979 273.957 7.04821L274.23 7.17346C274.384 6.8389 274.709 6.6511 275.275 6.6511V6.3511ZM273.944 7.11084V11H274.244V7.11084H273.944ZM274.094 10.85H272.506V11.15H274.094V10.85ZM272.656 11V5.0564H272.356V11H272.656ZM272.506 5.2064H274.006V4.9064H272.506V5.2064ZM273.856 5.06568L273.9 5.7743L274.199 5.75573L274.155 5.04711L273.856 5.06568ZM274.179 5.84065C274.475 5.33438 274.87 5.09653 275.373 5.09653V4.79653C274.749 4.79653 274.262 5.10435 273.92 5.68938L274.179 5.84065ZM275.373 5.09653C275.536 5.09653 275.685 5.11846 275.823 5.16124L275.912 4.87465C275.743 4.82221 275.563 4.79653 275.373 4.79653V5.09653ZM275.718 5.01579L275.696 6.54289L275.996 6.5472L276.018 5.0201L275.718 5.01579ZM287.083 11V11.15H287.233V11H287.083ZM281.6 11H281.45V11.15H281.6V11ZM281.6 9.91235L281.491 9.80972L281.45 9.853V9.91235H281.6ZM284.188 7.15479L284.297 7.25743L284.298 7.25605L284.188 7.15479ZM284.973 6.13855L284.844 6.06185L284.844 6.06307L284.973 6.13855ZM284.962 4.47961L284.849 4.57839L284.85 4.5794L284.962 4.47961ZM283.342 4.54553L283.227 4.44917L283.227 4.44934L283.342 4.54553ZM283.034 5.51782V5.66782H283.184V5.51782H283.034ZM281.441 5.51782H281.291V5.66782H281.441V5.51782ZM281.787 4.18298L281.658 4.10755L281.657 4.10844L281.787 4.18298ZM282.776 3.23816L282.847 3.37045L282.848 3.36997L282.776 3.23816ZM286.138 3.48535L286.039 3.59846L286.04 3.59885L286.138 3.48535ZM285.462 7.80298L285.571 7.90622L285.573 7.9041L285.462 7.80298ZM283.644 9.72009L283.535 9.61687L283.295 9.87009H283.644V9.72009ZM287.083 9.72009H287.233V9.57009H287.083V9.72009ZM287.083 10.85H281.6V11.15H287.083V10.85ZM281.75 11V9.91235H281.45V11H281.75ZM281.71 10.015L284.297 7.25742L284.078 7.05215L281.491 9.80972L281.71 10.015ZM284.298 7.25605C284.657 6.8639 284.927 6.51627 285.103 6.21403L284.844 6.06307C284.683 6.33945 284.429 6.6693 284.077 7.05352L284.298 7.25605ZM285.102 6.21524C285.284 5.90943 285.381 5.60843 285.381 5.31458H285.081C285.081 5.54074 285.007 5.78906 284.844 6.06186L285.102 6.21524ZM285.381 5.31458C285.381 4.93445 285.285 4.61647 285.074 4.37983L284.85 4.5794C284.998 4.74559 285.081 4.98425 285.081 5.31458H285.381ZM285.075 4.38084C284.861 4.13607 284.559 4.022 284.193 4.022V4.322C284.494 4.322 284.705 4.413 284.849 4.57839L285.075 4.38084ZM284.193 4.022C283.795 4.022 283.467 4.16233 283.227 4.44917L283.457 4.64189C283.634 4.43069 283.873 4.322 284.193 4.322V4.022ZM283.227 4.44934C282.994 4.72809 282.884 5.0892 282.884 5.51782H283.184C283.184 5.14078 283.28 4.8537 283.457 4.64173L283.227 4.44934ZM283.034 5.36782H281.441V5.66782H283.034V5.36782ZM281.591 5.51782C281.591 5.05558 281.7 4.63654 281.917 4.25753L281.657 4.10844C281.413 4.5351 281.291 5.00595 281.291 5.51782H281.591ZM281.917 4.25842C282.137 3.88047 282.446 3.58484 282.847 3.37045L282.705 3.10587C282.257 3.34558 281.906 3.67983 281.658 4.10755L281.917 4.25842ZM282.848 3.36997C283.248 3.1525 283.704 3.04209 284.221 3.04209V2.74209C283.66 2.74209 283.154 2.86239 282.704 3.10634L282.848 3.36997ZM284.221 3.04209C285.022 3.04209 285.621 3.23426 286.039 3.59846L286.236 3.37224C285.746 2.94543 285.068 2.74209 284.221 2.74209V3.04209ZM286.04 3.59885C286.458 3.96035 286.674 4.4737 286.674 5.16077H286.974C286.974 4.40497 286.733 3.80137 286.236 3.37185L286.04 3.59885ZM286.674 5.16077C286.674 5.52954 286.579 5.90953 286.383 6.30218L286.651 6.43634C286.865 6.00868 286.974 5.58301 286.974 5.16077H286.674ZM286.383 6.30218C286.186 6.69478 285.845 7.161 285.351 7.70186L285.573 7.9041C286.075 7.35365 286.437 6.86406 286.651 6.43634L286.383 6.30218ZM285.353 7.69976L283.535 9.61687L283.753 9.82332L285.571 7.9062L285.353 7.69976ZM283.644 9.87009H287.083V9.57009H283.644V9.87009ZM286.933 9.72009V11H287.233V9.72009H286.933ZM289.163 7.77551L289.013 7.77551L289.013 7.77705L289.163 7.77551ZM289.856 3.76001L289.739 3.66603L289.738 3.66649L289.856 3.76001ZM293.86 3.75452L293.743 3.8484L293.743 3.84877L293.86 3.75452ZM294.569 6.22095L294.719 6.22095L294.719 6.21941L294.569 6.22095ZM292.707 4.63342L292.577 4.70969L292.578 4.71151L292.707 4.63342ZM291.031 4.61145L290.904 4.53239L290.903 4.53284L291.031 4.61145ZM290.751 5.95728L290.601 5.95458V5.95728H290.751ZM291.015 9.35754L290.883 9.43001L290.884 9.4318L291.015 9.35754ZM292.981 7.97876L293.131 7.98051V7.97876H292.981ZM294.419 7.69312C294.419 8.78124 294.193 9.58917 293.764 10.1386L294 10.3233C294.487 9.70087 294.719 8.81691 294.719 7.69312H294.419ZM293.764 10.1386C293.34 10.6812 292.718 10.9599 291.872 10.9599V11.2599C292.791 11.2599 293.509 10.9526 294 10.3233L293.764 10.1386ZM291.872 10.9599C291.036 10.9599 290.417 10.6864 289.989 10.1536L289.755 10.3413C290.25 10.9584 290.964 11.2599 291.872 11.2599V10.9599ZM289.989 10.1536C289.556 9.61441 289.324 8.82817 289.313 7.77398L289.013 7.77705C289.025 8.86885 289.265 9.73057 289.755 10.3413L289.989 10.1536ZM289.313 7.77551V6.30334H289.013V7.77551H289.313ZM289.313 6.30334C289.313 5.20385 289.541 4.39503 289.973 3.85353L289.738 3.66649C289.247 4.28221 289.013 5.16895 289.013 6.30334H289.313ZM289.973 3.85398C290.404 3.31715 291.026 3.04209 291.861 3.04209V2.74209C290.952 2.74209 290.237 3.04564 289.739 3.66604L289.973 3.85398ZM291.861 3.04209C292.696 3.04209 293.315 3.31556 293.743 3.8484L293.977 3.66063C293.482 3.04357 292.768 2.74209 291.861 2.74209V3.04209ZM293.743 3.84877C294.176 4.38408 294.408 5.1682 294.419 6.22248L294.719 6.21941C294.708 5.12769 294.467 4.26754 293.977 3.66027L293.743 3.84877ZM294.419 6.22095V7.69312H294.719V6.22095H294.419ZM293.131 6.07812C293.131 5.40829 293.04 4.89204 292.835 4.55533L292.578 4.71151C292.739 4.9754 292.831 5.42228 292.831 6.07812H293.131ZM292.836 4.55717C292.626 4.20277 292.292 4.02749 291.861 4.02749V4.32749C292.198 4.32749 292.428 4.45616 292.577 4.70968L292.836 4.55717ZM291.861 4.02749C291.441 4.02749 291.113 4.19407 290.904 4.53239L291.159 4.69051C291.308 4.45021 291.533 4.32749 291.861 4.32749V4.02749ZM290.903 4.53284C290.706 4.85333 290.612 5.33505 290.601 5.95458L290.901 5.95997C290.912 5.35636 291.005 4.94085 291.159 4.69006L290.903 4.53284ZM290.601 5.95728V7.90186H290.901V5.95728H290.601ZM290.601 7.90186C290.601 8.56188 290.689 9.07791 290.883 9.43001L291.146 9.28508C290.989 8.99997 290.901 8.54554 290.901 7.90186H290.601ZM290.884 9.4318C291.093 9.79803 291.431 9.97996 291.872 9.97996V9.67996C291.528 9.67996 291.295 9.54694 291.145 9.28329L290.884 9.4318ZM291.872 9.97996C292.307 9.97996 292.64 9.80494 292.843 9.44794L292.582 9.30011C292.439 9.55102 292.213 9.67996 291.872 9.67996V9.97996ZM292.843 9.44794C293.034 9.11072 293.124 8.61487 293.131 7.98051L292.831 7.97701C292.824 8.59509 292.735 9.02941 292.582 9.30011L292.843 9.44794ZM293.131 7.97876V6.07812H292.831V7.97876H293.131ZM300.627 11V11.15H300.777V11H300.627ZM299.039 11H298.889V11.15H299.039V11ZM299.039 4.88062H299.189V4.67704L298.995 4.73735L299.039 4.88062ZM297.144 5.46838H296.994V5.67195L297.188 5.61165L297.144 5.46838ZM297.144 4.17749L297.093 4.03628L296.994 4.07189V4.17749H297.144ZM300.456 2.99097V2.84097H300.43L300.406 2.84975L300.456 2.99097ZM300.627 2.99097H300.777V2.84097H300.627V2.99097ZM300.627 10.85H299.039V11.15H300.627V10.85ZM299.189 11V4.88062H298.889V11H299.189ZM298.995 4.73735L297.099 5.32512L297.188 5.61165L299.083 5.02388L298.995 4.73735ZM297.294 5.46838V4.17749H296.994V5.46838H297.294ZM297.195 4.3187L300.507 3.13218L300.406 2.84975L297.093 4.03628L297.195 4.3187ZM300.456 3.14097H300.627V2.84097H300.456V3.14097ZM300.477 2.99097V11H300.777V2.99097H300.477ZM308.662 2.91956H308.812V2.76956H308.662V2.91956ZM308.662 4.22693V4.37693H308.812V4.22693H308.662ZM308.508 4.22693V4.07691L308.506 4.07695L308.508 4.22693ZM306.772 4.78723L306.677 4.67152L306.676 4.67192L306.772 4.78723ZM305.987 6.29785L305.838 6.27758L305.777 6.72508L306.094 6.40301L305.987 6.29785ZM309.53 9.77502L309.398 9.70384L309.397 9.70474L309.53 9.77502ZM308.574 10.7583L308.5 10.6278L308.5 10.6281L308.574 10.7583ZM305.135 10.231L305.023 10.3301L305.023 10.3305L305.135 10.231ZM304.85 5.01794L304.715 4.95145L304.715 4.95176L304.85 5.01794ZM306.261 3.47437L306.338 3.6034L306.338 3.60326L306.261 3.47437ZM308.398 2.91956V2.76955L308.398 2.76956L308.398 2.91956ZM306.415 7.12732L306.495 7.25415L306.497 7.25314L306.415 7.12732ZM305.954 7.65466L305.817 7.59311L305.804 7.62247V7.65466H305.954ZM306.267 9.38501L306.144 9.47063L306.144 9.47133L306.267 9.38501ZM307.97 9.42896L307.852 9.33642L307.852 9.33664L307.97 9.42896ZM308.512 2.91956V4.22693H308.812V2.91956H308.512ZM308.662 4.07693H308.508V4.37693H308.662V4.07693ZM308.506 4.07695C307.763 4.08832 307.149 4.28218 306.677 4.67153L306.868 4.90294C307.275 4.56718 307.818 4.38751 308.51 4.37691L308.506 4.07695ZM306.676 4.67192C306.208 5.06199 305.93 5.60177 305.838 6.27758L306.135 6.31812C306.219 5.70487 306.466 5.23757 306.868 4.90254L306.676 4.67192ZM306.094 6.40301C306.488 6.00171 306.985 5.79966 307.596 5.79966V5.49966C306.911 5.49966 306.335 5.72973 305.88 6.1927L306.094 6.40301ZM307.596 5.79966C308.251 5.79966 308.76 6.03162 309.139 6.49208L309.371 6.30137C308.93 5.76574 308.333 5.49966 307.596 5.49966V5.79966ZM309.139 6.49208C309.522 6.9569 309.72 7.57582 309.72 8.36328H310.02C310.02 7.52477 309.809 6.83265 309.371 6.30137L309.139 6.49208ZM309.72 8.36328C309.72 8.86066 309.612 9.30644 309.398 9.70384L309.662 9.84621C309.902 9.40132 310.02 8.90594 310.02 8.36328H309.72ZM309.397 9.70474C309.187 10.1007 308.889 10.4075 308.5 10.6278L308.648 10.8888C309.087 10.6403 309.426 10.2916 309.662 9.84531L309.397 9.70474ZM308.5 10.6281C308.114 10.8482 307.675 10.9599 307.179 10.9599V11.2599C307.722 11.2599 308.213 11.1371 308.649 10.8885L308.5 10.6281ZM307.179 10.9599C306.376 10.9599 305.737 10.6826 305.248 10.1314L305.023 10.3305C305.574 10.9512 306.297 11.2599 307.179 11.2599V10.9599ZM305.248 10.1318C304.761 9.57964 304.511 8.83618 304.511 7.88538H304.211C304.211 8.89014 304.477 9.7104 305.023 10.3301L305.248 10.1318ZM304.511 7.88538V7.31409H304.211V7.88538H304.511ZM304.511 7.31409C304.511 6.46512 304.67 5.72307 304.984 5.08413L304.715 4.95176C304.377 5.6385 304.211 6.42721 304.211 7.31409H304.511ZM304.984 5.08443C305.302 4.44269 305.753 3.95045 306.338 3.6034L306.185 3.34533C305.547 3.72338 305.057 4.26019 304.715 4.95145L304.984 5.08443ZM306.338 3.60326C306.928 3.25246 307.613 3.07311 308.399 3.06955L308.398 2.76956C307.565 2.77332 306.826 2.96385 306.185 3.34547L306.338 3.60326ZM308.398 3.06956H308.662V2.76956H308.398V3.06956ZM307.113 6.77407C306.829 6.77407 306.567 6.84973 306.334 7.0015L306.497 7.25314C306.681 7.13392 306.885 7.07407 307.113 7.07407V6.77407ZM306.335 7.0005C306.102 7.14764 305.928 7.34584 305.817 7.59311L306.091 7.71622C306.177 7.52403 306.311 7.37067 306.495 7.25414L306.335 7.0005ZM305.804 7.65466V8.13806H306.104V7.65466H305.804ZM305.804 8.13806C305.804 8.68647 305.911 9.13619 306.144 9.47063L306.39 9.29939C306.205 9.03325 306.104 8.65166 306.104 8.13806H305.804ZM306.144 9.47133C306.382 9.80974 306.722 9.97996 307.146 9.97996V9.67996C306.815 9.67996 306.569 9.55354 306.39 9.29869L306.144 9.47133ZM307.146 9.97996C307.532 9.97996 307.851 9.82519 308.088 9.52127L307.852 9.33664C307.671 9.56739 307.44 9.67996 307.146 9.67996V9.97996ZM308.088 9.52149C308.326 9.21817 308.438 8.8334 308.438 8.37976H308.138C308.138 8.78306 308.039 9.09775 307.852 9.33642L308.088 9.52149ZM308.438 8.37976C308.438 7.91959 308.326 7.53222 308.087 7.23176L307.852 7.41838C308.038 7.65259 308.138 7.96835 308.138 8.37976H308.438ZM308.087 7.23176C307.845 6.92655 307.515 6.77407 307.113 6.77407V7.07407C307.429 7.07407 307.67 7.18893 307.852 7.41838L308.087 7.23176ZM311.468 1.69458V1.54458H311.318V1.69458H311.468ZM313.841 1.69458H313.991V1.54458H313.841V1.69458ZM313.841 12.8622V13.0122H313.991V12.8622H313.841ZM311.468 12.8622H311.318V13.0122H311.468V12.8622ZM311.468 11.6372V11.4872H311.318V11.6372H311.468ZM312.253 11.6372V11.7872H312.403V11.6372H312.253ZM312.253 2.91956H312.403V2.76956H312.253V2.91956ZM311.468 2.91956H311.318V3.06956H311.468V2.91956ZM311.468 1.84458H313.841V1.54458H311.468V1.84458ZM313.691 1.69458V12.8622H313.991V1.69458H313.691ZM313.841 12.7122H311.468V13.0122H313.841V12.7122ZM311.618 12.8622V11.6372H311.318V12.8622H311.618ZM311.468 11.7872H312.253V11.4872H311.468V11.7872ZM312.403 11.6372V2.91956H312.103V11.6372H312.403ZM312.253 2.76956H311.468V3.06956H312.253V2.76956ZM311.618 2.91956V1.69458H311.318V2.91956H311.618Z" fill="black"/>
</svg>
