<svg width="102" height="41" viewBox="0 0 102 41" fill="none" xmlns="http://www.w3.org/2000/svg">
<path d="M9.01284 20.8035L8.0712 18.158L6.21034 18.853V16.8128H3.43026V18.853L1.5694 18.158L0.62776 20.8035L2.4662 21.4537L1.18826 22.9558L3.34058 24.7719L4.8203 23.0007L6.30002 24.7719L8.45234 22.9558L7.15198 21.4537L9.01284 20.8035ZM32.888 17.306L30.3994 26.3637L26.588 17.3957H25.1083L21.3642 26.3637L18.8083 17.306H14.1673L19.0773 33H22.8887L25.8482 25.4445L28.8524 33H32.6638L37.5066 17.306H32.888ZM51.4299 33.4036C56.4744 33.4036 60.0616 29.9733 60.0616 25.1754C60.0616 20.3551 56.4744 16.9249 51.4299 16.9249C46.3854 16.9249 42.7982 20.3775 42.7982 25.1754C42.7982 29.9509 46.3854 33.4036 51.4299 33.4036ZM51.4299 29.3904C49.0534 29.3904 47.2822 27.5968 47.2822 25.1754C47.2822 22.7316 49.0534 20.938 51.4299 20.938C53.8288 20.938 55.5552 22.7092 55.5552 25.1754C55.5552 27.6192 53.8288 29.3904 51.4299 29.3904ZM75.5724 33H80.3927L77.2763 27.3053C78.8233 26.3861 79.7649 24.7943 79.7649 22.8662C79.7649 19.5928 77.2987 17.306 73.9357 17.306H67.1201V33H71.4471V28.2021H73.0165L75.5724 33ZM71.4471 21.1622H73.4201C74.6308 21.1622 75.3258 21.8797 75.3258 22.8662C75.3258 23.8302 74.6308 24.5701 73.4201 24.5701H71.4471V21.1622ZM101.099 33L95.6064 24.9288L100.628 17.306H95.6064L91.4587 23.9423V17.306H87.1316V33H91.4587V26.0722L95.9651 33H101.099Z" fill="black"/>
<path d="M14.7247 7.1688H14.5747V7.3188H14.7247V7.1688ZM17.1403 7.1688V7.3188H17.2903V7.1688H17.1403ZM17.1403 4.84714H17.2903V4.69714H17.1403V4.84714ZM14.7247 4.84714V4.69714H14.5747V4.84714H14.7247ZM14.7247 12H14.5747V12.15H14.7247V12ZM17.1403 12V12.15H17.2903V12H17.1403ZM17.1403 9.69176H17.2903V9.54176H17.1403V9.69176ZM14.7247 9.69176V9.54176H14.5747V9.69176H14.7247ZM14.7247 7.3188L17.1403 7.3188V7.0188L14.7247 7.0188V7.3188ZM17.2903 7.1688V4.84714H16.9903V7.1688H17.2903ZM17.1403 4.69714L14.7247 4.69714V4.99714L17.1403 4.99714V4.69714ZM14.5747 4.84714L14.5747 7.1688H14.8747L14.8747 4.84714H14.5747ZM14.7247 12.15H17.1403V11.85H14.7247V12.15ZM17.2903 12V9.69176H16.9903V12H17.2903ZM17.1403 9.54176H14.7247V9.84176H17.1403V9.54176ZM14.5747 9.69176V12H14.8747V9.69176H14.5747ZM33.5913 12V12.15H33.7655L33.7397 11.9777L33.5913 12ZM32.1822 2.606L32.3306 2.58375L32.3114 2.456H32.1822V2.606ZM29.6056 2.606V2.456H29.5073L29.4681 2.54608L29.6056 2.606ZM27.3779 7.71902L27.2402 7.77863L27.3774 8.09551L27.5154 7.77893L27.3779 7.71902ZM25.1636 2.606L25.3012 2.54639L25.2621 2.456H25.1636V2.606ZM22.5735 2.606V2.456H22.4445L22.4252 2.58354L22.5735 2.606ZM21.151 12L21.0027 11.9775L20.9765 12.15H21.151V12ZM23.7813 12V12.15H23.9125L23.93 12.02L23.7813 12ZM24.506 6.60516L24.6424 6.54271L24.4264 6.07105L24.3573 6.58519L24.506 6.60516ZM26.9887 12.0268L26.8523 12.0893L26.8924 12.1768H26.9887V12.0268ZM27.7536 12.0268V12.1768H27.8498L27.8899 12.0894L27.7536 12.0268ZM30.2497 6.59174L30.3984 6.57182L30.3296 6.0584L30.1134 6.52914L30.2497 6.59174ZM30.9744 12L30.8257 12.0199L30.8432 12.15H30.9744V12ZM33.7397 11.9777L32.3306 2.58375L32.0339 2.62825L33.443 12.0223L33.7397 11.9777ZM32.1822 2.456L29.6056 2.456V2.756L32.1822 2.756V2.456ZM29.4681 2.54608L27.2403 7.65911L27.5154 7.77893L29.7431 2.66591L29.4681 2.54608ZM27.5155 7.65941L25.3012 2.54639L25.0259 2.66561L27.2402 7.77863L27.5155 7.65941ZM25.1636 2.456L22.5735 2.456V2.756L25.1636 2.756V2.456ZM22.4252 2.58354L21.0027 11.9775L21.2993 12.0225L22.7218 2.62846L22.4252 2.58354ZM21.151 12.15H23.7813V11.85H21.151V12.15ZM23.93 12.02L24.6546 6.62513L24.3573 6.58519L23.6326 11.98L23.93 12.02ZM24.3696 6.66761L26.8523 12.0893L27.1251 11.9644L24.6424 6.54271L24.3696 6.66761ZM26.9887 12.1768H27.7536V11.8768H26.9887V12.1768ZM27.8899 12.0894L30.386 6.65434L30.1134 6.52914L27.6173 11.9642L27.8899 12.0894ZM30.1011 6.61166L30.8257 12.0199L31.1231 11.9801L30.3984 6.57182L30.1011 6.61166ZM30.9744 12.15H33.5913V11.85H30.9744V12.15ZM45.9981 2.606L46.1283 2.68042L46.2566 2.456H45.9981V2.606ZM43.1396 2.606V2.456H43.0474L43.0058 2.53828L43.1396 2.606ZM41.4219 6.00126L41.288 6.06898L41.4219 6.33353L41.5557 6.06898L41.4219 6.00126ZM39.7041 2.606L39.838 2.53828L39.7963 2.456H39.7041V2.606ZM36.8322 2.606V2.456H36.574L36.702 2.68032L36.8322 2.606ZM40.0933 8.32292H40.2433V8.28315L40.2236 8.2486L40.0933 8.32292ZM40.0933 12H39.9433V12.15H40.0933V12ZM42.7236 12V12.15H42.8736V12H42.7236ZM42.7236 8.33634L42.5934 8.26192L42.5736 8.29651V8.33634H42.7236ZM45.9981 2.456L43.1396 2.456V2.756L45.9981 2.756V2.456ZM43.0058 2.53828L41.288 5.93354L41.5557 6.06898L43.2735 2.67372L43.0058 2.53828ZM41.5557 5.93354L39.838 2.53828L39.5703 2.67372L41.288 6.06898L41.5557 5.93354ZM39.7041 2.456L36.8322 2.456V2.756L39.7041 2.756V2.456ZM36.702 2.68032L39.963 8.39724L40.2236 8.2486L36.9625 2.53168L36.702 2.68032ZM39.9433 8.32292V12H40.2433V8.32292H39.9433ZM40.0933 12.15L42.7236 12.15V11.85L40.0933 11.85V12.15ZM42.8736 12V8.33634H42.5736V12H42.8736ZM42.8539 8.41076L46.1283 2.68042L45.8679 2.53158L42.5934 8.26192L42.8539 8.41076Z" fill="black"/>
</svg>
