<svg width="144" height="41" viewBox="0 0 144 41" fill="none" xmlns="http://www.w3.org/2000/svg">
<path d="M9.01284 20.8035L8.0712 18.158L6.21034 18.853L6.21034 16.8128L3.43026 16.8128L3.43026 18.853L1.5694 18.158L0.627758 20.8035L2.4662 21.4537L1.18826 22.9558L3.34058 24.7719L4.8203 23.0007L6.30002 24.7719L8.45234 22.9558L7.15198 21.4537L9.01284 20.8035ZM22.6994 17.306L16.0182 17.306L16.0182 33L20.3453 33L20.3453 28.6729L22.6994 28.6729C26.04 28.6729 28.5286 26.274 28.5286 22.9783C28.5286 19.7049 26.04 17.306 22.6994 17.306ZM22.1837 24.9064L20.3453 24.9064L20.3453 21.095L22.1837 21.095C23.3271 21.095 24.067 21.8797 24.067 23.0007C24.067 24.1217 23.3271 24.9064 22.1837 24.9064ZM43.2123 33L48.0326 33L44.9162 27.3053C46.4632 26.3861 47.4048 24.7943 47.4048 22.8662C47.4048 19.5928 44.9386 17.306 41.5756 17.306L34.7599 17.306L34.7599 33L39.087 33L39.087 28.2021L40.6564 28.2021L43.2123 33ZM39.087 21.1622L41.06 21.1622C42.2706 21.1622 42.9657 21.8797 42.9657 22.8662C42.9657 23.8302 42.2706 24.5701 41.06 24.5701L39.087 24.5701L39.087 21.1622ZM62.5961 33.4036C67.6406 33.4036 71.2278 29.9733 71.2278 25.1754C71.2278 20.3551 67.6406 16.9249 62.5961 16.9249C57.5516 16.9249 53.9644 20.3775 53.9644 25.1754C53.9644 29.9509 57.5516 33.4036 62.5961 33.4036ZM62.5961 29.3904C60.2196 29.3904 58.4484 27.5968 58.4484 25.1754C58.4484 22.7316 60.2196 20.938 62.5961 20.938C64.9951 20.9381 66.7214 22.7092 66.7214 25.1754C66.7214 27.6192 64.9951 29.3904 62.5961 29.3904ZM88.2856 21.2295L88.2856 17.306L78.2863 17.306L78.2863 33L82.6582 33L82.6582 27.5071L87.7027 27.5071L87.7027 23.7181L82.6582 23.7181L82.6582 21.2295L88.2856 21.2295ZM99.2307 29.2559L99.2307 26.9018L104.387 26.9018L104.387 23.3594L99.2307 23.3594L99.2307 21.0502L104.97 21.0502L104.97 17.306L94.9261 17.306L94.9261 33L105.172 33L105.172 29.2559L99.2307 29.2559ZM118.068 33.4036C121.722 33.4036 124.345 31.61 124.345 28.1797C124.345 24.6149 121.341 23.8302 119.009 23.2473C117.552 22.8662 116.364 22.5747 116.364 21.6779C116.364 20.9381 117.104 20.6018 117.866 20.6018C118.763 20.6018 119.502 21.0726 119.502 22.0815L123.852 22.0815C123.852 18.8754 121.677 16.9473 117.911 16.9473C114.211 16.9473 111.947 18.7185 111.947 21.8124C111.947 25.3772 114.839 26.0722 117.104 26.6327C118.606 26.9915 119.839 27.2829 119.839 28.2694C119.839 29.1214 118.964 29.6146 118.068 29.6146C117.081 29.6146 116.207 29.0541 116.207 27.9331L111.745 27.9331C111.745 31.3634 114.234 33.4036 118.068 33.4036ZM131.177 28.6954L142.656 28.6954L142.656 24.9064L131.177 24.9064L131.177 28.6954Z" fill="black"/>
<path d="M16.7247 7.1688H16.5747L16.5747 7.3188H16.7247L16.7247 7.1688ZM19.1403 7.1688V7.3188H19.2903V7.1688H19.1403ZM19.1403 4.84714H19.2903V4.69714H19.1403V4.84714ZM16.7247 4.84714V4.69714H16.5747V4.84714H16.7247ZM16.7247 12H16.5747V12.15H16.7247V12ZM19.1403 12V12.15H19.2903V12H19.1403ZM19.1403 9.69176H19.2903V9.54176H19.1403V9.69176ZM16.7247 9.69176V9.54176H16.5747V9.69176H16.7247ZM16.7247 7.3188L19.1403 7.3188L19.1403 7.0188L16.7247 7.0188L16.7247 7.3188ZM19.2903 7.1688L19.2903 4.84714H18.9903L18.9903 7.1688H19.2903ZM19.1403 4.69714L16.7247 4.69714V4.99714L19.1403 4.99714V4.69714ZM16.5747 4.84714L16.5747 7.1688L16.8747 7.1688L16.8747 4.84714L16.5747 4.84714ZM16.7247 12.15L19.1403 12.15V11.85L16.7247 11.85V12.15ZM19.2903 12L19.2903 9.69176H18.9903L18.9903 12H19.2903ZM19.1403 9.54176L16.7247 9.54176V9.84176L19.1403 9.84176V9.54176ZM16.5747 9.69176L16.5747 12H16.8747L16.8747 9.69176H16.5747ZM35.5913 12V12.15H35.7655L35.7397 11.9777L35.5913 12ZM34.1822 2.606L34.3306 2.58375L34.3114 2.456L34.1822 2.456V2.606ZM31.6056 2.606L31.6056 2.456H31.5073L31.4681 2.54608L31.6056 2.606ZM29.3779 7.71902L29.2402 7.77863L29.3774 8.09551L29.5154 7.77893L29.3779 7.71902ZM27.1636 2.606L27.3012 2.54639L27.2621 2.456H27.1636L27.1636 2.606ZM24.5735 2.606L24.5735 2.456H24.4445L24.4252 2.58354L24.5735 2.606ZM23.151 12L23.0027 11.9775L22.9765 12.15H23.151V12ZM25.7813 12V12.15L25.9125 12.15L25.93 12.02L25.7813 12ZM26.506 6.60516L26.6424 6.54271L26.4264 6.07105L26.3573 6.58519L26.506 6.60516ZM28.9887 12.0268L28.8523 12.0893L28.8924 12.1768L28.9887 12.1768V12.0268ZM29.7536 12.0268V12.1768H29.8498L29.8899 12.0894L29.7536 12.0268ZM32.2497 6.59174L32.3984 6.57182L32.3296 6.0584L32.1134 6.52914L32.2497 6.59174ZM32.9744 12L32.8257 12.0199L32.8432 12.15H32.9744V12ZM35.7397 11.9777L34.3306 2.58375L34.0339 2.62825L35.443 12.0223L35.7397 11.9777ZM34.1822 2.456L31.6056 2.456L31.6056 2.756L34.1822 2.756V2.456ZM31.4681 2.54608L29.2403 7.65911L29.5154 7.77893L31.7431 2.66591L31.4681 2.54608ZM29.5155 7.65941L27.3012 2.54639L27.0259 2.66561L29.2402 7.77863L29.5155 7.65941ZM27.1636 2.456L24.5735 2.456L24.5735 2.756L27.1636 2.756L27.1636 2.456ZM24.4252 2.58354L23.0027 11.9775L23.2993 12.0225L24.7218 2.62846L24.4252 2.58354ZM23.151 12.15L25.7813 12.15V11.85L23.151 11.85V12.15ZM25.93 12.02L26.6546 6.62513L26.3573 6.58519L25.6326 11.98L25.93 12.02ZM26.3696 6.66761L28.8523 12.0893L29.1251 11.9644L26.6424 6.54271L26.3696 6.66761ZM28.9887 12.1768H29.7536V11.8768H28.9887V12.1768ZM29.8899 12.0894L32.386 6.65434L32.1134 6.52914L29.6173 11.9642L29.8899 12.0894ZM32.1011 6.61166L32.8257 12.0199L33.1231 11.9801L32.3984 6.57182L32.1011 6.61166ZM32.9744 12.15L35.5913 12.15V11.85L32.9744 11.85V12.15ZM47.9981 2.606L48.1283 2.68042L48.2566 2.456L47.9981 2.456V2.606ZM45.1396 2.606V2.456L45.0474 2.456L45.0058 2.53828L45.1396 2.606ZM43.4219 6.00126L43.288 6.06898L43.4219 6.33353L43.5557 6.06898L43.4219 6.00126ZM41.7041 2.606L41.838 2.53828L41.7963 2.456L41.7041 2.456V2.606ZM38.8322 2.606V2.456L38.574 2.456L38.702 2.68032L38.8322 2.606ZM42.0933 8.32292H42.2433V8.28315L42.2236 8.2486L42.0933 8.32292ZM42.0933 12H41.9433V12.15H42.0933V12ZM44.7236 12V12.15H44.8736V12H44.7236ZM44.7236 8.33634L44.5934 8.26192L44.5736 8.29651V8.33634H44.7236ZM47.9981 2.456L45.1396 2.456V2.756L47.9981 2.756V2.456ZM45.0058 2.53828L43.288 5.93354L43.5557 6.06898L45.2735 2.67372L45.0058 2.53828ZM43.5557 5.93354L41.838 2.53828L41.5703 2.67372L43.288 6.06898L43.5557 5.93354ZM41.7041 2.456L38.8322 2.456V2.756L41.7041 2.756V2.456ZM38.702 2.68032L41.963 8.39724L42.2236 8.2486L38.9625 2.53168L38.702 2.68032ZM41.9433 8.32292L41.9433 12H42.2433L42.2433 8.32292H41.9433ZM42.0933 12.15L44.7236 12.15V11.85L42.0933 11.85V12.15ZM44.8736 12L44.8736 8.33634H44.5736L44.5736 12H44.8736ZM44.8539 8.41076L48.1283 2.68042L47.8679 2.53158L44.5934 8.26192L44.8539 8.41076Z" fill="black"/>
</svg>
