<svg width="220" height="18" viewBox="0 0 220 18" fill="none" xmlns="http://www.w3.org/2000/svg">
<path d="M8.00394 7.2473L7.94068 7.48918L7.9433 7.48984L8.00394 7.2473ZM8.49718 6.08146L8.24718 6.08146L8.24718 6.33146L8.49718 6.33146L8.49718 6.08146ZM12.8467 6.08146L12.8467 6.33146L13.0967 6.33146L13.0967 6.08146L12.8467 6.08146ZM6.09824 10.6327L6.03817 10.8754L6.04017 10.8759L6.09824 10.6327ZM5.20144 11.9331L5.45144 11.9331L5.45144 11.6831L5.20144 11.6831L5.20144 11.9331ZM0.739857 11.9331L0.739857 11.6831L0.489857 11.6831L0.489857 11.9331L0.739857 11.9331ZM7.0623 17.6536C8.92684 17.6536 10.5568 17.1964 11.7263 16.2743C12.9035 15.3462 13.5899 13.9655 13.5899 12.1797L13.0899 12.1797C13.0899 13.8242 12.4647 15.0554 11.4167 15.8817C10.3611 16.714 8.85222 17.1536 7.0623 17.1536L7.0623 17.6536ZM13.5899 12.1797C13.5899 10.3097 12.7938 9.14737 11.6876 8.3891C10.6019 7.64481 9.22266 7.29429 8.06457 7.00477L7.9433 7.48984C9.1169 7.78323 10.4057 8.11653 11.4049 8.80151C12.3838 9.47251 13.0899 10.4849 13.0899 12.1797L13.5899 12.1797ZM8.0672 7.00544C7.32781 6.81206 6.69554 6.65031 6.24384 6.43107C5.79575 6.21357 5.60838 5.98174 5.60838 5.6779L5.10838 5.6779C5.10838 6.27086 5.51514 6.63316 6.02551 6.88088C6.53226 7.12685 7.22277 7.3014 7.94068 7.48917L8.0672 7.00544ZM5.60838 5.6779C5.60838 5.40701 5.73738 5.21216 5.95685 5.0739C6.18584 4.92963 6.51102 4.85174 6.86052 4.85174L6.86052 4.35174C6.44774 4.35174 6.02185 4.442 5.69033 4.65085C5.3493 4.8657 5.10838 5.20893 5.10838 5.6779L5.60838 5.6779ZM6.86052 4.85174C7.26851 4.85174 7.61603 4.95911 7.85654 5.15651C8.09006 5.34817 8.24718 5.64418 8.24718 6.08146L8.74718 6.08146C8.74718 5.50985 8.53437 5.06599 8.17376 4.77002C7.82014 4.47979 7.34933 4.35174 6.86052 4.35174L6.86052 4.85174ZM8.49718 6.33146L12.8467 6.33146L12.8467 5.83146L8.49718 5.83146L8.49718 6.33146ZM13.0967 6.08146C13.0967 4.41869 12.5305 3.06145 11.4526 2.1235C10.3793 1.18959 8.82871 0.697281 6.90536 0.697281L6.90536 1.19728C8.74857 1.19728 10.1686 1.66903 11.1244 2.50069C12.0755 3.32832 12.5967 4.53818 12.5967 6.08146L13.0967 6.08146ZM6.90536 0.697281C5.0194 0.69728 3.46614 1.14845 2.37931 2.02502C1.28529 2.9074 0.691639 4.19884 0.691638 5.81242L1.19164 5.81242C1.19164 4.33204 1.7302 3.19091 2.69321 2.41421C3.66341 1.6317 5.09202 1.19728 6.90536 1.19728L6.90536 0.697281ZM0.691638 5.81242C0.691638 7.67899 1.45678 8.82036 2.52947 9.5554C3.57981 10.2751 4.91637 10.5977 6.03817 10.8754L6.15831 10.39C5.01569 10.1072 3.77395 9.80204 2.8121 9.14295C1.87259 8.49916 1.19164 7.51063 1.19164 5.81242L0.691638 5.81242ZM6.04017 10.8759C6.80137 11.0577 7.45405 11.2142 7.9199 11.4405C8.37696 11.6626 8.58348 11.9149 8.58348 12.2694L9.08348 12.2694C9.08348 11.6373 8.67344 11.2507 8.13842 10.9908C7.61219 10.7351 6.89725 10.5665 6.15631 10.3896L6.04017 10.8759ZM8.58348 12.2694C8.58348 12.5982 8.4186 12.8636 8.14152 13.0562C7.85957 13.2521 7.46874 13.3646 7.0623 13.3646L7.0623 13.8646C7.55265 13.8646 8.04741 13.7304 8.42685 13.4668C8.81117 13.1997 9.08348 12.7925 9.08348 12.2694L8.58348 12.2694ZM7.0623 13.3646C6.6135 13.3646 6.2083 13.2368 5.92042 13.0009C5.63876 12.77 5.45144 12.4217 5.45144 11.9331L4.95144 11.9331C4.95144 12.5654 5.2013 13.0579 5.60346 13.3876C5.99939 13.7121 6.52462 13.8646 7.0623 13.8646L7.0623 13.3646ZM5.20144 11.6831L0.739857 11.6831L0.739857 12.1831L5.20144 12.1831L5.20144 11.6831ZM0.489857 11.9331C0.489857 13.7132 1.13813 15.1535 2.30122 16.1449C3.45948 17.1323 5.10328 17.6536 7.0623 17.6536L7.0623 17.1536C5.18749 17.1536 3.67007 16.6548 2.62557 15.7644C1.58589 14.8782 0.989857 13.5832 0.989857 11.9331L0.489857 11.9331ZM20.4628 17L20.2128 17L20.2128 17.25L20.4628 17.25L20.4628 17ZM24.8571 17L24.8571 17.25L25.1071 17.25L25.1071 17L24.8571 17ZM24.8571 1.306L25.1071 1.306L25.1071 1.056L24.8571 1.056L24.8571 1.306ZM20.4628 1.306L20.4628 1.056L20.2128 1.056L20.2128 1.306L20.4628 1.306ZM20.4628 17.25L24.8571 17.25L24.8571 16.75L20.4628 16.75L20.4628 17.25ZM25.1071 17L25.1071 1.306L24.6071 1.306L24.6071 17L25.1071 17ZM24.8571 1.056L20.4628 1.056L20.4628 1.556L24.8571 1.556L24.8571 1.056ZM20.2128 1.306L20.2128 17L20.7128 17L20.7128 1.306L20.2128 1.306ZM40.5702 17.6536C45.7416 17.6536 49.4519 14.1223 49.4519 9.17543L48.9519 9.17543C48.9519 13.8243 45.4878 17.1536 40.5702 17.1536L40.5702 17.6536ZM49.4519 9.17543C49.4519 4.20657 45.7421 0.674868 40.5702 0.674867L40.5702 1.17487C45.4874 1.17487 48.9519 4.50369 48.9519 9.17543L49.4519 9.17543ZM40.5702 0.674867C35.3979 0.674866 31.6885 4.22942 31.6885 9.17543L32.1885 9.17543C32.1885 4.52567 35.6535 1.17487 40.5702 1.17487L40.5702 0.674867ZM31.6885 9.17543C31.6885 14.0994 35.3984 17.6536 40.5702 17.6536L40.5702 17.1536C35.6531 17.1536 32.1885 13.8023 32.1885 9.17543L31.6885 9.17543ZM40.5702 13.1404C38.3353 13.1404 36.6725 11.4623 36.6725 9.17543L36.1725 9.17543C36.1725 11.7313 38.0521 13.6404 40.5702 13.6404L40.5702 13.1404ZM36.6725 9.17543C36.6725 6.86527 38.3362 5.18805 40.5702 5.18805L40.5702 4.68805C38.0512 4.68805 36.1725 6.59802 36.1725 9.17543L36.6725 9.17543ZM40.5702 5.18805C42.8249 5.18805 44.4455 6.84102 44.4455 9.17543L44.9455 9.17543C44.9455 6.57743 43.1134 4.68805 40.5702 4.68805L40.5702 5.18805ZM44.4455 9.17543C44.4455 11.4865 42.8258 13.1404 40.5702 13.1404L40.5702 13.6404C43.1126 13.6404 44.9455 11.7519 44.9455 9.17543L44.4455 9.17543ZM66.0803 1.30601L66.0803 1.05601L65.8303 1.05601L65.8303 1.30601L66.0803 1.30601ZM66.0803 9.55657L65.8785 9.7041L66.3303 10.3222L66.3303 9.55657L66.0803 9.55657ZM60.0493 1.30601L60.2512 1.15848L60.1763 1.05601L60.0493 1.05601L60.0493 1.30601ZM56.2604 1.30601L56.2604 1.05601L56.0104 1.05601L56.0104 1.30601L56.2604 1.30601ZM56.2604 17L56.0104 17L56.0104 17.25L56.2604 17.25L56.2604 17ZM60.4529 17L60.4529 17.25L60.7029 17.25L60.7029 17L60.4529 17ZM60.4529 8.50283L60.6545 8.35497L60.2029 7.73932L60.2029 8.50283L60.4529 8.50283ZM66.6857 17L66.4841 17.1479L66.559 17.25L66.6857 17.25L66.6857 17ZM70.2729 17L70.2729 17.25L70.5229 17.25L70.5229 17L70.2729 17ZM70.2729 1.30601L70.5229 1.30601L70.5229 1.05601L70.2729 1.05601L70.2729 1.30601ZM65.8303 1.30601L65.8303 9.55657L66.3303 9.55657L66.3303 1.30601L65.8303 1.30601ZM66.2821 9.40904L60.2512 1.15848L59.8475 1.45354L65.8785 9.7041L66.2821 9.40904ZM60.0493 1.05601L56.2604 1.05601L56.2604 1.55601L60.0493 1.55601L60.0493 1.05601ZM56.0104 1.30601L56.0104 17L56.5104 17L56.5104 1.30601L56.0104 1.30601ZM56.2604 17.25L60.4529 17.25L60.4529 16.75L56.2604 16.75L56.2604 17.25ZM60.7029 17L60.7029 8.50283L60.2029 8.50283L60.2029 17L60.7029 17ZM60.2513 8.65069L66.4841 17.1479L66.8872 16.8521L60.6545 8.35497L60.2513 8.65069ZM66.6857 17.25L70.2729 17.25L70.2729 16.75L66.6857 16.75L66.6857 17.25ZM70.5229 17L70.5229 1.30601L70.0229 1.30601L70.0229 17L70.5229 17ZM70.2729 1.05601L66.0803 1.05601L66.0803 1.55601L70.2729 1.55601L70.2729 1.05601ZM88.0104 17L87.7734 17.0797L87.8307 17.25L88.0104 17.25L88.0104 17ZM92.7859 17L92.7859 17.25L93.1556 17.25L93.0179 16.9069L92.7859 17ZM86.4859 1.30601L86.7179 1.21288L86.6549 1.05601L86.4859 1.05601L86.4859 1.30601ZM82.2485 1.30601L82.2485 1.05601L82.0781 1.05601L82.0158 1.2146L82.2485 1.30601ZM76.083 17L75.8503 16.9086L75.7162 17.25L76.083 17.25L76.083 17ZM80.7239 17L80.7239 17.25L80.9021 17.25L80.9602 17.0816L80.7239 17ZM81.5983 14.4666L81.5983 14.2166L81.4201 14.2166L81.362 14.385L81.5983 14.4666ZM87.1584 14.4666L87.3954 14.3869L87.3381 14.2166L87.1584 14.2166L87.1584 14.4666ZM86.1047 11.0811L86.1047 11.3311L86.4602 11.3311L86.34 10.9966L86.1047 11.0811ZM82.652 11.0811L82.4161 10.9985L82.2996 11.3311L82.652 11.3311L82.652 11.0811ZM84.356 6.21599L84.5912 6.13143L84.3529 5.4684L84.12 6.13336L84.356 6.21599ZM88.0104 17.25L92.7859 17.25L92.7859 16.75L88.0104 16.75L88.0104 17.25ZM93.0179 16.9069L86.7179 1.21288L86.2538 1.39915L92.5539 17.0931L93.0179 16.9069ZM86.4859 1.05601L82.2485 1.05601L82.2485 1.55601L86.4859 1.55601L86.4859 1.05601ZM82.0158 1.2146L75.8503 16.9086L76.3157 17.0914L82.4812 1.39743L82.0158 1.2146ZM76.083 17.25L80.7239 17.25L80.7239 16.75L76.083 16.75L76.083 17.25ZM80.9602 17.0816L81.8346 14.5481L81.362 14.385L80.4876 16.9185L80.9602 17.0816ZM81.5983 14.7166L87.1584 14.7166L87.1584 14.2166L81.5983 14.2166L81.5983 14.7166ZM86.9215 14.5462L87.7734 17.0797L88.2474 16.9203L87.3954 14.3869L86.9215 14.5462ZM86.1047 10.8311L82.652 10.8311L82.652 11.3311L86.1047 11.3311L86.1047 10.8311ZM82.888 11.1638L84.5919 6.29863L84.12 6.13336L82.4161 10.9985L82.888 11.1638ZM84.1207 6.30056L85.8694 11.1657L86.34 10.9966L84.5912 6.13143L84.1207 6.30056ZM102.977 13.0541L102.727 13.0541L102.727 13.3041L102.977 13.3041L102.977 13.0541ZM102.977 1.30602L103.227 1.30602L103.227 1.05602L102.977 1.05602L102.977 1.30602ZM98.5825 1.30602L98.5825 1.05602L98.3325 1.05602L98.3325 1.30602L98.5825 1.30602ZM98.5825 17L98.3325 17L98.3325 17.25L98.5825 17.25L98.5825 17ZM108.559 17L108.559 17.25L108.809 17.25L108.809 17L108.559 17ZM108.559 13.0541L108.809 13.0541L108.809 12.8041L108.559 12.8041L108.559 13.0541ZM103.227 13.0541L103.227 1.30602L102.727 1.30602L102.727 13.0541L103.227 13.0541ZM102.977 1.05602L98.5825 1.05602L98.5825 1.55602L102.977 1.55602L102.977 1.05602ZM98.3325 1.30602L98.3325 17L98.8325 17L98.8325 1.30602L98.3325 1.30602ZM98.5825 17.25L108.559 17.25L108.559 16.75L98.5825 16.75L98.5825 17.25ZM108.809 17L108.809 13.0541L108.309 13.0541L108.309 17L108.809 17ZM108.559 12.8041L102.977 12.8041L102.977 13.3041L108.559 13.3041L108.559 12.8041ZM130.964 7.24732L130.9 7.4892L130.903 7.48986L130.964 7.24732ZM131.457 6.08148L131.207 6.08148L131.207 6.33148L131.457 6.33148L131.457 6.08148ZM135.806 6.08148L135.806 6.33148L136.056 6.33148L136.056 6.08148L135.806 6.08148ZM129.058 10.6327L128.998 10.8754L129 10.8759L129.058 10.6327ZM128.161 11.9331L128.411 11.9331L128.411 11.6831L128.161 11.6831L128.161 11.9331ZM123.7 11.9331L123.7 11.6831L123.45 11.6831L123.45 11.9331L123.7 11.9331ZM130.022 17.6536C131.887 17.6536 133.516 17.1964 134.686 16.2743C135.863 15.3462 136.55 13.9655 136.55 12.1797L136.05 12.1797C136.05 13.8242 135.424 15.0554 134.376 15.8817C133.321 16.714 131.812 17.1536 130.022 17.1536L130.022 17.6536ZM136.55 12.1797C136.55 10.3098 135.754 9.14739 134.647 8.38912C133.562 7.64483 132.182 7.29431 131.024 7.00479L130.903 7.48986C132.077 7.78326 133.365 8.11655 134.365 8.80153C135.344 9.47254 136.05 10.4849 136.05 12.1797L136.55 12.1797ZM131.027 7.00546C130.287 6.81208 129.655 6.65033 129.204 6.43109C128.755 6.2136 128.568 5.98176 128.568 5.67792L128.068 5.67792C128.068 6.27088 128.475 6.63318 128.985 6.8809C129.492 7.12687 130.182 7.30143 130.9 7.48919L131.027 7.00546ZM128.568 5.67792C128.568 5.40703 128.697 5.21218 128.917 5.07392C129.146 4.92965 129.471 4.85176 129.82 4.85176L129.82 4.35176C129.407 4.35176 128.982 4.44202 128.65 4.65087C128.309 4.86572 128.068 5.20895 128.068 5.67792L128.568 5.67792ZM129.82 4.85176C130.228 4.85176 130.576 4.95913 130.816 5.15653C131.05 5.34819 131.207 5.6442 131.207 6.08148L131.707 6.08148C131.707 5.50987 131.494 5.06601 131.133 4.77004C130.78 4.47981 130.309 4.35176 129.82 4.35176L129.82 4.85176ZM131.457 6.33148L135.806 6.33148L135.806 5.83148L131.457 5.83148L131.457 6.33148ZM136.056 6.08148C136.056 4.41871 135.49 3.06147 134.412 2.12352C133.339 1.18961 131.788 0.697303 129.865 0.697302L129.865 1.1973C131.708 1.1973 133.128 1.66905 134.084 2.50072C135.035 3.32834 135.556 4.5382 135.556 6.08148L136.056 6.08148ZM129.865 0.697302C127.979 0.697302 126.426 1.14847 125.339 2.02504C124.245 2.90742 123.651 4.19886 123.651 5.81244L124.151 5.81244C124.151 4.33206 124.69 3.19094 125.653 2.41423C126.623 1.63172 128.052 1.1973 129.865 1.1973L129.865 0.697302ZM123.651 5.81244C123.651 7.67901 124.416 8.82038 125.489 9.55542C126.539 10.2752 127.876 10.5977 128.998 10.8754L129.118 10.3901C127.975 10.1072 126.734 9.80206 125.772 9.14297C124.832 8.49918 124.151 7.51065 124.151 5.81244L123.651 5.81244ZM129 10.8759C129.761 11.0577 130.414 11.2142 130.88 11.4405C131.337 11.6626 131.543 11.915 131.543 12.2694L132.043 12.2694C132.043 11.6374 131.633 11.2508 131.098 10.9908C130.572 10.7351 129.857 10.5665 129.116 10.3896L129 10.8759ZM131.543 12.2694C131.543 12.5982 131.378 12.8636 131.101 13.0562C130.819 13.2521 130.428 13.3646 130.022 13.3646L130.022 13.8646C130.512 13.8646 131.007 13.7305 131.387 13.4668C131.771 13.1997 132.043 12.7926 132.043 12.2694L131.543 12.2694ZM130.022 13.3646C129.573 13.3646 129.168 13.2368 128.88 13.0009C128.598 12.77 128.411 12.4217 128.411 11.9331L127.911 11.9331C127.911 12.5655 128.161 13.0579 128.563 13.3876C128.959 13.7121 129.484 13.8646 130.022 13.8646L130.022 13.3646ZM128.161 11.6831L123.7 11.6831L123.7 12.1831L128.161 12.1831L128.161 11.6831ZM123.45 11.9331C123.45 13.7132 124.098 15.1535 125.261 16.1449C126.419 17.1323 128.063 17.6536 130.022 17.6536L130.022 17.1536C128.147 17.1536 126.63 16.6548 125.585 15.7644C124.546 14.8782 123.95 13.5833 123.95 11.9331L123.45 11.9331ZM157.39 17L157.39 17.25L157.863 17.25L157.597 16.8594L157.39 17ZM151.897 8.92883L151.688 8.79129L151.596 8.93108L151.691 9.06948L151.897 8.92883ZM156.919 1.30603L157.128 1.44357L157.383 1.05603L156.919 1.05603L156.919 1.30603ZM151.897 1.30603L151.897 1.05603L151.759 1.05603L151.685 1.17353L151.897 1.30603ZM147.75 7.94235L147.5 7.94235L147.5 8.81404L147.962 8.07485L147.75 7.94235ZM147.75 1.30602L148 1.30602L148 1.05602L147.75 1.05602L147.75 1.30602ZM143.422 1.30602L143.422 1.05602L143.172 1.05602L143.172 1.30602L143.422 1.30602ZM143.422 17L143.172 17L143.172 17.25L143.422 17.25L143.422 17ZM147.75 17L147.75 17.25L148 17.25L148 17L147.75 17ZM147.75 10.0722L147.959 9.93593L147.5 9.22943L147.5 10.0722L147.75 10.0722ZM152.256 17L152.046 17.1363L152.12 17.25L152.256 17.25L152.256 17ZM157.597 16.8594L152.104 8.78817L151.691 9.06948L157.183 17.1407L157.597 16.8594ZM152.106 9.06637L157.128 1.44357L156.711 1.16849L151.688 8.79129L152.106 9.06637ZM156.919 1.05603L151.897 1.05603L151.897 1.55603L156.919 1.55603L156.919 1.05603ZM151.685 1.17353L147.538 7.80985L147.962 8.07485L152.109 1.43853L151.685 1.17353ZM148 7.94235L148 1.30602L147.5 1.30602L147.5 7.94235L148 7.94235ZM147.75 1.05602L143.422 1.05602L143.422 1.55602L147.75 1.55602L147.75 1.05602ZM143.172 1.30602L143.172 17L143.672 17L143.672 1.30602L143.172 1.30602ZM143.422 17.25L147.75 17.25L147.75 16.75L143.422 16.75L143.422 17.25ZM148 17L148 10.0722L147.5 10.0722L147.5 17L148 17ZM147.54 10.2086L152.046 17.1363L152.466 16.8637L147.959 9.93593L147.54 10.2086ZM152.256 17.25L157.39 17.25L157.39 16.75L152.256 16.75L152.256 17.25ZM163.04 17L162.79 17L162.79 17.25L163.04 17.25L163.04 17ZM167.434 17L167.434 17.25L167.684 17.25L167.684 17L167.434 17ZM167.434 1.30603L167.684 1.30603L167.684 1.05603L167.434 1.05603L167.434 1.30603ZM163.04 1.30603L163.04 1.05603L162.79 1.05603L162.79 1.30603L163.04 1.30603ZM163.04 17.25L167.434 17.25L167.434 16.75L163.04 16.75L163.04 17.25ZM167.684 17L167.684 1.30603L167.184 1.30603L167.184 17L167.684 17ZM167.434 1.05603L163.04 1.05603L163.04 1.55603L167.434 1.55603L167.434 1.05603ZM162.79 1.30603L162.79 17L163.29 17L163.29 1.30603L162.79 1.30603ZM179.717 13.0541L179.467 13.0541L179.467 13.3041L179.717 13.3041L179.717 13.0541ZM179.717 1.30603L179.967 1.30603L179.967 1.05603L179.717 1.05603L179.717 1.30603ZM175.323 1.30603L175.323 1.05603L175.073 1.05603L175.073 1.30603L175.323 1.30603ZM175.323 17L175.073 17L175.073 17.25L175.323 17.25L175.323 17ZM185.3 17L185.3 17.25L185.55 17.25L185.55 17L185.3 17ZM185.3 13.0541L185.55 13.0541L185.55 12.8041L185.3 12.8041L185.3 13.0541ZM179.967 13.0541L179.967 1.30603L179.467 1.30603L179.467 13.0541L179.967 13.0541ZM179.717 1.05603L175.323 1.05603L175.323 1.55603L179.717 1.55603L179.717 1.05603ZM175.073 1.30603L175.073 17L175.573 17L175.573 1.30603L175.073 1.30603ZM175.323 17.25L185.3 17.25L185.3 16.75L175.323 16.75L175.323 17.25ZM185.55 17L185.55 13.0541L185.05 13.0541L185.05 17L185.55 17ZM185.3 12.8041L179.717 12.8041L179.717 13.3041L185.3 13.3041L185.3 12.8041ZM195.875 13.0541L195.625 13.0541L195.625 13.3041L195.875 13.3041L195.875 13.0541ZM195.875 1.30603L196.125 1.30603L196.125 1.05603L195.875 1.05603L195.875 1.30603ZM191.481 1.30603L191.481 1.05603L191.231 1.05603L191.231 1.30603L191.481 1.30603ZM191.481 17L191.231 17L191.231 17.25L191.481 17.25L191.481 17ZM201.458 17L201.458 17.25L201.708 17.25L201.708 17L201.458 17ZM201.458 13.0541L201.708 13.0541L201.708 12.8041L201.458 12.8041L201.458 13.0541ZM196.125 13.0541L196.125 1.30603L195.625 1.30603L195.625 13.0541L196.125 13.0541ZM195.875 1.05603L191.481 1.05603L191.481 1.55603L195.875 1.55603L195.875 1.05603ZM191.231 1.30603L191.231 17L191.731 17L191.731 1.30603L191.231 1.30603ZM191.481 17.25L201.458 17.25L201.458 16.75L191.481 16.75L191.481 17.25ZM201.708 17L201.708 13.0541L201.208 13.0541L201.208 17L201.708 17ZM201.458 12.8041L195.875 12.8041L195.875 13.3041L201.458 13.3041L201.458 12.8041ZM207.348 12.6954L207.098 12.6954L207.098 12.9454L207.348 12.9454L207.348 12.6954ZM218.827 12.6954L218.827 12.9454L219.077 12.9454L219.077 12.6954L218.827 12.6954ZM218.827 8.90642L219.077 8.90642L219.077 8.65642L218.827 8.65642L218.827 8.90642ZM207.348 8.90642L207.348 8.65642L207.098 8.65642L207.098 8.90642L207.348 8.90642ZM207.348 12.9454L218.827 12.9454L218.827 12.4454L207.348 12.4454L207.348 12.9454ZM219.077 12.6954L219.077 8.90642L218.577 8.90642L218.577 12.6954L219.077 12.6954ZM218.827 8.65642L207.348 8.65642L207.348 9.15642L218.827 9.15642L218.827 8.65642ZM207.098 8.90642L207.098 12.6954L207.598 12.6954L207.598 8.90642L207.098 8.90642Z" fill="black"/>
</svg>
