<svg width="103" height="18" viewBox="0 0 103 18" fill="none" xmlns="http://www.w3.org/2000/svg">
<path d="M88.5361 4.71289L88.6165 4.77246L88.6168 4.77203L88.5361 4.71289ZM87.6865 5.35254L87.6503 5.25934L87.3949 5.35867L87.6542 5.44718L87.6865 5.35254ZM88.4238 8.56543L88.489 8.64131L88.4893 8.64102L88.4238 8.56543ZM85.1328 8.56543L85.0674 8.64106L85.0677 8.64131L85.1328 8.56543ZM85.8506 5.35254L85.8827 5.44726L86.1432 5.35904L85.8868 5.25934L85.8506 5.35254ZM85.0107 4.71289L84.9292 4.77084L84.9296 4.77127L85.0107 4.71289ZM85.2646 2.31543L85.1972 2.24164L85.1968 2.24193L85.2646 2.31543ZM88.2822 2.32031L88.2144 2.39379L88.2147 2.39408L88.2822 2.32031ZM87.9844 6.03125L87.9172 6.10531L87.9176 6.10569L87.9844 6.03125ZM85.5527 8.2041L85.4861 8.27871L85.4866 8.27911L85.5527 8.2041ZM87.8477 2.70117L87.7778 2.77271L87.7786 2.77353L87.8477 2.70117ZM85.6943 2.68652L85.7633 2.75894L85.7633 2.75892L85.6943 2.68652ZM85.6943 4.72266L85.6263 4.79594L85.6267 4.79634L85.6943 4.72266ZM87.8525 4.72266L87.9202 4.79634L87.9202 4.7963L87.8525 4.72266ZM88.7584 3.72168C88.7584 4.06853 88.6576 4.37817 88.4555 4.65375L88.6168 4.77203C88.8444 4.46168 88.9584 4.1105 88.9584 3.72168H88.7584ZM88.4558 4.65332C88.2527 4.92718 87.9851 5.12912 87.6503 5.25934L87.7228 5.44574C88.0911 5.30252 88.3899 5.07802 88.6165 4.77246L88.4558 4.65332ZM87.6542 5.44718C88.0479 5.58151 88.36 5.79719 88.5944 6.09332L88.7513 5.96918C88.4909 5.64031 88.1455 5.40351 87.7188 5.2579L87.6542 5.44718ZM88.5944 6.09332C88.8274 6.38761 88.9439 6.7269 88.9439 7.11523H89.1439C89.1439 6.68325 89.0131 6.29989 88.7513 5.96918L88.5944 6.09332ZM88.9439 7.11523C88.9439 7.69862 88.7472 8.15304 88.3584 8.48984L88.4893 8.64102C88.9273 8.26167 89.1439 7.74929 89.1439 7.11523H88.9439ZM88.3587 8.48955C87.9676 8.82522 87.4458 8.99766 86.7832 8.99766V9.19766C87.4813 9.19766 88.0532 9.01527 88.489 8.64131L88.3587 8.48955ZM86.7832 8.99766C86.1138 8.99766 85.5889 8.82508 85.1979 8.48955L85.0677 8.64131C85.5036 9.01542 86.0789 9.19766 86.7832 9.19766V8.99766ZM85.1982 8.4898C84.813 8.15654 84.6176 7.70234 84.6176 7.11523H84.4176C84.4176 7.75208 84.6323 8.26468 85.0674 8.64106L85.1982 8.4898ZM84.6176 7.11523C84.6176 6.73278 84.7296 6.39429 84.9539 6.09626L84.7941 5.976C84.5431 6.30949 84.4176 6.6904 84.4176 7.11523H84.6176ZM84.9539 6.09626C85.1782 5.79826 85.4862 5.58148 85.8827 5.44726L85.8185 5.25782C85.3881 5.40355 85.0451 5.6425 84.7941 5.976L84.9539 6.09626ZM85.8868 5.25934C85.5522 5.12921 85.2883 4.9276 85.0919 4.65451L84.9296 4.77127C85.1498 5.07761 85.4458 5.30243 85.8143 5.44574L85.8868 5.25934ZM85.0922 4.65494C84.8962 4.37931 84.7982 4.06926 84.7982 3.72168H84.5982C84.5982 4.10977 84.7086 4.46053 84.9292 4.77084L85.0922 4.65494ZM84.7982 3.72168C84.7982 3.1559 84.9785 2.71545 85.3325 2.38893L85.1968 2.24193C84.7956 2.61202 84.5982 3.10908 84.5982 3.72168H84.7982ZM85.3321 2.38922C85.6908 2.06118 86.1679 1.89297 86.7734 1.89297V1.69297C86.129 1.69297 85.6002 1.87307 85.1972 2.24164L85.3321 2.38922ZM86.7734 1.89297C87.3788 1.89297 87.8557 2.06266 88.2144 2.39379L88.3501 2.24683C87.9471 1.87484 87.4181 1.69297 86.7734 1.69297V1.89297ZM88.2147 2.39408C88.5755 2.72434 88.7584 3.16335 88.7584 3.72168H88.9584C88.9584 3.11464 88.7571 2.61941 88.3497 2.24655L88.2147 2.39408ZM88.558 7.12012C88.558 6.65041 88.3891 6.2599 88.0511 5.95681L87.9176 6.10569C88.2112 6.36901 88.358 6.70441 88.358 7.12012H88.558ZM88.0516 5.95719C87.7146 5.6515 87.2858 5.50156 86.7734 5.50156V5.70156C87.2442 5.70156 87.6226 5.83808 87.9172 6.10531L88.0516 5.95719ZM86.7734 5.50156C86.2618 5.50156 85.8346 5.64786 85.5007 5.947L85.6341 6.09597C85.9252 5.83521 86.302 5.70156 86.7734 5.70156V5.50156ZM85.5007 5.947C85.1652 6.24753 84.9986 6.64172 84.9986 7.12012H85.1986C85.1986 6.69356 85.3446 6.35533 85.6341 6.09597L85.5007 5.947ZM84.9986 7.12012C84.9986 7.59743 85.1596 7.98725 85.4861 8.27871L85.6193 8.12949C85.3404 7.88059 85.1986 7.54775 85.1986 7.12012H84.9986ZM85.4866 8.27911C85.8123 8.56627 86.2483 8.70449 86.7832 8.70449V8.50449C86.2829 8.50449 85.8987 8.37578 85.6189 8.12909L85.4866 8.27911ZM86.7832 8.70449C87.3058 8.70449 87.7364 8.56586 88.0648 8.27946L87.9333 8.12874C87.6496 8.3762 87.2697 8.50449 86.7832 8.50449V8.70449ZM88.0648 8.27946C88.3953 7.99109 88.558 7.60079 88.558 7.12012H88.358C88.358 7.55091 88.2147 7.88326 87.9333 8.12874L88.0648 8.27946ZM88.3725 3.7168C88.3725 3.28377 88.2205 2.91869 87.9167 2.62882L87.7786 2.77353C88.0412 3.02401 88.1725 3.33602 88.1725 3.7168H88.3725ZM87.9175 2.62963C87.6167 2.33579 87.2325 2.19102 86.7734 2.19102V2.39102C87.1868 2.39102 87.5187 2.51968 87.7778 2.77271L87.9175 2.62963ZM86.7734 2.19102C86.3094 2.19102 85.9236 2.32994 85.6253 2.61413L85.7633 2.75892C86.0185 2.51577 86.352 2.39102 86.7734 2.39102V2.19102ZM85.6254 2.61411C85.3295 2.89592 85.1842 3.26689 85.1842 3.7168L85.3842 3.7168C85.3842 3.31384 85.5123 2.99796 85.7633 2.75894L85.6254 2.61411ZM85.1842 3.7168C85.1842 4.15768 85.33 4.5208 85.6263 4.79594L85.7624 4.64938C85.5118 4.4167 85.3842 4.10925 85.3842 3.7168L85.1842 3.7168ZM85.6267 4.79634C85.9252 5.07026 86.3123 5.20352 86.7783 5.20352V5.00352C86.3524 5.00352 86.0168 4.88287 85.7619 4.64898L85.6267 4.79634ZM86.7783 5.20352C87.2383 5.20352 87.6219 5.07001 87.9202 4.79634L87.7849 4.64898C87.5298 4.88312 87.1973 5.00352 86.7783 5.00352V5.20352ZM87.9202 4.7963C88.2227 4.51842 88.3725 4.15546 88.3725 3.7168H88.1725C88.1725 4.10495 88.0423 4.41256 87.7849 4.64901L87.9202 4.7963ZM93.9512 8.32129L94.0327 8.37922L94.0329 8.37898L93.9512 8.32129ZM90.709 8.33594L90.6283 8.39503L90.6285 8.39528L90.709 8.33594ZM90.1328 6.10937H90.0328L90.0328 6.11038L90.1328 6.10937ZM93.9268 2.54004L93.8466 2.59979L93.8468 2.60004L93.9268 2.54004ZM94.5029 4.73242L94.6029 4.73242L94.6029 4.73108L94.5029 4.73242ZM93.5166 2.91602L93.4321 2.96949L93.4324 2.96996L93.5166 2.91602ZM90.7139 4.70312L90.6139 4.70231V4.70312H90.7139ZM91.124 7.95996L91.0397 8.01365L91.0399 8.0141L91.124 7.95996ZM93.5068 7.97461L93.4227 7.9205L93.4224 7.92096L93.5068 7.97461ZM93.917 6.12891L94.017 6.12931V6.12891H93.917ZM94.4029 6.03613C94.4029 7.02903 94.2204 7.7668 93.8695 8.2636L94.0329 8.37898C94.4177 7.83411 94.6029 7.04844 94.6029 6.03613H94.4029ZM93.8697 8.26336C93.5232 8.75087 93.0138 8.99766 92.3252 8.99766V9.19766C93.0689 9.19766 93.6435 8.92687 94.0327 8.37922L93.8697 8.26336ZM92.3252 8.99766C91.6496 8.99766 91.1426 8.75564 90.7895 8.2766L90.6285 8.39528C91.024 8.93186 91.5945 9.19766 92.3252 9.19766V8.99766ZM90.7897 8.27685C90.4327 7.7895 90.2425 7.07128 90.2328 6.10837L90.0328 6.11038C90.0427 7.09409 90.2366 7.86024 90.6283 8.39503L90.7897 8.27685ZM90.2328 6.10937V4.83496H90.0328V6.10937H90.2328ZM90.2328 4.83496C90.2328 3.8454 90.417 3.11298 90.7705 2.62296L90.6084 2.50594C90.2197 3.04457 90.0328 3.82583 90.0328 4.83496H90.2328ZM90.7705 2.62296C91.1203 2.13822 91.6301 1.89297 92.3154 1.89297V1.69297C91.575 1.69297 91.0008 1.96204 90.6084 2.50594L90.7705 2.62296ZM92.3154 1.89297C92.9917 1.89297 93.497 2.13067 93.8466 2.59979L94.0069 2.48029C93.6143 1.95331 93.0454 1.69297 92.3154 1.69297V1.89297ZM93.8468 2.60004C94.1998 3.07076 94.3901 3.77703 94.4029 4.73377L94.6029 4.73108C94.5898 3.75422 94.3959 2.99891 94.0068 2.48004L93.8468 2.60004ZM94.4029 4.73242V6.03613H94.6029V4.73242H94.4029ZM94.017 4.76172C94.017 3.93989 93.8827 3.30216 93.6008 2.86207L93.4324 2.96996C93.6843 3.36321 93.817 3.95594 93.817 4.76172H94.017ZM93.6011 2.86254C93.3172 2.41395 92.8832 2.19102 92.3154 2.19102V2.39102C92.8219 2.39102 93.1886 2.58475 93.4321 2.96949L93.6011 2.86254ZM92.3154 2.19102C91.7577 2.19102 91.3276 2.40875 91.0404 2.84652L91.2076 2.95622C91.4543 2.58018 91.8184 2.39102 92.3154 2.39102V2.19102ZM91.0404 2.84652C90.7582 3.27669 90.6204 3.8998 90.6139 4.70231L90.8139 4.70394C90.8203 3.91791 90.956 3.33985 91.2076 2.95622L91.0404 2.84652ZM90.6139 4.70312V6.09961H90.8139V4.70312H90.6139ZM90.6139 6.09961C90.6139 6.91892 90.7516 7.56103 91.0397 8.01365L91.2084 7.90627C90.9495 7.49951 90.8139 6.9014 90.8139 6.09961H90.6139ZM91.0399 8.0141C91.3356 8.47324 91.7682 8.70449 92.3252 8.70449V8.50449C91.8341 8.50449 91.4658 8.30605 91.2081 7.90582L91.0399 8.0141ZM92.3252 8.70449C92.8783 8.70449 93.3049 8.47864 93.5912 8.02825L93.4224 7.92096C93.1749 8.31043 92.8138 8.50449 92.3252 8.50449V8.70449ZM93.5909 8.02872C93.876 7.58566 94.0137 6.94816 94.017 6.12931L93.817 6.1285C93.8138 6.93074 93.678 7.52372 93.4227 7.9205L93.5909 8.02872ZM94.017 6.12891V4.76172H93.817V6.12891H94.017ZM96.0166 2.20801L95.9438 2.13944L95.9438 2.13947L96.0166 2.20801ZM98.0137 2.20801L97.9404 2.27612L97.9413 2.27699L98.0137 2.20801ZM98.0186 4.67871L97.9453 4.6106L97.9453 4.61063L98.0186 4.67871ZM96.3486 4.38086L96.2724 4.44563L96.2731 4.44635L96.3486 4.38086ZM97.6865 4.38086L97.6098 4.31672L97.6097 4.31684L97.6865 4.38086ZM97.6816 2.51074L97.6055 2.57562L97.6061 2.57624L97.6816 2.51074ZM96.3535 2.50586L96.2786 2.43965L96.2779 2.44037L96.3535 2.50586ZM99.5957 6.20703L99.5233 6.13804L99.5229 6.13849L99.5957 6.20703ZM101.588 6.20703L101.515 6.27602L101.516 6.27688L101.588 6.20703ZM101.593 8.6875L101.52 8.61851L101.52 8.61896L101.593 8.6875ZM99.6006 8.69238L99.5282 8.76137L99.529 8.76224L99.6006 8.69238ZM99.9229 8.38965L99.8467 8.45442L99.8473 8.45514L99.9229 8.38965ZM101.266 8.38965L101.189 8.32551L101.189 8.32563L101.266 8.38965ZM101.261 6.50488L101.185 6.57029L101.186 6.57164L101.261 6.50488ZM99.9277 6.50488L99.8527 6.43876L99.9277 6.50488ZM97.2129 8.40918L97.159 8.49341L97.2441 8.5479L97.2977 8.46217L97.2129 8.40918ZM96.8467 8.1748L96.7619 8.12182L96.7095 8.20571L96.7928 8.25903L96.8467 8.1748ZM100.318 2.61816L100.372 2.53394L100.287 2.47944L100.234 2.56518L100.318 2.61816ZM100.685 2.85254L100.769 2.90553L100.822 2.82163L100.738 2.76831L100.685 2.85254ZM95.726 3.25781C95.726 2.85697 95.8485 2.53252 96.0894 2.27654L95.9438 2.13947C95.6639 2.43688 95.526 2.8123 95.526 3.25781H95.726ZM96.0894 2.27657C96.3331 2.01778 96.64 1.88809 97.0176 1.88809V1.68809C96.5879 1.68809 96.2274 1.83834 95.9438 2.13944L96.0894 2.27657ZM97.0176 1.88809C97.3952 1.88809 97.7001 2.01775 97.9405 2.27612L98.0869 2.1399C97.8064 1.83837 97.4473 1.68809 97.0176 1.68809V1.88809ZM97.9413 2.27699C98.1844 2.53215 98.3092 2.86572 98.3092 3.28711H98.5092C98.5092 2.82308 98.3703 2.43725 98.0861 2.13902L97.9413 2.27699ZM98.3092 3.28711V3.63379H98.5092V3.28711H98.3092ZM98.3092 3.63379C98.3092 4.02766 98.1869 4.35089 97.9453 4.6106L98.0918 4.74682C98.371 4.44664 98.5092 4.07326 98.5092 3.63379H98.3092ZM97.9453 4.61063C97.7085 4.86546 97.4053 4.99375 97.0273 4.99375V5.19375C97.4566 5.19375 97.8143 5.04535 98.0918 4.74679L97.9453 4.61063ZM97.0273 4.99375C96.6525 4.99375 96.3451 4.86689 96.0979 4.61374L95.9548 4.75345C96.2415 5.04717 96.6015 5.19375 97.0273 5.19375V4.99375ZM96.0979 4.61374C95.8524 4.36223 95.726 4.02764 95.726 3.59961H95.526C95.526 4.07001 95.6665 4.45808 95.9548 4.75345L96.0979 4.61374ZM95.726 3.59961V3.25781H95.526V3.59961H95.726ZM95.9996 3.63379C95.9996 3.95574 96.0884 4.22907 96.2724 4.44562L96.4248 4.31609C96.2769 4.14203 96.1996 3.91731 96.1996 3.63379H95.9996ZM96.2731 4.44635C96.4633 4.66584 96.7183 4.77383 97.0273 4.77383V4.57383C96.77 4.57383 96.5725 4.48651 96.4242 4.31537L96.2731 4.44635ZM97.0273 4.77383C97.3307 4.77383 97.5798 4.66518 97.7633 4.44488L97.6097 4.31684C97.4678 4.48716 97.2773 4.57383 97.0273 4.57383V4.77383ZM97.7632 4.445C97.9473 4.22491 98.0355 3.94515 98.0355 3.61426H97.8355C97.8355 3.90837 97.7578 4.13967 97.6098 4.31672L97.7632 4.445ZM98.0355 3.61426V3.25781H97.8355V3.61426H98.0355ZM98.0355 3.25781C98.0355 2.93537 97.9449 2.66178 97.7572 2.44525L97.6061 2.57624C97.757 2.75033 97.8355 2.97479 97.8355 3.25781H98.0355ZM97.7577 2.44587C97.5685 2.22382 97.3187 2.11289 97.0176 2.11289V2.31289C97.2633 2.31289 97.4563 2.40053 97.6055 2.57562L97.7577 2.44587ZM97.0176 2.11289C96.7199 2.11289 96.4709 2.22197 96.2786 2.43966L96.4285 2.57206C96.5812 2.39912 96.7749 2.31289 97.0176 2.31289V2.11289ZM96.2779 2.44037C96.0892 2.6582 95.9996 2.94397 95.9996 3.28711H96.1996C96.1996 2.97921 96.2793 2.74415 96.4291 2.57135L96.2779 2.44037ZM95.9996 3.28711V3.63379H96.1996V3.28711H95.9996ZM99.3051 7.25684C99.3051 6.85599 99.4276 6.53154 99.6685 6.27557L99.5229 6.13849C99.243 6.43591 99.1051 6.81133 99.1051 7.25684H99.3051ZM99.6681 6.27602C99.9119 6.02016 100.217 5.89199 100.592 5.89199V5.69199C100.166 5.69199 99.8068 5.84051 99.5233 6.13804L99.6681 6.27602ZM100.592 5.89199C100.966 5.89199 101.272 6.02016 101.515 6.27602L101.66 6.13804C101.377 5.84051 101.018 5.69199 100.592 5.69199V5.89199ZM101.516 6.27688C101.762 6.5284 101.888 6.86298 101.888 7.29102H102.088C102.088 6.82061 101.948 6.43254 101.659 6.13718L101.516 6.27688ZM101.888 7.29102V7.6377H102.088V7.29102H101.888ZM101.888 7.6377C101.888 8.03818 101.764 8.36248 101.52 8.61851L101.665 8.75649C101.949 8.45914 102.088 8.08356 102.088 7.6377H101.888ZM101.52 8.61896C101.28 8.8744 100.976 9.00254 100.602 9.00254V9.20254C101.028 9.20254 101.385 9.05399 101.666 8.75604L101.52 8.61896ZM100.602 9.00254C100.227 9.00254 99.9193 8.87568 99.6721 8.62253L99.529 8.76224C99.8158 9.05596 100.176 9.20254 100.602 9.20254V9.00254ZM99.673 8.6234C99.4298 8.36824 99.3051 8.03467 99.3051 7.61328H99.1051C99.1051 8.07731 99.244 8.46314 99.5282 8.76137L99.673 8.6234ZM99.3051 7.61328V7.25684H99.1051V7.61328H99.3051ZM99.5738 7.6377C99.5738 7.9626 99.6624 8.23766 99.8467 8.45441L99.999 8.32488C99.8513 8.15101 99.7738 7.92477 99.7738 7.6377H99.5738ZM99.8473 8.45514C100.038 8.67463 100.292 8.78262 100.602 8.78262V8.58262C100.344 8.58262 100.147 8.49529 99.9984 8.32416L99.8473 8.45514ZM100.602 8.78262C100.908 8.78262 101.159 8.67427 101.342 8.45367L101.189 8.32563C101.047 8.49566 100.855 8.58262 100.602 8.58262V8.78262ZM101.342 8.45379C101.527 8.23334 101.615 7.9501 101.615 7.61328H101.415C101.415 7.91448 101.337 8.14883 101.189 8.32551L101.342 8.45379ZM101.615 7.61328V7.25684H101.415V7.61328H101.615ZM101.615 7.25684C101.615 6.92568 101.525 6.64929 101.335 6.43813L101.186 6.57164C101.336 6.73808 101.415 6.963 101.415 7.25684H101.615ZM101.336 6.43949C101.149 6.22304 100.897 6.1168 100.592 6.1168V6.3168C100.846 6.3168 101.04 6.40261 101.185 6.57028L101.336 6.43949ZM100.592 6.1168C100.292 6.1168 100.042 6.22356 99.8527 6.43876L100.003 6.571C100.152 6.40209 100.345 6.3168 100.592 6.3168V6.1168ZM99.8527 6.43876C99.6635 6.65344 99.5738 6.93627 99.5738 7.27637H99.7738C99.7738 6.97193 99.8534 6.74044 100.003 6.571L99.8527 6.43876ZM99.5738 7.27637V7.6377H99.7738V7.27637H99.5738ZM97.2668 8.32495L96.9006 8.09058L96.7928 8.25903L97.159 8.49341L97.2668 8.32495ZM96.9315 8.22779L100.403 2.67115L100.234 2.56518L96.7619 8.12182L96.9315 8.22779ZM100.264 2.70239L100.631 2.93677L100.738 2.76831L100.372 2.53394L100.264 2.70239ZM100.6 2.79955L97.1281 8.35619L97.2977 8.46217L100.769 2.90553L100.6 2.79955Z" fill="#0000FF"/>
<rect y="9" width="102" height="9" fill="#0000FF"/>
</svg>
