<svg width="53" height="105" viewBox="0 0 53 105" fill="none" xmlns="http://www.w3.org/2000/svg">
<path d="M26.0847 0.666992C13.4479 0.666992 3.97916 9.23504 0.49615 12.9173C-0.165383 13.6187 -0.165383 14.7146 0.49615 15.416C3.97916 19.0983 13.4479 27.6663 26.0847 27.6663C38.7256 27.6663 48.1903 19.0983 51.6733 15.416C52.3349 14.7146 52.3349 13.6187 51.6733 12.9173C48.1903 9.23105 38.7216 0.666992 26.0847 0.666992ZM14.4282 7.07907C13.1888 9.21909 12.4914 11.7218 12.4914 14.3599C12.4914 16.7789 13.0732 19.0823 14.1333 21.1068C9.86123 19.0146 6.50176 16.217 4.37369 14.1647C6.54958 12.0685 10.0166 9.18721 14.4282 7.07907ZM21.4181 23.5815C18.1503 21.7962 16.1299 18.2813 16.1299 14.3639C16.1299 9.8886 18.7879 5.9513 22.7571 4.53657C23.8371 4.38912 24.949 4.30543 26.0887 4.30543C26.9376 4.30543 27.7744 4.35326 28.5914 4.43694C32.6722 5.7361 35.5176 9.80492 35.5176 14.3639C35.5176 18.353 33.3536 21.9954 29.9822 23.717C28.7229 23.9163 27.4237 24.0319 26.0847 24.0319C24.4707 24.0279 22.9126 23.8645 21.4181 23.5815ZM37.3029 21.4575C38.4905 19.3453 39.152 16.9064 39.152 14.3639C39.152 11.6221 38.4108 9.00789 37 6.74034C41.7623 8.86841 45.4963 11.9529 47.7918 14.1686C45.5482 16.3326 41.9217 19.3334 37.3029 21.4575Z" fill="#0000FF"/>
<path d="M30.4326 14.3598C27.886 14.3598 25.8217 12.2954 25.8217 9.75293C23.2752 9.75293 21.2109 11.8172 21.2109 14.3598C21.2109 16.9023 23.2752 18.9666 25.8217 18.9666C28.3682 18.9666 30.4326 16.9023 30.4326 14.3598Z" fill="#0000FF"/>
<path d="M26.0847 39.334C13.4479 39.334 3.97916 47.902 0.49615 51.5843C-0.165383 52.2857 -0.165383 53.3816 0.49615 54.083C3.97916 57.7653 13.4479 66.3333 26.0847 66.3333C38.7256 66.3333 48.1903 57.7653 51.6733 54.083C52.3349 53.3816 52.3349 52.2857 51.6733 51.5843C48.1903 47.898 38.7216 39.334 26.0847 39.334ZM14.4282 45.7461C13.1888 47.8861 12.4914 50.3888 12.4914 53.0269C12.4914 55.4459 13.0732 57.7493 14.1333 59.7738C9.86123 57.6816 6.50176 54.884 4.37369 52.8317C6.54958 50.7355 10.0166 47.8542 14.4282 45.7461ZM21.4181 62.2485C18.1503 60.4632 16.1299 56.9483 16.1299 53.0309C16.1299 48.5556 18.7879 44.6183 22.7571 43.2036C23.8371 43.0561 24.949 42.9724 26.0887 42.9724C26.9376 42.9724 27.7744 43.0202 28.5914 43.1039C32.6722 44.4031 35.5176 48.4719 35.5176 53.0309C35.5176 57.02 33.3536 60.6624 29.9822 62.384C28.7229 62.5833 27.4237 62.6989 26.0847 62.6989C24.4707 62.6949 22.9126 62.5315 21.4181 62.2485ZM37.3029 60.1245C38.4905 58.0123 39.152 55.5734 39.152 53.0309C39.152 50.2891 38.4108 47.6749 37 45.4073C41.7623 47.5354 45.4963 50.6199 47.7918 52.8356C45.5482 54.9996 41.9217 58.0004 37.3029 60.1245Z" fill="#0000FF"/>
<path d="M30.4326 53.0267C27.886 53.0267 25.8217 50.9624 25.8217 48.4199C23.2752 48.4199 21.2109 50.4842 21.2109 53.0267C21.2109 55.5693 23.2752 57.6336 25.8217 57.6336C28.3682 57.6336 30.4326 55.5693 30.4326 53.0267Z" fill="#0000FF"/>
<path d="M26.0847 78.001C13.4479 78.001 3.97916 86.569 0.49615 90.2513C-0.165383 90.9527 -0.165383 92.0486 0.49615 92.75C3.97916 96.4323 13.4479 105 26.0847 105C38.7256 105 48.1903 96.4323 51.6733 92.75C52.3349 92.0486 52.3349 90.9527 51.6733 90.2513C48.1903 86.565 38.7216 78.001 26.0847 78.001ZM14.4282 84.4131C13.1888 86.5531 12.4914 89.0557 12.4914 91.6939C12.4914 94.1129 13.0732 96.4163 14.1333 98.4408C9.86123 96.3486 6.50176 93.551 4.37369 91.4986C6.54958 89.4025 10.0166 86.5212 14.4282 84.4131ZM21.4181 100.916C18.1503 99.1302 16.1299 95.6153 16.1299 91.6979C16.1299 87.2226 18.7879 83.2853 22.7571 81.8706C23.8371 81.7231 24.949 81.6394 26.0887 81.6394C26.9376 81.6394 27.7744 81.6872 28.5914 81.7709C32.6722 83.0701 35.5176 87.1389 35.5176 91.6979C35.5176 95.687 33.3536 99.3294 29.9822 101.051C28.7229 101.25 27.4237 101.366 26.0847 101.366C24.4707 101.362 22.9126 101.198 21.4181 100.916ZM37.3029 98.7914C38.4905 96.6793 39.152 94.2404 39.152 91.6979C39.152 88.9561 38.4108 86.3419 37 84.0743C41.7623 86.2024 45.4963 89.2869 47.7918 91.5026C45.5482 93.6666 41.9217 96.6674 37.3029 98.7914Z" fill="#0000FF"/>
<path d="M30.4326 91.6937C27.886 91.6937 25.8217 89.6294 25.8217 87.0869C23.2752 87.0869 21.2109 89.1512 21.2109 91.6937C21.2109 94.2363 23.2752 96.3006 25.8217 96.3006C28.3682 96.3006 30.4326 94.2363 30.4326 91.6937Z" fill="#0000FF"/>
</svg>
