<svg width="53" height="27" viewBox="0 0 53 27" fill="none" xmlns="http://www.w3.org/2000/svg">
<path d="M26.0847 0C13.4479 0 3.97916 8.56805 0.49615 12.2503C-0.165383 12.9517 -0.165383 14.0476 0.49615 14.749C3.97916 18.4313 13.4479 26.9993 26.0847 26.9993C38.7256 26.9993 48.1903 18.4313 51.6733 14.749C52.3349 14.0476 52.3349 12.9517 51.6733 12.2503C48.1903 8.56406 38.7216 0 26.0847 0ZM14.4282 6.41208C13.1888 8.5521 12.4914 11.0548 12.4914 13.6929C12.4914 16.1119 13.0732 18.4153 14.1333 20.4398C9.86123 18.3476 6.50176 15.55 4.37369 13.4977C6.54958 11.4015 10.0166 8.52022 14.4282 6.41208ZM21.4181 22.9146C18.1503 21.1292 16.1299 17.6143 16.1299 13.6969C16.1299 9.22161 18.7879 5.2843 22.7571 3.86958C23.8371 3.72213 24.949 3.63843 26.0887 3.63843C26.9376 3.63843 27.7744 3.68626 28.5914 3.76995C32.6722 5.06911 35.5176 9.13792 35.5176 13.6969C35.5176 17.686 33.3536 21.3285 29.9822 23.05C28.7229 23.2493 27.4237 23.3649 26.0847 23.3649C24.4707 23.3609 22.9126 23.1975 21.4181 22.9146ZM37.3029 20.7905C38.4905 18.6783 39.152 16.2394 39.152 13.6969C39.152 10.9551 38.4108 8.34089 37 6.07335C41.7623 8.20141 45.4963 11.2859 47.7918 13.5017C45.5482 15.6656 41.9217 18.6664 37.3029 20.7905Z" fill="#00FF00"/>
<path d="M30.4326 13.6928C27.886 13.6928 25.8217 11.6285 25.8217 9.08594C23.2752 9.08594 21.2109 11.1502 21.2109 13.6928C21.2109 16.2353 23.2752 18.2996 25.8217 18.2996C28.3682 18.2996 30.4326 16.2353 30.4326 13.6928Z" fill="#00FF00"/>
</svg>
