<svg width="53" height="105" viewBox="0 0 53 105" fill="none" xmlns="http://www.w3.org/2000/svg">
<path d="M26.0847 0C13.4479 0 3.97916 8.56805 0.49615 12.2503C-0.165383 12.9517 -0.165383 14.0476 0.49615 14.749C3.97916 18.4313 13.4479 26.9993 26.0847 26.9993C38.7256 26.9993 48.1903 18.4313 51.6733 14.749C52.3349 14.0476 52.3349 12.9517 51.6733 12.2503C48.1903 8.56406 38.7216 0 26.0847 0ZM14.4282 6.41208C13.1888 8.5521 12.4914 11.0548 12.4914 13.6929C12.4914 16.1119 13.0732 18.4153 14.1333 20.4398C9.86123 18.3476 6.50176 15.55 4.37369 13.4977C6.54958 11.4015 10.0166 8.52022 14.4282 6.41208ZM21.4181 22.9146C18.1503 21.1292 16.1299 17.6143 16.1299 13.6969C16.1299 9.22161 18.7879 5.2843 22.7571 3.86958C23.8371 3.72213 24.949 3.63843 26.0887 3.63843C26.9376 3.63843 27.7744 3.68626 28.5914 3.76995C32.6722 5.06911 35.5176 9.13792 35.5176 13.6969C35.5176 17.686 33.3536 21.3285 29.9822 23.05C28.7229 23.2493 27.4237 23.3649 26.0847 23.3649C24.4707 23.3609 22.9126 23.1975 21.4181 22.9146ZM37.3029 20.7905C38.4905 18.6783 39.152 16.2394 39.152 13.6969C39.152 10.9551 38.4108 8.34089 37 6.07335C41.7623 8.20141 45.4963 11.2859 47.7918 13.5017C45.5482 15.6656 41.9217 18.6664 37.3029 20.7905Z" fill="#0000FF"/>
<path d="M30.4326 13.6928C27.886 13.6928 25.8217 11.6285 25.8217 9.08594C23.2752 9.08594 21.2109 11.1502 21.2109 13.6928C21.2109 16.2353 23.2752 18.2996 25.8217 18.2996C28.3682 18.2996 30.4326 16.2353 30.4326 13.6928Z" fill="#0000FF"/>
<path d="M26.0847 38.667C13.4479 38.667 3.97916 47.235 0.49615 50.9173C-0.165383 51.6187 -0.165383 52.7146 0.49615 53.416C3.97916 57.0983 13.4479 65.6663 26.0847 65.6663C38.7256 65.6663 48.1903 57.0983 51.6733 53.416C52.3349 52.7146 52.3349 51.6187 51.6733 50.9173C48.1903 47.2311 38.7216 38.667 26.0847 38.667ZM14.4282 45.0791C13.1888 47.2191 12.4914 49.7218 12.4914 52.3599C12.4914 54.7789 13.0732 57.0823 14.1333 59.1068C9.86123 57.0146 6.50176 54.217 4.37369 52.1647C6.54958 50.0685 10.0166 47.1872 14.4282 45.0791ZM21.4181 61.5815C18.1503 59.7962 16.1299 56.2813 16.1299 52.3639C16.1299 47.8886 18.7879 43.9513 22.7571 42.5366C23.8371 42.3891 24.949 42.3054 26.0887 42.3054C26.9376 42.3054 27.7744 42.3533 28.5914 42.4369C32.6722 43.7361 35.5176 47.8049 35.5176 52.3639C35.5176 56.353 33.3536 59.9954 29.9822 61.717C28.7229 61.9163 27.4237 62.0319 26.0847 62.0319C24.4707 62.0279 22.9126 61.8645 21.4181 61.5815ZM37.3029 59.4575C38.4905 57.3453 39.152 54.9064 39.152 52.3639C39.152 49.6221 38.4108 47.0079 37 44.7403C41.7623 46.8684 45.4963 49.9529 47.7918 52.1686C45.5482 54.3326 41.9217 57.3334 37.3029 59.4575Z" fill="#0000FF"/>
<path d="M30.4326 52.3598C27.886 52.3598 25.8217 50.2954 25.8217 47.7529C23.2752 47.7529 21.2109 49.8172 21.2109 52.3598C21.2109 54.9023 23.2752 56.9666 25.8217 56.9666C28.3682 56.9666 30.4326 54.9023 30.4326 52.3598Z" fill="#0000FF"/>
<path d="M26.0847 77.334C13.4479 77.334 3.97916 85.902 0.49615 89.5843C-0.165383 90.2857 -0.165383 91.3816 0.49615 92.083C3.97916 95.7653 13.4479 104.333 26.0847 104.333C38.7256 104.333 48.1903 95.7653 51.6733 92.083C52.3349 91.3816 52.3349 90.2857 51.6733 89.5843C48.1903 85.898 38.7216 77.334 26.0847 77.334ZM14.4282 83.7461C13.1888 85.8861 12.4914 88.3888 12.4914 91.0269C12.4914 93.4459 13.0732 95.7493 14.1333 97.7738C9.86123 95.6816 6.50176 92.884 4.37369 90.8317C6.54958 88.7355 10.0166 85.8542 14.4282 83.7461ZM21.4181 100.249C18.1503 98.4632 16.1299 94.9483 16.1299 91.0309C16.1299 86.5556 18.7879 82.6183 22.7571 81.2036C23.8371 81.0561 24.949 80.9724 26.0887 80.9724C26.9376 80.9724 27.7744 81.0202 28.5914 81.1039C32.6722 82.4031 35.5176 86.4719 35.5176 91.0309C35.5176 95.02 33.3536 98.6624 29.9822 100.384C28.7229 100.583 27.4237 100.699 26.0847 100.699C24.4707 100.695 22.9126 100.531 21.4181 100.249ZM37.3029 98.1245C38.4905 96.0123 39.152 93.5734 39.152 91.0309C39.152 88.2891 38.4108 85.6749 37 83.4073C41.7623 85.5354 45.4963 88.6199 47.7918 90.8356C45.5482 92.9996 41.9217 96.0004 37.3029 98.1245Z" fill="#0000FF"/>
<path d="M30.4326 91.0267C27.886 91.0267 25.8217 88.9624 25.8217 86.4199C23.2752 86.4199 21.2109 88.4842 21.2109 91.0267C21.2109 93.5693 23.2752 95.6336 25.8217 95.6336C28.3682 95.6336 30.4326 93.5693 30.4326 91.0267Z" fill="#0000FF"/>
</svg>
