<svg width="29" height="226" viewBox="0 0 29 226" fill="none" xmlns="http://www.w3.org/2000/svg">
<path d="M20.1965 9.01284L22.842 8.0712L22.147 6.21034L24.1872 6.21034L24.1872 3.43026L22.147 3.43026L22.842 1.5694L20.1965 0.62776L19.5463 2.4662L18.0442 1.18826L16.2281 3.34058L17.9993 4.8203L16.2281 6.30002L18.0442 8.45234L19.5463 7.15198L20.1965 9.01284ZM11.7441 20.3229L14.0982 20.3229L14.0982 25.4795L17.6406 25.4795L17.6406 20.3229L19.9499 20.3229L19.9499 26.0624L23.694 26.0624L23.694 16.0182L8 16.0182L8 26.2642L11.7441 26.2642L11.7441 20.3229ZM23.694 39.9444L23.694 33.5995L8 33.5995L8 39.9444C8 44.6974 11.2733 48.0604 15.847 48.0604C20.4431 48.0604 23.694 44.6974 23.694 39.9444ZM11.9459 39.7426L11.9459 37.949L19.7257 37.949L19.7257 39.7426C19.7257 42.0743 18.1787 43.6213 15.847 43.6213C13.5377 43.6213 11.9459 42.0743 11.9459 39.7426ZM7.59644 61.8468C7.59644 65.86 10.1972 68.7073 14.0534 68.7073L23.694 68.7073L23.694 64.2906L14.1431 64.2906C12.5961 64.2906 11.6096 63.3041 11.6096 61.8468C11.6096 60.4119 12.5961 59.4254 14.1431 59.4254L23.694 59.4254L23.694 55.0087L14.0534 55.0087C10.1972 55.0087 7.59644 57.856 7.59644 61.8468ZM12.3046 76.1557L12.3046 87.6347L16.0936 87.6347L16.0936 76.1557L12.3046 76.1557Z" fill="black"/>
<path d="M14.5242 111.017L14.4879 111.264L14.7742 111.306L14.7742 111.017L14.5242 111.017ZM14.5242 106.6L14.7742 106.6L14.7742 106.406L14.5863 106.358L14.5242 106.6ZM17.394 106.578L17.3139 106.341L17.144 106.398L17.144 106.578L17.394 106.578ZM17.394 110.972L17.144 110.972L17.144 111.266L17.4344 111.219L17.394 110.972ZM7.34644 103.035C7.34644 107.331 10.2413 110.641 14.4879 111.264L14.5605 110.769C10.5565 110.182 7.84644 107.08 7.84644 103.035L7.34644 103.035ZM14.7742 111.017L14.7742 106.6L14.2742 106.6L14.2742 111.017L14.7742 111.017ZM14.5863 106.358C12.9374 105.935 11.882 104.659 11.882 103.035L11.382 103.035C11.382 104.909 12.6135 106.368 14.4621 106.842L14.5863 106.358ZM11.882 103.035C11.882 100.973 13.5215 99.429 15.8246 99.429L15.8246 98.929C13.2849 98.929 11.382 100.659 11.382 103.035L11.882 103.035ZM15.8246 99.429C18.1295 99.429 19.7895 100.974 19.7895 103.035L20.2895 103.035C20.2895 100.657 18.3624 98.929 15.8246 98.929L15.8246 99.429ZM19.7895 103.035C19.7895 104.577 18.8142 105.834 17.3139 106.341L17.474 106.814C19.1574 106.245 20.2895 104.812 20.2895 103.035L19.7895 103.035ZM17.144 106.578L17.144 110.972L17.644 110.972L17.644 106.578L17.144 106.578ZM17.4344 111.219C21.5248 110.548 24.3251 107.259 24.3251 103.035L23.8251 103.035C23.8251 107.017 21.1999 110.095 17.3536 110.725L17.4344 111.219ZM24.3251 103.035C24.3251 98.124 20.6731 94.445 15.8246 94.445L15.8246 94.945C20.3925 94.945 23.8251 98.3956 23.8251 103.035L24.3251 103.035ZM15.8246 94.445C10.9981 94.445 7.34644 98.1244 7.34644 103.035L7.84644 103.035C7.84644 98.3952 11.2795 94.945 15.8246 94.945L15.8246 94.445ZM8 127.8L7.92031 127.563L7.75 127.62L7.75 127.8L8 127.8ZM8 132.575L7.75 132.575L7.75 132.945L8.09313 132.807L8 132.575ZM23.694 126.275L23.7871 126.507L23.944 126.444L23.944 126.275L23.694 126.275ZM23.694 122.038L23.944 122.038L23.944 121.867L23.7854 121.805L23.694 122.038ZM8 115.872L8.09141 115.639L7.75 115.505L7.75 115.872L8 115.872ZM8 120.513L7.75 120.513L7.75 120.691L7.91844 120.749L8 120.513ZM10.5335 121.387L10.7835 121.387L10.7835 121.209L10.615 121.151L10.5335 121.387ZM10.5335 126.948L10.6131 127.185L10.7835 127.127L10.7835 126.948L10.5335 126.948ZM13.9189 125.894L13.6689 125.894L13.6689 126.249L14.0034 126.129L13.9189 125.894ZM13.9189 122.441L14.0015 122.205L13.6689 122.089L13.6689 122.441L13.9189 122.441ZM18.784 124.145L18.8686 124.38L19.5316 124.142L18.8667 123.909L18.784 124.145ZM7.75 127.8L7.75 132.575L8.25 132.575L8.25 127.8L7.75 127.8ZM8.09313 132.807L23.7871 126.507L23.6009 126.043L7.90687 132.343L8.09313 132.807ZM23.944 126.275L23.944 122.038L23.444 122.038L23.444 126.275L23.944 126.275ZM23.7854 121.805L8.09141 115.639L7.90859 116.105L23.6026 122.27L23.7854 121.805ZM7.75 115.872L7.75 120.513L8.25 120.513L8.25 115.872L7.75 115.872ZM7.91844 120.749L10.4519 121.624L10.615 121.151L8.08156 120.277L7.91844 120.749ZM10.2835 121.387L10.2835 126.948L10.7835 126.948L10.7835 121.387L10.2835 121.387ZM10.4538 126.711L7.92031 127.563L8.07968 128.037L10.6131 127.185L10.4538 126.711ZM14.1689 125.894L14.1689 122.441L13.6689 122.441L13.6689 125.894L14.1689 125.894ZM13.8362 122.677L18.7014 124.381L18.8667 123.909L14.0015 122.205L13.8362 122.677ZM18.6995 123.91L13.8343 125.659L14.0034 126.129L18.8686 124.38L18.6995 123.91ZM23.694 149.529L23.694 149.779L23.944 149.779L23.944 149.529L23.694 149.529ZM23.694 136.66L23.944 136.66L23.944 136.41L23.694 136.41L23.694 136.66ZM19.7929 136.66L19.7929 136.41L19.5429 136.41L19.5429 136.66L19.7929 136.66ZM19.7929 140.92L19.7929 141.17L20.0429 141.17L20.0429 140.92L19.7929 140.92ZM8 140.92L8 140.67L7.75 140.67L7.75 140.92L8 140.92ZM8 145.269L7.75 145.269L7.75 145.519L8 145.519L8 145.269ZM19.7929 145.269L20.0429 145.269L20.0429 145.019L19.7929 145.019L19.7929 145.269ZM19.7929 149.529L19.5429 149.529L19.5429 149.779L19.7929 149.779L19.7929 149.529ZM23.944 149.529L23.944 136.66L23.444 136.66L23.444 149.529L23.944 149.529ZM23.694 136.41L19.7929 136.41L19.7929 136.91L23.694 136.91L23.694 136.41ZM19.5429 136.66L19.5429 140.92L20.0429 140.92L20.0429 136.66L19.5429 136.66ZM19.7929 140.67L8 140.67L8 141.17L19.7929 141.17L19.7929 140.67ZM7.75 140.92L7.75 145.269L8.25 145.269L8.25 140.92L7.75 140.92ZM8 145.519L19.7929 145.519L19.7929 145.019L8 145.019L8 145.519ZM19.5429 145.269L19.5429 149.529L20.0429 149.529L20.0429 145.269L19.5429 145.269ZM19.7929 149.779L23.694 149.779L23.694 149.279L19.7929 149.279L19.7929 149.779ZM8 155.712L8 155.462L7.75 155.462L7.75 155.712L8 155.712ZM8 160.106L7.75 160.106L7.75 160.356L8 160.356L8 160.106ZM23.694 160.106L23.694 160.356L23.944 160.356L23.944 160.106L23.694 160.106ZM23.694 155.712L23.944 155.712L23.944 155.462L23.694 155.462L23.694 155.712ZM7.75 155.712L7.75 160.106L8.25 160.106L8.25 155.712L7.75 155.712ZM8 160.356L23.694 160.356L23.694 159.856L8 159.856L8 160.356ZM23.944 160.106L23.944 155.712L23.444 155.712L23.444 160.106L23.944 160.106ZM23.694 155.462L8 155.462L8 155.962L23.694 155.962L23.694 155.462ZM7.34644 175.82C7.34644 180.991 10.8777 184.701 15.8246 184.701L15.8246 184.201C11.1757 184.201 7.84644 180.737 7.84644 175.82L7.34644 175.82ZM15.8246 184.701C20.7934 184.701 24.3251 180.991 24.3251 175.82L23.8251 175.82C23.8251 180.737 20.4963 184.201 15.8246 184.201L15.8246 184.701ZM24.3251 175.82C24.3251 170.647 20.7706 166.938 15.8246 166.938L15.8246 167.438C20.4743 167.438 23.8251 170.903 23.8251 175.82L24.3251 175.82ZM15.8246 166.938C10.9006 166.938 7.34644 170.648 7.34644 175.82L7.84644 175.82C7.84644 170.902 11.1977 167.438 15.8246 167.438L15.8246 166.938ZM11.8596 175.82C11.8596 173.585 13.5377 171.922 15.8246 171.922L15.8246 171.422C13.2687 171.422 11.3596 173.301 11.3596 175.82L11.8596 175.82ZM15.8246 171.922C18.1347 171.922 19.812 173.585 19.812 175.82L20.312 175.82C20.312 173.301 18.402 171.422 15.8246 171.422L15.8246 171.922ZM19.812 175.82C19.812 178.074 18.159 179.695 15.8246 179.695L15.8246 180.195C18.4226 180.195 20.312 178.363 20.312 175.82L19.812 175.82ZM15.8246 179.695C13.5135 179.695 11.8596 178.075 11.8596 175.82L11.3596 175.82C11.3596 178.362 13.2481 180.195 15.8246 180.195L15.8246 179.695ZM23.694 201.33L23.944 201.33L23.944 201.08L23.694 201.08L23.694 201.33ZM15.4434 201.33L15.2959 201.128L14.6778 201.58L15.4434 201.58L15.4434 201.33ZM23.694 195.299L23.8415 195.5L23.944 195.426L23.944 195.299L23.694 195.299ZM23.694 191.51L23.944 191.51L23.944 191.26L23.694 191.26L23.694 191.51ZM8 191.51L8 191.26L7.75 191.26L7.75 191.51L8 191.51ZM8 195.702L7.75 195.702L7.75 195.952L8 195.952L8 195.702ZM16.4972 195.702L16.645 195.904L17.2607 195.452L16.4972 195.452L16.4972 195.702ZM8 201.935L7.85213 201.733L7.75 201.808L7.75 201.935L8 201.935ZM8 205.522L7.75 205.522L7.75 205.772L8 205.772L8 205.522ZM23.694 205.522L23.694 205.772L23.944 205.772L23.944 205.522L23.694 205.522ZM23.694 201.08L15.4434 201.08L15.4434 201.58L23.694 201.58L23.694 201.08ZM15.591 201.531L23.8415 195.5L23.5465 195.097L15.2959 201.128L15.591 201.531ZM23.944 195.299L23.944 191.51L23.444 191.51L23.444 195.299L23.944 195.299ZM23.694 191.26L8 191.26L8 191.76L23.694 191.76L23.694 191.26ZM7.75 191.51L7.75 195.702L8.25 195.702L8.25 191.51L7.75 191.51ZM8 195.952L16.4972 195.952L16.4972 195.452L8 195.452L8 195.952ZM16.3493 195.501L7.85213 201.733L8.14786 202.137L16.645 195.904L16.3493 195.501ZM7.75 201.935L7.75 205.522L8.25 205.522L8.25 201.935L7.75 201.935ZM8 205.772L23.694 205.772L23.694 205.272L8 205.272L8 205.772ZM23.944 205.522L23.944 201.33L23.444 201.33L23.444 205.522L23.944 205.522ZM12.3046 213.113L12.3046 212.863L12.0546 212.863L12.0546 213.113L12.3046 213.113ZM12.3046 224.592L12.0546 224.592L12.0546 224.842L12.3046 224.842L12.3046 224.592ZM16.0936 224.592L16.0936 224.842L16.3436 224.842L16.3436 224.592L16.0936 224.592ZM16.0936 213.113L16.3436 213.113L16.3436 212.863L16.0936 212.863L16.0936 213.113ZM12.0546 213.113L12.0546 224.592L12.5546 224.592L12.5546 213.113L12.0546 213.113ZM12.3046 224.842L16.0936 224.842L16.0936 224.342L12.3046 224.342L12.3046 224.842ZM16.3436 224.592L16.3436 213.113L15.8436 213.113L15.8436 224.592L16.3436 224.592ZM16.0936 212.863L12.3046 212.863L12.3046 213.363L16.0936 213.363L16.0936 212.863Z" fill="black"/>
</svg>
