<svg width="11" height="33" viewBox="0 0 11 33" fill="none" xmlns="http://www.w3.org/2000/svg">
<path d="M5.8312 0.72468L5.8312 0.57468L5.6812 0.57468L5.6812 0.72468L5.8312 0.72468ZM5.8312 3.14028L5.6812 3.14028L5.6812 3.29028L5.8312 3.29028L5.8312 3.14028ZM8.15286 3.14028L8.15286 3.29028L8.30286 3.29028L8.30286 3.14028L8.15286 3.14028ZM8.15286 0.72468L8.30286 0.72468L8.30286 0.57468L8.15286 0.57468L8.15286 0.72468ZM1 0.724679L1 0.574679L0.85 0.574679L0.85 0.724679L1 0.724679ZM1 3.14028L0.85 3.14028L0.85 3.29028L1 3.29028L1 3.14028ZM3.30824 3.14028L3.30824 3.29028L3.45824 3.29028L3.45824 3.14028L3.30824 3.14028ZM3.30824 0.72468L3.45824 0.72468L3.45824 0.57468L3.30824 0.57468L3.30824 0.72468ZM5.6812 0.72468L5.6812 3.14028L5.9812 3.14028L5.9812 0.72468L5.6812 0.72468ZM5.8312 3.29028L8.15286 3.29028L8.15286 2.99028L5.8312 2.99028L5.8312 3.29028ZM8.30286 3.14028L8.30286 0.72468L8.00286 0.72468L8.00286 3.14028L8.30286 3.14028ZM8.15286 0.57468L5.8312 0.57468L5.8312 0.87468L8.15286 0.87468L8.15286 0.57468ZM0.85 0.724679L0.85 3.14028L1.15 3.14028L1.15 0.72468L0.85 0.724679ZM1 3.29028L3.30824 3.29028L3.30824 2.99028L1 2.99028L1 3.29028ZM3.45824 3.14028L3.45824 0.72468L3.15824 0.72468L3.15824 3.14028L3.45824 3.14028ZM3.30824 0.57468L1 0.574679L1 0.87468L3.30824 0.87468L3.30824 0.57468ZM0.999999 19.5913L0.849999 19.5913L0.849999 19.7655L1.02225 19.7397L0.999999 19.5913ZM10.394 18.1822L10.4163 18.3306L10.544 18.3114L10.544 18.1822L10.394 18.1822ZM10.394 15.6056L10.544 15.6056L10.544 15.5073L10.4539 15.4681L10.394 15.6056ZM5.28098 13.3779L5.22137 13.2402L4.90449 13.3774L5.22107 13.5154L5.28098 13.3779ZM10.394 11.1636L10.4536 11.3012L10.544 11.2621L10.544 11.1636L10.394 11.1636ZM10.394 8.57349L10.544 8.57349L10.544 8.4445L10.4165 8.42518L10.394 8.57349ZM1 7.15097L1.02246 7.00266L0.85 6.97655L0.85 7.15097L1 7.15097ZM1 9.78129L0.85 9.78129L0.85 9.91249L0.98003 9.92996L1 9.78129ZM6.39484 10.506L6.45729 10.6424L6.92895 10.4264L6.41481 10.3573L6.39484 10.506ZM0.973159 12.9887L0.910708 12.8523L0.823159 12.8924L0.823159 12.9887L0.973159 12.9887ZM0.973159 13.7536L0.823159 13.7536L0.823159 13.8498L0.910557 13.8899L0.973159 13.7536ZM6.40826 16.2497L6.42818 16.3984L6.94159 16.3296L6.47086 16.1134L6.40826 16.2497ZM0.999999 16.9744L0.980078 16.8257L0.849999 16.8432L0.849999 16.9744L0.999999 16.9744ZM1.02225 19.7397L10.4163 18.3306L10.3717 18.0339L0.977748 19.443L1.02225 19.7397ZM10.544 18.1822L10.544 15.6056L10.244 15.6056L10.244 18.1822L10.544 18.1822ZM10.4539 15.4681L5.34089 13.2403L5.22107 13.5154L10.3341 15.7431L10.4539 15.4681ZM5.34059 13.5155L10.4536 11.3012L10.3344 11.0259L5.22137 13.2402L5.34059 13.5155ZM10.544 11.1636L10.544 8.57349L10.244 8.57349L10.244 11.1636L10.544 11.1636ZM10.4165 8.42518L1.02246 7.00266L0.977541 7.29928L10.3715 8.7218L10.4165 8.42518ZM0.85 7.15097L0.85 9.78129L1.15 9.78129L1.15 7.15097L0.85 7.15097ZM0.98003 9.92996L6.37487 10.6546L6.41481 10.3573L1.01997 9.63263L0.98003 9.92996ZM6.33239 10.3696L0.910708 12.8523L1.03561 13.1251L6.45729 10.6424L6.33239 10.3696ZM0.823159 12.9887L0.823159 13.7536L1.12316 13.7536L1.12316 12.9887L0.823159 12.9887ZM0.910557 13.8899L6.34566 16.386L6.47086 16.1134L1.03576 13.6173L0.910557 13.8899ZM6.38834 16.1011L0.980078 16.8257L1.01992 17.1231L6.42818 16.3984L6.38834 16.1011ZM0.849999 16.9744L0.849999 19.5913L1.15 19.5913L1.15 16.9744L0.849999 16.9744ZM10.394 31.9981L10.3196 32.1283L10.544 32.2566L10.544 31.9981L10.394 31.9981ZM10.394 29.1396L10.544 29.1396L10.544 29.0474L10.4617 29.0058L10.394 29.1396ZM6.99874 27.4219L6.93102 27.288L6.66647 27.4219L6.93102 27.5557L6.99874 27.4219ZM10.394 25.7041L10.4617 25.838L10.544 25.7963L10.544 25.7041L10.394 25.7041ZM10.394 22.8322L10.544 22.8322L10.544 22.574L10.3197 22.702L10.394 22.8322ZM4.67708 26.0933L4.67708 26.2433L4.71685 26.2433L4.7514 26.2236L4.67708 26.0933ZM0.999999 26.0933L0.999999 25.9433L0.849999 25.9433L0.849999 26.0933L0.999999 26.0933ZM0.999999 28.7236L0.849999 28.7236L0.849999 28.8736L0.999999 28.8736L0.999999 28.7236ZM4.66366 28.7236L4.73808 28.5934L4.70349 28.5736L4.66366 28.5736L4.66366 28.7236ZM10.544 31.9981L10.544 29.1396L10.244 29.1396L10.244 31.9981L10.544 31.9981ZM10.4617 29.0058L7.06646 27.288L6.93102 27.5557L10.3263 29.2735L10.4617 29.0058ZM7.06646 27.5557L10.4617 25.838L10.3263 25.5703L6.93102 27.288L7.06646 27.5557ZM10.544 25.7041L10.544 22.8322L10.244 22.8322L10.244 25.7041L10.544 25.7041ZM10.3197 22.702L4.60276 25.963L4.7514 26.2236L10.4683 22.9625L10.3197 22.702ZM4.67708 25.9433L0.999999 25.9433L0.999999 26.2433L4.67708 26.2433L4.67708 25.9433ZM0.849999 26.0933L0.849999 28.7236L1.15 28.7236L1.15 26.0933L0.849999 26.0933ZM0.999999 28.8736L4.66366 28.8736L4.66366 28.5736L0.999999 28.5736L0.999999 28.8736ZM4.58924 28.8539L10.3196 32.1283L10.4684 31.8679L4.73808 28.5934L4.58924 28.8539Z" fill="black"/>
</svg>
