<svg width="151" height="96" viewBox="0 0 151 96" fill="none" xmlns="http://www.w3.org/2000/svg">
<path d="M9.03526 67.4036C13.2054 67.4036 16.4114 64.6011 17.0168 60.4758L12.6 60.4758C12.1516 62.2245 10.784 63.368 9.03526 63.368C6.81568 63.368 5.17902 61.5968 5.17902 59.1754C5.17902 56.7541 6.81568 54.9605 9.03526 54.9605C10.6943 54.9605 12.0395 56.0142 12.5776 57.606L16.9719 57.606C16.3218 53.6377 13.1381 50.9249 9.03526 50.9249C4.2598 50.9249 0.69502 54.4672 0.69502 59.1754C0.69502 63.8612 4.2598 67.4036 9.03526 67.4036ZM31.7686 67.4036C36.8131 67.4036 40.4003 63.9733 40.4003 59.1754C40.4003 54.3551 36.8131 50.9249 31.7686 50.9249C26.7241 50.9249 23.1369 54.3775 23.1369 59.1754C23.1369 63.9509 26.7241 67.4036 31.7686 67.4036ZM31.7686 63.3904C29.3921 63.3904 27.6209 61.5968 27.6209 59.1754C27.6209 56.7316 29.3921 54.938 31.7686 54.938C34.1676 54.938 35.8939 56.7092 35.8939 59.1754C35.8939 61.6192 34.1676 63.3904 31.7686 63.3904ZM67.3453 67L64.9912 51.306L60.6866 51.306L56.9648 59.848L53.2655 51.306L48.9385 51.306L46.562 67H50.9563L52.167 57.9872L56.3147 67.0448H57.5926L61.7627 57.9647L62.9734 67H67.3453ZM94.2318 67L91.8777 51.306L87.573 51.306L83.8513 59.848L80.152 51.306L75.825 51.306L73.4484 67L77.8428 67L79.0534 57.9872L83.2011 67.0448H84.4791L88.6492 57.9647L89.8599 67H94.2318ZM107.913 67.4036C111.926 67.4036 114.773 64.8028 114.773 60.9466L114.773 51.306L110.357 51.306L110.357 60.8569C110.357 62.4039 109.37 63.3904 107.913 63.3904C106.478 63.3904 105.492 62.4039 105.492 60.8569L105.492 51.306L101.075 51.306L101.075 60.9466C101.075 64.8028 103.922 67.4036 107.913 67.4036ZM132.333 51.306L132.333 59.5566L126.302 51.306H122.513L122.513 67H126.706L126.706 58.5028L132.939 67H136.526L136.526 51.306L132.333 51.306ZM144.408 67H148.802L148.802 51.306L144.408 51.306L144.408 67Z" fill="black"/>
<path d="M19.2107 83.6954H30.6897V79.9064H19.2107L19.2107 83.6954ZM45.8208 88.4036C49.9909 88.4036 53.1969 85.6011 53.8023 81.4758H49.3855C48.9371 83.2245 47.5695 84.368 45.8208 84.368C43.6012 84.368 41.9645 82.5968 41.9645 80.1754C41.9645 77.7541 43.6012 75.9605 45.8208 75.9605C47.4798 75.9605 48.825 77.0142 49.3631 78.606H53.7574C53.1073 74.6377 49.9236 71.9249 45.8208 71.9249C41.0453 71.9249 37.4805 75.4672 37.4805 80.1754C37.4805 84.8612 41.0453 88.4036 45.8208 88.4036ZM70.5851 88H75.3605L69.0605 72.306H64.8231L58.6576 88H63.2986L64.1729 85.4665H69.7331L70.5851 88ZM68.6794 82.0811H65.2267L66.9306 77.216L68.6794 82.0811ZM92.3146 72.306L79.4455 72.306V76.2071L83.7053 76.2071V88H88.0548V76.2071H92.3146V72.306ZM98.4976 88H102.892V72.306H98.4976V88ZM118.605 88.4036C123.65 88.4036 127.237 84.9733 127.237 80.1754C127.237 75.3551 123.65 71.9249 118.605 71.9249C113.561 71.9249 109.973 75.3775 109.973 80.1754C109.973 84.9509 113.561 88.4036 118.605 88.4036ZM118.605 84.3904C116.228 84.3904 114.457 82.5968 114.457 80.1754C114.457 77.7316 116.228 75.938 118.605 75.938C121.004 75.938 122.73 77.7092 122.73 80.1754C122.73 82.6192 121.004 84.3904 118.605 84.3904ZM144.115 72.306V80.5566L138.084 72.306H134.295V88H138.488V79.5028L144.72 88H148.308V72.306H144.115Z" fill="#0000FF"/>
<path d="M133.036 43.0043L106.27 42.9988L106.27 16.4582" stroke="black" stroke-width="2" stroke-miterlimit="10"/>
<path d="M148.269 1.00009L106.27 42.999" stroke="black" stroke-width="2" stroke-miterlimit="10"/>
</svg>
