<svg width="108" height="50" viewBox="0 0 108 50" fill="none" xmlns="http://www.w3.org/2000/svg">
<path d="M8.67326 5.306L2.3284 5.306L2.3284 21L8.67326 21C13.4263 21 16.7893 17.7267 16.7893 13.153C16.7893 8.5569 13.4263 5.306 8.67326 5.306ZM8.47148 17.0541L6.67788 17.0541L6.67788 9.27434L8.47148 9.27434C10.8032 9.27434 12.3501 10.8213 12.3501 13.153C12.3501 15.4623 10.8032 17.0541 8.47148 17.0541ZM28.1992 17.2559L28.1992 14.9018L33.3558 14.9018L33.3558 11.3594L28.1992 11.3594L28.1992 9.05014L33.9387 9.05014L33.9387 5.306L23.8945 5.306L23.8945 21L34.1405 21L34.1405 17.2559L28.1992 17.2559ZM47.036 21.4036C50.6904 21.4036 53.3136 19.61 53.3136 16.1797C53.3136 12.6149 50.3093 11.8302 47.9776 11.2473C46.5203 10.8662 45.3321 10.5747 45.3321 9.6779C45.3321 8.93804 46.0719 8.60174 46.8342 8.60174C47.731 8.60174 48.4709 9.07256 48.4709 10.0815L52.8203 10.0815C52.8203 6.8754 50.6456 4.94728 46.879 4.94728C43.1797 4.94728 40.9153 6.71846 40.9153 9.81242C40.9153 13.3772 43.8075 14.0722 46.0719 14.6327C47.5741 14.9914 48.8072 15.2829 48.8072 16.2694C48.8072 17.1213 47.9328 17.6146 47.036 17.6146C46.0495 17.6146 45.1751 17.0541 45.1751 15.9331L40.7135 15.9331C40.7135 19.3633 43.2022 21.4036 47.036 21.4036ZM60.4365 21L64.8308 21L64.8308 5.306L60.4365 5.306L60.4365 21ZM79.9386 12.6149V15.3502L83.8396 15.3502C83.3464 16.5608 81.9339 17.368 80.2749 17.368C77.8983 17.368 76.3514 15.664 76.3514 13.1754C76.3514 10.6644 77.9208 8.96046 80.2749 8.96046C81.8667 8.96046 83.2791 9.81242 83.8396 11.1352L88.3909 11.1352C87.7183 7.50316 84.3553 4.92486 80.23 4.92486C75.4097 4.92486 71.9122 8.39996 71.9122 13.1754C71.9122 17.9509 75.477 21.4036 80.2749 21.4036C85.1848 21.4036 88.5478 17.7491 88.5478 12.6149L79.9386 12.6149ZM95.2858 16.6954L106.765 16.6954V12.9064L95.2858 12.9064V16.6954Z" fill="#00FF00"/>
<path d="M64.6952 26.306L64.6952 34.5566L58.6643 26.306L54.8753 26.306L54.8753 42L59.0678 42L59.0678 33.5028L65.3006 42L68.8878 42L68.8878 26.306L64.6952 26.306ZM81.0745 38.2559V35.9018L86.2311 35.9018V32.3594L81.0745 32.3594V30.0501L86.814 30.0501L86.814 26.306L76.7698 26.306L76.7698 42L87.0158 42V38.2559L81.0745 38.2559ZM102.803 42L107.624 42L104.507 36.3053C106.054 35.3861 106.996 33.7943 106.996 31.8662C106.996 28.5928 104.53 26.306 101.167 26.306L94.3511 26.306L94.3511 42L98.6782 42V37.2021L100.248 37.2021L102.803 42ZM98.6782 30.1622L100.651 30.1622C101.862 30.1622 102.557 30.8797 102.557 31.8662C102.557 32.8302 101.862 33.5701 100.651 33.5701L98.6782 33.5701L98.6782 30.1622Z" fill="#00FF00"/>
</svg>
