<svg width="120" height="38" viewBox="0 0 120 38" fill="none" xmlns="http://www.w3.org/2000/svg">
<path d="M9.01284 17.8035L8.0712 15.158L6.21034 15.853L6.21034 13.8128L3.43026 13.8128L3.43026 15.853L1.5694 15.158L0.62776 17.8035L2.4662 18.4537L1.18826 19.9558L3.34058 21.7719L4.8203 20.0007L6.30002 21.7719L8.45234 19.9558L7.15198 18.4537L9.01284 17.8035ZM25.2236 14.306L22.1072 24.0811L18.9011 14.306L13.9687 14.306L20.0894 30L24.125 30L30.1335 14.306L25.2236 14.306ZM36.0298 30L40.4241 30L40.4241 14.306L36.0298 14.306L36.0298 30ZM53.8728 30.4036C57.5273 30.4036 60.1504 28.61 60.1504 25.1797C60.1504 21.6149 57.1461 20.8302 54.8144 20.2473C53.3571 19.8662 52.1689 19.5747 52.1689 18.6779C52.1689 17.938 52.9087 17.6017 53.671 17.6017C54.5678 17.6017 55.3077 18.0726 55.3077 19.0815L59.6572 19.0815C59.6572 15.8754 57.4824 13.9473 53.7159 13.9473C50.0166 13.9473 47.7521 15.7185 47.7521 18.8124C47.7521 22.3772 50.6443 23.0722 52.9087 23.6327C54.4109 23.9914 55.644 24.2829 55.644 25.2694C55.644 26.1213 54.7696 26.6146 53.8728 26.6146C52.8863 26.6146 52.0119 26.0541 52.0119 24.9331L47.5504 24.9331C47.5504 28.3633 50.039 30.4036 53.8728 30.4036ZM73.9545 30.4036C77.9677 30.4036 80.815 27.8028 80.815 23.9466L80.815 14.306L76.3983 14.306L76.3983 23.8569C76.3983 25.4039 75.4118 26.3904 73.9545 26.3904C72.5196 26.3904 71.5331 25.4039 71.5331 23.8569L71.5331 14.306L67.1164 14.306L67.1164 23.9466C67.1164 27.8028 69.9637 30.4036 73.9545 30.4036ZM98.4103 30L103.186 30L96.8858 14.306L92.6484 14.306L86.4829 30L91.1238 30L91.9982 27.4665L97.5584 27.4665L98.4103 30ZM96.5046 24.0811L93.0519 24.0811L94.7559 19.216L96.5046 24.0811ZM113.377 26.0541L113.377 14.306L108.982 14.306L108.982 30L118.959 30L118.959 26.0541L113.377 26.0541Z" fill="#0000FF"/>
<path d="M12.6981 9L14.7405 9L14.7405 1.706L12.6981 1.706L12.6981 9ZM18.313 5.15502C19.3862 5.06124 20.1261 4.32142 20.1261 3.18564L20.1261 1.53928L18.2296 1.53928L18.2296 3.33152L19.1362 3.33152C19.1362 3.77958 18.8757 4.14428 18.313 4.19638V5.15502ZM32.7168 9L31.6227 1.706L29.6221 1.706L27.8924 5.67602L26.1731 1.706L24.162 1.706L23.0575 9L25.0998 9L25.6625 4.81116L27.5902 9.02084L28.1841 9.02084L30.1223 4.80074L30.6849 9L32.7168 9ZM45.0687 9L47.2881 9L44.3601 1.706L42.3907 1.706L39.5252 9L41.6822 9L42.0886 7.82254L44.6727 7.82254L45.0687 9ZM44.183 6.24912L42.5783 6.24912L43.3702 3.98798L44.183 6.24912Z" fill="black"/>
</svg>
