<svg xmlns="http://www.w3.org/2000/svg" width="293.965" height="50.005" viewBox="0 0 293.965 50.005">
  <g id="RESUME" transform="translate(0 -10.001)">
    <path id="Path_474" data-name="Path 474" d="M25.026,60.006A25,25,0,1,0,0,35,24.988,24.988,0,0,0,25.026,60.006Zm-.024-45a20,20,0,1,1-20,20A19.995,19.995,0,0,1,25,15.008Zm-8.751,22.5A3.748,3.748,0,1,0,20,41.255,3.744,3.744,0,0,0,16.252,37.507Zm17.5,0A3.748,3.748,0,1,0,37.5,41.255,3.744,3.744,0,0,0,33.753,37.507ZM25,21.255a13.738,13.738,0,0,0-12.774,8.751H37.777A13.745,13.745,0,0,0,25,21.255Z" transform="translate(50 70.007) rotate(180)" fill="lime"/>
    <path id="Path_475" data-name="Path 475" d="M79.18,47.243a9.476,9.476,0,0,1-4.35-.96,7.158,7.158,0,0,1-2.91-2.7A8.024,8.024,0,0,1,70.9,39.5v-6.06a7.8,7.8,0,0,1,1.02-4.02,7.158,7.158,0,0,1,2.91-2.7,9.476,9.476,0,0,1,4.35-.96,9.808,9.808,0,0,1,4.32.9,6.72,6.72,0,0,1,2.91,2.55,6.794,6.794,0,0,1,1.05,3.78q0,.27-.45.33l-4.74.3h-.09q-.36,0-.36-.33a2.635,2.635,0,0,0-.72-1.95,2.833,2.833,0,0,0-3.84,0,2.635,2.635,0,0,0-.72,1.95v6.45a2.7,2.7,0,0,0,.72,1.95,2.92,2.92,0,0,0,3.84,0,2.7,2.7,0,0,0,.72-1.95.316.316,0,0,1,.12-.27.432.432,0,0,1,.33-.06l4.74.24q.45.03.45.3a6.9,6.9,0,0,1-3.96,6.39A9.808,9.808,0,0,1,79.18,47.243ZM101.4,47a.629.629,0,0,1-.33-.09.474.474,0,0,1-.18-.3l-5.91-20.1a.334.334,0,0,1-.03-.15q0-.36.42-.36h5.13a.45.45,0,0,1,.48.39l3,12.66q.03.12.09.12t.09-.12l2.91-12.66a.45.45,0,0,1,.48-.39h5.01a.353.353,0,0,1,.33.15.358.358,0,0,1,.06.36l-5.97,20.1a.474.474,0,0,1-.18.3.629.629,0,0,1-.33.09Zm25.168,0a.433.433,0,0,1-.36-.15.38.38,0,0,1,0-.36l8.4-20.13a.541.541,0,0,1,.54-.36h4.65a.353.353,0,0,1,.33.15.32.32,0,0,1,.03.36l-8.37,20.13a.51.51,0,0,1-.54.36ZM165.5,47a.488.488,0,0,1-.51-.33l-3.3-7.62a.192.192,0,0,0-.18-.12h-1.26a.133.133,0,0,0-.15.15v7.47a.415.415,0,0,1-.45.45h-4.74a.415.415,0,0,1-.45-.45v-20.1a.415.415,0,0,1,.45-.45H164a7.3,7.3,0,0,1,3.57.84,5.831,5.831,0,0,1,2.4,2.37,6.811,6.811,0,0,1,.87,3.48,6.172,6.172,0,0,1-.99,3.48,5.6,5.6,0,0,1-2.67,2.16.143.143,0,0,0-.09.21l3.81,7.92a1.254,1.254,0,0,1,.06.21.285.285,0,0,1-.12.24.486.486,0,0,1-.3.09Zm-5.25-16.17a.133.133,0,0,0-.15.15v3.51a.133.133,0,0,0,.15.15h2.82a2.325,2.325,0,0,0,1.56-.51,1.774,1.774,0,0,0,.6-1.38,1.717,1.717,0,0,0-.6-1.38,2.243,2.243,0,0,0-1.56-.54Zm33.883-.45a.415.415,0,0,1-.45.45h-8.97a.133.133,0,0,0-.15.15V33.8a.133.133,0,0,0,.15.15h5.55a.415.415,0,0,1,.45.45v3.9a.415.415,0,0,1-.45.45h-5.55a.133.133,0,0,0-.15.15v3.12a.133.133,0,0,0,.15.15h8.97a.415.415,0,0,1,.45.45v3.93a.415.415,0,0,1-.45.45h-14.31a.415.415,0,0,1-.45-.45v-20.1a.415.415,0,0,1,.45-.45h14.31a.415.415,0,0,1,.45.45Zm15.855,16.86a11.124,11.124,0,0,1-4.41-.81,6.827,6.827,0,0,1-2.94-2.37,6.233,6.233,0,0,1-1.02-3.54V40.1a.415.415,0,0,1,.45-.45h4.65a.415.415,0,0,1,.45.45v.18a1.879,1.879,0,0,0,.87,1.5,4.052,4.052,0,0,0,2.37.63,2.289,2.289,0,0,0,1.59-.45,1.462,1.462,0,0,0,.48-1.05,1.065,1.065,0,0,0-.6-.99,12.881,12.881,0,0,0-2.19-.81l-.87-.24a16.035,16.035,0,0,1-4.98-2.4,5.094,5.094,0,0,1-2.01-4.35,5.615,5.615,0,0,1,1.02-3.33,6.5,6.5,0,0,1,2.79-2.25,10.733,10.733,0,0,1,8.25.09,7.04,7.04,0,0,1,3,2.46,6.187,6.187,0,0,1,1.11,3.63v.27a.415.415,0,0,1-.45.45H212.9a.415.415,0,0,1-.45-.45v-.03a2.133,2.133,0,0,0-.81-1.62,3.1,3.1,0,0,0-2.19-.75,2.668,2.668,0,0,0-1.53.39,1.329,1.329,0,0,0-.15,2.01,5,5,0,0,0,1.26.72q.84.33,2.58.87.24.09,2.1.66a6.358,6.358,0,0,1,3.15,2.01,5.144,5.144,0,0,1,1.26,3.51,5.951,5.951,0,0,1-1.02,3.48,6.528,6.528,0,0,1-2.85,2.22A10.8,10.8,0,0,1,209.989,47.243Zm24.2,0a9.661,9.661,0,0,1-4.32-.93,6.821,6.821,0,0,1-2.88-2.64,7.581,7.581,0,0,1-1.02-3.96V26.453a.415.415,0,0,1,.45-.45h4.74a.415.415,0,0,1,.45.45v13.26a2.809,2.809,0,0,0,.69,1.98,2.556,2.556,0,0,0,1.89.72,2.368,2.368,0,0,0,1.83-.75,2.7,2.7,0,0,0,.72-1.95V26.453a.415.415,0,0,1,.45-.45h4.74a.415.415,0,0,1,.45.45v13.26a7.581,7.581,0,0,1-1.02,3.96,6.821,6.821,0,0,1-2.88,2.64A9.47,9.47,0,0,1,234.192,47.243ZM264.023,26.3a.589.589,0,0,1,.54-.3h4.68a.415.415,0,0,1,.45.45v20.1a.415.415,0,0,1-.45.45H264.5a.415.415,0,0,1-.45-.45V35.663q0-.12-.06-.12-.06-.03-.12.06l-2.04,3.33a.589.589,0,0,1-.54.3h-2.28a.589.589,0,0,1-.54-.3l-2.04-3.33q-.06-.09-.12-.06-.06,0-.06.12v10.89a.415.415,0,0,1-.45.45h-4.74a.415.415,0,0,1-.45-.45v-20.1a.415.415,0,0,1,.45-.45h4.68a.589.589,0,0,1,.54.3l3.78,6.09q.09.18.18,0Zm29.222,4.08a.415.415,0,0,1-.45.45h-8.97a.133.133,0,0,0-.15.15V33.8a.133.133,0,0,0,.15.15h5.55a.415.415,0,0,1,.45.45v3.9a.415.415,0,0,1-.45.45h-5.55a.133.133,0,0,0-.15.15v3.12a.133.133,0,0,0,.15.15h8.97a.415.415,0,0,1,.45.45v3.93a.415.415,0,0,1-.45.45h-14.31a.415.415,0,0,1-.45-.45v-20.1a.415.415,0,0,1,.45-.45H292.8a.415.415,0,0,1,.45.45Z" fill="lime"/>
    <path id="Path_476" data-name="Path 476" d="M70,50H293.965v1.5H70Z" fill="lime"/>
  </g>
</svg>
