<svg width="294" height="71" viewBox="0 0 294 71" fill="none" xmlns="http://www.w3.org/2000/svg">
<path d="M24.9739 10.001C11.1734 10.001 0 21.2029 0 35.0034C0 48.8038 11.1734 60.0057 24.9739 60.0057C38.7981 60.0057 50 48.8038 50 35.0034C50 21.2029 38.7981 10.001 24.9739 10.001ZM24.9976 54.9986C13.9477 54.9986 4.99762 46.0485 4.99762 34.9986C4.99762 23.9487 13.9477 14.9986 24.9976 14.9986C36.0475 14.9986 44.9976 23.9487 44.9976 34.9986C44.9976 46.0485 36.0475 54.9986 24.9976 54.9986ZM33.7482 32.4998C35.8242 32.4998 37.4964 30.8228 37.4964 28.7516C37.4964 26.6803 35.8195 25.0033 33.7482 25.0033C31.677 25.0033 30 26.6803 30 28.7516C30 30.8228 31.6722 32.4998 33.7482 32.4998ZM16.247 32.4998C18.323 32.4998 19.9953 30.8228 19.9953 28.7516C19.9953 26.6803 18.3183 25.0033 16.247 25.0033C14.1758 25.0033 12.4988 26.6803 12.4988 28.7516C12.4988 30.8228 14.171 32.4998 16.247 32.4998ZM24.9976 48.7515C30.8219 48.7515 35.772 45.1031 37.772 40.0009H12.2233C14.2233 45.0983 19.1734 48.7515 24.9976 48.7515Z" fill="#0000FF"/>
<path d="M79.18 47.2429C77.54 47.2429 76.09 46.9229 74.83 46.2829C73.59 45.6429 72.62 44.7429 71.92 43.5829C71.24 42.4029 70.9 41.0429 70.9 39.5029V33.4429C70.9 31.9229 71.24 30.5829 71.92 29.4229C72.62 28.2629 73.59 27.3629 74.83 26.7229C76.09 26.0829 77.54 25.7629 79.18 25.7629C80.82 25.7629 82.26 26.0629 83.5 26.6629C84.76 27.2629 85.73 28.1129 86.41 29.2129C87.11 30.2929 87.46 31.5529 87.46 32.9929C87.46 33.1729 87.31 33.2829 87.01 33.3229L82.27 33.6229H82.18C81.94 33.6229 81.82 33.5129 81.82 33.2929C81.82 32.4729 81.58 31.8229 81.1 31.3429C80.62 30.8429 79.98 30.5929 79.18 30.5929C78.38 30.5929 77.74 30.8429 77.26 31.3429C76.78 31.8229 76.54 32.4729 76.54 33.2929V39.7429C76.54 40.5429 76.78 41.1929 77.26 41.6929C77.74 42.1729 78.38 42.4129 79.18 42.4129C79.98 42.4129 80.62 42.1729 81.1 41.6929C81.58 41.1929 81.82 40.5429 81.82 39.7429C81.82 39.6229 81.86 39.5329 81.94 39.4729C82.02 39.4129 82.13 39.3929 82.27 39.4129L87.01 39.6529C87.31 39.6729 87.46 39.7729 87.46 39.9529C87.46 41.3929 87.11 42.6629 86.41 43.7629C85.73 44.8629 84.76 45.7229 83.5 46.3429C82.26 46.9429 80.82 47.2429 79.18 47.2429ZM101.397 47.0029C101.277 47.0029 101.167 46.9729 101.067 46.9129C100.967 46.8329 100.907 46.7329 100.887 46.6129L94.9771 26.5129C94.9571 26.4729 94.9471 26.4229 94.9471 26.3629C94.9471 26.1229 95.0871 26.0029 95.3671 26.0029L100.497 26.0029C100.757 26.0029 100.917 26.1329 100.977 26.3929L103.977 39.0529C103.997 39.1329 104.027 39.1729 104.067 39.1729C104.107 39.1729 104.137 39.1329 104.157 39.0529L107.067 26.3929C107.127 26.1329 107.287 26.0029 107.547 26.0029H112.557C112.717 26.0029 112.827 26.0529 112.887 26.1529C112.967 26.2329 112.987 26.3529 112.947 26.5129L106.977 46.6129C106.957 46.7329 106.897 46.8329 106.797 46.9129C106.697 46.9729 106.587 47.0029 106.467 47.0029L101.397 47.0029ZM126.565 47.0029C126.405 47.0029 126.285 46.9529 126.205 46.8529C126.145 46.7529 126.145 46.6329 126.205 46.4929L134.605 26.3629C134.705 26.1229 134.885 26.0029 135.145 26.0029H139.795C139.955 26.0029 140.065 26.0529 140.125 26.1529C140.205 26.2329 140.215 26.3529 140.155 26.5129L131.785 46.6429C131.705 46.8829 131.525 47.0029 131.245 47.0029H126.565ZM165.501 47.0029C165.241 47.0029 165.071 46.8929 164.991 46.6729L161.691 39.0529C161.651 38.9729 161.591 38.9329 161.511 38.9329H160.251C160.151 38.9329 160.101 38.9829 160.101 39.0829V46.5529C160.101 46.6929 160.061 46.8029 159.981 46.8829C159.901 46.9629 159.791 47.0029 159.651 47.0029H154.911C154.771 47.0029 154.661 46.9629 154.581 46.8829C154.501 46.8029 154.461 46.6929 154.461 46.5529V26.4529C154.461 26.3129 154.501 26.2029 154.581 26.1229C154.661 26.0429 154.771 26.0029 154.911 26.0029H164.001C165.361 26.0029 166.551 26.2829 167.571 26.8429C168.611 27.4029 169.411 28.1929 169.971 29.2129C170.551 30.2129 170.841 31.3729 170.841 32.6929C170.841 34.0129 170.511 35.1729 169.851 36.1729C169.211 37.1529 168.321 37.8729 167.181 38.3329C167.081 38.3729 167.051 38.4429 167.091 38.5429L170.901 46.4629C170.941 46.5829 170.961 46.6529 170.961 46.6729C170.961 46.7729 170.921 46.8529 170.841 46.9129C170.761 46.9729 170.661 47.0029 170.541 47.0029H165.501ZM160.251 30.8329C160.151 30.8329 160.101 30.8829 160.101 30.9829V34.4929C160.101 34.5929 160.151 34.6429 160.251 34.6429H163.071C163.711 34.6429 164.231 34.4729 164.631 34.1329C165.031 33.7729 165.231 33.3129 165.231 32.7529C165.231 32.1729 165.031 31.7129 164.631 31.3729C164.231 31.0129 163.711 30.8329 163.071 30.8329H160.251ZM194.134 30.3829C194.134 30.5229 194.094 30.6329 194.014 30.7129C193.934 30.7929 193.824 30.8329 193.684 30.8329L184.714 30.8329C184.614 30.8329 184.564 30.8829 184.564 30.9829V33.8029C184.564 33.9029 184.614 33.9529 184.714 33.9529H190.264C190.404 33.9529 190.514 33.9929 190.594 34.0729C190.674 34.1529 190.714 34.2629 190.714 34.4029V38.3029C190.714 38.4429 190.674 38.5529 190.594 38.6329C190.514 38.7129 190.404 38.7529 190.264 38.7529H184.714C184.614 38.7529 184.564 38.8029 184.564 38.9029V42.0229C184.564 42.1229 184.614 42.1729 184.714 42.1729L193.684 42.1729C193.824 42.1729 193.934 42.2129 194.014 42.2929C194.094 42.3729 194.134 42.4829 194.134 42.6229V46.5529C194.134 46.6929 194.094 46.8029 194.014 46.8829C193.934 46.9629 193.824 47.0029 193.684 47.0029L179.374 47.0029C179.234 47.0029 179.124 46.9629 179.044 46.8829C178.964 46.8029 178.924 46.6929 178.924 46.5529V26.4529C178.924 26.3129 178.964 26.2029 179.044 26.1229C179.124 26.0429 179.234 26.0029 179.374 26.0029L193.684 26.0029C193.824 26.0029 193.934 26.0429 194.014 26.1229C194.094 26.2029 194.134 26.3129 194.134 26.4529V30.3829ZM209.989 47.2429C208.309 47.2429 206.839 46.9729 205.579 46.4329C204.319 45.8729 203.339 45.0829 202.639 44.0629C201.959 43.0429 201.619 41.8629 201.619 40.5229V40.1029C201.619 39.9629 201.659 39.8529 201.739 39.7729C201.819 39.6929 201.929 39.6529 202.069 39.6529H206.719C206.859 39.6529 206.969 39.6929 207.049 39.7729C207.129 39.8529 207.169 39.9629 207.169 40.1029V40.2829C207.169 40.8429 207.459 41.3429 208.039 41.7829C208.639 42.2029 209.429 42.4129 210.409 42.4129C211.149 42.4129 211.679 42.2629 211.999 41.9629C212.319 41.6429 212.479 41.2929 212.479 40.9129C212.479 40.4729 212.279 40.1429 211.879 39.9229C211.479 39.7029 210.749 39.4329 209.689 39.1129L208.819 38.8729C206.839 38.2729 205.179 37.4729 203.839 36.4729C202.499 35.4729 201.829 34.0229 201.829 32.1229C201.829 30.8629 202.169 29.7529 202.849 28.7929C203.529 27.8129 204.459 27.0629 205.639 26.5429C206.839 26.0229 208.179 25.7629 209.659 25.7629C211.219 25.7629 212.629 26.0529 213.889 26.6329C215.169 27.2129 216.169 28.0329 216.889 29.0929C217.629 30.1529 217.999 31.3629 217.999 32.7229V32.9929C217.999 33.1329 217.959 33.2429 217.879 33.3229C217.799 33.4029 217.689 33.4429 217.549 33.4429L212.899 33.4429C212.759 33.4429 212.649 33.4029 212.569 33.3229C212.489 33.2429 212.449 33.1329 212.449 32.9929V32.9629C212.449 32.3629 212.179 31.8229 211.639 31.3429C211.099 30.8429 210.369 30.5929 209.449 30.5929C208.809 30.5929 208.299 30.7229 207.919 30.9829C207.559 31.2429 207.379 31.6029 207.379 32.0629C207.379 32.4229 207.509 32.7329 207.769 32.9929C208.049 33.2329 208.469 33.4729 209.029 33.7129C209.589 33.9329 210.449 34.2229 211.609 34.5829C211.769 34.6429 212.469 34.8629 213.709 35.2429C214.969 35.6029 216.019 36.2729 216.859 37.2529C217.699 38.2129 218.119 39.3829 218.119 40.7629C218.119 42.1029 217.779 43.2629 217.099 44.2429C216.419 45.2029 215.469 45.9429 214.249 46.4629C213.029 46.9829 211.609 47.2429 209.989 47.2429ZM234.192 47.2429C232.572 47.2429 231.132 46.9329 229.872 46.3129C228.632 45.6929 227.672 44.8129 226.992 43.6729C226.312 42.5329 225.972 41.2129 225.972 39.7129V26.4529C225.972 26.3129 226.012 26.2029 226.092 26.1229C226.172 26.0429 226.282 26.0029 226.422 26.0029L231.162 26.0029C231.302 26.0029 231.412 26.0429 231.492 26.1229C231.572 26.2029 231.612 26.3129 231.612 26.4529V39.7129C231.612 40.5329 231.842 41.1929 232.302 41.6929C232.782 42.1729 233.412 42.4129 234.192 42.4129C234.952 42.4129 235.562 42.1629 236.022 41.6629C236.502 41.1629 236.742 40.5129 236.742 39.7129V26.4529C236.742 26.3129 236.782 26.2029 236.862 26.1229C236.942 26.0429 237.052 26.0029 237.192 26.0029H241.932C242.072 26.0029 242.182 26.0429 242.262 26.1229C242.342 26.2029 242.382 26.3129 242.382 26.4529V39.7129C242.382 41.2129 242.042 42.5329 241.362 43.6729C240.682 44.8129 239.722 45.6929 238.482 46.3129C237.242 46.9329 235.812 47.2429 234.192 47.2429ZM264.023 26.3029C264.143 26.1029 264.323 26.0029 264.563 26.0029H269.243C269.383 26.0029 269.493 26.0429 269.573 26.1229C269.653 26.2029 269.693 26.3129 269.693 26.4529V46.5529C269.693 46.6929 269.653 46.8029 269.573 46.8829C269.493 46.9629 269.383 47.0029 269.243 47.0029H264.503C264.363 47.0029 264.253 46.9629 264.173 46.8829C264.093 46.8029 264.053 46.6929 264.053 46.5529V35.6629C264.053 35.5829 264.033 35.5429 263.993 35.5429C263.953 35.5229 263.913 35.5429 263.873 35.6029L261.833 38.9329C261.713 39.1329 261.533 39.2329 261.293 39.2329H259.013C258.773 39.2329 258.593 39.1329 258.473 38.9329L256.433 35.6029C256.393 35.5429 256.353 35.5229 256.313 35.5429C256.273 35.5429 256.253 35.5829 256.253 35.6629V46.5529C256.253 46.6929 256.213 46.8029 256.133 46.8829C256.053 46.9629 255.943 47.0029 255.803 47.0029H251.063C250.923 47.0029 250.813 46.9629 250.733 46.8829C250.653 46.8029 250.613 46.6929 250.613 46.5529V26.4529C250.613 26.3129 250.653 26.2029 250.733 26.1229C250.813 26.0429 250.923 26.0029 251.063 26.0029H255.743C255.983 26.0029 256.163 26.1029 256.283 26.3029L260.063 32.3929C260.123 32.5129 260.183 32.5129 260.243 32.3929L264.023 26.3029ZM293.245 30.3829C293.245 30.5229 293.205 30.6329 293.125 30.7129C293.045 30.7929 292.935 30.8329 292.795 30.8329H283.825C283.725 30.8329 283.675 30.8829 283.675 30.9829V33.8029C283.675 33.9029 283.725 33.9529 283.825 33.9529H289.375C289.515 33.9529 289.625 33.9929 289.705 34.0729C289.785 34.1529 289.825 34.2629 289.825 34.4029V38.3029C289.825 38.4429 289.785 38.5529 289.705 38.6329C289.625 38.7129 289.515 38.7529 289.375 38.7529H283.825C283.725 38.7529 283.675 38.8029 283.675 38.9029V42.0229C283.675 42.1229 283.725 42.1729 283.825 42.1729H292.795C292.935 42.1729 293.045 42.2129 293.125 42.2929C293.205 42.3729 293.245 42.4829 293.245 42.6229V46.5529C293.245 46.6929 293.205 46.8029 293.125 46.8829C293.045 46.9629 292.935 47.0029 292.795 47.0029L278.485 47.0029C278.345 47.0029 278.235 46.9629 278.155 46.8829C278.075 46.8029 278.035 46.6929 278.035 46.5529V26.4529C278.035 26.3129 278.075 26.2029 278.155 26.1229C278.235 26.0429 278.345 26.0029 278.485 26.0029H292.795C292.935 26.0029 293.045 26.0429 293.125 26.1229C293.205 26.2029 293.245 26.3129 293.245 26.4529V30.3829Z" fill="#0000FF"/>
<path d="M70 50.0029L293.965 50.0029V51.5029L70 51.5029V50.0029Z" fill="#0000FF"/>
</svg>
