<svg width="188" height="30" viewBox="0 0 188 30" fill="none" xmlns="http://www.w3.org/2000/svg">
<rect width="188" height="30" fill="white"/>
<path d="M31.373 11.4922C27.7396 11.4922 25.0172 14.0362 24.0157 15.1295C23.8255 15.3377 23.8255 15.6631 24.0157 15.8714C25.0172 16.9647 27.7396 19.5086 31.373 19.5086C35.0076 19.5086 37.7289 16.9647 38.7304 15.8714C38.9206 15.6631 38.9206 15.3377 38.7304 15.1295C37.7289 14.035 35.0065 11.4922 31.373 11.4922ZM28.0215 13.396C27.6652 14.0314 27.4646 14.7745 27.4646 15.5578C27.4646 16.276 27.6319 16.9599 27.9367 17.561C26.7084 16.9398 25.7425 16.1092 25.1306 15.4998C25.7562 14.8774 26.7531 14.022 28.0215 13.396ZM30.0313 18.2958C29.0917 17.7657 28.5108 16.7221 28.5108 15.559C28.5108 14.2302 29.275 13.0612 30.4163 12.6411C30.7268 12.5973 31.0465 12.5725 31.3742 12.5725C31.6183 12.5725 31.8589 12.5867 32.0938 12.6115C33.2671 12.9973 34.0852 14.2054 34.0852 15.559C34.0852 16.7434 33.463 17.8249 32.4937 18.336C32.1316 18.3952 31.758 18.4295 31.373 18.4295C30.909 18.4283 30.461 18.3798 30.0313 18.2958ZM34.5985 17.6651C34.94 17.038 35.1302 16.3139 35.1302 15.559C35.1302 14.7449 34.9171 13.9687 34.5115 13.2954C35.8807 13.9273 36.9544 14.8431 37.6144 15.501C36.9693 16.1435 35.9266 17.0345 34.5985 17.6651Z" fill="black"/>
<path d="M32.6231 15.5583C31.8909 15.5583 31.2974 14.9453 31.2974 14.1904C30.5652 14.1904 29.9717 14.8033 29.9717 15.5583C29.9717 16.3132 30.5652 16.9261 31.2974 16.9261C32.0296 16.9261 32.6231 16.3132 32.6231 15.5583Z" fill="black"/>
<path d="M58.793 15.8311C57.9889 15.5999 57.403 15.3167 57.0352 14.9814C56.6706 14.6429 56.4883 14.2262 56.4883 13.7314C56.4883 13.1715 56.7113 12.7093 57.1572 12.3447C57.6064 11.9769 58.1891 11.793 58.9053 11.793C59.3936 11.793 59.8281 11.8874 60.209 12.0762C60.5931 12.265 60.8893 12.5254 61.0977 12.8574C61.3092 13.1895 61.415 13.5524 61.415 13.9463H60.4727C60.4727 13.5166 60.3359 13.1797 60.0625 12.9355C59.7891 12.6882 59.4033 12.5645 58.9053 12.5645C58.443 12.5645 58.0817 12.667 57.8213 12.8721C57.5641 13.0739 57.4355 13.3555 57.4355 13.7168C57.4355 14.0065 57.5576 14.2523 57.8018 14.4541C58.0492 14.6527 58.4674 14.835 59.0566 15.001C59.6491 15.167 60.1113 15.3509 60.4434 15.5527C60.7786 15.7513 61.026 15.984 61.1855 16.251C61.3483 16.5179 61.4297 16.832 61.4297 17.1934C61.4297 17.7695 61.2051 18.2318 60.7559 18.5801C60.3066 18.9251 59.7061 19.0977 58.9541 19.0977C58.4658 19.0977 58.0101 19.0049 57.5869 18.8193C57.1637 18.6305 56.8366 18.3734 56.6055 18.0479C56.3776 17.7223 56.2637 17.3529 56.2637 16.9395H57.2061C57.2061 17.3691 57.3639 17.7093 57.6797 17.96C57.9987 18.2074 58.4235 18.3311 58.9541 18.3311C59.4489 18.3311 59.8281 18.2301 60.0918 18.0283C60.3555 17.8265 60.4873 17.5514 60.4873 17.2031C60.4873 16.8548 60.3652 16.5863 60.1211 16.3975C59.877 16.2054 59.4342 16.0166 58.793 15.8311ZM71.1348 15.7139L68.0537 15.7139V18.2334H71.6328V19H67.1162V11.8906H71.584V12.6621H68.0537V14.9473L71.1348 14.9473V15.7139ZM82.71 15.6748C82.71 16.3617 82.6009 16.9541 82.3828 17.4521C82.1647 17.9469 81.8587 18.3343 81.4648 18.6143L82.7344 19.6104L82.0947 20.2012L80.5957 19.0098C80.3613 19.0684 80.1139 19.0977 79.8535 19.0977C79.2936 19.0977 78.7972 18.9609 78.3643 18.6875C77.9313 18.4108 77.5944 18.0186 77.3535 17.5107C77.1159 16.9997 76.9938 16.4089 76.9873 15.7383V15.2256C76.9873 14.542 77.1061 13.9382 77.3438 13.4141C77.5814 12.89 77.9167 12.4896 78.3496 12.2129C78.7858 11.9329 79.2839 11.793 79.8438 11.793C80.4167 11.793 80.9196 11.9313 81.3525 12.208C81.7887 12.4847 82.124 12.8835 82.3584 13.4043C82.5928 13.9219 82.71 14.5273 82.71 15.2207V15.6748ZM81.7725 15.2158C81.7725 14.3792 81.6048 13.7347 81.2695 13.2822C80.9375 12.8265 80.4622 12.5986 79.8438 12.5986C79.2546 12.5986 78.7891 12.8249 78.4473 13.2773C78.1087 13.7266 77.9346 14.3516 77.9248 15.1523V15.6748C77.9248 16.4886 78.0941 17.1299 78.4326 17.5986C78.7744 18.0674 79.248 18.3018 79.8535 18.3018C80.459 18.3018 80.9277 18.082 81.2598 17.6426C81.5918 17.1999 81.7627 16.5667 81.7725 15.7432V15.2158ZM93.6406 11.8906V16.7246C93.6374 17.3952 93.4258 17.9437 93.0059 18.3701C92.5892 18.7965 92.0228 19.0358 91.3066 19.0879L91.0576 19.0977C90.2796 19.0977 89.6595 18.8877 89.1973 18.4678C88.735 18.0479 88.5007 17.4701 88.4941 16.7344V11.8906H89.4219V16.7051C89.4219 17.2194 89.5635 17.6198 89.8467 17.9062C90.1299 18.1895 90.5335 18.3311 91.0576 18.3311C91.5882 18.3311 91.9935 18.1895 92.2734 17.9062C92.5566 17.623 92.6982 17.2243 92.6982 16.71V11.8906H93.6406ZM103.619 15.7139H100.538V18.2334L104.117 18.2334V19L99.6006 19V11.8906H104.068V12.6621H100.538V14.9473H103.619V15.7139ZM115.229 19H114.286L110.707 13.5215V19H109.765V11.8906H110.707L114.296 17.3936V11.8906H115.229V19ZM126.604 16.7441C126.516 17.4961 126.237 18.0771 125.769 18.4873C125.303 18.8942 124.683 19.0977 123.908 19.0977C123.068 19.0977 122.395 18.7965 121.887 18.1943C121.382 17.5921 121.13 16.7865 121.13 15.7773V15.0937C121.13 14.4329 121.247 13.8519 121.481 13.3506C121.719 12.8493 122.054 12.4652 122.487 12.1982C122.92 11.9281 123.422 11.793 123.991 11.793C124.746 11.793 125.352 12.0046 125.808 12.4277C126.263 12.8477 126.529 13.4303 126.604 14.1758H125.661C125.58 13.6094 125.402 13.1992 125.129 12.9453C124.859 12.6914 124.479 12.5645 123.991 12.5645C123.392 12.5645 122.922 12.7858 122.58 13.2285C122.242 13.6712 122.072 14.3011 122.072 15.1182V15.8066C122.072 16.5781 122.233 17.1917 122.556 17.6475C122.878 18.1032 123.329 18.3311 123.908 18.3311C124.429 18.3311 124.828 18.2139 125.104 17.9795C125.384 17.7419 125.57 17.3301 125.661 16.7441H126.604ZM136.387 15.7139H133.306V18.2334H136.885V19H132.368V11.8906H136.836V12.6621H133.306V14.9473H136.387V15.7139ZM150.499 19H149.562V11.8906H150.499V19ZM159.052 17.7549L161.083 11.8906H162.108L159.472 19H158.642L156.01 11.8906H157.03L159.052 17.7549Z" fill="black"/>
</svg>
