<svg width="189" height="30" viewBox="0 0 189 30" fill="none" xmlns="http://www.w3.org/2000/svg">
<rect width="189" height="30" fill="black"/>
<path d="M21.5 11.4922C17.8666 11.4922 15.1441 14.0362 14.1427 15.1295C13.9524 15.3377 13.9524 15.6631 14.1427 15.8714C15.1441 16.9647 17.8666 19.5086 21.5 19.5086C25.1346 19.5086 27.8559 16.9647 28.8573 15.8714C29.0476 15.6631 29.0476 15.3377 28.8573 15.1295C27.8559 14.035 25.1334 11.4922 21.5 11.4922ZM18.1485 13.396C17.7921 14.0314 17.5916 14.7745 17.5916 15.5578C17.5916 16.276 17.7589 16.9599 18.0637 17.561C16.8353 16.9398 15.8694 16.1092 15.2575 15.4998C15.8832 14.8774 16.88 14.022 18.1485 13.396ZM20.1582 18.2958C19.2187 17.7657 18.6377 16.7221 18.6377 15.559C18.6377 14.2302 19.402 13.0612 20.5432 12.6411C20.8538 12.5973 21.1734 12.5725 21.5011 12.5725C21.7452 12.5725 21.9858 12.5867 22.2207 12.6115C23.394 12.9973 24.2122 14.2054 24.2122 15.559C24.2122 16.7434 23.59 17.8249 22.6206 18.336C22.2585 18.3952 21.885 18.4295 21.5 18.4295C21.0359 18.4283 20.5879 18.3798 20.1582 18.2958ZM24.7255 17.6651C25.067 17.038 25.2572 16.3139 25.2572 15.559C25.2572 14.7449 25.044 13.9687 24.6384 13.2954C26.0077 13.9273 27.0813 14.8431 27.7413 15.501C27.0962 16.1435 26.0535 17.0345 24.7255 17.6651Z" fill="white"/>
<path d="M22.7501 15.5583C22.0179 15.5583 21.4244 14.9453 21.4244 14.1904C20.6922 14.1904 20.0986 14.8033 20.0986 15.5583C20.0986 16.3132 20.6922 16.9261 21.4244 16.9261C22.1565 16.9261 22.7501 16.3132 22.7501 15.5583Z" fill="white"/>
<path d="M48.9199 15.8311C48.1159 15.5999 47.5299 15.3167 47.1621 14.9814C46.7975 14.6429 46.6152 14.2262 46.6152 13.7314C46.6152 13.1715 46.8382 12.7093 47.2842 12.3447C47.7334 11.9769 48.3161 11.793 49.0322 11.793C49.5205 11.793 49.9551 11.8874 50.3359 12.0762C50.7201 12.265 51.0163 12.5254 51.2246 12.8574C51.4362 13.1895 51.542 13.5524 51.542 13.9463H50.5996C50.5996 13.5166 50.4629 13.1797 50.1895 12.9355C49.916 12.6882 49.5303 12.5645 49.0322 12.5645C48.57 12.5645 48.2087 12.667 47.9482 12.8721C47.6911 13.0739 47.5625 13.3555 47.5625 13.7168C47.5625 14.0065 47.6846 14.2523 47.9287 14.4541C48.1761 14.6527 48.5944 14.835 49.1836 15.001C49.776 15.167 50.2383 15.3509 50.5703 15.5527C50.9056 15.7513 51.153 15.984 51.3125 16.251C51.4753 16.5179 51.5566 16.832 51.5566 17.1934C51.5566 17.7695 51.332 18.2318 50.8828 18.5801C50.4336 18.9251 49.833 19.0977 49.0811 19.0977C48.5928 19.0977 48.137 19.0049 47.7139 18.8193C47.2907 18.6305 46.9635 18.3734 46.7324 18.0479C46.5046 17.7223 46.3906 17.3529 46.3906 16.9395H47.333C47.333 17.3691 47.4909 17.7093 47.8066 17.96C48.1257 18.2074 48.5505 18.3311 49.0811 18.3311C49.5758 18.3311 49.9551 18.2301 50.2188 18.0283C50.4824 17.8265 50.6143 17.5514 50.6143 17.2031C50.6143 16.8548 50.4922 16.5863 50.248 16.3975C50.0039 16.2054 49.5612 16.0166 48.9199 15.8311ZM61.2617 15.7139L58.1807 15.7139V18.2334H61.7598V19H57.2432V11.8906H61.7109V12.6621H58.1807V14.9473L61.2617 14.9473V15.7139ZM72.8369 15.6748C72.8369 16.3617 72.7279 16.9541 72.5098 17.4521C72.2917 17.9469 71.9857 18.3343 71.5918 18.6143L72.8613 19.6104L72.2217 20.2012L70.7227 19.0098C70.4883 19.0684 70.2409 19.0977 69.9805 19.0977C69.4206 19.0977 68.9242 18.9609 68.4912 18.6875C68.0583 18.4108 67.7214 18.0186 67.4805 17.5107C67.2428 16.9997 67.1208 16.4089 67.1143 15.7383V15.2256C67.1143 14.542 67.2331 13.9382 67.4707 13.4141C67.7083 12.89 68.0436 12.4896 68.4766 12.2129C68.9128 11.9329 69.4108 11.793 69.9707 11.793C70.5436 11.793 71.0465 11.9313 71.4795 12.208C71.9157 12.4847 72.251 12.8835 72.4854 13.4043C72.7197 13.9219 72.8369 14.5273 72.8369 15.2207V15.6748ZM71.8994 15.2158C71.8994 14.3792 71.7318 13.7347 71.3965 13.2822C71.0645 12.8265 70.5892 12.5986 69.9707 12.5986C69.3815 12.5986 68.916 12.8249 68.5742 13.2773C68.2357 13.7266 68.0615 14.3516 68.0518 15.1523V15.6748C68.0518 16.4886 68.221 17.1299 68.5596 17.5986C68.9014 18.0674 69.375 18.3018 69.9805 18.3018C70.5859 18.3018 71.0547 18.082 71.3867 17.6426C71.7188 17.1999 71.8896 16.5667 71.8994 15.7432V15.2158ZM83.7676 11.8906V16.7246C83.7643 17.3952 83.5527 17.9437 83.1328 18.3701C82.7161 18.7965 82.1497 19.0358 81.4336 19.0879L81.1846 19.0977C80.4066 19.0977 79.7865 18.8877 79.3242 18.4678C78.862 18.0479 78.6276 17.4701 78.6211 16.7344V11.8906H79.5488V16.7051C79.5488 17.2194 79.6904 17.6198 79.9736 17.9062C80.2568 18.1895 80.6605 18.3311 81.1846 18.3311C81.7152 18.3311 82.1204 18.1895 82.4004 17.9062C82.6836 17.623 82.8252 17.2243 82.8252 16.71V11.8906H83.7676ZM93.7461 15.7139H90.665V18.2334L94.2441 18.2334V19L89.7275 19V11.8906H94.1953V12.6621H90.665V14.9473H93.7461V15.7139ZM105.355 19H104.413L100.834 13.5215V19H99.8916V11.8906H100.834L104.423 17.3936V11.8906H105.355V19ZM116.73 16.7441C116.643 17.4961 116.364 18.0771 115.896 18.4873C115.43 18.8942 114.81 19.0977 114.035 19.0977C113.195 19.0977 112.521 18.7965 112.014 18.1943C111.509 17.5921 111.257 16.7865 111.257 15.7773V15.0937C111.257 14.4329 111.374 13.8519 111.608 13.3506C111.846 12.8493 112.181 12.4652 112.614 12.1982C113.047 11.9281 113.549 11.793 114.118 11.793C114.873 11.793 115.479 12.0046 115.935 12.4277C116.39 12.8477 116.656 13.4303 116.73 14.1758H115.788C115.707 13.6094 115.529 13.1992 115.256 12.9453C114.986 12.6914 114.606 12.5645 114.118 12.5645C113.519 12.5645 113.049 12.7858 112.707 13.2285C112.368 13.6712 112.199 14.3011 112.199 15.1182V15.8066C112.199 16.5781 112.36 17.1917 112.683 17.6475C113.005 18.1032 113.456 18.3311 114.035 18.3311C114.556 18.3311 114.955 18.2139 115.231 17.9795C115.511 17.7419 115.697 17.3301 115.788 16.7441H116.73ZM126.514 15.7139H123.433V18.2334H127.012V19H122.495V11.8906H126.963V12.6621H123.433V14.9473H126.514V15.7139ZM140.626 19H139.688V11.8906H140.626V19ZM147.831 19H146.894V11.8906H147.831V19ZM155.036 19H154.099V11.8906H155.036V19Z" fill="white"/>
</svg>
