<svg width="29" height="226" viewBox="0 0 29 226" fill="none" xmlns="http://www.w3.org/2000/svg">
<path d="M20.1965 9.01284L22.842 8.0712L22.147 6.21034L24.1872 6.21034L24.1872 3.43026L22.147 3.43026L22.842 1.5694L20.1965 0.62776L19.5463 2.4662L18.0442 1.18826L16.2281 3.34058L17.9993 4.8203L16.2281 6.30002L18.0442 8.45234L19.5463 7.15198L20.1965 9.01284ZM11.7441 20.3229L14.0982 20.3229L14.0982 25.4795L17.6406 25.4795L17.6406 20.3229L19.9499 20.3229L19.9499 26.0624L23.694 26.0624L23.694 16.0182L8 16.0182L8 26.2642L11.7441 26.2642L11.7441 20.3229ZM23.694 39.9444L23.694 33.5995L8 33.5995L8 39.9444C8 44.6974 11.2733 48.0604 15.847 48.0604C20.4431 48.0604 23.694 44.6974 23.694 39.9444ZM11.9459 39.7426L11.9459 37.949L19.7257 37.949L19.7257 39.7426C19.7257 42.0743 18.1787 43.6213 15.847 43.6213C13.5377 43.6213 11.9459 42.0743 11.9459 39.7426ZM7.59644 61.8468C7.59644 65.86 10.1972 68.7073 14.0534 68.7073L23.694 68.7073L23.694 64.2906L14.1431 64.2906C12.5961 64.2906 11.6096 63.3041 11.6096 61.8468C11.6096 60.4119 12.5961 59.4254 14.1431 59.4254L23.694 59.4254L23.694 55.0087L14.0534 55.0087C10.1972 55.0087 7.59644 57.856 7.59644 61.8468ZM12.3046 76.1557L12.3046 87.6347L16.0936 87.6347L16.0936 76.1557L12.3046 76.1557Z" fill="black"/>
<path d="M7.59644 103.035C7.59644 107.205 10.3989 110.411 14.5242 111.017L14.5242 106.6C12.7755 106.152 11.632 104.784 11.632 103.035C11.632 100.816 13.4032 99.179 15.8246 99.179C18.2459 99.179 20.0395 100.816 20.0395 103.035C20.0395 104.694 18.9858 106.04 17.394 106.578L17.394 110.972C21.3623 110.322 24.0751 107.138 24.0751 103.035C24.0751 98.2598 20.5328 94.695 15.8246 94.695C11.1388 94.695 7.59644 98.2598 7.59644 103.035ZM8 127.8L8 132.575L23.694 126.275L23.694 122.038L8 115.872L8 120.513L10.5335 121.387L10.5335 126.948L8 127.8ZM13.9189 125.894L13.9189 122.441L18.784 124.145L13.9189 125.894ZM23.694 149.529L23.694 136.66L19.7929 136.66L19.7929 140.92L8 140.92L8 145.269L19.7929 145.269L19.7929 149.529L23.694 149.529ZM8 155.712L8 160.106L23.694 160.106L23.694 155.712L8 155.712ZM7.59644 175.82C7.59644 180.864 11.0267 184.451 15.8246 184.451C20.6449 184.451 24.0751 180.864 24.0751 175.82C24.0751 170.775 20.6225 167.188 15.8246 167.188C11.0491 167.188 7.59644 170.775 7.59644 175.82ZM11.6096 175.82C11.6096 173.443 13.4032 171.672 15.8246 171.672C18.2684 171.672 20.062 173.443 20.062 175.82C20.062 178.218 18.2908 179.945 15.8246 179.945C13.3808 179.945 11.6096 178.218 11.6096 175.82ZM23.694 201.33L15.4434 201.33L23.694 195.299L23.694 191.51L8 191.51L8 195.702L16.4972 195.702L8 201.935L8 205.522L23.694 205.522L23.694 201.33ZM12.3046 213.113L12.3046 224.592L16.0936 224.592L16.0936 213.113L12.3046 213.113Z" fill="#00FF00"/>
</svg>
