<svg width="11" height="32" viewBox="0 0 11 32" fill="none" xmlns="http://www.w3.org/2000/svg">
<path d="M5.8312 0.72468L5.8312 3.14028L8.15286 3.14028L8.15286 0.72468L5.8312 0.72468ZM1 0.724679L1 3.14028L3.30824 3.14028L3.30824 0.72468L1 0.724679ZM0.999999 19.5913L10.394 18.1822L10.394 15.6056L5.28098 13.3779L10.394 11.1636L10.394 8.57349L1 7.15097L1 9.78129L6.39484 10.506L0.973159 12.9887L0.973159 13.7536L6.40826 16.2497L0.999999 16.9744L0.999999 19.5913ZM10.394 31.9981L10.394 29.1396L6.99874 27.4219L10.394 25.7041L10.394 22.8322L4.67708 26.0933L0.999999 26.0933L0.999999 28.7236L4.66366 28.7236L10.394 31.9981Z" fill="#00FF00"/>
</svg>
