<svg width="228" height="29" viewBox="0 0 228 29" fill="none" xmlns="http://www.w3.org/2000/svg">
<path d="M9.01284 8.80352L8.0712 6.15796L6.21034 6.85298V4.81276H3.43026V6.85298L1.5694 6.15796L0.62776 8.80352L2.4662 9.4537L1.18826 10.9558L3.34058 12.7719L4.8203 11.0007L6.30002 12.7719L8.45234 10.9558L7.15198 9.4537L9.01284 8.80352ZM22.3631 5.306H16.0182V21H22.3631C27.1161 21 30.4791 17.7267 30.4791 13.153C30.4791 8.5569 27.1161 5.306 22.3631 5.306ZM22.1613 17.0541H20.3677V9.27434H22.1613C24.493 9.27434 26.04 10.8213 26.04 13.153C26.04 15.4623 24.493 17.0541 22.1613 17.0541ZM41.889 17.2559V14.9018H47.0456V11.3594H41.889V9.05014H47.6285V5.306H37.5843V21H47.8303V17.2559H41.889ZM60.7258 21.4036C64.3803 21.4036 67.0034 19.61 67.0034 16.1797C67.0034 12.6149 63.9991 11.8302 61.6674 11.2473C60.2101 10.8662 59.0219 10.5747 59.0219 9.6779C59.0219 8.93804 59.7617 8.60174 60.524 8.60174C61.4208 8.60174 62.1607 9.07256 62.1607 10.0815H66.5102C66.5102 6.8754 64.3354 4.94728 60.5689 4.94728C56.8696 4.94728 54.6051 6.71846 54.6051 9.81242C54.6051 13.3772 57.4973 14.0722 59.7617 14.6327C61.2639 14.9914 62.497 15.2829 62.497 16.2694C62.497 17.1213 61.6226 17.6146 60.7258 17.6146C59.7393 17.6146 58.8649 17.0541 58.8649 15.9331H54.4034C54.4034 19.3633 56.892 21.4036 60.7258 21.4036ZM74.1263 21H78.5206V5.306H74.1263V21ZM93.6284 12.6149V15.3502H97.5295C97.0362 16.5608 95.6238 17.368 93.9647 17.368C91.5882 17.368 90.0412 15.664 90.0412 13.1754C90.0412 10.6644 91.6106 8.96046 93.9647 8.96046C95.5565 8.96046 96.969 9.81242 97.5295 11.1352H102.081C101.408 7.50316 98.0451 4.92486 93.9198 4.92486C89.0995 4.92486 85.602 8.39996 85.602 13.1754C85.602 17.9509 89.1668 21.4036 93.9647 21.4036C98.8747 21.4036 102.238 17.7491 102.238 12.6149H93.6284ZM119.087 5.306V13.5566L113.056 5.306H109.267V21H113.46V12.5028L119.692 21H123.28V5.306H119.087Z" fill="black"/>
<path d="M137.062 21.4036C140.717 21.4036 143.34 19.61 143.34 16.1797C143.34 12.6149 140.336 11.8302 138.004 11.2473C136.547 10.8662 135.358 10.5747 135.358 9.6779C135.358 8.93804 136.098 8.60174 136.861 8.60174C137.757 8.60174 138.497 9.07256 138.497 10.0815H142.847C142.847 6.8754 140.672 4.94728 136.905 4.94728C133.206 4.94728 130.942 6.71846 130.942 9.81242C130.942 13.3772 133.834 14.0722 136.098 14.6327C137.6 14.9914 138.833 15.2829 138.833 16.2694C138.833 17.1213 137.959 17.6146 137.062 17.6146C136.076 17.6146 135.201 17.0541 135.201 15.9331H130.74C130.74 19.3633 133.228 21.4036 137.062 21.4036ZM164.43 21L158.938 12.9288L163.96 5.306H158.938L154.79 11.9423V5.306H150.463V21H154.79V14.0722L159.296 21H164.43ZM170.08 21H174.475V5.306H170.08V21ZM186.757 17.0541V5.306H182.363V21H192.34V17.0541H186.757ZM202.916 17.0541V5.306H198.521V21H208.498V17.0541H202.916ZM214.388 16.6954H225.867V12.9064H214.388V16.6954Z" fill="#00FF00"/>
</svg>
