<svg width="102" height="15" viewBox="0 0 102 15" fill="none" xmlns="http://www.w3.org/2000/svg">
<rect y="7" width="102" height="8" fill="#00FF00"/>
<path d="M3.88672 2.77734C3.88672 3.07161 3.80078 3.33594 3.62891 3.57031C3.45703 3.80208 3.23047 3.97266 2.94922 4.08203C3.27734 4.19401 3.54036 4.375 3.73828 4.625C3.9362 4.875 4.03516 5.16406 4.03516 5.49219C4.03516 5.97917 3.86979 6.36589 3.53906 6.65234C3.20833 6.9362 2.77083 7.07812 2.22656 7.07812C1.67708 7.07812 1.23698 6.9362 0.90625 6.65234C0.578125 6.36849 0.414063 5.98177 0.414063 5.49219C0.414063 5.16927 0.509115 4.88151 0.699219 4.62891C0.889323 4.3763 1.14974 4.19401 1.48047 4.08203C1.19922 3.97266 0.97526 3.80208 0.808594 3.57031C0.641927 3.33594 0.558594 3.07161 0.558594 2.77734C0.558594 2.30599 0.709635 1.93099 1.01172 1.65234C1.31641 1.3737 1.71875 1.23437 2.21875 1.23437C2.71875 1.23437 3.12109 1.375 3.42578 1.65625C3.73307 1.9375 3.88672 2.3112 3.88672 2.77734ZM3.56641 5.49609C3.56641 5.14193 3.4401 4.85156 3.1875 4.625C2.9349 4.39583 2.61198 4.28125 2.21875 4.28125C1.82552 4.28125 1.50391 4.39323 1.25391 4.61719C1.00391 4.84115 0.878906 5.13411 0.878906 5.49609C0.878906 5.85807 1 6.14714 1.24219 6.36328C1.48438 6.57682 1.8125 6.68359 2.22656 6.68359C2.63021 6.68359 2.95443 6.57682 3.19922 6.36328C3.44401 6.14974 3.56641 5.86068 3.56641 5.49609ZM3.41797 2.77344C3.41797 2.44792 3.30469 2.17708 3.07813 1.96094C2.85417 1.74219 2.56771 1.63281 2.21875 1.63281C1.86458 1.63281 1.57682 1.73828 1.35547 1.94922C1.13672 2.15755 1.02734 2.43229 1.02734 2.77344C1.02734 3.10677 1.13672 3.375 1.35547 3.57812C1.57682 3.78125 1.86589 3.88281 2.22266 3.88281C2.57422 3.88281 2.86068 3.78125 3.08203 3.57812C3.30599 3.3724 3.41797 3.10417 3.41797 2.77344ZM8.40234 4.62891C8.40234 5.43099 8.25521 6.04036 7.96094 6.45703C7.66667 6.87109 7.23307 7.07812 6.66016 7.07812C6.09766 7.07812 5.66667 6.875 5.36719 6.46875C5.06771 6.0599 4.91406 5.46615 4.90625 4.6875V3.66797C4.90625 2.86849 5.05469 2.26302 5.35156 1.85156C5.64844 1.4401 6.08203 1.23437 6.65234 1.23437C7.21484 1.23437 7.64453 1.43359 7.94141 1.83203C8.23828 2.22786 8.39193 2.8125 8.40234 3.58594V4.62891ZM7.93359 3.60937C7.93359 2.95833 7.82682 2.46615 7.61328 2.13281C7.40234 1.79948 7.08203 1.63281 6.65234 1.63281C6.23047 1.63281 5.91276 1.79557 5.69922 2.12109C5.48568 2.44661 5.3763 2.92708 5.37109 3.5625V4.67969C5.37109 5.32812 5.48047 5.82422 5.69922 6.16797C5.92057 6.51172 6.24089 6.68359 6.66016 6.68359C7.07682 6.68359 7.39193 6.51562 7.60547 6.17969C7.82161 5.84375 7.93099 5.35156 7.93359 4.70312V3.60937ZM9.30078 2.40625C9.30078 2.06771 9.40495 1.78776 9.61328 1.56641C9.82422 1.34245 10.0911 1.23047 10.4141 1.23047C10.737 1.23047 11.0026 1.34245 11.2109 1.56641C11.4219 1.78776 11.5273 2.07552 11.5273 2.42969V2.70703C11.5273 3.04036 11.4232 3.31901 11.2148 3.54297C11.0091 3.76432 10.7448 3.875 10.4219 3.875C10.1016 3.875 9.83464 3.76562 9.62109 3.54687C9.40755 3.32812 9.30078 3.03906 9.30078 2.67969V2.40625ZM9.67969 2.70703C9.67969 2.94922 9.74609 3.14844 9.87891 3.30469C10.0143 3.46094 10.1953 3.53906 10.4219 3.53906C10.6432 3.53906 10.819 3.46094 10.9492 3.30469C11.082 3.14583 11.1484 2.94141 11.1484 2.69141V2.40625C11.1484 2.16406 11.0807 1.96484 10.9453 1.80859C10.8099 1.64974 10.6328 1.57031 10.4141 1.57031C10.1979 1.57031 10.0208 1.64844 9.88281 1.80469C9.7474 1.96094 9.67969 2.16927 9.67969 2.42969V2.70703ZM12.1641 5.60547C12.1641 5.26693 12.2682 4.98698 12.4766 4.76562C12.6875 4.54427 12.9531 4.43359 13.2734 4.43359C13.5938 4.43359 13.8594 4.54427 14.0703 4.76562C14.2839 4.98437 14.3906 5.27344 14.3906 5.63281V5.91016C14.3906 6.2487 14.2852 6.52865 14.0742 6.75C13.8659 6.97135 13.6016 7.08203 13.2813 7.08203C12.9609 7.08203 12.694 6.97266 12.4805 6.75391C12.2695 6.53255 12.1641 6.24479 12.1641 5.89062V5.60547ZM12.5391 5.91016C12.5391 6.15495 12.6055 6.35547 12.7383 6.51172C12.8737 6.66797 13.0547 6.74609 13.2813 6.74609C13.5052 6.74609 13.6823 6.66797 13.8125 6.51172C13.9453 6.35286 14.0117 6.14583 14.0117 5.89062V5.60547C14.0117 5.35547 13.944 5.15495 13.8086 5.00391C13.6758 4.85026 13.4974 4.77344 13.2734 4.77344C13.0547 4.77344 12.8776 4.85026 12.7422 5.00391C12.6068 5.15755 12.5391 5.36328 12.5391 5.62109V5.91016ZM10.5703 6.52734L10.2773 6.33984L13.0547 1.89453L13.3477 2.08203L10.5703 6.52734Z" fill="#00FF00"/>
<path d="M3.62891 3.57031L3.70923 3.62988L3.70955 3.62945L3.62891 3.57031ZM2.94922 4.08203L2.91297 3.98883L2.65756 4.08816L2.91692 4.17667L2.94922 4.08203ZM3.53906 6.65234L3.60419 6.72823L3.60453 6.72793L3.53906 6.65234ZM0.90625 6.65234L0.840825 6.72797L0.841122 6.72823L0.90625 6.65234ZM1.48047 4.08203L1.51254 4.17675L1.77309 4.08853L1.51671 3.98883L1.48047 4.08203ZM0.808594 3.57031L0.727097 3.62827L0.727406 3.62869L0.808594 3.57031ZM1.01172 1.65234L0.944231 1.57855L0.943917 1.57884L1.01172 1.65234ZM3.42578 1.65625L3.35795 1.72973L3.35827 1.73002L3.42578 1.65625ZM3.1875 4.625L3.12031 4.69906L3.12073 4.69944L3.1875 4.625ZM1.24219 6.36328L1.1756 6.43789L1.17605 6.43829L1.24219 6.36328ZM3.07813 1.96094L3.00825 2.03248L3.0091 2.03329L3.07813 1.96094ZM1.35547 1.94922L1.42443 2.02163L1.42446 2.02161L1.35547 1.94922ZM1.35547 3.57812L1.28742 3.65141L1.28786 3.6518L1.35547 3.57812ZM3.08203 3.57812L3.14964 3.6518L3.14968 3.65177L3.08203 3.57812ZM3.78672 2.77734C3.78672 3.05063 3.70739 3.29418 3.54827 3.51118L3.70955 3.62945C3.89417 3.37769 3.98672 3.0926 3.98672 2.77734H3.78672ZM3.54858 3.51075C3.38846 3.72666 3.1775 3.88596 2.91297 3.98883L2.98546 4.17523C3.28344 4.05935 3.5256 3.8775 3.70923 3.62988L3.54858 3.51075ZM2.91692 4.17667C3.22852 4.28301 3.47492 4.45344 3.65988 4.68707L3.81669 4.56293C3.60581 4.29656 3.32617 4.10501 2.98152 3.98739L2.91692 4.17667ZM3.65988 4.68707C3.84337 4.91886 3.93516 5.18589 3.93516 5.49219H4.13516C4.13516 5.14224 4.02902 4.83114 3.81669 4.56293L3.65988 4.68707ZM3.93516 5.49219C3.93516 5.95383 3.77976 6.31157 3.47359 6.57676L3.60453 6.72793C3.95983 6.4202 4.13516 6.0045 4.13516 5.49219H3.93516ZM3.47393 6.57646C3.16551 6.84117 2.75308 6.97812 2.22656 6.97812V7.17813C2.78859 7.17813 3.25116 7.03122 3.60419 6.72823L3.47393 6.57646ZM2.22656 6.97812C1.69456 6.97812 1.27964 6.84103 0.971378 6.57646L0.841122 6.72823C1.19432 7.03137 1.65961 7.17813 2.22656 7.17813V6.97812ZM0.971674 6.57672C0.668472 6.31442 0.514063 5.9569 0.514063 5.49219H0.314062C0.314062 6.00664 0.487778 6.42256 0.840826 6.72797L0.971674 6.57672ZM0.514063 5.49219C0.514063 5.19046 0.602358 4.92391 0.77912 4.68904L0.619318 4.56877C0.415871 4.83911 0.314062 5.14808 0.314062 5.49219H0.514063ZM0.77912 4.68904C0.955869 4.45418 1.19879 4.28298 1.51254 4.17675L1.4484 3.98731C1.10069 4.10504 0.822777 4.29842 0.619318 4.56877L0.77912 4.68904ZM1.51671 3.98883C1.25242 3.88605 1.04449 3.72708 0.889782 3.51193L0.727406 3.62869C0.906028 3.87709 1.14602 4.05926 1.44422 4.17523L1.51671 3.98883ZM0.890089 3.51236C0.735755 3.29533 0.658594 3.05136 0.658594 2.77734H0.458594C0.458594 3.09187 0.548099 3.37655 0.727098 3.62826L0.890089 3.51236ZM0.658594 2.77734C0.658594 2.3294 0.801058 1.98271 1.07952 1.72585L0.943917 1.57884C0.618213 1.87927 0.458594 2.28258 0.458594 2.77734H0.658594ZM1.07921 1.72614C1.36174 1.46775 1.73818 1.33438 2.21875 1.33438V1.13437C1.69932 1.13437 1.27107 1.27964 0.944232 1.57855L1.07921 1.72614ZM2.21875 1.33438C2.69907 1.33438 3.07539 1.46891 3.35795 1.72973L3.49361 1.58277C3.16679 1.28109 2.73843 1.13437 2.21875 1.13437V1.33438ZM3.35827 1.73002C3.64228 1.98996 3.78672 2.33555 3.78672 2.77734H3.98672C3.98672 2.28684 3.82387 1.88504 3.4933 1.58248L3.35827 1.73002ZM3.66641 5.49609C3.66641 5.11493 3.52905 4.79701 3.25427 4.55056L3.12073 4.69944C3.35116 4.90612 3.46641 5.16893 3.46641 5.49609H3.66641ZM3.25469 4.55094C2.98089 4.30254 2.63276 4.18125 2.21875 4.18125V4.38125C2.59119 4.38125 2.8889 4.48913 3.12031 4.69906L3.25469 4.55094ZM2.21875 4.18125C1.80538 4.18125 1.45861 4.29955 1.18718 4.5427L1.32063 4.69167C1.54921 4.48691 1.84566 4.38125 2.21875 4.38125V4.18125ZM1.18718 4.5427C0.914207 4.78724 0.778906 5.10819 0.778906 5.49609H0.978906C0.978906 5.16003 1.09361 4.89505 1.32063 4.69167L1.18718 4.5427ZM0.778906 5.49609C0.778906 5.88291 0.909572 6.20046 1.1756 6.43789L1.30877 6.28867C1.09043 6.09381 0.978906 5.83324 0.978906 5.49609H0.778906ZM1.17605 6.43829C1.44119 6.67207 1.79522 6.78359 2.22656 6.78359V6.58359C1.82978 6.58359 1.52756 6.48158 1.30832 6.28827L1.17605 6.43829ZM2.22656 6.78359C2.6483 6.78359 2.99784 6.67166 3.26496 6.43864L3.13348 6.28792C2.91102 6.48199 2.61212 6.58359 2.22656 6.58359V6.78359ZM3.26496 6.43864C3.53433 6.20366 3.66641 5.88562 3.66641 5.49609H3.46641C3.46641 5.83574 3.3537 6.09582 3.13348 6.28792L3.26496 6.43864ZM3.51797 2.77344C3.51797 2.4218 3.39436 2.12442 3.14715 1.88858L3.0091 2.03329C3.21502 2.22974 3.31797 2.47404 3.31797 2.77344H3.51797ZM3.148 1.8894C2.90315 1.65024 2.59056 1.53281 2.21875 1.53281V1.73281C2.54486 1.73281 2.80519 1.83413 3.00825 2.03248L3.148 1.8894ZM2.21875 1.53281C1.84326 1.53281 1.52937 1.64537 1.28648 1.87683L1.42446 2.02161C1.62428 1.8312 1.8859 1.73281 2.21875 1.73281V1.53281ZM1.2865 1.8768C1.04529 2.10654 0.927344 2.40881 0.927344 2.77344H1.12734C1.12734 2.45577 1.22815 2.20857 1.42443 2.02163L1.2865 1.8768ZM0.927344 2.77344C0.927344 3.13099 1.04581 3.42705 1.28742 3.6514L1.42351 3.50485C1.22763 3.32295 1.12734 3.08255 1.12734 2.77344H0.927344ZM1.28786 3.6518C1.53102 3.87495 1.84582 3.98281 2.22266 3.98281V3.78281C1.88595 3.78281 1.62262 3.68755 1.42308 3.50445L1.28786 3.6518ZM2.22266 3.98281C2.59472 3.98281 2.90675 3.87469 3.14964 3.6518L3.01442 3.50445C2.8146 3.68781 2.55372 3.78281 2.22266 3.78281V3.98281ZM3.14968 3.65177C3.39619 3.42533 3.51797 3.12942 3.51797 2.77344H3.31797C3.31797 3.07891 3.21579 3.31947 3.01438 3.50448L3.14968 3.65177ZM7.96094 6.45703L8.04245 6.51496L8.04262 6.51472L7.96094 6.45703ZM5.36719 6.46875L5.28651 6.52784L5.28669 6.52809L5.36719 6.46875ZM4.90625 4.6875H4.80624L4.80626 4.6885L4.90625 4.6875ZM7.94141 1.83203L7.86122 1.89178L7.86141 1.89203L7.94141 1.83203ZM8.40234 3.58594L8.50235 3.58594L8.50233 3.58459L8.40234 3.58594ZM7.61328 2.13281L7.52878 2.18629L7.52908 2.18676L7.61328 2.13281ZM5.37109 3.5625L5.27109 3.56168V3.5625H5.37109ZM5.69922 6.16797L5.61485 6.22166L5.61514 6.22211L5.69922 6.16797ZM7.60547 6.17969L7.52137 6.12558L7.52108 6.12604L7.60547 6.17969ZM7.93359 4.70312L8.03359 4.70353V4.70312H7.93359ZM8.30234 4.62891C8.30234 5.42128 8.15655 6.00671 7.87925 6.39934L8.04262 6.51472C8.35387 6.07402 8.50234 5.44069 8.50234 4.62891H8.30234ZM7.87943 6.3991C7.60653 6.78309 7.20548 6.97812 6.66016 6.97812V7.17813C7.26066 7.17813 7.72681 6.95909 8.04245 6.51496L7.87943 6.3991ZM6.66016 6.97812C6.12523 6.97812 5.72595 6.78689 5.44768 6.40941L5.28669 6.52809C5.60738 6.96311 6.07009 7.17813 6.66016 7.17813V6.97812ZM5.44786 6.40966C5.16576 6.02453 5.01395 5.45474 5.00624 4.6865L4.80626 4.6885C4.81417 5.47755 4.96966 6.09526 5.28651 6.52784L5.44786 6.40966ZM5.00625 4.6875V3.66797H4.80625V4.6875H5.00625ZM5.00625 3.66797C5.00625 2.87828 5.15332 2.29723 5.43266 1.91007L5.27047 1.79305C4.95606 2.22881 4.80625 2.8587 4.80625 3.66797H5.00625ZM5.43266 1.91007C5.70819 1.52819 6.10955 1.33438 6.65234 1.33438V1.13437C6.05451 1.13437 5.58868 1.35202 5.27047 1.79305L5.43266 1.91007ZM6.65234 1.33438C7.18804 1.33438 7.5859 1.52227 7.86122 1.89178L8.02159 1.77228C7.70316 1.34491 7.24165 1.13437 6.65234 1.13437V1.33438ZM7.86141 1.89203C8.14022 2.26379 8.29207 2.82391 8.30235 3.58728L8.50233 3.58459C8.49178 2.80109 8.33634 2.19194 8.02141 1.77203L7.86141 1.89203ZM8.30234 3.58594V4.62891H8.50234V3.58594H8.30234ZM8.03359 3.60937C8.03359 2.95031 7.92603 2.43562 7.69748 2.07887L7.52908 2.18676C7.72762 2.49667 7.83359 2.96636 7.83359 3.60937H8.03359ZM7.69778 2.07934C7.46664 1.71408 7.11265 1.53281 6.65234 1.53281V1.73281C7.05141 1.73281 7.33805 1.88488 7.52878 2.18629L7.69778 2.07934ZM6.65234 1.53281C6.20012 1.53281 5.84939 1.70985 5.6156 2.06624L5.78283 2.17594C5.97613 1.88129 6.26082 1.73281 6.65234 1.73281V1.53281ZM5.6156 2.06624C5.3868 2.41504 5.27637 2.91803 5.2711 3.56168L5.47109 3.56332C5.47623 2.93614 5.58456 2.47819 5.78283 2.17594L5.6156 2.06624ZM5.27109 3.5625V4.67969H5.47109V3.5625H5.27109ZM5.27109 4.67969C5.27109 5.33688 5.38151 5.85498 5.61485 6.22166L5.78358 6.11428C5.57943 5.79346 5.47109 5.31937 5.47109 4.67969H5.27109ZM5.61514 6.22211C5.85546 6.59531 6.20793 6.78359 6.66016 6.78359V6.58359C6.27384 6.58359 5.98568 6.42812 5.7833 6.11383L5.61514 6.22211ZM6.66016 6.78359C7.1091 6.78359 7.45696 6.59973 7.68986 6.23333L7.52108 6.12604C7.3269 6.43152 7.04454 6.58359 6.66016 6.58359V6.78359ZM7.68957 6.2338C7.9206 5.87472 8.03096 5.36027 8.03359 4.70353L7.83359 4.70272C7.83102 5.34285 7.72263 5.81278 7.52137 6.12558L7.68957 6.2338ZM8.03359 4.70312V3.60937H7.83359V4.70312H8.03359ZM9.61328 1.56641L9.54049 1.49784L9.54046 1.49787L9.61328 1.56641ZM11.2109 1.56641L11.1377 1.63452L11.1385 1.63539L11.2109 1.56641ZM11.2148 3.54297L11.1416 3.47486L11.1416 3.47489L11.2148 3.54297ZM9.87891 3.30469L9.80271 3.36946L9.80334 3.37018L9.87891 3.30469ZM10.9492 3.30469L10.8725 3.24055L10.8724 3.24067L10.9492 3.30469ZM10.9453 1.80859L10.8692 1.87347L10.8697 1.87409L10.9453 1.80859ZM9.88281 1.80469L9.80786 1.73848L9.80724 1.73919L9.88281 1.80469ZM12.4766 4.76562L12.4042 4.69664L12.4037 4.69709L12.4766 4.76562ZM14.0703 4.76562L13.9979 4.83462L13.9988 4.83548L14.0703 4.76562ZM14.0742 6.75L14.0018 6.68101L14.0014 6.68146L14.0742 6.75ZM12.4805 6.75391L12.4081 6.8229L12.4089 6.82376L12.4805 6.75391ZM12.7383 6.51172L12.6621 6.57649L12.6627 6.57721L12.7383 6.51172ZM13.8125 6.51172L13.7358 6.44758L13.7357 6.4477L13.8125 6.51172ZM13.8086 5.00391L13.7329 5.06931L13.7341 5.07066L13.8086 5.00391ZM12.7422 5.00391L12.6672 4.93779L12.7422 5.00391ZM10.5703 6.52734L10.5164 6.61157L10.6016 6.66607L10.6551 6.58033L10.5703 6.52734ZM10.2773 6.33984L10.1925 6.28686L10.1401 6.37075L10.2234 6.42407L10.2773 6.33984ZM13.0547 1.89453L13.1086 1.8103L13.0234 1.75581L12.9699 1.84154L13.0547 1.89453ZM13.3477 2.08203L13.4325 2.13502L13.4849 2.05113L13.4016 1.9978L13.3477 2.08203ZM9.40078 2.40625C9.40078 2.09004 9.49727 1.83558 9.6861 1.63494L9.54046 1.49787C9.31263 1.73994 9.20078 2.04538 9.20078 2.40625H9.40078ZM9.68608 1.63497C9.87709 1.43216 10.1172 1.33047 10.4141 1.33047V1.13047C10.0651 1.13047 9.77135 1.25273 9.54049 1.49784L9.68608 1.63497ZM10.4141 1.33047C10.7109 1.33047 10.9495 1.43214 11.1377 1.63452L11.2842 1.4983C11.0558 1.25276 10.763 1.13047 10.4141 1.13047V1.33047ZM11.1385 1.63539C11.329 1.83521 11.4273 2.09684 11.4273 2.42969H11.6273C11.6273 2.0542 11.5148 1.74031 11.2833 1.49742L11.1385 1.63539ZM11.4273 2.42969V2.70703H11.6273V2.42969H11.4273ZM11.4273 2.70703C11.4273 3.01756 11.3311 3.27114 11.1416 3.47486L11.2881 3.61108C11.5152 3.36688 11.6273 3.06317 11.6273 2.70703H11.4273ZM11.1416 3.47489C10.9562 3.67437 10.7191 3.775 10.4219 3.775V3.975C10.7704 3.975 11.062 3.85427 11.2881 3.61105L11.1416 3.47489ZM10.4219 3.775C10.1271 3.775 9.88639 3.67549 9.69265 3.47702L9.54954 3.61673C9.78288 3.85576 10.0761 3.975 10.4219 3.975V3.775ZM9.69265 3.47702C9.50051 3.2802 9.40078 3.01788 9.40078 2.67969H9.20078C9.20078 3.06025 9.31459 3.37605 9.54954 3.61673L9.69265 3.47702ZM9.40078 2.67969V2.40625H9.20078V2.67969H9.40078ZM9.57969 2.70703C9.57969 2.96844 9.65184 3.19196 9.80271 3.36945L9.9551 3.23992C9.84034 3.10492 9.77969 2.93 9.77969 2.70703L9.57969 2.70703ZM9.80334 3.37018C9.9597 3.5506 10.1694 3.63906 10.4219 3.63906V3.43906C10.2212 3.43906 10.0689 3.37127 9.95448 3.23919L9.80334 3.37018ZM10.4219 3.63906C10.6699 3.63906 10.875 3.54995 11.026 3.36871L10.8724 3.24067C10.763 3.37193 10.6165 3.43906 10.4219 3.43906V3.63906ZM11.0259 3.36883C11.1767 3.18845 11.2484 2.95979 11.2484 2.69141H11.0484C11.0484 2.92302 10.9873 3.10322 10.8725 3.24055L11.0259 3.36883ZM11.2484 2.69141V2.40625H11.0484V2.69141H11.2484ZM11.2484 2.40625C11.2484 2.14436 11.1747 1.92057 11.0209 1.7431L10.8697 1.87409C10.9868 2.00912 11.0484 2.18377 11.0484 2.40625H11.2484ZM11.0214 1.74372C10.866 1.56138 10.6605 1.47031 10.4141 1.47031V1.67031C10.6051 1.67031 10.7538 1.73809 10.8692 1.87347L11.0214 1.74372ZM10.4141 1.47031C10.1704 1.47031 9.96565 1.55986 9.80787 1.73848L9.95776 1.87089C10.076 1.73701 10.2254 1.67031 10.4141 1.67031V1.47031ZM9.80724 1.73919C9.65231 1.91796 9.57969 2.15165 9.57969 2.42969L9.77969 2.42969C9.77969 2.18689 9.84248 2.00391 9.95838 1.87018L9.80724 1.73919ZM9.57969 2.42969V2.70703L9.77969 2.70703V2.42969L9.57969 2.42969ZM12.2641 5.60547C12.2641 5.28926 12.3605 5.0348 12.5494 4.83416L12.4037 4.69709C12.1759 4.93916 12.0641 5.2446 12.0641 5.60547H12.2641ZM12.549 4.83461C12.74 4.6341 12.979 4.53359 13.2734 4.53359V4.33359C12.9272 4.33359 12.635 4.45445 12.4042 4.69664L12.549 4.83461ZM13.2734 4.53359C13.5679 4.53359 13.8068 4.6341 13.9979 4.83461L14.1427 4.69664C13.9119 4.45445 13.6196 4.33359 13.2734 4.33359V4.53359ZM13.9988 4.83548C14.1909 5.0323 14.2906 5.29462 14.2906 5.63281H14.4906C14.4906 5.25225 14.3768 4.93645 14.1419 4.69577L13.9988 4.83548ZM14.2906 5.63281V5.91016H14.4906V5.63281H14.2906ZM14.2906 5.91016C14.2906 6.22601 14.1931 6.48032 14.0018 6.68101L14.1466 6.81899C14.3772 6.57697 14.4906 6.27139 14.4906 5.91016H14.2906ZM14.0014 6.68146C13.8131 6.88156 13.5757 6.98203 13.2813 6.98203V7.18203C13.6275 7.18203 13.9187 7.06115 14.147 6.81854L14.0014 6.68146ZM13.2813 6.98203C12.9864 6.98203 12.7458 6.88252 12.552 6.68405L12.4089 6.82376C12.6423 7.06279 12.9354 7.18203 13.2813 7.18203V6.98203ZM12.5529 6.68492C12.3624 6.4851 12.2641 6.22347 12.2641 5.89062H12.0641C12.0641 6.26611 12.1766 6.58 12.4081 6.82289L12.5529 6.68492ZM12.2641 5.89062V5.60547H12.0641V5.89062H12.2641ZM12.4391 5.91016C12.4391 6.17387 12.5111 6.3988 12.6621 6.57648L12.8145 6.44695C12.6999 6.31214 12.6391 6.13603 12.6391 5.91016H12.4391ZM12.6627 6.57721C12.8191 6.75764 13.0288 6.84609 13.2813 6.84609V6.64609C13.0806 6.64609 12.9283 6.5783 12.8139 6.44623L12.6627 6.57721ZM13.2813 6.84609C13.5315 6.84609 13.738 6.75727 13.8893 6.57574L13.7357 6.4477C13.6265 6.57866 13.4789 6.64609 13.2813 6.64609V6.84609ZM13.8892 6.57586C14.0403 6.39512 14.1117 6.16364 14.1117 5.89062H13.9117C13.9117 6.12802 13.8503 6.31061 13.7358 6.44758L13.8892 6.57586ZM14.1117 5.89062V5.60547H13.9117V5.89062H14.1117ZM14.1117 5.60547C14.1117 5.33681 14.0385 5.11055 13.8831 4.93715L13.7341 5.07066C13.8495 5.19935 13.9117 5.37413 13.9117 5.60547H14.1117ZM13.8842 4.93851C13.7303 4.76047 13.5231 4.67344 13.2734 4.67344V4.87344C13.4717 4.87344 13.6212 4.94005 13.7329 5.0693L13.8842 4.93851ZM13.2734 4.67344C13.0282 4.67344 12.823 4.761 12.6672 4.93779L12.8172 5.07003C12.9322 4.93952 13.0812 4.87344 13.2734 4.87344V4.67344ZM12.6672 4.93779C12.5118 5.11406 12.4391 5.34545 12.4391 5.62109H12.6391C12.6391 5.38111 12.7017 5.20105 12.8172 5.07003L12.6672 4.93779ZM12.4391 5.62109V5.91016H12.6391V5.62109H12.4391ZM10.6242 6.44312L10.3312 6.25562L10.2234 6.42407L10.5164 6.61157L10.6242 6.44312ZM10.3622 6.39283L13.1395 1.94752L12.9699 1.84154L10.1925 6.28686L10.3622 6.39283ZM13.0008 1.97876L13.2938 2.16626L13.4016 1.9978L13.1086 1.8103L13.0008 1.97876ZM13.2628 2.02904L10.4855 6.47436L10.6551 6.58033L13.4325 2.13502L13.2628 2.02904Z" fill="#00FF00"/>
</svg>
