<svg width="73" height="15" viewBox="0 0 73 15" fill="none" xmlns="http://www.w3.org/2000/svg">
<rect y="7" width="73" height="8" fill="#00FF00"/>
<path d="M3.29297 1.26953L3.29297 1.67969H3.23828C2.55859 1.67969 2.02344 1.88021 1.63281 2.28125C1.24219 2.67969 1.02604 3.23438 0.984375 3.94531C1.14063 3.72917 1.33984 3.5625 1.58203 3.44531C1.82422 3.32552 2.09505 3.26562 2.39453 3.26562C2.89453 3.26562 3.29167 3.4388 3.58594 3.78516C3.88281 4.12891 4.03125 4.57943 4.03125 5.13672C4.03125 5.50651 3.96224 5.83984 3.82422 6.13672C3.6862 6.43359 3.48828 6.66536 3.23047 6.83203C2.97266 6.99609 2.67839 7.07812 2.34766 7.07812C1.80339 7.07812 1.36068 6.88151 1.01953 6.48828C0.678385 6.09245 0.507813 5.58203 0.507813 4.95703V4.48828C0.507813 3.47005 0.739583 2.68229 1.20313 2.125C1.66667 1.5651 2.32422 1.27995 3.17578 1.26953H3.29297ZM2.32031 3.66797C2.02344 3.66797 1.74609 3.75651 1.48828 3.93359C1.23307 4.10807 1.0625 4.33073 0.976563 4.60156V5C0.976563 5.49479 1.10286 5.89844 1.35547 6.21094C1.61068 6.52344 1.94141 6.67969 2.34766 6.67969C2.71224 6.67969 3.00651 6.53516 3.23047 6.24609C3.45703 5.95703 3.57031 5.59245 3.57031 5.15234C3.57031 4.70443 3.45703 4.34505 3.23047 4.07422C3.00651 3.80339 2.70313 3.66797 2.32031 3.66797ZM8.40234 4.62891C8.40234 5.43099 8.25521 6.04036 7.96094 6.45703C7.66667 6.87109 7.23307 7.07812 6.66016 7.07812C6.09766 7.07812 5.66667 6.875 5.36719 6.46875C5.06771 6.0599 4.91406 5.46615 4.90625 4.6875V3.66797C4.90625 2.86849 5.05469 2.26302 5.35156 1.85156C5.64844 1.4401 6.08203 1.23437 6.65234 1.23437C7.21484 1.23437 7.64453 1.43359 7.94141 1.83203C8.23828 2.22786 8.39193 2.8125 8.40234 3.58594V4.62891ZM7.93359 3.60937C7.93359 2.95833 7.82682 2.46615 7.61328 2.13281C7.40234 1.79948 7.08203 1.63281 6.65234 1.63281C6.23047 1.63281 5.91276 1.79557 5.69922 2.12109C5.48568 2.44661 5.3763 2.92708 5.37109 3.5625V4.67969C5.37109 5.32812 5.48047 5.82422 5.69922 6.16797C5.92057 6.51172 6.24089 6.68359 6.66016 6.68359C7.07682 6.68359 7.39193 6.51562 7.60547 6.17969C7.82161 5.84375 7.93099 5.35156 7.93359 4.70312V3.60937ZM9.30078 2.40625C9.30078 2.06771 9.40495 1.78776 9.61328 1.56641C9.82422 1.34245 10.0911 1.23047 10.4141 1.23047C10.737 1.23047 11.0026 1.34245 11.2109 1.56641C11.4219 1.78776 11.5273 2.07552 11.5273 2.42969V2.70703C11.5273 3.04036 11.4232 3.31901 11.2148 3.54297C11.0091 3.76432 10.7448 3.875 10.4219 3.875C10.1016 3.875 9.83464 3.76562 9.62109 3.54687C9.40755 3.32812 9.30078 3.03906 9.30078 2.67969V2.40625ZM9.67969 2.70703C9.67969 2.94922 9.74609 3.14844 9.87891 3.30469C10.0143 3.46094 10.1953 3.53906 10.4219 3.53906C10.6432 3.53906 10.819 3.46094 10.9492 3.30469C11.082 3.14583 11.1484 2.94141 11.1484 2.69141V2.40625C11.1484 2.16406 11.0807 1.96484 10.9453 1.80859C10.8099 1.64974 10.6328 1.57031 10.4141 1.57031C10.1979 1.57031 10.0208 1.64844 9.88281 1.80469C9.7474 1.96094 9.67969 2.16927 9.67969 2.42969V2.70703ZM12.1641 5.60547C12.1641 5.26693 12.2682 4.98698 12.4766 4.76562C12.6875 4.54427 12.9531 4.43359 13.2734 4.43359C13.5938 4.43359 13.8594 4.54427 14.0703 4.76562C14.2839 4.98437 14.3906 5.27344 14.3906 5.63281V5.91016C14.3906 6.2487 14.2852 6.52865 14.0742 6.75C13.8659 6.97135 13.6016 7.08203 13.2813 7.08203C12.9609 7.08203 12.694 6.97266 12.4805 6.75391C12.2695 6.53255 12.1641 6.24479 12.1641 5.89062V5.60547ZM12.5391 5.91016C12.5391 6.15495 12.6055 6.35547 12.7383 6.51172C12.8737 6.66797 13.0547 6.74609 13.2813 6.74609C13.5052 6.74609 13.6823 6.66797 13.8125 6.51172C13.9453 6.35286 14.0117 6.14583 14.0117 5.89062V5.60547C14.0117 5.35547 13.944 5.15495 13.8086 5.00391C13.6758 4.85026 13.4974 4.77344 13.2734 4.77344C13.0547 4.77344 12.8776 4.85026 12.7422 5.00391C12.6068 5.15755 12.5391 5.36328 12.5391 5.62109V5.91016ZM10.5703 6.52734L10.2773 6.33984L13.0547 1.89453L13.3477 2.08203L10.5703 6.52734Z" fill="#00FF00"/>
<path d="M3.29297 1.26953H3.39297V1.16953H3.29297V1.26953ZM3.29297 1.67969V1.77969H3.39297V1.67969H3.29297ZM1.63281 2.28125L1.70422 2.35126L1.70445 2.35102L1.63281 2.28125ZM0.984375 3.94531L0.884546 3.93946L0.864479 4.28186L1.06542 4.0039L0.984375 3.94531ZM1.58203 3.44531L1.62559 3.53533L1.62637 3.53495L1.58203 3.44531ZM3.58594 3.78516L3.50973 3.84991L3.51026 3.85052L3.58594 3.78516ZM3.23047 6.83203L3.28416 6.9164L3.28476 6.91601L3.23047 6.83203ZM1.01953 6.48828L0.943781 6.55357L0.943995 6.55381L1.01953 6.48828ZM1.20313 2.125L1.28001 2.18895L1.28015 2.18877L1.20313 2.125ZM3.17578 1.26953L3.17578 1.16952L3.17456 1.16954L3.17578 1.26953ZM1.48828 3.93359L1.54472 4.01615L1.5449 4.01602L1.48828 3.93359ZM0.976563 4.60156L0.881246 4.57132L0.876562 4.58608V4.60156H0.976563ZM1.35547 6.21094L1.2777 6.2738L1.27802 6.27419L1.35547 6.21094ZM3.23047 6.24609L3.15176 6.1844L3.15142 6.18485L3.23047 6.24609ZM3.23047 4.07422L3.1534 4.13795L3.15377 4.13838L3.23047 4.07422ZM3.19297 1.26953L3.19297 1.67969H3.39297L3.39297 1.26953H3.19297ZM3.29297 1.57969H3.23828V1.77969H3.29297V1.57969ZM3.23828 1.57969C2.5378 1.57969 1.97454 1.78709 1.56118 2.21148L1.70445 2.35102C2.07233 1.97333 2.57939 1.77969 3.23828 1.77969V1.57969ZM1.56141 2.21124C1.14961 2.63127 0.927225 3.21126 0.884546 3.93946L1.0842 3.95116C1.12486 3.25749 1.33476 2.72811 1.70422 2.35126L1.56141 2.21124ZM1.06542 4.0039C1.21188 3.80129 1.39817 3.64537 1.62559 3.53533L1.53848 3.3553C1.28152 3.47963 1.06937 3.65704 0.903333 3.88673L1.06542 4.0039ZM1.62637 3.53495C1.85333 3.42268 2.10874 3.36563 2.39453 3.36563V3.16562C2.08136 3.16562 1.79511 3.22836 1.5377 3.35568L1.62637 3.53495ZM2.39453 3.36563C2.8685 3.36563 3.23651 3.52832 3.50973 3.8499L3.66215 3.72041C3.34683 3.34928 2.92056 3.16562 2.39453 3.16562V3.36563ZM3.51026 3.85052C3.7881 4.17223 3.93125 4.59776 3.93125 5.13672H4.13125C4.13125 4.56109 3.97753 4.08558 3.66162 3.71979L3.51026 3.85052ZM3.93125 5.13672C3.93125 5.49384 3.86467 5.81251 3.73354 6.09456L3.9149 6.17888C4.05981 5.86718 4.13125 5.51918 4.13125 5.13672H3.93125ZM3.73354 6.09456C3.60291 6.37553 3.4171 6.59231 3.17618 6.74805L3.28476 6.91601C3.55946 6.73842 3.76948 6.49166 3.9149 6.17888L3.73354 6.09456ZM3.17678 6.74767C2.93634 6.90068 2.661 6.97812 2.34766 6.97812V7.17813C2.69577 7.17813 3.00898 7.09151 3.28416 6.9164L3.17678 6.74767ZM2.34766 6.97812C1.83087 6.97812 1.41626 6.79297 1.09507 6.42275L0.943995 6.55381C1.3051 6.97005 1.77591 7.17813 2.34766 7.17813V6.97812ZM1.09528 6.423C0.77272 6.04873 0.607813 5.56299 0.607813 4.95703H0.407812C0.407812 5.60107 0.584051 6.13617 0.943782 6.55357L1.09528 6.423ZM0.607813 4.95703V4.48828H0.407812L0.407812 4.95703H0.607813ZM0.607813 4.48828C0.607813 3.48408 0.836447 2.72222 1.28001 2.18895L1.12624 2.06105C0.64272 2.64237 0.407812 3.45602 0.407812 4.48828H0.607813ZM1.28015 2.18877C1.72168 1.65547 2.34922 1.37965 3.177 1.36952L3.17456 1.16954C2.29922 1.18025 1.61165 1.47474 1.1261 2.06123L1.28015 2.18877ZM3.17578 1.36953H3.29297V1.16953H3.17578V1.36953ZM2.32031 3.56797C2.00211 3.56797 1.7052 3.66328 1.43166 3.85117L1.5449 4.01602C1.78699 3.84974 2.04477 3.76797 2.32031 3.76797V3.56797ZM1.43184 3.85104C1.15992 4.03695 0.974545 4.27728 0.881246 4.57132L1.07188 4.63181C1.15046 4.38417 1.30622 4.1792 1.54472 4.01615L1.43184 3.85104ZM0.876562 4.60156V5H1.07656L1.07656 4.60156H0.876562ZM0.876562 5C0.876562 5.51222 1.00762 5.93969 1.2777 6.2738L1.43324 6.14807C1.19811 5.85719 1.07656 5.47736 1.07656 5H0.876562ZM1.27802 6.27419C1.55237 6.61013 1.91162 6.77969 2.34766 6.77969V6.57969C1.97119 6.57969 1.66899 6.43674 1.43292 6.14768L1.27802 6.27419ZM2.34766 6.77969C2.74327 6.77969 3.06669 6.62076 3.30952 6.30734L3.15142 6.18485C2.94633 6.44955 2.68121 6.57969 2.34766 6.57969V6.77969ZM3.30917 6.30778C3.55212 5.99782 3.67031 5.61023 3.67031 5.15234H3.47031C3.47031 5.57467 3.36194 5.91625 3.15176 6.18441L3.30917 6.30778ZM3.67031 5.15234C3.67031 4.68742 3.55246 4.30328 3.30717 4.01006L3.15377 4.13838C3.3616 4.38683 3.47031 4.72143 3.47031 5.15234H3.67031ZM3.30753 4.01049C3.06273 3.71445 2.72991 3.56797 2.32031 3.56797V3.76797C2.67634 3.76797 2.95029 3.89232 3.1534 4.13795L3.30753 4.01049ZM7.96094 6.45703L8.04245 6.51496L8.04262 6.51472L7.96094 6.45703ZM5.36719 6.46875L5.28651 6.52784L5.28669 6.52809L5.36719 6.46875ZM4.90625 4.6875H4.80624L4.80626 4.6885L4.90625 4.6875ZM7.94141 1.83203L7.86122 1.89178L7.86141 1.89203L7.94141 1.83203ZM8.40234 3.58594L8.50235 3.58594L8.50233 3.58459L8.40234 3.58594ZM7.61328 2.13281L7.52878 2.18629L7.52908 2.18676L7.61328 2.13281ZM5.37109 3.5625L5.27109 3.56168V3.5625H5.37109ZM5.69922 6.16797L5.61485 6.22166L5.61514 6.22211L5.69922 6.16797ZM7.60547 6.17969L7.52137 6.12558L7.52108 6.12604L7.60547 6.17969ZM7.93359 4.70312L8.03359 4.70353V4.70312H7.93359ZM8.30234 4.62891C8.30234 5.42128 8.15655 6.00671 7.87925 6.39934L8.04262 6.51472C8.35387 6.07402 8.50234 5.44069 8.50234 4.62891H8.30234ZM7.87943 6.3991C7.60653 6.78309 7.20548 6.97812 6.66016 6.97812V7.17813C7.26066 7.17813 7.72681 6.95909 8.04245 6.51496L7.87943 6.3991ZM6.66016 6.97812C6.12523 6.97812 5.72595 6.78689 5.44768 6.40941L5.28669 6.52809C5.60738 6.96311 6.07009 7.17813 6.66016 7.17813V6.97812ZM5.44786 6.40966C5.16576 6.02453 5.01395 5.45474 5.00624 4.6865L4.80626 4.6885C4.81417 5.47755 4.96966 6.09526 5.28651 6.52784L5.44786 6.40966ZM5.00625 4.6875V3.66797H4.80625V4.6875H5.00625ZM5.00625 3.66797C5.00625 2.87828 5.15332 2.29723 5.43266 1.91007L5.27047 1.79305C4.95606 2.22881 4.80625 2.8587 4.80625 3.66797H5.00625ZM5.43266 1.91007C5.70819 1.52819 6.10955 1.33438 6.65234 1.33438V1.13437C6.05451 1.13437 5.58868 1.35202 5.27047 1.79305L5.43266 1.91007ZM6.65234 1.33438C7.18804 1.33438 7.5859 1.52227 7.86122 1.89178L8.02159 1.77228C7.70316 1.34491 7.24165 1.13437 6.65234 1.13437V1.33438ZM7.86141 1.89203C8.14022 2.26379 8.29207 2.82391 8.30235 3.58728L8.50233 3.58459C8.49178 2.80109 8.33634 2.19194 8.02141 1.77203L7.86141 1.89203ZM8.30234 3.58594V4.62891H8.50234V3.58594H8.30234ZM8.03359 3.60937C8.03359 2.95031 7.92603 2.43562 7.69748 2.07887L7.52908 2.18676C7.72762 2.49667 7.83359 2.96636 7.83359 3.60937H8.03359ZM7.69778 2.07934C7.46664 1.71408 7.11265 1.53281 6.65234 1.53281V1.73281C7.05141 1.73281 7.33805 1.88488 7.52878 2.18629L7.69778 2.07934ZM6.65234 1.53281C6.20012 1.53281 5.84939 1.70985 5.6156 2.06624L5.78283 2.17594C5.97613 1.88129 6.26082 1.73281 6.65234 1.73281V1.53281ZM5.6156 2.06624C5.3868 2.41504 5.27637 2.91803 5.2711 3.56168L5.47109 3.56332C5.47623 2.93614 5.58456 2.47819 5.78283 2.17594L5.6156 2.06624ZM5.27109 3.5625V4.67969H5.47109V3.5625H5.27109ZM5.27109 4.67969C5.27109 5.33688 5.38151 5.85498 5.61485 6.22166L5.78358 6.11428C5.57943 5.79346 5.47109 5.31937 5.47109 4.67969H5.27109ZM5.61514 6.22211C5.85546 6.59531 6.20793 6.78359 6.66016 6.78359V6.58359C6.27384 6.58359 5.98568 6.42812 5.7833 6.11383L5.61514 6.22211ZM6.66016 6.78359C7.1091 6.78359 7.45696 6.59973 7.68986 6.23333L7.52108 6.12604C7.3269 6.43152 7.04454 6.58359 6.66016 6.58359V6.78359ZM7.68957 6.2338C7.9206 5.87472 8.03096 5.36027 8.03359 4.70353L7.83359 4.70272C7.83102 5.34285 7.72263 5.81278 7.52137 6.12558L7.68957 6.2338ZM8.03359 4.70312V3.60937H7.83359V4.70312H8.03359ZM9.61328 1.56641L9.54049 1.49784L9.54046 1.49787L9.61328 1.56641ZM11.2109 1.56641L11.1377 1.63452L11.1385 1.63539L11.2109 1.56641ZM11.2148 3.54297L11.1416 3.47486L11.1416 3.47489L11.2148 3.54297ZM9.87891 3.30469L9.80271 3.36946L9.80334 3.37018L9.87891 3.30469ZM10.9492 3.30469L10.8725 3.24055L10.8724 3.24067L10.9492 3.30469ZM10.9453 1.80859L10.8692 1.87347L10.8697 1.87409L10.9453 1.80859ZM9.88281 1.80469L9.80786 1.73848L9.80724 1.73919L9.88281 1.80469ZM12.4766 4.76562L12.4042 4.69664L12.4037 4.69709L12.4766 4.76562ZM14.0703 4.76562L13.9979 4.83462L13.9988 4.83548L14.0703 4.76562ZM14.0742 6.75L14.0018 6.68101L14.0014 6.68146L14.0742 6.75ZM12.4805 6.75391L12.4081 6.8229L12.4089 6.82376L12.4805 6.75391ZM12.7383 6.51172L12.6621 6.57649L12.6627 6.57721L12.7383 6.51172ZM13.8125 6.51172L13.7358 6.44758L13.7357 6.4477L13.8125 6.51172ZM13.8086 5.00391L13.7329 5.06931L13.7341 5.07066L13.8086 5.00391ZM12.7422 5.00391L12.6672 4.93779L12.7422 5.00391ZM10.5703 6.52734L10.5164 6.61157L10.6016 6.66607L10.6551 6.58033L10.5703 6.52734ZM10.2773 6.33984L10.1925 6.28686L10.1401 6.37075L10.2234 6.42407L10.2773 6.33984ZM13.0547 1.89453L13.1086 1.8103L13.0234 1.75581L12.9699 1.84154L13.0547 1.89453ZM13.3477 2.08203L13.4325 2.13502L13.4849 2.05113L13.4016 1.9978L13.3477 2.08203ZM9.40078 2.40625C9.40078 2.09004 9.49727 1.83558 9.6861 1.63494L9.54046 1.49787C9.31263 1.73994 9.20078 2.04538 9.20078 2.40625H9.40078ZM9.68608 1.63497C9.87709 1.43216 10.1172 1.33047 10.4141 1.33047V1.13047C10.0651 1.13047 9.77135 1.25273 9.54049 1.49784L9.68608 1.63497ZM10.4141 1.33047C10.7109 1.33047 10.9495 1.43214 11.1377 1.63452L11.2842 1.4983C11.0558 1.25276 10.763 1.13047 10.4141 1.13047V1.33047ZM11.1385 1.63539C11.329 1.83521 11.4273 2.09684 11.4273 2.42969H11.6273C11.6273 2.0542 11.5148 1.74031 11.2833 1.49742L11.1385 1.63539ZM11.4273 2.42969V2.70703H11.6273V2.42969H11.4273ZM11.4273 2.70703C11.4273 3.01756 11.3311 3.27114 11.1416 3.47486L11.2881 3.61108C11.5152 3.36688 11.6273 3.06317 11.6273 2.70703H11.4273ZM11.1416 3.47489C10.9562 3.67437 10.7191 3.775 10.4219 3.775V3.975C10.7704 3.975 11.062 3.85427 11.2881 3.61105L11.1416 3.47489ZM10.4219 3.775C10.1271 3.775 9.88639 3.67549 9.69265 3.47702L9.54954 3.61673C9.78288 3.85576 10.0761 3.975 10.4219 3.975V3.775ZM9.69265 3.47702C9.50051 3.2802 9.40078 3.01788 9.40078 2.67969H9.20078C9.20078 3.06025 9.31459 3.37605 9.54954 3.61673L9.69265 3.47702ZM9.40078 2.67969V2.40625H9.20078V2.67969H9.40078ZM9.57969 2.70703C9.57969 2.96844 9.65184 3.19196 9.80271 3.36945L9.9551 3.23992C9.84034 3.10492 9.77969 2.93 9.77969 2.70703L9.57969 2.70703ZM9.80334 3.37018C9.9597 3.5506 10.1694 3.63906 10.4219 3.63906V3.43906C10.2212 3.43906 10.0689 3.37127 9.95448 3.23919L9.80334 3.37018ZM10.4219 3.63906C10.6699 3.63906 10.875 3.54995 11.026 3.36871L10.8724 3.24067C10.763 3.37193 10.6165 3.43906 10.4219 3.43906V3.63906ZM11.0259 3.36883C11.1767 3.18845 11.2484 2.95979 11.2484 2.69141H11.0484C11.0484 2.92302 10.9873 3.10322 10.8725 3.24055L11.0259 3.36883ZM11.2484 2.69141V2.40625H11.0484V2.69141H11.2484ZM11.2484 2.40625C11.2484 2.14436 11.1747 1.92057 11.0209 1.7431L10.8697 1.87409C10.9868 2.00912 11.0484 2.18377 11.0484 2.40625H11.2484ZM11.0214 1.74372C10.866 1.56138 10.6605 1.47031 10.4141 1.47031V1.67031C10.6051 1.67031 10.7538 1.73809 10.8692 1.87347L11.0214 1.74372ZM10.4141 1.47031C10.1704 1.47031 9.96565 1.55986 9.80787 1.73848L9.95776 1.87089C10.076 1.73701 10.2254 1.67031 10.4141 1.67031V1.47031ZM9.80724 1.73919C9.65231 1.91796 9.57969 2.15165 9.57969 2.42969L9.77969 2.42969C9.77969 2.18689 9.84248 2.00391 9.95838 1.87018L9.80724 1.73919ZM9.57969 2.42969V2.70703L9.77969 2.70703V2.42969L9.57969 2.42969ZM12.2641 5.60547C12.2641 5.28926 12.3605 5.0348 12.5494 4.83416L12.4037 4.69709C12.1759 4.93916 12.0641 5.2446 12.0641 5.60547H12.2641ZM12.549 4.83461C12.74 4.6341 12.979 4.53359 13.2734 4.53359V4.33359C12.9272 4.33359 12.635 4.45445 12.4042 4.69664L12.549 4.83461ZM13.2734 4.53359C13.5679 4.53359 13.8068 4.6341 13.9979 4.83461L14.1427 4.69664C13.9119 4.45445 13.6196 4.33359 13.2734 4.33359V4.53359ZM13.9988 4.83548C14.1909 5.0323 14.2906 5.29462 14.2906 5.63281H14.4906C14.4906 5.25225 14.3768 4.93645 14.1419 4.69577L13.9988 4.83548ZM14.2906 5.63281V5.91016H14.4906V5.63281H14.2906ZM14.2906 5.91016C14.2906 6.22601 14.1931 6.48032 14.0018 6.68101L14.1466 6.81899C14.3772 6.57697 14.4906 6.27139 14.4906 5.91016H14.2906ZM14.0014 6.68146C13.8131 6.88156 13.5757 6.98203 13.2813 6.98203V7.18203C13.6275 7.18203 13.9187 7.06115 14.147 6.81854L14.0014 6.68146ZM13.2813 6.98203C12.9864 6.98203 12.7458 6.88252 12.552 6.68405L12.4089 6.82376C12.6423 7.06279 12.9354 7.18203 13.2813 7.18203V6.98203ZM12.5529 6.68492C12.3624 6.4851 12.2641 6.22347 12.2641 5.89062H12.0641C12.0641 6.26611 12.1766 6.58 12.4081 6.82289L12.5529 6.68492ZM12.2641 5.89062V5.60547H12.0641V5.89062H12.2641ZM12.4391 5.91016C12.4391 6.17387 12.5111 6.3988 12.6621 6.57648L12.8145 6.44695C12.6999 6.31214 12.6391 6.13603 12.6391 5.91016H12.4391ZM12.6627 6.57721C12.8191 6.75764 13.0288 6.84609 13.2813 6.84609V6.64609C13.0806 6.64609 12.9283 6.5783 12.8139 6.44623L12.6627 6.57721ZM13.2813 6.84609C13.5315 6.84609 13.738 6.75727 13.8893 6.57574L13.7357 6.4477C13.6265 6.57866 13.4789 6.64609 13.2813 6.64609V6.84609ZM13.8892 6.57586C14.0403 6.39512 14.1117 6.16364 14.1117 5.89062H13.9117C13.9117 6.12802 13.8503 6.31061 13.7358 6.44758L13.8892 6.57586ZM14.1117 5.89062V5.60547H13.9117V5.89062H14.1117ZM14.1117 5.60547C14.1117 5.33681 14.0385 5.11055 13.8831 4.93715L13.7341 5.07066C13.8495 5.19935 13.9117 5.37413 13.9117 5.60547H14.1117ZM13.8842 4.93851C13.7303 4.76047 13.5231 4.67344 13.2734 4.67344V4.87344C13.4717 4.87344 13.6212 4.94005 13.7329 5.0693L13.8842 4.93851ZM13.2734 4.67344C13.0282 4.67344 12.823 4.761 12.6672 4.93779L12.8172 5.07003C12.9322 4.93952 13.0812 4.87344 13.2734 4.87344V4.67344ZM12.6672 4.93779C12.5118 5.11406 12.4391 5.34545 12.4391 5.62109H12.6391C12.6391 5.38111 12.7017 5.20105 12.8172 5.07003L12.6672 4.93779ZM12.4391 5.62109V5.91016H12.6391V5.62109H12.4391ZM10.6242 6.44312L10.3312 6.25562L10.2234 6.42407L10.5164 6.61157L10.6242 6.44312ZM10.3622 6.39283L13.1395 1.94752L12.9699 1.84154L10.1925 6.28686L10.3622 6.39283ZM13.0008 1.97876L13.2938 2.16626L13.4016 1.9978L13.1086 1.8103L13.0008 1.97876ZM13.2628 2.02904L10.4855 6.47436L10.6551 6.58033L13.4325 2.13502L13.2628 2.02904Z" fill="#00FF00"/>
</svg>
