<svg width="32" height="11" viewBox="0 0 32 11" fill="none" xmlns="http://www.w3.org/2000/svg">
<path d="M0.72468 5.1688L3.14028 5.1688L3.14028 2.84714L0.72468 2.84714L0.72468 5.1688ZM0.72468 10L3.14028 10L3.14028 7.69176L0.72468 7.69176L0.72468 10ZM19.5913 10L18.1822 0.605999L15.6056 0.605999L13.3779 5.71902L11.1636 0.605999L8.57349 0.605999L7.15097 10L9.78129 10L10.506 4.60516L12.9887 10.0268H13.7536L16.2497 4.59174L16.9744 10L19.5913 10ZM31.9981 0.605999L29.1396 0.605999L27.4219 4.00126L25.7041 0.605999L22.8322 0.605999L26.0933 6.32292L26.0933 10L28.7236 10L28.7236 6.33634L31.9981 0.605999Z" fill="#00FF00"/>
</svg>
