<svg width="188" height="42" viewBox="0 0 188 42" fill="none" xmlns="http://www.w3.org/2000/svg">
<path d="M2.58398 40.9414C3.06445 40.3906 3.47461 39.8164 3.81445 39.2188C4.16602 38.6211 4.3418 38.0527 4.3418 37.5137C4.3418 36.6113 4.20117 35.8027 3.91992 35.0879C3.45117 34.959 3.05859 34.7188 2.74219 34.3672C2.42578 34.0039 2.26758 33.5 2.26758 32.8555C2.26758 32.2109 2.47266 31.6836 2.88281 31.2734C3.29297 30.8516 3.76758 30.6406 4.30664 30.6406C4.85742 30.6406 5.29688 30.7109 5.625 30.8516C5.96484 30.9805 6.25781 31.1914 6.50391 31.4844C7.05469 32.1406 7.33008 33.0898 7.33008 34.332C7.33008 36.9219 6.24023 39.377 4.06055 41.6973L2.58398 40.9414ZM3.69141 18.3008C3.98438 18.1719 4.29492 18.1074 4.62305 18.1074C4.96289 18.1074 5.2793 18.1719 5.57227 18.3008C5.86523 18.418 6.11719 18.582 6.32812 18.793C6.78516 19.25 7.01367 19.8184 7.01367 20.498C7.01367 21.5527 6.5332 22.2734 5.57227 22.6602C5.2793 22.7773 4.96289 22.8359 4.62305 22.8359C4.29492 22.8359 3.98438 22.7773 3.69141 22.6602C3.39844 22.543 3.14062 22.3789 2.91797 22.168C2.46094 21.7344 2.23242 21.1777 2.23242 20.498C2.23242 19.4316 2.71875 18.6992 3.69141 18.3008ZM26.5605 13.9062C26.5605 13.0391 26.4727 12.4824 26.2969 12.2363C26.1211 11.9785 25.957 11.8145 25.8047 11.7441C25.6523 11.6738 25.4883 11.6094 25.3125 11.5508C24.7383 11.3867 24.334 11.2227 24.0996 11.0586V10.0215H33.3281V11.0586C33.0117 11.1992 32.707 11.3105 32.4141 11.3926C32.1328 11.4746 31.8809 11.5801 31.6582 11.709C31.1777 11.9902 30.9375 12.5059 30.9375 13.2559V31.7656C30.9375 32.5156 31.1777 33.0312 31.6582 33.3125C31.8809 33.4414 32.1328 33.5469 32.4141 33.6289C32.707 33.7109 33.0117 33.8223 33.3281 33.9629V35H24.0996V33.9629C25.459 33.7754 26.2441 33.1484 26.4551 32.082C26.5254 31.7305 26.5605 31.3203 26.5605 30.8516V13.9062ZM17.4551 31.0098C17.4551 32.2871 17.7012 33.0547 18.1934 33.3125C18.3574 33.3828 18.627 33.4766 19.002 33.5938C19.3887 33.6992 19.6934 33.8223 19.916 33.9629V35H10.7051V33.9629C11.0215 33.8223 11.3203 33.7109 11.6016 33.6289C11.8828 33.5469 12.1348 33.4414 12.3574 33.3125C12.8379 33.0312 13.0781 32.5156 13.0781 31.7656V13.2559C13.0781 12.5059 12.8379 11.9902 12.3574 11.709C12.1348 11.5801 11.8828 11.4746 11.6016 11.3926C11.3203 11.3105 11.0215 11.1992 10.7051 11.0586V10.0215H19.916V11.0586C19.6465 11.2344 19.3242 11.375 18.9492 11.4805C18.5742 11.5859 18.3105 11.6797 18.1582 11.7617C18.0176 11.832 17.8945 11.9551 17.7891 12.1309C17.5664 12.5059 17.4551 13.1562 17.4551 14.082V31.0098ZM25.1016 22.8008H18.9141V21.1836H25.1016V22.8008ZM55.6348 25.3496V27.4062H34.7695V25.3496H55.6348ZM68.3086 24.5234C68.3086 21.1484 67.4648 19.25 65.7773 18.8281V17.3164C67.9688 17.5156 69.6562 18.4355 70.8398 20.0762C71.9531 21.6113 72.5098 23.6094 72.5098 26.0703H62.5605V24.5234H68.3086ZM65.8477 33.9277C67.8867 33.834 69.334 32.873 70.1895 31.0449C70.4355 30.5176 70.6465 29.9785 70.8223 29.4277L72.334 29.9902C71.6777 32.4395 70.3359 34.0859 68.3086 34.9297C67.5938 35.2227 66.7734 35.3984 65.8477 35.457V33.9277ZM61.084 25.2793C61.084 30.3184 62.1855 33.1543 64.3887 33.7871V35.4043C62.0918 35.1465 60.2695 34.1914 58.9219 32.5391C57.5742 30.9102 56.9004 28.8652 56.9004 26.4043C56.9004 23.8145 57.5742 21.6875 58.9219 20.0234C60.2812 18.3477 62.0801 17.4395 64.3184 17.2988V18.7578C62.1621 19.0156 61.084 21.1895 61.084 25.2793ZM94.9746 25.3496V27.4062H74.1094V25.3496H94.9746ZM101.971 9.91602V32.2227C101.971 32.7734 102.211 33.1719 102.691 33.418C102.902 33.5352 103.137 33.6406 103.395 33.7344C103.664 33.8164 103.928 33.9277 104.186 34.0684V35H95.9941V34.0684C96.2402 33.9277 96.4922 33.8164 96.75 33.7344C97.0195 33.6406 97.2598 33.5352 97.4707 33.418C97.9629 33.1602 98.209 32.7617 98.209 32.2227V12.8516C98.209 12.3008 97.957 11.8906 97.4531 11.6211C97.2305 11.5039 96.9844 11.4043 96.7148 11.3223C96.4453 11.2402 96.1875 11.1289 95.9414 10.9883V9.91602H101.971ZM125.877 25.3496V27.4062H105.012V25.3496H125.877ZM132.873 9.91602V32.2227C132.873 32.7734 133.113 33.1719 133.594 33.418C133.805 33.5352 134.039 33.6406 134.297 33.7344C134.566 33.8164 134.83 33.9277 135.088 34.0684V35H126.896V34.0684C127.143 33.9277 127.395 33.8164 127.652 33.7344C127.922 33.6406 128.162 33.5352 128.373 33.418C128.865 33.1602 129.111 32.7617 129.111 32.2227V12.8516C129.111 12.3008 128.859 11.8906 128.355 11.6211C128.133 11.5039 127.887 11.4043 127.617 11.3223C127.348 11.2402 127.09 11.1289 126.844 10.9883V9.91602H132.873ZM156.779 25.3496V27.4062H135.914V25.3496H156.779ZM165.287 35.4395C163.283 35.2402 161.637 34.3906 160.348 32.8906C158.906 31.2148 158.186 29.0527 158.186 26.4043C158.186 23.7324 158.906 21.5586 160.348 19.8828C161.648 18.3711 163.295 17.5156 165.287 17.3164V18.6875C164.256 18.8867 163.5 19.5605 163.02 20.709C162.504 21.9746 162.246 23.873 162.246 26.4043C162.246 30.1191 162.82 32.4688 163.969 33.4531C164.355 33.7695 164.795 33.9746 165.287 34.0684V35.4395ZM166.746 34.0859C168.82 33.7344 169.857 31.1738 169.857 26.4043C169.857 22.6191 169.248 20.2344 168.029 19.25C167.643 18.9453 167.215 18.752 166.746 18.6699V17.2988C168.738 17.4512 170.402 18.2891 171.738 19.8125C173.215 21.5117 173.953 23.709 173.953 26.4043C173.953 29.0879 173.227 31.2676 171.773 32.9434C170.438 34.4668 168.762 35.3047 166.746 35.457V34.0859Z" fill="black"/>
</svg>
