<svg width="213" height="50" viewBox="0 0 213 50" fill="none" xmlns="http://www.w3.org/2000/svg">
<path d="M38.8895 0H0V50H50V11.1105L38.8895 0ZM25.0026 44.4474C20.3895 44.4474 16.6684 40.7263 16.6684 36.1132C16.6684 31.5001 20.3895 27.779 25.0026 27.779C29.6157 27.779 33.3369 31.5001 33.3369 36.1132C33.3369 40.7263 29.6157 44.4474 25.0026 44.4474ZM33.3369 16.6684H5.5579V5.5579H33.3369V16.6684Z" fill="black"/>
<path d="M78.622 21C78.5443 21 78.4731 20.9806 78.4083 20.9417C78.3436 20.89 78.3048 20.8252 78.2918 20.7475L74.4467 7.73614C74.4337 7.71025 74.4272 7.67788 74.4272 7.63904C74.4272 7.48368 74.5179 7.406 74.6991 7.406H78.0005C78.1688 7.406 78.2724 7.49015 78.3112 7.65846L79.9619 13.9894C79.9749 14.0282 79.9943 14.0541 80.0202 14.0671C80.0461 14.0671 80.0655 14.0412 80.0785 13.9894L81.3796 7.65846C81.4184 7.49015 81.5285 7.406 81.7097 7.406H84.5451C84.7134 7.406 84.8169 7.49015 84.8558 7.65846L86.3123 13.9894C86.3252 14.0412 86.3446 14.0671 86.3705 14.0671C86.3964 14.0671 86.4159 14.0412 86.4288 13.9894L87.8853 7.65846C87.9241 7.49015 88.0277 7.406 88.196 7.406H91.5168C91.6204 7.406 91.6916 7.43837 91.7305 7.5031C91.7822 7.55489 91.7952 7.63257 91.7693 7.73614L88.3125 20.7475C88.2737 20.9158 88.1701 21 88.0018 21H84.8946C84.7134 21 84.6033 20.9158 84.5645 20.7475L83.1662 14.0671C83.1533 14.0282 83.1339 14.0088 83.108 14.0088C83.0821 14.0088 83.0627 14.0282 83.0497 14.0671L81.8263 20.7281C81.7874 20.9094 81.6838 21 81.5155 21H78.622ZM102.095 21.233C101.021 21.233 100.069 21.0194 99.2405 20.5922C98.4249 20.152 97.7905 19.5435 97.3374 18.7667C96.8842 17.977 96.6577 17.0642 96.6577 16.0285V12.3775C96.6577 11.3677 96.8842 10.4744 97.3374 9.69756C97.7905 8.92076 98.4249 8.31874 99.2405 7.8915C100.069 7.46426 101.021 7.25064 102.095 7.25064C103.183 7.25064 104.134 7.46426 104.95 7.8915C105.779 8.31874 106.419 8.92076 106.873 9.69756C107.326 10.4744 107.552 11.3677 107.552 12.3775V16.0285C107.552 17.0642 107.326 17.977 106.873 18.7667C106.419 19.5435 105.779 20.152 104.95 20.5922C104.134 21.0194 103.183 21.233 102.095 21.233ZM102.095 18.1064C102.639 18.1064 103.073 17.9316 103.396 17.5821C103.733 17.2196 103.901 16.7405 103.901 16.145V12.3387C103.901 11.7431 103.733 11.2706 103.396 10.921C103.073 10.5585 102.639 10.3773 102.095 10.3773C101.564 10.3773 101.131 10.5585 100.794 10.921C100.47 11.2706 100.309 11.7431 100.309 12.3387V16.145C100.309 16.7405 100.47 17.2196 100.794 17.5821C101.131 17.9316 101.564 18.1064 102.095 18.1064ZM119.928 21C119.76 21 119.65 20.9288 119.598 20.7864L117.462 15.8537C117.436 15.8019 117.397 15.776 117.346 15.776H116.53C116.465 15.776 116.433 15.8084 116.433 15.8731V20.7087C116.433 20.7993 116.407 20.8705 116.355 20.9223C116.303 20.9741 116.232 21 116.142 21H113.073C112.983 21 112.911 20.9741 112.86 20.9223C112.808 20.8705 112.782 20.7993 112.782 20.7087V7.6973C112.782 7.60667 112.808 7.53547 112.86 7.48368C112.911 7.43189 112.983 7.406 113.073 7.406H118.957C119.838 7.406 120.608 7.58725 121.268 7.94976C121.942 8.31227 122.46 8.82366 122.822 9.48394C123.197 10.1313 123.385 10.8822 123.385 11.7367C123.385 12.5911 123.172 13.342 122.744 13.9894C122.33 14.6238 121.754 15.0898 121.016 15.3876C120.951 15.4135 120.932 15.4588 120.958 15.5236L123.424 20.6504C123.45 20.7281 123.463 20.7734 123.463 20.7864C123.463 20.8511 123.437 20.9029 123.385 20.9417C123.333 20.9806 123.269 21 123.191 21H119.928ZM116.53 10.5326C116.465 10.5326 116.433 10.565 116.433 10.6297V12.9019C116.433 12.9666 116.465 12.999 116.53 12.999L118.355 12.999C118.77 12.999 119.106 12.8889 119.365 12.6688C119.624 12.4358 119.754 12.138 119.754 11.7755C119.754 11.4 119.624 11.1023 119.365 10.8822C119.106 10.6491 118.77 10.5326 118.355 10.5326L116.53 10.5326ZM128.909 21C128.818 21 128.747 20.9741 128.695 20.9223C128.643 20.8705 128.618 20.7993 128.618 20.7087V7.6973C128.618 7.60667 128.643 7.53547 128.695 7.48368C128.747 7.43189 128.818 7.406 128.909 7.406H131.977C132.068 7.406 132.139 7.43189 132.191 7.48368C132.243 7.53547 132.268 7.60667 132.268 7.6973V12.3387C132.268 12.3775 132.281 12.4034 132.307 12.4164C132.333 12.4293 132.359 12.4164 132.385 12.3775L135.764 7.58078C135.842 7.46426 135.965 7.406 136.133 7.406L139.609 7.406C139.765 7.406 139.842 7.46426 139.842 7.58078C139.842 7.63257 139.823 7.69083 139.784 7.75556L135.745 13.3679C135.719 13.4068 135.719 13.4521 135.745 13.5039L139.92 20.6504C139.959 20.7022 139.978 20.7605 139.978 20.8252C139.978 20.9417 139.894 21 139.726 21H136.288C136.12 21 136.004 20.9353 135.939 20.8058L133.259 16.0285C133.246 15.9896 133.227 15.9702 133.201 15.9702C133.175 15.9702 133.149 15.9896 133.123 16.0285L132.307 17.2714C132.281 17.3231 132.268 17.362 132.268 17.3879V20.7087C132.268 20.7993 132.243 20.8705 132.191 20.9223C132.139 20.9741 132.068 21 131.977 21H128.909ZM149.998 21.1554C148.91 21.1554 147.959 20.9806 147.143 20.631C146.327 20.2685 145.693 19.7571 145.24 19.0968C144.8 18.4366 144.58 17.6727 144.58 16.8053V16.5334C144.58 16.4428 144.605 16.3716 144.657 16.3198C144.709 16.268 144.78 16.2421 144.871 16.2421L147.881 16.2421C147.972 16.2421 148.043 16.268 148.095 16.3198C148.146 16.3716 148.172 16.4428 148.172 16.5334V16.6499C148.172 17.0124 148.36 17.3361 148.735 17.6209C149.124 17.8928 149.635 18.0287 150.27 18.0287C150.749 18.0287 151.092 17.9316 151.299 17.7374C151.506 17.5303 151.61 17.3037 151.61 17.0577C151.61 16.7729 151.48 16.5593 151.221 16.4169C150.962 16.2745 150.49 16.0997 149.804 15.8925L149.24 15.7372C147.959 15.3488 146.884 14.8309 146.017 14.1836C145.149 13.5362 144.716 12.5976 144.716 11.3677C144.716 10.552 144.936 9.8335 145.376 9.21206C145.816 8.57767 146.418 8.09217 147.182 7.75556C147.959 7.41895 148.826 7.25064 149.784 7.25064C150.794 7.25064 151.707 7.43837 152.522 7.81382C153.351 8.18927 153.998 8.72009 154.464 9.40626C154.943 10.0924 155.183 10.8757 155.183 11.7561V11.9309C155.183 12.0215 155.157 12.0927 155.105 12.1445C155.053 12.1963 154.982 12.2222 154.892 12.2222H151.881C151.791 12.2222 151.72 12.1963 151.668 12.1445C151.616 12.0927 151.59 12.0215 151.59 11.9309V11.9114C151.59 11.523 151.415 11.1735 151.066 10.8628C150.716 10.5391 150.244 10.3773 149.648 10.3773C149.234 10.3773 148.904 10.4614 148.658 10.6297C148.425 10.798 148.308 11.0311 148.308 11.3288C148.308 11.5619 148.392 11.7626 148.561 11.9309C148.742 12.0862 149.014 12.2416 149.376 12.3969C149.739 12.5394 150.296 12.7271 151.046 12.9601C151.15 12.999 151.603 13.1414 152.406 13.3874C153.221 13.6204 153.901 14.0541 154.445 14.6885C154.989 15.3099 155.261 16.0673 155.261 16.9606C155.261 17.8281 155.04 18.579 154.6 19.2134C154.16 19.8348 153.545 20.3138 152.755 20.6504C151.966 20.9871 151.046 21.1554 149.998 21.1554ZM74.602 44C74.4984 44 74.4208 43.9676 74.369 43.9029C74.3301 43.8382 74.3301 43.7605 74.369 43.6699L79.8066 30.639C79.8713 30.4837 79.9878 30.406 80.1561 30.406H83.1662C83.2698 30.406 83.341 30.4384 83.3799 30.5031C83.4316 30.5549 83.4381 30.6326 83.3993 30.7361L77.9811 43.767C77.9293 43.9223 77.8128 44 77.6315 44H74.602ZM98.5833 30.406C99.5025 30.406 100.312 30.5937 101.011 30.9692C101.71 31.3317 102.247 31.856 102.623 32.5422C103.011 33.2154 103.205 33.9922 103.205 34.8726C103.205 35.74 103.005 36.5039 102.603 37.1642C102.202 37.8244 101.639 38.3358 100.914 38.6983C100.189 39.0608 99.3536 39.2421 98.4085 39.2421H96.35C96.2853 39.2421 96.2529 39.2745 96.2529 39.3392V43.7087C96.2529 43.7993 96.227 43.8705 96.1752 43.9223C96.1234 43.9741 96.0522 44 95.9616 44H92.8932C92.8026 44 92.7314 43.9741 92.6796 43.9223C92.6278 43.8705 92.6019 43.7993 92.6019 43.7087L92.6019 30.6973C92.6019 30.6067 92.6278 30.5355 92.6796 30.4837C92.7314 30.4319 92.8026 30.406 92.8932 30.406H98.5833ZM97.9813 36.3291C98.4603 36.3291 98.8422 36.2061 99.1271 35.9601C99.4248 35.7012 99.5737 35.3646 99.5737 34.9503C99.5737 34.523 99.4248 34.18 99.1271 33.921C98.8422 33.6621 98.4603 33.5326 97.9813 33.5326H96.35C96.2853 33.5326 96.2529 33.565 96.2529 33.6297V36.232C96.2529 36.2967 96.2853 36.3291 96.35 36.3291H97.9813ZM115.339 44C115.171 44 115.061 43.9288 115.009 43.7864L112.873 38.8537C112.847 38.8019 112.808 38.776 112.756 38.776H111.94C111.876 38.776 111.843 38.8084 111.843 38.8731V43.7087C111.843 43.7993 111.817 43.8705 111.766 43.9223C111.714 43.9741 111.643 44 111.552 44H108.484C108.393 44 108.322 43.9741 108.27 43.9223C108.218 43.8705 108.192 43.7993 108.192 43.7087V30.6973C108.192 30.6067 108.218 30.5355 108.27 30.4837C108.322 30.4319 108.393 30.406 108.484 30.406H114.368C115.248 30.406 116.019 30.5873 116.679 30.9498C117.352 31.3123 117.87 31.8237 118.233 32.4839C118.608 33.1313 118.796 33.8822 118.796 34.7367C118.796 35.5911 118.582 36.342 118.155 36.9894C117.741 37.6238 117.164 38.0898 116.426 38.3876C116.362 38.4135 116.342 38.4588 116.368 38.5236L118.835 43.6504C118.86 43.7281 118.873 43.7734 118.873 43.7864C118.873 43.8511 118.848 43.9029 118.796 43.9417C118.744 43.9806 118.679 44 118.602 44H115.339ZM111.94 33.5326C111.876 33.5326 111.843 33.565 111.843 33.6297V35.9019C111.843 35.9666 111.876 35.999 111.94 35.999H113.766C114.18 35.999 114.517 35.8889 114.776 35.6688C115.035 35.4358 115.164 35.138 115.164 34.7755C115.164 34.4 115.035 34.1023 114.776 33.8822C114.517 33.6491 114.18 33.5326 113.766 33.5326H111.94ZM129.291 44.233C128.216 44.233 127.265 44.0194 126.436 43.5922C125.62 43.152 124.986 42.5435 124.533 41.7667C124.08 40.977 123.853 40.0642 123.853 39.0285V35.3775C123.853 34.3677 124.08 33.4744 124.533 32.6976C124.986 31.9208 125.62 31.3187 126.436 30.8915C127.265 30.4643 128.216 30.2506 129.291 30.2506C130.378 30.2506 131.33 30.4643 132.146 30.8915C132.974 31.3187 133.615 31.9208 134.068 32.6976C134.521 33.4744 134.748 34.3677 134.748 35.3775V39.0285C134.748 40.0642 134.521 40.977 134.068 41.7667C133.615 42.5435 132.974 43.152 132.146 43.5922C131.33 44.0194 130.378 44.233 129.291 44.233ZM129.291 41.1064C129.835 41.1064 130.268 40.9316 130.592 40.5821C130.929 40.2196 131.097 39.7405 131.097 39.145V35.3387C131.097 34.7431 130.929 34.2706 130.592 33.921C130.268 33.5585 129.835 33.3773 129.291 33.3773C128.76 33.3773 128.326 33.5585 127.99 33.921C127.666 34.2706 127.504 34.7431 127.504 35.3387V39.145C127.504 39.7405 127.666 40.2196 127.99 40.5821C128.326 40.9316 128.76 41.1064 129.291 41.1064ZM144.638 44.1554C143.59 44.1554 142.677 43.9612 141.9 43.5728C141.123 43.1844 140.521 42.6406 140.094 41.9415C139.667 41.2424 139.453 40.4267 139.453 39.4946V38.4653C139.453 38.3747 139.479 38.3035 139.531 38.2517C139.583 38.1999 139.654 38.174 139.744 38.174H142.813C142.903 38.174 142.975 38.1999 143.026 38.2517C143.078 38.3035 143.104 38.3747 143.104 38.4653V39.4751C143.104 39.9412 143.24 40.3167 143.512 40.6015C143.784 40.8863 144.159 41.0287 144.638 41.0287C145.104 41.0287 145.486 40.8863 145.784 40.6015C146.082 40.3167 146.231 39.9412 146.231 39.4751V30.6973C146.231 30.6067 146.257 30.5355 146.308 30.4837C146.36 30.4319 146.431 30.406 146.522 30.406H149.571C149.662 30.406 149.733 30.4319 149.785 30.4837C149.836 30.5355 149.862 30.6067 149.862 30.6973V39.4946C149.862 40.4138 149.642 41.2294 149.202 41.9415C148.762 42.6406 148.147 43.1844 147.357 43.5728C146.567 43.9612 145.661 44.1554 144.638 44.1554ZM165.109 33.2413C165.109 33.3319 165.083 33.4032 165.031 33.4549C164.98 33.5067 164.908 33.5326 164.818 33.5326L159.011 33.5326C158.946 33.5326 158.914 33.565 158.914 33.6297V35.4552C158.914 35.5199 158.946 35.5523 159.011 35.5523H162.604C162.695 35.5523 162.766 35.5782 162.818 35.63C162.869 35.6818 162.895 35.753 162.895 35.8436V38.3682C162.895 38.4588 162.869 38.53 162.818 38.5818C162.766 38.6336 162.695 38.6595 162.604 38.6595H159.011C158.946 38.6595 158.914 38.6919 158.914 38.7566V40.7763C158.914 40.841 158.946 40.8734 159.011 40.8734H164.818C164.908 40.8734 164.98 40.8993 165.031 40.9511C165.083 41.0028 165.109 41.0741 165.109 41.1647V43.7087C165.109 43.7993 165.083 43.8705 165.031 43.9223C164.98 43.9741 164.908 44 164.818 44H155.554C155.464 44 155.393 43.9741 155.341 43.9223C155.289 43.8705 155.263 43.7993 155.263 43.7087V30.6973C155.263 30.6067 155.289 30.5355 155.341 30.4837C155.393 30.4319 155.464 30.406 155.554 30.406L164.818 30.406C164.908 30.406 164.98 30.4319 165.031 30.4837C165.083 30.5355 165.109 30.6067 165.109 30.6973V33.2413ZM175.412 44.1554C174.35 44.1554 173.411 43.9482 172.596 43.5339C171.793 43.1196 171.165 42.537 170.712 41.7861C170.272 41.0223 170.052 40.1419 170.052 39.145V35.2222C170.052 34.2382 170.272 33.3708 170.712 32.6199C171.165 31.869 171.793 31.2864 172.596 30.8721C173.411 30.4578 174.35 30.2506 175.412 30.2506C176.473 30.2506 177.405 30.4448 178.208 30.8332C179.024 31.2216 179.652 31.7719 180.092 32.4839C180.545 33.1831 180.771 33.9987 180.771 34.9309C180.771 35.0474 180.674 35.1186 180.48 35.1445L177.412 35.3387H177.354C177.198 35.3387 177.121 35.2675 177.121 35.1251C177.121 34.5942 176.965 34.1735 176.654 33.8628C176.344 33.5391 175.929 33.3773 175.412 33.3773C174.894 33.3773 174.479 33.5391 174.169 33.8628C173.858 34.1735 173.703 34.5942 173.703 35.1251V39.3004C173.703 39.8182 173.858 40.239 174.169 40.5627C174.479 40.8734 174.894 41.0287 175.412 41.0287C175.929 41.0287 176.344 40.8734 176.654 40.5627C176.965 40.239 177.121 39.8182 177.121 39.3004C177.121 39.2227 177.146 39.1644 177.198 39.1256C177.25 39.0867 177.321 39.0738 177.412 39.0867L180.48 39.2421C180.674 39.255 180.771 39.3198 180.771 39.4363C180.771 40.3685 180.545 41.1906 180.092 41.9026C179.652 42.6147 179.024 43.1714 178.208 43.5728C177.405 43.9612 176.473 44.1554 175.412 44.1554ZM196.105 30.406C196.196 30.406 196.267 30.4319 196.319 30.4837C196.37 30.5355 196.396 30.6067 196.396 30.6973V33.2607C196.396 33.3514 196.37 33.4226 196.319 33.4744C196.267 33.5261 196.196 33.552 196.105 33.552H192.842C192.778 33.552 192.745 33.5844 192.745 33.6491V43.7087C192.745 43.7993 192.719 43.8705 192.668 43.9223C192.616 43.9741 192.545 44 192.454 44H189.386C189.295 44 189.224 43.9741 189.172 43.9223C189.12 43.8705 189.094 43.7993 189.094 43.7087V33.6491C189.094 33.5844 189.062 33.552 188.997 33.552H185.832C185.741 33.552 185.67 33.5261 185.618 33.4744C185.566 33.4226 185.54 33.3514 185.54 33.2607V30.6973C185.54 30.6067 185.566 30.5355 185.618 30.4837C185.67 30.4319 185.741 30.406 185.832 30.406H196.105ZM206.532 44.1554C205.444 44.1554 204.493 43.9806 203.677 43.631C202.862 43.2685 202.227 42.7571 201.774 42.0968C201.334 41.4366 201.114 40.6727 201.114 39.8053V39.5334C201.114 39.4428 201.14 39.3716 201.191 39.3198C201.243 39.268 201.314 39.2421 201.405 39.2421H204.415C204.506 39.2421 204.577 39.268 204.629 39.3198C204.681 39.3716 204.706 39.4428 204.706 39.5334V39.6499C204.706 40.0124 204.894 40.3361 205.27 40.6209C205.658 40.8928 206.169 41.0287 206.804 41.0287C207.283 41.0287 207.626 40.9316 207.833 40.7374C208.04 40.5303 208.144 40.3037 208.144 40.0577C208.144 39.7729 208.014 39.5593 207.755 39.4169C207.496 39.2745 207.024 39.0997 206.338 38.8925L205.775 38.7372C204.493 38.3488 203.418 37.8309 202.551 37.1836C201.683 36.5362 201.25 35.5976 201.25 34.3677C201.25 33.552 201.47 32.8335 201.91 32.2121C202.35 31.5777 202.952 31.0922 203.716 30.7556C204.493 30.4189 205.36 30.2506 206.318 30.2506C207.328 30.2506 208.241 30.4384 209.057 30.8138C209.885 31.1893 210.532 31.7201 210.999 32.4063C211.478 33.0924 211.717 33.8757 211.717 34.7561V34.9309C211.717 35.0215 211.691 35.0927 211.639 35.1445C211.588 35.1963 211.516 35.2222 211.426 35.2222H208.416C208.325 35.2222 208.254 35.1963 208.202 35.1445C208.15 35.0927 208.124 35.0215 208.124 34.9309V34.9114C208.124 34.523 207.95 34.1735 207.6 33.8628C207.25 33.5391 206.778 33.3773 206.182 33.3773C205.768 33.3773 205.438 33.4614 205.192 33.6297C204.959 33.798 204.842 34.0311 204.842 34.3288C204.842 34.5619 204.927 34.7626 205.095 34.9309C205.276 35.0862 205.548 35.2416 205.911 35.3969C206.273 35.5394 206.83 35.7271 207.581 35.9601C207.684 35.999 208.137 36.1414 208.94 36.3874C209.756 36.6204 210.435 37.0541 210.979 37.6885C211.523 38.3099 211.795 39.0673 211.795 39.9606C211.795 40.8281 211.575 41.579 211.134 42.2134C210.694 42.8348 210.079 43.3138 209.29 43.6504C208.5 43.9871 207.581 44.1554 206.532 44.1554Z" fill="black"/>
<path d="M74 22.942L163.548 22.942V23.913L74 23.913V22.942ZM74 45.942L212.319 45.942V46.913L74 46.913V45.942Z" fill="black"/>
</svg>
