<svg width="228" height="29" viewBox="0 0 228 29" fill="none" xmlns="http://www.w3.org/2000/svg">
<path d="M9.01284 8.80352L8.0712 6.15796L6.21034 6.85298V4.81276H3.43026V6.85298L1.5694 6.15796L0.62776 8.80352L2.4662 9.4537L1.18826 10.9558L3.34058 12.7719L4.8203 11.0007L6.30002 12.7719L8.45234 10.9558L7.15198 9.4537L9.01284 8.80352ZM22.3631 5.306H16.0182V21H22.3631C27.1161 21 30.4791 17.7267 30.4791 13.153C30.4791 8.5569 27.1161 5.306 22.3631 5.306ZM22.1613 17.0541H20.3677V9.27434H22.1613C24.493 9.27434 26.04 10.8213 26.04 13.153C26.04 15.4623 24.493 17.0541 22.1613 17.0541ZM41.889 17.2559V14.9018H47.0456V11.3594H41.889V9.05014H47.6285V5.306H37.5843V21H47.8303V17.2559H41.889ZM60.7258 21.4036C64.3803 21.4036 67.0034 19.61 67.0034 16.1797C67.0034 12.6149 63.9991 11.8302 61.6674 11.2473C60.2101 10.8662 59.0219 10.5747 59.0219 9.6779C59.0219 8.93804 59.7617 8.60174 60.524 8.60174C61.4208 8.60174 62.1607 9.07256 62.1607 10.0815H66.5102C66.5102 6.8754 64.3354 4.94728 60.5689 4.94728C56.8696 4.94728 54.6051 6.71846 54.6051 9.81242C54.6051 13.3772 57.4973 14.0722 59.7617 14.6327C61.2639 14.9914 62.497 15.2829 62.497 16.2694C62.497 17.1213 61.6226 17.6146 60.7258 17.6146C59.7393 17.6146 58.8649 17.0541 58.8649 15.9331H54.4034C54.4034 19.3633 56.892 21.4036 60.7258 21.4036ZM74.1263 21H78.5206V5.306H74.1263V21ZM93.6284 12.6149V15.3502H97.5295C97.0362 16.5608 95.6238 17.368 93.9647 17.368C91.5882 17.368 90.0412 15.664 90.0412 13.1754C90.0412 10.6644 91.6106 8.96046 93.9647 8.96046C95.5565 8.96046 96.969 9.81242 97.5295 11.1352H102.081C101.408 7.50316 98.0451 4.92486 93.9198 4.92486C89.0995 4.92486 85.602 8.39996 85.602 13.1754C85.602 17.9509 89.1668 21.4036 93.9647 21.4036C98.8747 21.4036 102.238 17.7491 102.238 12.6149H93.6284ZM119.087 5.306V13.5566L113.056 5.306H109.267V21H113.46V12.5028L119.692 21H123.28V5.306H119.087Z" fill="black"/>
<path d="M138.004 11.2473L137.941 11.4892L137.943 11.4898L138.004 11.2473ZM138.497 10.0815H138.247V10.3315H138.497V10.0815ZM142.847 10.0815V10.3315H143.097V10.0815H142.847ZM136.098 14.6327L136.038 14.8754L136.04 14.8759L136.098 14.6327ZM135.201 15.9331H135.451V15.6831H135.201V15.9331ZM130.74 15.9331V15.6831H130.49V15.9331H130.74ZM137.062 21.6536C138.927 21.6536 140.557 21.1964 141.726 20.2743C142.904 19.3462 143.59 17.9655 143.59 16.1797H143.09C143.09 17.8242 142.465 19.0554 141.417 19.8817C140.361 20.714 138.852 21.1536 137.062 21.1536V21.6536ZM143.59 16.1797C143.59 14.3097 142.794 13.1474 141.688 12.3891C140.602 11.6448 139.223 11.2943 138.065 11.0048L137.943 11.4898C139.117 11.7832 140.406 12.1165 141.405 12.8015C142.384 13.4725 143.09 14.4849 143.09 16.1797H143.59ZM138.067 11.0054C137.328 10.8121 136.696 10.6503 136.244 10.4311C135.796 10.2136 135.608 9.98174 135.608 9.6779H135.108C135.108 10.2709 135.515 10.6332 136.026 10.8809C136.532 11.1268 137.223 11.3014 137.941 11.4892L138.067 11.0054ZM135.608 9.6779C135.608 9.40701 135.737 9.21216 135.957 9.07389C136.186 8.92963 136.511 8.85174 136.861 8.85174V8.35174C136.448 8.35174 136.022 8.442 135.69 8.65085C135.349 8.8657 135.108 9.20893 135.108 9.6779H135.608ZM136.861 8.85174C137.269 8.85174 137.616 8.9591 137.857 9.15651C138.09 9.34817 138.247 9.64417 138.247 10.0815H138.747C138.747 9.50984 138.534 9.06599 138.174 8.77002C137.82 8.47979 137.349 8.35174 136.861 8.35174V8.85174ZM138.497 10.3315H142.847V9.83146H138.497V10.3315ZM143.097 10.0815C143.097 8.41868 142.53 7.06145 141.453 6.1235C140.379 5.18959 138.829 4.69728 136.905 4.69728V5.19728C138.749 5.19728 140.169 5.66903 141.124 6.50069C142.075 7.32832 142.597 8.53818 142.597 10.0815H143.097ZM136.905 4.69728C135.019 4.69728 133.466 5.14845 132.379 6.02502C131.285 6.90739 130.692 8.19884 130.692 9.81242H131.192C131.192 8.33204 131.73 7.19091 132.693 6.41421C133.663 5.6317 135.092 5.19728 136.905 5.19728V4.69728ZM130.692 9.81242C130.692 11.679 131.457 12.8204 132.529 13.5554C133.58 14.2751 134.916 14.5977 136.038 14.8754L136.158 14.39C135.016 14.1072 133.774 13.802 132.812 13.1429C131.873 12.4992 131.192 11.5106 131.192 9.81242H130.692ZM136.04 14.8759C136.801 15.0577 137.454 15.2142 137.92 15.4405C138.377 15.6626 138.583 15.9149 138.583 16.2694H139.083C139.083 15.6373 138.673 15.2507 138.138 14.9908C137.612 14.7351 136.897 14.5665 136.156 14.3896L136.04 14.8759ZM138.583 16.2694C138.583 16.5982 138.419 16.8636 138.142 17.0562C137.86 17.2521 137.469 17.3646 137.062 17.3646V17.8646C137.553 17.8646 138.047 17.7304 138.427 17.4668C138.811 17.1997 139.083 16.7925 139.083 16.2694H138.583ZM137.062 17.3646C136.613 17.3646 136.208 17.2368 135.92 17.0009C135.639 16.77 135.451 16.4217 135.451 15.9331H134.951C134.951 16.5654 135.201 17.0579 135.603 17.3876C135.999 17.7121 136.525 17.8646 137.062 17.8646V17.3646ZM135.201 15.6831H130.74V16.1831H135.201V15.6831ZM130.49 15.9331C130.49 17.7132 131.138 19.1535 132.301 20.1449C133.459 21.1323 135.103 21.6536 137.062 21.6536V21.1536C135.187 21.1536 133.67 20.6548 132.626 19.7644C131.586 18.8782 130.99 17.5832 130.99 15.9331H130.49ZM164.43 21V21.25H164.903L164.637 20.8593L164.43 21ZM158.938 12.9288L158.729 12.7913L158.637 12.9311L158.731 13.0695L158.938 12.9288ZM163.96 5.306L164.168 5.44354L164.424 5.056H163.96V5.306ZM158.938 5.306V5.056H158.799L158.726 5.1735L158.938 5.306ZM154.79 11.9423H154.54V12.814L155.002 12.0748L154.79 11.9423ZM154.79 5.306H155.04V5.056H154.79V5.306ZM150.463 5.306V5.056H150.213V5.306H150.463ZM150.463 21H150.213V21.25H150.463V21ZM154.79 21V21.25H155.04V21H154.79ZM154.79 14.0722L154.999 13.9359L154.54 13.2294V14.0722H154.79ZM159.296 21L159.087 21.1363L159.161 21.25H159.296V21ZM164.637 20.8593L159.144 12.7881L158.731 13.0695L164.224 21.1407L164.637 20.8593ZM159.146 13.0663L164.168 5.44354L163.751 5.16846L158.729 12.7913L159.146 13.0663ZM163.96 5.056H158.938V5.556H163.96V5.056ZM158.726 5.1735L154.578 11.8098L155.002 12.0748L159.15 5.4385L158.726 5.1735ZM155.04 11.9423V5.306H154.54V11.9423H155.04ZM154.79 5.056H150.463V5.556H154.79V5.056ZM150.213 5.306V21H150.713V5.306H150.213ZM150.463 21.25H154.79V20.75H150.463V21.25ZM155.04 21V14.0722H154.54V21H155.04ZM154.58 14.2085L159.087 21.1363L159.506 20.8637L154.999 13.9359L154.58 14.2085ZM159.296 21.25H164.43V20.75H159.296V21.25ZM170.08 21H169.83V21.25H170.08V21ZM174.475 21V21.25H174.725V21H174.475ZM174.475 5.306H174.725V5.056H174.475V5.306ZM170.08 5.306V5.056H169.83V5.306H170.08ZM170.08 21.25H174.475V20.75H170.08V21.25ZM174.725 21V5.306H174.225V21H174.725ZM174.475 5.056H170.08V5.556H174.475V5.056ZM169.83 5.306V21H170.33V5.306H169.83ZM186.757 17.0541H186.507V17.3041H186.757V17.0541ZM186.757 5.306H187.007V5.056H186.757V5.306ZM182.363 5.306V5.056H182.113V5.306H182.363ZM182.363 21H182.113V21.25H182.363V21ZM192.34 21V21.25H192.59V21H192.34ZM192.34 17.0541H192.59V16.8041H192.34V17.0541ZM187.007 17.0541V5.306H186.507V17.0541H187.007ZM186.757 5.056H182.363V5.556H186.757V5.056ZM182.113 5.306V21H182.613V5.306H182.113ZM182.363 21.25H192.34V20.75H182.363V21.25ZM192.59 21V17.0541H192.09V21H192.59ZM192.34 16.8041H186.757V17.3041H192.34V16.8041ZM202.916 17.0541H202.666V17.3041H202.916V17.0541ZM202.916 5.306H203.166V5.056H202.916V5.306ZM198.521 5.306V5.056H198.271V5.306H198.521ZM198.521 21H198.271V21.25H198.521V21ZM208.498 21V21.25H208.748V21H208.498ZM208.498 17.0541H208.748V16.8041H208.498V17.0541ZM203.166 17.0541V5.306H202.666V17.0541H203.166ZM202.916 5.056H198.521V5.556H202.916V5.056ZM198.271 5.306V21H198.771V5.306H198.271ZM198.521 21.25H208.498V20.75H198.521V21.25ZM208.748 21V17.0541H208.248V21H208.748ZM208.498 16.8041H202.916V17.3041H208.498V16.8041ZM214.388 16.6954H214.138V16.9454H214.388V16.6954ZM225.867 16.6954V16.9454H226.117V16.6954H225.867ZM225.867 12.9064H226.117V12.6564H225.867V12.9064ZM214.388 12.9064V12.6564H214.138V12.9064H214.388ZM214.388 16.9454H225.867V16.4454H214.388V16.9454ZM226.117 16.6954V12.9064H225.617V16.6954H226.117ZM225.867 12.6564H214.388V13.1564H225.867V12.6564ZM214.138 12.9064V16.6954H214.638V12.9064H214.138Z" fill="black"/>
</svg>
