<svg width="116" height="15" viewBox="0 0 116 15" fill="none" xmlns="http://www.w3.org/2000/svg">
<rect y="7" width="116" height="8" fill="#0000FF"/>
<path d="M3.45313 4.36719L3.5531 4.36961L3.56131 4.03061L3.37047 4.31091L3.45313 4.36719ZM2.83203 4.9375L2.87933 5.02561L2.88005 5.02522L2.83203 4.9375ZM1.17188 4.88672L1.22775 4.80378L1.17188 4.88672ZM0.609375 2.20703L0.51903 2.16416L0.518737 2.16478L0.609375 2.20703ZM1.21484 1.49219L1.26973 1.57578L1.26993 1.57565L1.21484 1.49219ZM3.44531 1.83594L3.36693 1.89803L3.36713 1.89828L3.44531 1.83594ZM1.17578 7.04297L1.07579 7.04201L1.07482 7.14297H1.17578V7.04297ZM1.17969 6.63672V6.53672H1.08064L1.07969 6.63576L1.17969 6.63672ZM1.34375 6.63672L1.34375 6.73673L1.34528 6.73671L1.34375 6.63672ZM2.92578 4.45703L2.98565 4.53713L2.98578 4.53703L2.92578 4.45703ZM3.45703 3.73047L3.55139 3.76358L3.55703 3.7475V3.73047H3.45703ZM3.09375 2.11719L3.01367 2.17709L3.01422 2.17781L3.09375 2.11719ZM1.21094 2.08594L1.28909 2.14832L1.28936 2.14799L1.21094 2.08594ZM1.19531 4.30078L1.11634 4.36213L1.11695 4.36291L1.19531 4.30078ZM3.37047 4.31091C3.21224 4.5433 3.01684 4.72234 2.78402 4.84978L2.88005 5.02522C3.14201 4.88183 3.36068 4.68066 3.53578 4.42347L3.37047 4.31091ZM2.78473 4.84939C2.55232 4.97416 2.30041 5.03672 2.02734 5.03672V5.23672C2.33241 5.23672 2.61695 5.16646 2.87933 5.02561L2.78473 4.84939ZM2.02734 5.03672C1.72261 5.03672 1.45726 4.9584 1.22775 4.80378L1.116 4.96965C1.38128 5.14837 1.68624 5.23672 2.02734 5.23672V5.03672ZM1.22775 4.80378C0.996858 4.64824 0.816933 4.4326 0.688499 4.15351L0.506813 4.23712C0.649213 4.54656 0.8521 4.79187 1.116 4.96965L1.22775 4.80378ZM0.688499 4.15351C0.559572 3.87334 0.494531 3.56613 0.494531 3.23047H0.294531C0.294531 3.59273 0.364907 3.92874 0.506813 4.23712L0.688499 4.15351ZM0.494531 3.23047C0.494531 2.8685 0.563578 2.54199 0.700013 2.24928L0.518737 2.16478C0.368714 2.48665 0.294531 2.84243 0.294531 3.23047H0.494531ZM0.699718 2.24991C0.838523 1.95742 1.02879 1.73397 1.26973 1.57578L1.15996 1.40859C0.885269 1.58895 0.671894 1.84206 0.519032 2.16416L0.699718 2.24991ZM1.26993 1.57565C1.51261 1.41548 1.79259 1.33438 2.11328 1.33438V1.13437C1.75689 1.13437 1.43791 1.22514 1.15976 1.40873L1.26993 1.57565ZM2.11328 1.33438C2.65704 1.33438 3.07053 1.5239 3.36693 1.89803L3.5237 1.77384C3.18467 1.3459 2.71015 1.13437 2.11328 1.13437V1.33438ZM3.36713 1.89828C3.66566 2.27267 3.82187 2.81372 3.82187 3.53516H4.02188C4.02188 2.78785 3.86039 2.19608 3.5235 1.77359L3.36713 1.89828ZM3.82187 3.53516V3.95703H4.02188V3.53516H3.82187ZM3.82187 3.95703C3.82187 4.97115 3.60534 5.71459 3.18937 6.20483L3.34188 6.33423C3.80091 5.79322 4.02188 4.99499 4.02188 3.95703H3.82187ZM3.18937 6.20483C2.77664 6.69128 2.14104 6.94297 1.26172 6.94297V7.14297C2.17927 7.14297 2.87961 6.87904 3.34188 6.33423L3.18937 6.20483ZM1.26172 6.94297H1.17578V7.14297H1.26172V6.94297ZM1.27578 7.04393L1.27968 6.63768L1.07969 6.63576L1.07579 7.04201L1.27578 7.04393ZM1.17969 6.73672H1.34375V6.53672H1.17969V6.73672ZM1.34528 6.73671C2.04301 6.72601 2.58919 6.52753 2.96723 6.12726L2.82183 5.98993C2.49154 6.33965 2.00386 6.52659 1.34222 6.53673L1.34528 6.73671ZM2.96723 6.12726C3.34471 5.72757 3.53454 5.13575 3.5531 4.36961L3.35315 4.36477C3.33525 5.10384 3.15268 5.63962 2.82183 5.98993L2.96723 6.12726ZM2.08594 4.83438C2.41974 4.83438 2.72075 4.73511 2.98565 4.53713L2.86592 4.37693C2.63602 4.54874 2.37713 4.63437 2.08594 4.63437V4.83438ZM2.98578 4.53703C3.25174 4.33756 3.44071 4.07901 3.55139 3.76358L3.36267 3.69736C3.26501 3.97568 3.09982 4.2015 2.86578 4.37703L2.98578 4.53703ZM3.55703 3.73047V3.46094H3.35703V3.73047H3.55703ZM3.55703 3.46094C3.55703 2.87037 3.43352 2.39796 3.17328 2.05656L3.01422 2.17781C3.23836 2.47184 3.35703 2.89526 3.35703 3.46094H3.55703ZM3.17383 2.05729C2.91488 1.71109 2.56065 1.53672 2.12109 1.53672V1.73672C2.49925 1.73672 2.79346 1.88266 3.01367 2.17708L3.17383 2.05729ZM2.12109 1.53672C1.71959 1.53672 1.38774 1.70135 1.13252 2.02388L1.28936 2.14799C1.50809 1.87157 1.78301 1.73672 2.12109 1.73672V1.53672ZM1.13278 2.02355C0.879068 2.34139 0.755469 2.73968 0.755469 3.21094H0.955469C0.955469 2.77594 1.06885 2.42423 1.28909 2.14832L1.13278 2.02355ZM0.755469 3.21094C0.755469 3.66395 0.873831 4.04993 1.11634 4.36213L1.27429 4.23944C1.06367 3.9683 0.955469 3.62771 0.955469 3.21094H0.755469ZM1.11695 4.36291C1.36482 4.67556 1.6904 4.83438 2.08594 4.83438V4.63437C1.75231 4.63437 1.48413 4.50412 1.27367 4.23866L1.11695 4.36291ZM7.96094 6.45703L8.04245 6.51496L8.04262 6.51472L7.96094 6.45703ZM5.36719 6.46875L5.28651 6.52784L5.28669 6.52809L5.36719 6.46875ZM4.90625 4.6875H4.80624L4.80626 4.6885L4.90625 4.6875ZM7.94141 1.83203L7.86122 1.89178L7.86141 1.89203L7.94141 1.83203ZM8.40234 3.58594L8.50235 3.58594L8.50233 3.58459L8.40234 3.58594ZM7.61328 2.13281L7.52878 2.18629L7.52908 2.18676L7.61328 2.13281ZM5.37109 3.5625L5.27109 3.56168V3.5625H5.37109ZM5.69922 6.16797L5.61485 6.22166L5.61514 6.22211L5.69922 6.16797ZM7.60547 6.17969L7.52137 6.12558L7.52108 6.12604L7.60547 6.17969ZM7.93359 4.70312L8.03359 4.70353V4.70312H7.93359ZM8.30234 4.62891C8.30234 5.42128 8.15655 6.00671 7.87925 6.39934L8.04262 6.51472C8.35387 6.07402 8.50234 5.44069 8.50234 4.62891H8.30234ZM7.87943 6.3991C7.60653 6.78309 7.20548 6.97812 6.66016 6.97812V7.17813C7.26066 7.17813 7.72681 6.95909 8.04245 6.51496L7.87943 6.3991ZM6.66016 6.97812C6.12523 6.97812 5.72595 6.78689 5.44768 6.40941L5.28669 6.52809C5.60738 6.96311 6.07009 7.17813 6.66016 7.17813V6.97812ZM5.44786 6.40966C5.16576 6.02453 5.01395 5.45474 5.00624 4.6865L4.80626 4.6885C4.81417 5.47755 4.96966 6.09526 5.28651 6.52784L5.44786 6.40966ZM5.00625 4.6875V3.66797H4.80625V4.6875H5.00625ZM5.00625 3.66797C5.00625 2.87828 5.15332 2.29723 5.43266 1.91007L5.27047 1.79305C4.95606 2.22881 4.80625 2.8587 4.80625 3.66797H5.00625ZM5.43266 1.91007C5.70819 1.52819 6.10955 1.33438 6.65234 1.33438V1.13437C6.05451 1.13437 5.58868 1.35202 5.27047 1.79305L5.43266 1.91007ZM6.65234 1.33438C7.18804 1.33438 7.5859 1.52227 7.86122 1.89178L8.02159 1.77228C7.70316 1.34491 7.24165 1.13437 6.65234 1.13437V1.33438ZM7.86141 1.89203C8.14022 2.26379 8.29207 2.82391 8.30235 3.58728L8.50233 3.58459C8.49178 2.80109 8.33634 2.19194 8.02141 1.77203L7.86141 1.89203ZM8.30234 3.58594V4.62891H8.50234V3.58594H8.30234ZM8.03359 3.60937C8.03359 2.95031 7.92603 2.43562 7.69748 2.07887L7.52908 2.18676C7.72762 2.49667 7.83359 2.96636 7.83359 3.60937H8.03359ZM7.69778 2.07934C7.46664 1.71408 7.11265 1.53281 6.65234 1.53281V1.73281C7.05141 1.73281 7.33805 1.88488 7.52878 2.18629L7.69778 2.07934ZM6.65234 1.53281C6.20012 1.53281 5.84939 1.70985 5.6156 2.06624L5.78283 2.17594C5.97613 1.88129 6.26082 1.73281 6.65234 1.73281V1.53281ZM5.6156 2.06624C5.3868 2.41504 5.27637 2.91803 5.2711 3.56168L5.47109 3.56332C5.47623 2.93614 5.58456 2.47819 5.78283 2.17594L5.6156 2.06624ZM5.27109 3.5625V4.67969H5.47109V3.5625H5.27109ZM5.27109 4.67969C5.27109 5.33688 5.38151 5.85498 5.61485 6.22166L5.78358 6.11428C5.57943 5.79346 5.47109 5.31937 5.47109 4.67969H5.27109ZM5.61514 6.22211C5.85546 6.59531 6.20793 6.78359 6.66016 6.78359V6.58359C6.27384 6.58359 5.98568 6.42812 5.7833 6.11383L5.61514 6.22211ZM6.66016 6.78359C7.1091 6.78359 7.45696 6.59973 7.68986 6.23333L7.52108 6.12604C7.3269 6.43152 7.04454 6.58359 6.66016 6.58359V6.78359ZM7.68957 6.2338C7.9206 5.87472 8.03096 5.36027 8.03359 4.70353L7.83359 4.70272C7.83102 5.34285 7.72263 5.81278 7.52137 6.12558L7.68957 6.2338ZM8.03359 4.70312V3.60937H7.83359V4.70312H8.03359ZM9.61328 1.56641L9.54049 1.49784L9.54046 1.49787L9.61328 1.56641ZM11.2109 1.56641L11.1377 1.63452L11.1385 1.63539L11.2109 1.56641ZM11.2148 3.54297L11.1416 3.47486L11.1416 3.47489L11.2148 3.54297ZM9.87891 3.30469L9.80271 3.36946L9.80334 3.37018L9.87891 3.30469ZM10.9492 3.30469L10.8725 3.24055L10.8724 3.24067L10.9492 3.30469ZM10.9453 1.80859L10.8692 1.87347L10.8697 1.87409L10.9453 1.80859ZM9.88281 1.80469L9.80786 1.73848L9.80724 1.73919L9.88281 1.80469ZM12.4766 4.76562L12.4042 4.69664L12.4037 4.69709L12.4766 4.76562ZM14.0703 4.76562L13.9979 4.83462L13.9988 4.83548L14.0703 4.76562ZM14.0742 6.75L14.0018 6.68101L14.0014 6.68146L14.0742 6.75ZM12.4805 6.75391L12.4081 6.8229L12.4089 6.82376L12.4805 6.75391ZM12.7383 6.51172L12.6621 6.57649L12.6627 6.57721L12.7383 6.51172ZM13.8125 6.51172L13.7358 6.44758L13.7357 6.4477L13.8125 6.51172ZM13.8086 5.00391L13.7329 5.06931L13.7341 5.07066L13.8086 5.00391ZM12.7422 5.00391L12.6672 4.93779L12.7422 5.00391ZM10.5703 6.52734L10.5164 6.61157L10.6016 6.66607L10.6551 6.58033L10.5703 6.52734ZM10.2773 6.33984L10.1925 6.28686L10.1401 6.37075L10.2234 6.42407L10.2773 6.33984ZM13.0547 1.89453L13.1086 1.8103L13.0234 1.75581L12.9699 1.84154L13.0547 1.89453ZM13.3477 2.08203L13.4325 2.13502L13.4849 2.05113L13.4016 1.9978L13.3477 2.08203ZM9.40078 2.40625C9.40078 2.09004 9.49727 1.83558 9.6861 1.63494L9.54046 1.49787C9.31263 1.73994 9.20078 2.04538 9.20078 2.40625H9.40078ZM9.68608 1.63497C9.87709 1.43216 10.1172 1.33047 10.4141 1.33047V1.13047C10.0651 1.13047 9.77135 1.25273 9.54049 1.49784L9.68608 1.63497ZM10.4141 1.33047C10.7109 1.33047 10.9495 1.43214 11.1377 1.63452L11.2842 1.4983C11.0558 1.25276 10.763 1.13047 10.4141 1.13047V1.33047ZM11.1385 1.63539C11.329 1.83521 11.4273 2.09684 11.4273 2.42969H11.6273C11.6273 2.0542 11.5148 1.74031 11.2833 1.49742L11.1385 1.63539ZM11.4273 2.42969V2.70703H11.6273V2.42969H11.4273ZM11.4273 2.70703C11.4273 3.01756 11.3311 3.27114 11.1416 3.47486L11.2881 3.61108C11.5152 3.36688 11.6273 3.06317 11.6273 2.70703H11.4273ZM11.1416 3.47489C10.9562 3.67437 10.7191 3.775 10.4219 3.775V3.975C10.7704 3.975 11.062 3.85427 11.2881 3.61105L11.1416 3.47489ZM10.4219 3.775C10.1271 3.775 9.88639 3.67549 9.69265 3.47702L9.54954 3.61673C9.78288 3.85576 10.0761 3.975 10.4219 3.975V3.775ZM9.69265 3.47702C9.50051 3.2802 9.40078 3.01788 9.40078 2.67969H9.20078C9.20078 3.06025 9.31459 3.37605 9.54954 3.61673L9.69265 3.47702ZM9.40078 2.67969V2.40625H9.20078V2.67969H9.40078ZM9.57969 2.70703C9.57969 2.96844 9.65184 3.19196 9.80271 3.36945L9.9551 3.23992C9.84034 3.10492 9.77969 2.93 9.77969 2.70703L9.57969 2.70703ZM9.80334 3.37018C9.9597 3.5506 10.1694 3.63906 10.4219 3.63906V3.43906C10.2212 3.43906 10.0689 3.37127 9.95448 3.23919L9.80334 3.37018ZM10.4219 3.63906C10.6699 3.63906 10.875 3.54995 11.026 3.36871L10.8724 3.24067C10.763 3.37193 10.6165 3.43906 10.4219 3.43906V3.63906ZM11.0259 3.36883C11.1767 3.18845 11.2484 2.95979 11.2484 2.69141H11.0484C11.0484 2.92302 10.9873 3.10322 10.8725 3.24055L11.0259 3.36883ZM11.2484 2.69141V2.40625H11.0484V2.69141H11.2484ZM11.2484 2.40625C11.2484 2.14436 11.1747 1.92057 11.0209 1.7431L10.8697 1.87409C10.9868 2.00912 11.0484 2.18377 11.0484 2.40625H11.2484ZM11.0214 1.74372C10.866 1.56138 10.6605 1.47031 10.4141 1.47031V1.67031C10.6051 1.67031 10.7538 1.73809 10.8692 1.87347L11.0214 1.74372ZM10.4141 1.47031C10.1704 1.47031 9.96565 1.55986 9.80787 1.73848L9.95776 1.87089C10.076 1.73701 10.2254 1.67031 10.4141 1.67031V1.47031ZM9.80724 1.73919C9.65231 1.91796 9.57969 2.15165 9.57969 2.42969L9.77969 2.42969C9.77969 2.18689 9.84248 2.00391 9.95838 1.87018L9.80724 1.73919ZM9.57969 2.42969V2.70703L9.77969 2.70703V2.42969L9.57969 2.42969ZM12.2641 5.60547C12.2641 5.28926 12.3605 5.0348 12.5494 4.83416L12.4037 4.69709C12.1759 4.93916 12.0641 5.2446 12.0641 5.60547H12.2641ZM12.549 4.83461C12.74 4.6341 12.979 4.53359 13.2734 4.53359V4.33359C12.9272 4.33359 12.635 4.45445 12.4042 4.69664L12.549 4.83461ZM13.2734 4.53359C13.5679 4.53359 13.8068 4.6341 13.9979 4.83461L14.1427 4.69664C13.9119 4.45445 13.6196 4.33359 13.2734 4.33359V4.53359ZM13.9988 4.83548C14.1909 5.0323 14.2906 5.29462 14.2906 5.63281H14.4906C14.4906 5.25225 14.3768 4.93645 14.1419 4.69577L13.9988 4.83548ZM14.2906 5.63281V5.91016H14.4906V5.63281H14.2906ZM14.2906 5.91016C14.2906 6.22601 14.1931 6.48032 14.0018 6.68101L14.1466 6.81899C14.3772 6.57697 14.4906 6.27139 14.4906 5.91016H14.2906ZM14.0014 6.68146C13.8131 6.88156 13.5757 6.98203 13.2813 6.98203V7.18203C13.6275 7.18203 13.9187 7.06115 14.147 6.81854L14.0014 6.68146ZM13.2813 6.98203C12.9864 6.98203 12.7458 6.88252 12.552 6.68405L12.4089 6.82376C12.6423 7.06279 12.9354 7.18203 13.2813 7.18203V6.98203ZM12.5529 6.68492C12.3624 6.4851 12.2641 6.22347 12.2641 5.89062H12.0641C12.0641 6.26611 12.1766 6.58 12.4081 6.82289L12.5529 6.68492ZM12.2641 5.89062V5.60547H12.0641V5.89062H12.2641ZM12.4391 5.91016C12.4391 6.17387 12.5111 6.3988 12.6621 6.57648L12.8145 6.44695C12.6999 6.31214 12.6391 6.13603 12.6391 5.91016H12.4391ZM12.6627 6.57721C12.8191 6.75764 13.0288 6.84609 13.2813 6.84609V6.64609C13.0806 6.64609 12.9283 6.5783 12.8139 6.44623L12.6627 6.57721ZM13.2813 6.84609C13.5315 6.84609 13.738 6.75727 13.8893 6.57574L13.7357 6.4477C13.6265 6.57866 13.4789 6.64609 13.2813 6.64609V6.84609ZM13.8892 6.57586C14.0403 6.39512 14.1117 6.16364 14.1117 5.89062H13.9117C13.9117 6.12802 13.8503 6.31061 13.7358 6.44758L13.8892 6.57586ZM14.1117 5.89062V5.60547H13.9117V5.89062H14.1117ZM14.1117 5.60547C14.1117 5.33681 14.0385 5.11055 13.8831 4.93715L13.7341 5.07066C13.8495 5.19935 13.9117 5.37413 13.9117 5.60547H14.1117ZM13.8842 4.93851C13.7303 4.76047 13.5231 4.67344 13.2734 4.67344V4.87344C13.4717 4.87344 13.6212 4.94005 13.7329 5.0693L13.8842 4.93851ZM13.2734 4.67344C13.0282 4.67344 12.823 4.761 12.6672 4.93779L12.8172 5.07003C12.9322 4.93952 13.0812 4.87344 13.2734 4.87344V4.67344ZM12.6672 4.93779C12.5118 5.11406 12.4391 5.34545 12.4391 5.62109H12.6391C12.6391 5.38111 12.7017 5.20105 12.8172 5.07003L12.6672 4.93779ZM12.4391 5.62109V5.91016H12.6391V5.62109H12.4391ZM10.6242 6.44312L10.3312 6.25562L10.2234 6.42407L10.5164 6.61157L10.6242 6.44312ZM10.3622 6.39283L13.1395 1.94752L12.9699 1.84154L10.1925 6.28686L10.3622 6.39283ZM13.0008 1.97876L13.2938 2.16626L13.4016 1.9978L13.1086 1.8103L13.0008 1.97876ZM13.2628 2.02904L10.4855 6.47436L10.6551 6.58033L13.4325 2.13502L13.2628 2.02904Z" fill="#0000FF"/>
</svg>
