<svg width="33" height="11" viewBox="0 0 33 11" fill="none" xmlns="http://www.w3.org/2000/svg">
<path d="M0.72468 5.1688H0.57468L0.57468 5.3188H0.72468L0.72468 5.1688ZM3.14028 5.1688V5.3188H3.29028V5.1688H3.14028ZM3.14028 2.84714H3.29028L3.29028 2.69714H3.14028L3.14028 2.84714ZM0.72468 2.84714L0.72468 2.69714H0.57468L0.57468 2.84714H0.72468ZM0.72468 10H0.57468L0.57468 10.15H0.72468L0.72468 10ZM3.14028 10L3.14028 10.15H3.29028L3.29028 10H3.14028ZM3.14028 7.69176H3.29028V7.54176H3.14028V7.69176ZM0.72468 7.69176L0.72468 7.54176H0.57468L0.57468 7.69176H0.72468ZM0.72468 5.3188L3.14028 5.3188L3.14028 5.0188L0.72468 5.0188L0.72468 5.3188ZM3.29028 5.1688L3.29028 2.84714H2.99028L2.99028 5.1688H3.29028ZM3.14028 2.69714L0.72468 2.69714L0.72468 2.99714L3.14028 2.99714L3.14028 2.69714ZM0.57468 2.84714L0.57468 5.1688L0.87468 5.1688L0.87468 2.84714L0.57468 2.84714ZM0.72468 10.15L3.14028 10.15L3.14028 9.85L0.72468 9.85L0.72468 10.15ZM3.29028 10L3.29028 7.69176H2.99028L2.99028 10H3.29028ZM3.14028 7.54176L0.72468 7.54176L0.72468 7.84176L3.14028 7.84176L3.14028 7.54176ZM0.57468 7.69176L0.57468 10H0.87468L0.87468 7.69176H0.57468ZM19.5913 10V10.15H19.7655L19.7397 9.97775L19.5913 10ZM18.1822 0.605999L18.3306 0.583748L18.3114 0.455999L18.1822 0.455999V0.605999ZM15.6056 0.605999L15.6056 0.455999H15.5073L15.4681 0.546085L15.6056 0.605999ZM13.3779 5.71902L13.2402 5.77863L13.3774 6.09551L13.5154 5.77893L13.3779 5.71902ZM11.1636 0.605999L11.3012 0.546389L11.2621 0.455999H11.1636L11.1636 0.605999ZM8.57349 0.605999L8.57349 0.455999H8.4445L8.42518 0.583541L8.57349 0.605999ZM7.15097 10L7.00266 9.97754L6.97655 10.15H7.15097V10ZM9.78129 10V10.15L9.91249 10.15L9.92996 10.02L9.78129 10ZM10.506 4.60516L10.6424 4.54271L10.4264 4.07105L10.3573 4.58519L10.506 4.60516ZM12.9887 10.0268L12.8523 10.0893L12.8924 10.1768L12.9887 10.1768V10.0268ZM13.7536 10.0268V10.1768H13.8498L13.8899 10.0894L13.7536 10.0268ZM16.2497 4.59174L16.3984 4.57182L16.3296 4.0584L16.1134 4.52914L16.2497 4.59174ZM16.9744 10L16.8257 10.0199L16.8432 10.15H16.9744V10ZM19.7397 9.97775L18.3306 0.583748L18.0339 0.62825L19.443 10.0223L19.7397 9.97775ZM18.1822 0.455999L15.6056 0.455999L15.6056 0.755999L18.1822 0.755999V0.455999ZM15.4681 0.546085L13.2403 5.65911L13.5154 5.77893L15.7431 0.665914L15.4681 0.546085ZM13.5155 5.65941L11.3012 0.546389L11.0259 0.66561L13.2402 5.77863L13.5155 5.65941ZM11.1636 0.455999L8.57349 0.455999L8.57349 0.755999L11.1636 0.755999L11.1636 0.455999ZM8.42518 0.583541L7.00266 9.97754L7.29928 10.0225L8.7218 0.628458L8.42518 0.583541ZM7.15097 10.15L9.78129 10.15L9.78129 9.85L7.15097 9.85V10.15ZM9.92996 10.02L10.6546 4.62513L10.3573 4.58519L9.63263 9.98003L9.92996 10.02ZM10.3696 4.66761L12.8523 10.0893L13.1251 9.96439L10.6424 4.54271L10.3696 4.66761ZM12.9887 10.1768H13.7536L13.7536 9.87684H12.9887L12.9887 10.1768ZM13.8899 10.0894L16.386 4.65434L16.1134 4.52914L13.6173 9.96424L13.8899 10.0894ZM16.1011 4.61166L16.8257 10.0199L17.1231 9.98008L16.3984 4.57182L16.1011 4.61166ZM16.9744 10.15L19.5913 10.15V9.85L16.9744 9.85V10.15ZM31.9981 0.605999L32.1283 0.68042L32.2566 0.455999L31.9981 0.455999V0.605999ZM29.1396 0.605999V0.455999L29.0474 0.455999L29.0058 0.538283L29.1396 0.605999ZM27.4219 4.00126L27.288 4.06898L27.4219 4.33353L27.5557 4.06898L27.4219 4.00126ZM25.7041 0.605999L25.838 0.538283L25.7963 0.455999L25.7041 0.455999V0.605999ZM22.8322 0.605999V0.455999L22.574 0.455999L22.702 0.680321L22.8322 0.605999ZM26.0933 6.32292H26.2433V6.28315L26.2236 6.2486L26.0933 6.32292ZM26.0933 10H25.9433V10.15H26.0933V10ZM28.7236 10V10.15H28.8736V10H28.7236ZM28.7236 6.33634L28.5934 6.26192L28.5736 6.29651V6.33634H28.7236ZM31.9981 0.455999L29.1396 0.455999V0.755999L31.9981 0.755999V0.455999ZM29.0058 0.538283L27.288 3.93354L27.5557 4.06898L29.2735 0.673715L29.0058 0.538283ZM27.5557 3.93354L25.838 0.538283L25.5703 0.673715L27.288 4.06898L27.5557 3.93354ZM25.7041 0.455999L22.8322 0.455999V0.755999L25.7041 0.755999V0.455999ZM22.702 0.680321L25.963 6.39724L26.2236 6.2486L22.9625 0.531677L22.702 0.680321ZM25.9433 6.32292L25.9433 10H26.2433L26.2433 6.32292H25.9433ZM26.0933 10.15L28.7236 10.15V9.85L26.0933 9.85V10.15ZM28.8736 10L28.8736 6.33634H28.5736L28.5736 10H28.8736ZM28.8539 6.41076L32.1283 0.68042L31.8679 0.531578L28.5934 6.26192L28.8539 6.41076Z" fill="black"/>
</svg>
