<svg width="20" height="19" viewBox="0 0 20 19" fill="none" xmlns="http://www.w3.org/2000/svg">
<path d="M10 0C4.47344 0 0 3.2246 0 8.75117H20C20 3.2246 15.5266 0 10 0ZM10 1.24884C14.4082 1.24884 18.0522 3.26189 18.658 7.50233H1.33271C1.94781 3.25257 5.5918 1.24884 10 1.24884ZM11.8733 3.74651C11.5284 3.74651 11.2488 4.0261 11.2488 4.37093C11.2488 4.71575 11.5284 4.99534 11.8733 4.99534C12.2181 4.99534 12.4977 4.71575 12.4977 4.37093C12.4977 4.0261 12.2181 3.74651 11.8733 3.74651ZM8.12676 4.99534C7.78193 4.99534 7.50233 5.27494 7.50233 5.61976C7.50233 5.96459 7.78193 6.24418 8.12676 6.24418C8.47158 6.24418 8.75117 5.96459 8.75117 5.61976C8.75117 5.27494 8.47158 4.99534 8.12676 4.99534ZM9.37559 2.49767C9.03076 2.49767 8.75117 2.77727 8.75117 3.12209C8.75117 3.46692 9.03076 3.74651 9.37559 3.74651C9.72042 3.74651 10 3.46692 10 3.12209C10 2.77727 9.72042 2.49767 9.37559 2.49767ZM18.7512 13.7465H1.24884C0.559184 13.7465 0 14.3057 0 14.9953V17.493C0 18.1827 0.559184 18.7418 1.24884 18.7418H18.7512C19.4408 18.7418 20 18.1827 20 17.493V14.9953C20 14.3057 19.4408 13.7465 18.7512 13.7465ZM18.7512 16.8686C18.7512 17.2134 18.4716 17.493 18.1268 17.493H1.87325C1.52843 17.493 1.24884 17.2134 1.24884 16.8686V15.6198C1.24884 15.2749 1.52843 14.9953 1.87325 14.9953H18.1268C18.4716 14.9953 18.7512 15.2749 18.7512 15.6198V16.8686ZM18.7512 10H1.24884C0.559184 10 0 10.5592 0 11.2488C0 11.9385 0.559184 12.4977 1.24884 12.4977H18.7512C19.4408 12.4977 20 11.9385 20 11.2488C20 10.5592 19.4408 10 18.7512 10Z" fill="#00FF00"/>
</svg>
