<svg width="20" height="14" viewBox="0 0 20 14" fill="none" xmlns="http://www.w3.org/2000/svg">
<path d="M15 0H5C2.23539 0 0 2.23539 0 5V12.4961C0 13.1833 0.624013 13.7441 1.24803 13.7441C1.87204 13.7441 2.49605 13.1201 2.49605 13.1201L5.62401 9.9921H14.376L17.5039 13.1201C17.5039 13.1201 18.128 13.7441 18.752 13.7441C19.376 13.7441 20 13.1833 20 12.4961V5C20 2.23539 17.7567 0 15 0ZM18.752 11.872C18.752 11.872 18.752 12.4961 18.128 11.872C17.7883 11.5324 15.316 9.06003 15.316 9.06003C15.316 9.06003 15 8.74408 14.376 8.74408H5.62401C4.85782 8.74408 4.68404 9.06003 4.68404 9.06003C4.68404 9.06003 2.21959 11.5324 1.87204 11.872C1.24803 12.4961 1.24803 11.872 1.24803 11.872V5C1.24803 2.93049 2.92259 1.24803 5 1.24803H15C17.0695 1.24803 18.752 2.92259 18.752 5V11.872V11.872ZM6.87204 5H6.24802V4.37599C6.24802 4.02844 5.97156 3.75197 5.62401 3.75197C5.27646 3.75197 5 4.02844 5 4.37599V5H4.37599C4.02844 5 3.75197 5.27646 3.75197 5.62401C3.75197 5.97156 4.02844 6.24802 4.37599 6.24802H5V6.87204C5 7.21959 5.27646 7.49605 5.62401 7.49605C5.97156 7.49605 6.24802 7.21959 6.24802 6.87204V6.24802H6.87204C7.21959 6.24802 7.49605 5.97156 7.49605 5.62401C7.49605 5.27646 7.21959 5 6.87204 5ZM15.624 3.75197C15.2765 3.75197 15 4.02844 15 4.37599C15 4.72354 15.2765 5 15.624 5C15.9716 5 16.248 4.72354 16.248 4.37599C16.248 4.02844 15.9716 3.75197 15.624 3.75197ZM13.752 5.62401C13.4044 5.62401 13.128 5.90047 13.128 6.24802C13.128 6.59558 13.4044 6.87204 13.752 6.87204C14.0995 6.87204 14.376 6.59558 14.376 6.24802C14.376 5.90047 14.0916 5.62401 13.752 5.62401ZM13.752 3.75197C13.4044 3.75197 13.128 4.02844 13.128 4.37599C13.128 4.72354 13.4044 5 13.752 5C14.0995 5 14.376 4.72354 14.376 4.37599C14.376 4.02844 14.0916 3.75197 13.752 3.75197ZM15.624 5.62401C15.2765 5.62401 15 5.90047 15 6.24802C15 6.59558 15.2765 6.87204 15.624 6.87204C15.9716 6.87204 16.248 6.59558 16.248 6.24802C16.248 5.90047 15.9716 5.62401 15.624 5.62401Z" fill="#00FF00"/>
</svg>
