<svg width="20" height="20" viewBox="0 0 20 20" fill="none" xmlns="http://www.w3.org/2000/svg">
<path d="M18.2419 11.7957H17.0975C17.437 10.8503 17.6139 9.8441 17.6139 8.80805C17.6139 3.94073 13.6754 0 8.80694 0C3.93963 0 0 3.93963 0 8.80805C0 10.7629 0.630252 12.615 1.79456 14.1398H0.668952C0.34498 14.1398 0.0829279 14.4018 0.0829279 14.7258C0.0829279 15.0486 0.343874 15.3107 0.66674 15.3118V18.8268C0.343874 18.8279 0.0829279 19.09 0.0829279 19.4129C0.0829279 19.7368 0.34498 19.9989 0.668952 19.9989H18.2419C19.2116 19.9989 20 19.2105 20 18.2408V13.5537C20 12.584 19.2105 11.7957 18.2419 11.7957ZM18.2419 12.9677C18.5648 12.9677 18.828 13.2309 18.828 13.5537C18.828 13.8766 18.5648 14.1398 18.2419 14.1398H15.8204C16.1046 13.7671 16.3567 13.3757 16.5767 12.9677H18.2419ZM5.35161 15.3118V18.8268H1.83879V15.3118H5.35161ZM6.52366 15.3118H10.0199V18.8268H6.52366V15.3118ZM7.636 12.8881C7.636 12.2424 8.16121 11.7161 8.80805 11.7161C9.45378 11.7161 9.9801 12.2413 9.9801 12.8881C9.9801 13.5338 9.45489 14.0601 8.80805 14.0601C8.16121 14.059 7.636 13.5338 7.636 12.8881ZM11.192 15.3118H14.718V18.8268H11.192V15.3118V15.3118ZM1.17315 8.80805C1.17315 4.59752 4.59863 1.17204 8.80805 1.17204C13.0175 1.17204 16.4429 4.59752 16.4429 8.80805C16.4429 10.8193 15.6745 12.7057 14.2736 14.1398H10.7873C11.7747 12.5829 10.6479 10.544 8.80805 10.544C6.96594 10.544 5.84255 12.5862 6.82884 14.1398H3.34144C1.94162 12.7057 1.17315 10.8193 1.17315 8.80805ZM18.2419 18.8268H15.8901V15.3118C18.4354 15.3118 18.4542 15.3439 18.8268 15.2112V18.2419C18.828 18.5637 18.5648 18.8268 18.2419 18.8268Z" fill="#00FF00"/>
<path d="M8.80783 7.07198C10.1004 7.07198 11.1508 6.02045 11.1508 4.72788C11.1508 3.43531 10.0993 2.38379 8.80783 2.38379C7.51526 2.38379 6.46484 3.43531 6.46484 4.72788C6.46484 6.02045 7.51526 7.07198 8.80783 7.07198ZM8.80783 3.55584C9.45357 3.55584 9.97988 4.08104 9.97988 4.72788C9.97988 5.37361 9.45467 5.89993 8.80783 5.89993C8.1621 5.89993 7.63579 5.37472 7.63579 4.72788C7.63579 4.08215 8.161 3.55584 8.80783 3.55584Z" fill="#00FF00"/>
<path d="M7.071 8.80783C7.071 7.51526 6.01948 6.46484 4.72691 6.46484C3.43434 6.46484 2.38281 7.51637 2.38281 8.80783C2.38281 10.0993 3.43434 11.1508 4.72691 11.1508C6.01948 11.1508 7.071 10.0993 7.071 8.80783ZM4.72801 9.97877C4.08228 9.97877 3.55597 9.45356 3.55597 8.80673C3.55597 8.15989 4.08118 7.63468 4.72801 7.63468C5.37485 7.63468 5.90006 8.15989 5.90006 8.80673C5.90006 9.45356 5.37375 9.97877 4.72801 9.97877Z" fill="#00FF00"/>
<path d="M12.8871 11.1508C14.1796 11.1508 15.2312 10.0993 15.2312 8.80783C15.2312 7.51637 14.1796 6.46484 12.8871 6.46484C11.5945 6.46484 10.543 7.51637 10.543 8.80783C10.543 10.0993 11.5956 11.1508 12.8871 11.1508ZM12.8871 7.63579C13.5328 7.63579 14.0591 8.161 14.0591 8.80783C14.0591 9.45467 13.5339 9.97988 12.8871 9.97988C12.2402 9.97988 11.715 9.45467 11.715 8.80783C11.715 8.161 12.2413 7.63579 12.8871 7.63579Z" fill="#00FF00"/>
</svg>
