<svg width="20" height="21" viewBox="0 0 20 21" fill="none" xmlns="http://www.w3.org/2000/svg">
<path fill-rule="evenodd" clip-rule="evenodd" d="M16.2226 8.34167C14.4686 4.87943 12.8134 3.64136 11.2342 3.19653C11.2342 2.84331 11.1908 2.49251 11.1052 2.15014C10.9991 1.71616 10.8074 1.30869 10.5422 0.949446C10.4398 0.814428 10.3252 0.690265 10.1987 0.578152C10.0745 0.46845 9.94068 0.372007 9.79722 0.290032C9.65256 0.211674 9.49826 0.148989 9.34034 0.103179C9.17639 0.0525473 9.00641 0.0212054 8.83523 0.00673924C8.37592 -0.0233986 7.91421 0.0477256 7.48625 0.216498C6.97029 0.416613 6.48688 0.691466 6.05048 1.03263C5.46942 1.45456 4.82086 1.77281 4.13251 1.97534C3.55507 2.15255 2.96316 2.27551 2.36402 2.34423C2.31701 2.35026 2.28445 2.39365 2.29048 2.44067C2.29289 2.45634 2.29892 2.47081 2.30856 2.48286C2.97401 3.33396 3.7154 4.12236 4.52189 4.84085C5.1584 5.41468 5.87569 5.89326 6.64963 6.26094C7.03418 6.43936 7.44165 6.56474 7.85996 6.63225C8.22644 6.69252 8.60015 6.68408 8.96422 6.60934C9.26318 6.54545 9.54889 6.42731 9.80566 6.26094C10.0685 6.08976 10.2987 5.87398 10.488 5.62444C10.5675 5.51956 10.6411 5.40986 10.7074 5.29533C10.7749 5.1796 10.8352 5.05905 10.8894 4.93609C10.9075 4.89389 10.8882 4.84447 10.846 4.82518H10.8279C10.4639 4.75164 10.0926 4.71065 9.72128 4.70342C9.36203 4.70342 9.00882 4.70342 8.66042 4.72151C8.1312 4.75647 7.60078 4.75647 7.07035 4.72151C6.51702 4.6769 5.97574 4.53706 5.47063 4.30681C5.2898 4.21398 5.21747 3.99097 5.31029 3.81014C5.3983 3.64016 5.60082 3.56421 5.77803 3.63775C6.7099 4.06691 7.65502 4.03195 8.62908 3.99458C9.02087 3.97891 9.41749 3.96444 9.81892 3.97409C10.1516 3.98132 10.4832 4.01146 10.8123 4.0645C12.2504 4.45388 13.7658 5.54487 15.4161 8.75154C15.5294 8.97456 15.8031 9.06257 16.0249 8.94925C16.2467 8.83593 16.3359 8.56348 16.2226 8.34167ZM19.9464 8.80839C19.932 8.80237 19.9163 8.80116 19.9018 8.80357C18.8325 8.95547 17.7789 9.20381 16.753 9.54376C15.9417 9.80536 15.1714 10.1827 14.4686 10.6661C14.1226 10.9108 13.8116 11.2013 13.5439 11.5304C13.3101 11.8137 13.1292 12.138 13.0111 12.4852C12.9171 12.7757 12.8773 13.0819 12.8917 13.3869C12.9086 13.7004 12.9797 14.0078 13.1015 14.2971C13.1521 14.4189 13.21 14.537 13.2763 14.6503C13.3438 14.7757 13.4186 14.8962 13.5017 15.012C13.5295 15.0493 13.5825 15.0566 13.6211 15.0301H13.6331C13.8791 14.7516 14.0985 14.4514 14.2901 14.1332C14.477 13.8245 14.641 13.5135 14.7953 13.2061C15.0327 12.7324 15.3004 12.273 15.5957 11.8342C15.9104 11.3774 16.3034 10.9783 16.7554 10.6565C16.929 10.5504 17.1569 10.6058 17.2617 10.7794C17.357 10.9373 17.322 11.1411 17.1798 11.2568C16.3431 11.8487 15.9007 12.6865 15.4462 13.5485C15.2642 13.8969 15.0773 14.2489 14.8676 14.59C14.6976 14.8709 14.5083 15.1398 14.301 15.3941C13.2474 16.4453 11.5416 17.2133 7.94069 17.0372C7.69115 17.0252 7.47778 17.2169 7.46572 17.4664C7.45367 17.7159 7.64534 17.9293 7.89488 17.9414C11.761 18.1306 13.6512 17.3097 14.8338 16.1729C15.1388 16.3501 15.4655 16.4875 15.8043 16.5852C16.2322 16.7106 16.6807 16.7479 17.1231 16.6961C17.2943 16.6756 17.4643 16.6382 17.6282 16.5852C17.7849 16.5333 17.9356 16.4658 18.0779 16.3826C18.2225 16.2983 18.3576 16.1982 18.4793 16.0849C18.5987 15.9667 18.7059 15.8366 18.7976 15.6955C19.0519 15.3158 19.2207 14.8842 19.2906 14.4321C19.3714 13.8848 19.3714 13.3291 19.2906 12.7818C19.2135 12.0645 19.2605 11.3376 19.4293 10.636C19.5643 10.0477 19.7523 9.47384 19.9922 8.92051C20.0127 8.8759 19.991 8.82648 19.9464 8.80839ZM6.4688 14.0017C6.61587 14.3995 6.70869 14.8167 6.74365 15.2398C6.81357 16.0945 6.75812 16.954 6.58091 17.7943C6.36151 18.8515 6.04928 19.887 5.64543 20.8876C5.6394 20.9045 5.62976 20.919 5.61529 20.9286C5.57671 20.9551 5.52367 20.9479 5.49595 20.9105C5.1367 20.4259 4.73406 19.9751 4.29284 19.564C3.76965 19.0685 3.16569 18.6671 2.50627 18.3765C1.99272 18.1692 1.51293 17.8883 1.08135 17.5423C0.719696 17.253 0.427963 16.8877 0.224231 16.473C0.153106 16.3247 0.0976517 16.1717 0.0578697 16.0125C0.0204988 15.8474 0 15.6774 0 15.5074C0 15.341 0.0168825 15.1759 0.0506369 15.0144C0.0916244 14.8516 0.148279 14.6925 0.219405 14.5394C0.396615 14.1307 0.6546 13.7606 0.977678 13.4532C1.23084 13.2085 1.51413 12.9951 1.81913 12.8191C1.42492 11.229 1.65759 9.17484 3.75518 5.92236C3.8902 5.73912 4.13974 5.68608 4.33865 5.79699C4.55564 5.91995 4.634 6.19481 4.51224 6.413C2.54966 9.44487 2.36161 11.305 2.74375 12.7432C2.86189 13.0542 3.00294 13.3556 3.16327 13.6473C3.34152 13.9686 3.54009 14.2846 3.73783 14.5992C3.75005 14.6187 3.76226 14.6381 3.77447 14.6575C4.29284 15.4821 4.79795 16.2934 4.89198 17.3036C4.89198 17.3217 4.89439 17.3398 4.8968 17.3567C4.93056 17.558 5.11982 17.6942 5.32115 17.6605C5.52247 17.6267 5.65869 17.4374 5.62494 17.2361C5.5719 16.684 5.42241 16.1451 5.18492 15.6436C4.95226 15.1662 4.68946 14.7057 4.39652 14.2633C4.20966 13.9668 4.0228 13.669 3.85042 13.3532C3.67079 13.0313 3.52131 12.6925 3.40317 12.3429C3.40197 12.3369 3.40197 12.3309 3.40317 12.3249C3.39835 12.2778 3.43211 12.2356 3.47912 12.2308C3.61173 12.2151 3.74674 12.2079 3.88055 12.2079C4.01195 12.2079 4.14456 12.2164 4.27476 12.2332C4.58819 12.2706 4.89199 12.3622 5.17408 12.5033C5.44652 12.6419 5.69245 12.83 5.89739 13.0566C6.14452 13.3339 6.3374 13.6545 6.4688 14.0017Z" fill="#00FF00"/>
</svg>
