<svg width="88" height="17" viewBox="0 0 88 17" fill="none" xmlns="http://www.w3.org/2000/svg">
<rect y="9" width="88" height="8" fill="#0000FF"/>
<path d="M5.04883 2.22754L5.14007 2.26846L5.14883 2.24894V2.22754H5.04883ZM2.01172 9V9.1H2.07647L2.10296 9.04092L2.01172 9ZM1.40137 9L1.3104 8.95848L1.2458 9.1H1.40137V9ZM4.41895 2.38867L4.50992 2.43019L4.57451 2.28867H4.41895V2.38867ZM0.375977 2.38867H0.275977V2.48867H0.375977V2.38867ZM0.375977 1.89062V1.79062H0.275977V1.89062H0.375977ZM5.04883 1.89062H5.14883V1.79062H5.04883V1.89062ZM4.95758 2.18662L1.92047 8.95908L2.10296 9.04092L5.14007 2.26846L4.95758 2.18662ZM2.01172 8.9H1.40137L1.40137 9.1H2.01172V8.9ZM1.49234 9.04152L4.50992 2.43019L4.32797 2.34715L1.3104 8.95848L1.49234 9.04152ZM4.41895 2.28867L0.375977 2.28867V2.48867L4.41895 2.48867V2.28867ZM0.475977 2.38867L0.475977 1.89062H0.275977L0.275977 2.38867H0.475977ZM0.375977 1.99063L5.04883 1.99063V1.79062L0.375977 1.79062L0.375977 1.99063ZM4.94883 1.89062V2.22754H5.14883V1.89062H4.94883ZM6.61133 5.35742L6.51182 5.34747L6.5035 5.43074L6.58399 5.45361L6.61133 5.35742ZM6.95801 1.89062V1.79062H6.86751L6.8585 1.88067L6.95801 1.89062ZM10.5127 1.89062H10.6127V1.79062H10.5127V1.89062ZM10.5127 2.43262V2.53262H10.6127V2.43262H10.5127ZM7.46094 2.43262V2.33262H7.37077L7.36147 2.42231L7.46094 2.43262ZM7.21191 4.83496L7.11245 4.82465L7.09019 5.03933L7.26836 4.91751L7.21191 4.83496ZM6.36719 7.12988V7.02988H6.25789L6.26758 7.13875L6.36719 7.12988ZM6.92871 7.12988L7.02807 7.11855L7.01795 7.02988H6.92871V7.12988ZM7.42188 8.2334L7.3543 8.30712L7.35478 8.30755L7.42188 8.2334ZM9.67773 8.12109L9.59995 8.05824L9.59957 8.05872L9.67773 8.12109ZM7.72461 5.08398L7.75624 5.17886L7.75758 5.17839L7.72461 5.08398ZM7.0752 5.48926L7.04786 5.58545L7.10052 5.60041L7.1415 5.56412L7.0752 5.48926ZM6.71083 5.36737L7.05751 1.90058L6.8585 1.88067L6.51182 5.34747L6.71083 5.36737ZM6.95801 1.99063L10.5127 1.99063V1.79062L6.95801 1.79062V1.99063ZM10.4127 1.89062V2.43262H10.6127V1.89062H10.4127ZM10.5127 2.33262L7.46094 2.33262V2.53262L10.5127 2.53262V2.33262ZM7.36147 2.42231L7.11245 4.82465L7.31138 4.84527L7.5604 2.44293L7.36147 2.42231ZM7.26836 4.91751C7.63082 4.66967 8.05662 4.54434 8.5498 4.54434V4.34434C8.02086 4.34434 7.55473 4.47941 7.15547 4.75241L7.26836 4.91751ZM8.5498 4.54434C9.16722 4.54434 9.64995 4.74378 10.0092 5.1368L10.1568 5.00187C9.75434 4.56155 9.21494 4.34434 8.5498 4.34434V4.54434ZM10.0092 5.1368C10.3696 5.53106 10.5543 6.06001 10.5543 6.73437H10.7543C10.7543 6.02202 10.5582 5.44095 10.1568 5.00187L10.0092 5.1368ZM10.5543 6.73437C10.5543 7.4671 10.3729 8.02125 10.0232 8.41074L10.1721 8.54434C10.5646 8.107 10.7543 7.49905 10.7543 6.73437H10.5543ZM10.0232 8.41074C9.67509 8.79859 9.18227 8.99766 8.53027 8.99766V9.19766C9.22593 9.19766 9.77803 8.98332 10.1721 8.54434L10.0232 8.41074ZM8.53027 8.99766C7.93131 8.99766 7.45546 8.83111 7.09319 8.50569L6.95954 8.65447C7.36551 9.01915 7.89226 9.19766 8.53027 9.19766V8.99766ZM7.09319 8.50569C6.73168 8.18094 6.52038 7.72312 6.46679 7.12102L6.26758 7.13875C6.32467 7.78013 6.55282 8.28911 6.95954 8.65447L7.09319 8.50569ZM6.36719 7.22988H6.92871V7.02988H6.36719V7.22988ZM6.82936 7.14122C6.88655 7.64249 7.05812 8.03561 7.3543 8.30711L7.48945 8.15968C7.23875 7.92988 7.08155 7.58732 7.02807 7.11855L6.82936 7.14122ZM7.35478 8.30755C7.65106 8.57561 8.04673 8.70449 8.53027 8.70449V8.50449C8.08283 8.50449 7.73956 8.38597 7.48897 8.15924L7.35478 8.30755ZM8.53027 8.70449C9.06074 8.70449 9.47539 8.53498 9.7559 8.18347L9.59957 8.05872C9.36575 8.35173 9.01543 8.50449 8.53027 8.50449V8.70449ZM9.75551 8.18395C10.0354 7.83754 10.1684 7.35296 10.1684 6.74414H9.96836C9.96836 7.32673 9.84087 7.76011 9.59996 8.05824L9.75551 8.18395ZM10.1684 6.74414C10.1684 6.2038 10.0176 5.75398 9.70882 5.40361L9.55876 5.53584C9.82945 5.84302 9.96836 6.24281 9.96836 6.74414H10.1684ZM9.70882 5.40361C9.39728 5.05008 8.9727 4.87656 8.44727 4.87656V5.07656C8.92444 5.07656 9.29087 5.23182 9.55876 5.53584L9.70882 5.40361ZM8.44727 4.87656C8.16227 4.87656 7.90977 4.9134 7.69164 4.98958L7.75758 5.17839C7.94961 5.11134 8.17887 5.07656 8.44727 5.07656V4.87656ZM7.69299 4.98912C7.47103 5.0631 7.24303 5.20702 7.00889 5.4144L7.1415 5.56412C7.36309 5.36785 7.56803 5.24159 7.75623 5.17885L7.69299 4.98912ZM7.10253 5.39307L6.63867 5.26123L6.58399 5.45361L7.04786 5.58545L7.10253 5.39307ZM12.0166 2.20801L11.9438 2.13944L11.9438 2.13947L12.0166 2.20801ZM14.0137 2.20801L13.9404 2.27612L13.9413 2.27699L14.0137 2.20801ZM14.0186 4.67871L13.9453 4.6106L13.9453 4.61063L14.0186 4.67871ZM12.3486 4.38086L12.2724 4.44563L12.2731 4.44635L12.3486 4.38086ZM13.6865 4.38086L13.6098 4.31672L13.6097 4.31684L13.6865 4.38086ZM13.6816 2.51074L13.6055 2.57562L13.6061 2.57624L13.6816 2.51074ZM12.3535 2.50586L12.2786 2.43965L12.2779 2.44037L12.3535 2.50586ZM15.5957 6.20703L15.5233 6.13804L15.5229 6.13849L15.5957 6.20703ZM17.5879 6.20703L17.5155 6.27602L17.5163 6.27688L17.5879 6.20703ZM17.5928 8.6875L17.5204 8.61851L17.52 8.61896L17.5928 8.6875ZM15.6006 8.69238L15.5282 8.76137L15.529 8.76224L15.6006 8.69238ZM15.9229 8.38965L15.8467 8.45442L15.8473 8.45514L15.9229 8.38965ZM17.2656 8.38965L17.1889 8.32551L17.1888 8.32563L17.2656 8.38965ZM17.2607 6.50488L17.1851 6.57029L17.1863 6.57164L17.2607 6.50488ZM15.9277 6.50488L15.8527 6.43876L15.9277 6.50488ZM13.2129 8.40918L13.159 8.49341L13.2441 8.5479L13.2977 8.46217L13.2129 8.40918ZM12.8467 8.1748L12.7619 8.12182L12.7095 8.20571L12.7928 8.25903L12.8467 8.1748ZM16.3184 2.61816L16.3723 2.53394L16.2871 2.47944L16.2336 2.56518L16.3184 2.61816ZM16.6846 2.85254L16.7694 2.90553L16.8218 2.82163L16.7385 2.76831L16.6846 2.85254ZM11.726 3.25781C11.726 2.85697 11.8485 2.53252 12.0894 2.27654L11.9438 2.13947C11.6639 2.43688 11.526 2.8123 11.526 3.25781H11.726ZM12.0894 2.27657C12.3331 2.01778 12.64 1.88809 13.0176 1.88809V1.68809C12.5879 1.68809 12.2274 1.83834 11.9438 2.13944L12.0894 2.27657ZM13.0176 1.88809C13.3952 1.88809 13.7001 2.01775 13.9405 2.27612L14.0869 2.1399C13.8064 1.83837 13.4473 1.68809 13.0176 1.68809V1.88809ZM13.9413 2.27699C14.1844 2.53215 14.3092 2.86572 14.3092 3.28711H14.5092C14.5092 2.82308 14.3703 2.43725 14.0861 2.13902L13.9413 2.27699ZM14.3092 3.28711V3.63379H14.5092V3.28711H14.3092ZM14.3092 3.63379C14.3092 4.02766 14.1869 4.35089 13.9453 4.6106L14.0918 4.74682C14.371 4.44664 14.5092 4.07326 14.5092 3.63379H14.3092ZM13.9453 4.61063C13.7085 4.86546 13.4053 4.99375 13.0273 4.99375V5.19375C13.4566 5.19375 13.8143 5.04535 14.0918 4.74679L13.9453 4.61063ZM13.0273 4.99375C12.6525 4.99375 12.3451 4.86689 12.0979 4.61374L11.9548 4.75345C12.2415 5.04717 12.6015 5.19375 13.0273 5.19375V4.99375ZM12.0979 4.61374C11.8524 4.36223 11.726 4.02764 11.726 3.59961H11.526C11.526 4.07001 11.6665 4.45808 11.9548 4.75345L12.0979 4.61374ZM11.726 3.59961V3.25781H11.526V3.59961H11.726ZM11.9996 3.63379C11.9996 3.95574 12.0884 4.22907 12.2724 4.44562L12.4248 4.31609C12.2769 4.14203 12.1996 3.91731 12.1996 3.63379H11.9996ZM12.2731 4.44635C12.4633 4.66584 12.7183 4.77383 13.0273 4.77383V4.57383C12.77 4.57383 12.5725 4.48651 12.4242 4.31537L12.2731 4.44635ZM13.0273 4.77383C13.3307 4.77383 13.5798 4.66518 13.7633 4.44488L13.6097 4.31684C13.4678 4.48716 13.2773 4.57383 13.0273 4.57383V4.77383ZM13.7632 4.445C13.9473 4.22491 14.0355 3.94515 14.0355 3.61426H13.8355C13.8355 3.90837 13.7578 4.13967 13.6098 4.31672L13.7632 4.445ZM14.0355 3.61426V3.25781H13.8355V3.61426H14.0355ZM14.0355 3.25781C14.0355 2.93537 13.9449 2.66178 13.7572 2.44525L13.6061 2.57624C13.757 2.75033 13.8355 2.97479 13.8355 3.25781H14.0355ZM13.7577 2.44587C13.5685 2.22382 13.3187 2.11289 13.0176 2.11289V2.31289C13.2633 2.31289 13.4563 2.40053 13.6055 2.57562L13.7577 2.44587ZM13.0176 2.11289C12.7199 2.11289 12.4709 2.22197 12.2786 2.43966L12.4285 2.57206C12.5812 2.39912 12.7749 2.31289 13.0176 2.31289V2.11289ZM12.2779 2.44037C12.0892 2.6582 11.9996 2.94397 11.9996 3.28711H12.1996C12.1996 2.97921 12.2793 2.74415 12.4291 2.57135L12.2779 2.44037ZM11.9996 3.28711V3.63379H12.1996V3.28711H11.9996ZM15.3051 7.25684C15.3051 6.85599 15.4276 6.53154 15.6685 6.27557L15.5229 6.13849C15.243 6.43591 15.1051 6.81133 15.1051 7.25684H15.3051ZM15.6681 6.27602C15.9119 6.02016 16.2173 5.89199 16.5918 5.89199V5.69199C16.1655 5.69199 15.8068 5.84051 15.5233 6.13804L15.6681 6.27602ZM16.5918 5.89199C16.9663 5.89199 17.2717 6.02016 17.5155 6.27602L17.6603 6.13804C17.3768 5.84051 17.0181 5.69199 16.5918 5.69199V5.89199ZM17.5163 6.27688C17.7619 6.5284 17.8883 6.86298 17.8883 7.29102H18.0883C18.0883 6.82061 17.9478 6.43254 17.6594 6.13718L17.5163 6.27688ZM17.8883 7.29102V7.6377H18.0883V7.29102H17.8883ZM17.8883 7.6377C17.8883 8.03818 17.7644 8.36248 17.5204 8.61851L17.6652 8.75649C17.9485 8.45914 18.0883 8.08356 18.0883 7.6377H17.8883ZM17.52 8.61896C17.2795 8.8744 16.976 9.00254 16.6016 9.00254V9.20254C17.0279 9.20254 17.3852 9.05399 17.6656 8.75604L17.52 8.61896ZM16.6016 9.00254C16.2267 9.00254 15.9193 8.87568 15.6721 8.62253L15.529 8.76224C15.8158 9.05596 16.1757 9.20254 16.6016 9.20254V9.00254ZM15.673 8.6234C15.4298 8.36824 15.3051 8.03467 15.3051 7.61328H15.1051C15.1051 8.07731 15.244 8.46314 15.5282 8.76137L15.673 8.6234ZM15.3051 7.61328V7.25684H15.1051V7.61328H15.3051ZM15.5738 7.6377C15.5738 7.9626 15.6624 8.23766 15.8467 8.45441L15.999 8.32488C15.8513 8.15101 15.7738 7.92477 15.7738 7.6377H15.5738ZM15.8473 8.45514C16.0375 8.67463 16.2925 8.78262 16.6016 8.78262V8.58262C16.3442 8.58262 16.1467 8.49529 15.9984 8.32416L15.8473 8.45514ZM16.6016 8.78262C16.9078 8.78262 17.1586 8.67427 17.3424 8.45367L17.1888 8.32563C17.0471 8.49566 16.8552 8.58262 16.6016 8.58262V8.78262ZM17.3423 8.45379C17.5267 8.23334 17.6146 7.9501 17.6146 7.61328H17.4146C17.4146 7.91448 17.3366 8.14883 17.1889 8.32551L17.3423 8.45379ZM17.6146 7.61328V7.25684H17.4146V7.61328H17.6146ZM17.6146 7.25684C17.6146 6.92568 17.5245 6.64929 17.3352 6.43813L17.1863 6.57164C17.3355 6.73808 17.4146 6.963 17.4146 7.25684H17.6146ZM17.3364 6.43949C17.1493 6.22304 16.8974 6.1168 16.5918 6.1168V6.3168C16.8461 6.3168 17.0402 6.40261 17.1851 6.57028L17.3364 6.43949ZM16.5918 6.1168C16.2919 6.1168 16.0424 6.22356 15.8527 6.43876L16.0028 6.571C16.1516 6.40209 16.3449 6.3168 16.5918 6.3168V6.1168ZM15.8527 6.43876C15.6635 6.65344 15.5738 6.93627 15.5738 7.27637H15.7738C15.7738 6.97193 15.8534 6.74044 16.0028 6.571L15.8527 6.43876ZM15.5738 7.27637V7.6377H15.7738V7.27637H15.5738ZM13.2668 8.32495L12.9006 8.09058L12.7928 8.25903L13.159 8.49341L13.2668 8.32495ZM12.9315 8.22779L16.4032 2.67115L16.2336 2.56518L12.7619 8.12182L12.9315 8.22779ZM16.2645 2.70239L16.6307 2.93677L16.7385 2.76831L16.3723 2.53394L16.2645 2.70239ZM16.5998 2.79955L13.1281 8.35619L13.2977 8.46217L16.7694 2.90553L16.5998 2.79955Z" fill="#0000FF"/>
</svg>
