<svg width="102" height="17" viewBox="0 0 102 17" fill="none" xmlns="http://www.w3.org/2000/svg">
<rect y="9" width="102" height="8" fill="#0000FF"/>
<path d="M4.31641 5.70898L4.41638 5.71141L4.42459 5.37241L4.23375 5.65271L4.31641 5.70898ZM3.54004 6.42187L3.58734 6.50998L3.58805 6.50959L3.54004 6.42187ZM1.46484 6.3584L1.52072 6.27546L1.46484 6.3584ZM0.761719 3.00879L0.671374 2.96591L0.671081 2.96654L0.761719 3.00879ZM1.51855 2.11523L1.57344 2.19883L1.57364 2.1987L1.51855 2.11523ZM4.30664 2.54492L4.22826 2.60702L4.22845 2.60727L4.30664 2.54492ZM1.46973 9.05371L1.36973 9.05275L1.36876 9.15371H1.46973V9.05371ZM1.47461 8.5459V8.4459H1.37557L1.37461 8.54494L1.47461 8.5459ZM1.67969 8.5459L1.67969 8.64591L1.68122 8.64589L1.67969 8.5459ZM3.65723 5.82129L3.71709 5.90139L3.71723 5.90129L3.65723 5.82129ZM4.32129 4.91309L4.41565 4.94619L4.42129 4.93012V4.91309H4.32129ZM3.86719 2.89648L3.78711 2.95638L3.78766 2.95711L3.86719 2.89648ZM1.51367 2.85742L1.59183 2.91981L1.59209 2.91947L1.51367 2.85742ZM1.49414 5.62598L1.41516 5.68732L1.41578 5.6881L1.49414 5.62598ZM4.23375 5.65271C4.03385 5.9463 3.7867 6.17286 3.49202 6.33416L3.58805 6.50959C3.91187 6.33235 4.18229 6.08365 4.39907 5.76526L4.23375 5.65271ZM3.49274 6.33377C3.19848 6.49174 2.87951 6.5709 2.53418 6.5709V6.7709C2.91151 6.7709 3.26311 6.68404 3.58734 6.50998L3.49274 6.33377ZM2.53418 6.5709C2.14872 6.5709 1.81208 6.47175 1.52072 6.27546L1.40897 6.44133C1.7361 6.66171 2.11235 6.7709 2.53418 6.7709V6.5709ZM1.52072 6.27546C1.22798 6.07825 1.0002 5.805 0.837913 5.45234L0.656227 5.53594C0.832481 5.91896 1.08322 6.22188 1.40897 6.44133L1.52072 6.27546ZM0.837913 5.45234C0.675132 5.0986 0.593164 4.71098 0.593164 4.28809H0.393164C0.393164 4.73758 0.480467 5.154 0.656227 5.53594L0.837913 5.45234ZM0.593164 4.28809C0.593164 3.83237 0.680115 3.42057 0.852357 3.05104L0.671081 2.96654C0.48525 3.36523 0.393164 3.8063 0.393164 4.28809H0.593164ZM0.852061 3.05166C1.02732 2.68236 1.26805 2.39933 1.57344 2.19883L1.46367 2.03164C1.12453 2.25431 0.860696 2.56699 0.671376 2.96591L0.852061 3.05166ZM1.57364 2.1987C1.88142 1.99556 2.23627 1.89297 2.6416 1.89297V1.69297C2.20058 1.69297 1.80673 1.80522 1.46347 2.03177L1.57364 2.1987ZM2.6416 1.89297C3.32793 1.89297 3.85243 2.13262 4.22826 2.60702L4.38502 2.48283C3.96658 1.95462 3.38105 1.69297 2.6416 1.69297V1.89297ZM4.22845 2.60727C4.60641 3.08126 4.80234 3.76391 4.80234 4.66895H5.00234C5.00234 3.73804 4.80114 3.00467 4.38483 2.48258L4.22845 2.60727ZM4.80234 4.66895V5.19629H5.00234V4.66895H4.80234ZM4.80234 5.19629C4.80234 6.46692 4.53112 7.40307 4.00578 8.02222L4.15828 8.15161C4.72669 7.4817 5.00234 6.49076 5.00234 5.19629H4.80234ZM4.00578 8.02222C3.48367 8.63757 2.68108 8.95371 1.57715 8.95371L1.57715 9.15371C2.71931 9.15371 3.58665 8.82533 4.15828 8.15161L4.00578 8.02222ZM1.57715 8.95371H1.46973L1.46973 9.15371H1.57715L1.57715 8.95371ZM1.56972 9.05467L1.5746 8.54686L1.37461 8.54494L1.36973 9.05275L1.56972 9.05467ZM1.47461 8.6459H1.67969V8.4459H1.47461V8.6459ZM1.68122 8.64589C2.54887 8.63259 3.22428 8.38593 3.69087 7.8919L3.54546 7.75458C3.12663 8.19805 2.50972 8.43317 1.67816 8.44591L1.68122 8.64589ZM3.69087 7.8919C4.15689 7.39847 4.39326 6.66569 4.41638 5.71141L4.21644 5.70656C4.19398 6.63379 3.96486 7.31051 3.54546 7.75458L3.69087 7.8919ZM2.60742 6.26797C3.01935 6.26797 3.39034 6.14559 3.71709 5.90139L3.59736 5.74119C3.30562 5.95923 2.97674 6.06797 2.60742 6.06797V6.26797ZM3.71723 5.90129C4.04568 5.65495 4.27893 5.33584 4.41565 4.94619L4.22693 4.87998C4.10323 5.23252 3.89377 5.51888 3.59723 5.74129L3.71723 5.90129ZM4.42129 4.91309V4.57617H4.22129V4.91309H4.42129ZM4.42129 4.57617C4.42129 3.84107 4.2675 3.25668 3.94672 2.83586L3.78766 2.95711C4.07234 3.33056 4.22129 3.86596 4.22129 4.57617H4.42129ZM3.94727 2.83659C3.62842 2.41031 3.19313 2.1959 2.65137 2.1959V2.3959C3.13174 2.3959 3.507 2.58188 3.78711 2.95638L3.94727 2.83659ZM2.65137 2.1959C2.15742 2.1959 1.74972 2.39796 1.43525 2.79537L1.59209 2.91947C1.87007 2.56818 2.22084 2.3959 2.65137 2.3959V2.1959ZM1.43552 2.79504C1.12256 3.1871 0.969336 3.67914 0.969336 4.26367H1.16934C1.16934 3.7154 1.31234 3.26993 1.59183 2.91981L1.43552 2.79504ZM0.969336 4.26367C0.969336 4.82541 1.11602 5.30221 1.41517 5.68732L1.57311 5.56463C1.30586 5.22058 1.16934 4.78917 1.16934 4.26367H0.969336ZM1.41578 5.6881C1.72094 6.07303 2.12074 6.26797 2.60742 6.26797V6.06797C2.18264 6.06797 1.84025 5.90158 1.5725 5.56385L1.41578 5.6881ZM9.86328 5.70898L9.96325 5.71141L9.97146 5.37241L9.78062 5.65271L9.86328 5.70898ZM9.08691 6.42187L9.13421 6.50998L9.13493 6.50959L9.08691 6.42187ZM7.01172 6.3584L7.06759 6.27546L7.01172 6.3584ZM6.30859 3.00879L6.21825 2.96591L6.21796 2.96654L6.30859 3.00879ZM7.06543 2.11523L7.12031 2.19883L7.12051 2.1987L7.06543 2.11523ZM9.85352 2.54492L9.77513 2.60702L9.77533 2.60727L9.85352 2.54492ZM7.0166 9.05371L6.91661 9.05275L6.91564 9.15371H7.0166V9.05371ZM7.02148 8.5459V8.4459H6.92244L6.92149 8.54494L7.02148 8.5459ZM7.22656 8.5459L7.22656 8.64591L7.22809 8.64589L7.22656 8.5459ZM9.2041 5.82129L9.26397 5.90139L9.2641 5.90129L9.2041 5.82129ZM9.86816 4.91309L9.96252 4.94619L9.96816 4.93012V4.91309H9.86816ZM9.41406 2.89648L9.33398 2.95638L9.33453 2.95711L9.41406 2.89648ZM7.06055 2.85742L7.1387 2.91981L7.13897 2.91947L7.06055 2.85742ZM7.04102 5.62598L6.96204 5.68732L6.96265 5.6881L7.04102 5.62598ZM9.78062 5.65271C9.58073 5.9463 9.33357 6.17286 9.0389 6.33416L9.13493 6.50959C9.45874 6.33235 9.72917 6.08365 9.94594 5.76526L9.78062 5.65271ZM9.03961 6.33377C8.74535 6.49174 8.42638 6.5709 8.08105 6.5709V6.7709C8.45838 6.7709 8.80999 6.68404 9.13421 6.50998L9.03961 6.33377ZM8.08105 6.5709C7.6956 6.5709 7.35895 6.47175 7.06759 6.27546L6.95585 6.44133C7.28297 6.66171 7.65922 6.7709 8.08105 6.7709V6.5709ZM7.06759 6.27546C6.77485 6.07825 6.54708 5.805 6.38479 5.45234L6.2031 5.53594C6.37936 5.91896 6.6301 6.22188 6.95585 6.44133L7.06759 6.27546ZM6.38479 5.45234C6.22201 5.0986 6.14004 4.71098 6.14004 4.28809H5.94004C5.94004 4.73758 6.02734 5.154 6.2031 5.53594L6.38479 5.45234ZM6.14004 4.28809C6.14004 3.83237 6.22699 3.42057 6.39923 3.05104L6.21796 2.96654C6.03212 3.36523 5.94004 3.8063 5.94004 4.28809H6.14004ZM6.39894 3.05166C6.5742 2.68236 6.81493 2.39933 7.12031 2.19883L7.01055 2.03164C6.6714 2.25431 6.40757 2.56699 6.21825 2.96591L6.39894 3.05166ZM7.12051 2.1987C7.4283 1.99556 7.78315 1.89297 8.18848 1.89297V1.69297C7.74745 1.69297 7.3536 1.80522 7.01035 2.03177L7.12051 2.1987ZM8.18848 1.89297C8.87481 1.89297 9.39931 2.13262 9.77513 2.60702L9.9319 2.48283C9.51345 1.95462 8.92793 1.69297 8.18848 1.69297V1.89297ZM9.77533 2.60727C10.1533 3.08126 10.3492 3.76391 10.3492 4.66895H10.5492C10.5492 3.73804 10.348 3.00467 9.9317 2.48258L9.77533 2.60727ZM10.3492 4.66895V5.19629H10.5492V4.66895H10.3492ZM10.3492 5.19629C10.3492 6.46692 10.078 7.40307 9.55266 8.02222L9.70516 8.15161C10.2736 7.4817 10.5492 6.49076 10.5492 5.19629H10.3492ZM9.55266 8.02222C9.03054 8.63757 8.22796 8.95371 7.12402 8.95371V9.15371C8.26618 9.15371 9.13352 8.82533 9.70516 8.15161L9.55266 8.02222ZM7.12402 8.95371H7.0166V9.15371H7.12402V8.95371ZM7.1166 9.05467L7.12148 8.54686L6.92149 8.54494L6.91661 9.05275L7.1166 9.05467ZM7.02148 8.6459H7.22656V8.4459H7.02148V8.6459ZM7.22809 8.64589C8.09575 8.63259 8.77116 8.38593 9.23774 7.8919L9.09234 7.75458C8.6735 8.19805 8.05659 8.43317 7.22503 8.44591L7.22809 8.64589ZM9.23774 7.8919C9.70376 7.39847 9.94014 6.66569 9.96325 5.71141L9.76331 5.70656C9.74085 6.63379 9.51173 7.31051 9.09234 7.75458L9.23774 7.8919ZM8.1543 6.26797C8.56623 6.26797 8.93722 6.14559 9.26397 5.90139L9.14424 5.74119C8.8525 5.95923 8.52362 6.06797 8.1543 6.06797V6.26797ZM9.2641 5.90129C9.59256 5.65495 9.82581 5.33584 9.96252 4.94619L9.7738 4.87998C9.65011 5.23252 9.44064 5.51888 9.1441 5.74129L9.2641 5.90129ZM9.96816 4.91309V4.57617H9.76816V4.91309H9.96816ZM9.96816 4.57617C9.96816 3.84107 9.81438 3.25668 9.49359 2.83586L9.33453 2.95711C9.61921 3.33056 9.76816 3.86596 9.76816 4.57617H9.96816ZM9.49414 2.83659C9.17529 2.41031 8.74001 2.1959 8.19824 2.1959V2.3959C8.67861 2.3959 9.05387 2.58188 9.33398 2.95638L9.49414 2.83659ZM8.19824 2.1959C7.70429 2.1959 7.2966 2.39796 6.98213 2.79537L7.13897 2.91947C7.41694 2.56818 7.76771 2.3959 8.19824 2.3959V2.1959ZM6.98239 2.79504C6.66943 3.1871 6.51621 3.67914 6.51621 4.26367H6.71621C6.71621 3.7154 6.85921 3.26993 7.1387 2.91981L6.98239 2.79504ZM6.51621 4.26367C6.51621 4.82541 6.66289 5.30221 6.96204 5.68732L7.11999 5.56463C6.85273 5.22058 6.71621 4.78917 6.71621 4.26367H6.51621ZM6.96265 5.6881C7.26782 6.07303 7.66762 6.26797 8.1543 6.26797V6.06797C7.72952 6.06797 7.38713 5.90158 7.11938 5.56385L6.96265 5.6881ZM12.0166 2.20801L11.9438 2.13944L11.9438 2.13947L12.0166 2.20801ZM14.0137 2.20801L13.9404 2.27612L13.9413 2.27699L14.0137 2.20801ZM14.0186 4.67871L13.9453 4.6106L13.9453 4.61063L14.0186 4.67871ZM12.3486 4.38086L12.2724 4.44563L12.2731 4.44635L12.3486 4.38086ZM13.6865 4.38086L13.6098 4.31672L13.6097 4.31684L13.6865 4.38086ZM13.6816 2.51074L13.6055 2.57562L13.6061 2.57624L13.6816 2.51074ZM12.3535 2.50586L12.2786 2.43965L12.2779 2.44037L12.3535 2.50586ZM15.5957 6.20703L15.5233 6.13804L15.5229 6.13849L15.5957 6.20703ZM17.5879 6.20703L17.5155 6.27602L17.5163 6.27688L17.5879 6.20703ZM17.5928 8.6875L17.5204 8.61851L17.52 8.61896L17.5928 8.6875ZM15.6006 8.69238L15.5282 8.76137L15.529 8.76224L15.6006 8.69238ZM15.9229 8.38965L15.8467 8.45442L15.8473 8.45514L15.9229 8.38965ZM17.2656 8.38965L17.1889 8.32551L17.1888 8.32563L17.2656 8.38965ZM17.2607 6.50488L17.1851 6.57029L17.1863 6.57164L17.2607 6.50488ZM15.9277 6.50488L15.8527 6.43876L15.9277 6.50488ZM13.2129 8.40918L13.159 8.49341L13.2441 8.5479L13.2977 8.46217L13.2129 8.40918ZM12.8467 8.1748L12.7619 8.12182L12.7095 8.20571L12.7928 8.25903L12.8467 8.1748ZM16.3184 2.61816L16.3723 2.53394L16.2871 2.47944L16.2336 2.56518L16.3184 2.61816ZM16.6846 2.85254L16.7694 2.90553L16.8218 2.82163L16.7385 2.76831L16.6846 2.85254ZM11.726 3.25781C11.726 2.85697 11.8485 2.53252 12.0894 2.27654L11.9438 2.13947C11.6639 2.43688 11.526 2.8123 11.526 3.25781H11.726ZM12.0894 2.27657C12.3331 2.01778 12.64 1.88809 13.0176 1.88809V1.68809C12.5879 1.68809 12.2274 1.83834 11.9438 2.13944L12.0894 2.27657ZM13.0176 1.88809C13.3952 1.88809 13.7001 2.01775 13.9405 2.27612L14.0869 2.1399C13.8064 1.83837 13.4473 1.68809 13.0176 1.68809V1.88809ZM13.9413 2.27699C14.1844 2.53215 14.3092 2.86572 14.3092 3.28711H14.5092C14.5092 2.82308 14.3703 2.43725 14.0861 2.13902L13.9413 2.27699ZM14.3092 3.28711V3.63379H14.5092V3.28711H14.3092ZM14.3092 3.63379C14.3092 4.02766 14.1869 4.35089 13.9453 4.6106L14.0918 4.74682C14.371 4.44664 14.5092 4.07326 14.5092 3.63379H14.3092ZM13.9453 4.61063C13.7085 4.86546 13.4053 4.99375 13.0273 4.99375V5.19375C13.4566 5.19375 13.8143 5.04535 14.0918 4.74679L13.9453 4.61063ZM13.0273 4.99375C12.6525 4.99375 12.3451 4.86689 12.0979 4.61374L11.9548 4.75345C12.2415 5.04717 12.6015 5.19375 13.0273 5.19375V4.99375ZM12.0979 4.61374C11.8524 4.36223 11.726 4.02764 11.726 3.59961H11.526C11.526 4.07001 11.6665 4.45808 11.9548 4.75345L12.0979 4.61374ZM11.726 3.59961V3.25781H11.526V3.59961H11.726ZM11.9996 3.63379C11.9996 3.95574 12.0884 4.22907 12.2724 4.44562L12.4248 4.31609C12.2769 4.14203 12.1996 3.91731 12.1996 3.63379H11.9996ZM12.2731 4.44635C12.4633 4.66584 12.7183 4.77383 13.0273 4.77383V4.57383C12.77 4.57383 12.5725 4.48651 12.4242 4.31537L12.2731 4.44635ZM13.0273 4.77383C13.3307 4.77383 13.5798 4.66518 13.7633 4.44488L13.6097 4.31684C13.4678 4.48716 13.2773 4.57383 13.0273 4.57383V4.77383ZM13.7632 4.445C13.9473 4.22491 14.0355 3.94515 14.0355 3.61426H13.8355C13.8355 3.90837 13.7578 4.13967 13.6098 4.31672L13.7632 4.445ZM14.0355 3.61426V3.25781H13.8355V3.61426H14.0355ZM14.0355 3.25781C14.0355 2.93537 13.9449 2.66178 13.7572 2.44525L13.6061 2.57624C13.757 2.75033 13.8355 2.97479 13.8355 3.25781H14.0355ZM13.7577 2.44587C13.5685 2.22382 13.3187 2.11289 13.0176 2.11289V2.31289C13.2633 2.31289 13.4563 2.40053 13.6055 2.57562L13.7577 2.44587ZM13.0176 2.11289C12.7199 2.11289 12.4709 2.22197 12.2786 2.43966L12.4285 2.57206C12.5812 2.39912 12.7749 2.31289 13.0176 2.31289V2.11289ZM12.2779 2.44037C12.0892 2.6582 11.9996 2.94397 11.9996 3.28711H12.1996C12.1996 2.97921 12.2793 2.74415 12.4291 2.57135L12.2779 2.44037ZM11.9996 3.28711V3.63379H12.1996V3.28711H11.9996ZM15.3051 7.25684C15.3051 6.85599 15.4276 6.53154 15.6685 6.27557L15.5229 6.13849C15.243 6.43591 15.1051 6.81133 15.1051 7.25684H15.3051ZM15.6681 6.27602C15.9119 6.02016 16.2173 5.89199 16.5918 5.89199V5.69199C16.1655 5.69199 15.8068 5.84051 15.5233 6.13804L15.6681 6.27602ZM16.5918 5.89199C16.9663 5.89199 17.2717 6.02016 17.5155 6.27602L17.6603 6.13804C17.3768 5.84051 17.0181 5.69199 16.5918 5.69199V5.89199ZM17.5163 6.27688C17.7619 6.5284 17.8883 6.86298 17.8883 7.29102H18.0883C18.0883 6.82061 17.9478 6.43254 17.6594 6.13718L17.5163 6.27688ZM17.8883 7.29102V7.6377H18.0883V7.29102H17.8883ZM17.8883 7.6377C17.8883 8.03818 17.7644 8.36248 17.5204 8.61851L17.6652 8.75649C17.9485 8.45914 18.0883 8.08356 18.0883 7.6377H17.8883ZM17.52 8.61896C17.2795 8.8744 16.976 9.00254 16.6016 9.00254V9.20254C17.0279 9.20254 17.3852 9.05399 17.6656 8.75604L17.52 8.61896ZM16.6016 9.00254C16.2267 9.00254 15.9193 8.87568 15.6721 8.62253L15.529 8.76224C15.8158 9.05596 16.1757 9.20254 16.6016 9.20254V9.00254ZM15.673 8.6234C15.4298 8.36824 15.3051 8.03467 15.3051 7.61328H15.1051C15.1051 8.07731 15.244 8.46314 15.5282 8.76137L15.673 8.6234ZM15.3051 7.61328V7.25684H15.1051V7.61328H15.3051ZM15.5738 7.6377C15.5738 7.9626 15.6624 8.23766 15.8467 8.45441L15.999 8.32488C15.8513 8.15101 15.7738 7.92477 15.7738 7.6377H15.5738ZM15.8473 8.45514C16.0375 8.67463 16.2925 8.78262 16.6016 8.78262V8.58262C16.3442 8.58262 16.1467 8.49529 15.9984 8.32416L15.8473 8.45514ZM16.6016 8.78262C16.9078 8.78262 17.1586 8.67427 17.3424 8.45367L17.1888 8.32563C17.0471 8.49566 16.8552 8.58262 16.6016 8.58262V8.78262ZM17.3423 8.45379C17.5267 8.23334 17.6146 7.9501 17.6146 7.61328H17.4146C17.4146 7.91448 17.3366 8.14883 17.1889 8.32551L17.3423 8.45379ZM17.6146 7.61328V7.25684H17.4146V7.61328H17.6146ZM17.6146 7.25684C17.6146 6.92568 17.5245 6.64929 17.3352 6.43813L17.1863 6.57164C17.3355 6.73808 17.4146 6.963 17.4146 7.25684H17.6146ZM17.3364 6.43949C17.1493 6.22304 16.8974 6.1168 16.5918 6.1168V6.3168C16.8461 6.3168 17.0402 6.40261 17.1851 6.57028L17.3364 6.43949ZM16.5918 6.1168C16.2919 6.1168 16.0424 6.22356 15.8527 6.43876L16.0028 6.571C16.1516 6.40209 16.3449 6.3168 16.5918 6.3168V6.1168ZM15.8527 6.43876C15.6635 6.65344 15.5738 6.93627 15.5738 7.27637H15.7738C15.7738 6.97193 15.8534 6.74044 16.0028 6.571L15.8527 6.43876ZM15.5738 7.27637V7.6377H15.7738V7.27637H15.5738ZM13.2668 8.32495L12.9006 8.09058L12.7928 8.25903L13.159 8.49341L13.2668 8.32495ZM12.9315 8.22779L16.4032 2.67115L16.2336 2.56518L12.7619 8.12182L12.9315 8.22779ZM16.2645 2.70239L16.6307 2.93677L16.7385 2.76831L16.3723 2.53394L16.2645 2.70239ZM16.5998 2.79955L13.1281 8.35619L13.2977 8.46217L16.7694 2.90553L16.5998 2.79955Z" fill="#0000FF"/>
</svg>
