<svg width="179" height="41" viewBox="0 0 179 41" fill="none" xmlns="http://www.w3.org/2000/svg">
<path d="M10.1043 18.7319L6.55741 20.5711L10.1043 22.4321L9.14097 24.1289L5.91152 21.5125L6.17426 25.771H4.37891L4.64164 21.5125L1.4122 24.1289L0.437891 22.4321L3.99575 20.5711L0.437891 18.7319L1.4122 17.0022L4.64164 19.6515L4.37891 15.3602H6.17426L5.91152 19.6515L9.14097 17.0022L10.1043 18.7319ZM23.9526 30.9381C23.9964 30.9454 24.0438 30.9491 24.0949 30.9491C24.146 30.9491 24.1971 30.9491 24.2482 30.9491C25.8976 30.9491 27.0106 30.3287 27.5871 29.088C27.7404 28.7523 27.8717 28.4239 27.9812 28.1028C28.098 27.7744 28.2111 27.4715 28.3206 27.1942C28.4373 26.9168 28.5906 26.7015 28.7804 26.5483H29.5248V32H23.9526V30.9381ZM22.9674 32H17.7674V31.1899C17.9645 31.1096 18.1542 31.0512 18.3367 31.0147C18.5264 30.971 18.6943 30.9126 18.8402 30.8396C19.1687 30.679 19.3329 30.3725 19.3329 29.92V18.5458C19.3329 18.086 19.1687 17.7759 18.8402 17.6153C18.6943 17.5423 18.5264 17.4876 18.3367 17.4511C18.1542 17.4073 17.9645 17.3453 17.7674 17.265V16.4439H24.6095V17.265C24.3905 17.3453 24.1825 17.4073 23.9855 17.4511C23.7884 17.4876 23.6169 17.5423 23.4709 17.6153C23.1352 17.7759 22.9674 18.086 22.9674 18.5458V32ZM45.7267 32.1642C44.6247 32.1642 43.7927 31.9124 43.2308 31.4088V24.9062C43.2308 23.972 43.1906 23.3663 43.1103 23.0889C42.9644 22.5343 42.6651 22.2022 42.2127 22.0927V20.7791C45.0662 20.8812 46.493 22.1657 46.493 24.6325V29.5369C46.493 30.4126 46.6974 30.8505 47.1061 30.8505C47.4418 30.8505 47.6461 30.4053 47.7191 29.515L48.5073 29.712C48.3249 30.9454 47.7885 31.7081 46.8981 32C46.577 32.1095 46.1865 32.1642 45.7267 32.1642ZM42.2564 31.6387C41.8404 31.9891 41.2931 32.1642 40.6144 32.1642C39.9429 32.1642 39.3846 32.1022 38.9394 31.9781C38.4942 31.8467 38.1111 31.657 37.79 31.4088C37.0966 30.8688 36.75 30.128 36.75 29.1866C36.75 28.1064 37.2535 27.2525 38.2607 26.6249C38.9832 26.1724 40.3151 25.6834 42.2564 25.158V26.3184C40.9574 26.8292 40.3078 27.7269 40.3078 29.0114C40.3078 29.8507 40.5049 30.4163 40.899 30.7082C41.0376 30.8031 41.2383 30.8505 41.5011 30.8505C41.7638 30.8505 42.0156 30.7666 42.2564 30.5987V31.6387ZM39.9466 22.7933C40.4428 23.0196 40.691 23.3553 40.691 23.8005C40.691 24.3625 40.3662 24.731 39.7167 24.9062C39.5342 24.95 39.3518 24.9719 39.1693 24.9719C38.6365 24.9719 38.2315 24.8222 37.9542 24.523C37.6768 24.2238 37.5382 23.8698 37.5382 23.4611C37.5382 23.0451 37.6185 22.6912 37.779 22.3992C37.9396 22.1 38.1768 21.8336 38.4906 21.6001C39.1693 21.1111 40.0852 20.8374 41.2383 20.7791V22.0927C40.6618 22.1292 40.2312 22.3628 39.9466 22.7933ZM61.031 21.4797C61.6076 21.0126 62.2024 20.7791 62.8154 20.7791C63.4285 20.7791 63.9284 20.8484 64.3152 20.9871C64.7093 21.1257 65.0414 21.3301 65.3114 21.6001C65.8879 22.1767 66.1762 22.9831 66.1762 24.0194V29.7011C66.1762 30.4309 66.3404 30.8432 66.6688 30.9381C66.771 30.9673 66.8732 30.9929 66.9754 31.0147C67.26 31.0731 67.468 31.168 67.5994 31.2994V32H62.3994V31.2337C62.3994 31.0731 62.4578 30.9418 62.5746 30.8396C62.6986 30.7374 62.7862 30.6498 62.8373 30.5769C62.8957 30.4966 62.9249 30.3725 62.9249 30.2046V24.1289C62.9249 23.3772 62.8738 22.8955 62.7716 22.6839C62.5965 22.2898 62.3228 22.0927 61.9506 22.0927C61.5784 22.0927 61.2718 22.184 61.031 22.3664V21.4797ZM60.0567 29.7011C60.0567 30.4236 60.21 30.8359 60.5165 30.9381C60.6114 30.9673 60.7099 30.9929 60.8121 31.0147C61.0821 31.0731 61.2828 31.168 61.4142 31.2994V32H55.3822V31.2994C55.5063 31.2045 55.6486 31.1352 55.8092 31.0914C55.977 31.0476 56.1339 30.9965 56.2799 30.9381C56.6302 30.7994 56.8054 30.5404 56.8054 30.1609V23.3954C56.8054 22.8773 56.6849 22.5014 56.4441 22.2679C56.2543 22.0781 55.9004 21.9103 55.3822 21.7643V20.998H60.0567V29.7011ZM76.2696 31.7373C75.5325 31.5037 75.1639 31.1023 75.1639 30.5331C75.1639 29.9273 75.5945 29.3216 76.4557 28.7158L77.7037 29.1099C77.4191 29.3289 77.2767 29.7303 77.2767 30.3141C80.3493 30.3141 82.4621 30.555 83.6152 31.0366C84.1991 31.2775 84.6041 31.5877 84.8304 31.9672C85.0566 32.3394 85.1697 32.7846 85.1697 33.3027C85.1697 33.8209 85.0384 34.2953 84.7756 34.7259C84.5202 35.1565 84.1735 35.5287 83.7356 35.8425C82.8234 36.4993 81.7031 36.8569 80.3748 36.9153V35.8534C81.4185 35.8096 82.0899 35.4228 82.3891 34.693C82.4767 34.4814 82.5205 34.2551 82.5205 34.0143C82.5205 33.5764 82.2979 33.2151 81.8527 32.9305C81.4075 32.6459 80.8565 32.5036 80.1997 32.5036C79.1779 32.5036 78.4372 32.5364 77.9774 32.6021C77.8679 32.8721 77.8132 33.1714 77.8132 33.4998V34.1457C77.8132 34.62 77.9263 35.0032 78.1525 35.2951C78.3788 35.5871 78.7948 35.7659 79.4005 35.8315V36.9044C77.6854 36.8095 76.5433 36.149 75.974 34.9229C75.777 34.4996 75.6784 33.9851 75.6784 33.3794C75.6784 32.7736 75.8755 32.2262 76.2696 31.7373ZM83.7247 20.1222C83.2576 20.1222 83.0241 20.4141 83.0241 20.998C83.0241 21.2899 83.0606 21.4797 83.1335 21.5673C83.2138 21.6548 83.2941 21.7315 83.3744 21.7971C83.462 21.8628 83.6152 22.0015 83.8342 22.2131C84.3012 22.6729 84.5348 23.4392 84.5348 24.5121C84.5348 25.6871 84.1261 26.6431 83.3087 27.3803C82.5278 28.0882 81.5498 28.4786 80.3748 28.5516V27.5116C80.747 27.3876 81.0025 27.0883 81.1411 26.6139C81.2871 26.1396 81.3601 25.4718 81.3601 24.6106C81.3601 23.7494 81.2871 23.1035 81.1411 22.6729C80.9952 22.2423 80.7397 21.9723 80.3748 21.8628V20.7791C81.0171 20.8009 81.5462 20.8849 81.9622 21.0308C81.9622 20.0383 82.4256 19.3742 83.3525 19.0384C83.6444 18.929 83.9692 18.8742 84.3268 18.8742C84.6917 18.8742 85.0019 18.9217 85.2573 19.0165C85.52 19.1041 85.7353 19.2282 85.9032 19.3887C86.2243 19.688 86.3849 20.0711 86.3849 20.5382C86.3849 21.0053 86.2572 21.3556 86.0017 21.5892C85.7536 21.8227 85.4252 21.9395 85.0165 21.9395C84.6078 21.9395 84.2757 21.8263 84.0203 21.6001C83.7721 21.3739 83.6481 21.0856 83.6481 20.7353C83.6481 20.6039 83.6663 20.4908 83.7028 20.3959C83.7466 20.2937 83.7685 20.2244 83.7685 20.1879C83.7685 20.1441 83.7539 20.1222 83.7247 20.1222ZM79.4005 28.5735C77.2184 28.5078 75.8718 27.789 75.361 26.4169C75.1785 25.9425 75.0873 25.3842 75.0873 24.742C75.0873 24.0997 75.1895 23.5451 75.3938 23.078C75.6055 22.6036 75.901 22.2058 76.2805 21.8847C77.0323 21.2352 78.0722 20.8666 79.4005 20.7791V21.8628C78.9699 21.9358 78.6707 22.1803 78.5028 22.5963C78.3423 22.9977 78.262 23.6582 78.262 24.5778C78.262 25.4973 78.3459 26.1979 78.5138 26.6796C78.6816 27.1613 78.9772 27.4496 79.4005 27.5445V28.5735ZM99.6967 31.7811C99.2151 32.0365 98.4926 32.1642 97.5292 32.1642C96.5658 32.1642 95.8287 31.8905 95.3178 31.3432C94.807 30.7958 94.5515 29.9638 94.5515 28.8472V22.9028C94.5515 22.516 94.3764 22.2533 94.0261 22.1146C93.8801 22.0562 93.7232 22.0088 93.5553 21.9723C93.3948 21.9358 93.2525 21.8665 93.1284 21.7643V20.998H97.8029V29.1428C97.8029 29.6974 97.8905 30.1207 98.0656 30.4126C98.2481 30.7046 98.5071 30.8505 98.8429 30.8505C99.1786 30.8505 99.4632 30.7739 99.6967 30.6206V31.7811ZM100.682 22.9028C100.682 22.516 100.507 22.2533 100.157 22.1146C100.011 22.0562 99.8537 22.0088 99.6858 21.9723C99.5252 21.9285 99.3756 21.8592 99.237 21.7643V20.998H103.922V30.1171C103.922 30.4893 104.098 30.7447 104.448 30.8834C104.594 30.9418 104.747 30.9929 104.908 31.0366C105.076 31.0731 105.221 31.1388 105.346 31.2337V32H100.682V22.9028ZM121.788 32.1642C120.686 32.1642 119.854 31.9124 119.292 31.4088V24.9062C119.292 23.972 119.252 23.3663 119.172 23.0889C119.026 22.5343 118.727 22.2022 118.274 22.0927V20.7791C121.128 20.8812 122.555 22.1657 122.555 24.6325V29.5369C122.555 30.4126 122.759 30.8505 123.168 30.8505C123.503 30.8505 123.708 30.4053 123.781 29.515L124.569 29.712C124.386 30.9454 123.85 31.7081 122.96 32C122.639 32.1095 122.248 32.1642 121.788 32.1642ZM118.318 31.6387C117.902 31.9891 117.355 32.1642 116.676 32.1642C116.005 32.1642 115.446 32.1022 115.001 31.9781C114.556 31.8467 114.173 31.657 113.852 31.4088C113.158 30.8688 112.812 30.128 112.812 29.1866C112.812 28.1064 113.315 27.2525 114.322 26.6249C115.045 26.1724 116.377 25.6834 118.318 25.158V26.3184C117.019 26.8292 116.369 27.7269 116.369 29.0114C116.369 29.8507 116.566 30.4163 116.961 30.7082C117.099 30.8031 117.3 30.8505 117.563 30.8505C117.825 30.8505 118.077 30.7666 118.318 30.5987V31.6387ZM116.008 22.7933C116.504 23.0196 116.753 23.3553 116.753 23.8005C116.753 24.3625 116.428 24.731 115.778 24.9062C115.596 24.95 115.413 24.9719 115.231 24.9719C114.698 24.9719 114.293 24.8222 114.016 24.523C113.738 24.2238 113.6 23.8698 113.6 23.4611C113.6 23.0451 113.68 22.6912 113.841 22.3992C114.001 22.1 114.238 21.8336 114.552 21.6001C115.231 21.1111 116.147 20.8374 117.3 20.7791V22.0927C116.723 22.1292 116.293 22.3628 116.008 22.7933ZM132.955 31.7373C132.217 31.5037 131.849 31.1023 131.849 30.5331C131.849 29.9273 132.279 29.3216 133.141 28.7158L134.389 29.1099C134.104 29.3289 133.962 29.7303 133.962 30.3141C137.034 30.3141 139.147 30.555 140.3 31.0366C140.884 31.2775 141.289 31.5877 141.515 31.9672C141.742 32.3394 141.855 32.7846 141.855 33.3027C141.855 33.8209 141.723 34.2953 141.461 34.7259C141.205 35.1565 140.858 35.5287 140.421 35.8425C139.508 36.4993 138.388 36.8569 137.06 36.9153V35.8534C138.103 35.8096 138.775 35.4228 139.074 34.693C139.162 34.4814 139.205 34.2551 139.205 34.0143C139.205 33.5764 138.983 33.2151 138.538 32.9305C138.092 32.6459 137.541 32.5036 136.885 32.5036C135.863 32.5036 135.122 32.5364 134.662 32.6021C134.553 32.8721 134.498 33.1714 134.498 33.4998V34.1457C134.498 34.62 134.611 35.0032 134.837 35.2951C135.064 35.5871 135.48 35.7659 136.085 35.8315V36.9044C134.37 36.8095 133.228 36.149 132.659 34.9229C132.462 34.4996 132.363 33.9851 132.363 33.3794C132.363 32.7736 132.56 32.2262 132.955 31.7373ZM140.41 20.1222C139.943 20.1222 139.709 20.4141 139.709 20.998C139.709 21.2899 139.745 21.4797 139.818 21.5673C139.899 21.6548 139.979 21.7315 140.059 21.7971C140.147 21.8628 140.3 22.0015 140.519 22.2131C140.986 22.6729 141.22 23.4392 141.22 24.5121C141.22 25.6871 140.811 26.6431 139.994 27.3803C139.213 28.0882 138.235 28.4786 137.06 28.5516V27.5116C137.432 27.3876 137.687 27.0883 137.826 26.6139C137.972 26.1396 138.045 25.4718 138.045 24.6106C138.045 23.7494 137.972 23.1035 137.826 22.6729C137.68 22.2423 137.425 21.9723 137.06 21.8628V20.7791C137.702 20.8009 138.231 20.8849 138.647 21.0308C138.647 20.0383 139.111 19.3742 140.037 19.0384C140.329 18.929 140.654 18.8742 141.012 18.8742C141.377 18.8742 141.687 18.9217 141.942 19.0165C142.205 19.1041 142.42 19.2282 142.588 19.3887C142.909 19.688 143.07 20.0711 143.07 20.5382C143.07 21.0053 142.942 21.3556 142.687 21.5892C142.439 21.8227 142.11 21.9395 141.701 21.9395C141.293 21.9395 140.961 21.8263 140.705 21.6001C140.457 21.3739 140.333 21.0856 140.333 20.7353C140.333 20.6039 140.351 20.4908 140.388 20.3959C140.432 20.2937 140.453 20.2244 140.453 20.1879C140.453 20.1441 140.439 20.1222 140.41 20.1222ZM136.085 28.5735C133.903 28.5078 132.557 27.789 132.046 26.4169C131.863 25.9425 131.772 25.3842 131.772 24.742C131.772 24.0997 131.874 23.5451 132.079 23.078C132.29 22.6036 132.586 22.2058 132.965 21.8847C133.717 21.2352 134.757 20.8666 136.085 20.7791V21.8628C135.655 21.9358 135.356 22.1803 135.188 22.5963C135.027 22.9977 134.947 23.6582 134.947 24.5778C134.947 25.4973 135.031 26.1979 135.199 26.6796C135.367 27.1613 135.662 27.4496 136.085 27.5445V28.5735ZM156.228 30.8505C157.695 30.7776 158.681 29.9675 159.184 28.4202L160.191 28.88C159.644 30.887 158.323 31.9818 156.228 32.1642V30.8505ZM155.9 20.7791C157.403 20.8885 158.531 21.487 159.283 22.5744C159.954 23.5378 160.29 24.8259 160.29 26.4388H154.652V25.3222H156.918C156.918 24.388 156.845 23.6509 156.699 23.1108C156.56 22.5635 156.294 22.2241 155.9 22.0927V20.7791ZM155.254 32.1642C153.67 32.0401 152.393 31.4234 151.423 30.3141C150.518 29.2851 150.065 28.0188 150.065 26.5154C150.065 24.939 150.521 23.6144 151.434 22.5416C152.338 21.4687 153.503 20.8812 154.926 20.7791V22.0927C154.444 22.2606 154.105 22.7131 153.908 23.4502C153.718 24.1873 153.623 25.0193 153.623 25.9462C153.623 26.8657 153.645 27.5554 153.689 28.0152C153.74 28.4677 153.827 28.8764 153.951 29.2413C154.207 30.0076 154.641 30.544 155.254 30.8505V32.1642ZM172.43 22.0927C171.759 22.2752 171.423 22.5926 171.423 23.0451C171.423 23.775 172.062 24.3844 173.339 24.8733C174.346 25.2601 175.058 25.563 175.474 25.782C175.897 25.9936 176.251 26.2271 176.536 26.4826C177.171 27.0664 177.488 27.7926 177.488 28.6611C177.488 29.6901 177.098 30.5148 176.317 31.1352C175.558 31.7336 174.587 32.0766 173.405 32.1642V30.8505C174.171 30.6681 174.554 30.2448 174.554 29.5807C174.554 28.8946 173.927 28.3071 172.671 27.8181C171.686 27.4386 170.985 27.1431 170.569 26.9314C170.161 26.7198 169.818 26.4899 169.54 26.2417C168.92 25.6871 168.61 25.0047 168.61 24.1946C168.61 23.3188 168.982 22.5416 169.726 21.8628C170.478 21.1841 171.379 20.8228 172.43 20.7791V22.0927ZM175.43 22.3226C175.269 22.2569 174.594 22.1803 173.405 22.0927V20.7791C174.675 20.8301 175.667 21.133 176.382 21.6877C176.981 22.1548 177.28 22.6729 177.28 23.2422C177.28 23.9501 177.01 24.4172 176.47 24.6434C176.28 24.7164 176.017 24.7529 175.682 24.7529C175.346 24.7529 175.069 24.6471 174.85 24.4354C174.638 24.2165 174.532 23.9501 174.532 23.6363C174.532 23.1035 174.831 22.6656 175.43 22.3226ZM170.547 30.544C170.737 30.7119 171.365 30.814 172.43 30.8505V32.1642C171.219 32.0693 170.266 31.7482 169.573 31.2008C168.989 30.7338 168.697 30.201 168.697 29.6025C168.697 29.2084 168.807 28.8873 169.026 28.6392C169.245 28.3838 169.577 28.256 170.022 28.256C170.467 28.256 170.796 28.3546 171.007 28.5516C171.226 28.7487 171.336 29.0041 171.336 29.3179C171.336 29.8653 171.073 30.274 170.547 30.544Z" fill="black"/>
<path d="M18.7247 7.1688H18.5747V7.3188H18.7247V7.1688ZM21.1403 7.1688V7.3188H21.2903V7.1688H21.1403ZM21.1403 4.84714H21.2903V4.69714H21.1403V4.84714ZM18.7247 4.84714V4.69714H18.5747V4.84714H18.7247ZM18.7247 12H18.5747V12.15H18.7247V12ZM21.1403 12V12.15H21.2903V12H21.1403ZM21.1403 9.69176H21.2903V9.54176H21.1403V9.69176ZM18.7247 9.69176V9.54176H18.5747V9.69176H18.7247ZM18.7247 7.3188L21.1403 7.3188V7.0188L18.7247 7.0188V7.3188ZM21.2903 7.1688V4.84714H20.9903V7.1688H21.2903ZM21.1403 4.69714L18.7247 4.69714V4.99714L21.1403 4.99714V4.69714ZM18.5747 4.84714V7.1688H18.8747V4.84714H18.5747ZM18.7247 12.15H21.1403V11.85H18.7247V12.15ZM21.2903 12V9.69176H20.9903V12H21.2903ZM21.1403 9.54176H18.7247V9.84176H21.1403V9.54176ZM18.5747 9.69176L18.5747 12H18.8747L18.8747 9.69176H18.5747ZM37.5913 12V12.15H37.7655L37.7397 11.9777L37.5913 12ZM36.1822 2.606L36.3306 2.58375L36.3114 2.456H36.1822V2.606ZM33.6056 2.606V2.456H33.5073L33.4681 2.54608L33.6056 2.606ZM31.3779 7.71902L31.2402 7.77863L31.3774 8.09551L31.5154 7.77893L31.3779 7.71902ZM29.1636 2.606L29.3012 2.54639L29.2621 2.456H29.1636V2.606ZM26.5735 2.606V2.456H26.4445L26.4252 2.58354L26.5735 2.606ZM25.151 12L25.0027 11.9775L24.9765 12.15H25.151V12ZM27.7813 12V12.15H27.9125L27.93 12.02L27.7813 12ZM28.506 6.60516L28.6424 6.54271L28.4264 6.07105L28.3573 6.58519L28.506 6.60516ZM30.9887 12.0268L30.8523 12.0893L30.8924 12.1768H30.9887V12.0268ZM31.7536 12.0268V12.1768H31.8498L31.8899 12.0894L31.7536 12.0268ZM34.2497 6.59174L34.3984 6.57182L34.3296 6.0584L34.1134 6.52914L34.2497 6.59174ZM34.9744 12L34.8257 12.0199L34.8432 12.15H34.9744V12ZM37.7397 11.9777L36.3306 2.58375L36.0339 2.62825L37.443 12.0223L37.7397 11.9777ZM36.1822 2.456L33.6056 2.456V2.756L36.1822 2.756V2.456ZM33.4681 2.54608L31.2403 7.65911L31.5154 7.77893L33.7431 2.66591L33.4681 2.54608ZM31.5155 7.65941L29.3012 2.54639L29.0259 2.66561L31.2402 7.77863L31.5155 7.65941ZM29.1636 2.456L26.5735 2.456V2.756L29.1636 2.756V2.456ZM26.4252 2.58354L25.0027 11.9775L25.2993 12.0225L26.7218 2.62846L26.4252 2.58354ZM25.151 12.15H27.7813V11.85H25.151V12.15ZM27.93 12.02L28.6546 6.62513L28.3573 6.58519L27.6326 11.98L27.93 12.02ZM28.3696 6.66761L30.8523 12.0893L31.1251 11.9644L28.6424 6.54271L28.3696 6.66761ZM30.9887 12.1768H31.7536V11.8768H30.9887V12.1768ZM31.8899 12.0894L34.386 6.65434L34.1134 6.52914L31.6173 11.9642L31.8899 12.0894ZM34.1011 6.61166L34.8257 12.0199L35.1231 11.9801L34.3984 6.57182L34.1011 6.61166ZM34.9744 12.15H37.5913V11.85H34.9744V12.15ZM49.9981 2.606L50.1283 2.68042L50.2566 2.456H49.9981V2.606ZM47.1396 2.606V2.456H47.0474L47.0058 2.53828L47.1396 2.606ZM45.4219 6.00126L45.288 6.06898L45.4219 6.33353L45.5557 6.06898L45.4219 6.00126ZM43.7041 2.606L43.838 2.53828L43.7963 2.456H43.7041V2.606ZM40.8322 2.606V2.456H40.574L40.702 2.68032L40.8322 2.606ZM44.0933 8.32292H44.2433V8.28315L44.2236 8.2486L44.0933 8.32292ZM44.0933 12H43.9433V12.15H44.0933V12ZM46.7236 12V12.15H46.8736V12H46.7236ZM46.7236 8.33634L46.5934 8.26192L46.5736 8.29651V8.33634H46.7236ZM49.9981 2.456L47.1396 2.456V2.756L49.9981 2.756V2.456ZM47.0058 2.53828L45.288 5.93354L45.5557 6.06898L47.2735 2.67372L47.0058 2.53828ZM45.5557 5.93354L43.838 2.53828L43.5703 2.67372L45.288 6.06898L45.5557 5.93354ZM43.7041 2.456L40.8322 2.456V2.756L43.7041 2.756V2.456ZM40.702 2.68032L43.963 8.39724L44.2236 8.2486L40.9625 2.53168L40.702 2.68032ZM43.9433 8.32292V12H44.2433V8.32292H43.9433ZM44.0933 12.15L46.7236 12.15V11.85L44.0933 11.85V12.15ZM46.8736 12V8.33634H46.5736V12H46.8736ZM46.8539 8.41076L50.1283 2.68042L49.8679 2.53158L46.5934 8.26192L46.8539 8.41076Z" fill="black"/>
</svg>
