<svg width="96" height="34" viewBox="0 0 96 34" fill="none" xmlns="http://www.w3.org/2000/svg">
<path d="M0 4V34H30V4H0ZM26.6667 30.6667H3.33333V7.33333H26.6667V30.6667Z" fill="black"/>
<path d="M16.668 10.6667H13.3346V14H16.668V10.6667ZM16.668 17.3333H13.3346V20.6667H16.668V17.3333ZM23.3346 17.3333H20.0013V20.6667H23.3346V17.3333ZM16.668 24H13.3346V27.3333H16.668V24ZM10.0013 17.3333H6.66797V20.6667H10.0013V17.3333Z" fill="#0000FF"/>
<path d="M46.804 8.904C46.748 8.932 46.748 8.96 46.804 8.988C47.6533 9.436 48.078 10.1827 48.078 11.228C48.078 12.1613 47.756 12.8567 47.112 13.314C46.468 13.7713 45.6233 14 44.578 14H40.854C40.8073 14 40.7653 13.986 40.728 13.958C40.7 13.9207 40.686 13.8787 40.686 13.832V4.368C40.686 4.32133 40.7 4.284 40.728 4.256C40.7653 4.21867 40.8073 4.2 40.854 4.2H44.466C45.6047 4.2 46.4633 4.41467 47.042 4.844C47.63 5.27333 47.924 5.96867 47.924 6.93C47.924 7.84467 47.5507 8.50267 46.804 8.904ZM43.08 6.188C43.0333 6.188 43.01 6.21133 43.01 6.258V8.022C43.01 8.06867 43.0333 8.092 43.08 8.092H44.466C44.8487 8.092 45.1427 8.01267 45.348 7.854C45.5533 7.686 45.656 7.45267 45.656 7.154C45.656 6.846 45.5533 6.608 45.348 6.44C45.1427 6.272 44.8487 6.188 44.466 6.188H43.08ZM44.578 11.998C44.9513 11.998 45.2407 11.914 45.446 11.746C45.6513 11.5687 45.754 11.3167 45.754 10.99C45.754 10.6727 45.6513 10.43 45.446 10.262C45.25 10.0847 44.9607 9.996 44.578 9.996H43.08C43.0333 9.996 43.01 10.0193 43.01 10.066V11.928C43.01 11.9747 43.0333 11.998 43.08 11.998H44.578ZM54.3806 14.154C53.6246 14.154 52.9573 14.0047 52.3786 13.706C51.8093 13.398 51.366 12.9687 51.0486 12.418C50.7313 11.8673 50.5726 11.228 50.5726 10.5V7.7C50.5726 6.99067 50.7313 6.36533 51.0486 5.824C51.366 5.27333 51.8093 4.84867 52.3786 4.55C52.9573 4.242 53.6246 4.088 54.3806 4.088C55.1366 4.088 55.804 4.242 56.3826 4.55C56.9613 4.84867 57.4093 5.27333 57.7266 5.824C58.044 6.36533 58.2026 6.99067 58.2026 7.7V10.5C58.2026 11.228 58.044 11.8673 57.7266 12.418C57.4093 12.9687 56.9613 13.398 56.3826 13.706C55.804 14.0047 55.1366 14.154 54.3806 14.154ZM54.3806 12.166C54.8286 12.166 55.188 12.0213 55.4586 11.732C55.7386 11.4427 55.8786 11.0553 55.8786 10.57V7.672C55.8786 7.196 55.7386 6.81333 55.4586 6.524C55.188 6.22533 54.8286 6.076 54.3806 6.076C53.942 6.076 53.5826 6.22533 53.3026 6.524C53.032 6.81333 52.8966 7.196 52.8966 7.672V10.57C52.8966 11.0553 53.032 11.4427 53.3026 11.732C53.5826 12.0213 53.942 12.166 54.3806 12.166ZM64.4759 14.154C63.7199 14.154 63.0526 14.0047 62.4739 13.706C61.9046 13.398 61.4613 12.9687 61.1439 12.418C60.8266 11.8673 60.6679 11.228 60.6679 10.5V7.7C60.6679 6.99067 60.8266 6.36533 61.1439 5.824C61.4613 5.27333 61.9046 4.84867 62.4739 4.55C63.0526 4.242 63.7199 4.088 64.4759 4.088C65.2319 4.088 65.8993 4.242 66.4779 4.55C67.0566 4.84867 67.5046 5.27333 67.8219 5.824C68.1393 6.36533 68.2979 6.99067 68.2979 7.7V10.5C68.2979 11.228 68.1393 11.8673 67.8219 12.418C67.5046 12.9687 67.0566 13.398 66.4779 13.706C65.8993 14.0047 65.2319 14.154 64.4759 14.154ZM64.4759 12.166C64.9239 12.166 65.2833 12.0213 65.5539 11.732C65.8339 11.4427 65.9739 11.0553 65.9739 10.57V7.672C65.9739 7.196 65.8339 6.81333 65.5539 6.524C65.2833 6.22533 64.9239 6.076 64.4759 6.076C64.0373 6.076 63.6779 6.22533 63.3979 6.524C63.1273 6.81333 62.9919 7.196 62.9919 7.672V10.57C62.9919 11.0553 63.1273 11.4427 63.3979 11.732C63.6779 12.0213 64.0373 12.166 64.4759 12.166ZM71.0853 14C71.0386 14 70.9966 13.986 70.9593 13.958C70.9313 13.9207 70.9173 13.8787 70.9173 13.832V4.368C70.9173 4.32133 70.9313 4.284 70.9593 4.256C70.9966 4.21867 71.0386 4.2 71.0853 4.2H73.0733C73.1199 4.2 73.1573 4.21867 73.1853 4.256C73.2226 4.284 73.2413 4.32133 73.2413 4.368V8.008C73.2413 8.036 73.2506 8.05467 73.2693 8.064C73.2879 8.064 73.3066 8.05467 73.3253 8.036L76.1533 4.298C76.2093 4.23267 76.2746 4.2 76.3493 4.2H78.6173C78.7106 4.2 78.7573 4.23267 78.7573 4.298C78.7573 4.326 78.7433 4.36333 78.7153 4.41L75.6913 8.456C75.6726 8.49333 75.6679 8.526 75.6773 8.554L78.8413 13.804C78.8599 13.86 78.8693 13.8927 78.8693 13.902C78.8693 13.9673 78.8226 14 78.7293 14H76.5033C76.4006 14 76.3306 13.9627 76.2933 13.888L74.0953 10.15C74.0673 10.094 74.0346 10.094 73.9973 10.15L73.2693 11.144C73.2506 11.1813 73.2413 11.2093 73.2413 11.228V13.832C73.2413 13.8787 73.2226 13.9207 73.1853 13.958C73.1573 13.986 73.1199 14 73.0733 14H71.0853ZM40.42 31C40.2893 31 40.2473 30.9347 40.294 30.804L44.074 21.326C44.102 21.242 44.1673 21.2 44.27 21.2H46.23C46.3607 21.2 46.4027 21.2653 46.356 21.396L42.59 30.874C42.562 30.958 42.4967 31 42.394 31H40.42ZM60.2054 23.02C60.2054 23.0667 60.1867 23.1087 60.1494 23.146C60.1214 23.174 60.0841 23.188 60.0374 23.188H55.6554C55.6087 23.188 55.5854 23.2113 55.5854 23.258V24.98C55.5854 25.0267 55.6087 25.05 55.6554 25.05H58.4694C58.5161 25.05 58.5534 25.0687 58.5814 25.106C58.6187 25.134 58.6374 25.1713 58.6374 25.218V26.856C58.6374 26.9027 58.6187 26.9447 58.5814 26.982C58.5534 27.01 58.5161 27.024 58.4694 27.024H55.6554C55.6087 27.024 55.5854 27.0473 55.5854 27.094V30.832C55.5854 30.8787 55.5667 30.9207 55.5294 30.958C55.5014 30.986 55.4641 31 55.4174 31H53.4294C53.3827 31 53.3407 30.986 53.3034 30.958C53.2754 30.9207 53.2614 30.8787 53.2614 30.832V21.368C53.2614 21.3213 53.2754 21.284 53.3034 21.256C53.3407 21.2187 53.3827 21.2 53.4294 21.2H60.0374C60.0841 21.2 60.1214 21.2187 60.1494 21.256C60.1867 21.284 60.2054 21.3213 60.2054 21.368V23.02ZM66.0947 31.154C65.3387 31.154 64.6714 31.0047 64.0927 30.706C63.5234 30.398 63.08 29.9687 62.7627 29.418C62.4454 28.8673 62.2867 28.228 62.2867 27.5V24.7C62.2867 23.9907 62.4454 23.3653 62.7627 22.824C63.08 22.2733 63.5234 21.8487 64.0927 21.55C64.6714 21.242 65.3387 21.088 66.0947 21.088C66.8507 21.088 67.518 21.242 68.0967 21.55C68.6754 21.8487 69.1234 22.2733 69.4407 22.824C69.758 23.3653 69.9167 23.9907 69.9167 24.7V27.5C69.9167 28.228 69.758 28.8673 69.4407 29.418C69.1234 29.9687 68.6754 30.398 68.0967 30.706C67.518 31.0047 66.8507 31.154 66.0947 31.154ZM66.0947 29.166C66.5427 29.166 66.902 29.0213 67.1727 28.732C67.4527 28.4427 67.5927 28.0553 67.5927 27.57V24.672C67.5927 24.196 67.4527 23.8133 67.1727 23.524C66.902 23.2253 66.5427 23.076 66.0947 23.076C65.656 23.076 65.2967 23.2253 65.0167 23.524C64.746 23.8133 64.6107 24.196 64.6107 24.672V27.57C64.6107 28.0553 64.746 28.4427 65.0167 28.732C65.2967 29.0213 65.656 29.166 66.0947 29.166ZM72.704 31C72.6573 31 72.6153 30.986 72.578 30.958C72.55 30.9207 72.536 30.8787 72.536 30.832V21.368C72.536 21.3213 72.55 21.284 72.578 21.256C72.6153 21.2187 72.6573 21.2 72.704 21.2H74.692C74.7387 21.2 74.776 21.2187 74.804 21.256C74.8413 21.284 74.86 21.3213 74.86 21.368V28.942C74.86 28.9887 74.8833 29.012 74.93 29.012H79.396C79.4427 29.012 79.48 29.0307 79.508 29.068C79.5453 29.096 79.564 29.1333 79.564 29.18V30.832C79.564 30.8787 79.5453 30.9207 79.508 30.958C79.48 30.986 79.4427 31 79.396 31H72.704ZM82.1294 31C82.0827 31 82.0407 30.986 82.0034 30.958C81.9754 30.9207 81.9614 30.8787 81.9614 30.832V21.368C81.9614 21.3213 81.9754 21.284 82.0034 21.256C82.0407 21.2187 82.0827 21.2 82.1294 21.2H84.1174C84.1641 21.2 84.2014 21.2187 84.2294 21.256C84.2667 21.284 84.2854 21.3213 84.2854 21.368V30.832C84.2854 30.8787 84.2667 30.9207 84.2294 30.958C84.2014 30.986 84.1641 31 84.1174 31H82.1294ZM90.7205 31.154C89.9645 31.154 89.2971 31.0047 88.7185 30.706C88.1491 30.398 87.7058 29.9687 87.3885 29.418C87.0711 28.8673 86.9125 28.228 86.9125 27.5V24.7C86.9125 23.9907 87.0711 23.3653 87.3885 22.824C87.7058 22.2733 88.1491 21.8487 88.7185 21.55C89.2971 21.242 89.9645 21.088 90.7205 21.088C91.4765 21.088 92.1438 21.242 92.7225 21.55C93.3011 21.8487 93.7491 22.2733 94.0665 22.824C94.3838 23.3653 94.5425 23.9907 94.5425 24.7V27.5C94.5425 28.228 94.3838 28.8673 94.0665 29.418C93.7491 29.9687 93.3011 30.398 92.7225 30.706C92.1438 31.0047 91.4765 31.154 90.7205 31.154ZM90.7205 29.166C91.1685 29.166 91.5278 29.0213 91.7985 28.732C92.0785 28.4427 92.2185 28.0553 92.2185 27.57V24.672C92.2185 24.196 92.0785 23.8133 91.7985 23.524C91.5278 23.2253 91.1685 23.076 90.7205 23.076C90.2818 23.076 89.9225 23.2253 89.6425 23.524C89.3718 23.8133 89.2365 24.196 89.2365 24.672V27.57C89.2365 28.0553 89.3718 28.4427 89.6425 28.732C89.9225 29.0213 90.2818 29.166 90.7205 29.166Z" fill="#0000FF"/>
<path d="M40 15.4L79.0653 15.4V16.1L40 16.1V15.4ZM40 32.4H95.0745V33.1H40V32.4Z" fill="#0000FF"/>
</svg>
