<svg width="30" height="30" viewBox="0 0 30 30" fill="none" xmlns="http://www.w3.org/2000/svg">
<path d="M16.6667 6.66667H13.3333V10H16.6667V6.66667ZM16.6667 13.3333H13.3333V16.6667H16.6667V13.3333ZM23.3333 13.3333H20V16.6667H23.3333V13.3333ZM0 0V30H30V0H0ZM26.6667 26.6667H3.33333V3.33333H26.6667V26.6667ZM16.6667 20H13.3333V23.3333H16.6667V20ZM10 13.3333H6.66667V16.6667H10V13.3333Z" fill="black"/>
<path d="M16.668 6.66666H13.3346V9.99999H16.668V6.66666ZM16.668 13.3333H13.3346V16.6667H16.668V13.3333ZM23.3346 13.3333H20.0013V16.6667H23.3346V13.3333ZM16.668 20H13.3346V23.3333H16.668V20ZM10.0013 13.3333H6.66797V16.6667H10.0013V13.3333Z" fill="#0000FF"/>
</svg>
