<svg width="50" height="50" viewBox="0 0 50 50" fill="none" xmlns="http://www.w3.org/2000/svg">
<path d="M17.2 19.85L19.85 22.5L22.5 19.85L17.2 14.55L11.9 19.85L14.55 22.5L17.2 19.85ZM25 38.75C30.825 38.75 35.775 35.1 37.775 30H12.225C14.225 35.1 19.175 38.75 25 38.75ZM27.5 19.85L30.15 22.5L32.8 19.85L35.45 22.5L38.1 19.85L32.8 14.55L27.5 19.85ZM24.975 0C11.175 0 0 11.175 0 25C0 38.825 11.175 50 24.975 50C38.775 50 50 38.825 50 25C50 11.175 38.8 0 24.975 0ZM25 45C13.95 45 5 36.05 5 25C5 13.95 13.95 5 25 5C36.05 5 45 13.95 45 25C45 36.05 36.05 45 25 45Z" fill="#00FF00"/>
</svg>
