<svg width="50" height="50" viewBox="0 0 50 50" fill="none" xmlns="http://www.w3.org/2000/svg">
<path d="M32.8 30.15L30.15 27.5L27.5 30.15L32.8 35.45L38.1 30.15L35.45 27.5L32.8 30.15ZM25 11.25C19.175 11.25 14.225 14.9 12.225 20L37.775 20C35.775 14.9 30.825 11.25 25 11.25ZM22.5 30.15L19.85 27.5L17.2 30.15L14.55 27.5L11.9 30.15L17.2 35.45L22.5 30.15ZM25.025 50C38.825 50 50 38.825 50 25C50 11.175 38.825 -9.76949e-07 25.025 -2.18338e-06C11.225 -3.38982e-06 3.39419e-06 11.175 2.18557e-06 25C9.76949e-07 38.825 11.2 50 25.025 50ZM25 5C36.05 5 45 13.95 45 25C45 36.05 36.05 45 25 45C13.95 45 5 36.05 5 25C5 13.95 13.95 5 25 5Z" fill="black"/>
</svg>
