<svg width="1129" height="483" viewBox="0 0 1129 483" fill="none" xmlns="http://www.w3.org/2000/svg">
<rect x="645.691" y="1.00098" width="67.1536" height="67.1536" stroke="#00FF00"/>
<rect x="645.69" y="166.688" width="67.1536" height="67.1536" stroke="#00FF00"/>
<rect x="645.69" y="332.374" width="67.1536" height="67.1536" stroke="#00FF00"/>
<rect x="645.69" y="83.8438" width="67.1536" height="67.1536" stroke="#00FF00"/>
<rect x="645.69" y="249.531" width="67.1536" height="67.1536" stroke="#00FF00"/>
<rect x="646.167" y="415.219" width="67.1536" height="67.1536" stroke="#00FF00"/>
<rect x="811.378" y="1" width="67.1536" height="67.1536" stroke="#00FF00"/>
<rect x="811.378" y="166.688" width="67.1536" height="67.1536" stroke="#00FF00"/>
<rect x="811.378" y="332.374" width="67.1536" height="67.1536" stroke="#00FF00"/>
<rect x="811.378" y="83.8438" width="67.1536" height="67.1536" stroke="#00FF00"/>
<rect x="811.378" y="249.531" width="67.1536" height="67.1536" stroke="#00FF00"/>
<rect x="811.854" y="415.219" width="67.1536" height="67.1536" stroke="#00FF00"/>
<rect x="977.065" y="1" width="67.1536" height="67.1536" stroke="#00FF00"/>
<rect x="977.065" y="166.688" width="67.1536" height="67.1536" stroke="#00FF00"/>
<rect x="977.065" y="332.374" width="67.1536" height="67.1536" stroke="#00FF00"/>
<rect x="977.065" y="83.8438" width="67.1536" height="67.1536" stroke="#00FF00"/>
<rect x="977.065" y="249.531" width="67.1536" height="67.1536" stroke="#00FF00"/>
<rect x="977.542" y="415.219" width="67.1536" height="67.1536" stroke="#00FF00"/>
<rect x="728.534" y="1" width="67.1536" height="67.1536" stroke="#00FF00"/>
<rect x="728.534" y="166.688" width="67.1536" height="67.1536" stroke="#00FF00"/>
<rect x="728.534" y="332.374" width="67.1536" height="67.1536" stroke="#00FF00"/>
<rect x="728.534" y="83.8438" width="67.1536" height="67.1536" stroke="#00FF00"/>
<rect x="728.534" y="249.531" width="67.1536" height="67.1536" stroke="#00FF00"/>
<rect x="729.011" y="415.219" width="67.1536" height="67.1536" stroke="#00FF00"/>
<rect x="894.222" y="1" width="67.1536" height="67.1536" stroke="#00FF00"/>
<rect x="894.222" y="166.688" width="67.1536" height="67.1536" stroke="#00FF00"/>
<rect x="894.222" y="332.374" width="67.1536" height="67.1536" stroke="#00FF00"/>
<rect x="894.222" y="83.8438" width="67.1536" height="67.1536" stroke="#00FF00"/>
<rect x="894.222" y="249.531" width="67.1536" height="67.1536" stroke="#00FF00"/>
<rect x="894.698" y="415.219" width="67.1536" height="67.1536" stroke="#00FF00"/>
<rect x="1059.91" y="1" width="67.1536" height="67.1536" stroke="#00FF00"/>
<rect x="1059.91" y="166.688" width="67.1536" height="67.1536" stroke="#00FF00"/>
<rect x="1059.91" y="332.374" width="67.1536" height="67.1536" stroke="#00FF00"/>
<rect x="1059.91" y="83.8438" width="67.1536" height="67.1536" stroke="#00FF00"/>
<rect x="1059.91" y="249.531" width="67.1536" height="67.1536" stroke="#00FF00"/>
<rect x="1060.39" y="415.219" width="67.1536" height="67.1536" stroke="#00FF00"/>
<rect x="1.46143" y="0.62793" width="67.1536" height="67.1536" stroke="#00FF00"/>
<rect x="1.46143" y="166.316" width="67.1536" height="67.1536" stroke="#00FF00"/>
<rect x="1.46143" y="332.003" width="67.1536" height="67.1536" stroke="#00FF00"/>
<rect x="1.46143" y="83.4717" width="67.1536" height="67.1536" stroke="#00FF00"/>
<rect x="1.46143" y="249.159" width="67.1536" height="67.1536" stroke="#00FF00"/>
<rect x="1.9375" y="414.847" width="67.1536" height="67.1536" stroke="#00FF00"/>
<rect x="167.148" y="0.62793" width="67.1536" height="67.1536" stroke="#00FF00"/>
<rect x="167.148" y="166.316" width="67.1536" height="67.1536" stroke="#00FF00"/>
<rect x="167.148" y="332.003" width="67.1536" height="67.1536" stroke="#00FF00"/>
<rect x="167.148" y="83.4717" width="67.1536" height="67.1536" stroke="#00FF00"/>
<rect x="167.148" y="249.159" width="67.1536" height="67.1536" stroke="#00FF00"/>
<rect x="167.625" y="414.847" width="67.1536" height="67.1536" stroke="#00FF00"/>
<rect x="332.836" y="0.62793" width="67.1536" height="67.1536" stroke="#00FF00"/>
<rect x="332.836" y="166.316" width="67.1536" height="67.1536" stroke="#00FF00"/>
<rect x="332.836" y="332.003" width="67.1536" height="67.1536" stroke="#00FF00"/>
<rect x="332.836" y="83.4717" width="67.1536" height="67.1536" stroke="#00FF00"/>
<rect x="332.836" y="249.159" width="67.1536" height="67.1536" stroke="#00FF00"/>
<rect x="333.312" y="414.847" width="67.1536" height="67.1536" stroke="#00FF00"/>
<rect x="84.3047" y="0.62793" width="67.1536" height="67.1536" stroke="#00FF00"/>
<rect x="84.3047" y="166.316" width="67.1536" height="67.1536" stroke="#00FF00"/>
<rect x="84.3047" y="332.003" width="67.1536" height="67.1536" stroke="#00FF00"/>
<rect x="84.3047" y="83.4717" width="67.1536" height="67.1536" stroke="#00FF00"/>
<rect x="84.3047" y="249.159" width="67.1536" height="67.1536" stroke="#00FF00"/>
<rect x="84.7812" y="414.847" width="67.1536" height="67.1536" stroke="#00FF00"/>
<rect x="249.993" y="0.62793" width="67.1536" height="67.1536" stroke="#00FF00"/>
<rect x="249.993" y="166.316" width="67.1536" height="67.1536" stroke="#00FF00"/>
<rect x="249.993" y="332.003" width="67.1536" height="67.1536" stroke="#00FF00"/>
<rect x="249.993" y="83.4717" width="67.1536" height="67.1536" stroke="#00FF00"/>
<rect x="249.993" y="249.159" width="67.1536" height="67.1536" stroke="#00FF00"/>
<rect x="250.468" y="414.847" width="67.1536" height="67.1536" stroke="#00FF00"/>
<rect x="415.68" y="0.62793" width="67.1536" height="67.1536" stroke="#00FF00"/>
<rect x="415.68" y="166.316" width="67.1536" height="67.1536" stroke="#00FF00"/>
<rect x="415.68" y="332.003" width="67.1536" height="67.1536" stroke="#00FF00"/>
<rect x="415.68" y="83.4717" width="67.1536" height="67.1536" stroke="#00FF00"/>
<rect x="415.68" y="249.159" width="67.1536" height="67.1536" stroke="#00FF00"/>
<rect x="416.156" y="414.847" width="67.1536" height="67.1536" stroke="#00FF00"/>
</svg>
