<svg width="108" height="108" viewBox="0 0 108 108" fill="none" xmlns="http://www.w3.org/2000/svg">
<path d="M41.5883 64.3037H31.0454V74.4016H41.5883V64.3037Z" fill="black"/>
<path d="M41.5883 43.2139H31.0454V53.3117H41.5883V43.2139Z" fill="black"/>
<path d="M45.6675 58.764V60.3756C45.6675 69.268 52.2525 75.4382 61.6633 75.4382C71.1433 75.4382 77.5252 69.242 77.5252 60.3756V33.4912H66.1743V59.801C66.1743 62.9682 64.325 64.9514 61.6633 64.9514C58.8677 64.9514 57.0184 62.9336 57.0184 59.801V58.764H45.6675Z" fill="black"/>
<path d="M108 20.9173V0H87.0827V7.29362H20.9173V0H0V20.9173H20.9173V13.6237H87.0827V20.9173H94.3763V87.0827H87.0827V94.3763H20.9173V87.0827H0V108H20.9173V100.706H87.0827V108H108V87.0827H100.702V20.9173H108Z" fill="black"/>
<path d="M13.6235 68.8613H7.29346V78.7647H13.6235V68.8613Z" fill="black"/>
<path d="M13.6235 49.0459H7.29346V58.9493H13.6235V49.0459Z" fill="black"/>
<path d="M13.6235 29.2354H7.29346V39.1388H13.6235V29.2354Z" fill="black"/>
</svg>
