<svg width="14" height="10" viewBox="0 0 14 10" fill="none" xmlns="http://www.w3.org/2000/svg">
<path d="M11.4545 5C11.4545 5.6875 12.0273 6.25 12.7273 6.25C13.4273 6.25 14 5.6875 14 5C14 4.3125 13.4273 3.75 12.7273 3.75C12.0273 3.75 11.4545 4.3125 11.4545 5ZM-5.46392e-08 8.75C-2.45877e-08 9.4375 0.572727 10 1.27273 10C1.97273 10 2.54545 9.4375 2.54545 8.75C2.54545 8.0625 1.97273 7.5 1.27273 7.5C0.572727 7.5 -8.46908e-08 8.0625 -5.46392e-08 8.75ZM3.81818 8.75C3.81818 9.4375 4.39091 10 5.09091 10C5.79091 10 6.36364 9.4375 6.36364 8.75C6.36364 8.0625 5.79091 7.5 5.09091 7.5C4.39091 7.5 3.81818 8.0625 3.81818 8.75ZM7.63636 8.75C7.63636 9.4375 8.20909 10 8.90909 10C9.60909 10 10.1818 9.4375 10.1818 8.75C10.1818 8.0625 9.60909 7.5 8.90909 7.5C8.20909 7.5 7.63636 8.0625 7.63636 8.75ZM2.54545 1.25C2.54545 0.562501 1.97273 8.67444e-07 1.27273 8.98042e-07C0.572727 9.2864e-07 -4.12526e-07 0.562501 -3.82475e-07 1.25C-3.52423e-07 1.9375 0.572727 2.5 1.27273 2.5C1.97273 2.5 2.54545 1.9375 2.54545 1.25ZM7.63636 5C7.63636 5.6875 8.20909 6.25 8.90909 6.25C9.60909 6.25 10.1818 5.6875 10.1818 5C10.1818 4.3125 9.60909 3.75 8.90909 3.75C8.20909 3.75 7.63636 4.3125 7.63636 5ZM7.63636 1.25C7.63636 1.9375 8.20909 2.5 8.90909 2.5C9.60909 2.5 10.1818 1.9375 10.1818 1.25C10.1818 0.5625 9.60909 5.33648e-07 8.90909 5.64246e-07C8.20909 5.94844e-07 7.63636 0.562501 7.63636 1.25ZM3.81818 1.25C3.81818 1.9375 4.39091 2.5 5.09091 2.5C5.79091 2.5 6.36364 1.9375 6.36364 1.25C6.36364 0.562501 5.79091 7.00546e-07 5.09091 7.31144e-07C4.39091 7.61742e-07 3.81818 0.562501 3.81818 1.25ZM3.81818 5C3.81818 5.6875 4.39091 6.25 5.09091 6.25C5.79091 6.25 6.36364 5.6875 6.36364 5C6.36364 4.3125 5.79091 3.75 5.09091 3.75C4.39091 3.75 3.81818 4.3125 3.81818 5ZM-2.18557e-07 5C-1.88505e-07 5.6875 0.572727 6.25 1.27273 6.25C1.97273 6.25 2.54545 5.6875 2.54545 5C2.54545 4.3125 1.97273 3.75 1.27273 3.75C0.572727 3.75 -2.48608e-07 4.3125 -2.18557e-07 5Z" fill="black"/>
</svg>
