<svg width="294" height="71" viewBox="0 0 294 71" fill="none" xmlns="http://www.w3.org/2000/svg">
<g clip-path="url(#clip0)">
<path d="M24.9739 10.0011C11.1734 10.0011 3.39226e-06 21.203 2.18578e-06 35.0035C9.79301e-07 48.804 11.1734 60.0059 24.9739 60.0059C38.7981 60.0059 50 48.804 50 35.0035C50 21.203 38.7981 10.0011 24.9739 10.0011ZM24.9976 54.9988C13.9477 54.9988 4.9976 46.0486 4.9976 34.9988C4.9976 23.9489 13.9477 14.9988 24.9976 14.9988C36.0475 14.9988 44.9976 23.9489 44.9976 34.9988C44.9976 46.0486 36.0475 54.9988 24.9976 54.9988ZM33.7482 32.4999C35.8242 32.4999 37.4964 30.823 37.4964 28.7517C37.4964 26.6805 35.8195 25.0035 33.7482 25.0035C31.677 25.0035 30 26.6805 30 28.7517C30 30.823 31.6722 32.4999 33.7482 32.4999ZM16.247 32.4999C18.323 32.4999 19.9952 30.823 19.9952 28.7517C19.9952 26.6805 18.3183 25.0035 16.247 25.0035C14.1758 25.0035 12.4988 26.6805 12.4988 28.7517C12.4988 30.823 14.171 32.4999 16.247 32.4999ZM24.9976 48.7517C30.8218 48.7517 35.772 45.1032 37.772 40.0011L12.2233 40.0011C14.2233 45.0985 19.1734 48.7517 24.9976 48.7517Z" fill="#00FF00"/>
<path d="M79.1784 47.2427C77.5384 47.2427 76.0884 46.9227 74.8284 46.2827C73.5884 45.6427 72.6184 44.7427 71.9184 43.5827C71.2384 42.4027 70.8984 41.0427 70.8984 39.5027V33.4427C70.8984 31.9227 71.2384 30.5827 71.9184 29.4227C72.6184 28.2627 73.5884 27.3627 74.8284 26.7227C76.0884 26.0827 77.5384 25.7627 79.1784 25.7627C80.8184 25.7627 82.2584 26.0627 83.4984 26.6627C84.7584 27.2627 85.7284 28.1127 86.4084 29.2127C87.1084 30.2927 87.4584 31.5527 87.4584 32.9927C87.4584 33.1727 87.3084 33.2827 87.0084 33.3227L82.2684 33.6227H82.1784C81.9384 33.6227 81.8184 33.5127 81.8184 33.2927C81.8184 32.4727 81.5784 31.8227 81.0984 31.3427C80.6184 30.8427 79.9784 30.5927 79.1784 30.5927C78.3784 30.5927 77.7384 30.8427 77.2584 31.3427C76.7784 31.8227 76.5384 32.4727 76.5384 33.2927V39.7427C76.5384 40.5427 76.7784 41.1927 77.2584 41.6927C77.7384 42.1727 78.3784 42.4127 79.1784 42.4127C79.9784 42.4127 80.6184 42.1727 81.0984 41.6927C81.5784 41.1927 81.8184 40.5427 81.8184 39.7427C81.8184 39.6227 81.8584 39.5327 81.9384 39.4727C82.0184 39.4127 82.1284 39.3927 82.2684 39.4127L87.0084 39.6527C87.3084 39.6727 87.4584 39.7727 87.4584 39.9527C87.4584 41.3927 87.1084 42.6627 86.4084 43.7627C85.7284 44.8627 84.7584 45.7227 83.4984 46.3427C82.2584 46.9427 80.8184 47.2427 79.1784 47.2427ZM101.395 47.0027C101.275 47.0027 101.165 46.9727 101.065 46.9127C100.965 46.8327 100.905 46.7327 100.885 46.6127L94.9755 26.5127C94.9555 26.4727 94.9455 26.4227 94.9455 26.3627C94.9455 26.1227 95.0855 26.0027 95.3655 26.0027H100.495C100.755 26.0027 100.915 26.1327 100.975 26.3927L103.975 39.0527C103.995 39.1327 104.025 39.1727 104.065 39.1727C104.105 39.1727 104.135 39.1327 104.155 39.0527L107.065 26.3927C107.125 26.1327 107.285 26.0027 107.545 26.0027H112.555C112.715 26.0027 112.825 26.0527 112.885 26.1527C112.965 26.2327 112.985 26.3527 112.945 26.5127L106.975 46.6127C106.955 46.7327 106.895 46.8327 106.795 46.9127C106.695 46.9727 106.585 47.0027 106.465 47.0027H101.395ZM126.563 47.0027C126.403 47.0027 126.283 46.9527 126.203 46.8527C126.143 46.7527 126.143 46.6327 126.203 46.4927L134.603 26.3627C134.703 26.1227 134.883 26.0027 135.143 26.0027H139.793C139.953 26.0027 140.063 26.0527 140.123 26.1527C140.203 26.2327 140.213 26.3527 140.153 26.5127L131.783 46.6427C131.703 46.8827 131.523 47.0027 131.243 47.0027H126.563ZM165.499 47.0027C165.239 47.0027 165.069 46.8927 164.989 46.6727L161.689 39.0527C161.649 38.9727 161.589 38.9327 161.509 38.9327H160.249C160.149 38.9327 160.099 38.9827 160.099 39.0827V46.5527C160.099 46.6927 160.059 46.8027 159.979 46.8827C159.899 46.9627 159.789 47.0027 159.649 47.0027H154.909C154.769 47.0027 154.659 46.9627 154.579 46.8827C154.499 46.8027 154.459 46.6927 154.459 46.5527V26.4527C154.459 26.3127 154.499 26.2027 154.579 26.1227C154.659 26.0427 154.769 26.0027 154.909 26.0027H163.999C165.359 26.0027 166.549 26.2827 167.569 26.8427C168.609 27.4027 169.409 28.1927 169.969 29.2127C170.549 30.2127 170.839 31.3727 170.839 32.6927C170.839 34.0127 170.509 35.1727 169.849 36.1727C169.209 37.1527 168.319 37.8727 167.179 38.3327C167.079 38.3727 167.049 38.4427 167.089 38.5427L170.899 46.4627C170.939 46.5827 170.959 46.6527 170.959 46.6727C170.959 46.7727 170.919 46.8527 170.839 46.9127C170.759 46.9727 170.659 47.0027 170.539 47.0027H165.499ZM160.249 30.8327C160.149 30.8327 160.099 30.8827 160.099 30.9827V34.4927C160.099 34.5927 160.149 34.6427 160.249 34.6427H163.069C163.709 34.6427 164.229 34.4727 164.629 34.1327C165.029 33.7727 165.229 33.3127 165.229 32.7527C165.229 32.1727 165.029 31.7127 164.629 31.3727C164.229 31.0127 163.709 30.8327 163.069 30.8327H160.249ZM194.132 30.3827C194.132 30.5227 194.092 30.6327 194.012 30.7127C193.932 30.7927 193.822 30.8327 193.682 30.8327H184.712C184.612 30.8327 184.562 30.8827 184.562 30.9827V33.8027C184.562 33.9027 184.612 33.9527 184.712 33.9527H190.262C190.402 33.9527 190.512 33.9927 190.592 34.0727C190.672 34.1527 190.712 34.2627 190.712 34.4027V38.3027C190.712 38.4427 190.672 38.5527 190.592 38.6327C190.512 38.7127 190.402 38.7527 190.262 38.7527H184.712C184.612 38.7527 184.562 38.8027 184.562 38.9027V42.0227C184.562 42.1227 184.612 42.1727 184.712 42.1727H193.682C193.822 42.1727 193.932 42.2127 194.012 42.2927C194.092 42.3727 194.132 42.4827 194.132 42.6227V46.5527C194.132 46.6927 194.092 46.8027 194.012 46.8827C193.932 46.9627 193.822 47.0027 193.682 47.0027H179.372C179.232 47.0027 179.122 46.9627 179.042 46.8827C178.962 46.8027 178.922 46.6927 178.922 46.5527V26.4527C178.922 26.3127 178.962 26.2027 179.042 26.1227C179.122 26.0427 179.232 26.0027 179.372 26.0027H193.682C193.822 26.0027 193.932 26.0427 194.012 26.1227C194.092 26.2027 194.132 26.3127 194.132 26.4527V30.3827ZM209.987 47.2427C208.307 47.2427 206.837 46.9727 205.577 46.4327C204.317 45.8727 203.337 45.0827 202.637 44.0627C201.957 43.0427 201.617 41.8627 201.617 40.5227V40.1027C201.617 39.9627 201.657 39.8527 201.737 39.7727C201.817 39.6927 201.927 39.6527 202.067 39.6527H206.717C206.857 39.6527 206.967 39.6927 207.047 39.7727C207.127 39.8527 207.167 39.9627 207.167 40.1027V40.2827C207.167 40.8427 207.457 41.3427 208.037 41.7827C208.637 42.2027 209.427 42.4127 210.407 42.4127C211.147 42.4127 211.677 42.2627 211.997 41.9627C212.317 41.6427 212.477 41.2927 212.477 40.9127C212.477 40.4727 212.277 40.1427 211.877 39.9227C211.477 39.7027 210.747 39.4327 209.687 39.1127L208.817 38.8727C206.837 38.2727 205.177 37.4727 203.837 36.4727C202.497 35.4727 201.827 34.0227 201.827 32.1227C201.827 30.8627 202.167 29.7527 202.847 28.7927C203.527 27.8127 204.457 27.0627 205.637 26.5427C206.837 26.0227 208.177 25.7627 209.657 25.7627C211.217 25.7627 212.627 26.0527 213.887 26.6327C215.167 27.2127 216.167 28.0327 216.887 29.0927C217.627 30.1527 217.997 31.3627 217.997 32.7227V32.9927C217.997 33.1327 217.957 33.2427 217.877 33.3227C217.797 33.4027 217.687 33.4427 217.547 33.4427H212.897C212.757 33.4427 212.647 33.4027 212.567 33.3227C212.487 33.2427 212.447 33.1327 212.447 32.9927V32.9627C212.447 32.3627 212.177 31.8227 211.637 31.3427C211.097 30.8427 210.367 30.5927 209.447 30.5927C208.807 30.5927 208.297 30.7227 207.917 30.9827C207.557 31.2427 207.377 31.6027 207.377 32.0627C207.377 32.4227 207.507 32.7327 207.767 32.9927C208.047 33.2327 208.467 33.4727 209.027 33.7127C209.587 33.9327 210.447 34.2227 211.607 34.5827C211.767 34.6427 212.467 34.8627 213.707 35.2427C214.967 35.6027 216.017 36.2727 216.857 37.2527C217.697 38.2127 218.117 39.3827 218.117 40.7627C218.117 42.1027 217.777 43.2627 217.097 44.2427C216.417 45.2027 215.467 45.9427 214.247 46.4627C213.027 46.9827 211.607 47.2427 209.987 47.2427ZM234.19 47.2427C232.57 47.2427 231.13 46.9327 229.87 46.3127C228.63 45.6927 227.67 44.8127 226.99 43.6727C226.31 42.5327 225.97 41.2127 225.97 39.7127V26.4527C225.97 26.3127 226.01 26.2027 226.09 26.1227C226.17 26.0427 226.28 26.0027 226.42 26.0027H231.16C231.3 26.0027 231.41 26.0427 231.49 26.1227C231.57 26.2027 231.61 26.3127 231.61 26.4527V39.7127C231.61 40.5327 231.84 41.1927 232.3 41.6927C232.78 42.1727 233.41 42.4127 234.19 42.4127C234.95 42.4127 235.56 42.1627 236.02 41.6627C236.5 41.1627 236.74 40.5127 236.74 39.7127V26.4527C236.74 26.3127 236.78 26.2027 236.86 26.1227C236.94 26.0427 237.05 26.0027 237.19 26.0027H241.93C242.07 26.0027 242.18 26.0427 242.26 26.1227C242.34 26.2027 242.38 26.3127 242.38 26.4527V39.7127C242.38 41.2127 242.04 42.5327 241.36 43.6727C240.68 44.8127 239.72 45.6927 238.48 46.3127C237.24 46.9327 235.81 47.2427 234.19 47.2427ZM264.021 26.3027C264.141 26.1027 264.321 26.0027 264.561 26.0027H269.241C269.381 26.0027 269.491 26.0427 269.571 26.1227C269.651 26.2027 269.691 26.3127 269.691 26.4527V46.5527C269.691 46.6927 269.651 46.8027 269.571 46.8827C269.491 46.9627 269.381 47.0027 269.241 47.0027H264.501C264.361 47.0027 264.251 46.9627 264.171 46.8827C264.091 46.8027 264.051 46.6927 264.051 46.5527V35.6627C264.051 35.5827 264.031 35.5427 263.991 35.5427C263.951 35.5227 263.911 35.5427 263.871 35.6027L261.831 38.9327C261.711 39.1327 261.531 39.2327 261.291 39.2327H259.011C258.771 39.2327 258.591 39.1327 258.471 38.9327L256.431 35.6027C256.391 35.5427 256.351 35.5227 256.311 35.5427C256.271 35.5427 256.251 35.5827 256.251 35.6627V46.5527C256.251 46.6927 256.211 46.8027 256.131 46.8827C256.051 46.9627 255.941 47.0027 255.801 47.0027H251.061C250.921 47.0027 250.811 46.9627 250.731 46.8827C250.651 46.8027 250.611 46.6927 250.611 46.5527V26.4527C250.611 26.3127 250.651 26.2027 250.731 26.1227C250.811 26.0427 250.921 26.0027 251.061 26.0027H255.741C255.981 26.0027 256.161 26.1027 256.281 26.3027L260.061 32.3927C260.121 32.5127 260.181 32.5127 260.241 32.3927L264.021 26.3027ZM293.243 30.3827C293.243 30.5227 293.203 30.6327 293.123 30.7127C293.043 30.7927 292.933 30.8327 292.793 30.8327H283.823C283.723 30.8327 283.673 30.8827 283.673 30.9827V33.8027C283.673 33.9027 283.723 33.9527 283.823 33.9527H289.373C289.513 33.9527 289.623 33.9927 289.703 34.0727C289.783 34.1527 289.823 34.2627 289.823 34.4027V38.3027C289.823 38.4427 289.783 38.5527 289.703 38.6327C289.623 38.7127 289.513 38.7527 289.373 38.7527H283.823C283.723 38.7527 283.673 38.8027 283.673 38.9027V42.0227C283.673 42.1227 283.723 42.1727 283.823 42.1727H292.793C292.933 42.1727 293.043 42.2127 293.123 42.2927C293.203 42.3727 293.243 42.4827 293.243 42.6227V46.5527C293.243 46.6927 293.203 46.8027 293.123 46.8827C293.043 46.9627 292.933 47.0027 292.793 47.0027H278.483C278.343 47.0027 278.233 46.9627 278.153 46.8827C278.073 46.8027 278.033 46.6927 278.033 46.5527V26.4527C278.033 26.3127 278.073 26.2027 278.153 26.1227C278.233 26.0427 278.343 26.0027 278.483 26.0027H292.793C292.933 26.0027 293.043 26.0427 293.123 26.1227C293.203 26.2027 293.243 26.3127 293.243 26.4527V30.3827Z" fill="#00FF00"/>
<path d="M70 50.0029H293.965V51.5029H70V50.0029Z" fill="#00FF00"/>
</g>
<defs>
<clipPath id="clip0">
<rect width="294" height="71" fill="white"/>
</clipPath>
</defs>
</svg>
