<svg width="50" height="50" viewBox="0 0 50 50" fill="none" xmlns="http://www.w3.org/2000/svg">
<path d="M46.25 21.25V23.125H42.4C42.025 19.7 40.675 16.55 38.6 14L41.325 11.275L41.35 11.3L42.675 12.625L45.325 9.975L40.025 4.675L37.375 7.325L38.675 8.625L35.95 11.35C33.4 9.3 30.275 7.95 26.85 7.575V3.75H26.875H28.75V0H21.25V3.75H23.1V7.6C19.675 7.975 16.55 9.35 14 11.4L11.275 8.675L11.3 8.65L12.625 7.325L9.975 4.675L4.675 9.975L7.325 12.625L8.625 11.325L11.35 14.05C9.3 16.6 7.95 19.7 7.6 23.125H3.75V21.25H0V28.75H3.75V26.875H7.6C7.975 30.3 9.325 33.4 11.35 35.95L8.625 38.675L7.325 37.375L4.675 40.025L9.975 45.325L12.625 42.675L11.3 41.35L11.275 41.325L14 38.6C16.55 40.65 19.65 42 23.075 42.375V46.225H21.25V50H28.75V46.25H26.875H26.85V42.4C30.275 42.05 33.4 40.675 35.95 38.625L38.675 41.35L37.375 42.65L40.025 45.3L45.325 40L42.675 37.35L41.35 38.675L41.325 38.7L38.6 35.975C40.65 33.425 42.025 30.3 42.4 26.85H46.25V28.725H50V21.225H46.25V21.25ZM29.375 15C30.75 15 31.875 16.125 31.875 17.5C31.875 18.875 30.75 20 29.375 20C28 20 26.875 18.875 26.875 17.5C26.875 16.125 28 15 29.375 15ZM20.625 15C22 15 23.125 16.125 23.125 17.5C23.125 18.875 22 20 20.625 20C19.25 20 18.125 18.875 18.125 17.5C18.125 16.125 19.25 15 20.625 15ZM16.25 27.5C14.875 27.5 13.75 26.375 13.75 25C13.75 23.625 14.875 22.5 16.25 22.5C17.625 22.5 18.75 23.625 18.75 25C18.75 26.375 17.625 27.5 16.25 27.5ZM20.625 35C19.25 35 18.125 33.875 18.125 32.5C18.125 31.125 19.25 30 20.625 30C22 30 23.125 31.125 23.125 32.5C23.125 33.875 22 35 20.625 35ZM25 27.5C23.625 27.5 22.5 26.375 22.5 25C22.5 23.625 23.625 22.5 25 22.5C26.375 22.5 27.5 23.625 27.5 25C27.5 26.375 26.375 27.5 25 27.5ZM29.375 35C28 35 26.875 33.875 26.875 32.5C26.875 31.125 28 30 29.375 30C30.75 30 31.875 31.125 31.875 32.5C31.875 33.875 30.75 35 29.375 35ZM33.75 27.5C32.375 27.5 31.25 26.375 31.25 25C31.25 23.625 32.375 22.5 33.75 22.5C35.125 22.5 36.25 23.625 36.25 25C36.25 26.375 35.125 27.5 33.75 27.5Z" fill="#0000FF"/>
</svg>
