<svg width="1126" height="483" viewBox="0 0 1126 483" fill="none" xmlns="http://www.w3.org/2000/svg">
<rect x="1" y="1" width="27.6054" height="27.6054" stroke="#00FF00" stroke-opacity="0.5"/>
<rect x="1" y="40.1699" width="27.6054" height="27.6054" stroke="#00FF00" stroke-opacity="0.5"/>
<rect x="40.1699" y="1" width="27.6054" height="27.6054" stroke="#00FF00" stroke-opacity="0.5"/>
<rect x="40.1699" y="40.1699" width="27.6054" height="27.6054" stroke="#00FF00" stroke-opacity="0.5"/>
<rect x="644" y="1" width="27.6054" height="27.6054" stroke="#00FF00" stroke-opacity="0.5"/>
<rect x="644" y="40.1699" width="27.6054" height="27.6054" stroke="#00FF00" stroke-opacity="0.5"/>
<rect x="683.17" y="1" width="27.6054" height="27.6054" stroke="#00FF00" stroke-opacity="0.5"/>
<rect x="683.17" y="40.1699" width="27.6054" height="27.6054" stroke="#00FF00" stroke-opacity="0.5"/>
<rect x="1" y="166.688" width="27.6054" height="27.6054" stroke="#00FF00" stroke-opacity="0.5"/>
<rect x="1" y="205.858" width="27.6054" height="27.6054" stroke="#00FF00" stroke-opacity="0.5"/>
<rect x="40.1699" y="166.688" width="27.6054" height="27.6054" stroke="#00FF00" stroke-opacity="0.5"/>
<rect x="40.1699" y="205.858" width="27.6054" height="27.6054" stroke="#00FF00" stroke-opacity="0.5"/>
<rect x="644" y="166.688" width="27.6054" height="27.6054" stroke="#00FF00" stroke-opacity="0.5"/>
<rect x="644" y="205.858" width="27.6054" height="27.6054" stroke="#00FF00" stroke-opacity="0.5"/>
<rect x="683.17" y="166.688" width="27.6054" height="27.6054" stroke="#00FF00" stroke-opacity="0.5"/>
<rect x="683.17" y="205.858" width="27.6054" height="27.6054" stroke="#00FF00" stroke-opacity="0.5"/>
<rect x="1" y="332.437" width="27.6054" height="27.6054" stroke="#00FF00" stroke-opacity="0.5"/>
<rect x="1" y="371.606" width="27.6054" height="27.6054" stroke="#00FF00" stroke-opacity="0.5"/>
<rect x="40.1699" y="332.437" width="27.6054" height="27.6054" stroke="#00FF00" stroke-opacity="0.5"/>
<rect x="40.1699" y="371.606" width="27.6054" height="27.6054" stroke="#00FF00" stroke-opacity="0.5"/>
<rect x="644" y="332.437" width="27.6054" height="27.6054" stroke="#00FF00" stroke-opacity="0.5"/>
<rect x="644" y="371.606" width="27.6054" height="27.6054" stroke="#00FF00" stroke-opacity="0.5"/>
<rect x="683.17" y="332.437" width="27.6054" height="27.6054" stroke="#00FF00" stroke-opacity="0.5"/>
<rect x="683.17" y="371.606" width="27.6054" height="27.6054" stroke="#00FF00" stroke-opacity="0.5"/>
<rect x="1" y="83.8447" width="27.6054" height="27.6054" stroke="#00FF00" stroke-opacity="0.5"/>
<rect x="1" y="123.015" width="27.6054" height="27.6054" stroke="#00FF00" stroke-opacity="0.5"/>
<rect x="40.1699" y="83.8447" width="27.6054" height="27.6054" stroke="#00FF00" stroke-opacity="0.5"/>
<rect x="40.1699" y="123.015" width="27.6054" height="27.6054" stroke="#00FF00" stroke-opacity="0.5"/>
<rect x="644" y="83.8447" width="27.6054" height="27.6054" stroke="#00FF00" stroke-opacity="0.5"/>
<rect x="644" y="123.015" width="27.6054" height="27.6054" stroke="#00FF00" stroke-opacity="0.5"/>
<rect x="683.17" y="83.8447" width="27.6054" height="27.6054" stroke="#00FF00" stroke-opacity="0.5"/>
<rect x="683.17" y="123.015" width="27.6054" height="27.6054" stroke="#00FF00" stroke-opacity="0.5"/>
<rect x="1" y="249.533" width="27.6054" height="27.6054" stroke="#00FF00" stroke-opacity="0.5"/>
<rect x="1" y="288.703" width="27.6054" height="27.6054" stroke="#00FF00" stroke-opacity="0.5"/>
<rect x="40.1699" y="249.533" width="27.6054" height="27.6054" stroke="#00FF00" stroke-opacity="0.5"/>
<rect x="40.1699" y="288.703" width="27.6054" height="27.6054" stroke="#00FF00" stroke-opacity="0.5"/>
<rect x="644" y="249.533" width="27.6054" height="27.6054" stroke="#00FF00" stroke-opacity="0.5"/>
<rect x="644" y="288.703" width="27.6054" height="27.6054" stroke="#00FF00" stroke-opacity="0.5"/>
<rect x="683.17" y="249.533" width="27.6054" height="27.6054" stroke="#00FF00" stroke-opacity="0.5"/>
<rect x="683.17" y="288.703" width="27.6054" height="27.6054" stroke="#00FF00" stroke-opacity="0.5"/>
<rect x="1" y="415.281" width="27.6054" height="27.6054" stroke="#00FF00" stroke-opacity="0.5"/>
<rect x="1" y="454.451" width="27.6054" height="27.6054" stroke="#00FF00" stroke-opacity="0.5"/>
<rect x="40.1699" y="415.281" width="27.6054" height="27.6054" stroke="#00FF00" stroke-opacity="0.5"/>
<rect x="40.1699" y="454.451" width="27.6054" height="27.6054" stroke="#00FF00" stroke-opacity="0.5"/>
<rect x="644" y="415.281" width="27.6054" height="27.6054" stroke="#00FF00" stroke-opacity="0.5"/>
<rect x="644" y="454.451" width="27.6054" height="27.6054" stroke="#00FF00" stroke-opacity="0.5"/>
<rect x="683.17" y="415.281" width="27.6054" height="27.6054" stroke="#00FF00" stroke-opacity="0.5"/>
<rect x="683.17" y="454.451" width="27.6054" height="27.6054" stroke="#00FF00" stroke-opacity="0.5"/>
<rect x="83.8447" y="1" width="27.6054" height="27.6054" stroke="#00FF00" stroke-opacity="0.5"/>
<rect x="83.8447" y="40.1699" width="27.6054" height="27.6054" stroke="#00FF00" stroke-opacity="0.5"/>
<rect x="123.015" y="1" width="27.6054" height="27.6054" stroke="#00FF00" stroke-opacity="0.5"/>
<rect x="123.015" y="40.1699" width="27.6054" height="27.6054" stroke="#00FF00" stroke-opacity="0.5"/>
<rect x="726.845" y="1" width="27.6054" height="27.6054" stroke="#00FF00" stroke-opacity="0.5"/>
<rect x="726.845" y="40.1699" width="27.6054" height="27.6054" stroke="#00FF00" stroke-opacity="0.5"/>
<rect x="766.015" y="1" width="27.6054" height="27.6054" stroke="#00FF00" stroke-opacity="0.5"/>
<rect x="766.015" y="40.1699" width="27.6054" height="27.6054" stroke="#00FF00" stroke-opacity="0.5"/>
<rect x="83.8447" y="166.688" width="27.6054" height="27.6054" stroke="#00FF00" stroke-opacity="0.5"/>
<rect x="83.8447" y="205.858" width="27.6054" height="27.6054" stroke="#00FF00" stroke-opacity="0.5"/>
<rect x="123.015" y="166.688" width="27.6054" height="27.6054" stroke="#00FF00" stroke-opacity="0.5"/>
<rect x="123.015" y="205.858" width="27.6054" height="27.6054" stroke="#00FF00" stroke-opacity="0.5"/>
<rect x="726.845" y="166.688" width="27.6054" height="27.6054" stroke="#00FF00" stroke-opacity="0.5"/>
<rect x="726.845" y="205.858" width="27.6054" height="27.6054" stroke="#00FF00" stroke-opacity="0.5"/>
<rect x="766.015" y="166.688" width="27.6054" height="27.6054" stroke="#00FF00" stroke-opacity="0.5"/>
<rect x="766.015" y="205.858" width="27.6054" height="27.6054" stroke="#00FF00" stroke-opacity="0.5"/>
<rect x="83.8447" y="332.437" width="27.6054" height="27.6054" stroke="#00FF00" stroke-opacity="0.5"/>
<rect x="83.8447" y="371.606" width="27.6054" height="27.6054" stroke="#00FF00" stroke-opacity="0.5"/>
<rect x="123.015" y="332.437" width="27.6054" height="27.6054" stroke="#00FF00" stroke-opacity="0.5"/>
<rect x="123.015" y="371.606" width="27.6054" height="27.6054" stroke="#00FF00" stroke-opacity="0.5"/>
<rect x="726.845" y="332.437" width="27.6054" height="27.6054" stroke="#00FF00" stroke-opacity="0.5"/>
<rect x="726.845" y="371.606" width="27.6054" height="27.6054" stroke="#00FF00" stroke-opacity="0.5"/>
<rect x="766.015" y="332.437" width="27.6054" height="27.6054" stroke="#00FF00" stroke-opacity="0.5"/>
<rect x="766.015" y="371.606" width="27.6054" height="27.6054" stroke="#00FF00" stroke-opacity="0.5"/>
<rect x="83.8447" y="83.8447" width="27.6054" height="27.6054" stroke="#00FF00" stroke-opacity="0.5"/>
<rect x="83.8447" y="123.015" width="27.6054" height="27.6054" stroke="#00FF00" stroke-opacity="0.5"/>
<rect x="123.015" y="83.8447" width="27.6054" height="27.6054" stroke="#00FF00" stroke-opacity="0.5"/>
<rect x="123.015" y="123.015" width="27.6054" height="27.6054" stroke="#00FF00" stroke-opacity="0.5"/>
<rect x="726.845" y="83.8447" width="27.6054" height="27.6054" stroke="#00FF00" stroke-opacity="0.5"/>
<rect x="726.845" y="123.015" width="27.6054" height="27.6054" stroke="#00FF00" stroke-opacity="0.5"/>
<rect x="766.015" y="83.8447" width="27.6054" height="27.6054" stroke="#00FF00" stroke-opacity="0.5"/>
<rect x="766.015" y="123.015" width="27.6054" height="27.6054" stroke="#00FF00" stroke-opacity="0.5"/>
<rect x="83.8447" y="249.533" width="27.6054" height="27.6054" stroke="#00FF00" stroke-opacity="0.5"/>
<rect x="83.8447" y="288.703" width="27.6054" height="27.6054" stroke="#00FF00" stroke-opacity="0.5"/>
<rect x="123.015" y="249.533" width="27.6054" height="27.6054" stroke="#00FF00" stroke-opacity="0.5"/>
<rect x="123.015" y="288.703" width="27.6054" height="27.6054" stroke="#00FF00" stroke-opacity="0.5"/>
<rect x="726.845" y="249.533" width="27.6054" height="27.6054" stroke="#00FF00" stroke-opacity="0.5"/>
<rect x="726.845" y="288.703" width="27.6054" height="27.6054" stroke="#00FF00" stroke-opacity="0.5"/>
<rect x="766.015" y="249.533" width="27.6054" height="27.6054" stroke="#00FF00" stroke-opacity="0.5"/>
<rect x="766.015" y="288.703" width="27.6054" height="27.6054" stroke="#00FF00" stroke-opacity="0.5"/>
<rect x="83.8447" y="415.281" width="27.6054" height="27.6054" stroke="#00FF00" stroke-opacity="0.5"/>
<rect x="83.8447" y="454.451" width="27.6054" height="27.6054" stroke="#00FF00" stroke-opacity="0.5"/>
<rect x="123.015" y="415.281" width="27.6054" height="27.6054" stroke="#00FF00" stroke-opacity="0.5"/>
<rect x="123.015" y="454.451" width="27.6054" height="27.6054" stroke="#00FF00" stroke-opacity="0.5"/>
<rect x="726.845" y="415.281" width="27.6054" height="27.6054" stroke="#00FF00" stroke-opacity="0.5"/>
<rect x="726.845" y="454.451" width="27.6054" height="27.6054" stroke="#00FF00" stroke-opacity="0.5"/>
<rect x="766.015" y="415.281" width="27.6054" height="27.6054" stroke="#00FF00" stroke-opacity="0.5"/>
<rect x="766.015" y="454.451" width="27.6054" height="27.6054" stroke="#00FF00" stroke-opacity="0.5"/>
<rect x="166.69" y="1" width="27.6054" height="27.6054" stroke="#00FF00" stroke-opacity="0.5"/>
<rect x="166.69" y="40.1699" width="27.6054" height="27.6054" stroke="#00FF00" stroke-opacity="0.5"/>
<rect x="205.86" y="1" width="27.6054" height="27.6054" stroke="#00FF00" stroke-opacity="0.5"/>
<rect x="205.86" y="40.1699" width="27.6054" height="27.6054" stroke="#00FF00" stroke-opacity="0.5"/>
<rect x="809.69" y="1" width="27.6054" height="27.6054" stroke="#00FF00" stroke-opacity="0.5"/>
<rect x="809.69" y="40.1699" width="27.6054" height="27.6054" stroke="#00FF00" stroke-opacity="0.5"/>
<rect x="848.86" y="1" width="27.6054" height="27.6054" stroke="#00FF00" stroke-opacity="0.5"/>
<rect x="848.86" y="40.1699" width="27.6054" height="27.6054" stroke="#00FF00" stroke-opacity="0.5"/>
<rect x="166.69" y="166.688" width="27.6054" height="27.6054" stroke="#00FF00" stroke-opacity="0.5"/>
<rect x="166.69" y="205.858" width="27.6054" height="27.6054" stroke="#00FF00" stroke-opacity="0.5"/>
<rect x="205.86" y="166.688" width="27.6054" height="27.6054" stroke="#00FF00" stroke-opacity="0.5"/>
<rect x="205.86" y="205.858" width="27.6054" height="27.6054" stroke="#00FF00" stroke-opacity="0.5"/>
<rect x="809.69" y="166.688" width="27.6054" height="27.6054" stroke="#00FF00" stroke-opacity="0.5"/>
<rect x="809.69" y="205.858" width="27.6054" height="27.6054" stroke="#00FF00" stroke-opacity="0.5"/>
<rect x="848.86" y="166.688" width="27.6054" height="27.6054" stroke="#00FF00" stroke-opacity="0.5"/>
<rect x="848.86" y="205.858" width="27.6054" height="27.6054" stroke="#00FF00" stroke-opacity="0.5"/>
<rect x="166.69" y="332.437" width="27.6054" height="27.6054" stroke="#00FF00" stroke-opacity="0.5"/>
<rect x="166.69" y="371.606" width="27.6054" height="27.6054" stroke="#00FF00" stroke-opacity="0.5"/>
<rect x="205.86" y="332.437" width="27.6054" height="27.6054" stroke="#00FF00" stroke-opacity="0.5"/>
<rect x="205.86" y="371.606" width="27.6054" height="27.6054" stroke="#00FF00" stroke-opacity="0.5"/>
<rect x="809.69" y="332.437" width="27.6054" height="27.6054" stroke="#00FF00" stroke-opacity="0.5"/>
<rect x="809.69" y="371.606" width="27.6054" height="27.6054" stroke="#00FF00" stroke-opacity="0.5"/>
<rect x="848.86" y="332.437" width="27.6054" height="27.6054" stroke="#00FF00" stroke-opacity="0.5"/>
<rect x="848.86" y="371.606" width="27.6054" height="27.6054" stroke="#00FF00" stroke-opacity="0.5"/>
<rect x="166.69" y="83.8447" width="27.6054" height="27.6054" stroke="#00FF00" stroke-opacity="0.5"/>
<rect x="166.69" y="123.015" width="27.6054" height="27.6054" stroke="#00FF00" stroke-opacity="0.5"/>
<rect x="205.86" y="83.8447" width="27.6054" height="27.6054" stroke="#00FF00" stroke-opacity="0.5"/>
<rect x="205.86" y="123.015" width="27.6054" height="27.6054" stroke="#00FF00" stroke-opacity="0.5"/>
<rect x="809.69" y="83.8447" width="27.6054" height="27.6054" stroke="#00FF00" stroke-opacity="0.5"/>
<rect x="809.69" y="123.015" width="27.6054" height="27.6054" stroke="#00FF00" stroke-opacity="0.5"/>
<rect x="848.86" y="83.8447" width="27.6054" height="27.6054" stroke="#00FF00" stroke-opacity="0.5"/>
<rect x="848.86" y="123.015" width="27.6054" height="27.6054" stroke="#00FF00" stroke-opacity="0.5"/>
<rect x="166.69" y="249.533" width="27.6054" height="27.6054" stroke="#00FF00" stroke-opacity="0.5"/>
<rect x="166.69" y="288.703" width="27.6054" height="27.6054" stroke="#00FF00" stroke-opacity="0.5"/>
<rect x="205.86" y="249.533" width="27.6054" height="27.6054" stroke="#00FF00" stroke-opacity="0.5"/>
<rect x="205.86" y="288.703" width="27.6054" height="27.6054" stroke="#00FF00" stroke-opacity="0.5"/>
<rect x="809.69" y="249.533" width="27.6054" height="27.6054" stroke="#00FF00" stroke-opacity="0.5"/>
<rect x="809.69" y="288.703" width="27.6054" height="27.6054" stroke="#00FF00" stroke-opacity="0.5"/>
<rect x="848.86" y="249.533" width="27.6054" height="27.6054" stroke="#00FF00" stroke-opacity="0.5"/>
<rect x="848.86" y="288.703" width="27.6054" height="27.6054" stroke="#00FF00" stroke-opacity="0.5"/>
<rect x="166.69" y="415.281" width="27.6054" height="27.6054" stroke="#00FF00" stroke-opacity="0.5"/>
<rect x="166.69" y="454.451" width="27.6054" height="27.6054" stroke="#00FF00" stroke-opacity="0.5"/>
<rect x="205.86" y="415.281" width="27.6054" height="27.6054" stroke="#00FF00" stroke-opacity="0.5"/>
<rect x="205.86" y="454.451" width="27.6054" height="27.6054" stroke="#00FF00" stroke-opacity="0.5"/>
<rect x="809.69" y="415.281" width="27.6054" height="27.6054" stroke="#00FF00" stroke-opacity="0.5"/>
<rect x="809.69" y="454.451" width="27.6054" height="27.6054" stroke="#00FF00" stroke-opacity="0.5"/>
<rect x="848.86" y="415.281" width="27.6054" height="27.6054" stroke="#00FF00" stroke-opacity="0.5"/>
<rect x="848.86" y="454.451" width="27.6054" height="27.6054" stroke="#00FF00" stroke-opacity="0.5"/>
<rect x="249.535" y="1" width="27.6054" height="27.6054" stroke="#00FF00" stroke-opacity="0.5"/>
<rect x="249.535" y="40.1699" width="27.6054" height="27.6054" stroke="#00FF00" stroke-opacity="0.5"/>
<rect x="288.705" y="1" width="27.6054" height="27.6054" stroke="#00FF00" stroke-opacity="0.5"/>
<rect x="288.705" y="40.1699" width="27.6054" height="27.6054" stroke="#00FF00" stroke-opacity="0.5"/>
<rect x="892.535" y="1" width="27.6054" height="27.6054" stroke="#00FF00" stroke-opacity="0.5"/>
<rect x="892.535" y="40.1699" width="27.6054" height="27.6054" stroke="#00FF00" stroke-opacity="0.5"/>
<rect x="931.705" y="1" width="27.6054" height="27.6054" stroke="#00FF00" stroke-opacity="0.5"/>
<rect x="931.705" y="40.1699" width="27.6054" height="27.6054" stroke="#00FF00" stroke-opacity="0.5"/>
<rect x="249.535" y="166.688" width="27.6054" height="27.6054" stroke="#00FF00" stroke-opacity="0.5"/>
<rect x="249.535" y="205.858" width="27.6054" height="27.6054" stroke="#00FF00" stroke-opacity="0.5"/>
<rect x="288.705" y="166.688" width="27.6054" height="27.6054" stroke="#00FF00" stroke-opacity="0.5"/>
<rect x="288.705" y="205.858" width="27.6054" height="27.6054" stroke="#00FF00" stroke-opacity="0.5"/>
<rect x="892.535" y="166.688" width="27.6054" height="27.6054" stroke="#00FF00" stroke-opacity="0.5"/>
<rect x="892.535" y="205.858" width="27.6054" height="27.6054" stroke="#00FF00" stroke-opacity="0.5"/>
<rect x="931.705" y="166.688" width="27.6054" height="27.6054" stroke="#00FF00" stroke-opacity="0.5"/>
<rect x="931.705" y="205.858" width="27.6054" height="27.6054" stroke="#00FF00" stroke-opacity="0.5"/>
<rect x="249.535" y="332.437" width="27.6054" height="27.6054" stroke="#00FF00" stroke-opacity="0.5"/>
<rect x="249.535" y="371.606" width="27.6054" height="27.6054" stroke="#00FF00" stroke-opacity="0.5"/>
<rect x="288.705" y="332.437" width="27.6054" height="27.6054" stroke="#00FF00" stroke-opacity="0.5"/>
<rect x="288.705" y="371.606" width="27.6054" height="27.6054" stroke="#00FF00" stroke-opacity="0.5"/>
<rect x="892.535" y="332.437" width="27.6054" height="27.6054" stroke="#00FF00" stroke-opacity="0.5"/>
<rect x="892.535" y="371.606" width="27.6054" height="27.6054" stroke="#00FF00" stroke-opacity="0.5"/>
<rect x="931.705" y="332.437" width="27.6054" height="27.6054" stroke="#00FF00" stroke-opacity="0.5"/>
<rect x="931.705" y="371.606" width="27.6054" height="27.6054" stroke="#00FF00" stroke-opacity="0.5"/>
<rect x="249.535" y="83.8447" width="27.6054" height="27.6054" stroke="#00FF00" stroke-opacity="0.5"/>
<rect x="249.535" y="123.015" width="27.6054" height="27.6054" stroke="#00FF00" stroke-opacity="0.5"/>
<rect x="288.705" y="83.8447" width="27.6054" height="27.6054" stroke="#00FF00" stroke-opacity="0.5"/>
<rect x="288.705" y="123.015" width="27.6054" height="27.6054" stroke="#00FF00" stroke-opacity="0.5"/>
<rect x="892.535" y="83.8447" width="27.6054" height="27.6054" stroke="#00FF00" stroke-opacity="0.5"/>
<rect x="892.535" y="123.015" width="27.6054" height="27.6054" stroke="#00FF00" stroke-opacity="0.5"/>
<rect x="931.705" y="83.8447" width="27.6054" height="27.6054" stroke="#00FF00" stroke-opacity="0.5"/>
<rect x="931.705" y="123.015" width="27.6054" height="27.6054" stroke="#00FF00" stroke-opacity="0.5"/>
<rect x="249.535" y="249.533" width="27.6054" height="27.6054" stroke="#00FF00" stroke-opacity="0.5"/>
<rect x="249.535" y="288.703" width="27.6054" height="27.6054" stroke="#00FF00" stroke-opacity="0.5"/>
<rect x="288.705" y="249.533" width="27.6054" height="27.6054" stroke="#00FF00" stroke-opacity="0.5"/>
<rect x="288.705" y="288.703" width="27.6054" height="27.6054" stroke="#00FF00" stroke-opacity="0.5"/>
<rect x="892.535" y="249.533" width="27.6054" height="27.6054" stroke="#00FF00" stroke-opacity="0.5"/>
<rect x="892.535" y="288.703" width="27.6054" height="27.6054" stroke="#00FF00" stroke-opacity="0.5"/>
<rect x="931.705" y="249.533" width="27.6054" height="27.6054" stroke="#00FF00" stroke-opacity="0.5"/>
<rect x="931.705" y="288.703" width="27.6054" height="27.6054" stroke="#00FF00" stroke-opacity="0.5"/>
<rect x="249.535" y="415.281" width="27.6054" height="27.6054" stroke="#00FF00" stroke-opacity="0.5"/>
<rect x="249.535" y="454.451" width="27.6054" height="27.6054" stroke="#00FF00" stroke-opacity="0.5"/>
<rect x="288.705" y="415.281" width="27.6054" height="27.6054" stroke="#00FF00" stroke-opacity="0.5"/>
<rect x="288.705" y="454.451" width="27.6054" height="27.6054" stroke="#00FF00" stroke-opacity="0.5"/>
<rect x="892.535" y="415.281" width="27.6054" height="27.6054" stroke="#00FF00" stroke-opacity="0.5"/>
<rect x="892.535" y="454.451" width="27.6054" height="27.6054" stroke="#00FF00" stroke-opacity="0.5"/>
<rect x="931.705" y="415.281" width="27.6054" height="27.6054" stroke="#00FF00" stroke-opacity="0.5"/>
<rect x="931.705" y="454.451" width="27.6054" height="27.6054" stroke="#00FF00" stroke-opacity="0.5"/>
<rect x="332.38" y="1" width="27.6054" height="27.6054" stroke="#00FF00" stroke-opacity="0.5"/>
<rect x="332.38" y="40.1699" width="27.6054" height="27.6054" stroke="#00FF00" stroke-opacity="0.5"/>
<rect x="371.55" y="1" width="27.6054" height="27.6054" stroke="#00FF00" stroke-opacity="0.5"/>
<rect x="371.55" y="40.1699" width="27.6054" height="27.6054" stroke="#00FF00" stroke-opacity="0.5"/>
<rect x="975.38" y="1" width="27.6054" height="27.6054" stroke="#00FF00" stroke-opacity="0.5"/>
<rect x="975.38" y="40.1699" width="27.6054" height="27.6054" stroke="#00FF00" stroke-opacity="0.5"/>
<rect x="1014.55" y="1" width="27.6054" height="27.6054" stroke="#00FF00" stroke-opacity="0.5"/>
<rect x="1014.55" y="40.1699" width="27.6054" height="27.6054" stroke="#00FF00" stroke-opacity="0.5"/>
<rect x="332.38" y="166.688" width="27.6054" height="27.6054" stroke="#00FF00" stroke-opacity="0.5"/>
<rect x="332.38" y="205.858" width="27.6054" height="27.6054" stroke="#00FF00" stroke-opacity="0.5"/>
<rect x="371.55" y="166.688" width="27.6054" height="27.6054" stroke="#00FF00" stroke-opacity="0.5"/>
<rect x="371.55" y="205.858" width="27.6054" height="27.6054" stroke="#00FF00" stroke-opacity="0.5"/>
<rect x="975.38" y="166.688" width="27.6054" height="27.6054" stroke="#00FF00" stroke-opacity="0.5"/>
<rect x="975.38" y="205.858" width="27.6054" height="27.6054" stroke="#00FF00" stroke-opacity="0.5"/>
<rect x="1014.55" y="166.688" width="27.6054" height="27.6054" stroke="#00FF00" stroke-opacity="0.5"/>
<rect x="1014.55" y="205.858" width="27.6054" height="27.6054" stroke="#00FF00" stroke-opacity="0.5"/>
<rect x="332.38" y="332.437" width="27.6054" height="27.6054" stroke="#00FF00" stroke-opacity="0.5"/>
<rect x="332.38" y="371.606" width="27.6054" height="27.6054" stroke="#00FF00" stroke-opacity="0.5"/>
<rect x="371.55" y="332.437" width="27.6054" height="27.6054" stroke="#00FF00" stroke-opacity="0.5"/>
<rect x="371.55" y="371.606" width="27.6054" height="27.6054" stroke="#00FF00" stroke-opacity="0.5"/>
<rect x="975.38" y="332.437" width="27.6054" height="27.6054" stroke="#00FF00" stroke-opacity="0.5"/>
<rect x="975.38" y="371.606" width="27.6054" height="27.6054" stroke="#00FF00" stroke-opacity="0.5"/>
<rect x="1014.55" y="332.437" width="27.6054" height="27.6054" stroke="#00FF00" stroke-opacity="0.5"/>
<rect x="1014.55" y="371.606" width="27.6054" height="27.6054" stroke="#00FF00" stroke-opacity="0.5"/>
<rect x="332.38" y="83.8447" width="27.6054" height="27.6054" stroke="#00FF00" stroke-opacity="0.5"/>
<rect x="332.38" y="123.015" width="27.6054" height="27.6054" stroke="#00FF00" stroke-opacity="0.5"/>
<rect x="371.55" y="83.8447" width="27.6054" height="27.6054" stroke="#00FF00" stroke-opacity="0.5"/>
<rect x="371.55" y="123.015" width="27.6054" height="27.6054" stroke="#00FF00" stroke-opacity="0.5"/>
<rect x="975.38" y="83.8447" width="27.6054" height="27.6054" stroke="#00FF00" stroke-opacity="0.5"/>
<rect x="975.38" y="123.015" width="27.6054" height="27.6054" stroke="#00FF00" stroke-opacity="0.5"/>
<rect x="1014.55" y="83.8447" width="27.6054" height="27.6054" stroke="#00FF00" stroke-opacity="0.5"/>
<rect x="1014.55" y="123.015" width="27.6054" height="27.6054" stroke="#00FF00" stroke-opacity="0.5"/>
<rect x="332.38" y="249.533" width="27.6054" height="27.6054" stroke="#00FF00" stroke-opacity="0.5"/>
<rect x="332.38" y="288.703" width="27.6054" height="27.6054" stroke="#00FF00" stroke-opacity="0.5"/>
<rect x="371.55" y="249.533" width="27.6054" height="27.6054" stroke="#00FF00" stroke-opacity="0.5"/>
<rect x="371.55" y="288.703" width="27.6054" height="27.6054" stroke="#00FF00" stroke-opacity="0.5"/>
<rect x="975.38" y="249.533" width="27.6054" height="27.6054" stroke="#00FF00" stroke-opacity="0.5"/>
<rect x="975.38" y="288.703" width="27.6054" height="27.6054" stroke="#00FF00" stroke-opacity="0.5"/>
<rect x="1014.55" y="249.533" width="27.6054" height="27.6054" stroke="#00FF00" stroke-opacity="0.5"/>
<rect x="1014.55" y="288.703" width="27.6054" height="27.6054" stroke="#00FF00" stroke-opacity="0.5"/>
<rect x="332.38" y="415.281" width="27.6054" height="27.6054" stroke="#00FF00" stroke-opacity="0.5"/>
<rect x="332.38" y="454.451" width="27.6054" height="27.6054" stroke="#00FF00" stroke-opacity="0.5"/>
<rect x="371.55" y="415.281" width="27.6054" height="27.6054" stroke="#00FF00" stroke-opacity="0.5"/>
<rect x="371.55" y="454.451" width="27.6054" height="27.6054" stroke="#00FF00" stroke-opacity="0.5"/>
<rect x="975.38" y="415.281" width="27.6054" height="27.6054" stroke="#00FF00" stroke-opacity="0.5"/>
<rect x="975.38" y="454.451" width="27.6054" height="27.6054" stroke="#00FF00" stroke-opacity="0.5"/>
<rect x="1014.55" y="415.281" width="27.6054" height="27.6054" stroke="#00FF00" stroke-opacity="0.5"/>
<rect x="1014.55" y="454.451" width="27.6054" height="27.6054" stroke="#00FF00" stroke-opacity="0.5"/>
<rect x="415.225" y="1" width="27.6054" height="27.6054" stroke="#00FF00" stroke-opacity="0.5"/>
<rect x="415.225" y="40.1699" width="27.6054" height="27.6054" stroke="#00FF00" stroke-opacity="0.5"/>
<rect x="454.395" y="1" width="27.6054" height="27.6054" stroke="#00FF00" stroke-opacity="0.5"/>
<rect x="454.395" y="40.1699" width="27.6054" height="27.6054" stroke="#00FF00" stroke-opacity="0.5"/>
<rect x="1058.22" y="1" width="27.6054" height="27.6054" stroke="#00FF00" stroke-opacity="0.5"/>
<rect x="1058.22" y="40.1699" width="27.6054" height="27.6054" stroke="#00FF00" stroke-opacity="0.5"/>
<rect x="1097.39" y="1" width="27.6054" height="27.6054" stroke="#00FF00" stroke-opacity="0.5"/>
<rect x="1097.39" y="40.1699" width="27.6054" height="27.6054" stroke="#00FF00" stroke-opacity="0.5"/>
<rect x="415.225" y="166.688" width="27.6054" height="27.6054" stroke="#00FF00" stroke-opacity="0.5"/>
<rect x="415.225" y="205.858" width="27.6054" height="27.6054" stroke="#00FF00" stroke-opacity="0.5"/>
<rect x="454.395" y="166.688" width="27.6054" height="27.6054" stroke="#00FF00" stroke-opacity="0.5"/>
<rect x="454.395" y="205.858" width="27.6054" height="27.6054" stroke="#00FF00" stroke-opacity="0.5"/>
<rect x="1058.22" y="166.688" width="27.6054" height="27.6054" stroke="#00FF00" stroke-opacity="0.5"/>
<rect x="1058.22" y="205.858" width="27.6054" height="27.6054" stroke="#00FF00" stroke-opacity="0.5"/>
<rect x="1097.39" y="166.688" width="27.6054" height="27.6054" stroke="#00FF00" stroke-opacity="0.5"/>
<rect x="1097.39" y="205.858" width="27.6054" height="27.6054" stroke="#00FF00" stroke-opacity="0.5"/>
<rect x="415.225" y="332.437" width="27.6054" height="27.6054" stroke="#00FF00" stroke-opacity="0.5"/>
<rect x="415.225" y="371.606" width="27.6054" height="27.6054" stroke="#00FF00" stroke-opacity="0.5"/>
<rect x="454.395" y="332.437" width="27.6054" height="27.6054" stroke="#00FF00" stroke-opacity="0.5"/>
<rect x="454.395" y="371.606" width="27.6054" height="27.6054" stroke="#00FF00" stroke-opacity="0.5"/>
<rect x="1058.22" y="332.437" width="27.6054" height="27.6054" stroke="#00FF00" stroke-opacity="0.5"/>
<rect x="1058.22" y="371.606" width="27.6054" height="27.6054" stroke="#00FF00" stroke-opacity="0.5"/>
<rect x="1097.39" y="332.437" width="27.6054" height="27.6054" stroke="#00FF00" stroke-opacity="0.5"/>
<rect x="1097.39" y="371.606" width="27.6054" height="27.6054" stroke="#00FF00" stroke-opacity="0.5"/>
<rect x="415.225" y="83.8447" width="27.6054" height="27.6054" stroke="#00FF00" stroke-opacity="0.5"/>
<rect x="415.225" y="123.015" width="27.6054" height="27.6054" stroke="#00FF00" stroke-opacity="0.5"/>
<rect x="454.395" y="83.8447" width="27.6054" height="27.6054" stroke="#00FF00" stroke-opacity="0.5"/>
<rect x="454.395" y="123.015" width="27.6054" height="27.6054" stroke="#00FF00" stroke-opacity="0.5"/>
<rect x="1058.22" y="83.8447" width="27.6054" height="27.6054" stroke="#00FF00" stroke-opacity="0.5"/>
<rect x="1058.22" y="123.015" width="27.6054" height="27.6054" stroke="#00FF00" stroke-opacity="0.5"/>
<rect x="1097.39" y="83.8447" width="27.6054" height="27.6054" stroke="#00FF00" stroke-opacity="0.5"/>
<rect x="1097.39" y="123.015" width="27.6054" height="27.6054" stroke="#00FF00" stroke-opacity="0.5"/>
<rect x="415.225" y="249.533" width="27.6054" height="27.6054" stroke="#00FF00" stroke-opacity="0.5"/>
<rect x="415.225" y="288.703" width="27.6054" height="27.6054" stroke="#00FF00" stroke-opacity="0.5"/>
<rect x="454.395" y="249.533" width="27.6054" height="27.6054" stroke="#00FF00" stroke-opacity="0.5"/>
<rect x="454.395" y="288.703" width="27.6054" height="27.6054" stroke="#00FF00" stroke-opacity="0.5"/>
<rect x="1058.22" y="249.533" width="27.6054" height="27.6054" stroke="#00FF00" stroke-opacity="0.5"/>
<rect x="1058.22" y="288.703" width="27.6054" height="27.6054" stroke="#00FF00" stroke-opacity="0.5"/>
<rect x="1097.39" y="249.533" width="27.6054" height="27.6054" stroke="#00FF00" stroke-opacity="0.5"/>
<rect x="1097.39" y="288.703" width="27.6054" height="27.6054" stroke="#00FF00" stroke-opacity="0.5"/>
<rect x="415.225" y="415.281" width="27.6054" height="27.6054" stroke="#00FF00" stroke-opacity="0.5"/>
<rect x="415.225" y="454.451" width="27.6054" height="27.6054" stroke="#00FF00" stroke-opacity="0.5"/>
<rect x="454.395" y="415.281" width="27.6054" height="27.6054" stroke="#00FF00" stroke-opacity="0.5"/>
<rect x="454.395" y="454.451" width="27.6054" height="27.6054" stroke="#00FF00" stroke-opacity="0.5"/>
<rect x="1058.22" y="415.281" width="27.6054" height="27.6054" stroke="#00FF00" stroke-opacity="0.5"/>
<rect x="1058.22" y="454.451" width="27.6054" height="27.6054" stroke="#00FF00" stroke-opacity="0.5"/>
<rect x="1097.39" y="415.281" width="27.6054" height="27.6054" stroke="#00FF00" stroke-opacity="0.5"/>
<rect x="1097.39" y="454.451" width="27.6054" height="27.6054" stroke="#00FF00" stroke-opacity="0.5"/>
</svg>
