<svg width="1920" height="1079" viewBox="0 0 1920 1079" fill="none" xmlns="http://www.w3.org/2000/svg">
<rect x="148" y="95" width="43.8857" height="43.8857" stroke="#00FF00" stroke-opacity="0.3"/>
<rect x="148" y="160.829" width="43.8857" height="43.8857" stroke="#00FF00" stroke-opacity="0.3"/>
<rect x="213.829" y="95" width="43.8857" height="43.8857" stroke="#00FF00" stroke-opacity="0.3"/>
<rect x="213.829" y="160.829" width="43.8857" height="43.8857" stroke="#00FF00" stroke-opacity="0.3"/>
<rect x="148" y="226.657" width="43.8857" height="43.8857" stroke="#00FF00" stroke-opacity="0.3"/>
<rect x="148" y="292.486" width="43.8857" height="43.8857" stroke="#00FF00" stroke-opacity="0.3"/>
<rect x="213.829" y="226.657" width="43.8857" height="43.8857" stroke="#00FF00" stroke-opacity="0.3"/>
<rect x="213.829" y="292.486" width="43.8857" height="43.8857" stroke="#00FF00" stroke-opacity="0.3"/>
<rect x="148" y="358.314" width="43.8857" height="43.8857" stroke="#00FF00" stroke-opacity="0.3"/>
<rect x="148" y="424.143" width="43.8857" height="43.8857" stroke="#00FF00" stroke-opacity="0.3"/>
<rect x="213.829" y="358.314" width="43.8857" height="43.8857" stroke="#00FF00" stroke-opacity="0.3"/>
<rect x="213.829" y="424.143" width="43.8857" height="43.8857" stroke="#00FF00" stroke-opacity="0.3"/>
<rect x="148" y="489.972" width="43.8857" height="43.8857" stroke="#00FF00" stroke-opacity="0.3"/>
<rect x="148" y="555.8" width="43.8857" height="43.8857" stroke="#00FF00" stroke-opacity="0.3"/>
<rect x="213.829" y="489.972" width="43.8857" height="43.8857" stroke="#00FF00" stroke-opacity="0.3"/>
<rect x="213.829" y="555.8" width="43.8857" height="43.8857" stroke="#00FF00" stroke-opacity="0.3"/>
<rect x="148" y="753.286" width="43.8857" height="43.8857" stroke="#00FF00" stroke-opacity="0.3"/>
<rect x="148" y="819.114" width="43.8857" height="43.8857" stroke="#00FF00" stroke-opacity="0.3"/>
<rect x="213.829" y="753.286" width="43.8857" height="43.8857" stroke="#00FF00" stroke-opacity="0.3"/>
<rect x="213.829" y="819.114" width="43.8857" height="43.8857" stroke="#00FF00" stroke-opacity="0.3"/>
<rect x="148" y="621.628" width="43.8857" height="43.8857" stroke="#00FF00" stroke-opacity="0.3"/>
<rect x="148" y="687.458" width="43.8857" height="43.8857" stroke="#00FF00" stroke-opacity="0.3"/>
<rect x="213.829" y="621.628" width="43.8857" height="43.8857" stroke="#00FF00" stroke-opacity="0.3"/>
<rect x="213.829" y="687.458" width="43.8857" height="43.8857" stroke="#00FF00" stroke-opacity="0.3"/>
<rect x="411.314" y="95" width="43.8857" height="43.8857" stroke="#00FF00" stroke-opacity="0.3"/>
<rect x="411.314" y="160.829" width="43.8857" height="43.8857" stroke="#00FF00" stroke-opacity="0.3"/>
<rect x="477.143" y="95" width="43.8857" height="43.8857" stroke="#00FF00" stroke-opacity="0.3"/>
<rect x="477.143" y="160.829" width="43.8857" height="43.8857" stroke="#00FF00" stroke-opacity="0.3"/>
<rect x="411.314" y="226.657" width="43.8857" height="43.8857" stroke="#00FF00" stroke-opacity="0.3"/>
<rect x="411.314" y="292.486" width="43.8857" height="43.8857" stroke="#00FF00" stroke-opacity="0.3"/>
<rect x="477.143" y="226.657" width="43.8857" height="43.8857" stroke="#00FF00" stroke-opacity="0.3"/>
<rect x="477.143" y="292.486" width="43.8857" height="43.8857" stroke="#00FF00" stroke-opacity="0.3"/>
<rect x="411.314" y="358.314" width="43.8857" height="43.8857" stroke="#00FF00" stroke-opacity="0.3"/>
<rect x="411.314" y="424.143" width="43.8857" height="43.8857" stroke="#00FF00" stroke-opacity="0.3"/>
<rect x="477.143" y="358.314" width="43.8857" height="43.8857" stroke="#00FF00" stroke-opacity="0.3"/>
<rect x="477.143" y="424.143" width="43.8857" height="43.8857" stroke="#00FF00" stroke-opacity="0.3"/>
<rect x="411.314" y="489.972" width="43.8857" height="43.8857" stroke="#00FF00" stroke-opacity="0.3"/>
<rect x="411.314" y="555.8" width="43.8857" height="43.8857" stroke="#00FF00" stroke-opacity="0.3"/>
<rect x="477.143" y="489.972" width="43.8857" height="43.8857" stroke="#00FF00" stroke-opacity="0.3"/>
<rect x="477.143" y="555.8" width="43.8857" height="43.8857" stroke="#00FF00" stroke-opacity="0.3"/>
<rect x="411.314" y="753.286" width="43.8857" height="43.8857" stroke="#00FF00" stroke-opacity="0.3"/>
<rect x="411.314" y="819.114" width="43.8857" height="43.8857" stroke="#00FF00" stroke-opacity="0.3"/>
<rect x="477.143" y="753.286" width="43.8857" height="43.8857" stroke="#00FF00" stroke-opacity="0.3"/>
<rect x="477.143" y="819.114" width="43.8857" height="43.8857" stroke="#00FF00" stroke-opacity="0.3"/>
<rect x="411.314" y="621.628" width="43.8857" height="43.8857" stroke="#00FF00" stroke-opacity="0.3"/>
<rect x="411.314" y="687.458" width="43.8857" height="43.8857" stroke="#00FF00" stroke-opacity="0.3"/>
<rect x="477.143" y="621.628" width="43.8857" height="43.8857" stroke="#00FF00" stroke-opacity="0.3"/>
<rect x="477.143" y="687.458" width="43.8857" height="43.8857" stroke="#00FF00" stroke-opacity="0.3"/>
<rect x="674.628" y="95" width="43.8857" height="43.8857" stroke="#00FF00" stroke-opacity="0.3"/>
<rect x="674.628" y="160.829" width="43.8857" height="43.8857" stroke="#00FF00" stroke-opacity="0.3"/>
<rect x="740.457" y="95" width="43.8857" height="43.8857" stroke="#00FF00" stroke-opacity="0.3"/>
<rect x="740.457" y="160.829" width="43.8857" height="43.8857" stroke="#00FF00" stroke-opacity="0.3"/>
<rect x="674.628" y="226.657" width="43.8857" height="43.8857" stroke="#00FF00" stroke-opacity="0.3"/>
<rect x="674.628" y="292.486" width="43.8857" height="43.8857" stroke="#00FF00" stroke-opacity="0.3"/>
<rect x="740.457" y="226.657" width="43.8857" height="43.8857" stroke="#00FF00" stroke-opacity="0.3"/>
<rect x="740.457" y="292.486" width="43.8857" height="43.8857" stroke="#00FF00" stroke-opacity="0.3"/>
<rect x="674.628" y="358.314" width="43.8857" height="43.8857" stroke="#00FF00" stroke-opacity="0.3"/>
<rect x="674.628" y="424.143" width="43.8857" height="43.8857" stroke="#00FF00" stroke-opacity="0.3"/>
<rect x="740.457" y="358.314" width="43.8857" height="43.8857" stroke="#00FF00" stroke-opacity="0.3"/>
<rect x="740.457" y="424.143" width="43.8857" height="43.8857" stroke="#00FF00" stroke-opacity="0.3"/>
<rect x="674.628" y="489.972" width="43.8857" height="43.8857" stroke="#00FF00" stroke-opacity="0.3"/>
<rect x="674.628" y="555.8" width="43.8857" height="43.8857" stroke="#00FF00" stroke-opacity="0.3"/>
<rect x="740.457" y="489.972" width="43.8857" height="43.8857" stroke="#00FF00" stroke-opacity="0.3"/>
<rect x="740.457" y="555.8" width="43.8857" height="43.8857" stroke="#00FF00" stroke-opacity="0.3"/>
<rect x="674.628" y="753.286" width="43.8857" height="43.8857" stroke="#00FF00" stroke-opacity="0.3"/>
<rect x="674.628" y="819.114" width="43.8857" height="43.8857" stroke="#00FF00" stroke-opacity="0.3"/>
<rect x="740.457" y="753.286" width="43.8857" height="43.8857" stroke="#00FF00" stroke-opacity="0.3"/>
<rect x="740.457" y="819.114" width="43.8857" height="43.8857" stroke="#00FF00" stroke-opacity="0.3"/>
<rect x="674.628" y="621.628" width="43.8857" height="43.8857" stroke="#00FF00" stroke-opacity="0.3"/>
<rect x="674.628" y="687.458" width="43.8857" height="43.8857" stroke="#00FF00" stroke-opacity="0.3"/>
<rect x="740.457" y="621.628" width="43.8857" height="43.8857" stroke="#00FF00" stroke-opacity="0.3"/>
<rect x="740.457" y="687.458" width="43.8857" height="43.8857" stroke="#00FF00" stroke-opacity="0.3"/>
<rect x="279.657" y="95" width="43.8857" height="43.8857" stroke="#00FF00" stroke-opacity="0.3"/>
<rect x="279.657" y="160.829" width="43.8857" height="43.8857" stroke="#00FF00" stroke-opacity="0.3"/>
<rect x="345.486" y="95" width="43.8857" height="43.8857" stroke="#00FF00" stroke-opacity="0.3"/>
<rect x="345.486" y="160.829" width="43.8857" height="43.8857" stroke="#00FF00" stroke-opacity="0.3"/>
<rect x="279.657" y="226.657" width="43.8857" height="43.8857" stroke="#00FF00" stroke-opacity="0.3"/>
<rect x="279.657" y="292.486" width="43.8857" height="43.8857" stroke="#00FF00" stroke-opacity="0.3"/>
<rect x="345.486" y="226.657" width="43.8857" height="43.8857" stroke="#00FF00" stroke-opacity="0.3"/>
<rect x="345.486" y="292.486" width="43.8857" height="43.8857" stroke="#00FF00" stroke-opacity="0.3"/>
<rect x="279.657" y="358.314" width="43.8857" height="43.8857" stroke="#00FF00" stroke-opacity="0.3"/>
<rect x="279.657" y="424.143" width="43.8857" height="43.8857" stroke="#00FF00" stroke-opacity="0.3"/>
<rect x="345.486" y="358.314" width="43.8857" height="43.8857" stroke="#00FF00" stroke-opacity="0.3"/>
<rect x="345.486" y="424.143" width="43.8857" height="43.8857" stroke="#00FF00" stroke-opacity="0.3"/>
<rect x="279.657" y="489.972" width="43.8857" height="43.8857" stroke="#00FF00" stroke-opacity="0.3"/>
<rect x="279.657" y="555.8" width="43.8857" height="43.8857" stroke="#00FF00" stroke-opacity="0.3"/>
<rect x="345.486" y="489.972" width="43.8857" height="43.8857" stroke="#00FF00" stroke-opacity="0.3"/>
<rect x="345.486" y="555.8" width="43.8857" height="43.8857" stroke="#00FF00" stroke-opacity="0.3"/>
<rect x="279.657" y="753.286" width="43.8857" height="43.8857" stroke="#00FF00" stroke-opacity="0.3"/>
<rect x="279.657" y="819.114" width="43.8857" height="43.8857" stroke="#00FF00" stroke-opacity="0.3"/>
<rect x="345.486" y="753.286" width="43.8857" height="43.8857" stroke="#00FF00" stroke-opacity="0.3"/>
<rect x="345.486" y="819.114" width="43.8857" height="43.8857" stroke="#00FF00" stroke-opacity="0.3"/>
<rect x="279.657" y="621.628" width="43.8857" height="43.8857" stroke="#00FF00" stroke-opacity="0.3"/>
<rect x="279.657" y="687.458" width="43.8857" height="43.8857" stroke="#00FF00" stroke-opacity="0.3"/>
<rect x="345.486" y="621.628" width="43.8857" height="43.8857" stroke="#00FF00" stroke-opacity="0.3"/>
<rect x="345.486" y="687.458" width="43.8857" height="43.8857" stroke="#00FF00" stroke-opacity="0.3"/>
<rect x="542.971" y="95" width="43.8857" height="43.8857" stroke="#00FF00" stroke-opacity="0.3"/>
<rect x="542.971" y="160.829" width="43.8857" height="43.8857" stroke="#00FF00" stroke-opacity="0.3"/>
<rect x="608.8" y="95" width="43.8857" height="43.8857" stroke="#00FF00" stroke-opacity="0.3"/>
<rect x="608.8" y="160.829" width="43.8857" height="43.8857" stroke="#00FF00" stroke-opacity="0.3"/>
<rect x="542.971" y="226.657" width="43.8857" height="43.8857" stroke="#00FF00" stroke-opacity="0.3"/>
<rect x="542.971" y="292.486" width="43.8857" height="43.8857" stroke="#00FF00" stroke-opacity="0.3"/>
<rect x="608.8" y="226.657" width="43.8857" height="43.8857" stroke="#00FF00" stroke-opacity="0.3"/>
<rect x="608.8" y="292.486" width="43.8857" height="43.8857" stroke="#00FF00" stroke-opacity="0.3"/>
<rect x="542.971" y="358.314" width="43.8857" height="43.8857" stroke="#00FF00" stroke-opacity="0.3"/>
<rect x="542.971" y="424.143" width="43.8857" height="43.8857" stroke="#00FF00" stroke-opacity="0.3"/>
<rect x="608.8" y="358.314" width="43.8857" height="43.8857" stroke="#00FF00" stroke-opacity="0.3"/>
<rect x="608.8" y="424.143" width="43.8857" height="43.8857" stroke="#00FF00" stroke-opacity="0.3"/>
<rect x="542.971" y="489.972" width="43.8857" height="43.8857" stroke="#00FF00" stroke-opacity="0.3"/>
<rect x="542.971" y="555.8" width="43.8857" height="43.8857" stroke="#00FF00" stroke-opacity="0.3"/>
<rect x="608.8" y="489.972" width="43.8857" height="43.8857" stroke="#00FF00" stroke-opacity="0.3"/>
<rect x="608.8" y="555.8" width="43.8857" height="43.8857" stroke="#00FF00" stroke-opacity="0.3"/>
<rect x="542.971" y="753.286" width="43.8857" height="43.8857" stroke="#00FF00" stroke-opacity="0.3"/>
<rect x="542.971" y="819.114" width="43.8857" height="43.8857" stroke="#00FF00" stroke-opacity="0.3"/>
<rect x="608.8" y="753.286" width="43.8857" height="43.8857" stroke="#00FF00" stroke-opacity="0.3"/>
<rect x="608.8" y="819.114" width="43.8857" height="43.8857" stroke="#00FF00" stroke-opacity="0.3"/>
<rect x="542.971" y="621.628" width="43.8857" height="43.8857" stroke="#00FF00" stroke-opacity="0.3"/>
<rect x="542.971" y="687.458" width="43.8857" height="43.8857" stroke="#00FF00" stroke-opacity="0.3"/>
<rect x="608.8" y="621.628" width="43.8857" height="43.8857" stroke="#00FF00" stroke-opacity="0.3"/>
<rect x="608.8" y="687.458" width="43.8857" height="43.8857" stroke="#00FF00" stroke-opacity="0.3"/>
<rect x="806.286" y="95" width="43.8857" height="43.8857" stroke="#00FF00" stroke-opacity="0.3"/>
<rect x="806.286" y="160.829" width="43.8857" height="43.8857" stroke="#00FF00" stroke-opacity="0.3"/>
<rect x="872.114" y="95" width="43.8857" height="43.8857" stroke="#00FF00" stroke-opacity="0.3"/>
<rect x="872.114" y="160.829" width="43.8857" height="43.8857" stroke="#00FF00" stroke-opacity="0.3"/>
<rect x="806.286" y="226.657" width="43.8857" height="43.8857" stroke="#00FF00" stroke-opacity="0.3"/>
<rect x="806.286" y="292.486" width="43.8857" height="43.8857" stroke="#00FF00" stroke-opacity="0.3"/>
<rect x="872.114" y="226.657" width="43.8857" height="43.8857" stroke="#00FF00" stroke-opacity="0.3"/>
<rect x="872.114" y="292.486" width="43.8857" height="43.8857" stroke="#00FF00" stroke-opacity="0.3"/>
<rect x="806.286" y="358.314" width="43.8857" height="43.8857" stroke="#00FF00" stroke-opacity="0.3"/>
<rect x="806.286" y="424.143" width="43.8857" height="43.8857" stroke="#00FF00" stroke-opacity="0.3"/>
<rect x="872.114" y="358.314" width="43.8857" height="43.8857" stroke="#00FF00" stroke-opacity="0.3"/>
<rect x="872.114" y="424.143" width="43.8857" height="43.8857" stroke="#00FF00" stroke-opacity="0.3"/>
<rect x="806.286" y="489.972" width="43.8857" height="43.8857" stroke="#00FF00" stroke-opacity="0.3"/>
<rect x="806.286" y="555.8" width="43.8857" height="43.8857" stroke="#00FF00" stroke-opacity="0.3"/>
<rect x="872.114" y="489.972" width="43.8857" height="43.8857" stroke="#00FF00" stroke-opacity="0.3"/>
<rect x="872.114" y="555.8" width="43.8857" height="43.8857" stroke="#00FF00" stroke-opacity="0.3"/>
<rect x="806.286" y="753.286" width="43.8857" height="43.8857" stroke="#00FF00" stroke-opacity="0.3"/>
<rect x="806.286" y="819.114" width="43.8857" height="43.8857" stroke="#00FF00" stroke-opacity="0.3"/>
<rect x="872.114" y="753.286" width="43.8857" height="43.8857" stroke="#00FF00" stroke-opacity="0.3"/>
<rect x="872.114" y="819.114" width="43.8857" height="43.8857" stroke="#00FF00" stroke-opacity="0.3"/>
<rect x="806.286" y="621.628" width="43.8857" height="43.8857" stroke="#00FF00" stroke-opacity="0.3"/>
<rect x="806.286" y="687.458" width="43.8857" height="43.8857" stroke="#00FF00" stroke-opacity="0.3"/>
<rect x="872.114" y="621.628" width="43.8857" height="43.8857" stroke="#00FF00" stroke-opacity="0.3"/>
<rect x="872.114" y="687.458" width="43.8857" height="43.8857" stroke="#00FF00" stroke-opacity="0.3"/>
<rect x="1003" y="95" width="43.8857" height="43.8857" stroke="#00FF00" stroke-opacity="0.3"/>
<rect x="1003" y="160.829" width="43.8857" height="43.8857" stroke="#00FF00" stroke-opacity="0.3"/>
<rect x="1068.83" y="95" width="43.8857" height="43.8857" stroke="#00FF00" stroke-opacity="0.3"/>
<rect x="1068.83" y="160.829" width="43.8857" height="43.8857" stroke="#00FF00" stroke-opacity="0.3"/>
<rect x="1003" y="226.657" width="43.8857" height="43.8857" stroke="#00FF00" stroke-opacity="0.3"/>
<rect x="1003" y="292.486" width="43.8857" height="43.8857" stroke="#00FF00" stroke-opacity="0.3"/>
<rect x="1068.83" y="226.657" width="43.8857" height="43.8857" stroke="#00FF00" stroke-opacity="0.3"/>
<rect x="1068.83" y="292.486" width="43.8857" height="43.8857" stroke="#00FF00" stroke-opacity="0.3"/>
<rect x="1003" y="358.314" width="43.8857" height="43.8857" stroke="#00FF00" stroke-opacity="0.3"/>
<rect x="1003" y="424.143" width="43.8857" height="43.8857" stroke="#00FF00" stroke-opacity="0.3"/>
<rect x="1068.83" y="358.314" width="43.8857" height="43.8857" stroke="#00FF00" stroke-opacity="0.3"/>
<rect x="1068.83" y="424.143" width="43.8857" height="43.8857" stroke="#00FF00" stroke-opacity="0.3"/>
<rect x="1003" y="489.972" width="43.8857" height="43.8857" stroke="#00FF00" stroke-opacity="0.3"/>
<rect x="1003" y="555.8" width="43.8857" height="43.8857" stroke="#00FF00" stroke-opacity="0.3"/>
<rect x="1068.83" y="489.972" width="43.8857" height="43.8857" stroke="#00FF00" stroke-opacity="0.3"/>
<rect x="1068.83" y="555.8" width="43.8857" height="43.8857" stroke="#00FF00" stroke-opacity="0.3"/>
<rect x="1003" y="753.286" width="43.8857" height="43.8857" stroke="#00FF00" stroke-opacity="0.3"/>
<rect x="1003" y="819.114" width="43.8857" height="43.8857" stroke="#00FF00" stroke-opacity="0.3"/>
<rect x="1068.83" y="753.286" width="43.8857" height="43.8857" stroke="#00FF00" stroke-opacity="0.3"/>
<rect x="1068.83" y="819.114" width="43.8857" height="43.8857" stroke="#00FF00" stroke-opacity="0.3"/>
<rect x="1003" y="621.628" width="43.8857" height="43.8857" stroke="#00FF00" stroke-opacity="0.3"/>
<rect x="1003" y="687.458" width="43.8857" height="43.8857" stroke="#00FF00" stroke-opacity="0.3"/>
<rect x="1068.83" y="621.628" width="43.8857" height="43.8857" stroke="#00FF00" stroke-opacity="0.3"/>
<rect x="1068.83" y="687.458" width="43.8857" height="43.8857" stroke="#00FF00" stroke-opacity="0.3"/>
<rect x="1266.31" y="95" width="43.8857" height="43.8857" stroke="#00FF00" stroke-opacity="0.3"/>
<rect x="1266.31" y="160.829" width="43.8857" height="43.8857" stroke="#00FF00" stroke-opacity="0.3"/>
<rect x="1332.14" y="95" width="43.8857" height="43.8857" stroke="#00FF00" stroke-opacity="0.3"/>
<rect x="1332.14" y="160.829" width="43.8857" height="43.8857" stroke="#00FF00" stroke-opacity="0.3"/>
<rect x="1266.31" y="226.657" width="43.8857" height="43.8857" stroke="#00FF00" stroke-opacity="0.3"/>
<rect x="1266.31" y="292.486" width="43.8857" height="43.8857" stroke="#00FF00" stroke-opacity="0.3"/>
<rect x="1332.14" y="226.657" width="43.8857" height="43.8857" stroke="#00FF00" stroke-opacity="0.3"/>
<rect x="1332.14" y="292.486" width="43.8857" height="43.8857" stroke="#00FF00" stroke-opacity="0.3"/>
<rect x="1266.31" y="358.314" width="43.8857" height="43.8857" stroke="#00FF00" stroke-opacity="0.3"/>
<rect x="1266.31" y="424.143" width="43.8857" height="43.8857" stroke="#00FF00" stroke-opacity="0.3"/>
<rect x="1332.14" y="358.314" width="43.8857" height="43.8857" stroke="#00FF00" stroke-opacity="0.3"/>
<rect x="1332.14" y="424.143" width="43.8857" height="43.8857" stroke="#00FF00" stroke-opacity="0.3"/>
<rect x="1266.31" y="489.972" width="43.8857" height="43.8857" stroke="#00FF00" stroke-opacity="0.3"/>
<rect x="1266.31" y="555.8" width="43.8857" height="43.8857" stroke="#00FF00" stroke-opacity="0.3"/>
<rect x="1332.14" y="489.972" width="43.8857" height="43.8857" stroke="#00FF00" stroke-opacity="0.3"/>
<rect x="1332.14" y="555.8" width="43.8857" height="43.8857" stroke="#00FF00" stroke-opacity="0.3"/>
<rect x="1266.31" y="753.286" width="43.8857" height="43.8857" stroke="#00FF00" stroke-opacity="0.3"/>
<rect x="1266.31" y="819.114" width="43.8857" height="43.8857" stroke="#00FF00" stroke-opacity="0.3"/>
<rect x="1332.14" y="753.286" width="43.8857" height="43.8857" stroke="#00FF00" stroke-opacity="0.3"/>
<rect x="1332.14" y="819.114" width="43.8857" height="43.8857" stroke="#00FF00" stroke-opacity="0.3"/>
<rect x="1266.31" y="621.628" width="43.8857" height="43.8857" stroke="#00FF00" stroke-opacity="0.3"/>
<rect x="1266.31" y="687.458" width="43.8857" height="43.8857" stroke="#00FF00" stroke-opacity="0.3"/>
<rect x="1332.14" y="621.628" width="43.8857" height="43.8857" stroke="#00FF00" stroke-opacity="0.3"/>
<rect x="1332.14" y="687.458" width="43.8857" height="43.8857" stroke="#00FF00" stroke-opacity="0.3"/>
<rect x="1529.63" y="95" width="43.8857" height="43.8857" stroke="#00FF00" stroke-opacity="0.3"/>
<rect x="1529.63" y="160.829" width="43.8857" height="43.8857" stroke="#00FF00" stroke-opacity="0.3"/>
<rect x="1595.46" y="95" width="43.8857" height="43.8857" stroke="#00FF00" stroke-opacity="0.3"/>
<rect x="1595.46" y="160.829" width="43.8857" height="43.8857" stroke="#00FF00" stroke-opacity="0.3"/>
<rect x="1529.63" y="226.657" width="43.8857" height="43.8857" stroke="#00FF00" stroke-opacity="0.3"/>
<rect x="1529.63" y="292.486" width="43.8857" height="43.8857" stroke="#00FF00" stroke-opacity="0.3"/>
<rect x="1595.46" y="226.657" width="43.8857" height="43.8857" stroke="#00FF00" stroke-opacity="0.3"/>
<rect x="1595.46" y="292.486" width="43.8857" height="43.8857" stroke="#00FF00" stroke-opacity="0.3"/>
<rect x="1529.63" y="358.314" width="43.8857" height="43.8857" stroke="#00FF00" stroke-opacity="0.3"/>
<rect x="1529.63" y="424.143" width="43.8857" height="43.8857" stroke="#00FF00" stroke-opacity="0.3"/>
<rect x="1595.46" y="358.314" width="43.8857" height="43.8857" stroke="#00FF00" stroke-opacity="0.3"/>
<rect x="1595.46" y="424.143" width="43.8857" height="43.8857" stroke="#00FF00" stroke-opacity="0.3"/>
<rect x="1529.63" y="489.972" width="43.8857" height="43.8857" stroke="#00FF00" stroke-opacity="0.3"/>
<rect x="1529.63" y="555.8" width="43.8857" height="43.8857" stroke="#00FF00" stroke-opacity="0.3"/>
<rect x="1595.46" y="489.972" width="43.8857" height="43.8857" stroke="#00FF00" stroke-opacity="0.3"/>
<rect x="1595.46" y="555.8" width="43.8857" height="43.8857" stroke="#00FF00" stroke-opacity="0.3"/>
<rect x="1529.63" y="753.286" width="43.8857" height="43.8857" stroke="#00FF00" stroke-opacity="0.3"/>
<rect x="1529.63" y="819.114" width="43.8857" height="43.8857" stroke="#00FF00" stroke-opacity="0.3"/>
<rect x="1595.46" y="753.286" width="43.8857" height="43.8857" stroke="#00FF00" stroke-opacity="0.3"/>
<rect x="1595.46" y="819.114" width="43.8857" height="43.8857" stroke="#00FF00" stroke-opacity="0.3"/>
<rect x="1529.63" y="621.628" width="43.8857" height="43.8857" stroke="#00FF00" stroke-opacity="0.3"/>
<rect x="1529.63" y="687.458" width="43.8857" height="43.8857" stroke="#00FF00" stroke-opacity="0.3"/>
<rect x="1595.46" y="621.628" width="43.8857" height="43.8857" stroke="#00FF00" stroke-opacity="0.3"/>
<rect x="1595.46" y="687.458" width="43.8857" height="43.8857" stroke="#00FF00" stroke-opacity="0.3"/>
<rect x="1134.66" y="95" width="43.8857" height="43.8857" stroke="#00FF00" stroke-opacity="0.3"/>
<rect x="1134.66" y="160.829" width="43.8857" height="43.8857" stroke="#00FF00" stroke-opacity="0.3"/>
<rect x="1200.49" y="95" width="43.8857" height="43.8857" stroke="#00FF00" stroke-opacity="0.3"/>
<rect x="1200.49" y="160.829" width="43.8857" height="43.8857" stroke="#00FF00" stroke-opacity="0.3"/>
<rect x="1134.66" y="226.657" width="43.8857" height="43.8857" stroke="#00FF00" stroke-opacity="0.3"/>
<rect x="1134.66" y="292.486" width="43.8857" height="43.8857" stroke="#00FF00" stroke-opacity="0.3"/>
<rect x="1200.49" y="226.657" width="43.8857" height="43.8857" stroke="#00FF00" stroke-opacity="0.3"/>
<rect x="1200.49" y="292.486" width="43.8857" height="43.8857" stroke="#00FF00" stroke-opacity="0.3"/>
<rect x="1134.66" y="358.314" width="43.8857" height="43.8857" stroke="#00FF00" stroke-opacity="0.3"/>
<rect x="1134.66" y="424.143" width="43.8857" height="43.8857" stroke="#00FF00" stroke-opacity="0.3"/>
<rect x="1200.49" y="358.314" width="43.8857" height="43.8857" stroke="#00FF00" stroke-opacity="0.3"/>
<rect x="1200.49" y="424.143" width="43.8857" height="43.8857" stroke="#00FF00" stroke-opacity="0.3"/>
<rect x="1134.66" y="489.972" width="43.8857" height="43.8857" stroke="#00FF00" stroke-opacity="0.3"/>
<rect x="1134.66" y="555.8" width="43.8857" height="43.8857" stroke="#00FF00" stroke-opacity="0.3"/>
<rect x="1200.49" y="489.972" width="43.8857" height="43.8857" stroke="#00FF00" stroke-opacity="0.3"/>
<rect x="1200.49" y="555.8" width="43.8857" height="43.8857" stroke="#00FF00" stroke-opacity="0.3"/>
<rect x="1134.66" y="753.286" width="43.8857" height="43.8857" stroke="#00FF00" stroke-opacity="0.3"/>
<rect x="1134.66" y="819.114" width="43.8857" height="43.8857" stroke="#00FF00" stroke-opacity="0.3"/>
<rect x="1200.49" y="753.286" width="43.8857" height="43.8857" stroke="#00FF00" stroke-opacity="0.3"/>
<rect x="1200.49" y="819.114" width="43.8857" height="43.8857" stroke="#00FF00" stroke-opacity="0.3"/>
<rect x="1134.66" y="621.628" width="43.8857" height="43.8857" stroke="#00FF00" stroke-opacity="0.3"/>
<rect x="1134.66" y="687.458" width="43.8857" height="43.8857" stroke="#00FF00" stroke-opacity="0.3"/>
<rect x="1200.49" y="621.628" width="43.8857" height="43.8857" stroke="#00FF00" stroke-opacity="0.3"/>
<rect x="1200.49" y="687.458" width="43.8857" height="43.8857" stroke="#00FF00" stroke-opacity="0.3"/>
<rect x="1397.97" y="95" width="43.8857" height="43.8857" stroke="#00FF00" stroke-opacity="0.3"/>
<rect x="1397.97" y="160.829" width="43.8857" height="43.8857" stroke="#00FF00" stroke-opacity="0.3"/>
<rect x="1463.8" y="95" width="43.8857" height="43.8857" stroke="#00FF00" stroke-opacity="0.3"/>
<rect x="1463.8" y="160.829" width="43.8857" height="43.8857" stroke="#00FF00" stroke-opacity="0.3"/>
<rect x="1397.97" y="226.657" width="43.8857" height="43.8857" stroke="#00FF00" stroke-opacity="0.3"/>
<rect x="1397.97" y="292.486" width="43.8857" height="43.8857" stroke="#00FF00" stroke-opacity="0.3"/>
<rect x="1463.8" y="226.657" width="43.8857" height="43.8857" stroke="#00FF00" stroke-opacity="0.3"/>
<rect x="1463.8" y="292.486" width="43.8857" height="43.8857" stroke="#00FF00" stroke-opacity="0.3"/>
<rect x="1397.97" y="358.314" width="43.8857" height="43.8857" stroke="#00FF00" stroke-opacity="0.3"/>
<rect x="1397.97" y="424.143" width="43.8857" height="43.8857" stroke="#00FF00" stroke-opacity="0.3"/>
<rect x="1463.8" y="358.314" width="43.8857" height="43.8857" stroke="#00FF00" stroke-opacity="0.3"/>
<rect x="1463.8" y="424.143" width="43.8857" height="43.8857" stroke="#00FF00" stroke-opacity="0.3"/>
<rect x="1397.97" y="489.972" width="43.8857" height="43.8857" stroke="#00FF00" stroke-opacity="0.3"/>
<rect x="1397.97" y="555.8" width="43.8857" height="43.8857" stroke="#00FF00" stroke-opacity="0.3"/>
<rect x="1463.8" y="489.972" width="43.8857" height="43.8857" stroke="#00FF00" stroke-opacity="0.3"/>
<rect x="1463.8" y="555.8" width="43.8857" height="43.8857" stroke="#00FF00" stroke-opacity="0.3"/>
<rect x="1397.97" y="753.286" width="43.8857" height="43.8857" stroke="#00FF00" stroke-opacity="0.3"/>
<rect x="1397.97" y="819.114" width="43.8857" height="43.8857" stroke="#00FF00" stroke-opacity="0.3"/>
<rect x="1463.8" y="753.286" width="43.8857" height="43.8857" stroke="#00FF00" stroke-opacity="0.3"/>
<rect x="1463.8" y="819.114" width="43.8857" height="43.8857" stroke="#00FF00" stroke-opacity="0.3"/>
<rect x="1397.97" y="621.628" width="43.8857" height="43.8857" stroke="#00FF00" stroke-opacity="0.3"/>
<rect x="1397.97" y="687.458" width="43.8857" height="43.8857" stroke="#00FF00" stroke-opacity="0.3"/>
<rect x="1463.8" y="621.628" width="43.8857" height="43.8857" stroke="#00FF00" stroke-opacity="0.3"/>
<rect x="1463.8" y="687.458" width="43.8857" height="43.8857" stroke="#00FF00" stroke-opacity="0.3"/>
<rect x="1661.29" y="95" width="43.8857" height="43.8857" stroke="#00FF00" stroke-opacity="0.3"/>
<rect x="1661.29" y="160.829" width="43.8857" height="43.8857" stroke="#00FF00" stroke-opacity="0.3"/>
<rect x="1727.11" y="95" width="43.8857" height="43.8857" stroke="#00FF00" stroke-opacity="0.3"/>
<rect x="1727.11" y="160.829" width="43.8857" height="43.8857" stroke="#00FF00" stroke-opacity="0.3"/>
<rect x="1661.29" y="226.657" width="43.8857" height="43.8857" stroke="#00FF00" stroke-opacity="0.3"/>
<rect x="1661.29" y="292.486" width="43.8857" height="43.8857" stroke="#00FF00" stroke-opacity="0.3"/>
<rect x="1727.11" y="226.657" width="43.8857" height="43.8857" stroke="#00FF00" stroke-opacity="0.3"/>
<rect x="1727.11" y="292.486" width="43.8857" height="43.8857" stroke="#00FF00" stroke-opacity="0.3"/>
<rect x="1661.29" y="358.314" width="43.8857" height="43.8857" stroke="#00FF00" stroke-opacity="0.3"/>
<rect x="1661.29" y="424.143" width="43.8857" height="43.8857" stroke="#00FF00" stroke-opacity="0.3"/>
<rect x="1727.11" y="358.314" width="43.8857" height="43.8857" stroke="#00FF00" stroke-opacity="0.3"/>
<rect x="1727.11" y="424.143" width="43.8857" height="43.8857" stroke="#00FF00" stroke-opacity="0.3"/>
<rect x="1661.29" y="489.972" width="43.8857" height="43.8857" stroke="#00FF00" stroke-opacity="0.3"/>
<rect x="1661.29" y="555.8" width="43.8857" height="43.8857" stroke="#00FF00" stroke-opacity="0.3"/>
<rect x="1727.11" y="489.972" width="43.8857" height="43.8857" stroke="#00FF00" stroke-opacity="0.3"/>
<rect x="1727.11" y="555.8" width="43.8857" height="43.8857" stroke="#00FF00" stroke-opacity="0.3"/>
<rect x="1661.29" y="753.286" width="43.8857" height="43.8857" stroke="#00FF00" stroke-opacity="0.3"/>
<rect x="1661.29" y="819.114" width="43.8857" height="43.8857" stroke="#00FF00" stroke-opacity="0.3"/>
<rect x="1727.11" y="753.286" width="43.8857" height="43.8857" stroke="#00FF00" stroke-opacity="0.3"/>
<rect x="1727.11" y="819.114" width="43.8857" height="43.8857" stroke="#00FF00" stroke-opacity="0.3"/>
<rect x="1661.29" y="621.628" width="43.8857" height="43.8857" stroke="#00FF00" stroke-opacity="0.3"/>
<rect x="1661.29" y="687.458" width="43.8857" height="43.8857" stroke="#00FF00" stroke-opacity="0.3"/>
<rect x="1727.11" y="621.628" width="43.8857" height="43.8857" stroke="#00FF00" stroke-opacity="0.3"/>
<rect x="1727.11" y="687.458" width="43.8857" height="43.8857" stroke="#00FF00" stroke-opacity="0.3"/>
</svg>
