<svg width="1625" height="770" viewBox="0 0 1625 770" fill="none" xmlns="http://www.w3.org/2000/svg">
<rect x="1" y="1" width="43.8857" height="43.8857" stroke="#00FF00" stroke-opacity="0.5"/>
<rect x="1" y="66.8287" width="43.8857" height="43.8857" stroke="#00FF00" stroke-opacity="0.5"/>
<rect x="66.8281" y="1" width="43.8857" height="43.8857" stroke="#00FF00" stroke-opacity="0.5"/>
<rect x="66.8281" y="66.8287" width="43.8857" height="43.8857" stroke="#00FF00" stroke-opacity="0.5"/>
<rect x="1" y="132.657" width="43.8857" height="43.8857" stroke="#00FF00" stroke-opacity="0.5"/>
<rect x="1" y="198.486" width="43.8857" height="43.8857" stroke="#00FF00" stroke-opacity="0.5"/>
<rect x="66.8281" y="132.657" width="43.8857" height="43.8857" stroke="#00FF00" stroke-opacity="0.5"/>
<rect x="66.8281" y="198.486" width="43.8857" height="43.8857" stroke="#00FF00" stroke-opacity="0.5"/>
<rect x="1" y="264.314" width="43.8857" height="43.8857" stroke="#00FF00" stroke-opacity="0.5"/>
<rect x="1" y="330.143" width="43.8857" height="43.8857" stroke="#00FF00" stroke-opacity="0.5"/>
<rect x="66.8281" y="264.314" width="43.8857" height="43.8857" stroke="#00FF00" stroke-opacity="0.5"/>
<rect x="66.8281" y="330.143" width="43.8857" height="43.8857" stroke="#00FF00" stroke-opacity="0.5"/>
<rect x="1" y="395.972" width="43.8857" height="43.8857" stroke="#00FF00" stroke-opacity="0.5"/>
<rect x="1" y="461.8" width="43.8857" height="43.8857" stroke="#00FF00" stroke-opacity="0.5"/>
<rect x="66.8281" y="395.972" width="43.8857" height="43.8857" stroke="#00FF00" stroke-opacity="0.5"/>
<rect x="66.8281" y="461.8" width="43.8857" height="43.8857" stroke="#00FF00" stroke-opacity="0.5"/>
<rect x="1" y="659.286" width="43.8857" height="43.8857" stroke="#00FF00" stroke-opacity="0.5"/>
<rect x="1" y="725.114" width="43.8857" height="43.8857" stroke="#00FF00" stroke-opacity="0.5"/>
<rect x="66.8281" y="659.286" width="43.8857" height="43.8857" stroke="#00FF00" stroke-opacity="0.5"/>
<rect x="66.8281" y="725.114" width="43.8857" height="43.8857" stroke="#00FF00" stroke-opacity="0.5"/>
<rect x="1" y="527.629" width="43.8857" height="43.8857" stroke="#00FF00" stroke-opacity="0.5"/>
<rect x="1" y="593.457" width="43.8857" height="43.8857" stroke="#00FF00" stroke-opacity="0.5"/>
<rect x="66.8281" y="527.629" width="43.8857" height="43.8857" stroke="#00FF00" stroke-opacity="0.5"/>
<rect x="66.8281" y="593.457" width="43.8857" height="43.8857" stroke="#00FF00" stroke-opacity="0.5"/>
<rect x="264.312" y="1" width="43.8857" height="43.8857" stroke="#00FF00" stroke-opacity="0.5"/>
<rect x="264.312" y="66.8287" width="43.8857" height="43.8857" stroke="#00FF00" stroke-opacity="0.5"/>
<rect x="330.145" y="1" width="43.8857" height="43.8857" stroke="#00FF00" stroke-opacity="0.5"/>
<rect x="330.145" y="66.8287" width="43.8857" height="43.8857" stroke="#00FF00" stroke-opacity="0.5"/>
<rect x="264.312" y="132.657" width="43.8857" height="43.8857" stroke="#00FF00" stroke-opacity="0.5"/>
<rect x="264.312" y="198.486" width="43.8857" height="43.8857" stroke="#00FF00" stroke-opacity="0.5"/>
<rect x="330.145" y="132.657" width="43.8857" height="43.8857" stroke="#00FF00" stroke-opacity="0.5"/>
<rect x="330.145" y="198.486" width="43.8857" height="43.8857" stroke="#00FF00" stroke-opacity="0.5"/>
<rect x="264.312" y="264.314" width="43.8857" height="43.8857" stroke="#00FF00" stroke-opacity="0.5"/>
<rect x="264.312" y="330.143" width="43.8857" height="43.8857" stroke="#00FF00" stroke-opacity="0.5"/>
<rect x="330.145" y="264.314" width="43.8857" height="43.8857" stroke="#00FF00" stroke-opacity="0.5"/>
<rect x="330.145" y="330.143" width="43.8857" height="43.8857" stroke="#00FF00" stroke-opacity="0.5"/>
<rect x="264.312" y="395.972" width="43.8857" height="43.8857" stroke="#00FF00" stroke-opacity="0.5"/>
<rect x="264.312" y="461.8" width="43.8857" height="43.8857" stroke="#00FF00" stroke-opacity="0.5"/>
<rect x="330.145" y="395.972" width="43.8857" height="43.8857" stroke="#00FF00" stroke-opacity="0.5"/>
<rect x="330.145" y="461.8" width="43.8857" height="43.8857" stroke="#00FF00" stroke-opacity="0.5"/>
<rect x="264.312" y="659.286" width="43.8857" height="43.8857" stroke="#00FF00" stroke-opacity="0.5"/>
<rect x="264.312" y="725.114" width="43.8857" height="43.8857" stroke="#00FF00" stroke-opacity="0.5"/>
<rect x="330.145" y="659.286" width="43.8857" height="43.8857" stroke="#00FF00" stroke-opacity="0.5"/>
<rect x="330.145" y="725.114" width="43.8857" height="43.8857" stroke="#00FF00" stroke-opacity="0.5"/>
<rect x="264.312" y="527.629" width="43.8857" height="43.8857" stroke="#00FF00" stroke-opacity="0.5"/>
<rect x="264.312" y="593.457" width="43.8857" height="43.8857" stroke="#00FF00" stroke-opacity="0.5"/>
<rect x="330.145" y="527.629" width="43.8857" height="43.8857" stroke="#00FF00" stroke-opacity="0.5"/>
<rect x="330.145" y="593.457" width="43.8857" height="43.8857" stroke="#00FF00" stroke-opacity="0.5"/>
<rect x="527.629" y="1" width="43.8857" height="43.8857" stroke="#00FF00" stroke-opacity="0.5"/>
<rect x="527.629" y="66.8287" width="43.8857" height="43.8857" stroke="#00FF00" stroke-opacity="0.5"/>
<rect x="593.457" y="1" width="43.8857" height="43.8857" stroke="#00FF00" stroke-opacity="0.5"/>
<rect x="593.457" y="66.8287" width="43.8857" height="43.8857" stroke="#00FF00" stroke-opacity="0.5"/>
<rect x="527.629" y="132.657" width="43.8857" height="43.8857" stroke="#00FF00" stroke-opacity="0.5"/>
<rect x="527.629" y="198.486" width="43.8857" height="43.8857" stroke="#00FF00" stroke-opacity="0.5"/>
<rect x="593.457" y="132.657" width="43.8857" height="43.8857" stroke="#00FF00" stroke-opacity="0.5"/>
<rect x="593.457" y="198.486" width="43.8857" height="43.8857" stroke="#00FF00" stroke-opacity="0.5"/>
<rect x="527.629" y="264.314" width="43.8857" height="43.8857" stroke="#00FF00" stroke-opacity="0.5"/>
<rect x="527.629" y="330.143" width="43.8857" height="43.8857" stroke="#00FF00" stroke-opacity="0.5"/>
<rect x="593.457" y="264.314" width="43.8857" height="43.8857" stroke="#00FF00" stroke-opacity="0.5"/>
<rect x="593.457" y="330.143" width="43.8857" height="43.8857" stroke="#00FF00" stroke-opacity="0.5"/>
<rect x="527.629" y="395.972" width="43.8857" height="43.8857" stroke="#00FF00" stroke-opacity="0.5"/>
<rect x="527.629" y="461.8" width="43.8857" height="43.8857" stroke="#00FF00" stroke-opacity="0.5"/>
<rect x="593.457" y="395.972" width="43.8857" height="43.8857" stroke="#00FF00" stroke-opacity="0.5"/>
<rect x="593.457" y="461.8" width="43.8857" height="43.8857" stroke="#00FF00" stroke-opacity="0.5"/>
<rect x="527.629" y="659.286" width="43.8857" height="43.8857" stroke="#00FF00" stroke-opacity="0.5"/>
<rect x="527.629" y="725.114" width="43.8857" height="43.8857" stroke="#00FF00" stroke-opacity="0.5"/>
<rect x="593.457" y="659.286" width="43.8857" height="43.8857" stroke="#00FF00" stroke-opacity="0.5"/>
<rect x="593.457" y="725.114" width="43.8857" height="43.8857" stroke="#00FF00" stroke-opacity="0.5"/>
<rect x="527.629" y="527.629" width="43.8857" height="43.8857" stroke="#00FF00" stroke-opacity="0.5"/>
<rect x="527.629" y="593.457" width="43.8857" height="43.8857" stroke="#00FF00" stroke-opacity="0.5"/>
<rect x="593.457" y="527.629" width="43.8857" height="43.8857" stroke="#00FF00" stroke-opacity="0.5"/>
<rect x="593.457" y="593.457" width="43.8857" height="43.8857" stroke="#00FF00" stroke-opacity="0.5"/>
<rect x="132.656" y="1" width="43.8857" height="43.8857" stroke="#00FF00" stroke-opacity="0.5"/>
<rect x="132.656" y="66.8287" width="43.8857" height="43.8857" stroke="#00FF00" stroke-opacity="0.5"/>
<rect x="198.484" y="1" width="43.8857" height="43.8857" stroke="#00FF00" stroke-opacity="0.5"/>
<rect x="198.484" y="66.8287" width="43.8857" height="43.8857" stroke="#00FF00" stroke-opacity="0.5"/>
<rect x="132.656" y="132.657" width="43.8857" height="43.8857" stroke="#00FF00" stroke-opacity="0.5"/>
<rect x="132.656" y="198.486" width="43.8857" height="43.8857" stroke="#00FF00" stroke-opacity="0.5"/>
<rect x="198.484" y="132.657" width="43.8857" height="43.8857" stroke="#00FF00" stroke-opacity="0.5"/>
<rect x="198.484" y="198.486" width="43.8857" height="43.8857" stroke="#00FF00" stroke-opacity="0.5"/>
<rect x="132.656" y="264.314" width="43.8857" height="43.8857" stroke="#00FF00" stroke-opacity="0.5"/>
<rect x="132.656" y="330.143" width="43.8857" height="43.8857" stroke="#00FF00" stroke-opacity="0.5"/>
<rect x="198.484" y="264.314" width="43.8857" height="43.8857" stroke="#00FF00" stroke-opacity="0.5"/>
<rect x="198.484" y="330.143" width="43.8857" height="43.8857" stroke="#00FF00" stroke-opacity="0.5"/>
<rect x="132.656" y="395.972" width="43.8857" height="43.8857" stroke="#00FF00" stroke-opacity="0.5"/>
<rect x="132.656" y="461.8" width="43.8857" height="43.8857" stroke="#00FF00" stroke-opacity="0.5"/>
<rect x="198.484" y="395.972" width="43.8857" height="43.8857" stroke="#00FF00" stroke-opacity="0.5"/>
<rect x="198.484" y="461.8" width="43.8857" height="43.8857" stroke="#00FF00" stroke-opacity="0.5"/>
<rect x="132.656" y="659.286" width="43.8857" height="43.8857" stroke="#00FF00" stroke-opacity="0.5"/>
<rect x="132.656" y="725.114" width="43.8857" height="43.8857" stroke="#00FF00" stroke-opacity="0.5"/>
<rect x="198.484" y="659.286" width="43.8857" height="43.8857" stroke="#00FF00" stroke-opacity="0.5"/>
<rect x="198.484" y="725.114" width="43.8857" height="43.8857" stroke="#00FF00" stroke-opacity="0.5"/>
<rect x="132.656" y="527.629" width="43.8857" height="43.8857" stroke="#00FF00" stroke-opacity="0.5"/>
<rect x="132.656" y="593.457" width="43.8857" height="43.8857" stroke="#00FF00" stroke-opacity="0.5"/>
<rect x="198.484" y="527.629" width="43.8857" height="43.8857" stroke="#00FF00" stroke-opacity="0.5"/>
<rect x="198.484" y="593.457" width="43.8857" height="43.8857" stroke="#00FF00" stroke-opacity="0.5"/>
<rect x="395.973" y="1" width="43.8857" height="43.8857" stroke="#00FF00" stroke-opacity="0.5"/>
<rect x="395.973" y="66.8287" width="43.8857" height="43.8857" stroke="#00FF00" stroke-opacity="0.5"/>
<rect x="461.801" y="1" width="43.8857" height="43.8857" stroke="#00FF00" stroke-opacity="0.5"/>
<rect x="461.801" y="66.8287" width="43.8857" height="43.8857" stroke="#00FF00" stroke-opacity="0.5"/>
<rect x="395.973" y="132.657" width="43.8857" height="43.8857" stroke="#00FF00" stroke-opacity="0.5"/>
<rect x="395.973" y="198.486" width="43.8857" height="43.8857" stroke="#00FF00" stroke-opacity="0.5"/>
<rect x="461.801" y="132.657" width="43.8857" height="43.8857" stroke="#00FF00" stroke-opacity="0.5"/>
<rect x="461.801" y="198.486" width="43.8857" height="43.8857" stroke="#00FF00" stroke-opacity="0.5"/>
<rect x="395.973" y="264.314" width="43.8857" height="43.8857" stroke="#00FF00" stroke-opacity="0.5"/>
<rect x="395.973" y="330.143" width="43.8857" height="43.8857" stroke="#00FF00" stroke-opacity="0.5"/>
<rect x="461.801" y="264.314" width="43.8857" height="43.8857" stroke="#00FF00" stroke-opacity="0.5"/>
<rect x="461.801" y="330.143" width="43.8857" height="43.8857" stroke="#00FF00" stroke-opacity="0.5"/>
<rect x="395.973" y="395.972" width="43.8857" height="43.8857" stroke="#00FF00" stroke-opacity="0.5"/>
<rect x="395.973" y="461.8" width="43.8857" height="43.8857" stroke="#00FF00" stroke-opacity="0.5"/>
<rect x="461.801" y="395.972" width="43.8857" height="43.8857" stroke="#00FF00" stroke-opacity="0.5"/>
<rect x="461.801" y="461.8" width="43.8857" height="43.8857" stroke="#00FF00" stroke-opacity="0.5"/>
<rect x="395.973" y="659.286" width="43.8857" height="43.8857" stroke="#00FF00" stroke-opacity="0.5"/>
<rect x="395.973" y="725.114" width="43.8857" height="43.8857" stroke="#00FF00" stroke-opacity="0.5"/>
<rect x="461.801" y="659.286" width="43.8857" height="43.8857" stroke="#00FF00" stroke-opacity="0.5"/>
<rect x="461.801" y="725.114" width="43.8857" height="43.8857" stroke="#00FF00" stroke-opacity="0.5"/>
<rect x="395.973" y="527.629" width="43.8857" height="43.8857" stroke="#00FF00" stroke-opacity="0.5"/>
<rect x="395.973" y="593.457" width="43.8857" height="43.8857" stroke="#00FF00" stroke-opacity="0.5"/>
<rect x="461.801" y="527.629" width="43.8857" height="43.8857" stroke="#00FF00" stroke-opacity="0.5"/>
<rect x="461.801" y="593.457" width="43.8857" height="43.8857" stroke="#00FF00" stroke-opacity="0.5"/>
<rect x="659.285" y="1" width="43.8857" height="43.8857" stroke="#00FF00" stroke-opacity="0.5"/>
<rect x="659.285" y="66.8287" width="43.8857" height="43.8857" stroke="#00FF00" stroke-opacity="0.5"/>
<rect x="725.113" y="1" width="43.8857" height="43.8857" stroke="#00FF00" stroke-opacity="0.5"/>
<rect x="725.113" y="66.8287" width="43.8857" height="43.8857" stroke="#00FF00" stroke-opacity="0.5"/>
<rect x="659.285" y="132.657" width="43.8857" height="43.8857" stroke="#00FF00" stroke-opacity="0.5"/>
<rect x="659.285" y="198.486" width="43.8857" height="43.8857" stroke="#00FF00" stroke-opacity="0.5"/>
<rect x="725.113" y="132.657" width="43.8857" height="43.8857" stroke="#00FF00" stroke-opacity="0.5"/>
<rect x="725.113" y="198.486" width="43.8857" height="43.8857" stroke="#00FF00" stroke-opacity="0.5"/>
<rect x="659.285" y="264.314" width="43.8857" height="43.8857" stroke="#00FF00" stroke-opacity="0.5"/>
<rect x="659.285" y="330.143" width="43.8857" height="43.8857" stroke="#00FF00" stroke-opacity="0.5"/>
<rect x="725.113" y="264.314" width="43.8857" height="43.8857" stroke="#00FF00" stroke-opacity="0.5"/>
<rect x="725.113" y="330.143" width="43.8857" height="43.8857" stroke="#00FF00" stroke-opacity="0.5"/>
<rect x="659.285" y="395.972" width="43.8857" height="43.8857" stroke="#00FF00" stroke-opacity="0.5"/>
<rect x="659.285" y="461.8" width="43.8857" height="43.8857" stroke="#00FF00" stroke-opacity="0.5"/>
<rect x="725.113" y="395.972" width="43.8857" height="43.8857" stroke="#00FF00" stroke-opacity="0.5"/>
<rect x="725.113" y="461.8" width="43.8857" height="43.8857" stroke="#00FF00" stroke-opacity="0.5"/>
<rect x="659.285" y="659.286" width="43.8857" height="43.8857" stroke="#00FF00" stroke-opacity="0.5"/>
<rect x="659.285" y="725.114" width="43.8857" height="43.8857" stroke="#00FF00" stroke-opacity="0.5"/>
<rect x="725.113" y="659.286" width="43.8857" height="43.8857" stroke="#00FF00" stroke-opacity="0.5"/>
<rect x="725.113" y="725.114" width="43.8857" height="43.8857" stroke="#00FF00" stroke-opacity="0.5"/>
<rect x="659.285" y="527.629" width="43.8857" height="43.8857" stroke="#00FF00" stroke-opacity="0.5"/>
<rect x="659.285" y="593.457" width="43.8857" height="43.8857" stroke="#00FF00" stroke-opacity="0.5"/>
<rect x="725.113" y="527.629" width="43.8857" height="43.8857" stroke="#00FF00" stroke-opacity="0.5"/>
<rect x="725.113" y="593.457" width="43.8857" height="43.8857" stroke="#00FF00" stroke-opacity="0.5"/>
<rect x="856" y="1" width="43.8857" height="43.8857" stroke="#00FF00" stroke-opacity="0.5"/>
<rect x="856" y="66.8287" width="43.8857" height="43.8857" stroke="#00FF00" stroke-opacity="0.5"/>
<rect x="921.828" y="1" width="43.8857" height="43.8857" stroke="#00FF00" stroke-opacity="0.5"/>
<rect x="921.828" y="66.8287" width="43.8857" height="43.8857" stroke="#00FF00" stroke-opacity="0.5"/>
<rect x="856" y="132.657" width="43.8857" height="43.8857" stroke="#00FF00" stroke-opacity="0.5"/>
<rect x="856" y="198.486" width="43.8857" height="43.8857" stroke="#00FF00" stroke-opacity="0.5"/>
<rect x="921.828" y="132.657" width="43.8857" height="43.8857" stroke="#00FF00" stroke-opacity="0.5"/>
<rect x="921.828" y="198.486" width="43.8857" height="43.8857" stroke="#00FF00" stroke-opacity="0.5"/>
<rect x="856" y="264.314" width="43.8857" height="43.8857" stroke="#00FF00" stroke-opacity="0.5"/>
<rect x="856" y="330.143" width="43.8857" height="43.8857" stroke="#00FF00" stroke-opacity="0.5"/>
<rect x="921.828" y="264.314" width="43.8857" height="43.8857" stroke="#00FF00" stroke-opacity="0.5"/>
<rect x="921.828" y="330.143" width="43.8857" height="43.8857" stroke="#00FF00" stroke-opacity="0.5"/>
<rect x="856" y="395.972" width="43.8857" height="43.8857" stroke="#00FF00" stroke-opacity="0.5"/>
<rect x="856" y="461.8" width="43.8857" height="43.8857" stroke="#00FF00" stroke-opacity="0.5"/>
<rect x="921.828" y="395.972" width="43.8857" height="43.8857" stroke="#00FF00" stroke-opacity="0.5"/>
<rect x="921.828" y="461.8" width="43.8857" height="43.8857" stroke="#00FF00" stroke-opacity="0.5"/>
<rect x="856" y="659.286" width="43.8857" height="43.8857" stroke="#00FF00" stroke-opacity="0.5"/>
<rect x="856" y="725.114" width="43.8857" height="43.8857" stroke="#00FF00" stroke-opacity="0.5"/>
<rect x="921.828" y="659.286" width="43.8857" height="43.8857" stroke="#00FF00" stroke-opacity="0.5"/>
<rect x="921.828" y="725.114" width="43.8857" height="43.8857" stroke="#00FF00" stroke-opacity="0.5"/>
<rect x="856" y="527.629" width="43.8857" height="43.8857" stroke="#00FF00" stroke-opacity="0.5"/>
<rect x="856" y="593.457" width="43.8857" height="43.8857" stroke="#00FF00" stroke-opacity="0.5"/>
<rect x="921.828" y="527.629" width="43.8857" height="43.8857" stroke="#00FF00" stroke-opacity="0.5"/>
<rect x="921.828" y="593.457" width="43.8857" height="43.8857" stroke="#00FF00" stroke-opacity="0.5"/>
<rect x="1119.31" y="1" width="43.8857" height="43.8857" stroke="#00FF00" stroke-opacity="0.5"/>
<rect x="1119.31" y="66.8287" width="43.8857" height="43.8857" stroke="#00FF00" stroke-opacity="0.5"/>
<rect x="1185.14" y="1" width="43.8857" height="43.8857" stroke="#00FF00" stroke-opacity="0.5"/>
<rect x="1185.14" y="66.8287" width="43.8857" height="43.8857" stroke="#00FF00" stroke-opacity="0.5"/>
<rect x="1119.31" y="132.657" width="43.8857" height="43.8857" stroke="#00FF00" stroke-opacity="0.5"/>
<rect x="1119.31" y="198.486" width="43.8857" height="43.8857" stroke="#00FF00" stroke-opacity="0.5"/>
<rect x="1185.14" y="132.657" width="43.8857" height="43.8857" stroke="#00FF00" stroke-opacity="0.5"/>
<rect x="1185.14" y="198.486" width="43.8857" height="43.8857" stroke="#00FF00" stroke-opacity="0.5"/>
<rect x="1119.31" y="264.314" width="43.8857" height="43.8857" stroke="#00FF00" stroke-opacity="0.5"/>
<rect x="1119.31" y="330.143" width="43.8857" height="43.8857" stroke="#00FF00" stroke-opacity="0.5"/>
<rect x="1185.14" y="264.314" width="43.8857" height="43.8857" stroke="#00FF00" stroke-opacity="0.5"/>
<rect x="1185.14" y="330.143" width="43.8857" height="43.8857" stroke="#00FF00" stroke-opacity="0.5"/>
<rect x="1119.31" y="395.972" width="43.8857" height="43.8857" stroke="#00FF00" stroke-opacity="0.5"/>
<rect x="1119.31" y="461.8" width="43.8857" height="43.8857" stroke="#00FF00" stroke-opacity="0.5"/>
<rect x="1185.14" y="395.972" width="43.8857" height="43.8857" stroke="#00FF00" stroke-opacity="0.5"/>
<rect x="1185.14" y="461.8" width="43.8857" height="43.8857" stroke="#00FF00" stroke-opacity="0.5"/>
<rect x="1119.31" y="659.286" width="43.8857" height="43.8857" stroke="#00FF00" stroke-opacity="0.5"/>
<rect x="1119.31" y="725.114" width="43.8857" height="43.8857" stroke="#00FF00" stroke-opacity="0.5"/>
<rect x="1185.14" y="659.286" width="43.8857" height="43.8857" stroke="#00FF00" stroke-opacity="0.5"/>
<rect x="1185.14" y="725.114" width="43.8857" height="43.8857" stroke="#00FF00" stroke-opacity="0.5"/>
<rect x="1119.31" y="527.629" width="43.8857" height="43.8857" stroke="#00FF00" stroke-opacity="0.5"/>
<rect x="1119.31" y="593.457" width="43.8857" height="43.8857" stroke="#00FF00" stroke-opacity="0.5"/>
<rect x="1185.14" y="527.629" width="43.8857" height="43.8857" stroke="#00FF00" stroke-opacity="0.5"/>
<rect x="1185.14" y="593.457" width="43.8857" height="43.8857" stroke="#00FF00" stroke-opacity="0.5"/>
<rect x="1382.63" y="1" width="43.8857" height="43.8857" stroke="#00FF00" stroke-opacity="0.5"/>
<rect x="1382.63" y="66.8287" width="43.8857" height="43.8857" stroke="#00FF00" stroke-opacity="0.5"/>
<rect x="1448.46" y="1" width="43.8857" height="43.8857" stroke="#00FF00" stroke-opacity="0.5"/>
<rect x="1448.46" y="66.8287" width="43.8857" height="43.8857" stroke="#00FF00" stroke-opacity="0.5"/>
<rect x="1382.63" y="132.657" width="43.8857" height="43.8857" stroke="#00FF00" stroke-opacity="0.5"/>
<rect x="1382.63" y="198.486" width="43.8857" height="43.8857" stroke="#00FF00" stroke-opacity="0.5"/>
<rect x="1448.46" y="132.657" width="43.8857" height="43.8857" stroke="#00FF00" stroke-opacity="0.5"/>
<rect x="1448.46" y="198.486" width="43.8857" height="43.8857" stroke="#00FF00" stroke-opacity="0.5"/>
<rect x="1382.63" y="264.314" width="43.8857" height="43.8857" stroke="#00FF00" stroke-opacity="0.5"/>
<rect x="1382.63" y="330.143" width="43.8857" height="43.8857" stroke="#00FF00" stroke-opacity="0.5"/>
<rect x="1448.46" y="264.314" width="43.8857" height="43.8857" stroke="#00FF00" stroke-opacity="0.5"/>
<rect x="1448.46" y="330.143" width="43.8857" height="43.8857" stroke="#00FF00" stroke-opacity="0.5"/>
<rect x="1382.63" y="395.972" width="43.8857" height="43.8857" stroke="#00FF00" stroke-opacity="0.5"/>
<rect x="1382.63" y="461.8" width="43.8857" height="43.8857" stroke="#00FF00" stroke-opacity="0.5"/>
<rect x="1448.46" y="395.972" width="43.8857" height="43.8857" stroke="#00FF00" stroke-opacity="0.5"/>
<rect x="1448.46" y="461.8" width="43.8857" height="43.8857" stroke="#00FF00" stroke-opacity="0.5"/>
<rect x="1382.63" y="659.286" width="43.8857" height="43.8857" stroke="#00FF00" stroke-opacity="0.5"/>
<rect x="1382.63" y="725.114" width="43.8857" height="43.8857" stroke="#00FF00" stroke-opacity="0.5"/>
<rect x="1448.46" y="659.286" width="43.8857" height="43.8857" stroke="#00FF00" stroke-opacity="0.5"/>
<rect x="1448.46" y="725.114" width="43.8857" height="43.8857" stroke="#00FF00" stroke-opacity="0.5"/>
<rect x="1382.63" y="527.629" width="43.8857" height="43.8857" stroke="#00FF00" stroke-opacity="0.5"/>
<rect x="1382.63" y="593.457" width="43.8857" height="43.8857" stroke="#00FF00" stroke-opacity="0.5"/>
<rect x="1448.46" y="527.629" width="43.8857" height="43.8857" stroke="#00FF00" stroke-opacity="0.5"/>
<rect x="1448.46" y="593.457" width="43.8857" height="43.8857" stroke="#00FF00" stroke-opacity="0.5"/>
<rect x="987.656" y="1" width="43.8857" height="43.8857" stroke="#00FF00" stroke-opacity="0.5"/>
<rect x="987.656" y="66.8287" width="43.8857" height="43.8857" stroke="#00FF00" stroke-opacity="0.5"/>
<rect x="1053.48" y="1" width="43.8857" height="43.8857" stroke="#00FF00" stroke-opacity="0.5"/>
<rect x="1053.48" y="66.8287" width="43.8857" height="43.8857" stroke="#00FF00" stroke-opacity="0.5"/>
<rect x="987.656" y="132.657" width="43.8857" height="43.8857" stroke="#00FF00" stroke-opacity="0.5"/>
<rect x="987.656" y="198.486" width="43.8857" height="43.8857" stroke="#00FF00" stroke-opacity="0.5"/>
<rect x="1053.48" y="132.657" width="43.8857" height="43.8857" stroke="#00FF00" stroke-opacity="0.5"/>
<rect x="1053.48" y="198.486" width="43.8857" height="43.8857" stroke="#00FF00" stroke-opacity="0.5"/>
<rect x="987.656" y="264.314" width="43.8857" height="43.8857" stroke="#00FF00" stroke-opacity="0.5"/>
<rect x="987.656" y="330.143" width="43.8857" height="43.8857" stroke="#00FF00" stroke-opacity="0.5"/>
<rect x="1053.48" y="264.314" width="43.8857" height="43.8857" stroke="#00FF00" stroke-opacity="0.5"/>
<rect x="1053.48" y="330.143" width="43.8857" height="43.8857" stroke="#00FF00" stroke-opacity="0.5"/>
<rect x="987.656" y="395.972" width="43.8857" height="43.8857" stroke="#00FF00" stroke-opacity="0.5"/>
<rect x="987.656" y="461.8" width="43.8857" height="43.8857" stroke="#00FF00" stroke-opacity="0.5"/>
<rect x="1053.48" y="395.972" width="43.8857" height="43.8857" stroke="#00FF00" stroke-opacity="0.5"/>
<rect x="1053.48" y="461.8" width="43.8857" height="43.8857" stroke="#00FF00" stroke-opacity="0.5"/>
<rect x="987.656" y="659.286" width="43.8857" height="43.8857" stroke="#00FF00" stroke-opacity="0.5"/>
<rect x="987.656" y="725.114" width="43.8857" height="43.8857" stroke="#00FF00" stroke-opacity="0.5"/>
<rect x="1053.48" y="659.286" width="43.8857" height="43.8857" stroke="#00FF00" stroke-opacity="0.5"/>
<rect x="1053.48" y="725.114" width="43.8857" height="43.8857" stroke="#00FF00" stroke-opacity="0.5"/>
<rect x="987.656" y="527.629" width="43.8857" height="43.8857" stroke="#00FF00" stroke-opacity="0.5"/>
<rect x="987.656" y="593.457" width="43.8857" height="43.8857" stroke="#00FF00" stroke-opacity="0.5"/>
<rect x="1053.48" y="527.629" width="43.8857" height="43.8857" stroke="#00FF00" stroke-opacity="0.5"/>
<rect x="1053.48" y="593.457" width="43.8857" height="43.8857" stroke="#00FF00" stroke-opacity="0.5"/>
<rect x="1250.97" y="1" width="43.8857" height="43.8857" stroke="#00FF00" stroke-opacity="0.5"/>
<rect x="1250.97" y="66.8287" width="43.8857" height="43.8857" stroke="#00FF00" stroke-opacity="0.5"/>
<rect x="1316.8" y="1" width="43.8857" height="43.8857" stroke="#00FF00" stroke-opacity="0.5"/>
<rect x="1316.8" y="66.8287" width="43.8857" height="43.8857" stroke="#00FF00" stroke-opacity="0.5"/>
<rect x="1250.97" y="132.657" width="43.8857" height="43.8857" stroke="#00FF00" stroke-opacity="0.5"/>
<rect x="1250.97" y="198.486" width="43.8857" height="43.8857" stroke="#00FF00" stroke-opacity="0.5"/>
<rect x="1316.8" y="132.657" width="43.8857" height="43.8857" stroke="#00FF00" stroke-opacity="0.5"/>
<rect x="1316.8" y="198.486" width="43.8857" height="43.8857" stroke="#00FF00" stroke-opacity="0.5"/>
<rect x="1250.97" y="264.314" width="43.8857" height="43.8857" stroke="#00FF00" stroke-opacity="0.5"/>
<rect x="1250.97" y="330.143" width="43.8857" height="43.8857" stroke="#00FF00" stroke-opacity="0.5"/>
<rect x="1316.8" y="264.314" width="43.8857" height="43.8857" stroke="#00FF00" stroke-opacity="0.5"/>
<rect x="1316.8" y="330.143" width="43.8857" height="43.8857" stroke="#00FF00" stroke-opacity="0.5"/>
<rect x="1250.97" y="395.972" width="43.8857" height="43.8857" stroke="#00FF00" stroke-opacity="0.5"/>
<rect x="1250.97" y="461.8" width="43.8857" height="43.8857" stroke="#00FF00" stroke-opacity="0.5"/>
<rect x="1316.8" y="395.972" width="43.8857" height="43.8857" stroke="#00FF00" stroke-opacity="0.5"/>
<rect x="1316.8" y="461.8" width="43.8857" height="43.8857" stroke="#00FF00" stroke-opacity="0.5"/>
<rect x="1250.97" y="659.286" width="43.8857" height="43.8857" stroke="#00FF00" stroke-opacity="0.5"/>
<rect x="1250.97" y="725.114" width="43.8857" height="43.8857" stroke="#00FF00" stroke-opacity="0.5"/>
<rect x="1316.8" y="659.286" width="43.8857" height="43.8857" stroke="#00FF00" stroke-opacity="0.5"/>
<rect x="1316.8" y="725.114" width="43.8857" height="43.8857" stroke="#00FF00" stroke-opacity="0.5"/>
<rect x="1250.97" y="527.629" width="43.8857" height="43.8857" stroke="#00FF00" stroke-opacity="0.5"/>
<rect x="1250.97" y="593.457" width="43.8857" height="43.8857" stroke="#00FF00" stroke-opacity="0.5"/>
<rect x="1316.8" y="527.629" width="43.8857" height="43.8857" stroke="#00FF00" stroke-opacity="0.5"/>
<rect x="1316.8" y="593.457" width="43.8857" height="43.8857" stroke="#00FF00" stroke-opacity="0.5"/>
<rect x="1514.29" y="1" width="43.8857" height="43.8857" stroke="#00FF00" stroke-opacity="0.5"/>
<rect x="1514.29" y="66.8287" width="43.8857" height="43.8857" stroke="#00FF00" stroke-opacity="0.5"/>
<rect x="1580.11" y="1" width="43.8857" height="43.8857" stroke="#00FF00" stroke-opacity="0.5"/>
<rect x="1580.11" y="66.8287" width="43.8857" height="43.8857" stroke="#00FF00" stroke-opacity="0.5"/>
<rect x="1514.29" y="132.657" width="43.8857" height="43.8857" stroke="#00FF00" stroke-opacity="0.5"/>
<rect x="1514.29" y="198.486" width="43.8857" height="43.8857" stroke="#00FF00" stroke-opacity="0.5"/>
<rect x="1580.11" y="132.657" width="43.8857" height="43.8857" stroke="#00FF00" stroke-opacity="0.5"/>
<rect x="1580.11" y="198.486" width="43.8857" height="43.8857" stroke="#00FF00" stroke-opacity="0.5"/>
<rect x="1514.29" y="264.314" width="43.8857" height="43.8857" stroke="#00FF00" stroke-opacity="0.5"/>
<rect x="1514.29" y="330.143" width="43.8857" height="43.8857" stroke="#00FF00" stroke-opacity="0.5"/>
<rect x="1580.11" y="264.314" width="43.8857" height="43.8857" stroke="#00FF00" stroke-opacity="0.5"/>
<rect x="1580.11" y="330.143" width="43.8857" height="43.8857" stroke="#00FF00" stroke-opacity="0.5"/>
<rect x="1514.29" y="395.972" width="43.8857" height="43.8857" stroke="#00FF00" stroke-opacity="0.5"/>
<rect x="1514.29" y="461.8" width="43.8857" height="43.8857" stroke="#00FF00" stroke-opacity="0.5"/>
<rect x="1580.11" y="395.972" width="43.8857" height="43.8857" stroke="#00FF00" stroke-opacity="0.5"/>
<rect x="1580.11" y="461.8" width="43.8857" height="43.8857" stroke="#00FF00" stroke-opacity="0.5"/>
<rect x="1514.29" y="659.286" width="43.8857" height="43.8857" stroke="#00FF00" stroke-opacity="0.5"/>
<rect x="1514.29" y="725.114" width="43.8857" height="43.8857" stroke="#00FF00" stroke-opacity="0.5"/>
<rect x="1580.11" y="659.286" width="43.8857" height="43.8857" stroke="#00FF00" stroke-opacity="0.5"/>
<rect x="1580.11" y="725.114" width="43.8857" height="43.8857" stroke="#00FF00" stroke-opacity="0.5"/>
<rect x="1514.29" y="527.629" width="43.8857" height="43.8857" stroke="#00FF00" stroke-opacity="0.5"/>
<rect x="1514.29" y="593.457" width="43.8857" height="43.8857" stroke="#00FF00" stroke-opacity="0.5"/>
<rect x="1580.11" y="527.629" width="43.8857" height="43.8857" stroke="#00FF00" stroke-opacity="0.5"/>
<rect x="1580.11" y="593.457" width="43.8857" height="43.8857" stroke="#00FF00" stroke-opacity="0.5"/>
</svg>
