<svg width="46" height="73" viewBox="0 0 46 73" fill="none" xmlns="http://www.w3.org/2000/svg">
<path d="M42.01 0H38.51H35.01H31.51H28.01H24.51H21H17.5H14H10.5H7H3.5H0V3.5V7H3.5V10.28V10.39V13.67V13.78V17.06V17.17V20.45V20.56V23.95H7V27.45H10.5V30.94H14V34.44H17.5V30.94H14V27.45H10.5V23.95H7V20.56V20.45V17.17V17.06V13.78V13.67V10.39V10.28V7H10.5H14H17.5H21H24.51H28.01H31.51H35.01H38.51V10.28V10.39V13.67V13.78V17.06V17.17V20.45V20.56V23.95H42.01V20.56V20.45V17.17V17.06V13.78V13.67V10.39V10.28V7H45.51V3.5V0H42.01Z" fill="black"/>
<path d="M24.5 27.45H21V30.95H24.5V27.45Z" fill="black"/>
<path d="M21 23.9399H17.5V27.4399H21V23.9399Z" fill="black"/>
<path d="M28.0117 23.9399H24.5117V27.4399H28.0117V23.9399Z" fill="black"/>
<path d="M17.5 34.4399H14V37.9399H17.5V34.4399Z" fill="black"/>
<path d="M38.5117 23.95H35.0117V27.45H38.5117V23.95Z" fill="black"/>
<path d="M35.0117 27.45H31.5117V30.95H35.0117V27.45Z" fill="black"/>
<path d="M28.0117 34.4399V34.45V37.9399V37.95V41.45H31.5117V37.95V37.9399V34.45V34.4399V30.95H28.0117V34.4399Z" fill="black"/>
<path d="M24.5 48.45H21V51.95H24.5V48.45Z" fill="black"/>
<path d="M17.5 55.45H21H24.51H28.01V51.95H24.51H21H17.5V55.45Z" fill="black"/>
<path d="M17.5 55.45H14V58.95H17.5V55.45Z" fill="black"/>
<path d="M17.5 58.95H21H24.51H28.01H31.51V55.45H28.01H24.51H21H17.5V58.95Z" fill="black"/>
<path d="M38.51 51.95V55.2199V55.3399V58.61V58.7199V61.9999V62.11V65.39H35.01H31.51H28.01H24.51H21H17.5H14H10.5H7V62.11V61.9999V58.7199V58.61V55.3399V55.2199V51.95V51.83V48.45H10.5V44.95H14V41.45H17.5V37.95H14V41.45H10.5V44.95H7V48.45H3.5V51.83V51.95V55.2199V55.3399V58.61V58.7199V61.9999V62.11V65.39H0V68.89V72.39H3.5H7H10.5H14H17.5H21H24.51H28.01H31.51H35.01H38.51H42.01H45.51V68.89V65.39H42.01V62.11V61.9999V58.7199V58.61V55.3399V55.2199V51.95V51.83V48.45H38.51V51.83V51.95Z" fill="black"/>
<path d="M38.5117 44.95H35.0117V48.45H38.5117V44.95Z" fill="black"/>
<path d="M35.0117 41.45H31.5117V44.95H35.0117V41.45Z" fill="black"/>
</svg>
