<svg width="151" height="96" viewBox="0 0 151 96" fill="none" xmlns="http://www.w3.org/2000/svg">
<path d="M9.03526 67.4036C13.2054 67.4036 16.4114 64.6011 17.0168 60.4758L12.6 60.4758C12.1516 62.2245 10.784 63.368 9.03526 63.368C6.81568 63.368 5.17902 61.5968 5.17902 59.1754C5.17902 56.7541 6.81568 54.9605 9.03526 54.9605C10.6943 54.9605 12.0395 56.0142 12.5776 57.606L16.9719 57.606C16.3218 53.6377 13.1381 50.9249 9.03526 50.9249C4.2598 50.9249 0.69502 54.4672 0.69502 59.1754C0.69502 63.8612 4.2598 67.4036 9.03526 67.4036ZM31.7686 67.4036C36.8131 67.4036 40.4003 63.9733 40.4003 59.1754C40.4003 54.3551 36.8131 50.9249 31.7686 50.9249C26.7241 50.9249 23.1369 54.3775 23.1369 59.1754C23.1369 63.9509 26.7241 67.4036 31.7686 67.4036ZM31.7686 63.3904C29.3921 63.3904 27.6209 61.5968 27.6209 59.1754C27.6209 56.7316 29.3921 54.938 31.7686 54.938C34.1676 54.938 35.8939 56.7092 35.8939 59.1754C35.8939 61.6192 34.1676 63.3904 31.7686 63.3904ZM67.3453 67L64.9912 51.306L60.6866 51.306L56.9648 59.848L53.2655 51.306L48.9385 51.306L46.562 67H50.9563L52.167 57.9872L56.3147 67.0448H57.5926L61.7627 57.9647L62.9734 67H67.3453ZM94.2318 67L91.8777 51.306L87.573 51.306L83.8513 59.848L80.152 51.306L75.825 51.306L73.4484 67L77.8428 67L79.0534 57.9872L83.2011 67.0448H84.4791L88.6492 57.9647L89.8599 67H94.2318ZM107.913 67.4036C111.926 67.4036 114.773 64.8028 114.773 60.9466L114.773 51.306L110.357 51.306L110.357 60.8569C110.357 62.4039 109.37 63.3904 107.913 63.3904C106.478 63.3904 105.492 62.4039 105.492 60.8569L105.492 51.306L101.075 51.306L101.075 60.9466C101.075 64.8028 103.922 67.4036 107.913 67.4036ZM132.333 51.306L132.333 59.5566L126.302 51.306H122.513L122.513 67H126.706L126.706 58.5028L132.939 67H136.526L136.526 51.306L132.333 51.306ZM144.408 67H148.802L148.802 51.306L144.408 51.306L144.408 67Z" fill="black"/>
<path d="M19.2107 83.6954H18.9607V83.9454H19.2107V83.6954ZM30.6897 83.6954V83.9454H30.9397V83.6954H30.6897ZM30.6897 79.9064H30.9397V79.6564H30.6897V79.9064ZM19.2107 79.9064V79.6564H18.9607V79.9064H19.2107ZM19.2107 83.9454H30.6897V83.4454H19.2107V83.9454ZM30.9397 83.6954V79.9064H30.4397V83.6954H30.9397ZM30.6897 79.6564H19.2107V80.1564H30.6897V79.6564ZM18.9607 79.9064L18.9607 83.6954H19.4607L19.4607 79.9064H18.9607ZM53.8023 81.4758L54.0496 81.5121L54.0917 81.2258H53.8023V81.4758ZM49.3855 81.4758V81.2258H49.1916L49.1434 81.4137L49.3855 81.4758ZM49.3631 78.606L49.1263 78.6861L49.1837 78.856H49.3631V78.606ZM53.7574 78.606V78.856H54.0517L54.0042 78.5656L53.7574 78.606ZM45.8208 88.6536C50.1164 88.6536 53.4265 85.7587 54.0496 81.5121L53.5549 81.4395C52.9674 85.4435 49.8654 88.1536 45.8208 88.1536V88.6536ZM53.8023 81.2258H49.3855V81.7258H53.8023V81.2258ZM49.1434 81.4137C48.7206 83.0626 47.4447 84.118 45.8208 84.118V84.618C47.6944 84.618 49.1537 83.3865 49.6277 81.5379L49.1434 81.4137ZM45.8208 84.118C43.7582 84.118 42.2145 82.4785 42.2145 80.1754H41.7145C41.7145 82.7151 43.4442 84.618 45.8208 84.618V84.118ZM42.2145 80.1754C42.2145 77.8705 43.7599 76.2105 45.8208 76.2105V75.7105C43.4425 75.7105 41.7145 77.6376 41.7145 80.1754H42.2145ZM45.8208 76.2105C47.3624 76.2105 48.6191 77.1858 49.1263 78.6861L49.6 78.526C49.031 76.8426 47.5973 75.7105 45.8208 75.7105V76.2105ZM49.3631 78.856H53.7574V78.356H49.3631V78.856ZM54.0042 78.5656C53.334 74.4752 50.0449 71.6749 45.8208 71.6749V72.1749C49.8024 72.1749 52.8806 74.8001 53.5107 78.6464L54.0042 78.5656ZM45.8208 71.6749C40.9095 71.6749 37.2305 75.3269 37.2305 80.1754H37.7305C37.7305 75.6075 41.1811 72.1749 45.8208 72.1749V71.6749ZM37.2305 80.1754C37.2305 85.0019 40.9099 88.6536 45.8208 88.6536V88.1536C41.1807 88.1536 37.7305 84.7205 37.7305 80.1754H37.2305ZM70.5851 88L70.3481 88.0797L70.4054 88.25H70.5851V88ZM75.3605 88V88.25H75.7303L75.5925 87.9069L75.3605 88ZM69.0605 72.306L69.2925 72.2129L69.2295 72.056H69.0605V72.306ZM64.8231 72.306V72.056H64.6527L64.5904 72.2146L64.8231 72.306ZM58.6576 88L58.4249 87.9086L58.2908 88.25H58.6576V88ZM63.2986 88V88.25H63.4767L63.5349 88.0816L63.2986 88ZM64.1729 85.4665V85.2165H63.9948L63.9366 85.385L64.1729 85.4665ZM69.7331 85.4665L69.9701 85.3869L69.9128 85.2165H69.7331V85.4665ZM68.6794 82.0811V82.3311H69.0349L68.9146 81.9966L68.6794 82.0811ZM65.2267 82.0811L64.9907 81.9985L64.8742 82.3311H65.2267V82.0811ZM66.9306 77.216L67.1659 77.1314L66.9275 76.4684L66.6947 77.1333L66.9306 77.216ZM70.5851 88.25H75.3605V87.75H70.5851V88.25ZM75.5925 87.9069L69.2925 72.2129L68.8285 72.3991L75.1285 88.0931L75.5925 87.9069ZM69.0605 72.056H64.8231V72.556H69.0605V72.056ZM64.5904 72.2146L58.4249 87.9086L58.8903 88.0914L65.0558 72.3974L64.5904 72.2146ZM58.6576 88.25H63.2986V87.75H58.6576V88.25ZM63.5349 88.0816L64.4093 85.5481L63.9366 85.385L63.0622 87.9184L63.5349 88.0816ZM64.1729 85.7165H69.7331V85.2165H64.1729V85.7165ZM69.4961 85.5462L70.3481 88.0797L70.822 87.9203L69.9701 85.3869L69.4961 85.5462ZM68.6794 81.8311H65.2267V82.3311H68.6794V81.8311ZM65.4626 82.1638L67.1665 77.2986L66.6947 77.1333L64.9907 81.9985L65.4626 82.1638ZM66.6953 77.3005L68.4441 82.1657L68.9146 81.9966L67.1659 77.1314L66.6953 77.3005ZM92.3146 72.306H92.5646V72.056H92.3146V72.306ZM79.4455 72.306V72.056H79.1955V72.306H79.4455ZM79.4455 76.2071H79.1955V76.4571H79.4455V76.2071ZM83.7053 76.2071H83.9553V75.9571H83.7053V76.2071ZM83.7053 88H83.4553V88.25H83.7053V88ZM88.0548 88V88.25H88.3048V88H88.0548ZM88.0548 76.2071V75.9571H87.8048V76.2071H88.0548ZM92.3146 76.2071V76.4571H92.5646V76.2071H92.3146ZM92.3146 72.056L79.4455 72.056V72.556L92.3146 72.556V72.056ZM79.1955 72.306V76.2071H79.6955V72.306L79.1955 72.306ZM79.4455 76.4571L83.7053 76.4571V75.9571L79.4455 75.9571V76.4571ZM83.4553 76.2071V88H83.9553V76.2071H83.4553ZM83.7053 88.25H88.0548V87.75H83.7053V88.25ZM88.3048 88V76.2071H87.8048V88H88.3048ZM88.0548 76.4571H92.3146V75.9571H88.0548V76.4571ZM92.5646 76.2071V72.306H92.0646V76.2071H92.5646ZM98.4976 88H98.2476V88.25H98.4976V88ZM102.892 88V88.25H103.142V88H102.892ZM102.892 72.306H103.142V72.056H102.892V72.306ZM98.4976 72.306V72.056H98.2476V72.306H98.4976ZM98.4976 88.25H102.892V87.75H98.4976V88.25ZM103.142 88V72.306H102.642V88H103.142ZM102.892 72.056H98.4976V72.556H102.892V72.056ZM98.2476 72.306V88H98.7476V72.306H98.2476ZM118.605 88.6536C123.776 88.6536 127.487 85.1223 127.487 80.1754H126.987C126.987 84.8243 123.523 88.1536 118.605 88.1536V88.6536ZM127.487 80.1754C127.487 75.2066 123.777 71.6749 118.605 71.6749V72.1749C123.522 72.1749 126.987 75.5037 126.987 80.1754H127.487ZM118.605 71.6749C113.433 71.6749 109.723 75.2294 109.723 80.1754H110.223C110.223 75.5257 113.688 72.1749 118.605 72.1749V71.6749ZM109.723 80.1754C109.723 85.0994 113.433 88.6536 118.605 88.6536V88.1536C113.688 88.1536 110.223 84.8023 110.223 80.1754H109.723ZM118.605 84.1404C116.37 84.1404 114.707 82.4623 114.707 80.1754H114.207C114.207 82.7313 116.087 84.6404 118.605 84.6404V84.1404ZM114.707 80.1754C114.707 77.8653 116.371 76.188 118.605 76.188V75.688C116.086 75.688 114.207 77.598 114.207 80.1754H114.707ZM118.605 76.188C120.86 76.188 122.48 77.841 122.48 80.1754H122.98C122.98 77.5774 121.148 75.688 118.605 75.688V76.188ZM122.48 80.1754C122.48 82.4865 120.861 84.1404 118.605 84.1404V84.6404C121.147 84.6404 122.98 82.7519 122.98 80.1754H122.48ZM144.115 72.306V72.056H143.865V72.306H144.115ZM144.115 80.5566L143.913 80.7041L144.365 81.3222V80.5566H144.115ZM138.084 72.306L138.286 72.1585L138.211 72.056H138.084V72.306ZM134.295 72.306V72.056H134.045V72.306H134.295ZM134.295 88H134.045V88.25H134.295V88ZM138.488 88V88.25H138.738V88H138.488ZM138.488 79.5028L138.689 79.355L138.238 78.7393V79.5028H138.488ZM144.72 88L144.519 88.1479L144.594 88.25H144.72V88ZM148.308 88V88.25H148.558V88H148.308ZM148.308 72.306H148.558V72.056H148.308V72.306ZM143.865 72.306V80.5566H144.365V72.306H143.865ZM144.317 80.409L138.286 72.1585L137.882 72.4535L143.913 80.7041L144.317 80.409ZM138.084 72.056H134.295V72.556H138.084V72.056ZM134.045 72.306V88H134.545V72.306H134.045ZM134.295 88.25H138.488V87.75H134.295V88.25ZM138.738 88V79.5028H138.238V88H138.738ZM138.286 79.6507L144.519 88.1479L144.922 87.8521L138.689 79.355L138.286 79.6507ZM144.72 88.25H148.308V87.75H144.72V88.25ZM148.558 88V72.306H148.058V88H148.558ZM148.308 72.056H144.115V72.556H148.308V72.056Z" fill="black"/>
<path d="M133.036 43.0043L106.27 42.9988L106.27 16.4582" stroke="black" stroke-width="2" stroke-miterlimit="10"/>
<path d="M148.269 1.00009L106.27 42.999" stroke="black" stroke-width="2" stroke-miterlimit="10"/>
</svg>
