<svg width="120" height="38" viewBox="0 0 120 38" fill="none" xmlns="http://www.w3.org/2000/svg">
<path d="M9.01284 17.8035L9.0953 18.0395L9.33269 17.9566L9.24837 17.7197L9.01284 17.8035ZM8.0712 15.158L8.30673 15.0741L8.22159 14.8349L7.98373 14.9238L8.0712 15.158ZM6.21034 15.853H5.96034L5.96034 16.2132L6.29781 16.0872L6.21034 15.853ZM6.21034 13.8128H6.46034V13.5628H6.21034V13.8128ZM3.43026 13.8128L3.43026 13.5628L3.18026 13.5628L3.18026 13.8128L3.43026 13.8128ZM3.43026 15.853L3.34279 16.0872L3.68026 16.2132L3.68026 15.853H3.43026ZM1.5694 15.158L1.65687 14.9238L1.41902 14.8349L1.33387 15.0741L1.5694 15.158ZM0.62776 17.8035L0.392234 17.7197L0.308234 17.9557L0.544405 18.0392L0.62776 17.8035ZM2.4662 18.4537L2.65661 18.6157L2.89193 18.3391L2.54956 18.218L2.4662 18.4537ZM1.18826 19.9558L0.997845 19.7938L0.83519 19.985L1.02704 20.1469L1.18826 19.9558ZM3.34058 21.7719L3.17936 21.9629L3.37137 22.1249L3.53244 21.9321L3.34058 21.7719ZM4.8203 20.0007L5.01216 19.8404L4.8203 19.6107L4.62844 19.8404L4.8203 20.0007ZM6.30002 21.7719L6.10816 21.9321L6.26923 22.1249L6.46124 21.9629L6.30002 21.7719ZM8.45234 19.9558L8.61356 20.1469L8.80707 19.9836L8.64136 19.7922L8.45234 19.9558ZM7.15198 18.4537L7.06952 18.2177L6.7221 18.3391L6.96296 18.6173L7.15198 18.4537ZM9.24837 17.7197L8.30673 15.0741L7.83567 15.2418L8.77731 17.8874L9.24837 17.7197ZM7.98373 14.9238L6.12287 15.6188L6.29781 16.0872L8.15867 15.3922L7.98373 14.9238ZM6.46034 15.853L6.46034 13.8128H5.96034L5.96034 15.853H6.46034ZM6.21034 13.5628L3.43026 13.5628L3.43026 14.0628L6.21034 14.0628L6.21034 13.5628ZM3.18026 13.8128L3.18026 15.853L3.68026 15.853L3.68026 13.8128L3.18026 13.8128ZM3.51773 15.6188L1.65687 14.9238L1.48193 15.3922L3.34279 16.0872L3.51773 15.6188ZM1.33387 15.0741L0.392234 17.7197L0.863286 17.8874L1.80493 15.2418L1.33387 15.0741ZM0.544405 18.0392L2.38284 18.6894L2.54956 18.218L0.711115 17.5678L0.544405 18.0392ZM2.27579 18.2917L0.997845 19.7938L1.37867 20.1178L2.65661 18.6157L2.27579 18.2917ZM1.02704 20.1469L3.17936 21.9629L3.5018 21.5808L1.34948 19.7648L1.02704 20.1469ZM3.53244 21.9321L5.01216 20.161L4.62844 19.8404L3.14872 21.6116L3.53244 21.9321ZM4.62844 20.161L6.10816 21.9321L6.49188 21.6116L5.01216 19.8404L4.62844 20.161ZM6.46124 21.9629L8.61356 20.1469L8.29112 19.7648L6.1388 21.5808L6.46124 21.9629ZM8.64136 19.7922L7.341 18.2901L6.96296 18.6173L8.26332 20.1195L8.64136 19.7922ZM7.23444 18.6897L9.0953 18.0395L8.93038 17.5675L7.06952 18.2177L7.23444 18.6897ZM25.2236 14.306L25.2236 14.056H25.0409L24.9854 14.2301L25.2236 14.306ZM22.1072 24.0811L21.8696 24.159L22.1105 24.8936L22.3454 24.1571L22.1072 24.0811ZM18.9011 14.306L19.1387 14.2281L19.0822 14.056H18.9011L18.9011 14.306ZM13.9687 14.306V14.056L13.6029 14.056L13.7358 14.3968L13.9687 14.306ZM20.0894 30L19.8565 30.0908L19.9185 30.25H20.0894V30ZM24.125 30V30.25H24.297L24.3584 30.0894L24.125 30ZM30.1335 14.306L30.367 14.3954L30.4969 14.056L30.1335 14.056L30.1335 14.306ZM24.9854 14.2301L21.869 24.0052L22.3454 24.1571L25.4617 14.3819L24.9854 14.2301ZM22.3447 24.0032L19.1387 14.2281L18.6636 14.3839L21.8696 24.159L22.3447 24.0032ZM18.9011 14.056L13.9687 14.056V14.556L18.9011 14.556L18.9011 14.056ZM13.7358 14.3968L19.8565 30.0908L20.3223 29.9092L14.2016 14.2152L13.7358 14.3968ZM20.0894 30.25L24.125 30.25V29.75L20.0894 29.75V30.25ZM24.3584 30.0894L30.367 14.3954L29.9001 14.2166L23.8915 29.9106L24.3584 30.0894ZM30.1335 14.056L25.2236 14.056L25.2236 14.556L30.1335 14.556L30.1335 14.056ZM36.0298 30H35.7798V30.25H36.0298V30ZM40.4241 30V30.25H40.6741V30H40.4241ZM40.4241 14.306L40.6741 14.306V14.056L40.4241 14.056V14.306ZM36.0298 14.306V14.056L35.7798 14.056V14.306L36.0298 14.306ZM36.0298 30.25L40.4241 30.25V29.75L36.0298 29.75V30.25ZM40.6741 30L40.6741 14.306L40.1741 14.306L40.1741 30L40.6741 30ZM40.4241 14.056L36.0298 14.056V14.556L40.4241 14.556V14.056ZM35.7798 14.306L35.7798 30L36.2798 30L36.2798 14.306L35.7798 14.306ZM54.8144 20.2473L54.7512 20.4892L54.7538 20.4898L54.8144 20.2473ZM55.3077 19.0815H55.0577V19.3315H55.3077V19.0815ZM59.6572 19.0815V19.3315H59.9072V19.0815H59.6572ZM52.9087 23.6327L52.8487 23.8754L52.8507 23.8759L52.9087 23.6327ZM52.0119 24.9331H52.2619V24.6831H52.0119V24.9331ZM47.5504 24.9331V24.6831H47.3004V24.9331H47.5504ZM53.8728 30.6536C55.7373 30.6536 57.3673 30.1964 58.5368 29.2743C59.714 28.3462 60.4004 26.9655 60.4004 25.1797H59.9004C59.9004 26.8242 59.2752 28.0554 58.2272 28.8817C57.1716 29.714 55.6627 30.1536 53.8728 30.1536V30.6536ZM60.4004 25.1797C60.4004 23.3097 59.6043 22.1474 58.4982 21.3891C57.4124 20.6448 56.0332 20.2943 54.8751 20.0048L54.7538 20.4898C55.9274 20.7832 57.2162 21.1165 58.2155 21.8015C59.1943 22.4725 59.9004 23.4849 59.9004 25.1797H60.4004ZM54.8777 20.0054C54.1383 19.8121 53.506 19.6503 53.0543 19.4311C52.6063 19.2136 52.4189 18.9817 52.4189 18.6779L51.9189 18.6779C51.9189 19.2709 52.3256 19.6332 52.836 19.8809C53.3428 20.1268 54.0333 20.3014 54.7512 20.4892L54.8777 20.0054ZM52.4189 18.6779C52.4189 18.407 52.5479 18.2122 52.7674 18.0739C52.9964 17.9296 53.3215 17.8517 53.671 17.8517V17.3517C53.2582 17.3517 52.8324 17.442 52.5008 17.6508C52.1598 17.8657 51.9189 18.2089 51.9189 18.6779L52.4189 18.6779ZM53.671 17.8517C54.079 17.8517 54.4265 17.9591 54.6671 18.1565C54.9006 18.3482 55.0577 18.6442 55.0577 19.0815L55.5577 19.0815C55.5577 18.5098 55.3449 18.066 54.9843 17.77C54.6307 17.4798 54.1598 17.3517 53.671 17.3517V17.8517ZM55.3077 19.3315L59.6572 19.3315V18.8315L55.3077 18.8315V19.3315ZM59.9072 19.0815C59.9072 17.4187 59.341 16.0614 58.2631 15.1235C57.1898 14.1896 55.6392 13.6973 53.7159 13.6973V14.1973C55.5591 14.1973 56.9791 14.669 57.9349 15.5007C58.886 16.3283 59.4072 17.5382 59.4072 19.0815L59.9072 19.0815ZM53.7159 13.6973C51.8299 13.6973 50.2767 14.1484 49.1898 15.025C48.0958 15.9074 47.5021 17.1988 47.5021 18.8124H48.0021C48.0021 17.332 48.5407 16.1909 49.5037 15.4142C50.4739 14.6317 51.9025 14.1973 53.7159 14.1973V13.6973ZM47.5021 18.8124C47.5021 20.679 48.2673 21.8204 49.34 22.5554C50.3903 23.2751 51.7269 23.5977 52.8487 23.8754L52.9688 23.39C51.8262 23.1072 50.5845 22.802 49.6226 22.1429C48.6831 21.4992 48.0021 20.5106 48.0021 18.8124H47.5021ZM52.8507 23.8759C53.6119 24.0577 54.2646 24.2142 54.7304 24.4405C55.1875 24.6626 55.394 24.9149 55.394 25.2694H55.894C55.894 24.6373 55.484 24.2507 54.9489 23.9908C54.4227 23.7351 53.7078 23.5665 52.9668 23.3896L52.8507 23.8759ZM55.394 25.2694C55.394 25.5982 55.2291 25.8636 54.952 26.0562C54.6701 26.2521 54.2793 26.3646 53.8728 26.3646V26.8646C54.3632 26.8646 54.8579 26.7304 55.2374 26.4668C55.6217 26.1997 55.894 25.7925 55.894 25.2694H55.394ZM53.8728 26.3646C53.424 26.3646 53.0188 26.2368 52.7309 26.0009C52.4493 25.77 52.2619 25.4217 52.2619 24.9331H51.7619C51.7619 25.5654 52.0118 26.0579 52.414 26.3876C52.8099 26.7121 53.3351 26.8646 53.8728 26.8646V26.3646ZM52.0119 24.6831L47.5504 24.6831V25.1831L52.0119 25.1831V24.6831ZM47.3004 24.9331C47.3004 26.7132 47.9486 28.1535 49.1117 29.1449C50.27 30.1323 51.9138 30.6536 53.8728 30.6536V30.1536C51.998 30.1536 50.4806 29.6548 49.4361 28.7644C48.3964 27.8782 47.8004 26.5832 47.8004 24.9331H47.3004ZM80.815 14.306H81.065V14.056H80.815V14.306ZM76.3983 14.306V14.056H76.1483V14.306H76.3983ZM71.5331 14.306L71.7831 14.306V14.056L71.5331 14.056V14.306ZM67.1164 14.306V14.056L66.8664 14.056V14.306L67.1164 14.306ZM73.9545 30.6536C76.0152 30.6536 77.7942 29.9852 79.0602 28.804C80.3278 27.6213 81.065 25.9393 81.065 23.9466H80.565C80.565 25.8102 79.8785 27.3566 78.7191 28.4384C77.5582 29.5215 75.9069 30.1536 73.9545 30.1536V30.6536ZM81.065 23.9466L81.065 14.306H80.565L80.565 23.9466H81.065ZM80.815 14.056L76.3983 14.056V14.556L80.815 14.556V14.056ZM76.1483 14.306L76.1483 23.8569H76.6483L76.6483 14.306H76.1483ZM76.1483 23.8569C76.1483 24.5765 75.9198 25.1435 75.5438 25.5293C75.1683 25.9146 74.6251 26.1404 73.9545 26.1404V26.6404C74.7411 26.6404 75.4198 26.3729 75.9019 25.8782C76.3835 25.384 76.6483 24.6843 76.6483 23.8569H76.1483ZM73.9545 26.1404C73.296 26.1404 72.7585 25.9153 72.3853 25.5299C72.0116 25.1439 71.7831 24.5766 71.7831 23.8569H71.2831C71.2831 24.6842 71.5478 25.3837 72.0261 25.8777C72.5049 26.3722 73.178 26.6404 73.9545 26.6404V26.1404ZM71.7831 23.8569L71.7831 14.306L71.2831 14.306L71.2831 23.8569H71.7831ZM71.5331 14.056L67.1164 14.056V14.556L71.5331 14.556V14.056ZM66.8664 14.306L66.8664 23.9466H67.3664L67.3664 14.306L66.8664 14.306ZM66.8664 23.9466C66.8664 25.9392 67.6036 27.6212 68.8681 28.8038C70.1312 29.985 71.9046 30.6536 73.9545 30.6536V30.1536C72.0136 30.1536 70.3679 29.5218 69.2096 28.4386C68.0529 27.3568 67.3664 25.8102 67.3664 23.9466H66.8664ZM98.4103 30L98.1734 30.0797L98.2306 30.25L98.4103 30.25V30ZM103.186 30V30.25H103.556L103.418 29.9069L103.186 30ZM96.8858 14.306L97.1178 14.2129L97.0548 14.056H96.8858V14.306ZM92.6484 14.306V14.056H92.478L92.4157 14.2146L92.6484 14.306ZM86.4829 30L86.2502 29.9086L86.1161 30.25H86.4829V30ZM91.1238 30V30.25H91.302L91.3601 30.0816L91.1238 30ZM91.9982 27.4665V27.2165H91.82L91.7619 27.385L91.9982 27.4665ZM97.5584 27.4665L97.7953 27.3869L97.738 27.2165H97.5584V27.4665ZM96.5046 24.0811V24.3311L96.8601 24.3311L96.7399 23.9966L96.5046 24.0811ZM93.0519 24.0811L92.816 23.9985L92.6995 24.3311H93.0519V24.0811ZM94.7559 19.216L94.9911 19.1314L94.7528 18.4684L94.5199 19.1333L94.7559 19.216ZM98.4103 30.25L103.186 30.25V29.75L98.4103 29.75V30.25ZM103.418 29.9069L97.1178 14.2129L96.6538 14.3991L102.954 30.0931L103.418 29.9069ZM96.8858 14.056L92.6484 14.056V14.556L96.8858 14.556V14.056ZM92.4157 14.2146L86.2502 29.9086L86.7156 30.0914L92.8811 14.3974L92.4157 14.2146ZM86.4829 30.25L91.1238 30.25V29.75L86.4829 29.75V30.25ZM91.3601 30.0816L92.2345 27.5481L91.7619 27.385L90.8875 29.9184L91.3601 30.0816ZM91.9982 27.7165L97.5584 27.7165V27.2165L91.9982 27.2165V27.7165ZM97.3214 27.5462L98.1734 30.0797L98.6473 29.9203L97.7953 27.3869L97.3214 27.5462ZM96.5046 23.8311L93.0519 23.8311V24.3311L96.5046 24.3311V23.8311ZM93.2879 24.1638L94.9918 19.2986L94.5199 19.1333L92.816 23.9985L93.2879 24.1638ZM94.5206 19.3005L96.2694 24.1657L96.7399 23.9966L94.9911 19.1314L94.5206 19.3005ZM113.377 26.0541H113.127V26.3041H113.377V26.0541ZM113.377 14.306H113.627V14.056H113.377V14.306ZM108.982 14.306V14.056H108.732V14.306H108.982ZM108.982 30L108.732 30V30.25L108.982 30.25V30ZM118.959 30V30.25L119.209 30.25V30L118.959 30ZM118.959 26.0541L119.209 26.0541V25.8041L118.959 25.8041V26.0541ZM113.627 26.0541L113.627 14.306L113.127 14.306L113.127 26.0541H113.627ZM113.377 14.056L108.982 14.056V14.556L113.377 14.556V14.056ZM108.732 14.306L108.732 30L109.232 30L109.232 14.306L108.732 14.306ZM108.982 30.25L118.959 30.25V29.75L108.982 29.75V30.25ZM119.209 30L119.209 26.0541L118.709 26.0541L118.709 30L119.209 30ZM118.959 25.8041L113.377 25.8041V26.3041L118.959 26.3041V25.8041Z" fill="black"/>
<path d="M12.6981 9L14.7405 9L14.7405 1.706L12.6981 1.706L12.6981 9ZM18.313 5.15502C19.3862 5.06124 20.1261 4.32142 20.1261 3.18564L20.1261 1.53928L18.2296 1.53928L18.2296 3.33152L19.1362 3.33152C19.1362 3.77958 18.8757 4.14428 18.313 4.19638V5.15502ZM32.7168 9L31.6227 1.706L29.6221 1.706L27.8924 5.67602L26.1731 1.706L24.162 1.706L23.0575 9L25.0998 9L25.6625 4.81116L27.5902 9.02084L28.1841 9.02084L30.1223 4.80074L30.6849 9L32.7168 9ZM45.0687 9L47.2881 9L44.3601 1.706L42.3907 1.706L39.5252 9L41.6822 9L42.0886 7.82254L44.6727 7.82254L45.0687 9ZM44.183 6.24912L42.5783 6.24912L43.3702 3.98798L44.183 6.24912Z" fill="black"/>
</svg>
