<svg width="27" height="53" viewBox="0 0 27 53" fill="none" xmlns="http://www.w3.org/2000/svg">
<path d="M13.2508 0C6.83137 0 2.02137 4.35248 0.252039 6.22303C-0.084013 6.57933 -0.084013 7.13604 0.252039 7.49234C2.02137 9.36289 6.83137 13.7154 13.2508 13.7154C19.6722 13.7154 24.4802 9.36289 26.2495 7.49234C26.5856 7.13604 26.5856 6.57933 26.2495 6.22303C24.4802 4.35045 19.6702 0 13.2508 0ZM7.32937 3.25727C6.69978 4.34437 6.34551 5.61571 6.34551 6.95587C6.34551 8.18468 6.64107 9.35479 7.17957 10.3832C5.0094 9.32037 3.30282 7.89924 2.22179 6.85667C3.32712 5.79183 5.08835 4.32818 7.32937 3.25727ZM10.8802 11.6404C9.22017 10.7334 8.19379 8.94789 8.19379 6.95789C8.19379 4.68448 9.54407 2.68437 11.5604 1.96571C12.109 1.8908 12.6738 1.84829 13.2528 1.84829C13.684 1.84829 14.1091 1.87258 14.5241 1.9151C16.5971 2.57505 18.0425 4.64197 18.0425 6.95789C18.0425 8.98432 16.9433 10.8346 15.2306 11.7092C14.5909 11.8104 13.931 11.8691 13.2508 11.8691C12.4309 11.8671 11.6393 11.7841 10.8802 11.6404ZM18.9495 10.5613C19.5528 9.4884 19.8888 8.24946 19.8888 6.95789C19.8888 5.5651 19.5123 4.23709 18.7956 3.0852C21.2148 4.16623 23.1117 5.73313 24.2777 6.8587C23.138 7.95795 21.2958 9.48233 18.9495 10.5613Z" fill="white"/>
<path d="M15.4594 6.95594C14.1658 6.95594 13.1171 5.9073 13.1171 4.61572C11.8235 4.61572 10.7749 5.66437 10.7749 6.95594C10.7749 8.24751 11.8235 9.29615 13.1171 9.29615C14.4107 9.29615 15.4594 8.24751 15.4594 6.95594Z" fill="white"/>
<path d="M13.2508 19.6421C6.83137 19.6421 2.02137 23.9946 0.252039 25.8651C-0.084013 26.2214 -0.084013 26.7781 0.252039 27.1344C2.02137 29.005 6.83137 33.3575 13.2508 33.3575C19.6722 33.3575 24.4802 29.005 26.2495 27.1344C26.5856 26.7781 26.5856 26.2214 26.2495 25.8651C24.4802 23.9925 19.6702 19.6421 13.2508 19.6421ZM7.32937 22.8994C6.69978 23.9865 6.34551 25.2578 6.34551 26.598C6.34551 27.8268 6.64107 28.9969 7.17957 30.0253C5.0094 28.9625 3.30282 27.5413 2.22179 26.4988C3.32712 25.4339 5.08835 23.9703 7.32937 22.8994ZM10.8802 31.2824C9.22017 30.3755 8.19379 28.59 8.19379 26.6C8.19379 24.3266 9.54407 22.3265 11.5604 21.6078C12.109 21.5329 12.6738 21.4904 13.2528 21.4904C13.684 21.4904 14.1091 21.5147 14.5241 21.5572C16.5971 22.2171 18.0425 24.2841 18.0425 26.6C18.0425 28.6264 16.9433 30.4767 15.2306 31.3513C14.5909 31.4525 13.931 31.5112 13.2508 31.5112C12.4309 31.5092 11.6393 31.4262 10.8802 31.2824ZM18.9495 30.2034C19.5528 29.1305 19.8888 27.8916 19.8888 26.6C19.8888 25.2072 19.5123 23.8792 18.7956 22.7273C21.2148 23.8083 23.1117 25.3752 24.2777 26.5008C23.138 27.6 21.2958 29.1244 18.9495 30.2034Z" fill="white"/>
<path d="M15.4594 26.598C14.1658 26.598 13.1171 25.5494 13.1171 24.2578C11.8235 24.2578 10.7749 25.3065 10.7749 26.598C10.7749 27.8896 11.8235 28.9382 13.1171 28.9382C14.4107 28.9382 15.4594 27.8896 15.4594 26.598Z" fill="white"/>
<path d="M13.2508 39.2847C6.83137 39.2847 2.02137 43.6371 0.252039 45.5077C-0.084013 45.864 -0.084013 46.4207 0.252039 46.777C2.02137 48.6476 6.83137 53 13.2508 53C19.6722 53 24.4802 48.6476 26.2495 46.777C26.5856 46.4207 26.5856 45.864 26.2495 45.5077C24.4802 43.6351 19.6702 39.2847 13.2508 39.2847ZM7.32937 42.5419C6.69978 43.629 6.34551 44.9004 6.34551 46.2405C6.34551 47.4693 6.64107 48.6395 7.17957 49.6679C5.0094 48.605 3.30282 47.1839 2.22179 46.1413C3.32712 45.0765 5.08835 43.6128 7.32937 42.5419ZM10.8802 50.925C9.22017 50.0181 8.19379 48.2326 8.19379 46.2426C8.19379 43.9691 9.54407 41.969 11.5604 41.2504C12.109 41.1755 12.6738 41.133 13.2528 41.133C13.684 41.133 14.1091 41.1573 14.5241 41.1998C16.5971 41.8597 18.0425 43.9266 18.0425 46.2426C18.0425 48.269 16.9433 50.1193 15.2306 50.9938C14.5909 51.0951 13.931 51.1538 13.2508 51.1538C12.4309 51.1518 11.6393 51.0688 10.8802 50.925ZM18.9495 49.846C19.5528 48.7731 19.8888 47.5341 19.8888 46.2426C19.8888 44.8498 19.5123 43.5218 18.7956 42.3699C21.2148 43.4509 23.1117 45.0178 24.2777 46.1434C23.138 47.2426 21.2958 48.767 18.9495 49.846Z" fill="white"/>
<path d="M15.4594 46.2406C14.1658 46.2406 13.1171 45.192 13.1171 43.9004C11.8235 43.9004 10.7749 44.949 10.7749 46.2406C10.7749 47.5322 11.8235 48.5808 13.1171 48.5808C14.4107 48.5808 15.4594 47.5322 15.4594 46.2406Z" fill="white"/>
</svg>
