<svg width="198" height="18" viewBox="0 0 198 18" fill="none" xmlns="http://www.w3.org/2000/svg">
<path d="M4.80678 13.2559V10.9018H9.96338V7.3594H4.80678V5.05014H10.5463V1.306H0.50214V17H10.7481V13.2559H4.80678ZM31.513 17L26.7824 8.9288L31.1992 1.306H26.3789L24.0248 5.76758L21.6707 1.306H16.7831L21.2447 8.83912L16.5141 17H21.424L24.0472 12.1797L26.6255 17H31.513ZM44.5135 1.306H37.8323V17H42.1594V12.6729H44.5135C47.8541 12.6729 50.3427 10.274 50.3427 6.97826C50.3427 3.70494 47.8541 1.306 44.5135 1.306ZM43.9978 8.90638H42.1594V5.09498H43.9978C45.1412 5.09498 45.8811 5.87968 45.8811 7.00068C45.8811 8.12168 45.1412 8.90638 43.9978 8.90638ZM60.8787 13.2559V10.9018H66.0353V7.3594H60.8787V5.05014H66.6182V1.306H56.574V17H66.82V13.2559H60.8787ZM82.6077 17H87.428L84.3116 11.3053C85.8586 10.3861 86.8002 8.79428 86.8002 6.86616C86.8002 3.59284 84.334 1.306 80.971 1.306H74.1553V17H78.4824V12.2021H80.0518L82.6077 17ZM78.4824 5.16224H80.4554C81.666 5.16224 82.3611 5.87968 82.3611 6.86616C82.3611 7.83022 81.666 8.57008 80.4554 8.57008H78.4824V5.16224ZM94.167 17H98.5613V1.306H94.167V17ZM110.754 13.2559V10.9018H115.911V7.3594H110.754V5.05014H116.494V1.306H106.45V17H116.696V13.2559H110.754ZM133.851 1.306V9.55656L127.82 1.306H124.031V17H128.224V8.50282L134.456 17H138.044V1.306H133.851ZM153.459 17.4036C157.629 17.4036 160.835 14.6011 161.44 10.4758H157.024C156.575 12.2245 155.207 13.368 153.459 13.368C151.239 13.368 149.602 11.5968 149.602 9.17542C149.602 6.75406 151.239 4.96046 153.459 4.96046C155.118 4.96046 156.463 6.0142 157.001 7.60602H161.395C160.745 3.63768 157.562 0.92486 153.459 0.92486C148.683 0.92486 145.118 4.46722 145.118 9.17542C145.118 13.8612 148.683 17.4036 153.459 17.4036ZM172.672 13.2559V10.9018H177.829V7.3594H172.672V5.05014H178.412V1.306H168.368V17H178.613V13.2559H172.672ZM185.657 12.6954H197.136V8.90638H185.657V12.6954Z" fill="#00FF00"/>
</svg>
