<svg width="382" height="40" viewBox="0 0 382 40" fill="none" xmlns="http://www.w3.org/2000/svg">
<path d="M183.032 2.91956H182.252V11.6372H183.032V12.8622H180.659V1.69458H183.032V2.91956ZM187.124 3.00195L189.178 8.80273L191.221 3.00195H193.386V11H191.732V8.81372L191.897 5.03992L189.738 11H188.607L186.453 5.04541L186.618 8.81372V11H184.97V3.00195H187.124ZM199.29 11C199.217 10.8572 199.163 10.6796 199.13 10.4672C198.746 10.8956 198.246 11.1099 197.631 11.1099C197.049 11.1099 196.565 10.9414 196.181 10.6045C195.8 10.2676 195.609 9.84277 195.609 9.33008C195.609 8.7002 195.842 8.2168 196.307 7.87988C196.776 7.54297 197.451 7.37268 198.334 7.36902H199.065V7.02844C199.065 6.75378 198.993 6.53406 198.85 6.36926C198.711 6.20447 198.49 6.12207 198.186 6.12207C197.918 6.12207 197.708 6.18616 197.554 6.31433C197.404 6.4425 197.329 6.61829 197.329 6.84167H195.741C195.741 6.49744 195.847 6.17883 196.06 5.88586C196.272 5.5929 196.573 5.36401 196.961 5.19922C197.349 5.03076 197.785 4.94653 198.268 4.94653C199 4.94653 199.581 5.13147 200.009 5.50134C200.442 5.86755 200.658 6.38391 200.658 7.05042V9.62671C200.661 10.1907 200.74 10.6173 200.894 10.9066V11H199.29ZM197.977 9.89587C198.211 9.89587 198.427 9.8446 198.625 9.74207C198.823 9.63586 198.969 9.49487 199.065 9.31909V8.29736H198.471C197.677 8.29736 197.254 8.57202 197.202 9.12134L197.197 9.21472C197.197 9.41248 197.266 9.57544 197.406 9.70361C197.545 9.83179 197.735 9.89587 197.977 9.89587ZM206.342 6.54504C206.126 6.51575 205.935 6.5011 205.771 6.5011C205.17 6.5011 204.776 6.70435 204.59 7.11084V11H203.002V5.0564H204.502L204.546 5.76501C204.864 5.21936 205.306 4.94653 205.87 4.94653C206.045 4.94653 206.21 4.97034 206.364 5.01794L206.342 6.54504ZM217.579 11H212.097V9.91235L214.684 7.15479C215.039 6.7666 215.301 6.42786 215.469 6.13855C215.641 5.84924 215.728 5.57458 215.728 5.31458C215.728 4.95935 215.638 4.68103 215.458 4.47961C215.279 4.27454 215.023 4.172 214.689 4.172C214.33 4.172 214.047 4.29651 213.838 4.54553C213.633 4.79089 213.53 5.11499 213.53 5.51782H211.937C211.937 5.03076 212.053 4.58582 212.283 4.18298C212.518 3.78015 212.847 3.46521 213.272 3.23816C213.697 3.00745 214.178 2.89209 214.717 2.89209C215.541 2.89209 216.18 3.08984 216.634 3.48535C217.092 3.88086 217.321 4.43933 217.321 5.16077C217.321 5.55627 217.218 5.95911 217.013 6.36926C216.808 6.77942 216.456 7.25732 215.958 7.80298L214.14 9.72009H217.579V11ZM225.065 7.69312C225.065 8.79907 224.836 9.64502 224.378 10.231C223.92 10.8169 223.25 11.1099 222.368 11.1099C221.496 11.1099 220.83 10.8224 220.368 10.2474C219.907 9.67249 219.671 8.84851 219.66 7.77551V6.30334C219.66 5.1864 219.89 4.33862 220.352 3.76001C220.817 3.1814 221.485 2.89209 222.357 2.89209C223.228 2.89209 223.895 3.17957 224.356 3.75452C224.818 4.32581 225.054 5.14795 225.065 6.22095V7.69312ZM223.477 6.07812C223.477 5.41528 223.386 4.93372 223.203 4.63342C223.023 4.32947 222.741 4.17749 222.357 4.17749C221.983 4.17749 221.707 4.32214 221.527 4.61145C221.351 4.89709 221.258 5.3457 221.247 5.95728V7.90186C221.247 8.55371 221.335 9.03894 221.511 9.35754C221.69 9.67249 221.976 9.82996 222.368 9.82996C222.756 9.82996 223.036 9.67798 223.208 9.37402C223.38 9.07007 223.47 8.60498 223.477 7.97876V6.07812ZM231.123 11H229.535V4.88062L227.64 5.46838V4.17749L230.952 2.99097H231.123V11ZM240.29 3.89185L237.197 11H235.522L238.62 4.28735H234.643V3.00195H240.29V3.89185ZM249.516 8.21497H246.423V6.93506H249.516V8.21497ZM259.171 3.00195H260.819V8.53906C260.819 9.0481 260.705 9.49854 260.478 9.89038C260.255 10.2786 259.938 10.5789 259.528 10.7913C259.118 11.0037 258.654 11.1099 258.138 11.1099C257.292 11.1099 256.633 10.8956 256.161 10.4672C255.688 10.035 255.452 9.42529 255.452 8.63794H257.111C257.111 9.02979 257.193 9.31909 257.358 9.50586C257.523 9.69263 257.783 9.78601 258.138 9.78601C258.453 9.78601 258.704 9.67798 258.891 9.46191C259.077 9.24585 259.171 8.93823 259.171 8.53906V3.00195ZM266.811 10.3958C266.419 10.8718 265.877 11.1099 265.185 11.1099C264.547 11.1099 264.06 10.9268 263.724 10.5605C263.39 10.1943 263.22 9.65784 263.213 8.95105V5.0564H264.8V8.89612C264.8 9.51501 265.082 9.82446 265.646 9.82446C266.184 9.82446 266.554 9.6377 266.756 9.26416V5.0564H268.349V11H266.855L266.811 10.3958ZM272.347 11H270.754V2.5625H272.347V11ZM277.004 8.7533L278.102 5.0564H279.805L277.416 11.9229L277.284 12.236C276.929 13.0123 276.343 13.4005 275.526 13.4005C275.295 13.4005 275.061 13.3657 274.823 13.2961V12.0931L275.065 12.0986C275.365 12.0986 275.588 12.0529 275.735 11.9613C275.885 11.8698 276.002 11.7178 276.086 11.5054L276.273 11.0165L274.191 5.0564H275.9L277.004 8.7533ZM290.899 11H285.417V9.91235L288.004 7.15479C288.36 6.7666 288.621 6.42786 288.79 6.13855C288.962 5.84924 289.048 5.57458 289.048 5.31458C289.048 4.95935 288.958 4.68103 288.779 4.47961C288.599 4.27454 288.343 4.172 288.01 4.172C287.651 4.172 287.367 4.29651 287.158 4.54553C286.953 4.79089 286.851 5.11499 286.851 5.51782H285.258C285.258 5.03076 285.373 4.58582 285.604 4.18298C285.838 3.78015 286.168 3.46521 286.593 3.23816C287.017 3.00745 287.499 2.89209 288.037 2.89209C288.861 2.89209 289.5 3.08984 289.954 3.48535C290.412 3.88086 290.641 4.43933 290.641 5.16077C290.641 5.55627 290.539 5.95911 290.333 6.36926C290.128 6.77942 289.777 7.25732 289.279 7.80298L287.461 9.72009H290.899V11ZM298.385 7.69312C298.385 8.79907 298.156 9.64502 297.699 10.231C297.241 10.8169 296.571 11.1099 295.688 11.1099C294.817 11.1099 294.15 10.8224 293.689 10.2474C293.227 9.67249 292.991 8.84851 292.98 7.77551V6.30334C292.98 5.1864 293.211 4.33862 293.672 3.76001C294.137 3.1814 294.806 2.89209 295.677 2.89209C296.549 2.89209 297.215 3.17957 297.677 3.75452C298.138 4.32581 298.374 5.14795 298.385 6.22095V7.69312ZM296.798 6.07812C296.798 5.41528 296.706 4.93372 296.523 4.63342C296.344 4.32947 296.062 4.17749 295.677 4.17749C295.304 4.17749 295.027 4.32214 294.848 4.61145C294.672 4.89709 294.579 5.3457 294.568 5.95728V7.90186C294.568 8.55371 294.656 9.03894 294.831 9.35754C295.011 9.67249 295.296 9.82996 295.688 9.82996C296.076 9.82996 296.357 9.67798 296.529 9.37402C296.701 9.07007 296.791 8.60498 296.798 7.97876V6.07812ZM304.443 11H302.856V4.88062L300.961 5.46838V4.17749L304.273 2.99097H304.443V11ZM313.385 5.12781C313.385 5.51599 313.288 5.86023 313.094 6.16052C312.9 6.46082 312.632 6.70068 312.292 6.88013C312.68 7.06689 312.988 7.32507 313.215 7.65466C313.442 7.98059 313.555 8.36511 313.555 8.80823C313.555 9.51868 313.314 10.0808 312.83 10.4946C312.347 10.9048 311.689 11.1099 310.858 11.1099C310.027 11.1099 309.368 10.903 308.881 10.4891C308.394 10.0753 308.15 9.51501 308.15 8.80823C308.15 8.36511 308.264 7.97876 308.491 7.64917C308.718 7.31958 309.023 7.06323 309.408 6.88013C309.067 6.70068 308.8 6.46082 308.606 6.16052C308.416 5.86023 308.32 5.51599 308.32 5.12781C308.32 4.44666 308.547 3.90466 309.001 3.50183C309.456 3.09534 310.073 2.89209 310.853 2.89209C311.629 2.89209 312.244 3.09351 312.698 3.49634C313.156 3.89551 313.385 4.43933 313.385 5.12781ZM311.962 8.69287C311.962 8.34497 311.862 8.06665 311.66 7.85791C311.459 7.64917 311.188 7.5448 310.847 7.5448C310.51 7.5448 310.241 7.64917 310.04 7.85791C309.838 8.06299 309.738 8.34131 309.738 8.69287C309.738 9.03345 309.836 9.30811 310.034 9.51685C310.232 9.72559 310.507 9.82996 310.858 9.82996C311.202 9.82996 311.472 9.72925 311.666 9.52783C311.863 9.32642 311.962 9.0481 311.962 8.69287ZM311.797 5.20471C311.797 4.89343 311.715 4.64441 311.55 4.45764C311.385 4.26721 311.153 4.172 310.853 4.172C310.556 4.172 310.325 4.26355 310.161 4.44666C309.996 4.62976 309.913 4.88245 309.913 5.20471C309.913 5.52332 309.996 5.77966 310.161 5.97375C310.325 6.16785 310.558 6.26489 310.858 6.26489C311.158 6.26489 311.389 6.16785 311.55 5.97375C311.715 5.77966 311.797 5.52332 311.797 5.20471ZM315.285 1.69458H317.658V12.8622H315.285V11.6372H316.07V2.91956H315.285V1.69458Z" fill="black"/>
<path d="M2.23572 7.3031V9.78601C2.23572 10.0826 2.33643 10.2822 2.53784 10.3848C2.62207 10.4324 2.71362 10.469 2.8125 10.4946C2.91504 10.5203 3.01208 10.5605 3.10364 10.6155V11H0.664673V10.6155C0.741577 10.5605 0.827637 10.5203 0.922852 10.4946C1.02173 10.4653 1.11328 10.4287 1.19751 10.3848C1.39893 10.2822 1.49963 10.0826 1.49963 9.78601V5.34204L2.23572 7.3031ZM1.70837 4.51807C1.64612 4.36426 1.58936 4.22876 1.53809 4.11157C1.44287 4.0896 1.34399 4.06763 1.24146 4.04565C1.14258 4.02368 1.0437 4.00171 0.944824 3.97974C0.732422 3.9248 0.567627 3.87354 0.450439 3.82593V3.19421H3.09814L5.47668 9.42346L5.08118 11H4.13635L1.70837 4.51807ZM5.32288 7.66565L6.44348 3.19421H9.34387V3.6062C9.245 3.64648 9.14978 3.67761 9.05823 3.69958C8.96667 3.7179 8.88428 3.74536 8.81104 3.78198C8.6499 3.86255 8.56934 4.01819 8.56934 4.2489V9.9563C8.56934 10.1833 8.6499 10.3372 8.81104 10.4177C8.88428 10.4543 8.96667 10.4836 9.05823 10.5056C9.14978 10.5239 9.245 10.5532 9.34387 10.5935V11H5.99854V10.5935C6.09741 10.5532 6.19263 10.5239 6.28418 10.5056C6.37939 10.4836 6.46362 10.4543 6.53687 10.4177C6.70166 10.3372 6.78406 10.1833 6.78406 9.9563V4.37524H6.75659L5.69641 8.63245L5.32288 7.66565ZM16.3751 10.8901C16.1334 11.0183 15.7709 11.0824 15.2875 11.0824C14.8041 11.0824 14.4342 10.9451 14.1779 10.6704C13.9215 10.3958 13.7933 9.97827 13.7933 9.41797V6.43518C13.7933 6.24109 13.7054 6.10925 13.5297 6.03967C13.4564 6.01038 13.3777 5.98657 13.2935 5.96826C13.2129 5.94995 13.1415 5.91516 13.0792 5.86389V5.47937H15.4248V9.56628C15.4248 9.8446 15.4688 10.057 15.5566 10.2035C15.6482 10.35 15.7782 10.4232 15.9467 10.4232C16.1151 10.4232 16.2579 10.3848 16.3751 10.3079V10.8901ZM16.8695 6.43518C16.8695 6.24109 16.7816 6.10925 16.6058 6.03967C16.5326 6.01038 16.4539 5.98657 16.3696 5.96826C16.2891 5.94629 16.214 5.9115 16.1444 5.86389V5.47937H18.4955V10.0552C18.4955 10.2419 18.5834 10.3701 18.7592 10.4397C18.8324 10.469 18.9093 10.4946 18.9899 10.5166C19.0741 10.5349 19.1473 10.5679 19.2096 10.6155V11H16.8695V6.43518ZM25.1587 10.0771C25.1587 10.2676 25.2466 10.3976 25.4224 10.4672C25.4956 10.4965 25.5743 10.5221 25.6586 10.5441C25.7428 10.566 25.8215 10.6008 25.8948 10.6484V11H22.8021V10.6484C22.8717 10.6008 22.9486 10.566 23.0328 10.5441C23.1171 10.5221 23.1958 10.4965 23.269 10.4672C23.4412 10.3976 23.5272 10.2676 23.5272 10.0771V3.96326C23.5272 3.76917 23.4412 3.6355 23.269 3.56226C23.1958 3.53296 23.1171 3.50916 23.0328 3.49084C22.9486 3.46887 22.8717 3.43408 22.8021 3.38647V3.00745H25.1587V10.0771ZM31.8109 3.61169V11.0824H31.767C31.2286 11.0824 30.8276 10.9799 30.564 10.7748C30.304 10.5697 30.174 10.2365 30.174 9.77502V6.08362H29.4434V5.64417C29.4983 5.58557 29.5679 5.54163 29.6521 5.51233C29.74 5.48303 29.8279 5.4519 29.9158 5.41895C30.1318 5.33838 30.2692 5.20654 30.3278 5.02344C30.5219 4.48877 30.6738 4.14636 30.7837 3.99622C30.8936 3.84241 30.9906 3.7179 31.0748 3.62268L31.8109 3.61169ZM32.2998 10.4232C32.5964 10.4232 32.8052 10.328 32.926 10.1376C32.9773 10.0533 33.0176 9.95813 33.0469 9.85193C33.0762 9.74207 33.1091 9.6322 33.1458 9.52234L33.5907 9.69812C33.4991 10.1229 33.3856 10.4159 33.2501 10.577C33.1146 10.7345 32.9736 10.8499 32.8271 10.9231C32.6843 10.9963 32.5085 11.0494 32.2998 11.0824V10.4232ZM32.2998 5.47937H33.2886V6.08362H32.2998V5.47937ZM39.2322 10.0771C39.2322 10.2676 39.3201 10.3976 39.4958 10.4672C39.5691 10.4965 39.6478 10.5221 39.7321 10.5441C39.8163 10.566 39.895 10.6008 39.9683 10.6484V11H36.8756V10.6484C36.9452 10.6008 37.0221 10.566 37.1063 10.5441C37.1906 10.5221 37.2693 10.4965 37.3425 10.4672C37.5146 10.3976 37.6007 10.2676 37.6007 10.0771V6.43518C37.6007 6.23743 37.5146 6.10742 37.3425 6.04517C37.2693 6.01587 37.1906 5.99207 37.1063 5.97375C37.0221 5.95178 36.9452 5.91516 36.8756 5.86389V5.47937H39.2322V10.0771ZM38.3203 4.82568C38.1812 4.82568 38.0548 4.80005 37.9413 4.74878C37.8278 4.69751 37.7307 4.62793 37.6501 4.54004C37.4817 4.35693 37.3975 4.13354 37.3975 3.86987C37.3975 3.61353 37.4817 3.39014 37.6501 3.19971C37.8259 3.00562 38.0493 2.90857 38.3203 2.90857C38.595 2.90857 38.8202 3.00562 38.996 3.19971C39.1644 3.39014 39.2487 3.61353 39.2487 3.86987C39.2487 4.13354 39.1644 4.35693 38.996 4.54004C38.8202 4.73047 38.595 4.82568 38.3203 4.82568ZM46.3623 5.66614C46.6187 5.46838 46.9318 5.36951 47.3016 5.36951C47.8436 5.36951 48.2391 5.49219 48.4882 5.73755C48.7372 5.97925 48.8617 6.36011 48.8617 6.88013V10.0771C48.8617 10.2676 48.9276 10.3958 49.0594 10.4617C49.118 10.491 49.1803 10.5184 49.2462 10.5441C49.3158 10.566 49.3817 10.6008 49.444 10.6484V11H47.2247V7.07239C47.2247 6.70984 47.2009 6.46814 47.1533 6.34729C47.0618 6.13489 46.9116 6.02869 46.7029 6.02869C46.5784 6.02869 46.4648 6.06714 46.3623 6.14404V5.66614ZM49.3561 5.59473C49.6198 5.44458 49.9036 5.36951 50.2075 5.36951C50.5151 5.36951 50.766 5.4043 50.9601 5.47388C51.1542 5.54346 51.3153 5.65332 51.4435 5.80347C51.7035 6.10742 51.8335 6.578 51.8335 7.21521V9.82446C51.8335 10.0881 51.861 10.2566 51.9159 10.3298C51.9745 10.3994 52.0276 10.4434 52.0752 10.4617C52.1228 10.4763 52.1741 10.4891 52.229 10.5001C52.3608 10.5294 52.4652 10.5789 52.5421 10.6484V11H50.202V7.07239C50.202 6.69885 50.1782 6.45532 50.1306 6.3418C50.05 6.13306 49.9017 6.02869 49.6857 6.02869C49.5685 6.02869 49.4586 6.06348 49.3561 6.13306V5.59473ZM44.2365 6.68237C44.2365 6.40771 44.2072 6.2356 44.1486 6.16602C44.09 6.09644 44.0369 6.05615 43.9893 6.04517C43.9417 6.03052 43.8922 6.01953 43.8409 6.01221C43.7018 5.98657 43.6029 5.93713 43.5443 5.86389V5.47937H45.8734V10.0112C45.8734 10.209 45.9631 10.3518 46.1426 10.4397C46.2231 10.4763 46.3129 10.5093 46.4117 10.5386C46.5143 10.5679 46.6168 10.6045 46.7194 10.6484V11H43.4674V10.6484C43.548 10.6008 43.6322 10.566 43.7201 10.5441C43.8116 10.5184 43.8959 10.4891 43.9728 10.4562C44.1486 10.3793 44.2365 10.231 44.2365 10.0112V6.68237ZM59.3317 10.4232C60.0677 10.3866 60.5621 9.9801 60.8148 9.20374L61.3202 9.43445C61.0455 10.4415 60.3827 10.9908 59.3317 11.0824V10.4232ZM59.1669 5.36951C59.9213 5.42444 60.4871 5.72473 60.8643 6.27039C61.2012 6.75378 61.3696 7.40015 61.3696 8.20947H58.5406V7.64917H59.6777C59.6777 7.18042 59.6411 6.81055 59.5679 6.53955C59.4983 6.26489 59.3646 6.0946 59.1669 6.02869V5.36951ZM58.8428 11.0824C58.0481 11.0201 57.4072 10.7107 56.9202 10.1541C56.4661 9.6377 56.239 9.00232 56.239 8.24792C56.239 7.45691 56.4679 6.79224 56.9257 6.25391C57.3798 5.71558 57.9639 5.42078 58.678 5.36951V6.02869C58.4363 6.11292 58.266 6.33997 58.1671 6.70984C58.0719 7.07971 58.0243 7.49719 58.0243 7.96228C58.0243 8.42371 58.0353 8.76978 58.0573 9.00049C58.0829 9.22754 58.1268 9.43262 58.1891 9.61572C58.3173 10.0002 58.5352 10.2694 58.8428 10.4232V11.0824ZM68.8898 10.4836V3.96326C68.8898 3.76917 68.8037 3.6355 68.6316 3.56226C68.5583 3.53296 68.4796 3.50916 68.3954 3.49084C68.3112 3.46887 68.2343 3.43408 68.1647 3.38647V3.00745H70.5212V10.0771C70.5212 10.2676 70.6055 10.3976 70.7739 10.4672C70.8435 10.4965 70.9149 10.5221 70.9882 10.5441C71.0651 10.566 71.131 10.6008 71.1859 10.6484V11H68.9612L68.8898 10.4836ZM68.4009 10.9176C68.1812 11.0275 67.9156 11.0824 67.6044 11.0824C67.2931 11.0824 66.9965 11.011 66.7145 10.8682C66.4325 10.7217 66.1926 10.5239 65.9949 10.2749C65.5737 9.75854 65.3632 9.11401 65.3632 8.34131C65.3632 7.50635 65.6067 6.7959 66.0938 6.20996C66.5662 5.64966 67.1283 5.36951 67.7802 5.36951C68.0328 5.36951 68.2397 5.4043 68.4009 5.47388V6.1001C68.324 6.05249 68.2086 6.02869 68.0548 6.02869C67.9047 6.02869 67.771 6.08728 67.6538 6.20447C67.5403 6.32166 67.4487 6.47729 67.3792 6.67139C67.251 7.03394 67.1869 7.45508 67.1869 7.93481C67.1869 8.41455 67.196 8.79175 67.2144 9.06641C67.2327 9.34106 67.2729 9.5791 67.3352 9.78052C67.4634 10.209 67.7014 10.4232 68.0493 10.4232C68.2104 10.4232 68.3276 10.3903 68.4009 10.3243V10.9176ZM77.113 10.0771C77.113 10.2676 77.2009 10.3976 77.3767 10.4672C77.45 10.4965 77.5287 10.5221 77.6129 10.5441C77.6971 10.566 77.7759 10.6008 77.8491 10.6484V11H74.7565V10.6484C74.826 10.6008 74.903 10.566 74.9872 10.5441C75.0714 10.5221 75.1501 10.4965 75.2234 10.4672C75.3955 10.3976 75.4816 10.2676 75.4816 10.0771V6.43518C75.4816 6.23743 75.3955 6.10742 75.2234 6.04517C75.1501 6.01587 75.0714 5.99207 74.9872 5.97375C74.903 5.95178 74.826 5.91516 74.7565 5.86389V5.47937H77.113V10.0771ZM76.2012 4.82568C76.062 4.82568 75.9357 4.80005 75.8221 4.74878C75.7086 4.69751 75.6116 4.62793 75.531 4.54004C75.3625 4.35693 75.2783 4.13354 75.2783 3.86987C75.2783 3.61353 75.3625 3.39014 75.531 3.19971C75.7068 3.00562 75.9302 2.90857 76.2012 2.90857C76.4758 2.90857 76.701 3.00562 76.8768 3.19971C77.0453 3.39014 77.1295 3.61353 77.1295 3.86987C77.1295 4.13354 77.0453 4.35693 76.8768 4.54004C76.701 4.73047 76.4758 4.82568 76.2012 4.82568ZM86.1053 11.0824C85.5524 11.0824 85.1349 10.9561 84.8529 10.7034V7.44043C84.8529 6.97168 84.8328 6.66772 84.7925 6.52856C84.7192 6.25024 84.5691 6.08362 84.342 6.02869V5.36951C85.7739 5.42078 86.4899 6.06531 86.4899 7.3031V9.76404C86.4899 10.2035 86.5924 10.4232 86.7975 10.4232C86.9659 10.4232 87.0685 10.1998 87.1051 9.75305L87.5006 9.85193C87.4091 10.4708 87.1399 10.8535 86.6931 11C86.532 11.0549 86.3361 11.0824 86.1053 11.0824ZM84.364 10.8187C84.1553 10.9945 83.8806 11.0824 83.54 11.0824C83.2031 11.0824 82.923 11.0513 82.6996 10.989C82.4762 10.9231 82.2839 10.8279 82.1228 10.7034C81.7749 10.4324 81.601 10.0607 81.601 9.58826C81.601 9.04626 81.8536 8.6178 82.359 8.30286C82.7216 8.07581 83.3899 7.83044 84.364 7.56677V8.14905C83.7122 8.4054 83.3862 8.85583 83.3862 9.50037C83.3862 9.92151 83.4851 10.2053 83.6829 10.3518C83.7524 10.3994 83.8531 10.4232 83.985 10.4232C84.1168 10.4232 84.2432 10.3811 84.364 10.2969V10.8187ZM83.205 6.38025C83.454 6.49377 83.5785 6.66223 83.5785 6.88562C83.5785 7.1676 83.4155 7.35254 83.0896 7.44043C82.998 7.4624 82.9065 7.47339 82.8149 7.47339C82.5476 7.47339 82.3444 7.39832 82.2052 7.24817C82.066 7.09802 81.9965 6.92041 81.9965 6.71533C81.9965 6.50659 82.0367 6.32898 82.1173 6.1825C82.1979 6.03235 82.3169 5.89868 82.4744 5.78149C82.8149 5.53613 83.2745 5.3988 83.8531 5.36951V6.02869C83.5638 6.047 83.3478 6.16418 83.205 6.38025ZM100.025 11H97.4158V10.5935C97.5146 10.5532 97.6099 10.5239 97.7014 10.5056C97.7966 10.4836 97.8809 10.4543 97.9541 10.4177C98.1189 10.3372 98.2013 10.1833 98.2013 9.9563V4.2489C98.2013 4.01819 98.1189 3.86255 97.9541 3.78198C97.8809 3.74536 97.7966 3.7179 97.7014 3.69958C97.6099 3.67761 97.5146 3.64648 97.4158 3.6062V3.19421H100.025V11ZM102.453 4.53455C102.292 4.25989 102.085 4.05664 101.832 3.9248C101.58 3.78931 101.321 3.72156 101.058 3.72156C100.798 3.72156 100.616 3.72888 100.514 3.74353V3.19421H101.052C102.352 3.19421 103.348 3.59705 104.041 4.40271C104.656 5.12048 104.963 6.0177 104.963 7.09436C104.963 8.2113 104.645 9.125 104.008 9.83545C103.312 10.6118 102.347 11 101.113 11H100.514V10.4507C100.631 10.4653 100.814 10.4727 101.063 10.4727C101.312 10.4727 101.563 10.4177 101.816 10.3079C102.072 10.1943 102.283 10.0057 102.448 9.74207C102.766 9.23303 102.925 8.35046 102.925 7.09436C102.925 5.92615 102.768 5.07288 102.453 4.53455ZM111.989 10.4232C112.725 10.3866 113.22 9.9801 113.472 9.20374L113.978 9.43445C113.703 10.4415 113.04 10.9908 111.989 11.0824V10.4232ZM111.824 5.36951C112.579 5.42444 113.145 5.72473 113.522 6.27039C113.859 6.75378 114.027 7.40015 114.027 8.20947H111.198V7.64917H112.335C112.335 7.18042 112.299 6.81055 112.225 6.53955C112.156 6.26489 112.022 6.0946 111.824 6.02869V5.36951ZM111.5 11.0824C110.706 11.0201 110.065 10.7107 109.578 10.1541C109.124 9.6377 108.896 9.00232 108.896 8.24792C108.896 7.45691 109.125 6.79224 109.583 6.25391C110.037 5.71558 110.621 5.42078 111.335 5.36951V6.02869C111.094 6.11292 110.923 6.33997 110.825 6.70984C110.729 7.07971 110.682 7.49719 110.682 7.96228C110.682 8.42371 110.693 8.76978 110.715 9.00049C110.74 9.22754 110.784 9.43262 110.847 9.61572C110.975 10.0002 111.193 10.2694 111.5 10.4232V11.0824ZM120.119 6.02869C119.782 6.12024 119.614 6.27954 119.614 6.50659C119.614 6.8728 119.934 7.17859 120.575 7.42395C121.08 7.61804 121.437 7.77002 121.646 7.87988C121.859 7.98608 122.036 8.10327 122.179 8.23145C122.498 8.52441 122.657 8.88879 122.657 9.32458C122.657 9.84094 122.461 10.2548 122.069 10.566C121.688 10.8663 121.201 11.0385 120.608 11.0824V10.4232C120.992 10.3317 121.185 10.1193 121.185 9.78601C121.185 9.44177 120.87 9.14697 120.24 8.90161C119.745 8.71118 119.394 8.56287 119.185 8.45667C118.98 8.35046 118.808 8.23511 118.669 8.1106C118.358 7.83228 118.202 7.48987 118.202 7.08337C118.202 6.64392 118.389 6.25391 118.762 5.91333C119.139 5.57275 119.592 5.39148 120.119 5.36951V6.02869ZM121.624 6.14404C121.544 6.11108 121.205 6.07263 120.608 6.02869V5.36951C121.245 5.39514 121.743 5.54712 122.102 5.82544C122.402 6.05981 122.552 6.31982 122.552 6.60547C122.552 6.96069 122.417 7.19507 122.146 7.30859C122.051 7.34521 121.919 7.36353 121.75 7.36353C121.582 7.36353 121.443 7.31042 121.333 7.20422C121.227 7.09436 121.174 6.96069 121.174 6.80322C121.174 6.53589 121.324 6.31616 121.624 6.14404ZM119.174 10.2694C119.269 10.3536 119.584 10.4049 120.119 10.4232V11.0824C119.511 11.0348 119.033 10.8737 118.685 10.599C118.392 10.3646 118.246 10.0973 118.246 9.797C118.246 9.59924 118.301 9.43811 118.411 9.3136C118.521 9.18542 118.687 9.12134 118.911 9.12134C119.134 9.12134 119.299 9.17078 119.405 9.26965C119.515 9.36853 119.57 9.4967 119.57 9.65417C119.57 9.92883 119.438 10.1339 119.174 10.2694ZM128.716 10.0771C128.716 10.2676 128.804 10.3976 128.979 10.4672C129.053 10.4965 129.131 10.5221 129.216 10.5441C129.3 10.566 129.379 10.6008 129.452 10.6484V11H126.359V10.6484C126.429 10.6008 126.506 10.566 126.59 10.5441C126.674 10.5221 126.753 10.4965 126.826 10.4672C126.998 10.3976 127.084 10.2676 127.084 10.0771V6.43518C127.084 6.23743 126.998 6.10742 126.826 6.04517C126.753 6.01587 126.674 5.99207 126.59 5.97375C126.506 5.95178 126.429 5.91516 126.359 5.86389V5.47937H128.716V10.0771ZM127.804 4.82568C127.665 4.82568 127.538 4.80005 127.425 4.74878C127.311 4.69751 127.214 4.62793 127.134 4.54004C126.965 4.35693 126.881 4.13354 126.881 3.86987C126.881 3.61353 126.965 3.39014 127.134 3.19971C127.31 3.00562 127.533 2.90857 127.804 2.90857C128.079 2.90857 128.304 3.00562 128.48 3.19971C128.648 3.39014 128.732 3.61353 128.732 3.86987C128.732 4.13354 128.648 4.35693 128.48 4.54004C128.304 4.73047 128.079 4.82568 127.804 4.82568ZM133.808 10.8682C133.438 10.751 133.253 10.5496 133.253 10.2639C133.253 9.95996 133.469 9.65601 133.901 9.35205L134.528 9.5498C134.385 9.65967 134.313 9.86108 134.313 10.1541C135.855 10.1541 136.915 10.2749 137.494 10.5166C137.787 10.6375 137.99 10.7931 138.104 10.9835C138.217 11.1703 138.274 11.3937 138.274 11.6537C138.274 11.9137 138.208 12.1517 138.076 12.3678C137.948 12.5839 137.774 12.7706 137.554 12.9281C137.097 13.2577 136.534 13.4371 135.868 13.4664V12.9336C136.392 12.9116 136.729 12.7175 136.879 12.3513C136.923 12.2451 136.945 12.1316 136.945 12.0107C136.945 11.791 136.833 11.6097 136.609 11.4669C136.386 11.3241 136.11 11.2527 135.78 11.2527C135.267 11.2527 134.896 11.2692 134.665 11.3021C134.61 11.4376 134.583 11.5878 134.583 11.7526V12.0767C134.583 12.3147 134.639 12.507 134.753 12.6534C134.866 12.7999 135.075 12.8896 135.379 12.9226V13.4609C134.518 13.4133 133.945 13.0819 133.66 12.4667C133.561 12.2543 133.511 11.9961 133.511 11.6921C133.511 11.3882 133.61 11.1135 133.808 10.8682ZM137.549 5.03992C137.314 5.03992 137.197 5.1864 137.197 5.47937C137.197 5.62585 137.216 5.72107 137.252 5.76501C137.292 5.80896 137.333 5.84741 137.373 5.88037C137.417 5.91333 137.494 5.98291 137.604 6.08911C137.838 6.31982 137.955 6.70435 137.955 7.24268C137.955 7.83228 137.75 8.31201 137.34 8.68188C136.948 9.03711 136.458 9.23303 135.868 9.26965V8.7478C136.055 8.68555 136.183 8.5354 136.252 8.29736C136.326 8.05933 136.362 7.72424 136.362 7.29211C136.362 6.85999 136.326 6.53589 136.252 6.31982C136.179 6.10376 136.051 5.96826 135.868 5.91333V5.36951C136.19 5.38049 136.456 5.42261 136.664 5.49585C136.664 4.9978 136.897 4.66455 137.362 4.49609C137.509 4.44116 137.672 4.4137 137.851 4.4137C138.034 4.4137 138.19 4.4375 138.318 4.48511C138.45 4.52905 138.558 4.59131 138.642 4.67188C138.803 4.82202 138.884 5.01428 138.884 5.24866C138.884 5.48303 138.82 5.65881 138.691 5.776C138.567 5.89319 138.402 5.95178 138.197 5.95178C137.992 5.95178 137.825 5.89502 137.697 5.78149C137.573 5.66797 137.51 5.52332 137.51 5.34753C137.51 5.28162 137.52 5.22485 137.538 5.17725C137.56 5.12598 137.571 5.09119 137.571 5.07288C137.571 5.0509 137.563 5.03992 137.549 5.03992ZM135.379 9.28064C134.284 9.24768 133.608 8.88696 133.352 8.19849C133.26 7.96045 133.215 7.6803 133.215 7.35803C133.215 7.03577 133.266 6.75745 133.369 6.52307C133.475 6.28503 133.623 6.08545 133.813 5.92432C134.191 5.59839 134.713 5.41345 135.379 5.36951V5.91333C135.163 5.94995 135.013 6.07263 134.929 6.28137C134.848 6.48279 134.808 6.81421 134.808 7.27563C134.808 7.73706 134.85 8.08862 134.934 8.33032C135.018 8.57202 135.167 8.71667 135.379 8.76428V9.28064ZM145.102 5.72107C145.391 5.48669 145.69 5.36951 145.997 5.36951C146.305 5.36951 146.556 5.4043 146.75 5.47388C146.948 5.54346 147.114 5.646 147.25 5.78149C147.539 6.0708 147.684 6.47546 147.684 6.99548V9.84644C147.684 10.2126 147.766 10.4196 147.931 10.4672C147.982 10.4818 148.033 10.4946 148.085 10.5056C148.228 10.5349 148.332 10.5825 148.398 10.6484V11H145.789V10.6155C145.789 10.5349 145.818 10.469 145.876 10.4177C145.939 10.3665 145.983 10.3225 146.008 10.2859C146.038 10.2456 146.052 10.1833 146.052 10.0991V7.05042C146.052 6.67322 146.027 6.43152 145.975 6.32532C145.887 6.12756 145.75 6.02869 145.563 6.02869C145.377 6.02869 145.223 6.07446 145.102 6.16602V5.72107ZM144.613 9.84644C144.613 10.209 144.69 10.4159 144.844 10.4672C144.891 10.4818 144.941 10.4946 144.992 10.5056C145.128 10.5349 145.228 10.5825 145.294 10.6484V11H142.267V10.6484C142.33 10.6008 142.401 10.566 142.482 10.5441C142.566 10.5221 142.645 10.4965 142.718 10.4672C142.894 10.3976 142.982 10.2676 142.982 10.0771V6.68237C142.982 6.42236 142.921 6.23376 142.8 6.11658C142.705 6.02136 142.527 5.93713 142.267 5.86389V5.47937H144.613V9.84644ZM155.209 10.4232C155.945 10.3866 156.44 9.9801 156.693 9.20374L157.198 9.43445C156.923 10.4415 156.26 10.9908 155.209 11.0824V10.4232ZM155.045 5.36951C155.799 5.42444 156.365 5.72473 156.742 6.27039C157.079 6.75378 157.247 7.40015 157.247 8.20947H154.418V7.64917H155.555C155.555 7.18042 155.519 6.81055 155.446 6.53955C155.376 6.26489 155.242 6.0946 155.045 6.02869V5.36951ZM154.72 11.0824C153.926 11.0201 153.285 10.7107 152.798 10.1541C152.344 9.6377 152.117 9.00232 152.117 8.24792C152.117 7.45691 152.346 6.79224 152.803 6.25391C153.257 5.71558 153.842 5.42078 154.556 5.36951V6.02869C154.314 6.11292 154.144 6.33997 154.045 6.70984C153.95 7.07971 153.902 7.49719 153.902 7.96228C153.902 8.42371 153.913 8.76978 153.935 9.00049C153.961 9.22754 154.005 9.43262 154.067 9.61572C154.195 10.0002 154.413 10.2694 154.72 10.4232V11.0824ZM164.471 6.43518C164.302 6.43518 164.13 6.62378 163.954 7.00098L163.922 5.95178C164.222 5.5636 164.606 5.36951 165.075 5.36951C165.35 5.36951 165.584 5.47021 165.778 5.67163C165.961 5.86206 166.053 6.08362 166.053 6.3363C166.053 6.60364 165.976 6.82886 165.822 7.01196C165.661 7.20605 165.456 7.3031 165.207 7.3031C164.954 7.3031 164.762 7.20972 164.63 7.02295C164.524 6.86548 164.471 6.66956 164.471 6.43518ZM163.383 5.47937C163.46 6.34363 163.499 7.31592 163.499 8.39624V10.0222C163.499 10.2163 163.588 10.3536 163.768 10.4342C163.848 10.4708 163.936 10.5038 164.031 10.5331C164.13 10.5624 164.227 10.6008 164.323 10.6484V11H161.142V10.6484C161.212 10.6008 161.288 10.566 161.373 10.5441C161.457 10.5221 161.536 10.4965 161.609 10.4672C161.781 10.3976 161.867 10.2676 161.867 10.0771V6.43518C161.867 6.23376 161.781 6.1001 161.609 6.03418C161.536 6.00854 161.457 5.98657 161.373 5.96826C161.288 5.94995 161.212 5.91516 161.142 5.86389V5.47937H163.383Z" fill="#0000FF"/>
<path d="M1.78875 20.5562C1.75125 20.5562 1.7175 20.545 1.6875 20.5225C1.665 20.4925 1.65375 20.4587 1.65375 20.4212V19.3525C1.65375 19.33 1.64625 19.315 1.63125 19.3075C1.61625 19.3 1.60125 19.3037 1.58625 19.3188L0.675 19.8587C0.645 19.8737 0.6225 19.8812 0.6075 19.8812C0.5625 19.8812 0.525 19.855 0.495 19.8025L0.25875 19.3637C0.24375 19.3337 0.23625 19.3112 0.23625 19.2962C0.23625 19.2512 0.25875 19.2137 0.30375 19.1837L1.26 18.6212C1.275 18.6062 1.2825 18.5912 1.2825 18.5762C1.2825 18.5612 1.275 18.55 1.26 18.5425L0.30375 17.9912C0.23625 17.9462 0.22125 17.8862 0.25875 17.8112L0.495 17.35C0.51 17.3125 0.53625 17.29 0.57375 17.2825C0.61125 17.2675 0.64875 17.2712 0.68625 17.2937L1.58625 17.845C1.60125 17.86 1.61625 17.8637 1.63125 17.8562C1.64625 17.8487 1.65375 17.8337 1.65375 17.8112V16.7425C1.65375 16.705 1.665 16.675 1.6875 16.6525C1.7175 16.6225 1.75125 16.6075 1.78875 16.6075H2.28375C2.32125 16.6075 2.35125 16.6225 2.37375 16.6525C2.40375 16.675 2.41875 16.705 2.41875 16.7425L2.4075 17.8112C2.4075 17.8337 2.415 17.8487 2.43 17.8562C2.445 17.8637 2.46 17.86 2.475 17.845L3.375 17.2937C3.405 17.2787 3.4275 17.2712 3.4425 17.2712C3.495 17.2712 3.53625 17.2975 3.56625 17.35L3.8025 17.8112C3.8175 17.8412 3.825 17.8637 3.825 17.8787C3.825 17.9162 3.8025 17.9537 3.7575 17.9912L2.8125 18.5425C2.7975 18.55 2.79 18.5612 2.79 18.5762C2.79 18.5912 2.7975 18.6062 2.8125 18.6212L3.7575 19.1837C3.8325 19.2287 3.85125 19.2887 3.81375 19.3637L3.56625 19.825C3.54375 19.8625 3.51375 19.885 3.47625 19.8925C3.44625 19.9 3.4125 19.8925 3.375 19.87L2.475 19.3188C2.46 19.3037 2.445 19.3 2.43 19.3075C2.415 19.315 2.4075 19.33 2.4075 19.3525L2.41875 20.4212C2.41875 20.4587 2.40375 20.4925 2.37375 20.5225C2.35125 20.545 2.32125 20.5562 2.28375 20.5562H1.78875ZM8.58744 18.115C8.58744 18.1525 8.57244 18.1862 8.54244 18.2162C8.51994 18.2387 8.48994 18.25 8.45244 18.25H6.03369C5.99619 18.25 5.97744 18.2687 5.97744 18.3062V20.4325C5.97744 20.47 5.99619 20.4887 6.03369 20.4887H7.46244C7.49994 20.4887 7.52994 20.5037 7.55244 20.5337C7.58244 20.5562 7.59744 20.5862 7.59744 20.6237V21.49C7.59744 21.5275 7.58244 21.5612 7.55244 21.5912C7.52994 21.6137 7.49994 21.625 7.46244 21.625H6.03369C5.99619 21.625 5.97744 21.6437 5.97744 21.6812V24.865C5.97744 24.9025 5.96244 24.9362 5.93244 24.9662C5.90994 24.9887 5.87994 25 5.84244 25H4.80744C4.76994 25 4.73619 24.9887 4.70619 24.9662C4.68369 24.9362 4.67244 24.9025 4.67244 24.865V17.26C4.67244 17.2225 4.68369 17.1925 4.70619 17.17C4.73619 17.14 4.76994 17.125 4.80744 17.125H8.45244C8.48994 17.125 8.51994 17.14 8.54244 17.17C8.57244 17.1925 8.58744 17.2225 8.58744 17.26V18.115ZM11.6746 19.3862C11.6746 19.3487 11.6858 19.3187 11.7083 19.2962C11.7383 19.2662 11.7721 19.2512 11.8096 19.2512H12.8446C12.8821 19.2512 12.9121 19.2662 12.9346 19.2962C12.9646 19.3187 12.9796 19.3487 12.9796 19.3862V24.865C12.9796 24.9025 12.9646 24.9362 12.9346 24.9662C12.9121 24.9887 12.8821 25 12.8446 25H11.8096C11.7721 25 11.7383 24.9887 11.7083 24.9662C11.6858 24.9362 11.6746 24.9025 11.6746 24.865V24.6175C11.6746 24.595 11.6671 24.58 11.6521 24.5725C11.6371 24.565 11.6221 24.5725 11.6071 24.595C11.3896 24.9175 11.0408 25.0788 10.5608 25.0788C10.1033 25.0788 9.7321 24.9437 9.4471 24.6737C9.1696 24.3962 9.03085 23.9725 9.03085 23.4025V19.3862C9.03085 19.3487 9.0421 19.3187 9.0646 19.2962C9.0946 19.2662 9.12835 19.2512 9.16585 19.2512H10.2008C10.2383 19.2512 10.2683 19.2662 10.2908 19.2962C10.3208 19.3187 10.3358 19.3487 10.3358 19.3862V23.1212C10.3358 23.6837 10.5533 23.965 10.9883 23.965C11.2058 23.965 11.3746 23.8862 11.4946 23.7287C11.6146 23.5637 11.6746 23.3425 11.6746 23.065V19.3862ZM14.0987 25C14.0612 25 14.0275 24.9887 13.9975 24.9662C13.975 24.9362 13.9637 24.9025 13.9637 24.865V17.26C13.9637 17.2225 13.975 17.1925 13.9975 17.17C14.0275 17.14 14.0612 17.125 14.0987 17.125H15.1337C15.1712 17.125 15.2012 17.14 15.2237 17.17C15.2537 17.1925 15.2687 17.2225 15.2687 17.26V24.865C15.2687 24.9025 15.2537 24.9362 15.2237 24.9662C15.2012 24.9887 15.1712 25 15.1337 25H14.0987ZM16.3399 25C16.3024 25 16.2687 24.9887 16.2387 24.9662C16.2162 24.9362 16.2049 24.9025 16.2049 24.865V17.26C16.2049 17.2225 16.2162 17.1925 16.2387 17.17C16.2687 17.14 16.3024 17.125 16.3399 17.125H17.3749C17.4124 17.125 17.4424 17.14 17.4649 17.17C17.4949 17.1925 17.5099 17.2225 17.5099 17.26V24.865C17.5099 24.9025 17.4949 24.9362 17.4649 24.9662C17.4424 24.9887 17.4124 25 17.3749 25H16.3399ZM24.8721 17.125C24.9096 17.125 24.9396 17.14 24.9621 17.17C24.9921 17.1925 25.0071 17.2225 25.0071 17.26V18.115C25.0071 18.1525 24.9921 18.1862 24.9621 18.2162C24.9396 18.2387 24.9096 18.25 24.8721 18.25H23.4433C23.4058 18.25 23.3871 18.2687 23.3871 18.3062V24.865C23.3871 24.9025 23.3721 24.9362 23.3421 24.9662C23.3196 24.9887 23.2896 25 23.2521 25H22.2171C22.1796 25 22.1458 24.9887 22.1158 24.9662C22.0933 24.9362 22.0821 24.9025 22.0821 24.865V18.3062C22.0821 18.2687 22.0633 18.25 22.0258 18.25H20.6758C20.6383 18.25 20.6046 18.2387 20.5746 18.2162C20.5521 18.1862 20.5408 18.1525 20.5408 18.115V17.26C20.5408 17.2225 20.5521 17.1925 20.5746 17.17C20.6046 17.14 20.6383 17.125 20.6758 17.125H24.8721ZM26.5163 18.4637C26.2838 18.4637 26.0925 18.3887 25.9425 18.2387C25.7925 18.0887 25.7175 17.8975 25.7175 17.665C25.7175 17.4325 25.7925 17.2412 25.9425 17.0912C26.0925 16.9412 26.2838 16.8662 26.5163 16.8662C26.7488 16.8662 26.9363 16.9412 27.0788 17.0912C27.2288 17.2412 27.3038 17.4325 27.3038 17.665C27.3038 17.8975 27.2288 18.0887 27.0788 18.2387C26.9288 18.3887 26.7413 18.4637 26.5163 18.4637ZM26.01 25C25.9725 25 25.9388 24.9887 25.9088 24.9662C25.8863 24.9362 25.875 24.9025 25.875 24.865V19.3862C25.875 19.3487 25.8863 19.3187 25.9088 19.2962C25.9388 19.2662 25.9725 19.2512 26.01 19.2512H27.045C27.0825 19.2512 27.1125 19.2662 27.135 19.2962C27.165 19.3187 27.18 19.3487 27.18 19.3862V24.865C27.18 24.9025 27.165 24.9362 27.135 24.9662C27.1125 24.9887 27.0825 25 27.045 25H26.01ZM33.2532 19.1612C33.7407 19.1612 34.1082 19.3337 34.3557 19.6787C34.6107 20.0162 34.7382 20.4887 34.7382 21.0962V24.865C34.7382 24.9025 34.7232 24.9362 34.6932 24.9662C34.6707 24.9887 34.6407 25 34.6032 25H33.5795C33.542 25 33.5082 24.9887 33.4782 24.9662C33.4557 24.9362 33.4445 24.9025 33.4445 24.865V21.1862C33.4445 20.9012 33.3882 20.68 33.2757 20.5225C33.1632 20.365 33.0095 20.2862 32.8145 20.2862C32.6045 20.2862 32.4395 20.365 32.3195 20.5225C32.1995 20.68 32.1395 20.8975 32.1395 21.175V24.865C32.1395 24.9025 32.1245 24.9362 32.0945 24.9662C32.072 24.9887 32.042 25 32.0045 25H30.9807C30.9432 25 30.9095 24.9887 30.8795 24.9662C30.857 24.9362 30.8457 24.9025 30.8457 24.865V21.1862C30.8457 20.9012 30.7857 20.68 30.6657 20.5225C30.5532 20.365 30.4032 20.2862 30.2157 20.2862C30.0057 20.2862 29.8407 20.365 29.7207 20.5225C29.6007 20.68 29.5407 20.8975 29.5407 21.175V24.865C29.5407 24.9025 29.5257 24.9362 29.4957 24.9662C29.4732 24.9887 29.4432 25 29.4057 25H28.382C28.3445 25 28.3107 24.9887 28.2807 24.9662C28.2582 24.9362 28.247 24.9025 28.247 24.865V19.3862C28.247 19.3487 28.2582 19.3187 28.2807 19.2962C28.3107 19.2662 28.3445 19.2512 28.382 19.2512H29.4057C29.4432 19.2512 29.4732 19.2662 29.4957 19.2962C29.5257 19.3187 29.5407 19.3487 29.5407 19.3862V19.5662C29.5407 19.5887 29.5482 19.6037 29.5632 19.6112C29.5782 19.6187 29.5932 19.6112 29.6082 19.5887C29.7582 19.4387 29.927 19.33 30.1145 19.2625C30.302 19.195 30.4857 19.1612 30.6657 19.1612C31.2207 19.1612 31.6295 19.3975 31.892 19.87C31.9145 19.9 31.9482 19.8887 31.9932 19.8362C32.1432 19.5962 32.3307 19.4237 32.5557 19.3188C32.7882 19.2137 33.0207 19.1612 33.2532 19.1612ZM39.6212 22.4687C39.6212 22.5062 39.6062 22.54 39.5762 22.57C39.5537 22.5925 39.5237 22.6037 39.4862 22.6037H36.9999C36.9624 22.6037 36.9437 22.6225 36.9437 22.66V23.1662C36.9437 23.3987 37.0074 23.59 37.1349 23.74C37.2624 23.89 37.4274 23.965 37.6299 23.965C37.8024 23.965 37.9487 23.9125 38.0687 23.8075C38.1962 23.695 38.2787 23.5525 38.3162 23.38C38.3387 23.305 38.3874 23.2675 38.4624 23.2675L39.4637 23.3125C39.5012 23.3125 39.5312 23.3275 39.5537 23.3575C39.5837 23.38 39.5949 23.4137 39.5874 23.4587C39.5349 23.9837 39.3437 24.3887 39.0137 24.6737C38.6837 24.9512 38.2224 25.09 37.6299 25.09C37.0149 25.09 36.5274 24.9288 36.1674 24.6062C35.8149 24.2762 35.6387 23.83 35.6387 23.2675V20.9837C35.6387 20.4362 35.8149 19.9975 36.1674 19.6675C36.5274 19.33 37.0149 19.1612 37.6299 19.1612C38.2449 19.1612 38.7287 19.33 39.0812 19.6675C39.4412 19.9975 39.6212 20.4362 39.6212 20.9837V22.4687ZM37.6299 20.2862C37.4274 20.2862 37.2624 20.3612 37.1349 20.5112C37.0074 20.6612 36.9437 20.8525 36.9437 21.085V21.5912C36.9437 21.6287 36.9624 21.6475 36.9999 21.6475H38.2712C38.3087 21.6475 38.3274 21.6287 38.3274 21.5912V21.085C38.3274 20.845 38.2637 20.6537 38.1362 20.5112C38.0087 20.3612 37.8399 20.2862 37.6299 20.2862ZM42.7709 25.9C42.6959 25.9 42.6584 25.8625 42.6584 25.7875V16.5625C42.6584 16.4875 42.6959 16.45 42.7709 16.45H43.3447C43.4197 16.45 43.4572 16.4875 43.4572 16.5625V25.7875C43.4572 25.8625 43.4197 25.9 43.3447 25.9H42.7709ZM48.8881 17.1137C49.4356 17.1137 49.8781 17.3162 50.2156 17.7212C50.5531 18.1187 50.7219 18.6437 50.7219 19.2962C50.7219 19.9412 50.5569 20.4625 50.2269 20.86C49.8969 21.25 49.4619 21.445 48.9219 21.445H47.7631C47.7331 21.445 47.7181 21.46 47.7181 21.49V24.8875C47.7181 24.9625 47.6806 25 47.6056 25H47.0319C46.9569 25 46.9194 24.9625 46.9194 24.8875V17.2262C46.9194 17.1512 46.9569 17.1137 47.0319 17.1137H48.8881ZM48.7869 20.7925C49.1244 20.7925 49.3981 20.6575 49.6081 20.3875C49.8181 20.1175 49.9231 19.7575 49.9231 19.3075C49.9231 18.8575 49.8181 18.4975 49.6081 18.2275C49.3981 17.95 49.1244 17.8112 48.7869 17.8112H47.7631C47.7331 17.8112 47.7181 17.8262 47.7181 17.8562V20.7475C47.7181 20.7775 47.7331 20.7925 47.7631 20.7925H48.7869ZM53.8087 19.2287C54.2662 19.2287 54.6187 19.3862 54.8662 19.7012C55.1212 20.0162 55.2487 20.455 55.2487 21.0175V24.8875C55.2487 24.9625 55.2112 25 55.1362 25H54.5624C54.4874 25 54.4499 24.9625 54.4499 24.8875V21.085C54.4499 20.7175 54.3674 20.4325 54.2024 20.23C54.0449 20.0275 53.8237 19.9262 53.5387 19.9262C53.2387 19.9262 53.0024 20.035 52.8299 20.2525C52.6649 20.47 52.5824 20.7662 52.5824 21.1412V24.8875C52.5824 24.9625 52.5449 25 52.4699 25H51.8962C51.8212 25 51.7837 24.9625 51.7837 24.8875V17.2375C51.7837 17.1625 51.8212 17.125 51.8962 17.125H52.4699C52.5449 17.125 52.5824 17.1625 52.5824 17.2375V19.78C52.5824 19.795 52.5899 19.8062 52.6049 19.8137C52.6199 19.8212 52.6312 19.8137 52.6387 19.7912C52.7737 19.6037 52.9424 19.465 53.1449 19.375C53.3549 19.2775 53.5762 19.2287 53.8087 19.2287ZM56.3275 27.25C56.3125 27.25 56.2975 27.2388 56.2825 27.2163C56.2675 27.1938 56.26 27.1675 56.26 27.1375V26.6875C56.26 26.6125 56.2975 26.575 56.3725 26.575C56.605 26.5675 56.785 26.5225 56.9125 26.44C57.0475 26.3575 57.1563 26.2113 57.2388 26.0013C57.3213 25.7913 57.4038 25.4688 57.4863 25.0338C57.4938 25.0188 57.4938 25.0075 57.4863 25C57.4863 24.985 57.4863 24.9737 57.4863 24.9662L56.0575 19.4312L56.0463 19.3975C56.0463 19.3375 56.0838 19.3075 56.1588 19.3075H56.7663C56.8413 19.3075 56.8825 19.3412 56.89 19.4087L57.88 23.83C57.8875 23.8525 57.895 23.8637 57.9025 23.8637C57.91 23.8637 57.9175 23.8525 57.925 23.83L58.9038 19.4087C58.9188 19.3412 58.96 19.3075 59.0275 19.3075L59.6575 19.3188C59.695 19.3188 59.7213 19.33 59.7363 19.3525C59.7588 19.375 59.7625 19.405 59.7475 19.4425L58.1838 25.495C58.0488 25.9975 57.9138 26.3688 57.7788 26.6088C57.6513 26.8488 57.4825 27.0138 57.2725 27.1038C57.0625 27.2013 56.7663 27.25 56.3838 27.25H56.3275ZM62.2597 19.2175C62.7847 19.2175 63.2047 19.39 63.5197 19.735C63.8347 20.0725 63.9922 20.5262 63.9922 21.0962V24.8875C63.9922 24.9625 63.9547 25 63.8797 25H63.3059C63.2309 25 63.1934 24.9625 63.1934 24.8875V24.55C63.1934 24.535 63.1859 24.5275 63.1709 24.5275C63.1634 24.52 63.1522 24.5237 63.1372 24.5387C62.8597 24.9062 62.4434 25.09 61.8884 25.09C61.4759 25.09 61.1159 24.9737 60.8084 24.7412C60.5084 24.5012 60.3584 24.0812 60.3584 23.4812C60.3584 22.8437 60.5422 22.3787 60.9097 22.0862C61.2772 21.7862 61.7609 21.6362 62.3609 21.6362H63.1484C63.1784 21.6362 63.1934 21.6212 63.1934 21.5912V21.1525C63.1934 20.7775 63.1072 20.4775 62.9347 20.2525C62.7622 20.0275 62.5297 19.915 62.2372 19.915C62.0122 19.915 61.8172 19.99 61.6522 20.14C61.4947 20.29 61.4009 20.4812 61.3709 20.7137C61.3709 20.7887 61.3334 20.8262 61.2584 20.8262L60.6284 20.815C60.5909 20.815 60.5609 20.8037 60.5384 20.7812C60.5234 20.7587 60.5197 20.7325 60.5272 20.7025C60.5647 20.26 60.7447 19.9037 61.0672 19.6337C61.3897 19.3562 61.7872 19.2175 62.2597 19.2175ZM62.0572 24.3925C62.3647 24.3925 62.6309 24.295 62.8559 24.1C63.0809 23.8975 63.1934 23.62 63.1934 23.2675V22.3225C63.1934 22.2925 63.1784 22.2775 63.1484 22.2775H62.3497C61.9897 22.2775 61.7047 22.375 61.4947 22.57C61.2847 22.7575 61.1797 23.0387 61.1797 23.4137C61.1797 23.7437 61.2584 23.9912 61.4159 24.1562C61.5809 24.3137 61.7947 24.3925 62.0572 24.3925ZM67.2444 19.7912C67.2444 19.8662 67.2069 19.9037 67.1319 19.9037H66.2769C66.2469 19.9037 66.2319 19.9187 66.2319 19.9487V23.3912C66.2319 23.7362 66.2919 23.9762 66.4119 24.1112C66.5319 24.2387 66.7157 24.2987 66.9632 24.2912H67.0757C67.1507 24.2912 67.1882 24.3287 67.1882 24.4037V24.8875C67.1882 24.9625 67.1507 25 67.0757 25H66.7944C66.3519 25 66.0144 24.9062 65.7819 24.7187C65.5569 24.5237 65.4444 24.16 65.4444 23.6275V19.9487C65.4444 19.9187 65.4294 19.9037 65.3994 19.9037H64.9607C64.8857 19.9037 64.8482 19.8662 64.8482 19.7912V19.42C64.8482 19.345 64.8857 19.3075 64.9607 19.3075H65.3994C65.4294 19.3075 65.4444 19.2925 65.4444 19.2625V18.0025C65.4444 17.9275 65.4819 17.89 65.5569 17.89H66.1194C66.1944 17.89 66.2319 17.9275 66.2319 18.0025V19.2625C66.2319 19.2925 66.2469 19.3075 66.2769 19.3075H67.1319C67.2069 19.3075 67.2444 19.345 67.2444 19.42V19.7912ZM70.2662 19.2287C70.7237 19.2287 71.0762 19.3862 71.3237 19.7012C71.5787 20.0162 71.7062 20.455 71.7062 21.0175V24.8875C71.7062 24.9625 71.6687 25 71.5937 25H71.0199C70.9449 25 70.9074 24.9625 70.9074 24.8875V21.085C70.9074 20.7175 70.8249 20.4325 70.6599 20.23C70.5024 20.0275 70.2812 19.9262 69.9962 19.9262C69.6962 19.9262 69.4599 20.035 69.2874 20.2525C69.1224 20.47 69.0399 20.7662 69.0399 21.1412V24.8875C69.0399 24.9625 69.0024 25 68.9274 25H68.3537C68.2787 25 68.2412 24.9625 68.2412 24.8875V17.2375C68.2412 17.1625 68.2787 17.125 68.3537 17.125H68.9274C69.0024 17.125 69.0399 17.1625 69.0399 17.2375V19.78C69.0399 19.795 69.0474 19.8062 69.0624 19.8137C69.0774 19.8212 69.0887 19.8137 69.0962 19.7912C69.2312 19.6037 69.3999 19.465 69.6024 19.375C69.8124 19.2775 70.0337 19.2287 70.2662 19.2287ZM74.6742 19.2175C75.1992 19.2175 75.6192 19.39 75.9342 19.735C76.2492 20.0725 76.4067 20.5262 76.4067 21.0962V24.8875C76.4067 24.9625 76.3692 25 76.2942 25H75.7205C75.6455 25 75.608 24.9625 75.608 24.8875V24.55C75.608 24.535 75.6005 24.5275 75.5855 24.5275C75.578 24.52 75.5667 24.5237 75.5517 24.5387C75.2742 24.9062 74.858 25.09 74.303 25.09C73.8905 25.09 73.5305 24.9737 73.223 24.7412C72.923 24.5012 72.773 24.0812 72.773 23.4812C72.773 22.8437 72.9567 22.3787 73.3242 22.0862C73.6917 21.7862 74.1755 21.6362 74.7755 21.6362H75.563C75.593 21.6362 75.608 21.6212 75.608 21.5912V21.1525C75.608 20.7775 75.5217 20.4775 75.3492 20.2525C75.1767 20.0275 74.9442 19.915 74.6517 19.915C74.4267 19.915 74.2317 19.99 74.0667 20.14C73.9092 20.29 73.8155 20.4812 73.7855 20.7137C73.7855 20.7887 73.748 20.8262 73.673 20.8262L73.043 20.815C73.0055 20.815 72.9755 20.8037 72.953 20.7812C72.938 20.7587 72.9342 20.7325 72.9417 20.7025C72.9792 20.26 73.1592 19.9037 73.4817 19.6337C73.8042 19.3562 74.2017 19.2175 74.6742 19.2175ZM74.4717 24.3925C74.7792 24.3925 75.0455 24.295 75.2705 24.1C75.4955 23.8975 75.608 23.62 75.608 23.2675V22.3225C75.608 22.2925 75.593 22.2775 75.563 22.2775H74.7642C74.4042 22.2775 74.1192 22.375 73.9092 22.57C73.6992 22.7575 73.5942 23.0387 73.5942 23.4137C73.5942 23.7437 73.673 23.9912 73.8305 24.1562C73.9955 24.3137 74.2092 24.3925 74.4717 24.3925ZM78.1402 18.2725C77.9527 18.2725 77.799 18.2125 77.679 18.0925C77.5665 17.9725 77.5102 17.8225 77.5102 17.6425C77.5102 17.455 77.5665 17.305 77.679 17.1925C77.799 17.0725 77.9527 17.0125 78.1402 17.0125C78.3202 17.0125 78.4665 17.0725 78.579 17.1925C78.699 17.305 78.759 17.455 78.759 17.6425C78.759 17.8225 78.699 17.9725 78.579 18.0925C78.4665 18.2125 78.3202 18.2725 78.1402 18.2725ZM77.859 25C77.784 25 77.7465 24.9625 77.7465 24.8875V19.42C77.7465 19.345 77.784 19.3075 77.859 19.3075H78.4327C78.5077 19.3075 78.5452 19.345 78.5452 19.42V24.8875C78.5452 24.9625 78.5077 25 78.4327 25H77.859ZM87.0975 24.865C87.1125 24.88 87.12 24.9025 87.12 24.9325C87.12 24.9475 87.1125 24.9625 87.0975 24.9775C87.0825 24.9925 87.06 25 87.03 25H86.4225C86.3625 25 86.3175 24.9775 86.2875 24.9325L85.8263 24.2575C85.8188 24.2425 85.8075 24.235 85.7925 24.235C85.7775 24.235 85.7663 24.2387 85.7588 24.2462C85.4813 24.5462 85.1925 24.7637 84.8925 24.8987C84.6 25.0338 84.27 25.1013 83.9025 25.1013C83.325 25.1013 82.8675 24.94 82.53 24.6175C82.1925 24.295 82.0238 23.8375 82.0238 23.245C82.0238 22.7425 82.1438 22.3075 82.3838 21.94C82.6238 21.565 82.9538 21.2012 83.3738 20.8487C83.3963 20.8412 83.4 20.8225 83.385 20.7925C83.115 20.3875 82.9163 20.0762 82.7888 19.8587C82.6613 19.6337 82.575 19.4462 82.53 19.2962C82.4925 19.1387 82.4738 18.9625 82.4738 18.7675C82.4738 18.2425 82.6238 17.8225 82.9238 17.5075C83.2238 17.1925 83.6175 17.035 84.105 17.035C84.5925 17.035 84.99 17.1962 85.2975 17.5187C85.6125 17.8337 85.77 18.2462 85.77 18.7562C85.77 19.2137 85.6538 19.6075 85.4213 19.9375C85.1888 20.26 84.855 20.605 84.42 20.9725C84.3975 20.98 84.3938 20.9987 84.4088 21.0287C84.7088 21.4487 84.93 21.7675 85.0725 21.985L85.77 22.975C85.7775 22.9825 85.7888 22.9862 85.8038 22.9862C85.8188 22.9862 85.83 22.9825 85.8375 22.975C85.9425 22.8175 86.1225 22.5137 86.3775 22.0637C86.3925 22.0337 86.415 22.015 86.445 22.0075C86.475 22 86.505 22.0037 86.535 22.0187L86.9625 22.2662C87.0225 22.3037 87.0338 22.3562 86.9963 22.4237C86.7563 22.8662 86.5125 23.26 86.265 23.605C86.2575 23.6275 86.2575 23.65 86.265 23.6725L87.0975 24.865ZM84.1275 17.7662C83.8725 17.7662 83.6663 17.86 83.5088 18.0475C83.3513 18.2275 83.2725 18.475 83.2725 18.79C83.2725 19 83.31 19.1987 83.385 19.3862C83.4675 19.5737 83.6513 19.885 83.9363 20.32C83.9513 20.35 83.97 20.3537 83.9925 20.3312C84.3075 20.0612 84.5475 19.8062 84.7125 19.5662C84.885 19.3262 84.9713 19.0562 84.9713 18.7562C84.9713 18.4562 84.8925 18.2162 84.735 18.0362C84.5775 17.8562 84.375 17.7662 84.1275 17.7662ZM83.9813 24.4037C84.2288 24.4037 84.4613 24.3437 84.6788 24.2237C84.8963 24.0962 85.1175 23.905 85.3425 23.65C85.3575 23.6275 85.3575 23.605 85.3425 23.5825L84.8025 22.8062L83.8688 21.49C83.8538 21.4675 83.835 21.4675 83.8125 21.49C83.49 21.7675 83.2425 22.0412 83.07 22.3112C82.905 22.5812 82.8225 22.885 82.8225 23.2225C82.8225 23.575 82.9238 23.86 83.1263 24.0775C83.3288 24.295 83.6138 24.4037 83.9813 24.4037ZM92.6796 17.1137C93.2271 17.1137 93.6696 17.3162 94.0071 17.7212C94.3446 18.1187 94.5134 18.6437 94.5134 19.2962C94.5134 19.9412 94.3484 20.4625 94.0184 20.86C93.6884 21.25 93.2534 21.445 92.7134 21.445H91.5546C91.5246 21.445 91.5096 21.46 91.5096 21.49V24.8875C91.5096 24.9625 91.4721 25 91.3971 25H90.8234C90.7484 25 90.7109 24.9625 90.7109 24.8875V17.2262C90.7109 17.1512 90.7484 17.1137 90.8234 17.1137H92.6796ZM92.5784 20.7925C92.9159 20.7925 93.1896 20.6575 93.3996 20.3875C93.6096 20.1175 93.7146 19.7575 93.7146 19.3075C93.7146 18.8575 93.6096 18.4975 93.3996 18.2275C93.1896 17.95 92.9159 17.8112 92.5784 17.8112H91.5546C91.5246 17.8112 91.5096 17.8262 91.5096 17.8562V20.7475C91.5096 20.7775 91.5246 20.7925 91.5546 20.7925H92.5784ZM97.2402 19.2175C97.7652 19.2175 98.1852 19.39 98.5002 19.735C98.8152 20.0725 98.9727 20.5262 98.9727 21.0962V24.8875C98.9727 24.9625 98.9352 25 98.8602 25H98.2864C98.2114 25 98.1739 24.9625 98.1739 24.8875V24.55C98.1739 24.535 98.1664 24.5275 98.1514 24.5275C98.1439 24.52 98.1327 24.5237 98.1177 24.5387C97.8402 24.9062 97.4239 25.09 96.8689 25.09C96.4564 25.09 96.0964 24.9737 95.7889 24.7412C95.4889 24.5012 95.3389 24.0812 95.3389 23.4812C95.3389 22.8437 95.5227 22.3787 95.8902 22.0862C96.2577 21.7862 96.7414 21.6362 97.3414 21.6362H98.1289C98.1589 21.6362 98.1739 21.6212 98.1739 21.5912V21.1525C98.1739 20.7775 98.0877 20.4775 97.9152 20.2525C97.7427 20.0275 97.5102 19.915 97.2177 19.915C96.9927 19.915 96.7977 19.99 96.6327 20.14C96.4752 20.29 96.3814 20.4812 96.3514 20.7137C96.3514 20.7887 96.3139 20.8262 96.2389 20.8262L95.6089 20.815C95.5714 20.815 95.5414 20.8037 95.5189 20.7812C95.5039 20.7587 95.5002 20.7325 95.5077 20.7025C95.5452 20.26 95.7252 19.9037 96.0477 19.6337C96.3702 19.3562 96.7677 19.2175 97.2402 19.2175ZM97.0377 24.3925C97.3452 24.3925 97.6114 24.295 97.8364 24.1C98.0614 23.8975 98.1739 23.62 98.1739 23.2675V22.3225C98.1739 22.2925 98.1589 22.2775 98.1289 22.2775H97.3302C96.9702 22.2775 96.6852 22.375 96.4752 22.57C96.2652 22.7575 96.1602 23.0387 96.1602 23.4137C96.1602 23.7437 96.2389 23.9912 96.3964 24.1562C96.5614 24.3137 96.7752 24.3925 97.0377 24.3925ZM101.865 25.09C101.325 25.09 100.894 24.9325 100.571 24.6175C100.256 24.3025 100.099 23.8862 100.099 23.3687V20.95C100.099 20.44 100.26 20.0237 100.582 19.7012C100.905 19.3787 101.332 19.2175 101.865 19.2175C102.405 19.2175 102.836 19.3787 103.159 19.7012C103.481 20.0237 103.642 20.44 103.642 20.95V23.3687C103.642 23.8862 103.481 24.3025 103.159 24.6175C102.836 24.9325 102.405 25.09 101.865 25.09ZM101.865 24.3812C102.15 24.3812 102.382 24.2837 102.562 24.0887C102.75 23.8937 102.844 23.635 102.844 23.3125V20.995C102.844 20.6725 102.75 20.4137 102.562 20.2187C102.382 20.0162 102.15 19.915 101.865 19.915C101.58 19.915 101.347 20.0162 101.167 20.2187C100.987 20.4137 100.897 20.6725 100.897 20.995V23.3125C100.897 23.635 100.987 23.8937 101.167 24.0887C101.347 24.2837 101.58 24.3812 101.865 24.3812ZM104.937 25C104.862 25 104.824 24.9625 104.824 24.8875V17.2375C104.824 17.1625 104.862 17.125 104.937 17.125H105.51C105.585 17.125 105.623 17.1625 105.623 17.2375V24.8875C105.623 24.9625 105.585 25 105.51 25H104.937ZM108.567 25.09C108.027 25.09 107.595 24.9325 107.273 24.6175C106.958 24.3025 106.8 23.8862 106.8 23.3687V20.95C106.8 20.44 106.962 20.0237 107.284 19.7012C107.607 19.3787 108.034 19.2175 108.567 19.2175C109.107 19.2175 109.538 19.3787 109.86 19.7012C110.183 20.0237 110.344 20.44 110.344 20.95V23.3687C110.344 23.8862 110.183 24.3025 109.86 24.6175C109.538 24.9325 109.107 25.09 108.567 25.09ZM108.567 24.3812C108.852 24.3812 109.084 24.2837 109.264 24.0887C109.452 23.8937 109.545 23.635 109.545 23.3125V20.995C109.545 20.6725 109.452 20.4137 109.264 20.2187C109.084 20.0162 108.852 19.915 108.567 19.915C108.282 19.915 108.049 20.0162 107.869 20.2187C107.689 20.4137 107.599 20.6725 107.599 20.995V23.3125C107.599 23.635 107.689 23.8937 107.869 24.0887C108.049 24.2837 108.282 24.3812 108.567 24.3812ZM116.86 17.2375C116.86 17.1625 116.898 17.125 116.973 17.125H117.547C117.622 17.125 117.659 17.1625 117.659 17.2375V24.8875C117.659 24.9625 117.622 25 117.547 25H116.973C116.898 25 116.86 24.9625 116.86 24.8875V21.4562C116.86 21.4262 116.845 21.4112 116.815 21.4112H114.813C114.783 21.4112 114.768 21.4262 114.768 21.4562V24.8875C114.768 24.9625 114.73 25 114.655 25H114.082C114.007 25 113.969 24.9625 113.969 24.8875V17.2375C113.969 17.1625 114.007 17.125 114.082 17.125H114.655C114.73 17.125 114.768 17.1625 114.768 17.2375V20.6575C114.768 20.6875 114.783 20.7025 114.813 20.7025H116.815C116.845 20.7025 116.86 20.6875 116.86 20.6575V17.2375ZM120.794 25.09C120.254 25.09 119.823 24.9325 119.501 24.6175C119.186 24.3025 119.028 23.8862 119.028 23.3687V20.95C119.028 20.44 119.189 20.0237 119.512 19.7012C119.834 19.3787 120.262 19.2175 120.794 19.2175C121.334 19.2175 121.766 19.3787 122.088 19.7012C122.411 20.0237 122.572 20.44 122.572 20.95V23.3687C122.572 23.8862 122.411 24.3025 122.088 24.6175C121.766 24.9325 121.334 25.09 120.794 25.09ZM120.794 24.3812C121.079 24.3812 121.312 24.2837 121.492 24.0887C121.679 23.8937 121.773 23.635 121.773 23.3125V20.995C121.773 20.6725 121.679 20.4137 121.492 20.2187C121.312 20.0162 121.079 19.915 120.794 19.915C120.509 19.915 120.277 20.0162 120.097 20.2187C119.917 20.4137 119.827 20.6725 119.827 20.995V23.3125C119.827 23.635 119.917 23.8937 120.097 24.0887C120.277 24.2837 120.509 24.3812 120.794 24.3812ZM125.306 25.0563C124.789 25.0563 124.372 24.925 124.057 24.6625C123.75 24.3925 123.596 24.0363 123.596 23.5938V23.515C123.596 23.44 123.634 23.4025 123.709 23.4025H124.249C124.324 23.4025 124.361 23.44 124.361 23.515V23.5825C124.361 23.8225 124.447 24.025 124.62 24.19C124.8 24.355 125.032 24.4375 125.317 24.4375C125.587 24.4375 125.805 24.355 125.97 24.19C126.135 24.025 126.217 23.815 126.217 23.56C126.217 23.365 126.165 23.2037 126.06 23.0762C125.955 22.9412 125.831 22.8362 125.689 22.7612C125.554 22.6862 125.347 22.5887 125.07 22.4687C124.777 22.3487 124.534 22.2325 124.339 22.12C124.151 22 123.986 21.835 123.844 21.625C123.709 21.4075 123.641 21.1337 123.641 20.8037C123.641 20.3237 123.787 19.945 124.08 19.6675C124.38 19.39 124.781 19.2512 125.284 19.2512C125.794 19.2512 126.199 19.3937 126.499 19.6787C126.799 19.9637 126.949 20.3425 126.949 20.815V20.8487C126.949 20.9237 126.911 20.9612 126.836 20.9612H126.319C126.244 20.9612 126.206 20.9237 126.206 20.8487V20.7812C126.206 20.5262 126.12 20.3162 125.947 20.1512C125.782 19.9862 125.565 19.9037 125.295 19.9037C125.025 19.9037 124.807 19.99 124.642 20.1625C124.485 20.3275 124.406 20.5337 124.406 20.7812C124.406 20.9612 124.455 21.115 124.552 21.2425C124.65 21.3625 124.77 21.4637 124.912 21.5462C125.055 21.6212 125.254 21.715 125.509 21.8275C125.816 21.9625 126.067 22.09 126.262 22.21C126.465 22.33 126.641 22.4987 126.791 22.7162C126.941 22.9337 127.016 23.2037 127.016 23.5262C127.016 23.9912 126.862 24.3625 126.555 24.64C126.247 24.9175 125.831 25.0563 125.306 25.0563ZM130.031 19.2175C130.504 19.2175 130.883 19.3787 131.168 19.7012C131.453 20.0162 131.595 20.4287 131.595 20.9387V23.3687C131.595 23.8937 131.453 24.3137 131.168 24.6288C130.883 24.9363 130.504 25.09 130.031 25.09C129.821 25.09 129.623 25.0525 129.435 24.9775C129.248 24.895 129.083 24.7712 128.94 24.6062C128.925 24.5912 128.91 24.5875 128.895 24.595C128.888 24.6025 128.884 24.6137 128.884 24.6288V27.07C128.884 27.145 128.846 27.1825 128.771 27.1825H128.198C128.123 27.1825 128.085 27.145 128.085 27.07V19.42C128.085 19.345 128.123 19.3075 128.198 19.3075H128.771C128.846 19.3075 128.884 19.345 128.884 19.42V19.6787C128.884 19.6937 128.891 19.705 128.906 19.7125C128.921 19.7125 128.936 19.705 128.951 19.69C129.086 19.5325 129.248 19.4162 129.435 19.3412C129.63 19.2587 129.829 19.2175 130.031 19.2175ZM130.808 20.995C130.808 20.6725 130.714 20.4137 130.526 20.2187C130.346 20.0162 130.114 19.915 129.829 19.915C129.551 19.915 129.323 20.0162 129.143 20.2187C128.97 20.4137 128.884 20.6725 128.884 20.995V23.3125C128.884 23.635 128.97 23.8975 129.143 24.1C129.323 24.295 129.551 24.3925 129.829 24.3925C130.114 24.3925 130.346 24.295 130.526 24.1C130.714 23.8975 130.808 23.635 130.808 23.3125V20.995ZM133.325 18.2725C133.137 18.2725 132.983 18.2125 132.863 18.0925C132.751 17.9725 132.695 17.8225 132.695 17.6425C132.695 17.455 132.751 17.305 132.863 17.1925C132.983 17.0725 133.137 17.0125 133.325 17.0125C133.505 17.0125 133.651 17.0725 133.763 17.1925C133.883 17.305 133.943 17.455 133.943 17.6425C133.943 17.8225 133.883 17.9725 133.763 18.0925C133.651 18.2125 133.505 18.2725 133.325 18.2725ZM133.043 25C132.968 25 132.931 24.9625 132.931 24.8875V19.42C132.931 19.345 132.968 19.3075 133.043 19.3075H133.617C133.692 19.3075 133.73 19.345 133.73 19.42V24.8875C133.73 24.9625 133.692 25 133.617 25H133.043ZM137.183 19.7912C137.183 19.8662 137.146 19.9037 137.071 19.9037H136.216C136.186 19.9037 136.171 19.9187 136.171 19.9487V23.3912C136.171 23.7362 136.231 23.9762 136.351 24.1112C136.471 24.2387 136.655 24.2987 136.902 24.2912H137.015C137.09 24.2912 137.127 24.3287 137.127 24.4037V24.8875C137.127 24.9625 137.09 25 137.015 25H136.733C136.291 25 135.953 24.9062 135.721 24.7187C135.496 24.5237 135.383 24.16 135.383 23.6275V19.9487C135.383 19.9187 135.368 19.9037 135.338 19.9037H134.9C134.825 19.9037 134.787 19.8662 134.787 19.7912V19.42C134.787 19.345 134.825 19.3075 134.9 19.3075H135.338C135.368 19.3075 135.383 19.2925 135.383 19.2625V18.0025C135.383 17.9275 135.421 17.89 135.496 17.89H136.058C136.133 17.89 136.171 17.9275 136.171 18.0025V19.2625C136.171 19.2925 136.186 19.3075 136.216 19.3075H137.071C137.146 19.3075 137.183 19.345 137.183 19.42V19.7912ZM139.845 19.2175C140.37 19.2175 140.79 19.39 141.105 19.735C141.42 20.0725 141.578 20.5262 141.578 21.0962V24.8875C141.578 24.9625 141.54 25 141.465 25H140.891C140.816 25 140.779 24.9625 140.779 24.8875V24.55C140.779 24.535 140.771 24.5275 140.756 24.5275C140.749 24.52 140.738 24.5237 140.723 24.5387C140.445 24.9062 140.029 25.09 139.474 25.09C139.061 25.09 138.701 24.9737 138.394 24.7412C138.094 24.5012 137.944 24.0812 137.944 23.4812C137.944 22.8437 138.128 22.3787 138.495 22.0862C138.863 21.7862 139.346 21.6362 139.946 21.6362H140.734C140.764 21.6362 140.779 21.6212 140.779 21.5912V21.1525C140.779 20.7775 140.693 20.4775 140.52 20.2525C140.348 20.0275 140.115 19.915 139.823 19.915C139.598 19.915 139.403 19.99 139.238 20.14C139.08 20.29 138.986 20.4812 138.956 20.7137C138.956 20.7887 138.919 20.8262 138.844 20.8262L138.214 20.815C138.176 20.815 138.146 20.8037 138.124 20.7812C138.109 20.7587 138.105 20.7325 138.113 20.7025C138.15 20.26 138.33 19.9037 138.653 19.6337C138.975 19.3562 139.373 19.2175 139.845 19.2175ZM139.643 24.3925C139.95 24.3925 140.216 24.295 140.441 24.1C140.666 23.8975 140.779 23.62 140.779 23.2675V22.3225C140.779 22.2925 140.764 22.2775 140.734 22.2775H139.935C139.575 22.2775 139.29 22.375 139.08 22.57C138.87 22.7575 138.765 23.0387 138.765 23.4137C138.765 23.7437 138.844 23.9912 139.001 24.1562C139.166 24.3137 139.38 24.3925 139.643 24.3925ZM142.872 25C142.797 25 142.76 24.9625 142.76 24.8875V17.2375C142.76 17.1625 142.797 17.125 142.872 17.125H143.446C143.521 17.125 143.559 17.1625 143.559 17.2375V24.8875C143.559 24.9625 143.521 25 143.446 25H142.872ZM148.957 25.09C148.38 25.09 147.918 24.9213 147.573 24.5837C147.228 24.2387 147.056 23.7812 147.056 23.2112V18.9137C147.056 18.3437 147.228 17.89 147.573 17.5525C147.918 17.2075 148.38 17.035 148.957 17.035C149.535 17.035 149.996 17.2075 150.341 17.5525C150.693 17.8975 150.87 18.355 150.87 18.925V19.4087C150.87 19.4837 150.832 19.5212 150.757 19.5212H150.183C150.108 19.5212 150.071 19.4837 150.071 19.4087V18.9025C150.071 18.55 149.97 18.2687 149.767 18.0587C149.565 17.8412 149.295 17.7325 148.957 17.7325C148.627 17.7325 148.357 17.8412 148.147 18.0587C147.945 18.2762 147.843 18.5575 147.843 18.9025V23.2225C147.843 23.5675 147.945 23.8487 148.147 24.0662C148.357 24.2837 148.627 24.3925 148.957 24.3925C149.295 24.3925 149.565 24.2875 149.767 24.0775C149.97 23.86 150.071 23.575 150.071 23.2225V21.7825C150.071 21.7525 150.056 21.7375 150.026 21.7375H149.058C148.983 21.7375 148.946 21.7 148.946 21.625V21.1525C148.946 21.0775 148.983 21.04 149.058 21.04H150.757C150.832 21.04 150.87 21.0775 150.87 21.1525V23.2112C150.87 23.7812 150.693 24.2387 150.341 24.5837C149.996 24.9213 149.535 25.09 148.957 25.09ZM154.111 19.2512C154.299 19.2512 154.46 19.2925 154.595 19.375C154.648 19.405 154.666 19.4537 154.651 19.5212L154.516 20.1062C154.509 20.1737 154.464 20.1962 154.381 20.1737C154.291 20.1287 154.179 20.1062 154.044 20.1062C153.984 20.1062 153.939 20.11 153.909 20.1175C153.639 20.1325 153.418 20.275 153.245 20.545C153.073 20.8075 152.986 21.13 152.986 21.5125V24.8875C152.986 24.9625 152.949 25 152.874 25H152.3C152.225 25 152.188 24.9625 152.188 24.8875V19.42C152.188 19.345 152.225 19.3075 152.3 19.3075H152.874C152.949 19.3075 152.986 19.345 152.986 19.42V20.095C152.986 20.1175 152.99 20.1287 152.998 20.1287C153.013 20.1287 153.028 20.1212 153.043 20.1062C153.26 19.5362 153.616 19.2512 154.111 19.2512ZM157.071 25.09C156.531 25.09 156.1 24.9325 155.777 24.6175C155.462 24.3025 155.305 23.8862 155.305 23.3687V20.95C155.305 20.44 155.466 20.0237 155.789 19.7012C156.111 19.3787 156.539 19.2175 157.071 19.2175C157.611 19.2175 158.042 19.3787 158.365 19.7012C158.687 20.0237 158.849 20.44 158.849 20.95V23.3687C158.849 23.8862 158.687 24.3025 158.365 24.6175C158.042 24.9325 157.611 25.09 157.071 25.09ZM157.071 24.3812C157.356 24.3812 157.589 24.2837 157.769 24.0887C157.956 23.8937 158.05 23.635 158.05 23.3125V20.995C158.05 20.6725 157.956 20.4137 157.769 20.2187C157.589 20.0162 157.356 19.915 157.071 19.915C156.786 19.915 156.554 20.0162 156.374 20.2187C156.194 20.4137 156.104 20.6725 156.104 20.995V23.3125C156.104 23.635 156.194 23.8937 156.374 24.0887C156.554 24.2837 156.786 24.3812 157.071 24.3812ZM162.697 19.42C162.697 19.345 162.734 19.3075 162.809 19.3075H163.383C163.458 19.3075 163.495 19.345 163.495 19.42V24.8875C163.495 24.9625 163.458 25 163.383 25H162.809C162.734 25 162.697 24.9625 162.697 24.8875V24.505C162.697 24.4825 162.689 24.4712 162.674 24.4712C162.667 24.4712 162.655 24.4787 162.64 24.4937C162.408 24.8837 162.033 25.0788 161.515 25.0788C161.065 25.0788 160.705 24.9437 160.435 24.6737C160.173 24.3962 160.042 23.98 160.042 23.425V19.42C160.042 19.345 160.079 19.3075 160.154 19.3075H160.728C160.803 19.3075 160.84 19.345 160.84 19.42V23.245C160.84 23.62 160.915 23.905 161.065 24.1C161.223 24.2875 161.448 24.3812 161.74 24.3812C162.04 24.3812 162.273 24.2725 162.438 24.055C162.61 23.8375 162.697 23.5412 162.697 23.1662V19.42ZM166.868 19.2175C167.341 19.2175 167.72 19.3787 168.005 19.7012C168.29 20.0162 168.432 20.4287 168.432 20.9387V23.3687C168.432 23.8937 168.29 24.3137 168.005 24.6288C167.72 24.9363 167.341 25.09 166.868 25.09C166.658 25.09 166.46 25.0525 166.272 24.9775C166.085 24.895 165.92 24.7712 165.777 24.6062C165.762 24.5912 165.747 24.5875 165.732 24.595C165.725 24.6025 165.721 24.6137 165.721 24.6288V27.07C165.721 27.145 165.683 27.1825 165.608 27.1825H165.035C164.96 27.1825 164.922 27.145 164.922 27.07V19.42C164.922 19.345 164.96 19.3075 165.035 19.3075H165.608C165.683 19.3075 165.721 19.345 165.721 19.42V19.6787C165.721 19.6937 165.728 19.705 165.743 19.7125C165.758 19.7125 165.773 19.705 165.788 19.69C165.923 19.5325 166.085 19.4162 166.272 19.3412C166.467 19.2587 166.666 19.2175 166.868 19.2175ZM167.645 20.995C167.645 20.6725 167.551 20.4137 167.363 20.2187C167.183 20.0162 166.951 19.915 166.666 19.915C166.388 19.915 166.16 20.0162 165.98 20.2187C165.807 20.4137 165.721 20.6725 165.721 20.995V23.3125C165.721 23.635 165.807 23.8975 165.98 24.1C166.16 24.295 166.388 24.3925 166.666 24.3925C166.951 24.3925 167.183 24.295 167.363 24.1C167.551 23.8975 167.645 23.635 167.645 23.3125V20.995ZM169.352 25C169.277 25 169.239 24.9625 169.239 24.8875V24.4712C169.239 24.3962 169.277 24.3587 169.352 24.3587H172.862C172.937 24.3587 172.974 24.3962 172.974 24.4712V24.8875C172.974 24.9625 172.937 25 172.862 25H169.352Z" fill="black"/>
<path d="M0 8.1875H166.086V8.7478H0V8.1875Z" fill="#0000FF"/>
</svg>
