<svg width="347" height="40" viewBox="0 0 347 40" fill="none" xmlns="http://www.w3.org/2000/svg">
<path d="M2.96082 11H0.351562V10.5935C0.450439 10.5532 0.545654 10.5239 0.637207 10.5056C0.732422 10.4836 0.81665 10.4543 0.889893 10.4177C1.05469 10.3372 1.13708 10.1833 1.13708 9.9563V4.2489C1.13708 4.01819 1.05469 3.86255 0.889893 3.78198C0.81665 3.74536 0.732422 3.7179 0.637207 3.69958C0.545654 3.67761 0.450439 3.64648 0.351562 3.6062V3.19421H2.96082V11ZM5.38879 4.53455C5.22766 4.25989 5.02075 4.05664 4.76807 3.9248C4.51538 3.78931 4.2572 3.72156 3.99353 3.72156C3.73352 3.72156 3.55225 3.72888 3.44971 3.74353V3.19421H3.98804C5.28809 3.19421 6.28418 3.59705 6.97632 4.40271C7.59155 5.12048 7.89917 6.0177 7.89917 7.09436C7.89917 8.2113 7.58057 9.125 6.94336 9.83545C6.24756 10.6118 5.28259 11 4.04846 11H3.44971V10.4507C3.56689 10.4653 3.75 10.4727 3.99902 10.4727C4.24805 10.4727 4.4989 10.4177 4.75159 10.3079C5.00793 10.1943 5.21851 10.0057 5.3833 9.74207C5.7019 9.23303 5.86121 8.35046 5.86121 7.09436C5.86121 5.92615 5.70374 5.07288 5.38879 4.53455ZM14.0625 10.0771C14.0625 10.2676 14.1504 10.3976 14.3262 10.4672C14.3994 10.4965 14.4781 10.5221 14.5624 10.5441C14.6466 10.566 14.7253 10.6008 14.7986 10.6484V11H11.7059V10.6484C11.7755 10.6008 11.8524 10.566 11.9366 10.5441C12.0209 10.5221 12.0996 10.4965 12.1729 10.4672C12.345 10.3976 12.431 10.2676 12.431 10.0771V6.43518C12.431 6.23743 12.345 6.10742 12.1729 6.04517C12.0996 6.01587 12.0209 5.99207 11.9366 5.97375C11.8524 5.95178 11.7755 5.91516 11.7059 5.86389V5.47937H14.0625V10.0771ZM13.1506 4.82568C13.0115 4.82568 12.8851 4.80005 12.7716 4.74878C12.6581 4.69751 12.561 4.62793 12.4805 4.54004C12.312 4.35693 12.2278 4.13354 12.2278 3.86987C12.2278 3.61353 12.312 3.39014 12.4805 3.19971C12.6562 3.00562 12.8796 2.90857 13.1506 2.90857C13.4253 2.90857 13.6505 3.00562 13.8263 3.19971C13.9948 3.39014 14.079 3.61353 14.079 3.86987C14.079 4.13354 13.9948 4.35693 13.8263 4.54004C13.6505 4.73047 13.4253 4.82568 13.1506 4.82568ZM19.1547 10.8682C18.7848 10.751 18.5999 10.5496 18.5999 10.2639C18.5999 9.95996 18.8159 9.65601 19.248 9.35205L19.8743 9.5498C19.7314 9.65967 19.66 9.86108 19.66 10.1541C21.2018 10.1541 22.262 10.2749 22.8406 10.5166C23.1335 10.6375 23.3368 10.7931 23.4503 10.9835C23.5638 11.1703 23.6206 11.3937 23.6206 11.6537C23.6206 11.9137 23.5547 12.1517 23.4229 12.3678C23.2947 12.5839 23.1207 12.7706 22.901 12.9281C22.4432 13.2577 21.8811 13.4371 21.2146 13.4664V12.9336C21.7383 12.9116 22.0752 12.7175 22.2253 12.3513C22.2693 12.2451 22.2913 12.1316 22.2913 12.0107C22.2913 11.791 22.1796 11.6097 21.9562 11.4669C21.7328 11.3241 21.4563 11.2527 21.1267 11.2527C20.614 11.2527 20.2423 11.2692 20.0116 11.3021C19.9567 11.4376 19.9292 11.5878 19.9292 11.7526V12.0767C19.9292 12.3147 19.986 12.507 20.0995 12.6534C20.213 12.7999 20.4218 12.8896 20.7257 12.9226V13.4609C19.8651 13.4133 19.292 13.0819 19.0063 12.4667C18.9075 12.2543 18.858 11.9961 18.858 11.6921C18.858 11.3882 18.9569 11.1135 19.1547 10.8682ZM22.8955 5.03992C22.6611 5.03992 22.5439 5.1864 22.5439 5.47937C22.5439 5.62585 22.5623 5.72107 22.5989 5.76501C22.6392 5.80896 22.6794 5.84741 22.7197 5.88037C22.7637 5.91333 22.8406 5.98291 22.9504 6.08911C23.1848 6.31982 23.302 6.70435 23.302 7.24268C23.302 7.83228 23.0969 8.31201 22.6868 8.68188C22.2949 9.03711 21.8042 9.23303 21.2146 9.26965V8.7478C21.4014 8.68555 21.5295 8.5354 21.5991 8.29736C21.6724 8.05933 21.709 7.72424 21.709 7.29211C21.709 6.85999 21.6724 6.53589 21.5991 6.31982C21.5259 6.10376 21.3977 5.96826 21.2146 5.91333V5.36951C21.5369 5.38049 21.8024 5.42261 22.0111 5.49585C22.0111 4.9978 22.2437 4.66455 22.7087 4.49609C22.8552 4.44116 23.0182 4.4137 23.1976 4.4137C23.3807 4.4137 23.5364 4.4375 23.6646 4.48511C23.7964 4.52905 23.9044 4.59131 23.9886 4.67188C24.1498 4.82202 24.2303 5.01428 24.2303 5.24866C24.2303 5.48303 24.1663 5.65881 24.0381 5.776C23.9136 5.89319 23.7488 5.95178 23.5437 5.95178C23.3386 5.95178 23.172 5.89502 23.0438 5.78149C22.9193 5.66797 22.8571 5.52332 22.8571 5.34753C22.8571 5.28162 22.8662 5.22485 22.8845 5.17725C22.9065 5.12598 22.9175 5.09119 22.9175 5.07288C22.9175 5.0509 22.9102 5.03992 22.8955 5.03992ZM20.7257 9.28064C19.6307 9.24768 18.9551 8.88696 18.6987 8.19849C18.6072 7.96045 18.5614 7.6803 18.5614 7.35803C18.5614 7.03577 18.6127 6.75745 18.7152 6.52307C18.8214 6.28503 18.9697 6.08545 19.1602 5.92432C19.5374 5.59839 20.0592 5.41345 20.7257 5.36951V5.91333C20.5096 5.94995 20.3595 6.07263 20.2753 6.28137C20.1947 6.48279 20.1544 6.81421 20.1544 7.27563C20.1544 7.73706 20.1965 8.08862 20.2808 8.33032C20.365 8.57202 20.5133 8.71667 20.7257 8.76428V9.28064ZM29.9707 10.0771C29.9707 10.2676 30.0586 10.3976 30.2344 10.4672C30.3076 10.4965 30.3864 10.5221 30.4706 10.5441C30.5548 10.566 30.6335 10.6008 30.7068 10.6484V11H27.6141V10.6484C27.6837 10.6008 27.7606 10.566 27.8448 10.5441C27.9291 10.5221 28.0078 10.4965 28.0811 10.4672C28.2532 10.3976 28.3392 10.2676 28.3392 10.0771V6.43518C28.3392 6.23743 28.2532 6.10742 28.0811 6.04517C28.0078 6.01587 27.9291 5.99207 27.8448 5.97375C27.7606 5.95178 27.6837 5.91516 27.6141 5.86389V5.47937H29.9707V10.0771ZM29.0588 4.82568C28.9197 4.82568 28.7933 4.80005 28.6798 4.74878C28.5663 4.69751 28.4692 4.62793 28.3887 4.54004C28.2202 4.35693 28.136 4.13354 28.136 3.86987C28.136 3.61353 28.2202 3.39014 28.3887 3.19971C28.5645 3.00562 28.7878 2.90857 29.0588 2.90857C29.3335 2.90857 29.5587 3.00562 29.7345 3.19971C29.903 3.39014 29.9872 3.61353 29.9872 3.86987C29.9872 4.13354 29.903 4.35693 29.7345 4.54004C29.5587 4.73047 29.3335 4.82568 29.0588 4.82568ZM36.6229 3.61169V11.0824H36.579C36.0406 11.0824 35.6396 10.9799 35.376 10.7748C35.116 10.5697 34.986 10.2365 34.986 9.77502V6.08362H34.2554V5.64417C34.3103 5.58557 34.3799 5.54163 34.4641 5.51233C34.552 5.48303 34.6399 5.4519 34.7278 5.41895C34.9438 5.33838 35.0812 5.20654 35.1398 5.02344C35.3339 4.48877 35.4858 4.14636 35.5957 3.99622C35.7056 3.84241 35.8026 3.7179 35.8868 3.62268L36.6229 3.61169ZM37.1118 10.4232C37.4084 10.4232 37.6172 10.328 37.738 10.1376C37.7893 10.0533 37.8296 9.95813 37.8589 9.85193C37.8882 9.74207 37.9211 9.6322 37.9578 9.52234L38.4027 9.69812C38.3112 10.1229 38.1976 10.4159 38.0621 10.577C37.9266 10.7345 37.7856 10.8499 37.6392 10.9231C37.4963 10.9963 37.3206 11.0494 37.1118 11.0824V10.4232ZM37.1118 5.47937H38.1006V6.08362H37.1118V5.47937ZM46.3458 11.0824C45.7928 11.0824 45.3754 10.9561 45.0934 10.7034V7.44043C45.0934 6.97168 45.0732 6.66772 45.033 6.52856C44.9597 6.25024 44.8096 6.08362 44.5825 6.02869V5.36951C46.0144 5.42078 46.7303 6.06531 46.7303 7.3031V9.76404C46.7303 10.2035 46.8329 10.4232 47.038 10.4232C47.2064 10.4232 47.309 10.1998 47.3456 9.75305L47.7411 9.85193C47.6495 10.4708 47.3804 10.8535 46.9336 11C46.7725 11.0549 46.5765 11.0824 46.3458 11.0824ZM44.6045 10.8187C44.3958 10.9945 44.1211 11.0824 43.7805 11.0824C43.4436 11.0824 43.1635 11.0513 42.9401 10.989C42.7167 10.9231 42.5244 10.8279 42.3633 10.7034C42.0154 10.4324 41.8414 10.0607 41.8414 9.58826C41.8414 9.04626 42.0941 8.6178 42.5995 8.30286C42.962 8.07581 43.6304 7.83044 44.6045 7.56677V8.14905C43.9526 8.4054 43.6267 8.85583 43.6267 9.50037C43.6267 9.92151 43.7256 10.2053 43.9233 10.3518C43.9929 10.3994 44.0936 10.4232 44.2255 10.4232C44.3573 10.4232 44.4836 10.3811 44.6045 10.2969V10.8187ZM43.4454 6.38025C43.6945 6.49377 43.819 6.66223 43.819 6.88562C43.819 7.1676 43.656 7.35254 43.3301 7.44043C43.2385 7.4624 43.147 7.47339 43.0554 7.47339C42.7881 7.47339 42.5848 7.39832 42.4457 7.24817C42.3065 7.09802 42.2369 6.92041 42.2369 6.71533C42.2369 6.50659 42.2772 6.32898 42.3578 6.1825C42.4384 6.03235 42.5574 5.89868 42.7148 5.78149C43.0554 5.53613 43.515 5.3988 44.0936 5.36951V6.02869C43.8043 6.047 43.5883 6.16418 43.4454 6.38025ZM53.5474 10.0771C53.5474 10.2676 53.6353 10.3976 53.811 10.4672C53.8843 10.4965 53.963 10.5221 54.0472 10.5441C54.1315 10.566 54.2102 10.6008 54.2834 10.6484V11H51.1908V10.6484C51.2604 10.6008 51.3373 10.566 51.4215 10.5441C51.5057 10.5221 51.5845 10.4965 51.6577 10.4672C51.8298 10.3976 51.9159 10.2676 51.9159 10.0771V3.96326C51.9159 3.76917 51.8298 3.6355 51.6577 3.56226C51.5845 3.53296 51.5057 3.50916 51.4215 3.49084C51.3373 3.46887 51.2604 3.43408 51.1908 3.38647V3.00745H53.5474V10.0771ZM66.9562 11H64.3469V10.5935C64.4458 10.5532 64.541 10.5239 64.6326 10.5056C64.7278 10.4836 64.812 10.4543 64.8853 10.4177C65.05 10.3372 65.1324 10.1833 65.1324 9.9563V4.2489C65.1324 4.01819 65.05 3.86255 64.8853 3.78198C64.812 3.74536 64.7278 3.7179 64.6326 3.69958C64.541 3.67761 64.4458 3.64648 64.3469 3.6062V3.19421H66.9562V11ZM69.3842 4.53455C69.223 4.25989 69.0161 4.05664 68.7634 3.9248C68.5107 3.78931 68.2526 3.72156 67.9889 3.72156C67.7289 3.72156 67.5476 3.72888 67.4451 3.74353V3.19421H67.9834C69.2834 3.19421 70.2795 3.59705 70.9717 4.40271C71.5869 5.12048 71.8945 6.0177 71.8945 7.09436C71.8945 8.2113 71.5759 9.125 70.9387 9.83545C70.2429 10.6118 69.278 11 68.0438 11H67.4451V10.4507C67.5623 10.4653 67.7454 10.4727 67.9944 10.4727C68.2434 10.4727 68.4943 10.4177 68.7469 10.3079C69.0033 10.1943 69.2139 10.0057 69.3787 9.74207C69.6973 9.23303 69.8566 8.35046 69.8566 7.09436C69.8566 5.92615 69.6991 5.07288 69.3842 4.53455ZM78.9203 10.4232C79.6564 10.3866 80.1508 9.9801 80.4034 9.20374L80.9088 9.43445C80.6342 10.4415 79.9713 10.9908 78.9203 11.0824V10.4232ZM78.7555 5.36951C79.5099 5.42444 80.0757 5.72473 80.4529 6.27039C80.7898 6.75378 80.9583 7.40015 80.9583 8.20947H78.1293V7.64917H79.2664C79.2664 7.18042 79.2297 6.81055 79.1565 6.53955C79.0869 6.26489 78.9532 6.0946 78.7555 6.02869V5.36951ZM78.4314 11.0824C77.6367 11.0201 76.9958 10.7107 76.5088 10.1541C76.0547 9.6377 75.8276 9.00232 75.8276 8.24792C75.8276 7.45691 76.0565 6.79224 76.5143 6.25391C76.9684 5.71558 77.5525 5.42078 78.2666 5.36951V6.02869C78.0249 6.11292 77.8546 6.33997 77.7557 6.70984C77.6605 7.07971 77.6129 7.49719 77.6129 7.96228C77.6129 8.42371 77.6239 8.76978 77.6459 9.00049C77.6715 9.22754 77.7155 9.43262 77.7777 9.61572C77.9059 10.0002 78.1238 10.2694 78.4314 10.4232V11.0824ZM87.0502 6.02869C86.7133 6.12024 86.5448 6.27954 86.5448 6.50659C86.5448 6.8728 86.8652 7.17859 87.5061 7.42395C88.0115 7.61804 88.3685 7.77002 88.5773 7.87988C88.7897 7.98608 88.9673 8.10327 89.1101 8.23145C89.4287 8.52441 89.588 8.88879 89.588 9.32458C89.588 9.84094 89.3921 10.2548 89.0002 10.566C88.6194 10.8663 88.1323 11.0385 87.5391 11.0824V10.4232C87.9236 10.3317 88.1158 10.1193 88.1158 9.78601C88.1158 9.44177 87.8009 9.14697 87.171 8.90161C86.6766 8.71118 86.3251 8.56287 86.1163 8.45667C85.9113 8.35046 85.7391 8.23511 85.6 8.1106C85.2887 7.83228 85.1331 7.48987 85.1331 7.08337C85.1331 6.64392 85.3198 6.25391 85.6934 5.91333C86.0706 5.57275 86.5228 5.39148 87.0502 5.36951V6.02869ZM88.5553 6.14404C88.4747 6.11108 88.136 6.07263 87.5391 6.02869V5.36951C88.1763 5.39514 88.6743 5.54712 89.0332 5.82544C89.3335 6.05981 89.4836 6.31982 89.4836 6.60547C89.4836 6.96069 89.3481 7.19507 89.0771 7.30859C88.9819 7.34521 88.8501 7.36353 88.6816 7.36353C88.5132 7.36353 88.374 7.31042 88.2642 7.20422C88.158 7.09436 88.1049 6.96069 88.1049 6.80322C88.1049 6.53589 88.255 6.31616 88.5553 6.14404ZM86.1053 10.2694C86.2006 10.3536 86.5155 10.4049 87.0502 10.4232V11.0824C86.4423 11.0348 85.9644 10.8737 85.6165 10.599C85.3235 10.3646 85.177 10.0973 85.177 9.797C85.177 9.59924 85.2319 9.43811 85.3418 9.3136C85.4517 9.18542 85.6183 9.12134 85.8417 9.12134C86.0651 9.12134 86.2299 9.17078 86.3361 9.26965C86.4459 9.36853 86.5009 9.4967 86.5009 9.65417C86.5009 9.92883 86.369 10.1339 86.1053 10.2694ZM95.647 10.0771C95.647 10.2676 95.7349 10.3976 95.9106 10.4672C95.9839 10.4965 96.0626 10.5221 96.1469 10.5441C96.2311 10.566 96.3098 10.6008 96.3831 10.6484V11H93.2904V10.6484C93.36 10.6008 93.4369 10.566 93.5211 10.5441C93.6053 10.5221 93.6841 10.4965 93.7573 10.4672C93.9294 10.3976 94.0155 10.2676 94.0155 10.0771V6.43518C94.0155 6.23743 93.9294 6.10742 93.7573 6.04517C93.6841 6.01587 93.6053 5.99207 93.5211 5.97375C93.4369 5.95178 93.36 5.91516 93.2904 5.86389V5.47937H95.647V10.0771ZM94.7351 4.82568C94.5959 4.82568 94.4696 4.80005 94.3561 4.74878C94.2426 4.69751 94.1455 4.62793 94.0649 4.54004C93.8965 4.35693 93.8123 4.13354 93.8123 3.86987C93.8123 3.61353 93.8965 3.39014 94.0649 3.19971C94.2407 3.00562 94.4641 2.90857 94.7351 2.90857C95.0098 2.90857 95.235 3.00562 95.4108 3.19971C95.5792 3.39014 95.6635 3.61353 95.6635 3.86987C95.6635 4.13354 95.5792 4.35693 95.4108 4.54004C95.235 4.73047 95.0098 4.82568 94.7351 4.82568ZM100.739 10.8682C100.369 10.751 100.184 10.5496 100.184 10.2639C100.184 9.95996 100.4 9.65601 100.833 9.35205L101.459 9.5498C101.316 9.65967 101.245 9.86108 101.245 10.1541C102.786 10.1541 103.846 10.2749 104.425 10.5166C104.718 10.6375 104.921 10.7931 105.035 10.9835C105.148 11.1703 105.205 11.3937 105.205 11.6537C105.205 11.9137 105.139 12.1517 105.007 12.3678C104.879 12.5839 104.705 12.7706 104.485 12.9281C104.028 13.2577 103.466 13.4371 102.799 13.4664V12.9336C103.323 12.9116 103.66 12.7175 103.81 12.3513C103.854 12.2451 103.876 12.1316 103.876 12.0107C103.876 11.791 103.764 11.6097 103.541 11.4669C103.317 11.3241 103.041 11.2527 102.711 11.2527C102.198 11.2527 101.827 11.2692 101.596 11.3021C101.541 11.4376 101.514 11.5878 101.514 11.7526V12.0767C101.514 12.3147 101.57 12.507 101.684 12.6534C101.797 12.7999 102.006 12.8896 102.31 12.9226V13.4609C101.45 13.4133 100.876 13.0819 100.591 12.4667C100.492 12.2543 100.443 11.9961 100.443 11.6921C100.443 11.3882 100.541 11.1135 100.739 10.8682ZM104.48 5.03992C104.246 5.03992 104.128 5.1864 104.128 5.47937C104.128 5.62585 104.147 5.72107 104.183 5.76501C104.224 5.80896 104.264 5.84741 104.304 5.88037C104.348 5.91333 104.425 5.98291 104.535 6.08911C104.769 6.31982 104.886 6.70435 104.886 7.24268C104.886 7.83228 104.681 8.31201 104.271 8.68188C103.879 9.03711 103.389 9.23303 102.799 9.26965V8.7478C102.986 8.68555 103.114 8.5354 103.184 8.29736C103.257 8.05933 103.293 7.72424 103.293 7.29211C103.293 6.85999 103.257 6.53589 103.184 6.31982C103.11 6.10376 102.982 5.96826 102.799 5.91333V5.36951C103.121 5.38049 103.387 5.42261 103.596 5.49585C103.596 4.9978 103.828 4.66455 104.293 4.49609C104.44 4.44116 104.603 4.4137 104.782 4.4137C104.965 4.4137 105.121 4.4375 105.249 4.48511C105.381 4.52905 105.489 4.59131 105.573 4.67188C105.734 4.82202 105.815 5.01428 105.815 5.24866C105.815 5.48303 105.751 5.65881 105.623 5.776C105.498 5.89319 105.333 5.95178 105.128 5.95178C104.923 5.95178 104.756 5.89502 104.628 5.78149C104.504 5.66797 104.442 5.52332 104.442 5.34753C104.442 5.28162 104.451 5.22485 104.469 5.17725C104.491 5.12598 104.502 5.09119 104.502 5.07288C104.502 5.0509 104.495 5.03992 104.48 5.03992ZM102.31 9.28064C101.215 9.24768 100.54 8.88696 100.283 8.19849C100.192 7.96045 100.146 7.6803 100.146 7.35803C100.146 7.03577 100.197 6.75745 100.3 6.52307C100.406 6.28503 100.554 6.08545 100.745 5.92432C101.122 5.59839 101.644 5.41345 102.31 5.36951V5.91333C102.094 5.94995 101.944 6.07263 101.86 6.28137C101.779 6.48279 101.739 6.81421 101.739 7.27563C101.739 7.73706 101.781 8.08862 101.865 8.33032C101.949 8.57202 102.098 8.71667 102.31 8.76428V9.28064ZM112.033 5.72107C112.322 5.48669 112.621 5.36951 112.928 5.36951C113.236 5.36951 113.487 5.4043 113.681 5.47388C113.879 5.54346 114.045 5.646 114.181 5.78149C114.47 6.0708 114.615 6.47546 114.615 6.99548V9.84644C114.615 10.2126 114.697 10.4196 114.862 10.4672C114.913 10.4818 114.965 10.4946 115.016 10.5056C115.159 10.5349 115.263 10.5825 115.329 10.6484V11H112.72V10.6155C112.72 10.5349 112.749 10.469 112.808 10.4177C112.87 10.3665 112.914 10.3225 112.939 10.2859C112.969 10.2456 112.983 10.1833 112.983 10.0991V7.05042C112.983 6.67322 112.958 6.43152 112.906 6.32532C112.819 6.12756 112.681 6.02869 112.495 6.02869C112.308 6.02869 112.154 6.07446 112.033 6.16602V5.72107ZM111.544 9.84644C111.544 10.209 111.621 10.4159 111.775 10.4672C111.823 10.4818 111.872 10.4946 111.923 10.5056C112.059 10.5349 112.159 10.5825 112.225 10.6484V11H109.199V10.6484C109.261 10.6008 109.332 10.566 109.413 10.5441C109.497 10.5221 109.576 10.4965 109.649 10.4672C109.825 10.3976 109.913 10.2676 109.913 10.0771V6.68237C109.913 6.42236 109.852 6.23376 109.731 6.11658C109.636 6.02136 109.459 5.93713 109.199 5.86389V5.47937H111.544V9.84644ZM122.141 10.4232C122.877 10.3866 123.371 9.9801 123.624 9.20374L124.129 9.43445C123.854 10.4415 123.192 10.9908 122.141 11.0824V10.4232ZM121.976 5.36951C122.73 5.42444 123.296 5.72473 123.673 6.27039C124.01 6.75378 124.178 7.40015 124.178 8.20947H121.349V7.64917H122.487C122.487 7.18042 122.45 6.81055 122.377 6.53955C122.307 6.26489 122.173 6.0946 121.976 6.02869V5.36951ZM121.652 11.0824C120.857 11.0201 120.216 10.7107 119.729 10.1541C119.275 9.6377 119.048 9.00232 119.048 8.24792C119.048 7.45691 119.277 6.79224 119.734 6.25391C120.189 5.71558 120.773 5.42078 121.487 5.36951V6.02869C121.245 6.11292 121.075 6.33997 120.976 6.70984C120.881 7.07971 120.833 7.49719 120.833 7.96228C120.833 8.42371 120.844 8.76978 120.866 9.00049C120.892 9.22754 120.936 9.43262 120.998 9.61572C121.126 10.0002 121.344 10.2694 121.652 10.4232V11.0824ZM131.402 6.43518C131.234 6.43518 131.061 6.62378 130.886 7.00098L130.853 5.95178C131.153 5.5636 131.537 5.36951 132.006 5.36951C132.281 5.36951 132.515 5.47021 132.709 5.67163C132.892 5.86206 132.984 6.08362 132.984 6.3363C132.984 6.60364 132.907 6.82886 132.753 7.01196C132.592 7.20605 132.387 7.3031 132.138 7.3031C131.885 7.3031 131.693 7.20972 131.561 7.02295C131.455 6.86548 131.402 6.66956 131.402 6.43518ZM130.314 5.47937C130.391 6.34363 130.43 7.31592 130.43 8.39624V10.0222C130.43 10.2163 130.519 10.3536 130.699 10.4342C130.779 10.4708 130.867 10.5038 130.963 10.5331C131.061 10.5624 131.158 10.6008 131.254 10.6484V11H128.073V10.6484C128.143 10.6008 128.22 10.566 128.304 10.5441C128.388 10.5221 128.467 10.4965 128.54 10.4672C128.712 10.3976 128.798 10.2676 128.798 10.0771V6.43518C128.798 6.23376 128.712 6.1001 128.54 6.03418C128.467 6.00854 128.388 5.98657 128.304 5.96826C128.22 5.94995 128.143 5.91516 128.073 5.86389V5.47937H130.314Z" fill="#0000FF"/>
<path d="M1.78875 20.5562C1.75125 20.5562 1.7175 20.545 1.6875 20.5225C1.665 20.4925 1.65375 20.4587 1.65375 20.4212V19.3525C1.65375 19.33 1.64625 19.315 1.63125 19.3075C1.61625 19.3 1.60125 19.3037 1.58625 19.3188L0.675 19.8587C0.645 19.8737 0.6225 19.8812 0.6075 19.8812C0.5625 19.8812 0.525 19.855 0.495 19.8025L0.25875 19.3637C0.24375 19.3337 0.23625 19.3112 0.23625 19.2962C0.23625 19.2512 0.25875 19.2137 0.30375 19.1837L1.26 18.6212C1.275 18.6062 1.2825 18.5912 1.2825 18.5762C1.2825 18.5612 1.275 18.55 1.26 18.5425L0.30375 17.9912C0.23625 17.9462 0.22125 17.8862 0.25875 17.8112L0.495 17.35C0.51 17.3125 0.53625 17.29 0.57375 17.2825C0.61125 17.2675 0.64875 17.2712 0.68625 17.2937L1.58625 17.845C1.60125 17.86 1.61625 17.8637 1.63125 17.8562C1.64625 17.8487 1.65375 17.8337 1.65375 17.8112V16.7425C1.65375 16.705 1.665 16.675 1.6875 16.6525C1.7175 16.6225 1.75125 16.6075 1.78875 16.6075H2.28375C2.32125 16.6075 2.35125 16.6225 2.37375 16.6525C2.40375 16.675 2.41875 16.705 2.41875 16.7425L2.4075 17.8112C2.4075 17.8337 2.415 17.8487 2.43 17.8562C2.445 17.8637 2.46 17.86 2.475 17.845L3.375 17.2937C3.405 17.2787 3.4275 17.2712 3.4425 17.2712C3.495 17.2712 3.53625 17.2975 3.56625 17.35L3.8025 17.8112C3.8175 17.8412 3.825 17.8637 3.825 17.8787C3.825 17.9162 3.8025 17.9537 3.7575 17.9912L2.8125 18.5425C2.7975 18.55 2.79 18.5612 2.79 18.5762C2.79 18.5912 2.7975 18.6062 2.8125 18.6212L3.7575 19.1837C3.8325 19.2287 3.85125 19.2887 3.81375 19.3637L3.56625 19.825C3.54375 19.8625 3.51375 19.885 3.47625 19.8925C3.44625 19.9 3.4125 19.8925 3.375 19.87L2.475 19.3188C2.46 19.3037 2.445 19.3 2.43 19.3075C2.415 19.315 2.4075 19.33 2.4075 19.3525L2.41875 20.4212C2.41875 20.4587 2.40375 20.4925 2.37375 20.5225C2.35125 20.545 2.32125 20.5562 2.28375 20.5562H1.78875ZM6.91119 17.1137C7.30869 17.1137 7.65744 17.2112 7.95744 17.4062C8.26494 17.6012 8.50119 17.875 8.66619 18.2275C8.83869 18.58 8.92494 18.9812 8.92494 19.4312C8.92494 20.1062 8.74494 20.65 8.38494 21.0625C8.03244 21.475 7.56369 21.6812 6.97869 21.6812H6.02244C5.98494 21.6812 5.96619 21.7 5.96619 21.7375V24.865C5.96619 24.9025 5.95119 24.9362 5.92119 24.9662C5.89869 24.9887 5.86869 25 5.83119 25H4.79619C4.75869 25 4.72494 24.9887 4.69494 24.9662C4.67244 24.9362 4.66119 24.9025 4.66119 24.865V17.2487C4.66119 17.2112 4.67244 17.1812 4.69494 17.1587C4.72494 17.1287 4.75869 17.1137 4.79619 17.1137H6.91119ZM6.69744 20.6575C6.97494 20.6575 7.19619 20.5525 7.36119 20.3425C7.53369 20.125 7.61994 19.8325 7.61994 19.465C7.61994 19.09 7.53369 18.7937 7.36119 18.5762C7.19619 18.3512 6.97494 18.2387 6.69744 18.2387H6.02244C5.98494 18.2387 5.96619 18.2575 5.96619 18.295V20.6012C5.96619 20.6387 5.98494 20.6575 6.02244 20.6575H6.69744ZM11.6815 19.1612C12.274 19.1612 12.754 19.3337 13.1215 19.6787C13.489 20.0237 13.6728 20.4775 13.6728 21.04V24.865C13.6728 24.9025 13.6578 24.9362 13.6278 24.9662C13.6053 24.9887 13.5753 25 13.5378 25H12.5028C12.4653 25 12.4315 24.9887 12.4015 24.9662C12.379 24.9362 12.3678 24.9025 12.3678 24.865V24.6512C12.3678 24.6287 12.3603 24.6137 12.3453 24.6062C12.3303 24.5987 12.3153 24.6062 12.3003 24.6288C12.0378 24.9363 11.6553 25.09 11.1528 25.09C10.7253 25.09 10.3465 24.97 10.0165 24.73C9.69404 24.4825 9.53279 24.0362 9.53279 23.3912C9.53279 22.7162 9.72779 22.2362 10.1178 21.9512C10.5153 21.6662 11.0515 21.5237 11.7265 21.5237H12.3115C12.349 21.5237 12.3678 21.505 12.3678 21.4675V21.175C12.3678 20.905 12.3003 20.6912 12.1653 20.5337C12.0303 20.3687 11.8615 20.2862 11.659 20.2862C11.5015 20.2862 11.3703 20.3387 11.2653 20.4437C11.1603 20.5412 11.0965 20.6762 11.074 20.8487C11.0665 20.9387 11.0178 20.9837 10.9278 20.9837H9.83654C9.74654 20.9837 9.70529 20.9387 9.71279 20.8487C9.75029 20.3387 9.94904 19.93 10.309 19.6225C10.6765 19.315 11.134 19.1612 11.6815 19.1612ZM11.5128 24.01C11.7378 24.01 11.9365 23.9387 12.109 23.7962C12.2815 23.6537 12.3678 23.455 12.3678 23.2V22.5587C12.3678 22.5212 12.349 22.5025 12.3115 22.5025H11.7265C11.4715 22.5025 11.2653 22.5737 11.1078 22.7162C10.9503 22.8512 10.8715 23.05 10.8715 23.3125C10.8715 23.545 10.9315 23.7212 11.0515 23.8412C11.1715 23.9537 11.3253 24.01 11.5128 24.01ZM16.9532 19.1837C17.1557 19.1837 17.3132 19.2212 17.4257 19.2962C17.4857 19.3337 17.5082 19.39 17.4932 19.465L17.3132 20.5112C17.3057 20.6012 17.2532 20.6275 17.1557 20.59C17.0507 20.56 16.9532 20.545 16.8632 20.545C16.7732 20.545 16.6907 20.5562 16.6157 20.5787C16.4057 20.6087 16.2332 20.7287 16.0982 20.9387C15.9707 21.1412 15.907 21.385 15.907 21.67V24.8537C15.907 24.8912 15.892 24.925 15.862 24.955C15.8395 24.9775 15.8095 24.9887 15.772 24.9887H14.737C14.6995 24.9887 14.6657 24.9775 14.6357 24.955C14.6132 24.925 14.602 24.8912 14.602 24.8537V19.3862C14.602 19.3487 14.6132 19.3187 14.6357 19.2962C14.6657 19.2662 14.6995 19.2512 14.737 19.2512H15.772C15.8095 19.2512 15.8395 19.2662 15.862 19.2962C15.892 19.3187 15.907 19.3487 15.907 19.3862V19.9037C15.907 19.9337 15.9145 19.9525 15.9295 19.96C15.9445 19.96 15.9557 19.945 15.9632 19.915C16.1657 19.4275 16.4957 19.1837 16.9532 19.1837ZM20.5361 20.0387C20.5361 20.0762 20.5211 20.11 20.4911 20.14C20.4686 20.1625 20.4386 20.1737 20.4011 20.1737H19.7036C19.6661 20.1737 19.6473 20.1925 19.6473 20.23V23.1775C19.6473 23.44 19.6961 23.6237 19.7936 23.7287C19.8911 23.8262 20.0373 23.8712 20.2323 23.8637H20.3111C20.3486 23.8637 20.3786 23.8787 20.4011 23.9087C20.4311 23.9312 20.4461 23.9612 20.4461 23.9987V24.865C20.4461 24.9025 20.4311 24.9362 20.4011 24.9662C20.3786 24.9887 20.3486 25 20.3111 25H19.9286C19.4186 25 19.0323 24.9062 18.7698 24.7187C18.5148 24.5312 18.3873 24.1787 18.3873 23.6612V20.23C18.3873 20.1925 18.3686 20.1737 18.3311 20.1737H17.9373C17.8998 20.1737 17.8661 20.1625 17.8361 20.14C17.8136 20.11 17.8023 20.0762 17.8023 20.0387V19.3862C17.8023 19.3487 17.8136 19.3187 17.8361 19.2962C17.8661 19.2662 17.8998 19.2512 17.9373 19.2512H18.3311C18.3686 19.2512 18.3873 19.2325 18.3873 19.195V17.9575C18.3873 17.92 18.3986 17.89 18.4211 17.8675C18.4511 17.8375 18.4848 17.8225 18.5223 17.8225H19.5123C19.5498 17.8225 19.5798 17.8375 19.6023 17.8675C19.6323 17.89 19.6473 17.92 19.6473 17.9575V19.195C19.6473 19.2325 19.6661 19.2512 19.7036 19.2512H20.4011C20.4386 19.2512 20.4686 19.2662 20.4911 19.2962C20.5211 19.3187 20.5361 19.3487 20.5361 19.3862V20.0387ZM27.6846 17.125C27.7221 17.125 27.7521 17.14 27.7746 17.17C27.8046 17.1925 27.8196 17.2225 27.8196 17.26V18.115C27.8196 18.1525 27.8046 18.1862 27.7746 18.2162C27.7521 18.2387 27.7221 18.25 27.6846 18.25H26.2558C26.2183 18.25 26.1996 18.2687 26.1996 18.3062V24.865C26.1996 24.9025 26.1846 24.9362 26.1546 24.9662C26.1321 24.9887 26.1021 25 26.0646 25H25.0296C24.9921 25 24.9583 24.9887 24.9283 24.9662C24.9058 24.9362 24.8946 24.9025 24.8946 24.865V18.3062C24.8946 18.2687 24.8758 18.25 24.8383 18.25H23.4883C23.4508 18.25 23.4171 18.2387 23.3871 18.2162C23.3646 18.1862 23.3533 18.1525 23.3533 18.115V17.26C23.3533 17.2225 23.3646 17.1925 23.3871 17.17C23.4171 17.14 23.4508 17.125 23.4883 17.125H27.6846ZM29.3288 18.4637C29.0963 18.4637 28.905 18.3887 28.755 18.2387C28.605 18.0887 28.53 17.8975 28.53 17.665C28.53 17.4325 28.605 17.2412 28.755 17.0912C28.905 16.9412 29.0963 16.8662 29.3288 16.8662C29.5613 16.8662 29.7488 16.9412 29.8913 17.0912C30.0413 17.2412 30.1163 17.4325 30.1163 17.665C30.1163 17.8975 30.0413 18.0887 29.8913 18.2387C29.7413 18.3887 29.5538 18.4637 29.3288 18.4637ZM28.8225 25C28.785 25 28.7513 24.9887 28.7213 24.9662C28.6988 24.9362 28.6875 24.9025 28.6875 24.865V19.3862C28.6875 19.3487 28.6988 19.3187 28.7213 19.2962C28.7513 19.2662 28.785 19.2512 28.8225 19.2512H29.8575C29.895 19.2512 29.925 19.2662 29.9475 19.2962C29.9775 19.3187 29.9925 19.3487 29.9925 19.3862V24.865C29.9925 24.9025 29.9775 24.9362 29.9475 24.9662C29.925 24.9887 29.895 25 29.8575 25H28.8225ZM36.0657 19.1612C36.5532 19.1612 36.9207 19.3337 37.1682 19.6787C37.4232 20.0162 37.5507 20.4887 37.5507 21.0962V24.865C37.5507 24.9025 37.5357 24.9362 37.5057 24.9662C37.4832 24.9887 37.4532 25 37.4157 25H36.392C36.3545 25 36.3207 24.9887 36.2907 24.9662C36.2682 24.9362 36.257 24.9025 36.257 24.865V21.1862C36.257 20.9012 36.2007 20.68 36.0882 20.5225C35.9757 20.365 35.822 20.2862 35.627 20.2862C35.417 20.2862 35.252 20.365 35.132 20.5225C35.012 20.68 34.952 20.8975 34.952 21.175V24.865C34.952 24.9025 34.937 24.9362 34.907 24.9662C34.8845 24.9887 34.8545 25 34.817 25H33.7932C33.7557 25 33.722 24.9887 33.692 24.9662C33.6695 24.9362 33.6582 24.9025 33.6582 24.865V21.1862C33.6582 20.9012 33.5982 20.68 33.4782 20.5225C33.3657 20.365 33.2157 20.2862 33.0282 20.2862C32.8182 20.2862 32.6532 20.365 32.5332 20.5225C32.4132 20.68 32.3532 20.8975 32.3532 21.175V24.865C32.3532 24.9025 32.3382 24.9362 32.3082 24.9662C32.2857 24.9887 32.2557 25 32.2182 25H31.1945C31.157 25 31.1232 24.9887 31.0932 24.9662C31.0707 24.9362 31.0595 24.9025 31.0595 24.865V19.3862C31.0595 19.3487 31.0707 19.3187 31.0932 19.2962C31.1232 19.2662 31.157 19.2512 31.1945 19.2512H32.2182C32.2557 19.2512 32.2857 19.2662 32.3082 19.2962C32.3382 19.3187 32.3532 19.3487 32.3532 19.3862V19.5662C32.3532 19.5887 32.3607 19.6037 32.3757 19.6112C32.3907 19.6187 32.4057 19.6112 32.4207 19.5887C32.5707 19.4387 32.7395 19.33 32.927 19.2625C33.1145 19.195 33.2982 19.1612 33.4782 19.1612C34.0332 19.1612 34.442 19.3975 34.7045 19.87C34.727 19.9 34.7607 19.8887 34.8057 19.8362C34.9557 19.5962 35.1432 19.4237 35.3682 19.3188C35.6007 19.2137 35.8332 19.1612 36.0657 19.1612ZM42.4337 22.4687C42.4337 22.5062 42.4187 22.54 42.3887 22.57C42.3662 22.5925 42.3362 22.6037 42.2987 22.6037H39.8124C39.7749 22.6037 39.7562 22.6225 39.7562 22.66V23.1662C39.7562 23.3987 39.8199 23.59 39.9474 23.74C40.0749 23.89 40.2399 23.965 40.4424 23.965C40.6149 23.965 40.7612 23.9125 40.8812 23.8075C41.0087 23.695 41.0912 23.5525 41.1287 23.38C41.1512 23.305 41.1999 23.2675 41.2749 23.2675L42.2762 23.3125C42.3137 23.3125 42.3437 23.3275 42.3662 23.3575C42.3962 23.38 42.4074 23.4137 42.3999 23.4587C42.3474 23.9837 42.1562 24.3887 41.8262 24.6737C41.4962 24.9512 41.0349 25.09 40.4424 25.09C39.8274 25.09 39.3399 24.9288 38.9799 24.6062C38.6274 24.2762 38.4512 23.83 38.4512 23.2675V20.9837C38.4512 20.4362 38.6274 19.9975 38.9799 19.6675C39.3399 19.33 39.8274 19.1612 40.4424 19.1612C41.0574 19.1612 41.5412 19.33 41.8937 19.6675C42.2537 19.9975 42.4337 20.4362 42.4337 20.9837V22.4687ZM40.4424 20.2862C40.2399 20.2862 40.0749 20.3612 39.9474 20.5112C39.8199 20.6612 39.7562 20.8525 39.7562 21.085V21.5912C39.7562 21.6287 39.7749 21.6475 39.8124 21.6475H41.0837C41.1212 21.6475 41.1399 21.6287 41.1399 21.5912V21.085C41.1399 20.845 41.0762 20.6537 40.9487 20.5112C40.8212 20.3612 40.6524 20.2862 40.4424 20.2862ZM45.5834 25.9C45.5084 25.9 45.4709 25.8625 45.4709 25.7875V16.5625C45.4709 16.4875 45.5084 16.45 45.5834 16.45H46.1572C46.2322 16.45 46.2697 16.4875 46.2697 16.5625V25.7875C46.2697 25.8625 46.2322 25.9 46.1572 25.9H45.5834ZM51.7006 17.1137C52.2481 17.1137 52.6906 17.3162 53.0281 17.7212C53.3656 18.1187 53.5344 18.6437 53.5344 19.2962C53.5344 19.9412 53.3694 20.4625 53.0394 20.86C52.7094 21.25 52.2744 21.445 51.7344 21.445H50.5756C50.5456 21.445 50.5306 21.46 50.5306 21.49V24.8875C50.5306 24.9625 50.4931 25 50.4181 25H49.8444C49.7694 25 49.7319 24.9625 49.7319 24.8875V17.2262C49.7319 17.1512 49.7694 17.1137 49.8444 17.1137H51.7006ZM51.5994 20.7925C51.9369 20.7925 52.2106 20.6575 52.4206 20.3875C52.6306 20.1175 52.7356 19.7575 52.7356 19.3075C52.7356 18.8575 52.6306 18.4975 52.4206 18.2275C52.2106 17.95 51.9369 17.8112 51.5994 17.8112H50.5756C50.5456 17.8112 50.5306 17.8262 50.5306 17.8562V20.7475C50.5306 20.7775 50.5456 20.7925 50.5756 20.7925H51.5994ZM57.1949 19.42C57.1949 19.345 57.2324 19.3075 57.3074 19.3075H57.8812C57.9562 19.3075 57.9937 19.345 57.9937 19.42V24.8875C57.9937 24.9625 57.9562 25 57.8812 25H57.3074C57.2324 25 57.1949 24.9625 57.1949 24.8875V24.505C57.1949 24.4825 57.1874 24.4712 57.1724 24.4712C57.1649 24.4712 57.1537 24.4787 57.1387 24.4937C56.9062 24.8837 56.5312 25.0788 56.0137 25.0788C55.5637 25.0788 55.2037 24.9437 54.9337 24.6737C54.6712 24.3962 54.5399 23.98 54.5399 23.425V19.42C54.5399 19.345 54.5774 19.3075 54.6524 19.3075H55.2262C55.3012 19.3075 55.3387 19.345 55.3387 19.42V23.245C55.3387 23.62 55.4137 23.905 55.5637 24.1C55.7212 24.2875 55.9462 24.3812 56.2387 24.3812C56.5387 24.3812 56.7712 24.2725 56.9362 24.055C57.1087 23.8375 57.1949 23.5412 57.1949 23.1662V19.42ZM61.2992 19.2175C61.7717 19.2175 62.1505 19.375 62.4355 19.69C62.728 19.9975 62.8742 20.4137 62.8742 20.9387V23.3687C62.8742 23.8787 62.7317 24.295 62.4467 24.6175C62.1617 24.9325 61.7792 25.09 61.2992 25.09C61.0967 25.09 60.9017 25.0525 60.7142 24.9775C60.5267 24.895 60.3617 24.775 60.2192 24.6175C60.2042 24.6025 60.1892 24.5987 60.1742 24.6062C60.1667 24.6137 60.163 24.625 60.163 24.64V24.8875C60.163 24.9625 60.1255 25 60.0505 25H59.4767C59.4017 25 59.3642 24.9625 59.3642 24.8875V17.2375C59.3642 17.1625 59.4017 17.125 59.4767 17.125H60.0505C60.1255 17.125 60.163 17.1625 60.163 17.2375V19.6675C60.163 19.6825 60.1705 19.6937 60.1855 19.7012C60.2005 19.7087 60.2155 19.7012 60.2305 19.6787C60.3655 19.5287 60.5267 19.4162 60.7142 19.3412C60.9017 19.2587 61.0967 19.2175 61.2992 19.2175ZM62.0755 20.995C62.0755 20.6725 61.9855 20.4137 61.8055 20.2187C61.6255 20.0162 61.3892 19.915 61.0967 19.915C60.8192 19.915 60.5942 20.0162 60.4217 20.2187C60.2492 20.4137 60.163 20.6725 60.163 20.995V23.3237C60.163 23.6387 60.2492 23.8975 60.4217 24.1C60.5942 24.295 60.8192 24.3925 61.0967 24.3925C61.3892 24.3925 61.6255 24.295 61.8055 24.1C61.9855 23.8975 62.0755 23.6387 62.0755 23.3237V20.995ZM64.1663 25C64.0913 25 64.0538 24.9625 64.0538 24.8875V17.2375C64.0538 17.1625 64.0913 17.125 64.1663 17.125H64.7401C64.8151 17.125 64.8526 17.1625 64.8526 17.2375V24.8875C64.8526 24.9625 64.8151 25 64.7401 25H64.1663ZM66.6375 18.2725C66.45 18.2725 66.2963 18.2125 66.1763 18.0925C66.0638 17.9725 66.0075 17.8225 66.0075 17.6425C66.0075 17.455 66.0638 17.305 66.1763 17.1925C66.2963 17.0725 66.45 17.0125 66.6375 17.0125C66.8175 17.0125 66.9638 17.0725 67.0763 17.1925C67.1963 17.305 67.2563 17.455 67.2563 17.6425C67.2563 17.8225 67.1963 17.9725 67.0763 18.0925C66.9638 18.2125 66.8175 18.2725 66.6375 18.2725ZM66.3563 25C66.2813 25 66.2438 24.9625 66.2438 24.8875V19.42C66.2438 19.345 66.2813 19.3075 66.3563 19.3075H66.93C67.005 19.3075 67.0425 19.345 67.0425 19.42V24.8875C67.0425 24.9625 67.005 25 66.93 25H66.3563ZM70.1251 25.09C69.5926 25.09 69.1651 24.9325 68.8426 24.6175C68.5276 24.3025 68.3701 23.8862 68.3701 23.3687V20.9387C68.3701 20.4287 68.5314 20.0162 68.8539 19.7012C69.1764 19.3787 69.6001 19.2175 70.1251 19.2175C70.4776 19.2175 70.7889 19.2887 71.0589 19.4312C71.3289 19.5737 71.5351 19.765 71.6776 20.005C71.8276 20.2375 71.9026 20.4962 71.9026 20.7812V20.8937C71.9026 20.9687 71.8651 21.0062 71.7901 21.0062L71.2164 21.0287C71.1414 21.0287 71.1039 20.9912 71.1039 20.9162V20.8375C71.1039 20.59 71.0101 20.3762 70.8226 20.1962C70.6426 20.0087 70.4101 19.915 70.1251 19.915C69.8401 19.915 69.6076 20.0162 69.4276 20.2187C69.2551 20.4137 69.1689 20.6725 69.1689 20.995V23.3125C69.1689 23.635 69.2551 23.8975 69.4276 24.1C69.6076 24.295 69.8401 24.3925 70.1251 24.3925C70.4101 24.3925 70.6426 24.3025 70.8226 24.1225C71.0101 23.935 71.1039 23.7175 71.1039 23.47V23.3912C71.1039 23.3162 71.1414 23.2787 71.2164 23.2787L71.7901 23.29C71.8651 23.29 71.9026 23.3275 71.9026 23.4025V23.5262C71.9026 23.9762 71.7376 24.3512 71.4076 24.6512C71.0851 24.9437 70.6576 25.09 70.1251 25.09ZM73.504 18.2725C73.3165 18.2725 73.1627 18.2125 73.0427 18.0925C72.9302 17.9725 72.874 17.8225 72.874 17.6425C72.874 17.455 72.9302 17.305 73.0427 17.1925C73.1627 17.0725 73.3165 17.0125 73.504 17.0125C73.684 17.0125 73.8302 17.0725 73.9427 17.1925C74.0627 17.305 74.1227 17.455 74.1227 17.6425C74.1227 17.8225 74.0627 17.9725 73.9427 18.0925C73.8302 18.2125 73.684 18.2725 73.504 18.2725ZM73.2227 25C73.1477 25 73.1102 24.9625 73.1102 24.8875V19.42C73.1102 19.345 73.1477 19.3075 73.2227 19.3075H73.7965C73.8715 19.3075 73.909 19.345 73.909 19.42V24.8875C73.909 24.9625 73.8715 25 73.7965 25H73.2227ZM76.8453 25.0563C76.3278 25.0563 75.9116 24.925 75.5966 24.6625C75.2891 24.3925 75.1353 24.0363 75.1353 23.5938V23.515C75.1353 23.44 75.1728 23.4025 75.2478 23.4025H75.7878C75.8628 23.4025 75.9003 23.44 75.9003 23.515V23.5825C75.9003 23.8225 75.9866 24.025 76.1591 24.19C76.3391 24.355 76.5716 24.4375 76.8566 24.4375C77.1266 24.4375 77.3441 24.355 77.5091 24.19C77.6741 24.025 77.7566 23.815 77.7566 23.56C77.7566 23.365 77.7041 23.2037 77.5991 23.0762C77.4941 22.9412 77.3703 22.8362 77.2278 22.7612C77.0928 22.6862 76.8866 22.5887 76.6091 22.4687C76.3166 22.3487 76.0728 22.2325 75.8778 22.12C75.6903 22 75.5253 21.835 75.3828 21.625C75.2478 21.4075 75.1803 21.1337 75.1803 20.8037C75.1803 20.3237 75.3266 19.945 75.6191 19.6675C75.9191 19.39 76.3203 19.2512 76.8228 19.2512C77.3328 19.2512 77.7378 19.3937 78.0378 19.6787C78.3378 19.9637 78.4878 20.3425 78.4878 20.815V20.8487C78.4878 20.9237 78.4503 20.9612 78.3753 20.9612H77.8578C77.7828 20.9612 77.7453 20.9237 77.7453 20.8487V20.7812C77.7453 20.5262 77.6591 20.3162 77.4866 20.1512C77.3216 19.9862 77.1041 19.9037 76.8341 19.9037C76.5641 19.9037 76.3466 19.99 76.1816 20.1625C76.0241 20.3275 75.9453 20.5337 75.9453 20.7812C75.9453 20.9612 75.9941 21.115 76.0916 21.2425C76.1891 21.3625 76.3091 21.4637 76.4516 21.5462C76.5941 21.6212 76.7928 21.715 77.0478 21.8275C77.3553 21.9625 77.6066 22.09 77.8016 22.21C78.0041 22.33 78.1803 22.4987 78.3303 22.7162C78.4803 22.9337 78.5553 23.2037 78.5553 23.5262C78.5553 23.9912 78.4016 24.3625 78.0941 24.64C77.7866 24.9175 77.3703 25.0563 76.8453 25.0563ZM85.3978 17.125C85.4728 17.125 85.5103 17.1625 85.5103 17.2375V17.71C85.5103 17.785 85.4728 17.8225 85.3978 17.8225H83.9128C83.8828 17.8225 83.8678 17.8375 83.8678 17.8675V24.8875C83.8678 24.9625 83.8303 25 83.7553 25H83.1815C83.1065 25 83.069 24.9625 83.069 24.8875V17.8675C83.069 17.8375 83.054 17.8225 83.024 17.8225H81.629C81.554 17.8225 81.5165 17.785 81.5165 17.71V17.2375C81.5165 17.1625 81.554 17.125 81.629 17.125H85.3978ZM88.6024 19.2287C89.0599 19.2287 89.4124 19.3862 89.6599 19.7012C89.9149 20.0162 90.0424 20.455 90.0424 21.0175V24.8875C90.0424 24.9625 90.0049 25 89.9299 25H89.3561C89.2811 25 89.2436 24.9625 89.2436 24.8875V21.085C89.2436 20.7175 89.1611 20.4325 88.9961 20.23C88.8386 20.0275 88.6174 19.9262 88.3324 19.9262C88.0324 19.9262 87.7961 20.035 87.6236 20.2525C87.4586 20.47 87.3761 20.7662 87.3761 21.1412V24.8875C87.3761 24.9625 87.3386 25 87.2636 25H86.6899C86.6149 25 86.5774 24.9625 86.5774 24.8875V17.2375C86.5774 17.1625 86.6149 17.125 86.6899 17.125H87.2636C87.3386 17.125 87.3761 17.1625 87.3761 17.2375V19.78C87.3761 19.795 87.3836 19.8062 87.3986 19.8137C87.4136 19.8212 87.4249 19.8137 87.4324 19.7912C87.5674 19.6037 87.7361 19.465 87.9386 19.375C88.1486 19.2775 88.3699 19.2287 88.6024 19.2287ZM93.0104 19.2175C93.5354 19.2175 93.9554 19.39 94.2704 19.735C94.5854 20.0725 94.7429 20.5262 94.7429 21.0962V24.8875C94.7429 24.9625 94.7054 25 94.6304 25H94.0567C93.9817 25 93.9442 24.9625 93.9442 24.8875V24.55C93.9442 24.535 93.9367 24.5275 93.9217 24.5275C93.9142 24.52 93.9029 24.5237 93.8879 24.5387C93.6104 24.9062 93.1942 25.09 92.6392 25.09C92.2267 25.09 91.8667 24.9737 91.5592 24.7412C91.2592 24.5012 91.1092 24.0812 91.1092 23.4812C91.1092 22.8437 91.2929 22.3787 91.6604 22.0862C92.0279 21.7862 92.5117 21.6362 93.1117 21.6362H93.8992C93.9292 21.6362 93.9442 21.6212 93.9442 21.5912V21.1525C93.9442 20.7775 93.8579 20.4775 93.6854 20.2525C93.5129 20.0275 93.2804 19.915 92.9879 19.915C92.7629 19.915 92.5679 19.99 92.4029 20.14C92.2454 20.29 92.1517 20.4812 92.1217 20.7137C92.1217 20.7887 92.0842 20.8262 92.0092 20.8262L91.3792 20.815C91.3417 20.815 91.3117 20.8037 91.2892 20.7812C91.2742 20.7587 91.2704 20.7325 91.2779 20.7025C91.3154 20.26 91.4954 19.9037 91.8179 19.6337C92.1404 19.3562 92.5379 19.2175 93.0104 19.2175ZM92.8079 24.3925C93.1154 24.3925 93.3817 24.295 93.6067 24.1C93.8317 23.8975 93.9442 23.62 93.9442 23.2675V22.3225C93.9442 22.2925 93.9292 22.2775 93.8992 22.2775H93.1004C92.7404 22.2775 92.4554 22.375 92.2454 22.57C92.0354 22.7575 91.9304 23.0387 91.9304 23.4137C91.9304 23.7437 92.0092 23.9912 92.1667 24.1562C92.3317 24.3137 92.5454 24.3925 92.8079 24.3925ZM96.4764 18.2725C96.2889 18.2725 96.1351 18.2125 96.0151 18.0925C95.9026 17.9725 95.8464 17.8225 95.8464 17.6425C95.8464 17.455 95.9026 17.305 96.0151 17.1925C96.1351 17.0725 96.2889 17.0125 96.4764 17.0125C96.6564 17.0125 96.8026 17.0725 96.9151 17.1925C97.0351 17.305 97.0951 17.455 97.0951 17.6425C97.0951 17.8225 97.0351 17.9725 96.9151 18.0925C96.8026 18.2125 96.6564 18.2725 96.4764 18.2725ZM96.1951 25C96.1201 25 96.0826 24.9625 96.0826 24.8875V19.42C96.0826 19.345 96.1201 19.3075 96.1951 19.3075H96.7689C96.8439 19.3075 96.8814 19.345 96.8814 19.42V24.8875C96.8814 24.9625 96.8439 25 96.7689 25H96.1951ZM98.3777 25C98.3027 25 98.2652 24.9625 98.2652 24.8875V17.2375C98.2652 17.1625 98.3027 17.125 98.3777 17.125H98.9515C99.0265 17.125 99.064 17.1625 99.064 17.2375V24.8875C99.064 24.9625 99.0265 25 98.9515 25H98.3777ZM102.03 19.2175C102.555 19.2175 102.975 19.39 103.29 19.735C103.605 20.0725 103.763 20.5262 103.763 21.0962V24.8875C103.763 24.9625 103.725 25 103.65 25H103.076C103.001 25 102.964 24.9625 102.964 24.8875V24.55C102.964 24.535 102.956 24.5275 102.941 24.5275C102.934 24.52 102.923 24.5237 102.908 24.5387C102.63 24.9062 102.214 25.09 101.659 25.09C101.246 25.09 100.886 24.9737 100.579 24.7412C100.279 24.5012 100.129 24.0812 100.129 23.4812C100.129 22.8437 100.313 22.3787 100.68 22.0862C101.048 21.7862 101.531 21.6362 102.131 21.6362H102.919C102.949 21.6362 102.964 21.6212 102.964 21.5912V21.1525C102.964 20.7775 102.878 20.4775 102.705 20.2525C102.533 20.0275 102.3 19.915 102.008 19.915C101.783 19.915 101.588 19.99 101.423 20.14C101.265 20.29 101.171 20.4812 101.141 20.7137C101.141 20.7887 101.104 20.8262 101.029 20.8262L100.399 20.815C100.361 20.815 100.331 20.8037 100.309 20.7812C100.294 20.7587 100.29 20.7325 100.298 20.7025C100.335 20.26 100.515 19.9037 100.838 19.6337C101.16 19.3562 101.558 19.2175 102.03 19.2175ZM101.828 24.3925C102.135 24.3925 102.401 24.295 102.626 24.1C102.851 23.8975 102.964 23.62 102.964 23.2675V22.3225C102.964 22.2925 102.949 22.2775 102.919 22.2775H102.12C101.76 22.2775 101.475 22.375 101.265 22.57C101.055 22.7575 100.95 23.0387 100.95 23.4137C100.95 23.7437 101.029 23.9912 101.186 24.1562C101.351 24.3137 101.565 24.3925 101.828 24.3925ZM107.037 19.2287C107.495 19.2287 107.847 19.3862 108.095 19.7012C108.35 20.0162 108.477 20.455 108.477 21.0175V24.8875C108.477 24.9625 108.44 25 108.365 25H107.791C107.716 25 107.679 24.9625 107.679 24.8875V21.085C107.679 20.7175 107.596 20.4325 107.431 20.23C107.274 20.0275 107.052 19.9262 106.767 19.9262C106.467 19.9262 106.231 20.035 106.059 20.2525C105.894 20.47 105.811 20.7662 105.811 21.1412V24.8875C105.811 24.9625 105.774 25 105.699 25H105.125C105.05 25 105.012 24.9625 105.012 24.8875V19.42C105.012 19.345 105.05 19.3075 105.125 19.3075H105.699C105.774 19.3075 105.811 19.345 105.811 19.42V19.78C105.811 19.795 105.819 19.8062 105.834 19.8137C105.849 19.8212 105.86 19.8137 105.867 19.7912C106.002 19.6037 106.171 19.465 106.374 19.375C106.584 19.2775 106.805 19.2287 107.037 19.2287ZM112.368 17.2375C112.368 17.1625 112.405 17.125 112.48 17.125H113.054C113.129 17.125 113.167 17.1625 113.167 17.2375V24.8875C113.167 24.9625 113.129 25 113.054 25H112.48C112.405 25 112.368 24.9625 112.368 24.8875V24.64C112.368 24.625 112.36 24.6137 112.345 24.6062C112.338 24.5987 112.327 24.6025 112.312 24.6175C112.027 24.9325 111.667 25.09 111.232 25.09C110.752 25.09 110.369 24.9325 110.084 24.6175C109.799 24.295 109.657 23.8787 109.657 23.3687V20.9387C109.657 20.4137 109.799 19.9975 110.084 19.69C110.369 19.375 110.752 19.2175 111.232 19.2175C111.674 19.2175 112.034 19.3787 112.312 19.7012C112.327 19.7162 112.338 19.72 112.345 19.7125C112.36 19.705 112.368 19.6937 112.368 19.6787V17.2375ZM111.423 24.3925C111.7 24.3925 111.925 24.295 112.098 24.1C112.278 23.8975 112.368 23.6387 112.368 23.3237V20.995C112.368 20.6725 112.278 20.4137 112.098 20.2187C111.925 20.0162 111.7 19.915 111.423 19.915C111.138 19.915 110.902 20.0162 110.714 20.2187C110.534 20.4137 110.444 20.6725 110.444 20.995V23.3237C110.444 23.6387 110.534 23.8975 110.714 24.1C110.902 24.295 111.138 24.3925 111.423 24.3925ZM114.211 25C114.136 25 114.099 24.9625 114.099 24.8875V24.4712C114.099 24.3962 114.136 24.3587 114.211 24.3587H117.721C117.796 24.3587 117.834 24.3962 117.834 24.4712V24.8875C117.834 24.9625 117.796 25 117.721 25H114.211Z" fill="black"/>
<path d="M0 8.1875H133.017V8.7478H0V8.1875Z" fill="#0000FF"/>
<path d="M153.032 2.91956H152.252V11.6372H153.032V12.8622H150.659V1.69458H153.032V2.91956ZM157.124 3.00195L159.178 8.80273L161.221 3.00195H163.386V11H161.732V8.81372L161.897 5.03992L159.738 11H158.607L156.453 5.04541L156.618 8.81372V11H154.97V3.00195H157.124ZM169.29 11C169.217 10.8572 169.163 10.6796 169.13 10.4672C168.746 10.8956 168.246 11.1099 167.631 11.1099C167.049 11.1099 166.565 10.9414 166.181 10.6045C165.8 10.2676 165.609 9.84277 165.609 9.33008C165.609 8.7002 165.842 8.2168 166.307 7.87988C166.776 7.54297 167.451 7.37268 168.334 7.36902H169.065V7.02844C169.065 6.75378 168.993 6.53406 168.85 6.36926C168.711 6.20447 168.49 6.12207 168.186 6.12207C167.918 6.12207 167.708 6.18616 167.554 6.31433C167.404 6.4425 167.329 6.61829 167.329 6.84167H165.741C165.741 6.49744 165.847 6.17883 166.06 5.88586C166.272 5.5929 166.573 5.36401 166.961 5.19922C167.349 5.03076 167.785 4.94653 168.268 4.94653C169 4.94653 169.581 5.13147 170.009 5.50134C170.442 5.86755 170.658 6.38391 170.658 7.05042V9.62671C170.661 10.1907 170.74 10.6173 170.894 10.9066V11H169.29ZM167.977 9.89587C168.211 9.89587 168.427 9.8446 168.625 9.74207C168.823 9.63586 168.969 9.49487 169.065 9.31909V8.29736H168.471C167.677 8.29736 167.254 8.57202 167.202 9.12134L167.197 9.21472C167.197 9.41248 167.266 9.57544 167.406 9.70361C167.545 9.83179 167.735 9.89587 167.977 9.89587ZM176.342 6.54504C176.126 6.51575 175.935 6.5011 175.771 6.5011C175.17 6.5011 174.776 6.70435 174.59 7.11084V11H173.002V5.0564H174.502L174.546 5.76501C174.864 5.21936 175.306 4.94653 175.87 4.94653C176.045 4.94653 176.21 4.97034 176.364 5.01794L176.342 6.54504ZM187.579 11H182.097V9.91235L184.684 7.15479C185.039 6.7666 185.301 6.42786 185.469 6.13855C185.641 5.84924 185.728 5.57458 185.728 5.31458C185.728 4.95935 185.638 4.68103 185.458 4.47961C185.279 4.27454 185.023 4.172 184.689 4.172C184.33 4.172 184.047 4.29651 183.838 4.54553C183.633 4.79089 183.53 5.11499 183.53 5.51782H181.937C181.937 5.03076 182.053 4.58582 182.283 4.18298C182.518 3.78015 182.847 3.46521 183.272 3.23816C183.697 3.00745 184.178 2.89209 184.717 2.89209C185.541 2.89209 186.18 3.08984 186.634 3.48535C187.092 3.88086 187.321 4.43933 187.321 5.16077C187.321 5.55627 187.218 5.95911 187.013 6.36926C186.808 6.77942 186.456 7.25732 185.958 7.80298L184.14 9.72009H187.579V11ZM195.065 7.69312C195.065 8.79907 194.836 9.64502 194.378 10.231C193.92 10.8169 193.25 11.1099 192.368 11.1099C191.496 11.1099 190.83 10.8224 190.368 10.2474C189.907 9.67249 189.671 8.84851 189.66 7.77551V6.30334C189.66 5.1864 189.89 4.33862 190.352 3.76001C190.817 3.1814 191.485 2.89209 192.357 2.89209C193.228 2.89209 193.895 3.17957 194.356 3.75452C194.818 4.32581 195.054 5.14795 195.065 6.22095V7.69312ZM193.477 6.07812C193.477 5.41528 193.386 4.93372 193.203 4.63342C193.023 4.32947 192.741 4.17749 192.357 4.17749C191.983 4.17749 191.707 4.32214 191.527 4.61145C191.351 4.89709 191.258 5.3457 191.247 5.95728V7.90186C191.247 8.55371 191.335 9.03894 191.511 9.35754C191.69 9.67249 191.976 9.82996 192.368 9.82996C192.756 9.82996 193.036 9.67798 193.208 9.37402C193.38 9.07007 193.47 8.60498 193.477 7.97876V6.07812ZM201.123 11H199.535V4.88062L197.64 5.46838V4.17749L200.952 2.99097H201.123V11ZM209.158 2.91956V4.22693H209.004C208.286 4.23792 207.708 4.42468 207.268 4.78723C206.833 5.14978 206.571 5.65332 206.483 6.29785C206.908 5.86572 207.444 5.64966 208.092 5.64966C208.788 5.64966 209.341 5.89868 209.751 6.39673C210.161 6.89478 210.367 7.55029 210.367 8.36328C210.367 8.8833 210.253 9.35388 210.026 9.77502C209.803 10.1962 209.484 10.5239 209.07 10.7583C208.66 10.9927 208.195 11.1099 207.675 11.1099C206.833 11.1099 206.151 10.8169 205.631 10.231C205.115 9.64502 204.857 8.86316 204.857 7.88538V7.31409C204.857 6.44617 205.02 5.68079 205.346 5.01794C205.675 4.35144 206.146 3.83691 206.758 3.47437C207.373 3.10815 208.085 2.92322 208.894 2.91956H209.158ZM207.609 6.92407C207.353 6.92407 207.12 6.99182 206.911 7.12732C206.703 7.25916 206.549 7.43494 206.45 7.65466V8.13806C206.45 8.66907 206.554 9.08472 206.763 9.38501C206.972 9.68164 207.265 9.82996 207.642 9.82996C207.983 9.82996 208.257 9.69629 208.466 9.42896C208.678 9.15796 208.785 8.80823 208.785 8.37976C208.785 7.94397 208.678 7.59241 208.466 7.32507C208.254 7.05774 207.968 6.92407 207.609 6.92407ZM219.516 8.21497H216.423V6.93506H219.516V8.21497ZM230.758 7.73157H227.594V11H225.946V3.00195H231.154V4.33679H227.594V6.40222H230.758V7.73157ZM235.745 11.1099C234.873 11.1099 234.163 10.8425 233.614 10.3079C233.068 9.77319 232.795 9.06091 232.795 8.17102V8.01721C232.795 7.42029 232.911 6.88745 233.141 6.4187C233.372 5.94629 233.698 5.58374 234.119 5.33105C234.544 5.07471 235.027 4.94653 235.569 4.94653C236.382 4.94653 237.021 5.20288 237.486 5.71558C237.955 6.22827 238.189 6.9552 238.189 7.89636V8.54456H234.405C234.456 8.93274 234.61 9.24402 234.866 9.47839C235.126 9.71277 235.454 9.82996 235.849 9.82996C236.461 9.82996 236.939 9.6084 237.283 9.16528L238.063 10.0387C237.825 10.3756 237.503 10.6393 237.096 10.8297C236.69 11.0165 236.239 11.1099 235.745 11.1099ZM235.564 6.23193C235.249 6.23193 234.992 6.33813 234.795 6.55054C234.601 6.76294 234.476 7.06689 234.421 7.4624H236.629V7.33606C236.622 6.9845 236.527 6.7135 236.344 6.52307C236.161 6.32898 235.901 6.23193 235.564 6.23193ZM245.577 8.08313C245.577 9.03528 245.373 9.77869 244.967 10.3134C244.56 10.8444 243.993 11.1099 243.264 11.1099C242.62 11.1099 242.105 10.8627 241.72 10.3683L241.649 11H240.221V2.5625H241.808V5.58923C242.175 5.16077 242.656 4.94653 243.253 4.94653C243.978 4.94653 244.546 5.21387 244.956 5.74854C245.37 6.27954 245.577 7.02844 245.577 7.99524V8.08313ZM243.989 7.96777C243.989 7.36719 243.894 6.92957 243.703 6.65491C243.513 6.37659 243.229 6.23743 242.852 6.23743C242.347 6.23743 241.999 6.44434 241.808 6.85815V9.20374C242.002 9.62122 242.354 9.82996 242.863 9.82996C243.376 9.82996 243.713 9.57727 243.874 9.0719C243.951 8.8302 243.989 8.46216 243.989 7.96777ZM257.028 11H251.546V9.91235L254.133 7.15479C254.488 6.7666 254.75 6.42786 254.918 6.13855C255.09 5.84924 255.177 5.57458 255.177 5.31458C255.177 4.95935 255.087 4.68103 254.907 4.47961C254.728 4.27454 254.472 4.172 254.138 4.172C253.779 4.172 253.496 4.29651 253.287 4.54553C253.082 4.79089 252.979 5.11499 252.979 5.51782H251.386C251.386 5.03076 251.502 4.58582 251.732 4.18298C251.967 3.78015 252.296 3.46521 252.721 3.23816C253.146 3.00745 253.627 2.89209 254.166 2.89209C254.99 2.89209 255.629 3.08984 256.083 3.48535C256.541 3.88086 256.77 4.43933 256.77 5.16077C256.77 5.55627 256.667 5.95911 256.462 6.36926C256.257 6.77942 255.905 7.25732 255.407 7.80298L253.589 9.72009H257.028V11ZM264.514 7.69312C264.514 8.79907 264.285 9.64502 263.827 10.231C263.369 10.8169 262.699 11.1099 261.817 11.1099C260.945 11.1099 260.279 10.8224 259.817 10.2474C259.356 9.67249 259.12 8.84851 259.109 7.77551V6.30334C259.109 5.1864 259.339 4.33862 259.801 3.76001C260.266 3.1814 260.934 2.89209 261.806 2.89209C262.677 2.89209 263.344 3.17957 263.805 3.75452C264.267 4.32581 264.503 5.14795 264.514 6.22095V7.69312ZM262.926 6.07812C262.926 5.41528 262.835 4.93372 262.652 4.63342C262.472 4.32947 262.19 4.17749 261.806 4.17749C261.432 4.17749 261.156 4.32214 260.976 4.61145C260.8 4.89709 260.707 5.3457 260.696 5.95728V7.90186C260.696 8.55371 260.784 9.03894 260.96 9.35754C261.139 9.67249 261.425 9.82996 261.817 9.82996C262.205 9.82996 262.485 9.67798 262.657 9.37402C262.829 9.07007 262.919 8.60498 262.926 7.97876V6.07812ZM270.572 11H268.984V4.88062L267.089 5.46838V4.17749L270.401 2.99097H270.572V11ZM279.739 3.89185L276.646 11H274.971L278.069 4.28735H274.092V3.00195H279.739V3.89185ZM281.413 1.69458H283.786V12.8622H281.413V11.6372H282.198V2.91956H281.413V1.69458Z" fill="black"/>
</svg>
