<svg width="102" height="41" viewBox="0 0 102 41" fill="none" xmlns="http://www.w3.org/2000/svg">
<path d="M9.01284 20.8035L8.0712 18.158L6.21034 18.853V16.8128H3.43026V18.853L1.5694 18.158L0.62776 20.8035L2.4662 21.4537L1.18826 22.9558L3.34058 24.7719L4.8203 23.0007L6.30002 24.7719L8.45234 22.9558L7.15198 21.4537L9.01284 20.8035ZM32.888 17.306L30.3994 26.3637L26.588 17.3957H25.1083L21.3642 26.3637L18.8083 17.306H14.1673L19.0773 33H22.8887L25.8482 25.4445L28.8524 33H32.6638L37.5066 17.306H32.888ZM51.4299 33.4036C56.4744 33.4036 60.0616 29.9733 60.0616 25.1754C60.0616 20.3551 56.4744 16.9249 51.4299 16.9249C46.3854 16.9249 42.7982 20.3775 42.7982 25.1754C42.7982 29.9509 46.3854 33.4036 51.4299 33.4036ZM51.4299 29.3904C49.0534 29.3904 47.2822 27.5968 47.2822 25.1754C47.2822 22.7316 49.0534 20.938 51.4299 20.938C53.8288 20.938 55.5552 22.7092 55.5552 25.1754C55.5552 27.6192 53.8288 29.3904 51.4299 29.3904ZM75.5724 33H80.3927L77.2763 27.3053C78.8233 26.3861 79.7649 24.7943 79.7649 22.8662C79.7649 19.5928 77.2987 17.306 73.9357 17.306H67.1201V33H71.4471V28.2021H73.0165L75.5724 33ZM71.4471 21.1622H73.4201C74.6308 21.1622 75.3258 21.8797 75.3258 22.8662C75.3258 23.8302 74.6308 24.5701 73.4201 24.5701H71.4471V21.1622ZM101.099 33L95.6064 24.9288L100.628 17.306H95.6064L91.4587 23.9423V17.306H87.1316V33H91.4587V26.0722L95.9651 33H101.099Z" fill="black"/>
<path d="M14.7247 7.1688L17.1403 7.1688V4.84714L14.7247 4.84714L14.7247 7.1688ZM14.7247 12H17.1403V9.69176H14.7247V12ZM33.5913 12L32.1822 2.606L29.6056 2.606L27.3779 7.71902L25.1636 2.606L22.5735 2.606L21.151 12H23.7813L24.506 6.60516L26.9887 12.0268H27.7536L30.2497 6.59174L30.9744 12H33.5913ZM45.9981 2.606L43.1396 2.606L41.4219 6.00126L39.7041 2.606L36.8322 2.606L40.0933 8.32292V12L42.7236 12V8.33634L45.9981 2.606Z" fill="#00FF00"/>
</svg>
