<svg width="1153" height="573" viewBox="0 0 1153 573" fill="none" xmlns="http://www.w3.org/2000/svg">
<rect x="249.916" y="188.877" width="859.629" height="381.556" fill="white" stroke="#C4C4C4" stroke-width="2.52224"/>
<rect x="249.916" y="188.877" width="161.157" height="381.556" stroke="#C4C4C4" stroke-width="2.52224"/>
<rect x="249.496" y="188.457" width="860.47" height="29.6498" fill="#C4C4C4" stroke="#C4C4C4" stroke-width="1.68149"/>
<rect x="1085.6" y="188.877" width="23.9473" height="381.556" stroke="#C4C4C4" stroke-width="2.52224"/>
<rect x="1083.08" y="542.343" width="28.9918" height="28.9918" fill="#C4C4C4" stroke="white" stroke-width="2.52224"/>
<path fill-rule="evenodd" clip-rule="evenodd" d="M1098.4 552.561L1102.64 556.805L1103.99 555.46L1098.07 549.544L1097.4 548.871L1096.73 549.543L1090.76 555.509L1092.1 556.854L1096.49 552.464L1096.49 564.885H1098.4L1098.4 552.561Z" fill="white"/>
<rect x="1085.6" y="220.208" width="23.9473" height="23.9473" fill="#C4C4C4" stroke="white" stroke-width="2.52224"/>
<path d="M1103.78 233.053L1097.82 239.019L1091.9 233.102" stroke="white" stroke-width="1.90253" stroke-miterlimit="10"/>
<path d="M1097.77 224.35L1097.77 239.019" stroke="white" stroke-width="1.90253" stroke-miterlimit="10"/>
<rect x="274.044" y="199.501" width="8.10293" height="8.10293" fill="white"/>
<rect x="290.25" y="199.5" width="8.10293" height="8.10293" fill="white"/>
<rect x="306.456" y="199.5" width="8.10293" height="8.10293" fill="white"/>
<rect x="241.563" y="41.098" width="859.629" height="381.556" fill="white" stroke="#C4C4C4" stroke-width="2.52224"/>
<rect x="241.563" y="41.098" width="161.157" height="381.556" stroke="#C4C4C4" stroke-width="2.52224"/>
<rect x="241.143" y="40.6777" width="860.47" height="29.6498" fill="#C4C4C4" stroke="#C4C4C4" stroke-width="1.68149"/>
<rect x="1077.25" y="41.0971" width="23.9473" height="381.556" stroke="#C4C4C4" stroke-width="2.52224"/>
<rect x="1077.25" y="397.085" width="23.9473" height="23.9473" fill="#C4C4C4" stroke="white" stroke-width="2.52224"/>
<path d="M1083.55 407.193L1089.52 401.228L1095.43 407.144" stroke="white" stroke-width="1.90253" stroke-miterlimit="10"/>
<path d="M1089.56 415.896L1089.56 401.228" stroke="white" stroke-width="1.90253" stroke-miterlimit="10"/>
<rect x="1077.25" y="72.4281" width="23.9473" height="23.9473" fill="#C4C4C4" stroke="white" stroke-width="2.52224"/>
<path d="M1095.43 85.2719L1089.46 91.2373L1083.55 85.3208" stroke="white" stroke-width="1.90253" stroke-miterlimit="10"/>
<path d="M1089.41 76.5684L1089.41 91.2373" stroke="white" stroke-width="1.90253" stroke-miterlimit="10"/>
<rect x="265.691" y="51.7207" width="8.10293" height="8.10293" fill="white"/>
<rect x="281.897" y="51.7197" width="8.10293" height="8.10293" fill="white"/>
<rect x="298.103" y="51.7197" width="8.10293" height="8.10293" fill="white"/>
<rect x="273.689" y="77.0785" width="859.629" height="381.556" fill="white" stroke="#C4C4C4" stroke-width="2.52224"/>
<rect x="273.689" y="77.0785" width="161.157" height="381.556" stroke="#C4C4C4" stroke-width="2.52224"/>
<rect x="273.268" y="76.6581" width="860.47" height="29.6498" fill="#C4C4C4" stroke="#C4C4C4" stroke-width="1.68149"/>
<rect x="1109.37" y="77.0785" width="23.9473" height="381.556" stroke="#C4C4C4" stroke-width="2.52224"/>
<rect x="1109.37" y="433.066" width="23.9473" height="23.9473" fill="#C4C4C4" stroke="white" stroke-width="2.52224"/>
<path d="M1115.67 443.174L1121.64 437.209L1127.56 443.125" stroke="white" stroke-width="1.90253" stroke-miterlimit="10"/>
<path d="M1121.69 451.878L1121.69 437.209" stroke="white" stroke-width="1.90253" stroke-miterlimit="10"/>
<rect x="1109.37" y="108.41" width="23.9473" height="23.9473" fill="#C4C4C4" stroke="white" stroke-width="2.52224"/>
<path d="M1127.56 121.255L1121.59 127.221L1115.67 121.304" stroke="white" stroke-width="1.90253" stroke-miterlimit="10"/>
<path d="M1121.54 112.552L1121.54 127.221" stroke="white" stroke-width="1.90253" stroke-miterlimit="10"/>
<rect x="297.817" y="87.7021" width="8.10293" height="8.10293" fill="white"/>
<rect x="314.023" y="87.7012" width="8.10293" height="8.10293" fill="white"/>
<rect x="330.229" y="87.7012" width="8.10293" height="8.10293" fill="white"/>
<rect x="289.11" y="140.045" width="859.629" height="381.556" fill="white" stroke="#C4C4C4" stroke-width="2.52224"/>
<rect x="289.11" y="140.045" width="161.157" height="381.556" stroke="#C4C4C4" stroke-width="2.52224"/>
<rect x="288.689" y="139.625" width="860.47" height="29.6498" fill="#C4C4C4" stroke="#C4C4C4" stroke-width="1.68149"/>
<rect x="1124.79" y="140.045" width="23.9473" height="381.556" stroke="#C4C4C4" stroke-width="2.52224"/>
<rect x="1122.27" y="493.512" width="28.9918" height="28.9918" fill="#C4C4C4" stroke="white" stroke-width="2.52224"/>
<path fill-rule="evenodd" clip-rule="evenodd" d="M1137.59 503.73L1141.84 507.974L1143.18 506.629L1137.26 500.713L1136.59 500.04L1135.92 500.712L1129.95 506.678L1131.3 508.023L1135.69 503.633L1135.69 516.054H1137.59L1137.59 503.73Z" fill="white"/>
<rect x="1124.79" y="171.377" width="23.9473" height="23.9473" fill="#C4C4C4" stroke="white" stroke-width="2.52224"/>
<path d="M1142.98 184.223L1137.01 190.188L1131.09 184.272" stroke="white" stroke-width="1.90253" stroke-miterlimit="10"/>
<path d="M1136.96 175.52L1136.96 190.188" stroke="white" stroke-width="1.90253" stroke-miterlimit="10"/>
<rect x="313.237" y="150.67" width="8.10293" height="8.10293" fill="white"/>
<rect x="329.443" y="150.67" width="8.10293" height="8.10293" fill="white"/>
<rect x="345.649" y="150.67" width="8.10293" height="8.10293" fill="white"/>
<rect x="183.848" y="16.0394" width="859.629" height="381.556" fill="white" stroke="#C4C4C4" stroke-width="2.52224"/>
<rect x="183.848" y="16.0394" width="161.157" height="381.556" stroke="#C4C4C4" stroke-width="2.52224"/>
<rect x="183.427" y="15.6191" width="860.47" height="29.6498" fill="#C4C4C4" stroke="#C4C4C4" stroke-width="1.68149"/>
<rect x="1019.53" y="16.0394" width="23.9473" height="381.556" stroke="#C4C4C4" stroke-width="2.52224"/>
<rect x="1019.53" y="372.029" width="23.9473" height="23.9473" fill="#C4C4C4" stroke="white" stroke-width="2.52224"/>
<path d="M1025.83 382.133L1031.8 376.168L1037.71 382.084" stroke="white" stroke-width="1.90253" stroke-miterlimit="10"/>
<path d="M1031.85 390.837L1031.85 376.168" stroke="white" stroke-width="1.90253" stroke-miterlimit="10"/>
<rect x="1019.53" y="47.3715" width="23.9473" height="23.9473" fill="#C4C4C4" stroke="white" stroke-width="2.52224"/>
<path d="M1037.71 60.2153L1031.75 66.1807L1025.83 60.2642" stroke="white" stroke-width="1.90253" stroke-miterlimit="10"/>
<path d="M1031.7 51.5117L1031.7 66.1807" stroke="white" stroke-width="1.90253" stroke-miterlimit="10"/>
<rect x="191.913" y="26.6641" width="8.10293" height="8.10293" rx="4.05146" fill="white"/>
<rect x="208.119" y="26.6631" width="8.10293" height="8.10293" rx="4.05146" fill="white"/>
<rect x="224.325" y="26.6631" width="8.10293" height="8.10293" rx="4.05146" fill="white"/>
<rect x="216.578" y="147.675" width="859.629" height="381.556" fill="white" stroke="#C4C4C4" stroke-width="2.52224"/>
<rect x="216.578" y="147.675" width="161.157" height="381.556" stroke="#C4C4C4" stroke-width="2.52224"/>
<rect x="216.158" y="147.255" width="860.47" height="29.6498" fill="#C4C4C4" stroke="#C4C4C4" stroke-width="1.68149"/>
<rect x="1052.26" y="147.674" width="23.9473" height="381.556" stroke="#C4C4C4" stroke-width="2.52224"/>
<rect x="1052.26" y="503.662" width="23.9473" height="23.9473" fill="#C4C4C4" stroke="white" stroke-width="2.52224"/>
<path d="M1058.56 513.77L1064.53 507.805L1070.45 513.721" stroke="white" stroke-width="1.90253" stroke-miterlimit="10"/>
<path d="M1064.58 522.474L1064.58 507.805" stroke="white" stroke-width="1.90253" stroke-miterlimit="10"/>
<rect x="1052.26" y="179.005" width="23.9473" height="23.9473" fill="#C4C4C4" stroke="white" stroke-width="2.52224"/>
<path d="M1070.45 191.85L1064.48 197.815L1058.56 191.899" stroke="white" stroke-width="1.90253" stroke-miterlimit="10"/>
<path d="M1064.43 183.146L1064.43 197.815" stroke="white" stroke-width="1.90253" stroke-miterlimit="10"/>
<rect x="240.706" y="158.298" width="8.10293" height="8.10293" fill="white"/>
<rect x="256.911" y="158.297" width="8.10293" height="8.10293" fill="white"/>
<rect x="273.117" y="158.297" width="8.10293" height="8.10293" fill="white"/>
<rect x="104.978" y="162.261" width="859.629" height="381.556" fill="white" stroke="#C4C4C4" stroke-width="2.52224"/>
<rect x="104.978" y="162.261" width="161.157" height="381.556" stroke="#C4C4C4" stroke-width="2.52224"/>
<rect x="104.558" y="161.841" width="860.47" height="29.6498" fill="#C4C4C4" stroke="#C4C4C4" stroke-width="1.68149"/>
<rect x="940.66" y="162.261" width="23.9473" height="381.556" stroke="#C4C4C4" stroke-width="2.52224"/>
<rect x="940.66" y="518.25" width="23.9473" height="23.9473" fill="#C4C4C4" stroke="white" stroke-width="2.52224"/>
<path d="M946.963 528.357L952.931 522.392L958.847 528.308" stroke="white" stroke-width="1.90253" stroke-miterlimit="10"/>
<path d="M952.979 537.061L952.979 522.392" stroke="white" stroke-width="1.90253" stroke-miterlimit="10"/>
<rect x="940.66" y="193.592" width="23.9473" height="23.9473" fill="#C4C4C4" stroke="white" stroke-width="2.52224"/>
<path d="M958.846 206.437L952.878 212.402L946.961 206.486" stroke="white" stroke-width="1.90253" stroke-miterlimit="10"/>
<path d="M952.829 197.733L952.829 212.402" stroke="white" stroke-width="1.90253" stroke-miterlimit="10"/>
<rect x="129.107" y="172.885" width="8.10293" height="8.10293" fill="white"/>
<rect x="145.313" y="172.884" width="8.10293" height="8.10293" fill="white"/>
<rect x="161.519" y="172.884" width="8.10293" height="8.10293" fill="white"/>
<rect x="1.26112" y="92.0346" width="859.629" height="381.556" fill="white" stroke="#C4C4C4" stroke-width="2.52224"/>
<rect x="1.26112" y="92.0346" width="161.157" height="381.556" stroke="#C4C4C4" stroke-width="2.52224"/>
<rect x="0.840746" y="91.6142" width="860.47" height="29.6498" fill="#C4C4C4" stroke="#C4C4C4" stroke-width="1.68149"/>
<rect x="836.943" y="92.0346" width="23.9473" height="381.556" stroke="#C4C4C4" stroke-width="2.52224"/>
<rect x="836.943" y="448.025" width="23.9473" height="23.9473" fill="#C4C4C4" stroke="white" stroke-width="2.52224"/>
<path d="M843.245 458.129L849.213 452.164L855.129 458.081" stroke="white" stroke-width="1.90253" stroke-miterlimit="10"/>
<path d="M849.262 466.833L849.262 452.164" stroke="white" stroke-width="1.90253" stroke-miterlimit="10"/>
<rect x="836.943" y="123.367" width="23.9473" height="23.9473" fill="#C4C4C4" stroke="white" stroke-width="2.52224"/>
<path d="M855.129 136.212L849.161 142.178L843.245 136.261" stroke="white" stroke-width="1.90253" stroke-miterlimit="10"/>
<path d="M849.112 127.509L849.112 142.178" stroke="white" stroke-width="1.90253" stroke-miterlimit="10"/>
<rect x="9.32568" y="102.658" width="8.10293" height="8.10293" rx="4.05146" fill="white"/>
<rect x="25.5317" y="102.658" width="8.10293" height="8.10293" rx="4.05146" fill="white"/>
<rect x="41.7383" y="102.658" width="8.10293" height="8.10293" rx="4.05146" fill="white"/>
<rect x="43.3964" y="130.929" width="859.629" height="381.556" fill="white" stroke="#C4C4C4" stroke-width="2.52224"/>
<rect x="43.3964" y="130.929" width="161.157" height="381.556" stroke="#C4C4C4" stroke-width="2.52224"/>
<rect x="42.976" y="130.509" width="860.47" height="29.6498" fill="#C4C4C4" stroke="#C4C4C4" stroke-width="1.68149"/>
<rect x="879.078" y="130.929" width="23.9473" height="381.556" stroke="#C4C4C4" stroke-width="2.52224"/>
<rect x="879.078" y="486.917" width="23.9473" height="23.9473" fill="#C4C4C4" stroke="white" stroke-width="2.52224"/>
<path d="M885.38 497.025L891.348 491.06L897.265 496.976" stroke="white" stroke-width="1.90253" stroke-miterlimit="10"/>
<path d="M891.397 505.729L891.397 491.06" stroke="white" stroke-width="1.90253" stroke-miterlimit="10"/>
<rect x="879.078" y="162.26" width="23.9473" height="23.9473" fill="#C4C4C4" stroke="white" stroke-width="2.52224"/>
<path d="M897.264 175.104L891.296 181.069L885.379 175.153" stroke="white" stroke-width="1.90253" stroke-miterlimit="10"/>
<path d="M891.247 166.4L891.247 181.069" stroke="white" stroke-width="1.90253" stroke-miterlimit="10"/>
<rect x="52.1045" y="141.552" width="8.10293" height="8.10293" rx="4.05146" fill="white"/>
<rect x="68.3101" y="141.551" width="8.10293" height="8.10293" rx="4.05146" fill="white"/>
<rect x="84.5161" y="141.551" width="8.10293" height="8.10293" rx="4.05146" fill="white"/>
<rect x="67.5858" y="52.0892" width="859.629" height="381.556" fill="white" stroke="#C4C4C4" stroke-width="2.52224"/>
<rect x="67.5858" y="52.0892" width="161.157" height="381.556" stroke="#C4C4C4" stroke-width="2.52224"/>
<rect x="67.1655" y="51.6689" width="860.47" height="29.6498" fill="#C4C4C4" stroke="#C4C4C4" stroke-width="1.68149"/>
<rect x="903.268" y="52.0892" width="23.9473" height="381.556" stroke="#C4C4C4" stroke-width="2.52224"/>
<rect x="903.268" y="408.079" width="23.9473" height="23.9473" fill="#C4C4C4" stroke="white" stroke-width="2.52224"/>
<path d="M909.571 418.186L915.539 412.221L921.455 418.137" stroke="white" stroke-width="1.90253" stroke-miterlimit="10"/>
<path d="M915.587 426.89L915.587 412.221" stroke="white" stroke-width="1.90253" stroke-miterlimit="10"/>
<rect x="903.268" y="83.4213" width="23.9473" height="23.9473" fill="#C4C4C4" stroke="white" stroke-width="2.52224"/>
<path d="M921.454 96.2661L915.486 102.231L909.57 96.315" stroke="white" stroke-width="1.90253" stroke-miterlimit="10"/>
<path d="M915.437 87.5625L915.438 102.231" stroke="white" stroke-width="1.90253" stroke-miterlimit="10"/>
<rect x="91.7148" y="62.7129" width="8.10293" height="8.10293" fill="white"/>
<rect x="107.92" y="62.7129" width="8.10293" height="8.10293" fill="white"/>
<rect x="124.126" y="62.7129" width="8.10293" height="8.10293" fill="white"/>
<rect x="63.8247" y="1.5" width="1022.46" height="541.979" fill="white" stroke="black" stroke-width="3"/>
<rect x="63.8247" y="1.5" width="191.683" height="541.979" stroke="black" stroke-width="3"/>
<rect x="1057.5" y="19.5" width="29" height="509" stroke="black" stroke-width="3"/>
<rect x="62.3247" width="1025.46" height="37.2661" fill="black"/>
<rect x="1054.5" y="38.5" width="35" height="34.5277" fill="black" stroke="white" stroke-width="3"/>
<path fill-rule="evenodd" clip-rule="evenodd" d="M1070.91 60.6897L1065.74 55.6043L1064.15 57.2174L1071.3 64.2546L1072.1 65.0352L1072.89 64.2548L1080.1 57.1594L1078.52 55.546L1073.17 60.8063L1073.17 46.0005L1070.91 46.0005L1070.91 60.6897Z" fill="white"/>
<rect x="1054.8" y="509.944" width="34.4834" height="34.4834" fill="black" stroke="white" stroke-width="3"/>
<path fill-rule="evenodd" clip-rule="evenodd" d="M1073.09 521.389L1078.14 526.437L1079.74 524.837L1072.7 517.8L1071.9 517L1071.1 517.8L1064 524.895L1065.6 526.496L1070.82 521.273L1070.82 536.047H1073.09V521.389Z" fill="white"/>
</svg>
