<svg width="159" height="36" viewBox="0 0 159 36" fill="none" xmlns="http://www.w3.org/2000/svg">
<path d="M23.3337 1H0V31H30V7.66632L23.3337 1ZM15.0016 27.6684C12.2337 27.6684 10.0011 25.4358 10.0011 22.6679C10.0011 19.9 12.2337 17.6674 15.0016 17.6674C17.7694 17.6674 20.0021 19.9 20.0021 22.6679C20.0021 25.4358 17.7694 27.6684 15.0016 27.6684ZM20.0021 11.0011H3.33474V4.33474H20.0021V11.0011Z" fill="black"/>
<path d="M60.732 3.2L59.178 8.856L56.798 3.256H55.874L53.536 8.856L51.94 3.2H49.042L52.108 13H54.488L56.336 8.282L58.212 13H60.592L63.616 3.2H60.732ZM72.3103 13.252C75.4603 13.252 77.7003 11.11 77.7003 8.114C77.7003 5.104 75.4603 2.962 72.3103 2.962C69.1603 2.962 66.9203 5.118 66.9203 8.114C66.9203 11.096 69.1603 13.252 72.3103 13.252ZM72.3103 10.746C70.8263 10.746 69.7203 9.626 69.7203 8.114C69.7203 6.588 70.8263 5.468 72.3103 5.468C73.8083 5.468 74.8863 6.574 74.8863 8.114C74.8863 9.64 73.8083 10.746 72.3103 10.746ZM87.3859 13H90.3959L88.4499 9.444C89.4159 8.87 90.0039 7.876 90.0039 6.672C90.0039 4.628 88.4639 3.2 86.3639 3.2H82.1079V13H84.8099V10.004H85.7899L87.3859 13ZM84.8099 5.608L86.0419 5.608C86.7979 5.608 87.2319 6.056 87.2319 6.672C87.2319 7.274 86.7979 7.736 86.0419 7.736L84.8099 7.736V5.608ZM103.326 13L99.896 7.96L103.032 3.2H99.896L97.306 7.344V3.2L94.604 3.2V13H97.306V8.674L100.12 13H103.326ZM110.326 13.252C112.608 13.252 114.246 12.132 114.246 9.99C114.246 7.764 112.37 7.274 110.914 6.91C110.004 6.672 109.262 6.49 109.262 5.93C109.262 5.468 109.724 5.258 110.2 5.258C110.76 5.258 111.222 5.552 111.222 6.182H113.938C113.938 4.18 112.58 2.976 110.228 2.976C107.918 2.976 106.504 4.082 106.504 6.014C106.504 8.24 108.31 8.674 109.724 9.024C110.662 9.248 111.432 9.43 111.432 10.046C111.432 10.578 110.886 10.886 110.326 10.886C109.71 10.886 109.164 10.536 109.164 9.836H106.378C106.378 11.978 107.932 13.252 110.326 13.252ZM49.756 28.312H56.924V25.946H49.756V28.312ZM68.8756 21.2H64.7036V31H67.4056V28.298H68.8756C70.9616 28.298 72.5156 26.8 72.5156 24.742C72.5156 22.698 70.9616 21.2 68.8756 21.2ZM68.5536 25.946H67.4056V23.566H68.5536C69.2676 23.566 69.7296 24.056 69.7296 24.756C69.7296 25.456 69.2676 25.946 68.5536 25.946ZM81.6848 31H84.6948L82.7488 27.444C83.7148 26.87 84.3028 25.876 84.3028 24.672C84.3028 22.628 82.7628 21.2 80.6628 21.2L76.4068 21.2V31L79.1088 31V28.004H80.0888L81.6848 31ZM79.1088 23.608H80.3408C81.0968 23.608 81.5308 24.056 81.5308 24.672C81.5308 25.274 81.0968 25.736 80.3408 25.736H79.1088V23.608ZM93.7888 31.252C96.9388 31.252 99.1788 29.11 99.1788 26.114C99.1788 23.104 96.9388 20.962 93.7888 20.962C90.6388 20.962 88.3988 23.118 88.3988 26.114C88.3988 29.096 90.6388 31.252 93.7888 31.252ZM93.7888 28.746C92.3048 28.746 91.1988 27.626 91.1988 26.114C91.1988 24.588 92.3048 23.468 93.7888 23.468C95.2868 23.468 96.3648 24.574 96.3648 26.114C96.3648 27.64 95.2868 28.746 93.7888 28.746ZM106.325 31.252C108.593 31.252 110.119 29.768 110.119 27.64V21.2H107.403V27.514C107.403 28.27 106.955 28.746 106.325 28.746C105.653 28.746 105.205 28.256 105.205 27.514V27.262H102.489V27.64C102.489 29.782 104.071 31.252 106.325 31.252ZM117.649 28.662V27.192H120.869V24.98H117.649V23.538H121.233V21.2H114.961V31H121.359V28.662H117.649ZM130.644 31.252C133.248 31.252 135.25 29.502 135.628 26.926H132.87C132.59 28.018 131.736 28.732 130.644 28.732C129.258 28.732 128.236 27.626 128.236 26.114C128.236 24.602 129.258 23.482 130.644 23.482C131.68 23.482 132.52 24.14 132.856 25.134H135.6C135.194 22.656 133.206 20.962 130.644 20.962C127.662 20.962 125.436 23.174 125.436 26.114C125.436 29.04 127.662 31.252 130.644 31.252ZM146.921 21.2H138.885V23.636H141.545V31H144.261V23.636H146.921V21.2ZM154.254 31.252C156.536 31.252 158.174 30.132 158.174 27.99C158.174 25.764 156.298 25.274 154.842 24.91C153.932 24.672 153.19 24.49 153.19 23.93C153.19 23.468 153.652 23.258 154.128 23.258C154.688 23.258 155.15 23.552 155.15 24.182H157.866C157.866 22.18 156.508 20.976 154.156 20.976C151.846 20.976 150.432 22.082 150.432 24.014C150.432 26.24 152.238 26.674 153.652 27.024C154.59 27.248 155.36 27.43 155.36 28.046C155.36 28.578 154.814 28.886 154.254 28.886C153.638 28.886 153.092 28.536 153.092 27.836H150.306C150.306 29.978 151.86 31.252 154.254 31.252Z" fill="black"/>
<path d="M49 14.4L120.794 14.4V15.1L49 15.1V14.4ZM49 32.4L158.65 32.4V33.1L49 33.1V32.4Z" fill="black"/>
</svg>
