<svg width="66" height="76" viewBox="0 0 66 76" fill="none" xmlns="http://www.w3.org/2000/svg">
<path d="M20.6437 10.454L19.8826 7.61354L17.0421 8.37464L14.2017 9.13574L14.9628 11.9762L17.8032 11.2151L20.6437 10.454Z" fill="#00FF00"/>
<path d="M22.1662 16.135L22.9273 18.9755L23.6884 21.816L24.4495 24.6564L25.2128 27.505L25.9739 30.3455L26.735 33.186L27.4961 36.0264L30.3366 35.2653L29.5755 32.4249L28.8144 29.5844L28.0533 26.7439L27.29 23.8953L30.1386 23.1321L32.9791 22.371L32.218 19.5305L29.3775 20.2916L26.5289 21.0549L25.7678 18.2144L25.0067 15.3739L24.2456 12.5335L23.4845 9.693L20.644 10.4541L21.4051 13.2946L22.1662 16.135Z" fill="#00FF00"/>
<path d="M34.5029 28.0602L35.264 30.9006L36.0251 33.7411L38.8656 32.98L38.1045 30.1395L37.3434 27.2991L36.5823 24.4586L39.4227 23.6975L42.2632 22.9364L41.4999 20.0878L38.6595 20.8489L35.819 21.61L32.9785 22.3711L33.7418 25.2197L34.5029 28.0602Z" fill="#00FF00"/>
<path d="M43.7854 28.6175L44.5465 31.4579L45.3076 34.2984L48.1481 33.5373L47.387 30.6968L46.6259 27.8564L45.8648 25.0159L48.7052 24.2548L47.9441 21.4143L45.1037 22.1754L42.2632 22.9365L43.0243 25.777L43.7854 28.6175Z" fill="#00FF00"/>
<path d="M51.546 23.4938L48.7056 24.2549L49.4667 27.0954L52.3071 26.3343L51.546 23.4938Z" fill="#00FF00"/>
<path d="M52.3071 26.332L53.0682 29.1725L53.8293 32.013L54.5904 34.8534L55.3515 37.6939L56.1126 40.5344L56.8737 43.3748L57.6348 46.2153L60.4753 45.4542L59.7142 42.6137L58.9531 39.7733L58.192 36.9328L57.4309 34.0923L56.6698 31.2519L55.9087 28.4114L55.1476 25.5709L52.3071 26.332Z" fill="#00FF00"/>
<path d="M55.5555 49.817L56.3166 52.6575L57.0777 55.498L59.9182 54.7369L59.1571 51.8964L58.396 49.0559L57.6349 46.2155L54.7944 46.9766L55.5555 49.817Z" fill="#00FF00"/>
<path d="M54.998 59.1017L55.7591 61.9421L52.9186 62.7032L50.0781 63.4643L47.2377 64.2254L44.3972 64.9865L41.5567 65.7476L38.7082 66.5109L35.8677 67.272L33.0272 68.0331L32.2661 65.1926L31.505 62.3522L28.6646 63.1133L29.4257 65.9537L30.1868 68.7942L30.9479 71.6347L33.7883 70.8736L36.6288 70.1125L39.4693 69.3514L42.3178 68.5881L45.1583 67.827L47.9988 67.0659L50.8392 66.3048L53.6797 65.5437L56.5202 64.7826L59.3607 64.0215L58.5996 61.181L57.8385 58.3406L57.0773 55.5001L54.2369 56.2612L54.998 59.1017Z" fill="#00FF00"/>
<path d="M19.7354 41.1498L20.4965 43.9902L21.2576 46.8307L24.0981 46.0696L23.337 43.2291L22.5759 40.3887L21.8148 37.5482L21.0537 34.7077L20.2926 31.8672L19.5315 29.0268L18.7682 26.1782L18.0071 23.3377L17.246 20.4973L16.4849 17.6568L15.7238 14.8163L14.9627 11.9758L12.1222 12.7369L12.8833 15.5774L13.6444 18.4179L14.4055 21.2584L15.1666 24.0988L15.9277 26.9393L16.691 29.7879L17.4521 32.6283L18.2132 35.4688L18.9743 38.3093L16.1338 39.0704L16.8949 41.9109L19.7354 41.1498Z" fill="#00FF00"/>
<path d="M10.4536 40.593L13.2941 39.8319L16.1346 39.0708L15.3735 36.2304L12.533 36.9915L9.69252 37.7526L6.85205 38.5137L7.61315 41.3541L8.37425 44.1946L9.13535 47.0351L11.9758 46.274L11.2147 43.4335L10.4536 40.593Z" fill="#00FF00"/>
<path d="M14.8156 45.5123L11.9751 46.2734L12.7362 49.1139L15.5767 48.3528L14.8156 45.5123Z" fill="#00FF00"/>
<path d="M18.4181 47.5914L15.5776 48.3525L16.3387 51.193L17.0998 54.0335L19.9403 53.2724L19.1792 50.4319L18.4181 47.5914Z" fill="#00FF00"/>
<path d="M22.7809 52.5123L19.9404 53.2734L20.7015 56.1139L21.4626 58.9544L24.3031 58.1933L23.542 55.3528L22.7809 52.5123Z" fill="#00FF00"/>
<path d="M27.1422 57.4313L24.3018 58.1924L25.0629 61.0329L25.824 63.8733L28.6644 63.1122L27.9033 60.2718L27.1422 57.4313Z" fill="#00FF00"/>
</svg>
