<svg width="188" height="49" viewBox="0 0 188 49" fill="none" xmlns="http://www.w3.org/2000/svg">
<path d="M2.58398 47.9414C3.06445 47.3906 3.47461 46.8164 3.81445 46.2188C4.16602 45.6211 4.3418 45.0527 4.3418 44.5137C4.3418 43.6113 4.20117 42.8027 3.91992 42.0879C3.45117 41.959 3.05859 41.7188 2.74219 41.3672C2.42578 41.0039 2.26758 40.5 2.26758 39.8555C2.26758 39.2109 2.47266 38.6836 2.88281 38.2734C3.29297 37.8516 3.76758 37.6406 4.30664 37.6406C4.85742 37.6406 5.29688 37.7109 5.625 37.8516C5.96484 37.9805 6.25781 38.1914 6.50391 38.4844C7.05469 39.1406 7.33008 40.0898 7.33008 41.332C7.33008 43.9219 6.24023 46.377 4.06055 48.6973L2.58398 47.9414ZM3.69141 25.3008C3.98438 25.1719 4.29492 25.1074 4.62305 25.1074C4.96289 25.1074 5.2793 25.1719 5.57227 25.3008C5.86523 25.418 6.11719 25.582 6.32812 25.793C6.78516 26.25 7.01367 26.8184 7.01367 27.498C7.01367 28.5527 6.5332 29.2734 5.57227 29.6602C5.2793 29.7773 4.96289 29.8359 4.62305 29.8359C4.29492 29.8359 3.98438 29.7773 3.69141 29.6602C3.39844 29.543 3.14062 29.3789 2.91797 29.168C2.46094 28.7344 2.23242 28.1777 2.23242 27.498C2.23242 26.4316 2.71875 25.6992 3.69141 25.3008ZM26.5605 20.9062C26.5605 20.0391 26.4727 19.4824 26.2969 19.2363C26.1211 18.9785 25.957 18.8145 25.8047 18.7441C25.6523 18.6738 25.4883 18.6094 25.3125 18.5508C24.7383 18.3867 24.334 18.2227 24.0996 18.0586V17.0215H33.3281V18.0586C33.0117 18.1992 32.707 18.3105 32.4141 18.3926C32.1328 18.4746 31.8809 18.5801 31.6582 18.709C31.1777 18.9902 30.9375 19.5059 30.9375 20.2559V38.7656C30.9375 39.5156 31.1777 40.0312 31.6582 40.3125C31.8809 40.4414 32.1328 40.5469 32.4141 40.6289C32.707 40.7109 33.0117 40.8223 33.3281 40.9629V42H24.0996V40.9629C25.459 40.7754 26.2441 40.1484 26.4551 39.082C26.5254 38.7305 26.5605 38.3203 26.5605 37.8516V20.9062ZM17.4551 38.0098C17.4551 39.2871 17.7012 40.0547 18.1934 40.3125C18.3574 40.3828 18.627 40.4766 19.002 40.5938C19.3887 40.6992 19.6934 40.8223 19.916 40.9629V42H10.7051V40.9629C11.0215 40.8223 11.3203 40.7109 11.6016 40.6289C11.8828 40.5469 12.1348 40.4414 12.3574 40.3125C12.8379 40.0312 13.0781 39.5156 13.0781 38.7656V20.2559C13.0781 19.5059 12.8379 18.9902 12.3574 18.709C12.1348 18.5801 11.8828 18.4746 11.6016 18.3926C11.3203 18.3105 11.0215 18.1992 10.7051 18.0586V17.0215H19.916V18.0586C19.6465 18.2344 19.3242 18.375 18.9492 18.4805C18.5742 18.5859 18.3105 18.6797 18.1582 18.7617C18.0176 18.832 17.8945 18.9551 17.7891 19.1309C17.5664 19.5059 17.4551 20.1562 17.4551 21.082V38.0098ZM25.1016 29.8008H18.9141V28.1836H25.1016V29.8008ZM55.6348 32.3496V34.4062H34.7695V32.3496H55.6348ZM68.3086 31.5234C68.3086 28.1484 67.4648 26.25 65.7773 25.8281V24.3164C67.9688 24.5156 69.6562 25.4355 70.8398 27.0762C71.9531 28.6113 72.5098 30.6094 72.5098 33.0703H62.5605V31.5234H68.3086ZM65.8477 40.9277C67.8867 40.834 69.334 39.873 70.1895 38.0449C70.4355 37.5176 70.6465 36.9785 70.8223 36.4277L72.334 36.9902C71.6777 39.4395 70.3359 41.0859 68.3086 41.9297C67.5938 42.2227 66.7734 42.3984 65.8477 42.457V40.9277ZM61.084 32.2793C61.084 37.3184 62.1855 40.1543 64.3887 40.7871V42.4043C62.0918 42.1465 60.2695 41.1914 58.9219 39.5391C57.5742 37.9102 56.9004 35.8652 56.9004 33.4043C56.9004 30.8145 57.5742 28.6875 58.9219 27.0234C60.2812 25.3477 62.0801 24.4395 64.3184 24.2988V25.7578C62.1621 26.0156 61.084 28.1895 61.084 32.2793ZM94.9746 32.3496V34.4062H74.1094V32.3496H94.9746ZM101.971 16.916V39.2227C101.971 39.7734 102.211 40.1719 102.691 40.418C102.902 40.5352 103.137 40.6406 103.395 40.7344C103.664 40.8164 103.928 40.9277 104.186 41.0684V42H95.9941V41.0684C96.2402 40.9277 96.4922 40.8164 96.75 40.7344C97.0195 40.6406 97.2598 40.5352 97.4707 40.418C97.9629 40.1602 98.209 39.7617 98.209 39.2227V19.8516C98.209 19.3008 97.957 18.8906 97.4531 18.6211C97.2305 18.5039 96.9844 18.4043 96.7148 18.3223C96.4453 18.2402 96.1875 18.1289 95.9414 17.9883V16.916H101.971ZM125.877 32.3496V34.4062H105.012V32.3496H125.877ZM132.873 16.916V39.2227C132.873 39.7734 133.113 40.1719 133.594 40.418C133.805 40.5352 134.039 40.6406 134.297 40.7344C134.566 40.8164 134.83 40.9277 135.088 41.0684V42H126.896V41.0684C127.143 40.9277 127.395 40.8164 127.652 40.7344C127.922 40.6406 128.162 40.5352 128.373 40.418C128.865 40.1602 129.111 39.7617 129.111 39.2227V19.8516C129.111 19.3008 128.859 18.8906 128.355 18.6211C128.133 18.5039 127.887 18.4043 127.617 18.3223C127.348 18.2402 127.09 18.1289 126.844 17.9883V16.916H132.873ZM156.779 32.3496V34.4062H135.914V32.3496H156.779ZM165.287 42.4395C163.283 42.2402 161.637 41.3906 160.348 39.8906C158.906 38.2148 158.186 36.0527 158.186 33.4043C158.186 30.7324 158.906 28.5586 160.348 26.8828C161.648 25.3711 163.295 24.5156 165.287 24.3164V25.6875C164.256 25.8867 163.5 26.5605 163.02 27.709C162.504 28.9746 162.246 30.873 162.246 33.4043C162.246 37.1191 162.82 39.4688 163.969 40.4531C164.355 40.7695 164.795 40.9746 165.287 41.0684V42.4395ZM166.746 41.0859C168.82 40.7344 169.857 38.1738 169.857 33.4043C169.857 29.6191 169.248 27.2344 168.029 26.25C167.643 25.9453 167.215 25.752 166.746 25.6699V24.2988C168.738 24.4512 170.402 25.2891 171.738 26.8125C173.215 28.5117 173.953 30.709 173.953 33.4043C173.953 36.0879 173.227 38.2676 171.773 39.9434C170.438 41.4668 168.762 42.3047 166.746 42.457V41.0859Z" fill="black"/>
<path d="M187.68 13.2559L181.492 16.4551L187.68 19.707L186.484 21.7812L180.965 17.9668L181.176 24.6641H179.031L179.225 17.9668L173.723 21.7812L172.527 19.707L178.715 16.4902L172.527 13.2559L173.723 11.1641L179.225 14.9785L179.031 8.28125H181.176L180.965 14.9785L186.484 11.1641L187.68 13.2559Z" fill="black"/>
</svg>
