<svg width="22" height="15" viewBox="0 0 22 15" fill="none" xmlns="http://www.w3.org/2000/svg">
<path d="M20.6894 9.1911C20.104 7.85824 18.7853 6.99788 17.329 7.0014C17.0469 7.0014 16.7683 7.03666 16.4968 7.10013L14.1696 1.66643H17.9989C18.5525 1.66643 19.0004 2.11424 19.0004 2.66784C19.0004 3.22144 18.5525 3.66925 17.9989 3.66925H16.9975V4.33568H17.9989C18.9193 4.33568 19.6668 3.58815 19.6668 2.66784C19.6668 1.74753 18.9193 1 17.9989 1H13.6654C13.482 1 13.3304 1.1481 13.3304 1.33498C13.3304 1.38082 13.341 1.42313 13.3586 1.46544L14.3036 3.66925H8.11532L7.18796 1.66996H8.33394V1H5.33324V1.66643H6.45453L7.57583 4.0818L5.85863 7.20239C3.94396 6.54301 1.86004 7.56205 1.20066 9.47672C0.541285 11.3914 1.56032 13.4753 3.47499 14.1347C5.38966 14.7941 7.47357 13.775 8.13295 11.8604C8.22816 11.5818 8.29163 11.2927 8.31631 11H10.9997C11.0279 11 11.0561 10.9965 11.0843 10.9894C11.0949 10.9859 11.1019 10.9824 11.1125 10.9788C11.1689 10.9612 11.2183 10.9259 11.2535 10.8801C11.2641 10.8695 11.2712 10.8589 11.2782 10.8484C11.2817 10.8448 11.2818 10.8413 11.2853 10.8378C11.2888 10.8343 11.2888 10.8307 11.2923 10.8307L14.7091 4.61424L15.8657 7.3117C14.0145 8.12622 13.1717 10.2842 13.9827 12.1389C14.7973 13.9901 16.9552 14.8328 18.8099 14.0218C20.6611 13.2038 21.5039 11.0423 20.6894 9.1911ZM4.66328 13.6692C3.00602 13.6692 1.66258 12.3293 1.65905 10.6721C1.65905 9.0148 2.99897 7.67136 4.65623 7.66783C4.95242 7.66783 5.24509 7.71015 5.52717 7.79477L4.03564 10.5063C3.95101 10.6685 4.00743 10.873 4.16963 10.9612C4.219 10.9894 4.27189 11.0035 4.3283 11.0035H7.64283C7.47357 12.5197 6.19008 13.6657 4.66328 13.6692ZM4.89248 10.3336L6.14424 8.05923C6.97992 8.53525 7.53704 9.37798 7.64283 10.3336H4.89248ZM8.31278 10.3336C8.20347 9.13468 7.50884 8.06981 6.46159 7.47742L7.91786 4.83286L10.4707 10.3371H8.31278V10.3336ZM11.0279 9.921L8.51377 4.33215H14.1026L11.0279 9.921ZM17.9108 13.6128C17.7204 13.6516 17.5265 13.6692 17.329 13.6692C15.6717 13.6657 14.3318 12.3223 14.3318 10.665C14.3353 9.47672 15.037 8.40478 16.1231 7.92524L17.3572 10.8025L17.9707 10.5416L16.7648 7.72778C18.3903 7.41043 19.9665 8.47178 20.2839 10.1008C20.6012 11.7193 19.5363 13.2955 17.9108 13.6128Z" fill="black" stroke="black" stroke-width="0.4"/>
</svg>
