<svg width="20" height="17" viewBox="0 0 20 17" fill="none" xmlns="http://www.w3.org/2000/svg">
<path d="M19.4319 2.90777C19.3944 2.90673 18.622 2.88074 17.4879 2.90569V0.586598C17.4879 0.244453 17.195 -0.0269759 16.851 0.00214277C14.5901 0.190374 11.7142 1.18665 9.99948 3.00553C8.28582 1.18769 5.40887 0.191414 3.14797 0.00214277C2.80398 -0.025936 2.51107 0.244453 2.51107 0.586598V2.96913C1.86689 2.94521 1.2571 2.92753 0.605618 2.90881C0.276228 2.89841 0 3.16256 0 3.49535V14.183C0 14.4918 0.239747 14.7476 0.548289 14.7684C2.88842 14.9255 6.80773 14.9432 9.76911 16.2036C10.0328 16.3159 10.2694 16.1869 10.2309 16.2036C13.1923 14.9432 17.1105 14.9265 19.4517 14.7684C19.7603 14.7476 20 14.4918 20 14.183V3.49431C19.999 3.17816 19.7488 2.91921 19.4319 2.90777ZM16.311 1.24593V11.3044C14.6151 11.6829 12.4647 12.4909 10.5874 14.2037C10.5874 13.6869 10.5874 4.39595 10.5874 4.1162C11.8747 2.51467 14.3118 1.54855 16.311 1.24593ZM3.68791 1.24593C5.68718 1.54855 8.12425 2.51363 9.41158 4.1162V14.2037C7.53427 12.4909 5.38385 11.6829 3.68791 11.3044V1.24593ZM1.17579 13.6297V4.09852C1.59691 4.111 2.04722 4.12452 2.51107 4.1422V11.7827C2.51107 12.0656 2.71225 12.3079 2.99057 12.3599C4.33418 12.6116 6.08016 13.1576 7.70835 14.3327C5.38594 13.8127 2.95512 13.7295 1.17579 13.6297ZM18.8232 13.6297C17.047 13.7295 14.6141 13.8127 12.2906 14.3327C13.9188 13.1576 15.6648 12.6116 17.0084 12.3599C17.2867 12.3079 17.4879 12.0656 17.4879 11.7827V4.0798C18.0289 4.06732 18.4906 4.06732 18.8232 4.07044V13.6297Z" fill="black"/>
</svg>
