<svg width="20" height="20" viewBox="0 0 20 20" fill="none" xmlns="http://www.w3.org/2000/svg">
<path d="M10 0C4.48656 0 0 4.89364 0 10.9092V15.9097C0 16.1602 0.203002 16.3643 0.454595 16.3643H1.81838V18.1827C1.81838 19.1858 2.63362 20.0011 3.63676 20.0011H5.00054C5.25213 20.0011 5.45513 19.7981 5.45513 19.5465V11.3649C5.45513 11.1133 5.25213 10.9103 5.00054 10.9103H3.63676C2.63362 10.9103 1.81838 11.7255 1.81838 12.7286V10.9092C1.81838 5.89677 5.48861 1.81838 10 1.81838C14.5114 1.81838 18.1816 5.89677 18.1816 10.9092V12.7276C18.1816 11.7244 17.3664 10.9092 16.3632 10.9092H14.9995C14.7479 10.9092 14.5449 11.1122 14.5449 11.3638V19.5454C14.5449 19.797 14.7479 20 14.9995 20H16.3632C17.3664 20 18.1816 19.1848 18.1816 18.1816V16.3632H19.5454C19.7959 16.3632 20 16.1602 20 15.9086V10.9092C20 4.89364 15.5145 0 10 0Z" fill="black"/>
</svg>
