<svg width="20" height="16" viewBox="0 0 20 16" fill="none" xmlns="http://www.w3.org/2000/svg">
<path d="M19.5186 0H0.481365C0.215537 0 0 0.215535 0 0.481364V15.3516C0 15.6174 0.215537 15.833 0.481365 15.833H19.5186C19.7845 15.833 20 15.6174 20 15.3516V0.481364C20 0.215535 19.7845 0 19.5186 0ZM19.0373 0.962727V3.17378H0.96273V0.962727H19.0373ZM0.96273 14.872V4.13651H19.0391V14.872H0.96273Z" fill="black"/>
<path d="M9.99896 5.87695C6.23784 5.87695 3.4233 8.78131 3.30475 8.90345C3.12693 9.08845 3.12693 9.38122 3.30475 9.56802C3.4233 9.69195 6.23784 12.5945 9.99896 12.5945C13.7601 12.5945 16.5746 9.69016 16.6932 9.56802C16.871 9.38302 16.871 9.09025 16.6932 8.90345C16.5746 8.78131 13.7601 5.87695 9.99896 5.87695ZM9.99896 11.1684C8.94103 11.1684 8.08068 10.3026 8.08068 9.23753C8.08068 8.17242 8.94103 7.30668 9.99896 7.30668C11.0569 7.30668 11.9172 8.17242 11.9172 9.23753C11.9172 10.3026 11.0569 11.1684 9.99896 11.1684ZM8.01422 7.14503C7.46461 7.6713 7.12154 8.4149 7.12154 9.23573C7.12154 10.0584 7.46461 10.8002 8.01422 11.3264C6.3061 10.8092 4.96618 9.76919 4.35729 9.23573C4.96618 8.70228 6.3061 7.66232 8.01422 7.14503ZM11.9855 11.3282C12.5351 10.802 12.8782 10.0584 12.8782 9.23753C12.8782 8.4149 12.5351 7.67309 11.9837 7.14682C13.6918 7.66411 15.0317 8.70408 15.6406 9.23753C15.0335 9.77098 13.6936 10.8109 11.9855 11.3282Z" fill="black"/>
<path d="M9.99902 8.2168C9.44222 8.2168 8.98779 8.67481 8.98779 9.237C8.98779 9.79919 9.44042 10.2572 9.99902 10.2572C10.5558 10.2572 11.0102 9.79919 11.0102 9.237C11.0102 8.67481 10.5576 8.2168 9.99902 8.2168Z" fill="black"/>
<path d="M2.59758 2.53207C2.7251 2.53207 2.84904 2.47998 2.93705 2.39017C3.02685 2.30037 3.07714 2.17643 3.07714 2.0507C3.07714 1.92497 3.02506 1.79924 2.93705 1.71123C2.84724 1.62143 2.72331 1.56934 2.59758 1.56934C2.47185 1.56934 2.34612 1.62143 2.25811 1.71123C2.1683 1.80104 2.11621 1.92318 2.11621 2.0507C2.11621 2.17823 2.1683 2.30216 2.25811 2.39017C2.34612 2.48178 2.47005 2.53207 2.59758 2.53207Z" fill="black"/>
<path d="M4.71134 2.53207C4.83887 2.53207 4.9628 2.47998 5.05082 2.39017C5.14062 2.30037 5.19091 2.17643 5.19091 2.0507C5.19091 1.92497 5.13883 1.79924 5.05082 1.71123C4.96101 1.62143 4.83707 1.56934 4.71134 1.56934C4.58562 1.56934 4.45989 1.62143 4.37187 1.71123C4.28207 1.80104 4.22998 1.92318 4.22998 2.0507C4.22998 2.17823 4.28207 2.30216 4.37187 2.39017C4.46168 2.48178 4.58562 2.53207 4.71134 2.53207Z" fill="black"/>
<path d="M6.82707 2.53207C6.95459 2.53207 7.07853 2.47998 7.16654 2.39017C7.25635 2.30037 7.30664 2.17643 7.30664 2.0507C7.30664 1.92497 7.25455 1.79924 7.16654 1.71123C7.07673 1.62143 6.9528 1.56934 6.82707 1.56934C6.70134 1.56934 6.57561 1.62143 6.4876 1.71123C6.39779 1.80104 6.3457 1.92318 6.3457 2.0507C6.3457 2.17823 6.39779 2.30216 6.4876 2.39017C6.57741 2.48178 6.70134 2.53207 6.82707 2.53207Z" fill="black"/>
</svg>
