<svg width="62" height="32" viewBox="0 0 62 32" fill="none" xmlns="http://www.w3.org/2000/svg">
<path d="M30.5018 0.214844C15.725 0.214844 4.65297 10.2338 0.580165 14.5396C-0.193388 15.3597 -0.193388 16.6412 0.580165 17.4614C4.65297 21.7672 15.725 31.7861 30.5018 31.7861C45.2832 31.7861 56.3506 21.7672 60.4234 17.4614C61.1969 16.6412 61.1969 15.3597 60.4234 14.5396C56.3506 10.2291 45.2785 0.214844 30.5018 0.214844ZM16.8714 7.7127C15.4221 10.2151 14.6066 13.1416 14.6066 16.2265C14.6066 19.0551 15.287 21.7485 16.5265 24.1158C11.5311 21.6693 7.60272 18.398 5.11431 15.9981C7.65864 13.547 11.7128 10.1778 16.8714 7.7127ZM25.045 27.0096C21.2238 24.922 18.8612 20.8119 18.8612 16.2311C18.8612 10.998 21.9694 6.39396 26.6107 4.73968C27.8735 4.56726 29.1737 4.46939 30.5064 4.46939C31.499 4.46939 32.4776 4.52532 33.4329 4.62318C38.2047 6.14232 41.5319 10.9001 41.5319 16.2311C41.5319 20.8957 39.0015 25.1549 35.0592 27.168C33.5867 27.401 32.0675 27.5362 30.5018 27.5362C28.6145 27.5315 26.7924 27.3405 25.045 27.0096ZM43.6196 24.5258C45.0082 22.0561 45.7818 19.2042 45.7818 16.2311C45.7818 13.0251 44.915 9.96814 43.2654 7.31662C48.8341 9.80504 53.2004 13.4119 55.8846 16.0028C53.261 18.5331 49.0204 22.0421 43.6196 24.5258Z" fill="#0000FF"/>
<path d="M35.5859 16.2258C32.6082 16.2258 30.1943 13.8119 30.1943 10.8389C27.2166 10.8389 24.8027 13.2527 24.8027 16.2258C24.8027 19.1988 27.2166 21.6127 30.1943 21.6127C33.172 21.6127 35.5859 19.1988 35.5859 16.2258Z" fill="#0000FF"/>
</svg>
