<svg width="62" height="32" viewBox="0 0 62 32" fill="none" xmlns="http://www.w3.org/2000/svg">
<path d="M30.5018 0C15.725 0 4.65297 10.0189 0.580165 14.3247C-0.193388 15.1449 -0.193388 16.4264 0.580165 17.2465C4.65297 21.5523 15.725 31.5712 30.5018 31.5712C45.2832 31.5712 56.3506 21.5523 60.4234 17.2465C61.1969 16.4264 61.1969 15.1449 60.4234 14.3247C56.3506 10.0142 45.2785 0 30.5018 0ZM16.8714 7.49786C15.4221 10.0003 14.6066 12.9267 14.6066 16.0116C14.6066 18.8402 15.287 21.5337 16.5265 23.9009C11.5311 21.4544 7.60272 18.1832 5.11431 15.7833C7.65864 13.3321 11.7128 9.96298 16.8714 7.49786ZM25.045 26.7948C21.2238 24.7071 18.8612 20.597 18.8612 16.0163C18.8612 10.7831 21.9694 6.17912 26.6107 4.52483C27.8735 4.35241 29.1737 4.25455 30.5064 4.25455C31.499 4.25455 32.4776 4.31047 33.4329 4.40833C38.2047 5.92748 41.5319 10.6853 41.5319 16.0163C41.5319 20.6809 39.0015 24.9401 35.0592 26.9532C33.5867 27.1862 32.0675 27.3213 30.5018 27.3213C28.6145 27.3167 26.7924 27.1256 25.045 26.7948ZM43.6196 24.311C45.0082 21.8412 45.7818 18.9893 45.7818 16.0163C45.7818 12.8102 44.915 9.75329 43.2654 7.10177C48.8341 9.59019 53.2004 13.197 55.8846 15.7879C53.261 18.3183 49.0204 21.8272 43.6196 24.311Z" fill="black"/>
<path d="M35.5859 16.0109C32.6082 16.0109 30.1943 13.5971 30.1943 10.624C27.2166 10.624 24.8027 13.0379 24.8027 16.0109C24.8027 18.984 27.2166 21.3978 30.1943 21.3978C33.172 21.3978 35.5859 18.984 35.5859 16.0109Z" fill="black"/>
</svg>
