<svg width="60" height="60" viewBox="0 0 60 60" fill="none" xmlns="http://www.w3.org/2000/svg">
<path d="M31.5742 28.4258V28.2544V25.2684V22.111V18.9535V15.7961V12.6387H34.7316H37.889H41.0555V9.48129H37.889V6.32387H34.7316V3.15742H31.5742V0H28.4168V3.15742H25.2594V6.32387H22.1019V9.48129H18.9445V12.6387H22.1019H25.2594H28.4168V15.7961V18.9535V22.111V25.2684V28.2544H25.2594H22.1019H18.9445H15.7871H12.6297V25.097V21.9396V18.7821H9.47226V21.9396H6.31484V25.097H3.15742V28.2544H0V31.4118H3.15742V34.5692H6.31484V37.7267H9.47226V40.8931H12.6297V37.7267V34.5692V31.4118H15.7871H18.9445H22.1019H25.2594H28.4168V34.5692V37.7267V40.8931V44.0505V47.2079H25.2594H22.1019H18.9445V50.3654H22.1019V53.5228H25.2594V56.6802H28.4168V59.8376H31.5742V56.6802H34.7406V53.5228H37.8981V50.3654H41.0555V47.2079H37.8981H34.7406H31.5742V44.0505V40.8931V37.7267V34.5692V31.4118V28.4258Z" fill="#0000FF"/>
<path d="M56.8426 28.2545V25.0971H53.6852V21.9396H50.5278V18.7822H47.3703V21.9396V25.0971V28.2545H44.2129H41.0555H37.8981H34.7407H31.5742V31.4119H34.7407H37.8981H41.0555H44.2129H47.3703V34.5693V37.7267V40.8932H50.5278V37.7267H53.6852V34.5693H56.8426V31.4119H60V28.2545H56.8426Z" fill="#0000FF"/>
</svg>
