<svg xmlns="http://www.w3.org/2000/svg" width="181.833" height="54.499" viewBox="0 0 181.833 54.499">
  <g id="Group_108" data-name="Group 108" transform="translate(-1488.333 304.191)">
    <path id="Path_87" data-name="Path 87" d="M600.333,219.811c-5.425,8.1-16.506,15.49-15.884,25.884,7.251,3.945,10.846,15.452,18.517,18.148,4.347,1.529,12.034-.087,16.7-.032,5.432.065,10.889,1.343,16,1.331,11.142-.025,22.345-1.55,33.331.7,11.237,2.3,21.094-.148,32-.7,19.574-.994,41.484,4.571,53.168-14.165,12.153-19.488-15.444-33.857-31.168-33.835-19.724.027-39.912,1.333-60,1.333-19.811,0-40.633-1.27-60,.667" transform="translate(908 -519)" fill="#fff"/>
    <g id="Group_73" data-name="Group 73" transform="translate(908 -519)">
      <path id="Path_88" data-name="Path 88" d="M589.667,250.977h.158l-.158-.156Z" fill="none"/>
      <path id="Path_89" data-name="Path 89" d="M743.959,259.974v-9h8.875V233.642h-9v-9.5H685.667v35.832Z" fill="none"/>
      <path id="Path_90" data-name="Path 90" d="M589.667,233.642v.055l.048-.055Z" fill="none"/>
      <path id="Path_91" data-name="Path 91" d="M598.792,259.974h.148l-.148-.146Z" fill="none"/>
      <path id="Path_92" data-name="Path 92" d="M598.667,223.319l-.714.823h.714Z" fill="#ef0000"/>
      <path id="Path_94" data-name="Path 94" d="M753.167,233.035v-8.893h-9.083v-9.333H598.667v9.333H743.834v9.5h9v17.335h-8.875v9H598.792v-9h-9.125V233.642h9v-9.5h-9.333v7.5h-9v19.776h9.125v9.058h9.333v8.831H744.208v-8.831h9.083v-7.666h8.875V233.035Z"/>
      <g id="Group_72" data-name="Group 72">
        <path id="Path_95" data-name="Path 95" d="M622.831,249.977h-8.5V235.816h8.5v2.833h-5.664v2.831h5.664v2.833h-5.664v2.832h5.664Z"/>
        <path id="Path_96" data-name="Path 96" d="M636.991,241.48h-2.832v2.833h-5.664v5.664h-2.832V235.816h8.5v2.833h2.832Zm-2.832,0v-2.831h-5.664v2.831Zm2.832,8.5h-2.832v-5.664h2.832Z"/>
        <path id="Path_97" data-name="Path 97" d="M651.151,241.48h-2.832v2.833h-5.664v5.664h-2.832V235.816h8.5v2.833h2.832Zm-2.832,0v-2.831h-5.664v2.831Zm2.832,8.5h-2.832v-5.664h2.832Z"/>
        <path id="Path_98" data-name="Path 98" d="M665.311,247.145h-2.832v2.832h-5.664v-2.832h-2.832v-8.5h2.832v-2.833h5.664v2.833h2.832Zm-2.832,0v-8.5h-5.664v8.5Z"/>
        <path id="Path_99" data-name="Path 99" d="M679.472,241.48H676.64v2.833h-5.664v5.664h-2.832V235.816h8.5v2.833h2.832Zm-2.832,0v-2.831h-5.664v2.831Zm2.832,8.5H676.64v-5.664h2.832Z"/>
        <path id="Path_100" data-name="Path 100" d="M702.128,244.313H699.3v5.664h-2.832v-5.664H690.8v-8.5h2.832v5.664h2.832v-2.831H699.3v2.831h2.832Z"/>
        <path id="Path_101" data-name="Path 101" d="M716.288,247.145h-2.832v2.832h-5.664v-2.832H704.96v-8.5h2.832v-2.833h5.664v2.833h2.832Zm-2.832,0v-8.5h-5.664v8.5Z"/>
        <path id="Path_102" data-name="Path 102" d="M730.448,244.313h-2.832v5.664h-2.832v-5.664H719.12v-8.5h2.832v5.664h2.832v-2.831h2.832v2.831h2.832Z"/>
      </g>
    </g>
  </g>
</svg>
