<?xml version="1.0" encoding="iso-8859-1"?>
<!-- Generator: Adobe Illustrator 19.0.0, SVG Export Plug-In . SVG Version: 6.00 Build 0)  -->
<svg version="1.1" id="Layer_1" xmlns="http://www.w3.org/2000/svg" xmlns:xlink="http://www.w3.org/1999/xlink" x="0px" y="0px"
	 viewBox="0 0 512 512" style="enable-background:new 0 0 512 512;" xml:space="preserve">
<g>
	<g>
		<rect x="384" y="66.783" width="33.391" height="33.391"/>
	</g>
</g>
<g>
	<g>
		<rect x="417.391" y="33.391" width="33.391" height="33.391"/>
	</g>
</g>
<g>
	<g>
		<rect x="150.261" y="66.783" width="33.391" height="33.391"/>
	</g>
</g>
<g>
	<g>
		<rect x="116.87" y="33.391" width="33.391" height="33.391"/>
	</g>
</g>
<g>
	<g>
		<g>
			<rect x="350.609" y="133.565" width="33.391" height="133.565"/>
			<polygon points="361.739,378.435 361.739,333.913 328.348,333.913 328.348,378.435 328.348,411.826 395.13,411.826 
				395.13,378.435 			"/>
			<polygon points="350.609,300.522 350.609,267.13 294.957,267.13 217.043,267.13 217.043,133.565 183.652,133.565 183.652,267.13 
				161.391,267.13 161.391,300.522 217.043,300.522 294.957,300.522 294.957,333.913 328.348,333.913 328.348,300.522 			"/>
		</g>
	</g>
</g>
<g>
	<g>
		<rect x="217.043" y="100.174" width="133.565" height="33.391"/>
	</g>
</g>
<g>
	<g>
		<rect x="261.565" width="33.391" height="66.783"/>
	</g>
</g>
<g>
	<g>
		<rect x="417.391" y="166.957" width="66.783" height="33.391"/>
	</g>
</g>
<g>
	<g>
		<rect x="83.478" y="166.957" width="66.783" height="33.391"/>
	</g>
</g>
<g>
	<g>
		<rect x="395.13" y="411.826" width="33.391" height="66.783"/>
	</g>
</g>
<g>
	<g>
		<g>
			<rect x="27.826" y="411.826" width="33.391" height="66.783"/>
			<rect x="61.217" y="478.609" width="333.913" height="33.391"/>
		</g>
	</g>
</g>
<g>
	<g>
		<rect x="128" y="300.522" width="33.391" height="33.391"/>
	</g>
</g>
<g>
	<g>
		<g>
			<polygon points="128,333.913 94.609,333.913 94.609,378.435 61.217,378.435 61.217,411.826 94.609,411.826 128,411.826 
				128,378.435 			"/>
			<rect x="128" y="411.826" width="33.391" height="33.391"/>
		</g>
	</g>
</g>
<g>
	<g>
		<rect x="294.957" y="411.826" width="33.391" height="33.391"/>
	</g>
</g>
<g>
</g>
<g>
</g>
<g>
</g>
<g>
</g>
<g>
</g>
<g>
</g>
<g>
</g>
<g>
</g>
<g>
</g>
<g>
</g>
<g>
</g>
<g>
</g>
<g>
</g>
<g>
</g>
<g>
</g>
</svg>
