<svg width="198" height="170" viewBox="0 0 198 170" fill="none" xmlns="http://www.w3.org/2000/svg">
<path d="M99.0418 80.0078C121.123 80.0078 139 62.0848 139 40.004C139 17.9232 121.123 0.000203786 99.0418 0.000201856C76.923 0.000199922 59 17.9232 59 40.004C59 62.0848 76.923 80.0078 99.0418 80.0078ZM99.0038 8.01163C116.684 8.01163 131.004 22.3318 131.004 40.0116C131.004 57.6914 116.684 72.0116 99.0038 72.0116C81.324 72.0116 67.0038 57.6914 67.0038 40.0116C67.0038 22.3318 81.324 8.01163 99.0038 8.01163ZM85.0029 44.0097C81.6812 44.0097 79.0057 46.6929 79.0057 50.0069C79.0057 53.3209 81.6888 56.004 85.0029 56.004C88.3169 56.004 91 53.3209 91 50.0069C91 46.6929 88.3245 44.0097 85.0029 44.0097ZM113.005 44.0097C109.683 44.0097 107.008 46.6929 107.008 50.0069C107.008 53.3209 109.691 56.004 113.005 56.004C116.319 56.004 119.002 53.3209 119.002 50.0069C119.002 46.6929 116.326 44.0097 113.005 44.0097ZM99.0038 18.0069C89.685 18.0069 81.7648 23.8445 78.5648 32.0079L119.443 32.0079C116.243 23.8521 108.323 18.0069 99.0038 18.0069Z" fill="black"/>
<path d="M84.9522 119.566C90.7963 119.566 95.2894 115.638 96.1377 109.857H89.948C89.3196 112.308 87.403 113.91 84.9522 113.91C81.8416 113.91 79.548 111.428 79.548 108.034C79.548 104.641 81.8416 102.127 84.9522 102.127C87.2773 102.127 89.1625 103.604 89.9166 105.835H96.0749C95.1637 100.274 90.7021 96.4719 84.9522 96.4719C78.2597 96.4719 73.264 101.436 73.264 108.034C73.264 114.601 78.2597 119.566 84.9522 119.566ZM118.746 97.006L114.379 110.705L109.886 97.006H102.974L111.551 119H117.207L125.627 97.006H118.746ZM1.83414 152.967H17.9212V147.657H1.83414L1.83414 152.967ZM47.2262 159H53.9815L49.6141 151.019C51.7821 149.731 53.1018 147.5 53.1018 144.798C53.1018 140.211 49.6456 137.006 44.9326 137.006H35.3809L35.3809 159H41.4449L41.4449 152.276H43.6443L47.2262 159ZM41.4449 142.41H44.2099C45.9066 142.41 46.8806 143.416 46.8806 144.798C46.8806 146.149 45.9066 147.186 44.2099 147.186H41.4449V142.41ZM69.4583 153.753V150.454H76.6849V145.489H69.4583V142.253H77.5018V137.006H63.4257L63.4257 159H77.7846V153.753H69.4583ZM95.8568 159.566C100.978 159.566 104.654 157.052 104.654 152.245C104.654 147.249 100.444 146.149 97.1764 145.332C95.1341 144.798 93.4689 144.39 93.4689 143.133C93.4689 142.096 94.5057 141.625 95.574 141.625C96.8308 141.625 97.8677 142.285 97.8677 143.698H103.963C103.963 139.205 100.915 136.503 95.6368 136.503C90.4525 136.503 87.2791 138.985 87.2791 143.321C87.2791 148.317 91.3323 149.291 94.5057 150.077C96.6109 150.579 98.339 150.988 98.339 152.37C98.339 153.564 97.1136 154.256 95.8568 154.256C94.4743 154.256 93.2489 153.47 93.2489 151.899H86.9963C86.9963 156.706 90.484 159.566 95.8568 159.566ZM124 159.566C129.624 159.566 133.614 155.921 133.614 150.517V137.006H127.425V150.391C127.425 152.559 126.042 153.941 124 153.941C121.989 153.941 120.606 152.559 120.606 150.391V137.006H114.417V150.517C114.417 155.921 118.407 159.566 124 159.566ZM172.331 159L169.032 137.006H162.999L157.783 148.977L152.599 137.006H146.535L143.204 159H149.363L151.059 146.369L156.872 159.063H158.663L164.507 146.338L166.204 159H172.331ZM188.173 153.753V150.454H195.4V145.489H188.173V142.253H196.217V137.006H182.141V159H196.499V153.753H188.173Z" fill="black"/>
<path d="M72.2899 122.142L125.722 122.142V123.713L72.2899 123.713V122.142ZM0.137459 162.142L197.851 162.142V163.713L0.137459 163.713L0.137459 162.142Z" fill="black"/>
</svg>
