<svg width="198" height="170" viewBox="0 0 198 170" fill="none" xmlns="http://www.w3.org/2000/svg">
<path d="M98.9582 0C76.8774 0 59 17.923 59 40.0038C59 62.0846 76.8774 80.0076 98.9582 80.0076C121.077 80.0076 139 62.0846 139 40.0038C139 17.923 121.077 0 98.9582 0ZM98.9962 71.9962C81.3164 71.9962 66.9962 57.676 66.9962 39.9962C66.9962 22.3164 81.3164 7.99621 98.9962 7.99621C116.676 7.99621 130.996 22.3164 130.996 39.9962C130.996 57.676 116.676 71.9962 98.9962 71.9962ZM112.997 35.9981C116.319 35.9981 118.994 33.3149 118.994 30.0009C118.994 26.6869 116.311 24.0038 112.997 24.0038C109.683 24.0038 107 26.6869 107 30.0009C107 33.3149 109.676 35.9981 112.997 35.9981ZM84.9952 35.9981C88.3169 35.9981 90.9924 33.3149 90.9924 30.0009C90.9924 26.6869 88.3093 24.0038 84.9952 24.0038C81.6812 24.0038 78.9981 26.6869 78.9981 30.0009C78.9981 33.3149 81.6736 35.9981 84.9952 35.9981ZM98.9962 62.0009C108.315 62.0009 116.235 56.1633 119.435 47.9999L78.5572 47.9999C81.7572 56.1557 89.6774 62.0009 98.9962 62.0009Z" fill="#0000FF"/>
<path d="M84.9522 119.566C90.7963 119.566 95.2894 115.638 96.1377 109.857H89.948C89.3196 112.308 87.403 113.91 84.9522 113.91C81.8416 113.91 79.548 111.428 79.548 108.034C79.548 104.641 81.8416 102.127 84.9522 102.127C87.2773 102.127 89.1625 103.604 89.9166 105.835H96.0749C95.1637 100.274 90.7021 96.4719 84.9522 96.4719C78.2597 96.4719 73.264 101.436 73.264 108.034C73.264 114.601 78.2597 119.566 84.9522 119.566ZM118.746 97.006L114.379 110.705L109.886 97.006H102.974L111.551 119H117.207L125.627 97.006H118.746ZM1.83414 152.967H17.9212V147.657H1.83414L1.83414 152.967ZM47.2262 159H53.9815L49.6141 151.019C51.7821 149.731 53.1018 147.5 53.1018 144.798C53.1018 140.211 49.6456 137.006 44.9326 137.006H35.3809L35.3809 159H41.4449L41.4449 152.276H43.6443L47.2262 159ZM41.4449 142.41H44.2099C45.9066 142.41 46.8806 143.416 46.8806 144.798C46.8806 146.149 45.9066 147.186 44.2099 147.186H41.4449V142.41ZM69.4583 153.753V150.454H76.6849V145.489H69.4583V142.253H77.5018V137.006H63.4257L63.4257 159H77.7846V153.753H69.4583ZM95.8568 159.566C100.978 159.566 104.654 157.052 104.654 152.245C104.654 147.249 100.444 146.149 97.1764 145.332C95.1341 144.798 93.4689 144.39 93.4689 143.133C93.4689 142.096 94.5057 141.625 95.574 141.625C96.8308 141.625 97.8677 142.285 97.8677 143.698H103.963C103.963 139.205 100.915 136.503 95.6368 136.503C90.4525 136.503 87.2791 138.985 87.2791 143.321C87.2791 148.317 91.3323 149.291 94.5057 150.077C96.6109 150.579 98.339 150.988 98.339 152.37C98.339 153.564 97.1136 154.256 95.8568 154.256C94.4743 154.256 93.2489 153.47 93.2489 151.899H86.9963C86.9963 156.706 90.484 159.566 95.8568 159.566ZM124 159.566C129.624 159.566 133.614 155.921 133.614 150.517V137.006H127.425V150.391C127.425 152.559 126.042 153.941 124 153.941C121.989 153.941 120.606 152.559 120.606 150.391V137.006H114.417V150.517C114.417 155.921 118.407 159.566 124 159.566ZM172.331 159L169.032 137.006H162.999L157.783 148.977L152.599 137.006H146.535L143.204 159H149.363L151.059 146.369L156.872 159.063H158.663L164.507 146.338L166.204 159H172.331ZM188.173 153.753V150.454H195.4V145.489H188.173V142.253H196.217V137.006H182.141V159H196.499V153.753H188.173Z" fill="#0000FF"/>
<path d="M72.2899 122.142L125.722 122.142V123.713L72.2899 123.713V122.142ZM0.137459 162.142L197.851 162.142V163.713L0.137459 163.713L0.137459 162.142Z" fill="#0000FF"/>
</svg>
