<svg width="1625" height="770" viewBox="0 0 1625 770" fill="none" xmlns="http://www.w3.org/2000/svg">
<rect x="1" y="1" width="43.8857" height="43.8857" stroke="#00FF00" stroke-opacity="0.5"/>
<rect x="1" y="66.8291" width="43.8857" height="43.8857" stroke="#00FF00" stroke-opacity="0.5"/>
<rect x="66.8286" y="1" width="43.8857" height="43.8857" stroke="#00FF00" stroke-opacity="0.5"/>
<rect x="66.8286" y="66.8291" width="43.8857" height="43.8857" stroke="#00FF00" stroke-opacity="0.5"/>
<rect x="1" y="132.657" width="43.8857" height="43.8857" stroke="#00FF00" stroke-opacity="0.5"/>
<rect x="1" y="198.485" width="43.8857" height="43.8857" stroke="#00FF00" stroke-opacity="0.5"/>
<rect x="66.8286" y="132.657" width="43.8857" height="43.8857" stroke="#00FF00" stroke-opacity="0.5"/>
<rect x="66.8286" y="198.485" width="43.8857" height="43.8857" stroke="#00FF00" stroke-opacity="0.5"/>
<rect x="1" y="264.314" width="43.8857" height="43.8857" stroke="#00FF00" stroke-opacity="0.5"/>
<rect x="1" y="330.143" width="43.8857" height="43.8857" stroke="#00FF00" stroke-opacity="0.5"/>
<rect x="66.8286" y="264.314" width="43.8857" height="43.8857" stroke="#00FF00" stroke-opacity="0.5"/>
<rect x="66.8286" y="330.143" width="43.8857" height="43.8857" stroke="#00FF00" stroke-opacity="0.5"/>
<rect x="1" y="395.972" width="43.8857" height="43.8857" stroke="#00FF00" stroke-opacity="0.5"/>
<rect x="1" y="461.8" width="43.8857" height="43.8857" stroke="#00FF00" stroke-opacity="0.5"/>
<rect x="66.8286" y="395.972" width="43.8857" height="43.8857" stroke="#00FF00" stroke-opacity="0.5"/>
<rect x="66.8286" y="461.8" width="43.8857" height="43.8857" stroke="#00FF00" stroke-opacity="0.5"/>
<rect x="1" y="659.285" width="43.8857" height="43.8857" stroke="#00FF00" stroke-opacity="0.5"/>
<rect x="1" y="725.114" width="43.8857" height="43.8857" stroke="#00FF00" stroke-opacity="0.5"/>
<rect x="66.8286" y="659.285" width="43.8857" height="43.8857" stroke="#00FF00" stroke-opacity="0.5"/>
<rect x="66.8286" y="725.114" width="43.8857" height="43.8857" stroke="#00FF00" stroke-opacity="0.5"/>
<rect x="1" y="527.629" width="43.8857" height="43.8857" stroke="#00FF00" stroke-opacity="0.5"/>
<rect x="1" y="593.457" width="43.8857" height="43.8857" stroke="#00FF00" stroke-opacity="0.5"/>
<rect x="66.8286" y="527.629" width="43.8857" height="43.8857" stroke="#00FF00" stroke-opacity="0.5"/>
<rect x="66.8286" y="593.457" width="43.8857" height="43.8857" stroke="#00FF00" stroke-opacity="0.5"/>
<rect x="264.314" y="1" width="43.8857" height="43.8857" stroke="#00FF00" stroke-opacity="0.5"/>
<rect x="264.314" y="66.8291" width="43.8857" height="43.8857" stroke="#00FF00" stroke-opacity="0.5"/>
<rect x="330.143" y="1" width="43.8857" height="43.8857" stroke="#00FF00" stroke-opacity="0.5"/>
<rect x="330.143" y="66.8291" width="43.8857" height="43.8857" stroke="#00FF00" stroke-opacity="0.5"/>
<rect x="264.314" y="132.657" width="43.8857" height="43.8857" stroke="#00FF00" stroke-opacity="0.5"/>
<rect x="264.314" y="198.485" width="43.8857" height="43.8857" stroke="#00FF00" stroke-opacity="0.5"/>
<rect x="330.143" y="132.657" width="43.8857" height="43.8857" stroke="#00FF00" stroke-opacity="0.5"/>
<rect x="330.143" y="198.485" width="43.8857" height="43.8857" stroke="#00FF00" stroke-opacity="0.5"/>
<rect x="264.314" y="264.314" width="43.8857" height="43.8857" stroke="#00FF00" stroke-opacity="0.5"/>
<rect x="264.314" y="330.143" width="43.8857" height="43.8857" stroke="#00FF00" stroke-opacity="0.5"/>
<rect x="330.143" y="264.314" width="43.8857" height="43.8857" stroke="#00FF00" stroke-opacity="0.5"/>
<rect x="330.143" y="330.143" width="43.8857" height="43.8857" stroke="#00FF00" stroke-opacity="0.5"/>
<rect x="264.314" y="395.972" width="43.8857" height="43.8857" stroke="#00FF00" stroke-opacity="0.5"/>
<rect x="264.314" y="461.8" width="43.8857" height="43.8857" stroke="#00FF00" stroke-opacity="0.5"/>
<rect x="330.143" y="395.972" width="43.8857" height="43.8857" stroke="#00FF00" stroke-opacity="0.5"/>
<rect x="330.143" y="461.8" width="43.8857" height="43.8857" stroke="#00FF00" stroke-opacity="0.5"/>
<rect x="264.314" y="659.285" width="43.8857" height="43.8857" stroke="#00FF00" stroke-opacity="0.5"/>
<rect x="264.314" y="725.114" width="43.8857" height="43.8857" stroke="#00FF00" stroke-opacity="0.5"/>
<rect x="330.143" y="659.285" width="43.8857" height="43.8857" stroke="#00FF00" stroke-opacity="0.5"/>
<rect x="330.143" y="725.114" width="43.8857" height="43.8857" stroke="#00FF00" stroke-opacity="0.5"/>
<rect x="264.314" y="527.629" width="43.8857" height="43.8857" stroke="#00FF00" stroke-opacity="0.5"/>
<rect x="264.314" y="593.457" width="43.8857" height="43.8857" stroke="#00FF00" stroke-opacity="0.5"/>
<rect x="330.143" y="527.629" width="43.8857" height="43.8857" stroke="#00FF00" stroke-opacity="0.5"/>
<rect x="330.143" y="593.457" width="43.8857" height="43.8857" stroke="#00FF00" stroke-opacity="0.5"/>
<rect x="527.628" y="1" width="43.8857" height="43.8857" stroke="#00FF00" stroke-opacity="0.5"/>
<rect x="527.628" y="66.8291" width="43.8857" height="43.8857" stroke="#00FF00" stroke-opacity="0.5"/>
<rect x="593.457" y="1" width="43.8857" height="43.8857" stroke="#00FF00" stroke-opacity="0.5"/>
<rect x="593.457" y="66.8291" width="43.8857" height="43.8857" stroke="#00FF00" stroke-opacity="0.5"/>
<rect x="527.628" y="132.657" width="43.8857" height="43.8857" stroke="#00FF00" stroke-opacity="0.5"/>
<rect x="527.628" y="198.485" width="43.8857" height="43.8857" stroke="#00FF00" stroke-opacity="0.5"/>
<rect x="593.457" y="132.657" width="43.8857" height="43.8857" stroke="#00FF00" stroke-opacity="0.5"/>
<rect x="593.457" y="198.485" width="43.8857" height="43.8857" stroke="#00FF00" stroke-opacity="0.5"/>
<rect x="527.628" y="264.314" width="43.8857" height="43.8857" stroke="#00FF00" stroke-opacity="0.5"/>
<rect x="527.628" y="330.143" width="43.8857" height="43.8857" stroke="#00FF00" stroke-opacity="0.5"/>
<rect x="593.457" y="264.314" width="43.8857" height="43.8857" stroke="#00FF00" stroke-opacity="0.5"/>
<rect x="593.457" y="330.143" width="43.8857" height="43.8857" stroke="#00FF00" stroke-opacity="0.5"/>
<rect x="527.628" y="395.972" width="43.8857" height="43.8857" stroke="#00FF00" stroke-opacity="0.5"/>
<rect x="527.628" y="461.8" width="43.8857" height="43.8857" stroke="#00FF00" stroke-opacity="0.5"/>
<rect x="593.457" y="395.972" width="43.8857" height="43.8857" stroke="#00FF00" stroke-opacity="0.5"/>
<rect x="593.457" y="461.8" width="43.8857" height="43.8857" stroke="#00FF00" stroke-opacity="0.5"/>
<rect x="527.628" y="659.285" width="43.8857" height="43.8857" stroke="#00FF00" stroke-opacity="0.5"/>
<rect x="527.628" y="725.114" width="43.8857" height="43.8857" stroke="#00FF00" stroke-opacity="0.5"/>
<rect x="593.457" y="659.285" width="43.8857" height="43.8857" stroke="#00FF00" stroke-opacity="0.5"/>
<rect x="593.457" y="725.114" width="43.8857" height="43.8857" stroke="#00FF00" stroke-opacity="0.5"/>
<rect x="527.628" y="527.629" width="43.8857" height="43.8857" stroke="#00FF00" stroke-opacity="0.5"/>
<rect x="527.628" y="593.457" width="43.8857" height="43.8857" stroke="#00FF00" stroke-opacity="0.5"/>
<rect x="593.457" y="527.629" width="43.8857" height="43.8857" stroke="#00FF00" stroke-opacity="0.5"/>
<rect x="593.457" y="593.457" width="43.8857" height="43.8857" stroke="#00FF00" stroke-opacity="0.5"/>
<rect x="132.657" y="1" width="43.8857" height="43.8857" stroke="#00FF00" stroke-opacity="0.5"/>
<rect x="132.657" y="66.8291" width="43.8857" height="43.8857" stroke="#00FF00" stroke-opacity="0.5"/>
<rect x="198.486" y="1" width="43.8857" height="43.8857" stroke="#00FF00" stroke-opacity="0.5"/>
<rect x="198.486" y="66.8291" width="43.8857" height="43.8857" stroke="#00FF00" stroke-opacity="0.5"/>
<rect x="132.657" y="132.657" width="43.8857" height="43.8857" stroke="#00FF00" stroke-opacity="0.5"/>
<rect x="132.657" y="198.485" width="43.8857" height="43.8857" stroke="#00FF00" stroke-opacity="0.5"/>
<rect x="198.486" y="132.657" width="43.8857" height="43.8857" stroke="#00FF00" stroke-opacity="0.5"/>
<rect x="198.486" y="198.485" width="43.8857" height="43.8857" stroke="#00FF00" stroke-opacity="0.5"/>
<rect x="132.657" y="264.314" width="43.8857" height="43.8857" stroke="#00FF00" stroke-opacity="0.5"/>
<rect x="132.657" y="330.143" width="43.8857" height="43.8857" stroke="#00FF00" stroke-opacity="0.5"/>
<rect x="198.486" y="264.314" width="43.8857" height="43.8857" stroke="#00FF00" stroke-opacity="0.5"/>
<rect x="198.486" y="330.143" width="43.8857" height="43.8857" stroke="#00FF00" stroke-opacity="0.5"/>
<rect x="132.657" y="395.972" width="43.8857" height="43.8857" stroke="#00FF00" stroke-opacity="0.5"/>
<rect x="132.657" y="461.8" width="43.8857" height="43.8857" stroke="#00FF00" stroke-opacity="0.5"/>
<rect x="198.486" y="395.972" width="43.8857" height="43.8857" stroke="#00FF00" stroke-opacity="0.5"/>
<rect x="198.486" y="461.8" width="43.8857" height="43.8857" stroke="#00FF00" stroke-opacity="0.5"/>
<rect x="132.657" y="659.285" width="43.8857" height="43.8857" stroke="#00FF00" stroke-opacity="0.5"/>
<rect x="132.657" y="725.114" width="43.8857" height="43.8857" stroke="#00FF00" stroke-opacity="0.5"/>
<rect x="198.486" y="659.285" width="43.8857" height="43.8857" stroke="#00FF00" stroke-opacity="0.5"/>
<rect x="198.486" y="725.114" width="43.8857" height="43.8857" stroke="#00FF00" stroke-opacity="0.5"/>
<rect x="132.657" y="527.629" width="43.8857" height="43.8857" stroke="#00FF00" stroke-opacity="0.5"/>
<rect x="132.657" y="593.457" width="43.8857" height="43.8857" stroke="#00FF00" stroke-opacity="0.5"/>
<rect x="198.486" y="527.629" width="43.8857" height="43.8857" stroke="#00FF00" stroke-opacity="0.5"/>
<rect x="198.486" y="593.457" width="43.8857" height="43.8857" stroke="#00FF00" stroke-opacity="0.5"/>
<rect x="395.971" y="1" width="43.8857" height="43.8857" stroke="#00FF00" stroke-opacity="0.5"/>
<rect x="395.971" y="66.8291" width="43.8857" height="43.8857" stroke="#00FF00" stroke-opacity="0.5"/>
<rect x="461.8" y="1" width="43.8857" height="43.8857" stroke="#00FF00" stroke-opacity="0.5"/>
<rect x="461.8" y="66.8291" width="43.8857" height="43.8857" stroke="#00FF00" stroke-opacity="0.5"/>
<rect x="395.971" y="132.657" width="43.8857" height="43.8857" stroke="#00FF00" stroke-opacity="0.5"/>
<rect x="395.971" y="198.485" width="43.8857" height="43.8857" stroke="#00FF00" stroke-opacity="0.5"/>
<rect x="461.8" y="132.657" width="43.8857" height="43.8857" stroke="#00FF00" stroke-opacity="0.5"/>
<rect x="461.8" y="198.485" width="43.8857" height="43.8857" stroke="#00FF00" stroke-opacity="0.5"/>
<rect x="395.971" y="264.314" width="43.8857" height="43.8857" stroke="#00FF00" stroke-opacity="0.5"/>
<rect x="395.971" y="330.143" width="43.8857" height="43.8857" stroke="#00FF00" stroke-opacity="0.5"/>
<rect x="461.8" y="264.314" width="43.8857" height="43.8857" stroke="#00FF00" stroke-opacity="0.5"/>
<rect x="461.8" y="330.143" width="43.8857" height="43.8857" stroke="#00FF00" stroke-opacity="0.5"/>
<rect x="395.971" y="395.972" width="43.8857" height="43.8857" stroke="#00FF00" stroke-opacity="0.5"/>
<rect x="395.971" y="461.8" width="43.8857" height="43.8857" stroke="#00FF00" stroke-opacity="0.5"/>
<rect x="461.8" y="395.972" width="43.8857" height="43.8857" stroke="#00FF00" stroke-opacity="0.5"/>
<rect x="461.8" y="461.8" width="43.8857" height="43.8857" stroke="#00FF00" stroke-opacity="0.5"/>
<rect x="395.971" y="659.285" width="43.8857" height="43.8857" stroke="#00FF00" stroke-opacity="0.5"/>
<rect x="395.971" y="725.114" width="43.8857" height="43.8857" stroke="#00FF00" stroke-opacity="0.5"/>
<rect x="461.8" y="659.285" width="43.8857" height="43.8857" stroke="#00FF00" stroke-opacity="0.5"/>
<rect x="461.8" y="725.114" width="43.8857" height="43.8857" stroke="#00FF00" stroke-opacity="0.5"/>
<rect x="395.971" y="527.629" width="43.8857" height="43.8857" stroke="#00FF00" stroke-opacity="0.5"/>
<rect x="395.971" y="593.457" width="43.8857" height="43.8857" stroke="#00FF00" stroke-opacity="0.5"/>
<rect x="461.8" y="527.629" width="43.8857" height="43.8857" stroke="#00FF00" stroke-opacity="0.5"/>
<rect x="461.8" y="593.457" width="43.8857" height="43.8857" stroke="#00FF00" stroke-opacity="0.5"/>
<rect x="659.286" y="1" width="43.8857" height="43.8857" stroke="#00FF00" stroke-opacity="0.5"/>
<rect x="659.286" y="66.8291" width="43.8857" height="43.8857" stroke="#00FF00" stroke-opacity="0.5"/>
<rect x="725.114" y="1" width="43.8857" height="43.8857" stroke="#00FF00" stroke-opacity="0.5"/>
<rect x="725.114" y="66.8291" width="43.8857" height="43.8857" stroke="#00FF00" stroke-opacity="0.5"/>
<rect x="659.286" y="132.657" width="43.8857" height="43.8857" stroke="#00FF00" stroke-opacity="0.5"/>
<rect x="659.286" y="198.485" width="43.8857" height="43.8857" stroke="#00FF00" stroke-opacity="0.5"/>
<rect x="725.114" y="132.657" width="43.8857" height="43.8857" stroke="#00FF00" stroke-opacity="0.5"/>
<rect x="725.114" y="198.485" width="43.8857" height="43.8857" stroke="#00FF00" stroke-opacity="0.5"/>
<rect x="659.286" y="264.314" width="43.8857" height="43.8857" stroke="#00FF00" stroke-opacity="0.5"/>
<rect x="659.286" y="330.143" width="43.8857" height="43.8857" stroke="#00FF00" stroke-opacity="0.5"/>
<rect x="725.114" y="264.314" width="43.8857" height="43.8857" stroke="#00FF00" stroke-opacity="0.5"/>
<rect x="725.114" y="330.143" width="43.8857" height="43.8857" stroke="#00FF00" stroke-opacity="0.5"/>
<rect x="659.286" y="395.972" width="43.8857" height="43.8857" stroke="#00FF00" stroke-opacity="0.5"/>
<rect x="659.286" y="461.8" width="43.8857" height="43.8857" stroke="#00FF00" stroke-opacity="0.5"/>
<rect x="725.114" y="395.972" width="43.8857" height="43.8857" stroke="#00FF00" stroke-opacity="0.5"/>
<rect x="725.114" y="461.8" width="43.8857" height="43.8857" stroke="#00FF00" stroke-opacity="0.5"/>
<rect x="659.286" y="659.285" width="43.8857" height="43.8857" stroke="#00FF00" stroke-opacity="0.5"/>
<rect x="659.286" y="725.114" width="43.8857" height="43.8857" stroke="#00FF00" stroke-opacity="0.5"/>
<rect x="725.114" y="659.285" width="43.8857" height="43.8857" stroke="#00FF00" stroke-opacity="0.5"/>
<rect x="725.114" y="725.114" width="43.8857" height="43.8857" stroke="#00FF00" stroke-opacity="0.5"/>
<rect x="659.286" y="527.629" width="43.8857" height="43.8857" stroke="#00FF00" stroke-opacity="0.5"/>
<rect x="659.286" y="593.457" width="43.8857" height="43.8857" stroke="#00FF00" stroke-opacity="0.5"/>
<rect x="725.114" y="527.629" width="43.8857" height="43.8857" stroke="#00FF00" stroke-opacity="0.5"/>
<rect x="725.114" y="593.457" width="43.8857" height="43.8857" stroke="#00FF00" stroke-opacity="0.5"/>
<rect x="856" y="1" width="43.8857" height="43.8857" stroke="#00FF00" stroke-opacity="0.5"/>
<rect x="856" y="66.8291" width="43.8857" height="43.8857" stroke="#00FF00" stroke-opacity="0.5"/>
<rect x="921.829" y="1" width="43.8857" height="43.8857" stroke="#00FF00" stroke-opacity="0.5"/>
<rect x="921.829" y="66.8291" width="43.8857" height="43.8857" stroke="#00FF00" stroke-opacity="0.5"/>
<rect x="856" y="132.657" width="43.8857" height="43.8857" stroke="#00FF00" stroke-opacity="0.5"/>
<rect x="856" y="198.485" width="43.8857" height="43.8857" stroke="#00FF00" stroke-opacity="0.5"/>
<rect x="921.829" y="132.657" width="43.8857" height="43.8857" stroke="#00FF00" stroke-opacity="0.5"/>
<rect x="921.829" y="198.485" width="43.8857" height="43.8857" stroke="#00FF00" stroke-opacity="0.5"/>
<rect x="856" y="264.314" width="43.8857" height="43.8857" stroke="#00FF00" stroke-opacity="0.5"/>
<rect x="856" y="330.143" width="43.8857" height="43.8857" stroke="#00FF00" stroke-opacity="0.5"/>
<rect x="921.829" y="264.314" width="43.8857" height="43.8857" stroke="#00FF00" stroke-opacity="0.5"/>
<rect x="921.829" y="330.143" width="43.8857" height="43.8857" stroke="#00FF00" stroke-opacity="0.5"/>
<rect x="856" y="395.972" width="43.8857" height="43.8857" stroke="#00FF00" stroke-opacity="0.5"/>
<rect x="856" y="461.8" width="43.8857" height="43.8857" stroke="#00FF00" stroke-opacity="0.5"/>
<rect x="921.829" y="395.972" width="43.8857" height="43.8857" stroke="#00FF00" stroke-opacity="0.5"/>
<rect x="921.829" y="461.8" width="43.8857" height="43.8857" stroke="#00FF00" stroke-opacity="0.5"/>
<rect x="856" y="659.285" width="43.8857" height="43.8857" stroke="#00FF00" stroke-opacity="0.5"/>
<rect x="856" y="725.114" width="43.8857" height="43.8857" stroke="#00FF00" stroke-opacity="0.5"/>
<rect x="921.829" y="659.285" width="43.8857" height="43.8857" stroke="#00FF00" stroke-opacity="0.5"/>
<rect x="921.829" y="725.114" width="43.8857" height="43.8857" stroke="#00FF00" stroke-opacity="0.5"/>
<rect x="856" y="527.629" width="43.8857" height="43.8857" stroke="#00FF00" stroke-opacity="0.5"/>
<rect x="856" y="593.457" width="43.8857" height="43.8857" stroke="#00FF00" stroke-opacity="0.5"/>
<rect x="921.829" y="527.629" width="43.8857" height="43.8857" stroke="#00FF00" stroke-opacity="0.5"/>
<rect x="921.829" y="593.457" width="43.8857" height="43.8857" stroke="#00FF00" stroke-opacity="0.5"/>
<rect x="1119.31" y="1" width="43.8857" height="43.8857" stroke="#00FF00" stroke-opacity="0.5"/>
<rect x="1119.31" y="66.8291" width="43.8857" height="43.8857" stroke="#00FF00" stroke-opacity="0.5"/>
<rect x="1185.14" y="1" width="43.8857" height="43.8857" stroke="#00FF00" stroke-opacity="0.5"/>
<rect x="1185.14" y="66.8291" width="43.8857" height="43.8857" stroke="#00FF00" stroke-opacity="0.5"/>
<rect x="1119.31" y="132.657" width="43.8857" height="43.8857" stroke="#00FF00" stroke-opacity="0.5"/>
<rect x="1119.31" y="198.485" width="43.8857" height="43.8857" stroke="#00FF00" stroke-opacity="0.5"/>
<rect x="1185.14" y="132.657" width="43.8857" height="43.8857" stroke="#00FF00" stroke-opacity="0.5"/>
<rect x="1185.14" y="198.485" width="43.8857" height="43.8857" stroke="#00FF00" stroke-opacity="0.5"/>
<rect x="1119.31" y="264.314" width="43.8857" height="43.8857" stroke="#00FF00" stroke-opacity="0.5"/>
<rect x="1119.31" y="330.143" width="43.8857" height="43.8857" stroke="#00FF00" stroke-opacity="0.5"/>
<rect x="1185.14" y="264.314" width="43.8857" height="43.8857" stroke="#00FF00" stroke-opacity="0.5"/>
<rect x="1185.14" y="330.143" width="43.8857" height="43.8857" stroke="#00FF00" stroke-opacity="0.5"/>
<rect x="1119.31" y="395.972" width="43.8857" height="43.8857" stroke="#00FF00" stroke-opacity="0.5"/>
<rect x="1119.31" y="461.8" width="43.8857" height="43.8857" stroke="#00FF00" stroke-opacity="0.5"/>
<rect x="1185.14" y="395.972" width="43.8857" height="43.8857" stroke="#00FF00" stroke-opacity="0.5"/>
<rect x="1185.14" y="461.8" width="43.8857" height="43.8857" stroke="#00FF00" stroke-opacity="0.5"/>
<rect x="1119.31" y="659.285" width="43.8857" height="43.8857" stroke="#00FF00" stroke-opacity="0.5"/>
<rect x="1119.31" y="725.114" width="43.8857" height="43.8857" stroke="#00FF00" stroke-opacity="0.5"/>
<rect x="1185.14" y="659.285" width="43.8857" height="43.8857" stroke="#00FF00" stroke-opacity="0.5"/>
<rect x="1185.14" y="725.114" width="43.8857" height="43.8857" stroke="#00FF00" stroke-opacity="0.5"/>
<rect x="1119.31" y="527.629" width="43.8857" height="43.8857" stroke="#00FF00" stroke-opacity="0.5"/>
<rect x="1119.31" y="593.457" width="43.8857" height="43.8857" stroke="#00FF00" stroke-opacity="0.5"/>
<rect x="1185.14" y="527.629" width="43.8857" height="43.8857" stroke="#00FF00" stroke-opacity="0.5"/>
<rect x="1185.14" y="593.457" width="43.8857" height="43.8857" stroke="#00FF00" stroke-opacity="0.5"/>
<rect x="1382.63" y="1" width="43.8857" height="43.8857" stroke="#00FF00" stroke-opacity="0.5"/>
<rect x="1382.63" y="66.8291" width="43.8857" height="43.8857" stroke="#00FF00" stroke-opacity="0.5"/>
<rect x="1448.46" y="1" width="43.8857" height="43.8857" stroke="#00FF00" stroke-opacity="0.5"/>
<rect x="1448.46" y="66.8291" width="43.8857" height="43.8857" stroke="#00FF00" stroke-opacity="0.5"/>
<rect x="1382.63" y="132.657" width="43.8857" height="43.8857" stroke="#00FF00" stroke-opacity="0.5"/>
<rect x="1382.63" y="198.485" width="43.8857" height="43.8857" stroke="#00FF00" stroke-opacity="0.5"/>
<rect x="1448.46" y="132.657" width="43.8857" height="43.8857" stroke="#00FF00" stroke-opacity="0.5"/>
<rect x="1448.46" y="198.485" width="43.8857" height="43.8857" stroke="#00FF00" stroke-opacity="0.5"/>
<rect x="1382.63" y="264.314" width="43.8857" height="43.8857" stroke="#00FF00" stroke-opacity="0.5"/>
<rect x="1382.63" y="330.143" width="43.8857" height="43.8857" stroke="#00FF00" stroke-opacity="0.5"/>
<rect x="1448.46" y="264.314" width="43.8857" height="43.8857" stroke="#00FF00" stroke-opacity="0.5"/>
<rect x="1448.46" y="330.143" width="43.8857" height="43.8857" stroke="#00FF00" stroke-opacity="0.5"/>
<rect x="1382.63" y="395.972" width="43.8857" height="43.8857" stroke="#00FF00" stroke-opacity="0.5"/>
<rect x="1382.63" y="461.8" width="43.8857" height="43.8857" stroke="#00FF00" stroke-opacity="0.5"/>
<rect x="1448.46" y="395.972" width="43.8857" height="43.8857" stroke="#00FF00" stroke-opacity="0.5"/>
<rect x="1448.46" y="461.8" width="43.8857" height="43.8857" stroke="#00FF00" stroke-opacity="0.5"/>
<rect x="1382.63" y="659.285" width="43.8857" height="43.8857" stroke="#00FF00" stroke-opacity="0.5"/>
<rect x="1382.63" y="725.114" width="43.8857" height="43.8857" stroke="#00FF00" stroke-opacity="0.5"/>
<rect x="1448.46" y="659.285" width="43.8857" height="43.8857" stroke="#00FF00" stroke-opacity="0.5"/>
<rect x="1448.46" y="725.114" width="43.8857" height="43.8857" stroke="#00FF00" stroke-opacity="0.5"/>
<rect x="1382.63" y="527.629" width="43.8857" height="43.8857" stroke="#00FF00" stroke-opacity="0.5"/>
<rect x="1382.63" y="593.457" width="43.8857" height="43.8857" stroke="#00FF00" stroke-opacity="0.5"/>
<rect x="1448.46" y="527.629" width="43.8857" height="43.8857" stroke="#00FF00" stroke-opacity="0.5"/>
<rect x="1448.46" y="593.457" width="43.8857" height="43.8857" stroke="#00FF00" stroke-opacity="0.5"/>
<rect x="987.657" y="1" width="43.8857" height="43.8857" stroke="#00FF00" stroke-opacity="0.5"/>
<rect x="987.657" y="66.8291" width="43.8857" height="43.8857" stroke="#00FF00" stroke-opacity="0.5"/>
<rect x="1053.49" y="1" width="43.8857" height="43.8857" stroke="#00FF00" stroke-opacity="0.5"/>
<rect x="1053.49" y="66.8291" width="43.8857" height="43.8857" stroke="#00FF00" stroke-opacity="0.5"/>
<rect x="987.657" y="132.657" width="43.8857" height="43.8857" stroke="#00FF00" stroke-opacity="0.5"/>
<rect x="987.657" y="198.485" width="43.8857" height="43.8857" stroke="#00FF00" stroke-opacity="0.5"/>
<rect x="1053.49" y="132.657" width="43.8857" height="43.8857" stroke="#00FF00" stroke-opacity="0.5"/>
<rect x="1053.49" y="198.485" width="43.8857" height="43.8857" stroke="#00FF00" stroke-opacity="0.5"/>
<rect x="987.657" y="264.314" width="43.8857" height="43.8857" stroke="#00FF00" stroke-opacity="0.5"/>
<rect x="987.657" y="330.143" width="43.8857" height="43.8857" stroke="#00FF00" stroke-opacity="0.5"/>
<rect x="1053.49" y="264.314" width="43.8857" height="43.8857" stroke="#00FF00" stroke-opacity="0.5"/>
<rect x="1053.49" y="330.143" width="43.8857" height="43.8857" stroke="#00FF00" stroke-opacity="0.5"/>
<rect x="987.657" y="395.972" width="43.8857" height="43.8857" stroke="#00FF00" stroke-opacity="0.5"/>
<rect x="987.657" y="461.8" width="43.8857" height="43.8857" stroke="#00FF00" stroke-opacity="0.5"/>
<rect x="1053.49" y="395.972" width="43.8857" height="43.8857" stroke="#00FF00" stroke-opacity="0.5"/>
<rect x="1053.49" y="461.8" width="43.8857" height="43.8857" stroke="#00FF00" stroke-opacity="0.5"/>
<rect x="987.657" y="659.285" width="43.8857" height="43.8857" stroke="#00FF00" stroke-opacity="0.5"/>
<rect x="987.657" y="725.114" width="43.8857" height="43.8857" stroke="#00FF00" stroke-opacity="0.5"/>
<rect x="1053.49" y="659.285" width="43.8857" height="43.8857" stroke="#00FF00" stroke-opacity="0.5"/>
<rect x="1053.49" y="725.114" width="43.8857" height="43.8857" stroke="#00FF00" stroke-opacity="0.5"/>
<rect x="987.657" y="527.629" width="43.8857" height="43.8857" stroke="#00FF00" stroke-opacity="0.5"/>
<rect x="987.657" y="593.457" width="43.8857" height="43.8857" stroke="#00FF00" stroke-opacity="0.5"/>
<rect x="1053.49" y="527.629" width="43.8857" height="43.8857" stroke="#00FF00" stroke-opacity="0.5"/>
<rect x="1053.49" y="593.457" width="43.8857" height="43.8857" stroke="#00FF00" stroke-opacity="0.5"/>
<rect x="1250.97" y="1" width="43.8857" height="43.8857" stroke="#00FF00" stroke-opacity="0.5"/>
<rect x="1250.97" y="66.8291" width="43.8857" height="43.8857" stroke="#00FF00" stroke-opacity="0.5"/>
<rect x="1316.8" y="1" width="43.8857" height="43.8857" stroke="#00FF00" stroke-opacity="0.5"/>
<rect x="1316.8" y="66.8291" width="43.8857" height="43.8857" stroke="#00FF00" stroke-opacity="0.5"/>
<rect x="1250.97" y="132.657" width="43.8857" height="43.8857" stroke="#00FF00" stroke-opacity="0.5"/>
<rect x="1250.97" y="198.485" width="43.8857" height="43.8857" stroke="#00FF00" stroke-opacity="0.5"/>
<rect x="1316.8" y="132.657" width="43.8857" height="43.8857" stroke="#00FF00" stroke-opacity="0.5"/>
<rect x="1316.8" y="198.485" width="43.8857" height="43.8857" stroke="#00FF00" stroke-opacity="0.5"/>
<rect x="1250.97" y="264.314" width="43.8857" height="43.8857" stroke="#00FF00" stroke-opacity="0.5"/>
<rect x="1250.97" y="330.143" width="43.8857" height="43.8857" stroke="#00FF00" stroke-opacity="0.5"/>
<rect x="1316.8" y="264.314" width="43.8857" height="43.8857" stroke="#00FF00" stroke-opacity="0.5"/>
<rect x="1316.8" y="330.143" width="43.8857" height="43.8857" stroke="#00FF00" stroke-opacity="0.5"/>
<rect x="1250.97" y="395.972" width="43.8857" height="43.8857" stroke="#00FF00" stroke-opacity="0.5"/>
<rect x="1250.97" y="461.8" width="43.8857" height="43.8857" stroke="#00FF00" stroke-opacity="0.5"/>
<rect x="1316.8" y="395.972" width="43.8857" height="43.8857" stroke="#00FF00" stroke-opacity="0.5"/>
<rect x="1316.8" y="461.8" width="43.8857" height="43.8857" stroke="#00FF00" stroke-opacity="0.5"/>
<rect x="1250.97" y="659.285" width="43.8857" height="43.8857" stroke="#00FF00" stroke-opacity="0.5"/>
<rect x="1250.97" y="725.114" width="43.8857" height="43.8857" stroke="#00FF00" stroke-opacity="0.5"/>
<rect x="1316.8" y="659.285" width="43.8857" height="43.8857" stroke="#00FF00" stroke-opacity="0.5"/>
<rect x="1316.8" y="725.114" width="43.8857" height="43.8857" stroke="#00FF00" stroke-opacity="0.5"/>
<rect x="1250.97" y="527.629" width="43.8857" height="43.8857" stroke="#00FF00" stroke-opacity="0.5"/>
<rect x="1250.97" y="593.457" width="43.8857" height="43.8857" stroke="#00FF00" stroke-opacity="0.5"/>
<rect x="1316.8" y="527.629" width="43.8857" height="43.8857" stroke="#00FF00" stroke-opacity="0.5"/>
<rect x="1316.8" y="593.457" width="43.8857" height="43.8857" stroke="#00FF00" stroke-opacity="0.5"/>
<rect x="1514.29" y="1" width="43.8857" height="43.8857" stroke="#00FF00" stroke-opacity="0.5"/>
<rect x="1514.29" y="66.8291" width="43.8857" height="43.8857" stroke="#00FF00" stroke-opacity="0.5"/>
<rect x="1580.11" y="1" width="43.8857" height="43.8857" stroke="#00FF00" stroke-opacity="0.5"/>
<rect x="1580.11" y="66.8291" width="43.8857" height="43.8857" stroke="#00FF00" stroke-opacity="0.5"/>
<rect x="1514.29" y="132.657" width="43.8857" height="43.8857" stroke="#00FF00" stroke-opacity="0.5"/>
<rect x="1514.29" y="198.485" width="43.8857" height="43.8857" stroke="#00FF00" stroke-opacity="0.5"/>
<rect x="1580.11" y="132.657" width="43.8857" height="43.8857" stroke="#00FF00" stroke-opacity="0.5"/>
<rect x="1580.11" y="198.485" width="43.8857" height="43.8857" stroke="#00FF00" stroke-opacity="0.5"/>
<rect x="1514.29" y="264.314" width="43.8857" height="43.8857" stroke="#00FF00" stroke-opacity="0.5"/>
<rect x="1514.29" y="330.143" width="43.8857" height="43.8857" stroke="#00FF00" stroke-opacity="0.5"/>
<rect x="1580.11" y="264.314" width="43.8857" height="43.8857" stroke="#00FF00" stroke-opacity="0.5"/>
<rect x="1580.11" y="330.143" width="43.8857" height="43.8857" stroke="#00FF00" stroke-opacity="0.5"/>
<rect x="1514.29" y="395.972" width="43.8857" height="43.8857" stroke="#00FF00" stroke-opacity="0.5"/>
<rect x="1514.29" y="461.8" width="43.8857" height="43.8857" stroke="#00FF00" stroke-opacity="0.5"/>
<rect x="1580.11" y="395.972" width="43.8857" height="43.8857" stroke="#00FF00" stroke-opacity="0.5"/>
<rect x="1580.11" y="461.8" width="43.8857" height="43.8857" stroke="#00FF00" stroke-opacity="0.5"/>
<rect x="1514.29" y="659.285" width="43.8857" height="43.8857" stroke="#00FF00" stroke-opacity="0.5"/>
<rect x="1514.29" y="725.114" width="43.8857" height="43.8857" stroke="#00FF00" stroke-opacity="0.5"/>
<rect x="1580.11" y="659.285" width="43.8857" height="43.8857" stroke="#00FF00" stroke-opacity="0.5"/>
<rect x="1580.11" y="725.114" width="43.8857" height="43.8857" stroke="#00FF00" stroke-opacity="0.5"/>
<rect x="1514.29" y="527.629" width="43.8857" height="43.8857" stroke="#00FF00" stroke-opacity="0.5"/>
<rect x="1514.29" y="593.457" width="43.8857" height="43.8857" stroke="#00FF00" stroke-opacity="0.5"/>
<rect x="1580.11" y="527.629" width="43.8857" height="43.8857" stroke="#00FF00" stroke-opacity="0.5"/>
<rect x="1580.11" y="593.457" width="43.8857" height="43.8857" stroke="#00FF00" stroke-opacity="0.5"/>
</svg>
