<svg width="90" height="90" viewBox="0 0 90 90" fill="none" xmlns="http://www.w3.org/2000/svg">
<path d="M34.6569 53.5859H25.8711V62.0008H34.6569V53.5859Z" fill="#0A23FB"/>
<path d="M34.6569 36.0117H25.8711V44.4266H34.6569V36.0117Z" fill="#0A23FB"/>
<path d="M38.0562 48.9698V50.3129C38.0562 57.7231 43.5437 62.865 51.386 62.865C59.286 62.865 64.6043 57.7015 64.6043 50.3129V27.9092H55.1452V49.834C55.1452 52.4733 53.6041 54.126 51.386 54.126C49.0564 54.126 47.5152 52.4445 47.5152 49.834V48.9698H38.0562Z" fill="#0A23FB"/>
<path d="M90 17.4311V0H72.5689V6.07802H17.4311V0H0V17.4311H17.4311V11.3531H72.5689V17.4311H78.6469V72.5689H72.5689V78.6469H17.4311V72.5689H0V90H17.4311V83.922H72.5689V90H90V72.5689H83.9184V17.4311H90Z" fill="#0A23FB"/>
<path d="M11.3532 57.3848H6.07812V65.6376H11.3532V57.3848Z" fill="#0A23FB"/>
<path d="M11.3532 40.8711H6.07812V49.1239H11.3532V40.8711Z" fill="#0A23FB"/>
<path d="M11.3532 24.3633H6.07812V32.6161H11.3532V24.3633Z" fill="#0A23FB"/>
</svg>
