<svg id="project_hover" xmlns="http://www.w3.org/2000/svg" width="212.319" height="50" viewBox="0 0 212.319 50">
  <path id="Path_468" data-name="Path 468" d="M38.889,0H0V50H50V11.111ZM25,44.447a8.334,8.334,0,1,1,8.334-8.334A8.321,8.321,0,0,1,25,44.447Zm8.334-27.779H5.558V5.558H33.337Z" fill="lime"/>
  <path id="Path_469" data-name="Path 469" d="M78.622,21a.407.407,0,0,1-.214-.058.307.307,0,0,1-.117-.194L74.447,7.736a.215.215,0,0,1-.02-.1q0-.233.272-.233H78a.291.291,0,0,1,.311.252l1.651,6.331a.126.126,0,0,0,.058.078q.039,0,.058-.078l1.3-6.331a.3.3,0,0,1,.33-.252h2.835a.291.291,0,0,1,.311.252l1.457,6.331q.019.078.058.078t.058-.078l1.456-6.331a.291.291,0,0,1,.311-.252h3.321a.228.228,0,0,1,.214.1.232.232,0,0,1,.039.233L88.313,20.747A.291.291,0,0,1,88,21H84.895a.3.3,0,0,1-.33-.253l-1.4-6.68q-.019-.058-.058-.058t-.058.058l-1.223,6.661a.3.3,0,0,1-.311.272Zm23.473.233a6.142,6.142,0,0,1-2.854-.641,4.786,4.786,0,0,1-1.9-1.825,5.4,5.4,0,0,1-.68-2.738V12.377a5.22,5.22,0,0,1,.68-2.68,4.655,4.655,0,0,1,1.9-1.806,6.142,6.142,0,0,1,2.854-.641,6.068,6.068,0,0,1,2.855.641A4.631,4.631,0,0,1,106.873,9.7a5.221,5.221,0,0,1,.679,2.68v3.651a5.405,5.405,0,0,1-.679,2.738,4.759,4.759,0,0,1-1.923,1.825A6.069,6.069,0,0,1,102.1,21.233Zm0-3.127a1.686,1.686,0,0,0,1.3-.524,2.026,2.026,0,0,0,.5-1.437V12.339a1.956,1.956,0,0,0-.5-1.418,1.656,1.656,0,0,0-1.3-.544,1.7,1.7,0,0,0-1.3.544,2,2,0,0,0-.485,1.418v3.806a2.075,2.075,0,0,0,.485,1.437A1.727,1.727,0,0,0,102.1,18.106ZM119.928,21a.316.316,0,0,1-.33-.214l-2.136-4.933a.125.125,0,0,0-.116-.078h-.816a.086.086,0,0,0-.1.1v4.836a.269.269,0,0,1-.291.291h-3.069a.269.269,0,0,1-.291-.291V7.7a.269.269,0,0,1,.291-.291h5.884a4.724,4.724,0,0,1,2.311.544,3.768,3.768,0,0,1,1.554,1.534,4.413,4.413,0,0,1,.563,2.253,3.99,3.99,0,0,1-.641,2.253,3.625,3.625,0,0,1-1.728,1.4.092.092,0,0,0-.058.136l2.466,5.127a.808.808,0,0,1,.039.136.184.184,0,0,1-.078.155.313.313,0,0,1-.194.058Zm-3.4-10.467a.086.086,0,0,0-.1.1V12.9a.086.086,0,0,0,.1.1h1.825a1.5,1.5,0,0,0,1.01-.33,1.148,1.148,0,0,0,.389-.893,1.112,1.112,0,0,0-.389-.893,1.451,1.451,0,0,0-1.01-.35ZM128.909,21a.268.268,0,0,1-.291-.291V7.7a.268.268,0,0,1,.291-.291h3.068a.268.268,0,0,1,.291.291v4.641a.078.078,0,0,0,.039.078q.039.019.078-.039l3.379-4.8a.412.412,0,0,1,.369-.175h3.476c.156,0,.233.058.233.175a.346.346,0,0,1-.058.175l-4.039,5.612a.128.128,0,0,0,0,.136l4.175,7.147a.283.283,0,0,1,.058.175q0,.175-.252.175h-3.438a.356.356,0,0,1-.349-.194l-2.68-4.777c-.013-.039-.032-.058-.058-.058s-.052.019-.078.058l-.816,1.243a.3.3,0,0,0-.039.116v3.321a.268.268,0,0,1-.291.291ZM150,21.155a7.2,7.2,0,0,1-2.855-.524,4.415,4.415,0,0,1-1.9-1.534,4.035,4.035,0,0,1-.66-2.292v-.272a.268.268,0,0,1,.291-.291h3.01a.268.268,0,0,1,.291.291v.117a1.217,1.217,0,0,0,.563.971,2.625,2.625,0,0,0,1.535.408,1.481,1.481,0,0,0,1.029-.291.947.947,0,0,0,.311-.68.69.69,0,0,0-.389-.641,8.337,8.337,0,0,0-1.417-.524l-.564-.155a10.38,10.38,0,0,1-3.223-1.554,3.3,3.3,0,0,1-1.3-2.816,3.636,3.636,0,0,1,.66-2.156,4.2,4.2,0,0,1,1.806-1.457,6.947,6.947,0,0,1,5.34.058,4.555,4.555,0,0,1,1.942,1.592,4.005,4.005,0,0,1,.719,2.35v.175a.269.269,0,0,1-.291.291h-3.011a.269.269,0,0,1-.291-.291v-.019a1.382,1.382,0,0,0-.524-1.049,2.005,2.005,0,0,0-1.418-.485,1.726,1.726,0,0,0-.99.252.859.859,0,0,0-.1,1.3,3.236,3.236,0,0,0,.815.466q.544.214,1.67.563.156.058,1.36.427a4.119,4.119,0,0,1,2.039,1.3,3.329,3.329,0,0,1,.816,2.272,3.854,3.854,0,0,1-.661,2.253,4.224,4.224,0,0,1-1.845,1.437A6.983,6.983,0,0,1,150,21.155ZM74.6,44a.28.28,0,0,1-.233-.1.246.246,0,0,1,0-.233l5.438-13.031a.35.35,0,0,1,.349-.233h3.01a.228.228,0,0,1,.214.1.207.207,0,0,1,.019.233L77.981,43.767a.33.33,0,0,1-.35.233ZM98.583,30.406a5.053,5.053,0,0,1,2.428.563,3.784,3.784,0,0,1,1.612,1.573,4.583,4.583,0,0,1,.582,2.33,4.318,4.318,0,0,1-.6,2.292,4.042,4.042,0,0,1-1.689,1.534,5.531,5.531,0,0,1-2.506.544H96.35a.086.086,0,0,0-.1.1v4.369a.269.269,0,0,1-.291.291H92.893a.269.269,0,0,1-.291-.291V30.7a.269.269,0,0,1,.291-.291Zm-.6,5.923a1.693,1.693,0,0,0,1.146-.369,1.275,1.275,0,0,0,.447-1.01,1.3,1.3,0,0,0-.447-1.029,1.639,1.639,0,0,0-1.146-.388H96.35a.086.086,0,0,0-.1.1v2.6a.086.086,0,0,0,.1.1ZM115.339,44a.316.316,0,0,1-.33-.214l-2.136-4.933a.125.125,0,0,0-.117-.078h-.816a.086.086,0,0,0-.1.1v4.836a.268.268,0,0,1-.291.291h-3.068a.269.269,0,0,1-.292-.291V30.7a.269.269,0,0,1,.292-.291h5.884a4.727,4.727,0,0,1,2.311.544,3.78,3.78,0,0,1,1.554,1.534,4.414,4.414,0,0,1,.563,2.253,4,4,0,0,1-.641,2.253,3.628,3.628,0,0,1-1.729,1.4.093.093,0,0,0-.058.136l2.467,5.127a.865.865,0,0,1,.038.136.183.183,0,0,1-.077.155A.315.315,0,0,1,118.6,44Zm-3.4-10.467a.086.086,0,0,0-.1.1V35.9a.086.086,0,0,0,.1.1h1.826a1.506,1.506,0,0,0,1.01-.33,1.148,1.148,0,0,0,.388-.893,1.111,1.111,0,0,0-.388-.893,1.453,1.453,0,0,0-1.01-.35Zm17.351,10.7a6.143,6.143,0,0,1-2.855-.641,4.783,4.783,0,0,1-1.9-1.826,5.406,5.406,0,0,1-.68-2.738V35.377a5.222,5.222,0,0,1,.68-2.68,4.652,4.652,0,0,1,1.9-1.806,6.143,6.143,0,0,1,2.855-.641,6.071,6.071,0,0,1,2.855.641,4.628,4.628,0,0,1,1.922,1.806,5.221,5.221,0,0,1,.68,2.68v3.651a5.406,5.406,0,0,1-.68,2.738,4.756,4.756,0,0,1-1.922,1.826A6.071,6.071,0,0,1,129.291,44.233Zm0-3.127a1.688,1.688,0,0,0,1.3-.524,2.026,2.026,0,0,0,.505-1.437V35.339a1.956,1.956,0,0,0-.505-1.418,1.658,1.658,0,0,0-1.3-.544,1.694,1.694,0,0,0-1.3.544,2,2,0,0,0-.486,1.418v3.806a2.076,2.076,0,0,0,.486,1.437A1.725,1.725,0,0,0,129.291,41.106Zm15.347,3.049a6.054,6.054,0,0,1-2.738-.583,4.33,4.33,0,0,1-1.806-1.631,4.6,4.6,0,0,1-.641-2.447V38.465a.269.269,0,0,1,.291-.291h3.069a.269.269,0,0,1,.291.291v1.01a1.563,1.563,0,0,0,.408,1.126,1.483,1.483,0,0,0,1.126.427,1.591,1.591,0,0,0,1.146-.427,1.486,1.486,0,0,0,.447-1.126V30.7a.268.268,0,0,1,.291-.291h3.049a.268.268,0,0,1,.291.291v8.8a4.559,4.559,0,0,1-.66,2.447,4.437,4.437,0,0,1-1.845,1.631A6.085,6.085,0,0,1,144.638,44.155Zm20.471-10.914a.269.269,0,0,1-.291.291h-5.807a.086.086,0,0,0-.1.1v1.826a.086.086,0,0,0,.1.1H162.6a.268.268,0,0,1,.291.291v2.525a.268.268,0,0,1-.291.291h-3.593a.086.086,0,0,0-.1.1v2.02a.086.086,0,0,0,.1.1h5.807a.269.269,0,0,1,.291.291v2.544a.269.269,0,0,1-.291.291h-9.264a.269.269,0,0,1-.291-.291V30.7a.269.269,0,0,1,.291-.291h9.264a.269.269,0,0,1,.291.291Zm10.3,10.914a6.132,6.132,0,0,1-2.816-.621,4.631,4.631,0,0,1-1.884-1.748,5.2,5.2,0,0,1-.66-2.641V35.222a5.051,5.051,0,0,1,.66-2.6,4.631,4.631,0,0,1,1.884-1.748,6.132,6.132,0,0,1,2.816-.622,6.35,6.35,0,0,1,2.8.583,4.348,4.348,0,0,1,1.884,1.651,4.4,4.4,0,0,1,.679,2.447q0,.175-.291.214l-3.068.194h-.058c-.156,0-.233-.071-.233-.214a1.7,1.7,0,0,0-.467-1.262,1.833,1.833,0,0,0-2.485,0,1.7,1.7,0,0,0-.466,1.262V39.3a1.746,1.746,0,0,0,.466,1.262,1.889,1.889,0,0,0,2.485,0,1.747,1.747,0,0,0,.467-1.262.2.2,0,0,1,.077-.175.281.281,0,0,1,.214-.039l3.068.155q.291.019.291.194a4.461,4.461,0,0,1-2.563,4.137A6.35,6.35,0,0,1,175.412,44.155ZM196.1,30.406a.268.268,0,0,1,.291.291v2.563a.268.268,0,0,1-.291.291h-3.263a.086.086,0,0,0-.1.1v10.06a.268.268,0,0,1-.291.291h-3.068a.269.269,0,0,1-.292-.291V33.649a.086.086,0,0,0-.1-.1h-3.165a.269.269,0,0,1-.292-.291V30.7a.269.269,0,0,1,.292-.291Zm10.427,13.749a7.2,7.2,0,0,1-2.855-.524,4.421,4.421,0,0,1-1.9-1.534,4.035,4.035,0,0,1-.66-2.292v-.272a.268.268,0,0,1,.291-.291h3.01a.268.268,0,0,1,.291.291v.116a1.216,1.216,0,0,0,.564.971,2.62,2.62,0,0,0,1.534.408,1.481,1.481,0,0,0,1.029-.291.947.947,0,0,0,.311-.68.69.69,0,0,0-.389-.641,8.338,8.338,0,0,0-1.417-.524l-.563-.155a10.375,10.375,0,0,1-3.224-1.554,3.3,3.3,0,0,1-1.3-2.816,3.635,3.635,0,0,1,.66-2.156,4.2,4.2,0,0,1,1.806-1.457,6.949,6.949,0,0,1,5.341.058A4.567,4.567,0,0,1,211,32.406a4,4,0,0,1,.718,2.35v.175a.269.269,0,0,1-.291.291h-3.01a.269.269,0,0,1-.292-.291v-.02a1.378,1.378,0,0,0-.524-1.049,2.005,2.005,0,0,0-1.418-.486,1.726,1.726,0,0,0-.99.252.815.815,0,0,0-.35.7.824.824,0,0,0,.253.6,3.227,3.227,0,0,0,.816.466q.543.214,1.67.563.155.058,1.359.427a4.114,4.114,0,0,1,2.039,1.3,3.329,3.329,0,0,1,.816,2.272,3.847,3.847,0,0,1-.661,2.253,4.226,4.226,0,0,1-1.844,1.437A6.988,6.988,0,0,1,206.532,44.155Z" fill="lime"/>
  <path id="Path_470" data-name="Path 470" d="M74,22.942h89.548v.971H74Zm0,23H212.319v.971H74Z" fill="lime"/>
</svg>
