<svg xmlns="http://www.w3.org/2000/svg" width="187.48" height="207.19" viewBox="0 0 187.48 207.19">
  <g id="Group_107" data-name="Group 107" transform="translate(-312.315 -48.321)">
    <g id="Group_15" data-name="Group 15">
      <g id="Group_14" data-name="Group 14">
        <g id="Group_13" data-name="Group 13">
          <path id="Path_152" data-name="Path 152" d="M480.245,236.031V246.06h-.051v.061H470.155v-.061h-.06c0-3.339.009-6.689.009-10.029h.051v-.051h10.03v.051Z" fill="#fff"/>
          <path id="Path_153" data-name="Path 153" d="M499.8,127.341v29.71h-9.75l-.271-.15v-29.47l.181-.09Z"/>
          <path id="Path_154" data-name="Path 154" d="M489.955,97.8v29.54l-.181.09h-9.529V97.8Z"/>
          <path id="Path_155" data-name="Path 155" d="M489.825,236.031V246.06h-9.58V236.031Z"/>
          <path id="Path_156" data-name="Path 156" d="M480.245,186.531V156.9h9.529l.271.15v29.54c-1.82.04-3.46.12-5.09.11C483.385,186.681,481.814,186.591,480.245,186.531Z"/>
          <path id="Path_157" data-name="Path 157" d="M480.245,246.06v.061l-.051-.061Z"/>
          <path id="Path_158" data-name="Path 158" d="M480.245,236.031h-.06l.06-.051Z"/>
          <path id="Path_159" data-name="Path 159" d="M480.245,186.531v.05l-.06-.05Z"/>
          <path id="Path_160" data-name="Path 160" d="M480.245,97.741v.06h-.06Z"/>
          <path id="Path_161" data-name="Path 161" d="M480.245,97.741l-.06.06v-.06Z"/>
          <path id="Path_162" data-name="Path 162" d="M480.194,246.06l.051.061h-.051Z"/>
          <path id="Path_163" data-name="Path 163" d="M480.245,186.581h-.06v-.05Z"/>
          <path id="Path_164" data-name="Path 164" d="M480.245,235.98l-.06.051v-.051Z"/>
          <path id="Path_165" data-name="Path 165" d="M480.194,246.121v9.39h-9.96q-.044-4.68-.079-9.39Z"/>
          <path id="Path_166" data-name="Path 166" d="M480.185,226.331v9.649h-10.03v-9.649Z"/>
          <path id="Path_167" data-name="Path 167" d="M480.185,186.581v9.91c-3.47.05-6.741.09-10.03.14.03-3.27.05-6.54.079-10.05Z"/>
          <path id="Path_168" data-name="Path 168" d="M470.175,87.81h10.01v9.931c-3.3-.03-6.59-.05-10.13-.08v-9.57c-3.39-.42-6.59.13-9.92-.39v-9.71l.16-.09h9.88Z"/>
          <path id="Path_169" data-name="Path 169" d="M470.155,196.631v.04l-.04-.04Z"/>
          <path id="Path_170" data-name="Path 170" d="M470.155,246.06v.061h-.06Z"/>
          <path id="Path_171" data-name="Path 171" d="M470.155,246.06l-.06.061v-.061Z"/>
          <path id="Path_172" data-name="Path 172" d="M470.155,196.671h-.04v-.04Z"/>
          <path id="Path_173" data-name="Path 173" d="M470.155,235.98v.051l-.051-.051Z"/>
          <path id="Path_174" data-name="Path 174" d="M470.155,236.031H470.1v-.051Z"/>
          <path id="Path_175" data-name="Path 175" d="M470.115,196.671v9.78H460.3l-.231-.1c.361-3.4-.139-6.581.311-9.68Z"/>
          <path id="Path_176" data-name="Path 176" d="M470.1,236.031c0,3.34-.009,6.69-.009,10.029h-9.781c-.2-3.389-.129-6.589-.049-10.029Z"/>
          <path id="Path_177" data-name="Path 177" d="M460.3,206.451v9.85h-9.811v-9.95h9.58Z"/>
          <path id="Path_178" data-name="Path 178" d="M460.135,77.991h-9.651v-9.98H460.3V77.9Z"/>
          <path id="Path_179" data-name="Path 179" d="M450.484,216.3v.05l-.059-.05Z"/>
          <path id="Path_180" data-name="Path 180" d="M450.484,68.011h-.059l.059-.04Z"/>
          <path id="Path_181" data-name="Path 181" d="M450.484,67.971l-.059.04V67.98C450.444,67.98,450.465,67.971,450.484,67.971Z"/>
          <path id="Path_182" data-name="Path 182" d="M450.484,216.351h-.059v-.05Z"/>
          <path id="Path_183" data-name="Path 183" d="M450.425,216.351v9.87c-9.781.11-19.481-.02-29.34.07l-.29-.26v-9.79h2.64c5.11,0,10.209-.011,15.32.01C442.644,216.261,446.535,216.321,450.425,216.351Z"/>
          <path id="Path_184" data-name="Path 184" d="M449.3,68.131q-13.32.015-26.63.01c-.54,0-1.08-.11-1.93-.2V58.48c-.52-.059-1.351-.109-2.391-.159l2.6-.17h29.47V67.98A7.054,7.054,0,0,1,449.3,68.131Z"/>
          <path id="Path_185" data-name="Path 185" d="M422.675,68.141q13.32.015,26.63-.01a7.054,7.054,0,0,0,1.12-.151v.031h.059v9.98h9.651V87.7c3.33.52,6.53-.03,9.92.39v9.57c3.54.03,6.83.05,10.13.08v.06h.06v29.63h9.529V156.9h-9.529v29.63h-.06v.05h-9.951c-.029,3.51-.049,6.78-.079,10.05h-.04v.04h-9.74c-.45,3.1.05,6.28-.311,9.68h-9.58v9.95h-.059v.05c-3.89-.03-7.781-.09-11.67-.1-5.111-.021-10.21-.01-15.32-.01H420.8v9.79h-29.46c-.39-3.15.03-6.33-.26-9.58a10.522,10.522,0,0,0-1.44-.2q-13.65-.015-27.3.01a4.842,4.842,0,0,0-.65.08v-.04h-.06V206.52c-3.26-.319-6.44.031-9.89-.239v-9.61h-9.74v-.04h-.04v-9.91c-3.49-.05-6.76-.09-10.03-.14v-.05h-.06V157.02h-9.03c-.06-.069-.11-.119-.15-.169-.12-.13-.15-.17-.2-.22s-.14-.12-.14-.19q-.045-14.446-.08-28.881c.03,0,.06.011.09.011v-.07h9.13c.6-2.15.79-20.441.38-29.7h.06v-.06h9.95V88.02h9.75c.02-3.489.12-6.689-.08-9.9h.05V78.06h10.02c.02-1.849.04-3.469.04-5.1,0-1.651-.02-3.3-.03-4.95h.06V67.98a10.535,10.535,0,0,0,1.36.161q13.08.015,26.15,0c.55,0,1.1-.081,1.89-.15v-9.24c1.66-.521,19.93-.72,27.269-.43,1.04.05,1.871.1,2.391.159v9.461C421.6,68.031,422.135,68.141,422.675,68.141Z" fill="#fff"/>
          <path id="Path_186" data-name="Path 186" d="M420.8,226.031l.29.26c-.58,3.18.03,6.29-.391,9.53H391.1v-9.54l.24-.25Z"/>
          <path id="Path_187" data-name="Path 187" d="M420.955,58.151l-2.6.17c-7.339-.29-25.609-.091-27.269.43l-.12-.51c.04-1.87.11-3.511.11-5.15-.01-1.59-.09-3.18-.14-4.77h29.759C420.774,51.491,420.854,54.651,420.955,58.151Z"/>
          <path id="Path_188" data-name="Path 188" d="M391.335,226.031l-.24.25h-29.41v-9.94a4.842,4.842,0,0,1,.65-.08q13.65-.015,27.3-.01a10.522,10.522,0,0,1,1.44.2C391.365,219.7,390.945,222.881,391.335,226.031Z"/>
          <path id="Path_189" data-name="Path 189" d="M391.085,58.751v9.24c-.79.069-1.34.15-1.89.15q-13.065.015-26.15,0a10.535,10.535,0,0,1-1.36-.161V58.241h29.28Z"/>
          <path id="Path_190" data-name="Path 190" d="M361.685,216.3v.04c-.02,0-.04.01-.06.01Z"/>
          <path id="Path_191" data-name="Path 191" d="M361.685,67.98v.031l-.06-.04C361.645,67.971,361.665,67.98,361.685,67.98Z"/>
          <path id="Path_192" data-name="Path 192" d="M361.685,68.011h-.06v-.04Z"/>
          <path id="Path_193" data-name="Path 193" d="M361.685,216.3l-.06.05v-.05Z"/>
          <path id="Path_194" data-name="Path 194" d="M361.625,68.011c.01,1.65.03,3.3.03,4.95,0,1.63-.02,3.25-.04,5.1H351.6v-9.9C355.085,68.111,358.355,68.06,361.625,68.011Z"/>
          <path id="Path_195" data-name="Path 195" d="M351.735,206.281c3.45.27,6.63-.08,9.89.239V216.3h-9.94v-9.72Z"/>
          <path id="Path_196" data-name="Path 196" d="M351.735,196.671v9.61l-.05.3h-9.75c-.04-3.5-.12-6.69.06-9.91Z"/>
          <path id="Path_197" data-name="Path 197" d="M351.545,78.121c.2,3.21.1,6.41.08,9.9h-9.75l-1.66-.21c.52-.009,1.06-.029,1.6-.059v-9.63Z"/>
          <path id="Path_198" data-name="Path 198" d="M351.545,78.06l.05.061h-.05Z"/>
          <path id="Path_199" data-name="Path 199" d="M351.6,78.06v.061l-.05-.061Z"/>
          <path id="Path_200" data-name="Path 200" d="M341.995,196.631v.04h-.04Z"/>
          <path id="Path_201" data-name="Path 201" d="M341.995,196.631l-.04.04v-.04Z"/>
          <path id="Path_202" data-name="Path 202" d="M341.955,186.721v9.91h-10.02c-.02-1.861-.04-3.49-.04-5.111,0-1.649.02-3.3.03-4.939C335.2,186.631,338.465,186.671,341.955,186.721Z"/>
          <path id="Path_203" data-name="Path 203" d="M341.875,88.02v9.721h-9.95v-9.8c2.75-.23,5.44-.06,8.29-.131Z"/>
          <path id="Path_204" data-name="Path 204" d="M331.925,186.581h-.06l.06-.05Z"/>
          <path id="Path_205" data-name="Path 205" d="M331.865,97.741h.06v.06Z"/>
          <path id="Path_206" data-name="Path 206" d="M331.925,97.8h-.06v-.06Z"/>
          <path id="Path_207" data-name="Path 207" d="M331.925,186.531l-.06.05v-.05Z"/>
          <path id="Path_208" data-name="Path 208" d="M331.865,97.8c.41,9.259.22,27.55-.38,29.7h-9.13c-.05-1.09-.13-2.17-.13-3.26q-.015-11.85-.01-23.7V97.8Z"/>
          <path id="Path_209" data-name="Path 209" d="M331.865,157.02v29.511H322.3c-.22-9.65.02-19.36-.14-29.38l.52-.3c.04.05.09.1.15.169Z"/>
          <path id="Path_210" data-name="Path 210" d="M322.265,127.5h.09v.07Z"/>
          <path id="Path_211" data-name="Path 211" d="M322.355,127.571c-.03,0-.06-.011-.09-.011V127.5Z"/>
          <path id="Path_212" data-name="Path 212" d="M322.165,157.151c-3.35-.07-6.57-.14-9.85-.21V127.4a97.035,97.035,0,0,1,9.95.159q.045,14.446.08,28.881c0,.07.09.13.14.19s.08.09.2.22Z"/>
        </g>
      </g>
    </g>
    <g id="Group_29" data-name="Group 29">
      <path id="Path_401" data-name="Path 401" d="M421.237,171.794V162h10.045c.041-1.105.1-1.952.1-2.8q.009-17.226.014-34.452c0-.865.121-1.73.187-2.6l-.066.067c1.906.083,3.808.184,5.714.242,1.182.035,2.368.006,3.721.006v39.5h-9.514v9.762H421.175Z" fill-rule="evenodd"/>
      <path id="Path_402" data-name="Path 402" d="M431.581,122.158a12.988,12.988,0,0,1-2.062.361c-2.616.043-5.233.017-8.069.017v-9.782c-1.771-.038-3.33-.084-4.89-.1-1.506-.016-3.012,0-4.75,0-.282-3.332-.09-6.481-.143-9.821h9.762v9.542c3.347.418,6.527-.013,9.91.292.056,3.261.111,6.418.172,9.568Z" fill-rule="evenodd"/>
      <path id="Path_403" data-name="Path 403" d="M382.087,152.145h9.525v9.67h-9.525Z" fill-rule="evenodd"/>
      <path id="Path_404" data-name="Path 404" d="M391.764,132.311h-9.616v-9.838h9.518C391.9,125.753,391.741,128.9,391.764,132.311Z" fill-rule="evenodd"/>
      <path id="Path_405" data-name="Path 405" d="M421.175,171.735c.123,3.235.248,6.469.377,9.872H411.72c-.118-3.183-.032-6.324-.045-9.749,1.677-.036,3.232-.089,4.789-.1,1.592-.009,3.185.024,4.775.036Z" fill-rule="evenodd"/>
    </g>
  </g>
</svg>
