<svg width="240" height="170" viewBox="0 0 240 170" fill="none" xmlns="http://www.w3.org/2000/svg">
<path d="M142.223 0H80V80H160V17.7768L142.223 0ZM120.004 71.1158C112.623 71.1158 106.669 65.162 106.669 57.7811C106.669 50.4001 112.623 44.4463 120.004 44.4463C127.385 44.4463 133.339 50.4001 133.339 57.7811C133.339 65.162 127.385 71.1158 120.004 71.1158ZM133.339 26.6695H88.8926V8.89264H133.339V26.6695Z" fill="#0000FF"/>
<path d="M72.5819 97.006L69.0943 109.7L63.7529 97.1317H61.6792L56.4321 109.7L52.8502 97.006H46.3462L53.2272 119H58.5686L62.7161 108.411L66.9263 119H72.2677L79.0545 97.006H72.5819ZM98.567 119.566C105.637 119.566 110.664 114.758 110.664 108.034C110.664 101.279 105.637 96.4719 98.567 96.4719C91.4975 96.4719 86.4703 101.311 86.4703 108.034C86.4703 114.727 91.4975 119.566 98.567 119.566ZM98.567 113.941C95.2365 113.941 92.7543 111.428 92.7543 108.034C92.7543 104.61 95.2365 102.096 98.567 102.096C101.929 102.096 104.348 104.578 104.348 108.034C104.348 111.459 101.929 113.941 98.567 113.941ZM132.401 119H139.156L134.789 111.019C136.957 109.731 138.277 107.5 138.277 104.798C138.277 100.211 134.82 97.006 130.107 97.006L120.556 97.006V119H126.62V112.276H128.819L132.401 119ZM126.62 102.41H129.385C131.081 102.41 132.055 103.416 132.055 104.798C132.055 106.149 131.081 107.186 129.385 107.186H126.62V102.41ZM168.175 119L160.477 107.689L167.515 97.006H160.477L154.664 106.306V97.006H148.6V119H154.664V109.291L160.98 119H168.175ZM183.885 119.566C189.007 119.566 192.683 117.052 192.683 112.245C192.683 107.249 188.472 106.149 185.205 105.332C183.162 104.798 181.497 104.39 181.497 103.133C181.497 102.096 182.534 101.625 183.602 101.625C184.859 101.625 185.896 102.285 185.896 103.698H191.991C191.991 99.2054 188.944 96.5033 183.665 96.5033C178.481 96.5033 175.307 98.9855 175.307 103.321C175.307 108.317 179.361 109.291 182.534 110.077C184.639 110.579 186.367 110.988 186.367 112.37C186.367 113.564 185.142 114.256 183.885 114.256C182.503 114.256 181.277 113.47 181.277 111.899H175.025C175.025 116.706 178.512 119.566 183.885 119.566ZM2.06135 152.967H18.1484V147.657H2.06135L2.06135 152.967ZM38.1595 137.006H28.7963V159H34.8604V152.936H38.1595C42.8411 152.936 46.3287 149.574 46.3287 144.955C46.3287 140.368 42.8411 137.006 38.1595 137.006ZM37.4368 147.657H34.8604V142.316H37.4368C39.0393 142.316 40.0761 143.416 40.0761 144.987C40.0761 146.558 39.0393 147.657 37.4368 147.657ZM66.9068 159H73.6621L69.2947 151.019C71.4627 149.731 72.7824 147.5 72.7824 144.798C72.7824 140.211 69.3262 137.006 64.6132 137.006H55.0615L55.0615 159H61.1255V152.276H63.3249L66.9068 159ZM61.1255 142.41H63.8905C65.5872 142.41 66.5612 143.416 66.5612 144.798C66.5612 146.149 65.5872 147.186 63.8905 147.186H61.1255V142.41ZM94.0719 159.566C101.141 159.566 106.169 154.758 106.169 148.034C106.169 141.279 101.141 136.472 94.0719 136.472C87.0024 136.472 81.9752 141.311 81.9752 148.034C81.9752 154.727 87.0024 159.566 94.0719 159.566ZM94.0719 153.941C90.7414 153.941 88.2592 151.428 88.2592 148.034C88.2592 144.61 90.7414 142.096 94.0719 142.096C97.4338 142.096 99.8532 144.578 99.8532 148.034C99.8532 151.459 97.4338 153.941 94.0719 153.941ZM122.207 159.566C127.297 159.566 130.722 156.235 130.722 151.459V137.006H124.627V151.176C124.627 152.873 123.621 153.941 122.207 153.941C120.699 153.941 119.694 152.842 119.694 151.176V150.611H113.598V151.459C113.598 156.266 117.149 159.566 122.207 159.566ZM147.622 153.753V150.454H154.848V145.489H147.622V142.253H155.665V137.006H141.589V159H155.948V153.753H147.622ZM176.785 159.566C182.629 159.566 187.122 155.638 187.971 149.857H181.781C181.153 152.308 179.236 153.91 176.785 153.91C173.675 153.91 171.381 151.428 171.381 148.034C171.381 144.641 173.675 142.127 176.785 142.127C179.11 142.127 180.996 143.604 181.75 145.835H187.908C186.997 140.274 182.535 136.472 176.785 136.472C170.093 136.472 165.097 141.436 165.097 148.034C165.097 154.601 170.093 159.566 176.785 159.566ZM213.315 137.006H195.28V142.473H201.25V159H207.345V142.473H213.315V137.006ZM229.772 159.566C234.894 159.566 238.57 157.052 238.57 152.245C238.57 147.249 234.36 146.149 231.092 145.332C229.05 144.798 227.384 144.39 227.384 143.133C227.384 142.096 228.421 141.625 229.49 141.625C230.746 141.625 231.783 142.285 231.783 143.698H237.879C237.879 139.205 234.831 136.503 229.552 136.503C224.368 136.503 221.195 138.985 221.195 143.321C221.195 148.317 225.248 149.291 228.421 150.077C230.526 150.579 232.255 150.988 232.255 152.37C232.255 153.564 231.029 154.256 229.772 154.256C228.39 154.256 227.165 153.47 227.165 151.899H220.912C220.912 156.706 224.4 159.566 229.772 159.566Z" fill="#0000FF"/>
<path d="M46.252 122.142L193.751 122.142V123.713L46.252 123.713V122.142ZM0.36467 162.142H239.638V163.713H0.36467L0.36467 162.142Z" fill="#0000FF"/>
</svg>
